<svg width="48" height="48" viewBox="0 0 48 48" fill="none" xmlns="http://www.w3.org/2000/svg">
  <path d="M12.8318 32.3145V34.537L16.038 36.6211L19.8986 34.3922C20.3832 34.1124 21.0033 34.2792 21.2836 34.7647C21.564 35.2502 21.3983 35.8707 20.9137 36.1505L17.9481 37.8626L19.1069 38.6159L22.7611 36.3672C22.7772 36.3573 22.7934 36.3476 22.8097 36.3382V31.0055L15.7798 35.0642C15.2951 35.344 14.675 35.1773 14.3947 34.6917C14.1144 34.2062 14.28 33.5858 14.7647 33.306L18.6213 31.0794V27.3022L16.1502 25.8196L12.5131 27.9749C12.0317 28.2602 11.4109 28.0998 11.1267 27.6166C10.8424 27.1334 11.0022 26.5104 11.4837 26.2251L14.9861 24.1496V20.5952L11.9131 18.5056L8.83177 21.0267L8.83177 23.0486L12.1682 21.1223C12.6528 20.8425 13.2729 21.0093 13.5533 21.4948C13.8336 21.9803 13.6679 22.6008 13.1833 22.8806L8.83177 25.3929V26.6069L12.0864 29.2698C12.3476 29.4835 12.5481 29.7562 12.675 30.0607L16.3494 27.9393C16.834 27.6595 17.4542 27.8263 17.7345 28.3118C18.0148 28.7973 17.8492 29.4177 17.3645 29.6975L12.8318 32.3145Z" fill="#C7C7D1"/>
  <path d="M24.8541 36.3529L24.8344 36.3412V33.5605H27.5856C27.9125 34.0426 28.465 34.3594 29.0914 34.3594C30.0955 34.3594 30.9096 33.5454 30.9096 32.5412C30.9096 31.5371 30.0955 30.723 29.0914 30.723C28.4622 30.723 27.9076 31.0427 27.5812 31.5284H24.8344V24.3923L21.692 22.0879C21.2406 21.7569 20.6072 21.8558 20.2774 22.3089C19.9475 22.762 20.0461 23.3976 20.4975 23.7287L22.8097 25.4243V28.6612L20.646 29.9104L20.646 26.1495L17.0108 23.9684V20.765L21.0108 18.4013V13.3659C21.0108 12.8048 20.5575 12.3499 19.9984 12.3499C19.4393 12.3499 18.9861 12.8048 18.9861 13.3659V17.2396L16.1369 18.9233L12.8318 16.6758V13.0966L14.9849 11.697V16.3659C14.9849 16.927 15.4381 17.3819 15.9973 17.3819C16.5564 17.3819 17.0096 16.927 17.0096 16.3659V10.381L19.1069 9.01772L22.7611 11.2664C22.776 11.2756 22.7909 11.2846 22.806 11.2933V20.2924L26.5415 22.5455C26.5426 23.5487 27.3562 24.3616 28.3597 24.3616C29.3638 24.3616 30.1779 23.5476 30.1779 22.5435C30.1779 21.5393 29.3638 20.7253 28.3597 20.7253C28.1176 20.7253 27.8865 20.7726 27.6752 20.8585L24.8307 19.1428V11.2945C24.8465 11.2854 24.8622 11.276 24.8778 11.2664L28.5319 9.01772L34.8071 13.0966V13.89H30.5956C30.2684 13.4093 29.7167 13.0936 29.0914 13.0936C28.0872 13.0936 27.2732 13.9076 27.2732 14.9118C27.2732 15.9159 28.0872 16.7299 29.0914 16.7299C29.7217 16.7299 30.277 16.4092 30.6032 15.9221H34.8071V16.7888C34.8071 17.3995 35.0808 17.9779 35.5524 18.3638L38.8071 21.0267V26.6069L38.6893 26.7033L36.5403 25.407C36.5436 25.3622 36.5453 25.3169 36.5453 25.2711C36.5453 24.267 35.7313 23.453 34.7271 23.453C33.723 23.453 32.909 24.267 32.909 25.2711C32.909 26.2753 33.723 27.0893 34.7271 27.0893C34.9143 27.0893 35.0949 27.061 35.2648 27.0085L37.0213 28.068L35.5524 29.2698C35.0808 29.6557 34.8071 30.2341 34.8071 30.8448V34.537L28.5319 38.6159L24.8778 36.3672L24.8541 36.3529Z" fill="#C7C7D1"/>
  <path fill-rule="evenodd" clip-rule="evenodd" d="M1.82225 0C0.815847 0 0 0.818812 0 1.82887V46.1711C0 47.1812 0.815844 48 1.82224 48H46.1778C47.1842 48 48 47.1812 48 46.1711V1.82887C48 0.818815 47.1842 0 46.1778 0H1.82225ZM20.1653 7.28535C19.5005 6.87628 18.6608 6.88668 18.0063 7.3121L11.7311 11.3909C11.1549 11.7655 10.8071 12.4075 10.8071 13.0966V16.7888L7.55243 19.4516C7.08076 19.8375 6.80705 20.4159 6.80705 21.0267V26.6069C6.80705 27.2177 7.08076 27.7961 7.55243 28.182L10.8071 30.8448V31.6529C10.8035 31.7019 10.8034 31.7513 10.8071 31.8008V34.537C10.8071 35.2261 11.1549 35.8681 11.7311 36.2427L18.0063 40.3215C18.6608 40.7469 19.5005 40.7573 20.1653 40.3482L23.8194 38.0995L27.4736 40.3482C28.1383 40.7573 28.9781 40.7469 29.6326 40.3215L35.9077 36.2427C36.4839 35.8681 36.8318 35.2261 36.8318 34.537V30.8448L40.0864 28.182C40.5581 27.7961 40.8318 27.2177 40.8318 26.6069V21.0267C40.8318 20.4159 40.5581 19.8375 40.0864 19.4516L36.8318 16.7888V13.0966C36.8318 12.4075 36.4839 11.7655 35.9077 11.3909L29.6326 7.3121C28.9781 6.88668 28.1383 6.87628 27.4736 7.28535L23.8194 9.53406L20.1653 7.28535Z" fill="#C7C7D1"/>
</svg>
