<svg width="77" height="45" viewBox="0 0 77 45" fill="none" xmlns="http://www.w3.org/2000/svg">
  <path fill-rule="evenodd" clip-rule="evenodd" d="M38.1489 6.54337C33.9794 10.7219 31.6377 16.3837 31.6377 22.2867C31.6377 28.1896 33.9794 33.8515 38.1489 38.03L45.7391 30.4397C43.5725 28.2731 42.3554 25.3346 42.3554 22.2706C42.3554 19.2066 43.5725 16.268 45.7391 14.1014C47.9057 11.9348 50.8443 10.7177 53.9083 10.7177C56.9723 10.7177 59.9108 11.9348 62.0774 14.1014L69.6998 6.54337C67.6296 4.46913 65.1707 2.82353 62.4637 1.70073C59.7567 0.577936 56.8549 0 53.9244 0C50.9938 0 48.092 0.577936 45.385 1.70073C42.6781 2.82353 40.2191 4.46913 38.1489 6.54337ZM6.59766 6.54575L14.1557 14.136C15.2281 13.0624 16.5015 12.2107 17.9032 11.6296C19.305 11.0485 20.8075 10.7494 22.3249 10.7494C23.8423 10.7494 25.3448 11.0485 26.7465 11.6296C28.1482 12.2107 29.4217 13.0624 30.494 14.136L35.9937 4.71251L35.6721 4.45522C31.3823 1.25477 26.0841 -0.295169 20.7458 0.0886722C15.4074 0.472513 10.3854 2.7645 6.59766 6.54575ZM14.1552 14.1371L6.59715 6.54688C2.42761 10.7254 0.0859375 16.3872 0.0859375 22.2902C0.0859375 28.1931 2.42761 33.855 6.59715 38.0335L12.7123 31.9183L6.59766 38.059C10.3779 41.8065 15.3745 44.0774 20.6837 44.4608C25.9929 44.8443 31.2639 43.3149 35.5435 40.1495L35.8972 39.8601H36.0259L30.494 30.4688C29.4217 31.5423 28.1482 32.394 26.7465 32.9751C25.3448 33.5562 23.8423 33.8553 22.3249 33.8553C20.8075 33.8553 19.305 33.5562 17.9032 32.9751C16.5028 32.3946 15.2305 31.544 14.1588 30.4718L14.1874 30.4432C12.0247 28.2831 10.8068 25.3535 10.8008 22.2968C10.7948 19.2401 12.0011 16.3058 14.1552 14.1371ZM62.1413 14.1371L69.6993 6.54688C71.7689 8.61854 73.4101 11.0775 74.5294 13.7835C75.6486 16.4894 76.2239 19.3893 76.2224 22.3176C76.2209 25.2459 75.6427 28.1452 74.5207 30.85C73.3987 33.5548 71.7549 36.0122 69.6833 38.0817C67.6116 40.1513 65.1526 41.7925 62.4467 42.9117C59.7407 44.031 56.8408 44.6062 53.9125 44.6047C47.9986 44.6017 42.3281 42.2495 38.1484 38.0656L45.803 30.4754C47.9696 32.642 50.9081 33.8592 53.9721 33.8592C57.0362 33.8592 59.9747 32.642 62.1413 30.4754C64.3079 28.3088 65.5251 25.3703 65.5251 22.3063C65.5251 19.2422 64.3079 16.3037 62.1413 14.1371Z" fill="#C7C7D1"/>
</svg>
