<svg width="46" height="46" viewBox="0 0 46 46" fill="none" xmlns="http://www.w3.org/2000/svg">
  <path fill-rule="evenodd" clip-rule="evenodd" d="M0 22.9907C0 10.3002 10.3002 0 22.9907 0C35.6983 0 45.9813 10.3002 45.9813 22.9907C45.9813 35.6811 35.6811 45.9813 22.9907 45.9813C10.3002 45.9813 0 35.6811 0 22.9907ZM23.9536 29.439H35.5091V27.6507H23.9536V29.439ZM33.7036 16.4907C33.2737 13.705 34.0647 12.6732 34.0647 12.6732L35.6295 10.8161L33.9271 11.2976C33.2393 10.1799 31.9668 9.56081 30.6599 9.69837C28.7856 9.90472 27.4271 11.5727 27.6335 13.447L9.14811 36.2313C9.14811 36.2313 9.2169 36.5581 9.50922 36.4033C9.78646 36.248 10.5071 35.5207 12.6626 33.345C13.8496 32.1469 15.4717 30.5096 17.6944 28.2869C19.8094 26.189 23.3174 26.361 23.3174 26.361H26.8941C31.7433 26.361 34.4946 21.7182 33.7036 16.4907ZM30.042 12.3303C30.0936 11.8144 30.5407 11.4533 31.0394 11.5049C31.4693 11.5393 31.8132 11.8832 31.8648 12.3303C31.8991 12.829 31.538 13.2761 31.0394 13.3276H30.8674C30.3515 13.2761 29.9904 12.8462 30.042 12.3303Z" fill="#C7C7D1"/>
</svg>
