<svg width="49" height="50" viewBox="0 0 49 50" fill="none" xmlns="http://www.w3.org/2000/svg">
  <path d="M48.0577 37.0256V28.2156L47.1053 27.6204L24.2471 40.1209L2.57939 28.2156V23.0963L24.2471 34.8826L48.1768 21.9058V13.2149L47.2244 12.6196L24.2471 25.2393L3.41277 13.8102L24.2471 2.38106L41.0336 11.5482L42.3432 10.8338V9.88142L24.2471 0L0.317383 12.9768V14.2864L24.2471 27.3822L45.9148 15.4769V20.7153L24.2471 32.6206L1.26981 20.0009L0.317383 20.5962V29.4061L24.2471 42.3829L45.9148 30.5967V35.716L24.2471 47.6213L1.26981 35.1207L0.317383 35.716V37.0256L24.2471 50.0024L48.0577 37.0256Z" fill="#C7C7D1"/>
</svg>
