<svg width="109" height="48" viewBox="0 0 109 48" fill="none" xmlns="http://www.w3.org/2000/svg">
  <path fill-rule="evenodd" clip-rule="evenodd" d="M5.85832 35.9944C3.77147 32.3798 2.78022 28.4326 2.78136 24.5379C2.76868 20.4891 3.82889 16.4944 5.8461 12.9862C5.8118 13.0717 5.77799 13.1573 5.74464 13.2431C5.77822 13.1835 5.81208 13.124 5.84621 13.0646C4.64656 16.0541 4.02209 19.2599 4.02164 22.4988C4.03431 26.7571 5.12596 31.0702 7.4075 35.0216C11.4381 42.0036 18.3006 46.332 25.7067 47.3906C25.521 47.3903 25.3354 47.3877 25.15 47.3829C25.3353 47.4135 25.5209 47.4422 25.7068 47.4688C17.7929 47.4549 10.1003 43.3425 5.85832 35.9944ZM1.54121 24.564C1.54523 21.7087 2.03741 18.8052 3.07029 15.9661C5.82749 8.39052 11.8352 2.93662 18.9453 0.6091C18.7868 0.637321 18.6287 0.667198 18.471 0.698711C18.6285 0.643677 18.7866 0.590187 18.9453 0.53825C11.1533 1.92589 4.29088 7.31128 1.38963 15.2832C0.442791 17.8858 -0.00403949 20.5481 2.7508e-05 23.165C-0.0084078 28.5928 1.92369 33.8293 5.35852 37.9375C5.30234 37.8471 5.24674 37.7564 5.19172 37.6653C5.24692 37.7329 5.30252 37.8002 5.35852 37.8672C2.90063 33.9129 1.54789 29.3062 1.54121 24.564ZM19.0232 34.5781V20.3849H13.5645V34.5781H19.0232ZM32.9794 18.1994L41.9497 18.2C42.5519 18.2 43.0406 18.6881 43.0406 19.2921C43.0406 19.8951 42.5519 20.3832 41.9497 20.3832L28.8506 20.3848V34.5781H34.3096V25.8436L41.9497 25.8429C45.5668 25.8429 48.5004 22.9102 48.5004 19.2921C48.5004 15.6746 45.5668 12.7415 41.9497 12.7415L32.9794 12.7444V18.1994ZM26.6666 12.7447L32.1555 12.7444V18.1994L26.664 18.1989V34.5781H21.2061V18.1994H19.8818V12.7447H21.2061H21.208C21.208 8.52433 24.6301 5.10284 28.8511 5.10284V5.09972H34.3102V10.5593H28.8511V10.561C27.6444 10.561 26.6666 11.5396 26.6666 12.7447ZM19.0236 12.7484H13.5645V18.2031H19.0236V12.7484ZM6.99805 31.0603C10.5262 37.6573 16.9397 42.6271 24.8803 44.0266C32.8193 45.4273 40.5453 42.9518 46.1174 37.9589C46.0266 38.0669 45.9347 38.1739 45.8419 38.2801C45.9344 38.1996 46.0262 38.1185 46.1174 38.0368C41.0198 44.0913 32.9245 47.3403 24.5691 45.8659C16.2141 44.3947 9.71849 38.5698 6.99805 31.139C7.0294 31.1976 7.06099 31.2561 7.0928 31.3145C7.06073 31.2299 7.02914 31.1452 6.99805 31.0603ZM108.326 17.2051H104.87C104.868 17.2051 104.865 17.2053 104.861 17.2057L104.845 17.2071L104.845 17.2071C104.803 17.2112 104.711 17.2199 104.589 17.2199C104.209 17.2199 104.117 17.2341 103.961 17.3217C103.8 17.4232 103.658 17.6122 103.595 17.8311C103.54 18.0205 103.561 18.1512 103.639 18.282C103.77 18.4859 103.907 18.5157 104.665 18.5157H105.817C107.378 18.5157 108.053 19.2576 107.682 20.5391C107.51 21.136 107.092 21.7762 106.59 22.1982C106.281 22.4607 105.925 22.6354 105.586 22.6937C105.322 22.7522 104.789 22.7812 104.293 22.7812H100.269L100.706 21.267H104.176H104.541L104.808 21.2521C105.381 21.2378 105.631 21.0777 105.749 20.6698C105.808 20.4664 105.79 20.2767 105.706 20.1604C105.578 20.0003 105.426 19.9711 104.755 19.9711H103.573C102.918 19.9711 102.624 19.9272 102.338 19.8111C101.605 19.5202 101.326 18.7193 101.604 17.7581C101.755 17.2341 102.069 16.7536 102.485 16.3755C103.059 15.851 103.529 15.691 104.593 15.691H108.763L108.326 17.2051ZM65.4926 15.7055C65.3655 15.691 65.2054 15.691 64.9862 15.691H61.2242L59.1738 22.7812H61.1283L62.7406 17.2051H64.4327C65.1611 17.2051 65.3544 17.4962 65.1523 18.1953L63.8263 22.7812H65.7803L67.0385 18.4276C67.3294 17.4232 67.2978 16.7244 66.918 16.2729C66.6297 15.9093 66.1439 15.72 65.4926 15.7055ZM73.9993 19.9855H69.887C69.6871 20.9317 70.0419 21.267 71.2379 21.267H73.6294L73.1913 22.7812H70.5812C69.4582 22.7812 68.897 22.6064 68.3978 22.1111C67.7232 21.4708 67.5799 20.4517 67.9546 19.156C68.3174 17.9039 69.1839 16.7684 70.2085 16.2004C70.8348 15.851 71.5228 15.691 72.5002 15.691H75.2408L74.8038 17.2051H72.1934C71.129 17.2051 70.6898 17.5107 70.3251 18.4714H74.4374L73.9993 19.9855ZM81.5447 16.2442C81.1999 15.8217 80.7129 15.691 79.5174 15.691H76.7506L74.7012 22.7812H76.6551L78.2676 17.2051H78.7157C79.6775 17.2051 79.8807 17.5107 79.5902 18.5157L79.4807 18.8941H81.3616L81.5598 18.2095C81.8756 17.1175 81.8623 16.6078 81.5447 16.2442ZM86.0347 17.2021C84.8975 17.2021 84.1496 17.8716 83.7498 19.2545C83.3712 20.5651 83.7959 21.264 84.9624 21.264H86.4793L87.6538 17.2021H86.0347ZM88.0126 22.7194C87.9787 22.8365 87.9221 22.9814 87.8337 23.1854C87.5588 23.8843 87.3541 24.1899 86.9342 24.583C86.3412 25.122 85.7365 25.2969 84.5254 25.2969H80.6465L81.0846 23.7827H84.7011C85.5321 23.7827 85.8053 23.5933 86.0037 22.909L86.0413 22.7782H84.2479C83.0962 22.7782 82.4881 22.5594 82.0401 21.992C81.5292 21.3364 81.4428 20.3761 81.7754 19.2259C82.1541 17.9156 82.8819 16.9112 83.9193 16.2991C84.6576 15.8627 85.3351 15.6879 86.3995 15.6879H90.0447L88.0126 22.7194ZM94.2237 13.0703H92.2697L91.7227 14.9629H93.6767L94.2237 13.0703ZM91.4168 22.7812L93.4669 15.691H91.5126L89.4629 22.7812H91.4168ZM99.8589 19.9855H95.7466C95.5462 20.9317 95.901 21.267 97.097 21.267H99.4879L99.051 22.7812H96.4406C95.3179 22.7812 94.7556 22.6064 94.2575 22.1111C93.5823 21.4708 93.4396 20.4517 93.8137 19.156C94.1759 17.9039 95.0436 16.7684 96.0682 16.2004C96.6945 15.851 97.3819 15.691 98.3587 15.691H101.1L100.662 17.2051H98.052C96.9876 17.2051 96.5495 17.5107 96.1847 18.4714H100.297L99.8589 19.9855ZM57.4516 14.7611H60.1484L60.651 13.0263H57.1528C56.0884 13.0263 55.4047 13.1722 54.7875 13.4932C54.2695 13.7701 53.7512 14.149 53.2958 14.6153C52.392 15.519 51.8317 16.4962 51.4513 17.8079C50.7838 20.1108 51.2011 21.8893 52.5208 22.4146C53.1093 22.6473 53.9252 22.75 55.1346 22.75H57.8314L58.3335 21.0148H55.7248C53.7421 21.0148 53.1789 20.4464 53.5198 18.7705H58.9848L59.4843 17.05H54.0187L54.1234 16.7876C54.3576 16.1314 54.5336 15.8252 54.9117 15.4755C55.1778 15.2134 55.4797 15.0241 55.768 14.9359C56.1367 14.8194 56.7082 14.7611 57.4516 14.7611ZM57.6508 31.0361C57.2499 32.4193 57.6525 33.1477 58.8335 33.1477C59.9854 33.1477 60.7792 32.4193 61.1957 30.978C61.6087 29.5514 61.2215 28.8233 60.0545 28.8233C58.8735 28.8233 58.1031 29.5223 57.6633 30.993L57.6508 31.0361ZM60.4693 27.3382C62.8466 27.3382 63.8467 28.7217 63.1647 31.0797C62.5333 33.2637 60.6791 34.6328 58.3462 34.6328C55.9817 34.6328 55.0032 33.2784 55.6852 30.9197C56.3081 28.765 58.2089 27.3382 60.4693 27.3382ZM71.9559 27.4418H70.0017L68.3895 33.017H66.5521C65.9539 33.017 65.714 32.6389 65.899 31.9985L67.2168 27.4418H65.2628L64 31.8088C63.7134 32.799 63.7592 33.4978 64.135 33.9638C64.4281 34.3131 64.9083 34.5173 65.546 34.5312H66.0563H69.9059L71.9559 27.4418ZM78.4026 27.4418H80.4739L75.3618 34.5312H73.262L72.4824 27.4418H74.6112L75.0095 32.3185L78.4026 27.4418ZM81.3132 31.736H85.4249L85.8633 30.2219H81.7513C82.116 29.2616 82.5541 28.9551 83.6185 28.9551H86.2289L86.667 27.4418H83.925C82.9481 27.4418 82.261 27.6017 81.6344 27.9506C80.6101 28.5187 79.7422 29.6545 79.3808 30.9065C79.0058 32.2017 79.1483 33.2212 79.8237 33.8617C80.3227 34.3563 80.8842 34.5312 82.0068 34.5312H84.6172L85.0545 33.017H82.6633C81.4672 33.017 81.1124 32.6825 81.3132 31.736ZM86.0459 34.5312L88.8527 24.8206H90.8067L87.9999 34.5312H86.0459ZM92.1934 24.8206L89.3857 34.5312H91.3397L94.1474 24.8206H92.1934ZM99.7005 31.736H95.5882C95.3878 32.6825 95.7426 33.017 96.9386 33.017H99.3298L98.8925 34.5312H96.2824C95.1598 34.5312 94.5983 34.3563 94.0991 33.8617C93.4239 33.2212 93.2812 32.2017 93.6561 30.9065C94.0175 29.6545 94.8854 28.5187 95.9097 27.9506C96.536 27.6017 97.2235 27.4418 98.2003 27.4418H100.942L100.504 28.9551H97.8938C96.8294 28.9551 96.3913 29.2616 96.0263 30.2219H100.139L99.7005 31.736ZM104.631 28.9551H108.088L108.525 27.4418H104.355C103.29 27.4418 102.821 27.6017 102.247 28.1255C101.831 28.504 101.517 28.985 101.366 29.5089C101.088 30.4695 101.366 31.2706 102.099 31.5611C102.386 31.6778 102.68 31.7221 103.336 31.7221H104.517C105.188 31.7221 105.34 31.7505 105.468 31.9112C105.552 32.0277 105.57 32.2168 105.511 32.4204C105.393 32.828 105.143 32.9884 104.57 33.0028L104.303 33.017H103.938H100.468L100.03 34.5312H104.055C104.551 34.5312 105.084 34.5023 105.349 34.4442C105.687 34.3857 106.043 34.2111 106.352 33.9492C106.853 33.5268 107.272 32.8863 107.445 32.2899C107.815 31.0082 107.14 30.2663 105.579 30.2663H104.427C103.669 30.2663 103.532 30.237 103.401 30.0328C103.323 29.902 103.302 29.7704 103.357 29.5814C103.42 29.3633 103.563 29.1738 103.723 29.0719C103.879 28.985 103.971 28.9702 104.351 28.9702C104.474 28.9702 104.565 28.9612 104.607 28.9571L104.607 28.9571L104.625 28.9554L104.631 28.9551ZM52.951 27.4254C53.1691 27.4254 53.3297 27.4254 53.4568 27.4403C54.1084 27.4545 54.5928 27.6445 54.8811 28.0087C55.2592 28.4607 55.2896 29.1595 54.9988 30.1657L53.7345 34.5236H51.7814L53.113 29.9326C53.3157 29.2329 53.123 28.9415 52.3946 28.9415H50.7039L49.0846 34.5236H47.1321L49.1906 27.4254H52.951Z" fill="#C7C7D1"/>
</svg>
