<svg width="44" height="45" viewBox="0 0 44 45" fill="none" xmlns="http://www.w3.org/2000/svg">
  <path d="M23.3074 0.258049C22.5654 0.620857 22.0542 1.32999 21.6254 2.61631C21.3121 3.52334 21.2791 3.93563 21.3286 5.3209C21.411 7.00302 21.3286 7.56373 20.537 10.862C19.696 14.3747 18.756 16.667 17.4038 18.4975C16.8431 19.2726 16.8101 19.2891 16.4968 19.0087C16.1175 18.6624 15.7383 17.508 15.4414 15.7434C15.26 14.622 15.26 14.3747 15.4909 13.7975C15.7218 13.2038 15.7218 13.0718 15.4909 12.4617C15.2765 11.8515 15.2765 11.6536 15.4909 10.7795C15.6228 10.2353 15.7547 8.98199 15.8042 8.009C15.8867 5.79915 15.6558 4.95809 14.6499 3.9851C13.4296 2.78123 12.4072 2.81421 11.863 4.05106C11.5826 4.69423 11.5496 5.02406 11.6321 6.22792C11.6816 7.00302 11.7805 7.95952 11.83 8.35531C11.8959 8.80058 11.863 9.1469 11.731 9.29532C11.5826 9.47673 11.5661 9.60866 11.7145 9.75708C11.9619 10.0539 11.6486 15.1663 11.3023 16.7164C10.956 18.2007 10.6262 18.8273 9.93356 19.3386C9.27394 19.8333 9.07605 19.7344 8.79571 18.7944C8.68027 18.448 8.48239 18.0687 8.35046 17.9533C8.03714 17.6894 8.03714 17.1122 8.35046 16.6999C8.66378 16.2877 8.66378 15.4466 8.35046 14.4241C7.62488 12.0494 5.646 10.6641 3.33732 10.928C2.36437 11.0434 1.82018 11.3403 1.27599 12.0824C0.979159 12.4617 0.929688 12.775 0.929688 13.9624C0.929688 15.2322 0.99565 15.5126 1.45739 16.4691C1.93561 17.4091 2.59524 19.8498 3.13943 22.5709C3.38679 23.8572 4.09588 29.2169 4.34324 31.6411C4.55762 33.8675 4.52464 36.7535 4.29377 37.3801C4.21132 37.5945 4.14536 38.1882 4.14536 38.683C4.14536 41.3216 5.69547 43.5314 8.21854 44.5209C9.62024 45.0651 13.8748 45.1806 13.8748 44.6858C13.8748 44.4714 11.9289 43.5809 10.6262 43.1686C9.96654 42.9542 9.42235 42.7233 9.42235 42.6574C9.42235 42.4595 9.96654 42.6079 13.1657 43.6139C16.6452 44.7188 18.1459 45.0321 19.1518 44.8342C19.5641 44.7518 20.4876 44.6858 21.2131 44.6693C22.3675 44.6693 25.4018 44.0756 25.913 43.7623C26.4407 43.4325 28.9802 39.6724 29.8212 37.9903C31.6517 34.2962 32.0805 33.5376 33.5811 31.5587C35.3456 29.2004 35.6754 28.6892 36.0547 27.5348C36.2856 26.8421 36.434 26.6278 36.8133 26.4958C37.3904 26.2979 37.4069 26.067 36.8627 25.5558C36.6483 25.3414 36.4834 25.0941 36.5164 24.9951C36.5329 24.9127 36.8957 24.7312 37.2915 24.5993C37.7862 24.4344 38.2479 24.1046 38.6602 23.6263C39.0065 23.2305 39.4023 22.9007 39.5342 22.9007C39.6661 22.9007 39.7651 22.8182 39.7651 22.7358C39.7651 22.6368 39.6991 22.5709 39.6167 22.5709C39.5342 22.5709 39.4188 22.4554 39.3693 22.307C39.2539 21.9937 39.6991 21.4165 40.0454 21.4165C40.1773 21.4165 40.3917 21.1361 40.5401 20.7898C40.6721 20.46 41.1833 19.5859 41.678 18.8603C43.0467 16.8154 43.4095 14.8529 42.5685 13.8634C41.3976 12.4617 39.3858 12.9894 37.176 15.2652C36.5164 15.9249 35.7084 16.9473 35.3786 17.508C34.4386 19.1077 33.5811 20.1302 32.3443 21.0702C31.932 21.3835 31.1075 22.1091 30.5138 22.7028C29.8872 23.2965 29.3265 23.7088 29.2276 23.6593C28.8978 23.4614 29.0297 22.8347 29.4749 22.4884C29.7883 22.2411 29.9202 21.9442 29.9861 21.367C30.0686 20.7238 30.1675 20.5424 30.5963 20.2951C30.9921 20.0477 31.2889 19.6189 31.8496 18.3491C32.2454 17.4586 32.7401 16.4526 32.9545 16.1392C33.1523 15.8259 33.6635 14.7869 34.0923 13.8305C34.5046 12.874 34.9003 12.0164 34.9828 11.9339C35.0488 11.835 35.3951 10.9609 35.7249 9.97147C36.368 8.09145 36.8297 5.7002 36.6483 5.25494C36.302 4.34791 34.8344 3.27597 33.9604 3.27597C33.3667 3.27597 32.2948 4.33142 32.0145 5.18897C31.8991 5.55178 31.6847 5.96407 31.5528 6.12898C31.3219 6.39284 31.0251 7.05249 30.7447 7.92654C30.6952 8.09145 30.7282 8.22338 30.8272 8.22338C30.9261 8.22338 31.058 8.07496 31.1075 7.89355C31.157 7.71215 31.3219 7.56373 31.4703 7.56373C31.7836 7.56373 31.7341 7.79461 30.9261 10.2848C30.1675 12.5771 28.8648 15.3312 27.661 17.1287C26.8364 18.3821 26.3912 18.5965 26.9519 17.4915C28.0403 15.3641 29.8542 11.1918 29.7058 11.1918C29.6234 11.1918 29.0956 11.9834 28.535 12.9399C27.9578 13.9129 27.4631 14.6055 27.4301 14.5066C27.3971 14.4076 27.4796 14.1273 27.628 13.9129C27.7764 13.6985 27.8918 13.3687 27.8918 13.2038C27.8918 13.0389 28.0403 12.742 28.2216 12.5441C28.403 12.3462 28.5515 12.0329 28.5515 11.835C28.5515 11.6536 28.6999 11.2743 28.8978 10.9939C29.0956 10.7301 29.2111 10.4827 29.1616 10.4332C29.0297 10.3013 26.5396 14.0613 24.6102 17.3266C24.033 18.2831 23.225 19.4045 22.8292 19.8003L22.0707 20.5095L22.6148 19.7673C23.159 18.9923 23.1755 18.9098 22.8457 17.0793C22.7468 16.4856 22.7797 16.4196 23.6702 15.5785C24.6102 14.6715 24.6597 14.5561 24.5937 13.2862C24.5772 12.874 24.6432 12.6431 24.8246 12.5771C25.0719 12.4782 25.2368 11.9669 25.3358 10.9445C25.3688 10.6146 25.4842 10.2188 25.6161 10.0704C26.0944 9.46024 26.3087 8.93251 26.3252 8.30584C26.3417 7.94303 26.6221 6.6567 26.9519 5.45283C27.2982 4.23247 27.562 2.97913 27.562 2.6493C27.562 1.80824 26.7705 0.868229 25.6326 0.373489C24.5937 -0.0882683 24.0495 -0.121254 23.3074 0.258049Z" fill="#C7C7D1"/>
</svg>
