<svg width="67" height="48" viewBox="0 0 67 48" fill="none" xmlns="http://www.w3.org/2000/svg">
    <path d="M22.1885 42.4081C22.249 42.7752 22.374 42.9406 22.7653 42.9406H23.8867V43.5779H22.8097C22.6532 43.5932 22.4952 43.5763 22.3454 43.5285C22.1956 43.4806 22.0571 43.4027 21.9384 43.2996C21.6276 42.9591 21.4583 42.513 21.465 42.052C21.4718 41.591 21.654 41.15 21.9747 40.8188C22.2032 40.6596 22.4796 40.5841 22.7573 40.605H23.8867V41.2423H22.7694C22.366 41.2423 22.253 41.3997 22.1925 41.7708H23.8061V42.4081H22.1885Z" fill="#C7C7D1"/>
    <path d="M49.6138 42.4084C49.6743 42.7755 49.7994 42.9409 50.1906 42.9409H51.308V43.5782H50.2189C50.0624 43.593 49.9045 43.5759 49.7548 43.5281C49.605 43.4802 49.4665 43.4026 49.3476 43.2999C49.0368 42.9594 48.8675 42.5132 48.8742 42.0523C48.881 41.5913 49.0632 41.1503 49.3839 40.8191C49.6135 40.659 49.8914 40.5834 50.1705 40.6053H51.2959V41.2426H50.1785C49.7751 41.2426 49.6622 41.3999 49.6057 41.771H51.2193V42.4084H49.6138Z" fill="#C7C7D1"/>
    <path d="M61.3492 42.4079C61.4097 42.775 61.5388 42.9404 61.9261 42.9404H63.0475V43.5777H61.9664C61.8099 43.5927 61.652 43.5758 61.5022 43.5279C61.3524 43.4801 61.2139 43.4023 61.0951 43.2994C60.7852 42.9585 60.6165 42.5125 60.6232 42.0518C60.63 41.5911 60.8116 41.1503 61.1314 40.8186C61.3617 40.66 61.6391 40.5846 61.918 40.6048H63.0434V41.2421H61.922C61.5186 41.2421 61.4097 41.3995 61.3492 41.7706H62.9628V42.4079H61.3492Z" fill="#C7C7D1"/>
    <path d="M34.6966 40.5469C35.5639 40.5469 36.0802 41.1278 36.0802 42.112C36.0802 43.0277 35.5437 43.6046 34.6925 43.6046C33.8414 43.6046 33.3291 43.0398 33.3291 42.0475C33.3291 41.1439 33.8737 40.5469 34.7006 40.5469M34.0592 42.0878C34.0592 42.6687 34.2811 42.9793 34.7127 42.9793C35.1443 42.9793 35.346 42.6768 35.346 42.0676C35.346 41.4585 35.1403 41.1681 34.6966 41.1681C34.2529 41.1681 34.0592 41.4706 34.0552 42.0878" fill="#C7C7D1"/>
    <path d="M38.317 40.6016H39.035V43.5745H37.4215C36.8325 43.5745 36.5703 43.1711 36.5703 42.4329V40.6016H37.2843V42.5136C37.2843 42.7799 37.4134 42.9372 37.6312 42.9372H38.317V40.6016Z" fill="#C7C7D1"/>
    <path d="M47.6286 40.6016H48.3426V43.5745H46.7291C46.1442 43.5745 45.8779 43.1711 45.8779 42.4329V40.6016H46.596V42.5136C46.596 42.7799 46.721 42.9372 46.9388 42.9372H47.6125L47.6286 40.6016Z" fill="#C7C7D1"/>
    <path d="M45.2121 44.7007H44.4981V43.5873H43.8123C43.0459 43.5873 42.5618 43.0226 42.5618 42.1392C42.5474 41.9071 42.5815 41.6746 42.6621 41.4565C42.7426 41.2383 42.8679 41.0395 43.0298 40.8725C43.153 40.7672 43.2975 40.6896 43.4534 40.645C43.6093 40.6005 43.773 40.59 43.9334 40.6144H45.2161L45.2121 44.7007ZM43.9697 41.2396C43.5259 41.2396 43.2879 41.5381 43.2879 42.0867C43.2879 42.6353 43.534 42.9419 43.9939 42.9419H44.486V41.2396H43.9697Z" fill="#C7C7D1"/>
    <path d="M52.2097 39.6641H52.9237V40.5878H53.5853V41.2252H52.9237V42.3022C52.9237 42.6088 52.9237 42.7056 52.9802 42.7822C53.0163 42.8329 53.0652 42.873 53.1219 42.8985C53.1786 42.924 53.2411 42.934 53.3029 42.9275H53.5813V43.5648H53.0649C52.8897 43.5948 52.7096 43.558 52.5602 43.4617C52.4109 43.3653 52.3031 43.2164 52.2581 43.0444C52.2028 42.8492 52.181 42.646 52.1936 42.4434V41.2332H51.7539V40.5878H52.2097V39.6641Z" fill="#C7C7D1"/>
    <path d="M55.9289 41.7189C55.9289 41.3559 55.7917 41.2389 55.3843 41.2389H54.2669V40.6016H55.6667C56.4049 40.6016 56.655 41.1502 56.6348 41.8964V43.5705H55.2189C55.0012 43.5868 54.7823 43.5705 54.5695 43.5221C54.4092 43.4527 54.2748 43.3348 54.1851 43.185C54.0954 43.0352 54.0549 42.8611 54.0692 42.6871C54.064 42.5462 54.0887 42.4058 54.1415 42.2751C54.1943 42.1444 54.2742 42.0264 54.3758 41.9287C54.6014 41.7864 54.8698 41.7278 55.1342 41.7633H55.9208L55.9289 41.7189ZM55.1907 42.4047H55.0737C55.0372 42.4014 55.0004 42.4064 54.9661 42.4191C54.9318 42.4319 54.9007 42.4521 54.8752 42.4784C54.8497 42.5047 54.8304 42.5363 54.8187 42.5711C54.8069 42.6058 54.8031 42.6426 54.8074 42.679C54.8074 42.8726 54.9083 42.9412 55.2108 42.9412H55.949V42.4047H55.1907Z" fill="#C7C7D1"/>
    <path d="M59.4769 43.5724H58.7629V41.8984C58.7513 41.6947 58.7717 41.4906 58.8234 41.2933C58.8589 41.1616 58.9177 41.0373 58.9969 40.9262C59.0834 40.8173 59.195 40.7311 59.3222 40.6749C59.4494 40.6187 59.5883 40.5942 59.727 40.6035H60.5096V41.2408H60.0417C59.6383 41.2408 59.4971 41.3578 59.4971 41.7209L59.4769 43.5724Z" fill="#C7C7D1"/>
    <path d="M57.3379 39.5H58.0519V40.3068H57.3379V39.5ZM58.0519 43.5742H57.3379V40.6012H58.0519V43.5742Z" fill="#C7C7D1"/>
    <path d="M19.7089 39.6641H20.4229V42.3345C20.4229 42.6249 20.4229 42.7137 20.4834 42.7903C20.5201 42.8388 20.5687 42.877 20.6246 42.901C20.6805 42.9251 20.7416 42.9342 20.8021 42.9275H21.2055V43.5648H20.5681C20.4546 43.5772 20.3397 43.5645 20.2317 43.5275C20.1236 43.4906 20.025 43.4303 19.9429 43.351C19.8637 43.2718 19.8019 43.1771 19.7613 43.0727C19.7061 42.8871 19.6843 42.6931 19.6968 42.4999L19.7089 39.6641Z" fill="#C7C7D1"/>
    <path d="M28.6133 39.5V43.5742H29.3313V40.21H30.005C30.2268 40.21 30.3519 40.3673 30.3519 40.6376V43.5782H31.0618V40.21H31.7476C31.9654 40.21 32.0945 40.3673 32.0945 40.6376V43.5782H32.8085V40.6456C32.8085 39.7824 32.4374 39.5 31.8646 39.5H28.6133Z" fill="#C7C7D1"/>
    <path d="M26.7468 40.6016V41.2389H25.4681C25.4076 41.2389 25.105 41.2187 25.105 41.5092C25.105 41.7996 25.3995 41.7875 25.4681 41.7875H26.0086C26.1271 41.7705 26.2479 41.7802 26.3622 41.8156C26.4765 41.8511 26.5815 41.9116 26.6696 41.9927C26.7576 42.0738 26.8265 42.1735 26.8713 42.2845C26.916 42.3956 26.9355 42.5151 26.9283 42.6346C26.945 42.7602 26.9329 42.888 26.8929 43.0082C26.8529 43.1285 26.786 43.238 26.6974 43.3286C26.6088 43.4192 26.5007 43.4884 26.3814 43.531C26.262 43.5736 26.1346 43.5885 26.0086 43.5745H24.4919V42.9372H25.8876C26.0691 42.9372 26.2305 42.8726 26.2305 42.6669C26.2305 42.4612 26.0772 42.3966 25.8876 42.3966H25.3269C25.2028 42.41 25.0774 42.3954 24.9597 42.3539C24.842 42.3124 24.7351 42.2451 24.6469 42.1569C24.5587 42.0687 24.4914 41.9618 24.4499 41.8441C24.4084 41.7264 24.3938 41.601 24.4072 41.4769C24.4039 41.358 24.4258 41.2397 24.4713 41.1298C24.5169 41.0198 24.585 40.9207 24.6714 40.8389C24.7578 40.7571 24.8605 40.6944 24.9727 40.6549C25.085 40.6154 25.2043 40.6 25.3228 40.6096L26.7468 40.6016Z" fill="#C7C7D1"/>
    <path d="M41.9535 40.6016V41.2389H40.6748C40.6143 41.2389 40.3117 41.2187 40.3117 41.5092C40.3117 41.7996 40.6062 41.7875 40.6748 41.7875H41.2153C41.3341 41.7699 41.4554 41.779 41.5702 41.8142C41.685 41.8494 41.7906 41.9098 41.8791 41.9909C41.9676 42.0721 42.0369 42.172 42.0819 42.2834C42.1268 42.3948 42.1464 42.5148 42.1391 42.6346C42.1559 42.7606 42.1437 42.8888 42.1035 43.0094C42.0633 43.1299 41.996 43.2397 41.9069 43.3304C41.8178 43.421 41.7092 43.4901 41.5894 43.5324C41.4695 43.5748 41.3416 43.5892 41.2153 43.5745H39.7026V42.9372H41.0984C41.2799 42.9372 41.4412 42.8726 41.4412 42.6669C41.4412 42.4612 41.2879 42.3966 41.0984 42.3966H40.5376C40.4139 42.4094 40.2889 42.3943 40.1717 42.3525C40.0546 42.3107 39.9482 42.2433 39.8605 42.1552C39.7727 42.067 39.7057 41.9604 39.6645 41.843C39.6232 41.7257 39.6087 41.6006 39.622 41.4769C39.6187 41.358 39.6406 41.2397 39.6861 41.1298C39.7317 41.0198 39.7998 40.9207 39.8862 40.8389C39.9726 40.7571 40.0753 40.6944 40.1875 40.6549C40.2997 40.6154 40.4191 40.6 40.5376 40.6096L41.9535 40.6016Z" fill="#C7C7D1"/>
    <path d="M65.898 40.6016V41.2389H64.6193C64.5587 41.2389 64.2562 41.2187 64.2562 41.5092C64.2562 41.7996 64.5547 41.7875 64.6193 41.7875H65.1598C65.2783 41.7705 65.3991 41.7802 65.5134 41.8156C65.6277 41.8511 65.7327 41.9116 65.8208 41.9927C65.9088 42.0738 65.9777 42.1735 66.0225 42.2845C66.0672 42.3956 66.0867 42.5151 66.0795 42.6346C66.0962 42.7602 66.0841 42.888 66.0441 43.0082C66.0041 43.1285 65.9372 43.238 65.8486 43.3286C65.76 43.4192 65.6519 43.4884 65.5326 43.531C65.4132 43.5736 65.2857 43.5885 65.1598 43.5745H63.6471V42.9372H65.0388C65.2203 42.9372 65.3817 42.8726 65.3817 42.6669C65.3817 42.4612 65.2243 42.3966 65.0388 42.3966H64.4781C64.3543 42.4094 64.2293 42.3943 64.1122 42.3525C63.995 42.3107 63.8887 42.2433 63.8009 42.1552C63.7131 42.067 63.6462 41.9604 63.6049 41.843C63.5636 41.7257 63.5491 41.6006 63.5624 41.4769C63.5592 41.358 63.581 41.2397 63.6266 41.1298C63.6721 41.0198 63.7403 40.9207 63.8267 40.8389C63.9131 40.7571 64.0157 40.6944 64.1279 40.6549C64.2402 40.6154 64.3595 40.6 64.4781 40.6096L65.898 40.6016Z" fill="#C7C7D1"/>
    <path d="M37.0052 22.4219C35.0246 22.4219 32.7212 23.503 30.2969 25.2738C32.3945 23.8458 34.4074 22.9947 36.2226 22.9947C42.81 22.9947 35.791 34.6647 35.791 34.6647H43.2698C43.2698 34.6647 47.7595 22.4219 37.0012 22.4219" fill="#C7C7D1"/>
    <path d="M37.4545 21.4062C20.4074 21.4062 0 43.5522 0 43.5522H14.2113C18.7212 36.7713 24.7962 29.0303 30.3025 25.2707C32.7228 23.5039 35.0302 22.4188 37.0108 22.4188C47.7691 22.4188 43.2794 34.6616 43.2794 34.6616C43.2794 34.6616 48.8946 21.4062 37.4545 21.4062Z" fill="#C7C7D1"/>
    <path d="M13.1927 12.6003C13.2229 13.6338 13.3994 14.6578 13.7171 15.6418C19.6792 16.9972 29.788 18.4131 38.8159 18.0621C47.8437 17.7112 55.8307 16.852 65.9679 13.7257C45.5242 16.5777 21.8897 14.0807 13.4589 9.55469C13.2074 10.5504 13.1176 11.5801 13.1927 12.6043" fill="#C7C7D1"/>
    <path d="M49.7777 7.1391C52.6014 5.00518 52.2948 3.32305 49.9511 2.58485C47.7769 1.89909 42.9241 2.70184 40.5078 3.23834C47.7688 3.31095 51.609 5.65867 49.7857 7.1391" fill="#C7C7D1"/>
    <path d="M30.8441 8.41432C35.0353 10.3788 44.5593 11.2824 50.6101 9.58415C45.0918 8.97907 28.4238 6.48613 28.9603 2.72656C27.7502 5.95366 28.7586 7.41796 30.8522 8.39819" fill="#C7C7D1"/>
</svg>
