<!--<svg width="183" height="39" viewBox="0 0 183 39" fill="none" xmlns="http://www.w3.org/2000/svg">-->
<!--<g id="Microsoft_logo_(2012)" clip-path="url(#clip0_2979_8494)">-->
<!--<path id="Vector" d="M76.0497 7.80365V31.2036H71.9872V12.8411H71.9331L64.6747 31.2036H61.9664L54.5456 12.8411H54.4914V31.2036H50.7539V7.80365H56.6039L63.3206 25.137H63.4289L70.5247 7.80365H76.0497ZM79.4081 9.59115C79.4081 8.94115 79.6247 8.39948 80.1122 7.96615C80.5997 7.53281 81.1414 7.31615 81.7914 7.31615C82.4956 7.31615 83.0914 7.53281 83.5247 7.96615C83.9581 8.39948 84.2289 8.94115 84.2289 9.59115C84.2289 10.2411 84.0122 10.7828 83.5247 11.2161C83.0372 11.6495 82.4956 11.8661 81.7914 11.8661C81.0872 11.8661 80.5456 11.6495 80.1122 11.2161C79.6789 10.7286 79.4081 10.187 79.4081 9.59115ZM83.7956 14.412V31.2036H79.8414V14.412H83.7956ZM95.7664 28.3328C96.3622 28.3328 97.0122 28.2245 97.7164 27.8995C98.4206 27.6286 99.0706 27.2495 99.6664 26.8161V30.4995C99.0164 30.8786 98.3122 31.1495 97.4997 31.312C96.6872 31.4745 95.8206 31.5828 94.8456 31.5828C92.3539 31.5828 90.3497 30.8245 88.8331 29.2536C87.2622 27.6828 86.5039 25.6786 86.5039 23.2953C86.5039 20.587 87.3164 18.3661 88.8872 16.6328C90.4581 14.8995 92.6789 14.0328 95.6039 14.0328C96.3622 14.0328 97.1206 14.1411 97.8247 14.3036C98.5831 14.4661 99.1789 14.737 99.6122 14.9536V18.7453C99.0164 18.312 98.3664 17.9328 97.7706 17.7161C97.1206 17.4995 96.4706 17.337 95.8206 17.337C94.2497 17.337 93.0039 17.8245 92.0289 18.8536C91.0539 19.8828 90.6206 21.237 90.6206 22.9703C90.6206 24.6495 91.1081 26.0036 92.0289 26.9245C92.9497 27.8453 94.1956 28.3328 95.7664 28.3328ZM110.879 14.1411C111.204 14.1411 111.475 14.1411 111.746 14.1953C112.016 14.2495 112.233 14.3036 112.396 14.3578V18.3661C112.179 18.2036 111.908 18.0411 111.475 17.9328C111.041 17.8245 110.608 17.7161 110.012 17.7161C109.037 17.7161 108.225 18.1495 107.575 18.962C106.925 19.7745 106.546 21.0203 106.546 22.7536V31.2036H102.591V14.412H106.546V17.0661H106.6C106.979 16.1453 107.521 15.4411 108.225 14.8995C108.983 14.412 109.85 14.1411 110.879 14.1411ZM112.612 23.0786C112.612 20.3161 113.425 18.0953 114.941 16.4703C116.512 14.8453 118.679 14.0328 121.441 14.0328C124.041 14.0328 126.1 14.7911 127.562 16.362C129.025 17.9328 129.783 20.0453 129.783 22.6995C129.783 25.4078 128.971 27.5745 127.454 29.1995C125.883 30.8245 123.771 31.637 121.062 31.637C118.462 31.637 116.404 30.8786 114.887 29.362C113.371 27.7911 112.612 25.6786 112.612 23.0786ZM116.729 22.9161C116.729 24.6495 117.108 26.0036 117.921 26.9245C118.733 27.8453 119.871 28.3328 121.333 28.3328C122.741 28.3328 123.879 27.8995 124.637 26.9245C125.396 26.0036 125.775 24.6495 125.775 22.8078C125.775 21.0203 125.396 19.6661 124.637 18.6911C123.879 17.7703 122.741 17.2828 121.387 17.2828C119.925 17.2828 118.841 17.7703 118.029 18.7453C117.108 19.7745 116.729 21.1286 116.729 22.9161ZM135.687 18.8536C135.687 19.3953 135.85 19.8828 136.229 20.2078C136.608 20.5328 137.366 20.912 138.612 21.3995C140.183 22.0495 141.321 22.7536 141.916 23.512C142.566 24.3245 142.891 25.2453 142.891 26.3828C142.891 27.9536 142.296 29.1995 141.05 30.1745C139.858 31.1495 138.179 31.5828 136.121 31.5828C135.416 31.5828 134.658 31.4745 133.791 31.312C132.925 31.1495 132.221 30.9328 131.625 30.662V26.762C132.329 27.2495 133.141 27.6828 133.954 27.9536C134.766 28.2245 135.525 28.387 136.229 28.387C137.096 28.387 137.8 28.2786 138.179 28.0078C138.612 27.737 138.829 27.3578 138.829 26.762C138.829 26.2203 138.612 25.787 138.179 25.3536C137.746 24.9745 136.879 24.5411 135.687 24.0536C134.225 23.4578 133.196 22.7536 132.6 21.9953C132.004 21.237 131.679 20.262 131.679 19.0703C131.679 17.5536 132.275 16.3078 133.466 15.3328C134.658 14.3578 136.229 13.8703 138.125 13.8703C138.721 13.8703 139.371 13.9245 140.075 14.087C140.779 14.2495 141.429 14.412 141.916 14.5745V18.4203C141.375 18.0953 140.779 17.7703 140.075 17.4995C139.371 17.2286 138.666 17.1203 138.016 17.1203C137.258 17.1203 136.662 17.2828 136.283 17.5536C135.904 17.9328 135.687 18.312 135.687 18.8536ZM144.571 23.0786C144.571 20.3161 145.383 18.0953 146.9 16.4703C148.471 14.8453 150.637 14.0328 153.4 14.0328C156 14.0328 158.058 14.7911 159.521 16.362C160.983 17.9328 161.741 20.0453 161.741 22.6995C161.741 25.4078 160.929 27.5745 159.412 29.1995C157.841 30.8245 155.729 31.637 153.021 31.637C150.421 31.637 148.362 30.8786 146.846 29.362C145.383 27.7911 144.571 25.6786 144.571 23.0786ZM148.687 22.9161C148.687 24.6495 149.066 26.0036 149.879 26.9245C150.691 27.8453 151.829 28.3328 153.291 28.3328C154.7 28.3328 155.837 27.8995 156.596 26.9245C157.354 26.0036 157.733 24.6495 157.733 22.8078C157.733 21.0203 157.354 19.6661 156.596 18.6911C155.837 17.7703 154.7 17.2828 153.346 17.2828C151.883 17.2828 150.8 17.7703 149.987 18.7453C149.121 19.7745 148.687 21.1286 148.687 22.9161ZM174.904 17.662H169V31.2036H164.991V17.662H162.175V14.412H164.991V12.0828C164.991 10.3495 165.587 8.88698 166.725 7.74948C167.862 6.61198 169.325 6.07031 171.112 6.07031C171.6 6.07031 172.033 6.12448 172.412 6.12448C172.791 6.12448 173.116 6.23281 173.387 6.34115V9.75365C173.279 9.69948 173.008 9.59115 172.683 9.48281C172.358 9.37448 171.979 9.32031 171.546 9.32031C170.733 9.32031 170.083 9.59115 169.65 10.0786C169.216 10.5661 169 11.3786 169 12.3536V14.3578H174.904V10.5661L178.858 9.37448V14.3578H182.866V17.6078H178.858V25.462C178.858 26.4911 179.075 27.1953 179.4 27.6286C179.779 28.062 180.375 28.2786 181.187 28.2786C181.404 28.2786 181.675 28.2245 182 28.1161C182.325 28.0078 182.596 27.8995 182.812 27.737V30.987C182.541 31.1495 182.162 31.2578 181.566 31.3661C180.971 31.4745 180.429 31.5286 179.833 31.5286C178.154 31.5286 176.908 31.0953 176.096 30.2286C175.283 29.362 174.85 28.0078 174.85 26.2203L174.904 17.662Z" fill="#C7C7D1"/>-->
<!--<path id="Vector_2" d="M18.525 0H0V18.525H18.525V0Z" fill="#C7C7D1"/>-->
<!--<path id="Vector_3" d="M39.0016 0H20.4766V18.525H39.0016V0Z" fill="#C7C7D1"/>-->
<!--<path id="Vector_4" d="M18.525 20.4766H0V39.0016H18.525V20.4766Z" fill="#C7C7D1"/>-->
<!--<path id="Vector_5" d="M39.0016 20.4766H20.4766V39.0016H39.0016V20.4766Z" fill="#C7C7D1"/>-->
<!--</g>-->
<!--<defs>-->
<!--<clipPath id="clip0_2979_8494">-->
<!--<rect width="182.867" height="39" fill="white"/>-->
<!--</clipPath>-->
<!--</defs>-->
<!--</svg>-->
<svg width="38" height="39" viewBox="0 0 38 39" fill="none" xmlns="http://www.w3.org/2000/svg">
  <g clip-path="url(#clip0_82_8642)">
    <path d="M17.9466 0.492188H-0.113281V18.5521H17.9466V0.492188Z" fill="#C7C7D1"/>
    <path d="M37.9095 0.492188H19.8496V18.5521H37.9095V0.492188Z" fill="#C7C7D1"/>
    <path d="M17.9466 20.4531H-0.113281V38.513H17.9466V20.4531Z" fill="#C7C7D1"/>
    <path d="M37.9095 20.4531H19.8496V38.513H37.9095V20.4531Z" fill="#C7C7D1"/>
  </g>
  <defs>
    <clipPath id="clip0_82_8642">
      <rect width="37.9459" height="39" fill="white" transform="translate(0.0273438)"/>
    </clipPath>
  </defs>
</svg>
