<svg width="42" height="46" viewBox="0 0 42 46" fill="none" xmlns="http://www.w3.org/2000/svg">
  <path fill-rule="evenodd" clip-rule="evenodd" d="M15.9129 18.3564C15.9129 15.8817 21.3897 12.1899 29.5036 9.18775C33.7227 7.60554 34.737 7.60554 37.658 9.39059C39.2001 10.3071 40.1527 10.7698 40.7458 11.5176C41.8068 12.855 41.7179 15.1045 41.796 22.4945C41.9177 30.6895 41.796 32.8397 41.3092 34.0162C40.8223 35.2333 39.8081 36.0041 34.4936 39.1685C31.0858 41.197 26.7854 43.5906 24.9192 44.5237C21.6331 46.187 21.5114 46.2276 19.6453 45.7002C17.2923 45.0916 13.8439 42.9415 14.6958 42.6575C15.0204 42.5358 17.0488 42.1706 19.1584 41.8055C30.0715 39.9799 37.2928 36.7749 39.3213 32.9208C40.2544 31.1358 40.0921 28.7016 38.9562 27.5251C37.0088 25.4155 34.4936 24.6447 26.3392 23.5493C18.7122 22.5351 15.9129 21.1557 15.9129 18.3564ZM10.476 5.41756C15.3849 2.61827 19.6447 0.224674 19.9692 0.102966C20.7806 -0.181019 21.8354 0.102966 24.1478 1.36062C26.8254 2.78054 27.2311 3.38909 25.7706 3.67307C17.9813 5.37699 9.70522 9.51506 6.09457 13.5314C0.739446 19.4546 2.07823 25.7022 9.01555 27.4062C10.0298 27.6496 15.9123 28.0958 22.0788 28.3798C31.2069 28.8261 33.5193 29.0695 34.3713 29.5969C35.71 30.4894 35.71 32.0311 34.3713 33.2481C30.8012 36.5748 14.4924 42.1734 11.2063 41.2403C9.13725 40.6318 2.60563 36.372 1.42912 34.8303L0.293185 33.3699L0.171478 23.6738C0.0897775 16.9947 -0.16674 14.0485 1.04313 11.9463C2.23635 9.87294 4.85587 8.62047 10.476 5.41756Z" fill="#C7C7D1"/>
</svg>
