<svg width="37" height="55" viewBox="0 0 37 55" fill="none" xmlns="http://www.w3.org/2000/svg">
  <path fill-rule="evenodd" clip-rule="evenodd" d="M24.363 32.609C20.7576 33.3114 14.902 32.0887 12.6651 24.6524C9.11475 12.85 21.2056 4.02226 30.7051 -0.0078125C29.0162 2.60214 29.6815 5.10974 30.2252 6.03729C30.641 6.54905 31.5302 7.87961 31.7605 9.10782C31.9908 10.336 31.8564 11.2188 31.7605 11.5067C30.8272 11.9382 29.9083 12.3496 29.0133 12.7503C22.6403 15.6035 17.4728 17.917 16.8622 23.122C16.7526 23.6452 16.695 24.1875 16.695 24.7432C16.695 29.0218 20.11 32.5027 24.363 32.609ZM23.9419 16.8942C27.467 15.9464 33.8482 16.8794 36.2068 24.7199C39.7571 36.5223 24.4683 50.0793 14.9689 54.1094C11.5145 53.9175 9.17962 52.1583 8.63588 51.2308L8.56183 51.1393C7.98109 50.4212 5.63946 47.5256 4.41389 46.9128C2.94359 46.1777 2.20549 46.1747 1.12079 46.1704C0.789711 46.1691 0.426338 46.1676 0 46.1452C4.80206 43.7603 8.93983 41.7621 12.4923 40.0466L12.4928 40.0464C26.3358 33.3615 31.2904 30.9688 32.0292 26.7092C32.1899 26.0826 32.2753 25.4257 32.2753 24.749C32.2753 20.4035 28.7526 16.8807 24.4071 16.8807C24.2509 16.8807 24.0958 16.8853 23.9419 16.8942ZM24.5678 31.2685C28.1714 31.2685 31.0927 28.3472 31.0927 24.7436C31.0927 21.14 28.1714 18.2188 24.5678 18.2188C20.9642 18.2188 18.0429 21.14 18.0429 24.7436C18.0429 28.3472 20.9642 31.2685 24.5678 31.2685Z" fill="#AFAFB6"/>
</svg>
