<svg width="24" height="24" viewBox="0 0 24 24" fill="none" xmlns="http://www.w3.org/2000/svg">
<g id="users-icon">
<path id="Vector" d="M19.0001 22H23V17.4371C22.9999 17.2261 22.9399 17.0201 22.8278 16.8455C22.7157 16.6709 22.5566 16.5358 22.371 16.4576L18.6292 14.8743C18.4439 14.7962 18.285 14.6614 18.173 14.4872C18.0609 14.313 18.0007 14.1075 18.0002 13.8969V12.9702C18.6067 12.6028 19.1108 12.0733 19.4619 11.435C19.8129 10.7967 19.9986 10.0721 20.0001 9.33397V7.22296C20.0003 6.48176 19.8156 5.75358 19.4646 5.11162C19.1136 4.46966 18.6086 3.93655 18.0006 3.56588C17.3925 3.19521 16.7027 3.00004 16.0005 3C15.2983 2.99996 14.6084 3.19504 14.0003 3.56564M14.3705 17.5129L10.6287 15.9297C10.4434 15.8516 10.2845 15.7168 10.1725 15.5426C10.0604 15.3684 10.0002 15.1628 9.99968 14.9523V14.0256C10.6062 13.6582 11.1103 13.1287 11.4614 12.4904C11.8124 11.8521 11.9981 11.1274 11.9996 10.3893V8.27834C11.9996 7.15859 11.5782 6.08471 10.8281 5.29293C10.078 4.50115 9.06058 4.05633 7.99975 4.05633C6.93892 4.05633 5.92154 4.50115 5.17142 5.29293C4.42131 6.08471 3.99989 7.15859 3.99989 8.27834V10.3893C4.00142 11.1274 4.18706 11.8521 4.53814 12.4904C4.88921 13.1287 5.39334 13.6582 5.99982 14.0256V14.9523C5.9997 15.1632 5.93971 15.3692 5.8276 15.5438C5.71549 15.7184 5.5564 15.8535 5.37084 15.9318L1.62898 17.515C1.44374 17.5932 1.28487 17.728 1.17278 17.9021C1.0607 18.0763 1.00053 18.2819 1 18.4924V21.9999H14.9995V18.4924C14.9994 18.2815 14.9394 18.0755 14.8273 17.9009C14.7152 17.7263 14.5561 17.5912 14.3705 17.5129Z" stroke="url(#paint0_linear_2890_9279)" stroke-miterlimit="10" stroke-linecap="square"/>
</g>
<defs>
<linearGradient id="paint0_linear_2890_9279" x1="12" y1="3" x2="12" y2="22" gradientUnits="userSpaceOnUse">
<stop stop-color="#C7C7D1"/>
<stop offset="1" stop-color="#66666B"/>
</linearGradient>
</defs>
</svg>
