<svg width="40" height="40" viewBox="0 0 40 40" fill="none" xmlns="http://www.w3.org/2000/svg">
<path d="M31.8263 9.19394C35.6662 14.86 37.5625 21.2512 36.8536 28.6089C36.8506 28.6401 36.8345 28.6687 36.809 28.6874C33.9011 30.8303 31.0838 32.1308 28.306 32.9933C28.2844 32.9999 28.2613 32.9995 28.2398 32.9923C28.2184 32.985 28.1998 32.9712 28.1866 32.9528C27.5449 32.0566 26.9618 31.1119 26.4509 30.1197C26.4216 30.0613 26.4484 29.9909 26.5087 29.9679C27.4348 29.6177 28.3154 29.198 29.1624 28.7011C29.2291 28.6618 29.2334 28.5659 29.1718 28.5198C28.992 28.3859 28.8139 28.2451 28.6435 28.1044C28.6116 28.0783 28.5687 28.0732 28.5326 28.0907C23.0335 30.6393 17.0096 30.6393 11.4455 28.0907C11.4093 28.0745 11.3664 28.08 11.3354 28.1056C11.1654 28.2464 10.9869 28.3859 10.8088 28.5198C10.7472 28.5659 10.7523 28.6618 10.8194 28.7011C11.6665 29.1886 12.5471 29.6177 13.4719 29.9696C13.5318 29.9926 13.5603 30.0613 13.5305 30.1197C13.0307 31.1131 12.4476 32.0579 11.794 32.9541C11.7655 32.9903 11.7187 33.007 11.6745 32.9933C8.90991 32.1308 6.09259 30.8303 3.18475 28.6874C3.16052 28.6687 3.1431 28.6388 3.14055 28.6077C2.5481 22.2433 3.75552 15.7993 8.16319 9.19266C8.17382 9.17517 8.18997 9.16152 8.20866 9.15342C10.3774 8.15447 12.7009 7.41956 15.1294 6.99984C15.1736 6.99302 15.2178 7.01349 15.2407 7.05274C15.5408 7.5859 15.8837 8.26964 16.1158 8.8284C18.6755 8.43599 21.2753 8.43599 23.8886 8.8284C24.1206 8.28158 24.4517 7.5859 24.7505 7.05274C24.7611 7.03327 24.7776 7.01767 24.7976 7.00817C24.8176 6.99868 24.8401 6.99576 24.8618 6.99984C27.2916 7.42083 29.615 8.15575 31.7821 9.15342C31.8012 9.16152 31.817 9.17517 31.8263 9.19394ZM17.4171 21.2947C17.4439 19.4133 16.0771 17.8564 14.3614 17.8564C12.6597 17.8564 11.3061 19.3996 11.3061 21.2947C11.3061 23.1894 12.6865 24.7326 14.3614 24.7326C16.0635 24.7326 17.4171 23.1894 17.4171 21.2947ZM28.7145 21.2947C28.7412 19.4133 27.3744 17.8564 25.6591 17.8564C23.957 17.8564 22.6034 19.3996 22.6034 21.2947C22.6034 23.1894 23.9838 24.7326 25.6591 24.7326C27.3744 24.7326 28.7145 23.1894 28.7145 21.2947Z" fill="url(#paint0_linear_2870_12559)"/>
<defs>
<linearGradient id="paint0_linear_2870_12559" x1="20" y1="6.99805" x2="20" y2="32.998" gradientUnits="userSpaceOnUse">
<stop stop-color="#D6D6EC"/>
<stop offset="1" stop-color="#C4C4D6"/>
</linearGradient>
</defs>
</svg>
