<svg width="40" height="40" viewBox="0 0 40 40" fill="none" xmlns="http://www.w3.org/2000/svg">
<path fill-rule="evenodd" clip-rule="evenodd" d="M14 4.96886C14 4.4327 14.4362 3.99805 14.9743 3.99805H30.1338C30.3903 3.99805 30.6364 4.09881 30.8188 4.27848L34.7101 8.11206C34.8952 8.29443 34.9994 8.54304 34.9994 8.80244L35.0002 31.0215C35.0002 31.5577 34.5641 31.9923 34.026 31.9923H14.9751C14.437 31.9923 14.0008 31.5577 14.0008 31.0215L14 4.96886ZM18 11.998C18 11.4458 18.4477 10.998 19 10.998H30C30.5523 10.998 31 11.4458 31 11.998C31 12.5503 30.5523 12.998 30 12.998H19C18.4477 12.998 18 12.5503 18 11.998ZM18 15.998C18 15.4458 18.4477 14.998 19 14.998H30C30.5523 14.998 31 15.4458 31 15.998C31 16.5503 30.5523 16.998 30 16.998H19C18.4477 16.998 18 16.5503 18 15.998ZM18 19.998C18 19.4458 18.4477 18.998 19 18.998H30C30.5523 18.998 31 19.4458 31 19.998C31 20.5503 30.5523 20.998 30 20.998H19C18.4477 20.998 18 20.5503 18 19.998ZM18 23.998C18 23.4458 18.4477 22.998 19 22.998H30C30.5523 22.998 31 23.4458 31 23.998C31 24.5503 30.5523 24.998 30 24.998H19C18.4477 24.998 18 24.5503 18 23.998ZM10.6818 36.2852L4.03189 10.4772C3.90317 9.98059 4.17518 9.46714 4.64928 9.31185L12 6.99805V31.998C12 33.1026 12.8954 33.998 14 33.998H25L11.8208 36.965C11.3247 37.1025 10.8147 36.7981 10.6818 36.2852Z" fill="url(#paint0_linear_2870_12553)"/>
<defs>
<linearGradient id="paint0_linear_2870_12553" x1="20" y1="3.99805" x2="20" y2="35.998" gradientUnits="userSpaceOnUse">
<stop stop-color="#D6D6EC"/>
<stop offset="1" stop-color="#C4C4D6"/>
</linearGradient>
</defs>
</svg>
