<svg width="40" height="40" viewBox="0 0 40 40" fill="none" xmlns="http://www.w3.org/2000/svg">
<path d="M20.0001 1.99805C10.0602 1.99805 2 10.2608 2 20.4537C2 28.608 7.15756 35.526 14.3096 37.9663C15.2091 38.1371 15.5395 37.566 15.5395 37.0785C15.5395 36.6385 15.5227 35.1845 15.5151 33.6424C10.5073 34.7588 9.45061 31.4649 9.45061 31.4649C8.63181 29.3316 7.45204 28.7645 7.45204 28.7645C5.81897 27.619 7.57514 27.6424 7.57514 27.6424C9.3827 27.7727 10.3345 29.5444 10.3345 29.5444C11.9399 32.3659 14.5453 31.5501 15.5725 31.0787C15.734 29.8857 16.2006 29.0716 16.7153 28.6108C12.7173 28.144 8.51436 26.5615 8.51436 19.4898C8.51436 17.475 9.21753 15.8285 10.3691 14.5361C10.1822 14.0712 9.56609 12.1941 10.5434 9.65199C10.5434 9.65199 12.0549 9.15595 15.4947 11.5438C16.9304 11.1348 18.4703 10.9298 20.0001 10.9229C21.5298 10.9298 23.0708 11.1348 24.5094 11.5438C27.9451 9.15595 29.4545 9.65199 29.4545 9.65199C30.4342 12.1941 29.8178 14.0712 29.6309 14.5361C30.785 15.8285 31.4834 17.4749 31.4834 19.4898C31.4834 26.5783 27.2725 28.1392 23.2644 28.596C23.91 29.1688 24.4852 30.292 24.4852 32.0137C24.4852 34.4831 24.4643 36.4706 24.4643 37.0785C24.4643 37.5696 24.7883 38.1451 25.7009 37.9639C32.8489 35.5207 38 28.6053 38 20.4537C38 10.2608 29.9409 1.99805 20.0001 1.99805Z" fill="url(#paint0_linear_2870_12561)"/>
<defs>
<linearGradient id="paint0_linear_2870_12561" x1="20" y1="1.99805" x2="20" y2="37.998" gradientUnits="userSpaceOnUse">
<stop stop-color="#D6D6EC"/>
<stop offset="1" stop-color="#C4C4D6"/>
</linearGradient>
</defs>
</svg>
