<svg width="32" height="32" viewBox="0 0 32 32" fill="none" xmlns="http://www.w3.org/2000/svg">
<g id="design-icon">
<path id="Vector" d="M16.4389 21.3814L22.0006 26.9459L27.2012 27.9865C27.667 28.0797 28.079 27.6754 27.987 27.2153L26.9444 21.9997L21.3827 16.4351M15.2027 10.2527L9.35339 4.40056C8.83174 3.87865 7.97822 3.87865 7.45657 4.40056L4.38363 7.47501C3.87212 7.98678 3.87212 8.80905 4.38363 9.32081L10.2589 15.199M14.5838 10.8711L15.8198 12.1076M18.2914 7.16106L20.7633 9.63417M10.8763 14.5805L13.3482 17.0536M7.16873 18.2905L8.40468 19.527M4.39652 21.0641L21.0647 4.38762C21.5813 3.87079 22.4188 3.87079 22.9354 4.38762L27.2443 8.69871C27.7609 9.21553 27.7609 10.0535 27.2443 10.5703L10.5761 27.2467C10.0596 27.7636 9.22205 27.7636 8.70548 27.2467L4.39652 22.9356C3.87995 22.4188 3.87995 21.5809 4.39652 21.0641Z" stroke="url(#paint0_linear_2773_13669)" stroke-miterlimit="10" stroke-linecap="square"/>
</g>
<defs>
<linearGradient id="paint0_linear_2773_13669" x1="16" y1="4" x2="16" y2="28" gradientUnits="userSpaceOnUse">
<stop stop-color="#C7C7D1"/>
<stop offset="1" stop-color="#66666B"/>
</linearGradient>
</defs>
</svg>
