<svg width="43" height="48" viewBox="0 0 43 48" fill="none" xmlns="http://www.w3.org/2000/svg">
<path d="M11.4505 31.2752V33.2199L14.2559 35.0435L17.6339 33.0932C18.058 32.8484 18.6006 32.9943 18.8458 33.4191C19.0911 33.844 18.9462 34.3868 18.5221 34.6317L15.9272 36.1298L16.9412 36.7889L20.1386 34.8213C20.1527 34.8126 20.1669 34.8041 20.1811 34.7959V30.1298L14.03 33.6812C13.6059 33.926 13.0633 33.7801 12.818 33.3553C12.5727 32.9304 12.7177 32.3876 13.1417 32.1427L16.5163 30.1945V26.8895L14.3541 25.5922L11.1716 27.4781C10.7504 27.7277 10.2072 27.5873 9.95849 27.1645C9.70975 26.7417 9.84962 26.1966 10.2709 25.947L13.3355 24.1309V21.0208L10.6466 19.1924L7.95046 21.3983L7.95046 23.1675L10.8698 21.482C11.2939 21.2372 11.8365 21.3831 12.0818 21.808C12.327 22.2328 12.1821 22.7757 11.758 23.0205L7.95046 25.2188V26.2811L10.7983 28.6111C11.0268 28.7981 11.2022 29.0367 11.3133 29.3031L14.5284 27.4469C14.9524 27.2021 15.495 27.348 15.7403 27.7728C15.9856 28.1976 15.8407 28.7405 15.4166 28.9853L11.4505 31.2752Z" fill="#AFAFB6"/>
<path d="M21.97 34.8087L21.9528 34.7986V32.3655H24.36C24.6461 32.7873 25.1295 33.0645 25.6776 33.0645C26.5563 33.0645 27.2685 32.3522 27.2685 31.4736C27.2685 30.5949 26.5563 29.8827 25.6776 29.8827C25.1271 29.8827 24.6418 30.1623 24.3562 30.5874H21.9528V24.3433L19.2032 22.3269C18.8082 22.0373 18.254 22.1238 17.9654 22.5203C17.6767 22.9167 17.763 23.4729 18.158 23.7626L20.1811 25.2463V28.0785L18.2879 29.1716L18.2879 25.8808L15.1071 23.9724V21.1694L18.6071 19.1011V14.6952C18.6071 14.2042 18.2105 13.8061 17.7213 13.8061C17.232 13.8061 16.8355 14.2042 16.8355 14.6952V18.0847L14.3425 19.5578L11.4505 17.5913V14.4595L13.3344 13.2349V17.3202C13.3344 17.8112 13.731 18.2092 14.2203 18.2092C14.7095 18.2092 15.1061 17.8112 15.1061 17.3202V12.0833L16.9412 10.8905L20.1386 12.8581C20.1516 12.8661 20.1647 12.874 20.1779 12.8816V20.7558L23.4465 22.7273C23.4474 23.6051 24.1593 24.3164 25.0374 24.3164C25.916 24.3164 26.6283 23.6042 26.6283 22.7255C26.6283 21.8469 25.916 21.1346 25.0374 21.1346C24.8255 21.1346 24.6233 21.176 24.4385 21.2512L21.9496 19.7499V12.8827C21.9634 12.8747 21.9771 12.8665 21.9907 12.8581L25.1881 10.8905L30.6788 14.4595V15.1538H26.9938C26.7075 14.7331 26.2248 14.4569 25.6776 14.4569C24.799 14.4569 24.0867 15.1692 24.0867 16.0478C24.0867 16.9264 24.799 17.6387 25.6776 17.6387C26.2291 17.6387 26.7151 17.3581 27.0005 16.9319H30.6788V17.6902C30.6788 18.2246 30.9183 18.7306 31.331 19.0683L34.1788 21.3983V26.2811L34.0758 26.3653L32.1954 25.2311C32.1983 25.1919 32.1998 25.1522 32.1998 25.1122C32.1998 24.2336 31.4875 23.5213 30.6089 23.5213C29.7303 23.5213 29.018 24.2336 29.018 25.1122C29.018 25.9909 29.7303 26.7032 30.6089 26.7032C30.7727 26.7032 30.9307 26.6784 31.0794 26.6324L32.6163 27.5595L31.331 28.6111C30.9183 28.9488 30.6788 29.4548 30.6788 29.9892V33.2199L25.1881 36.7889L21.9907 34.8213L21.97 34.8087Z" fill="#AFAFB6"/>
<path fill-rule="evenodd" clip-rule="evenodd" d="M1.81712 3C0.936523 3 0.222656 3.71646 0.222656 4.60026V43.3997C0.222656 44.2835 0.93652 45 1.81712 45H40.6282C41.5088 45 42.2227 44.2835 42.2227 43.3997V4.60027C42.2227 3.71646 41.5088 3 40.6282 3H1.81712ZM17.8673 9.37468C17.2856 9.01674 16.5508 9.02584 15.9781 9.39808L10.4874 12.9671C9.98321 13.2948 9.67883 13.8566 9.67883 14.4595V17.6902L6.83104 20.0202C6.41832 20.3578 6.17883 20.8639 6.17883 21.3983V26.2811C6.17883 26.8155 6.41832 27.3216 6.83104 27.6592L9.67883 29.9892V30.6963C9.6757 30.7392 9.67567 30.7824 9.67883 30.8257V33.2199C9.67883 33.8228 9.98321 34.3846 10.4874 34.7123L15.9781 38.2813C16.5508 38.6536 17.2856 38.6627 17.8673 38.3047L21.0646 36.3371L24.262 38.3047C24.8437 38.6627 25.5785 38.6536 26.1511 38.2813L31.6419 34.7123C32.1461 34.3846 32.4505 33.8228 32.4505 33.2199V29.9892L35.2983 27.6592C35.711 27.3216 35.9505 26.8155 35.9505 26.2811V21.3983C35.9505 20.8639 35.711 20.3578 35.2983 20.0202L32.4505 17.6902V14.4595C32.4505 13.8566 32.1461 13.2948 31.6419 12.9671L26.1511 9.39808C25.5785 9.02584 24.8437 9.01674 24.262 9.37468L21.0646 11.3423L17.8673 9.37468Z" fill="#AFAFB6"/>
</svg>
