<svg width="49" height="48" viewBox="0 0 49 48" fill="none" xmlns="http://www.w3.org/2000/svg">
<path fill-rule="evenodd" clip-rule="evenodd" d="M11.4433 3.85711C15.1808 1.41729 19.6404 0 24.4279 0H48.5547V24.6139C48.5547 37.527 38.1423 48 25.292 48H24.4279C11.2404 48 0.554688 37.2521 0.554688 24C0.554688 19.708 1.67581 15.6777 3.64018 12.1904C2.62818 11.1601 2.00304 9.74633 2.00304 8.18719C2.00304 5.03191 4.5609 2.47405 7.71618 2.47405C9.14014 2.47405 10.4431 2.99558 11.4433 3.85711ZM11.5423 5.01447C11.3597 5.07449 11.1507 5.0321 11.0053 4.88713C10.162 4.04662 9.00016 3.52795 7.71618 3.52795C5.14295 3.52795 3.05693 5.61396 3.05693 8.18719C3.05693 9.55329 3.64418 10.7815 4.58164 11.6344C4.66231 11.7078 4.71496 11.8005 4.73895 11.8991C4.82113 12.0547 4.82355 12.2479 4.72839 12.4111C2.74557 15.8117 1.60858 19.7715 1.60858 24C1.60858 36.6755 11.8278 46.9461 24.4279 46.9461H25.292C37.5549 46.9461 47.5008 36.9503 47.5008 24.6139V1.05389H24.4279C19.7241 1.05389 15.354 2.48446 11.7225 4.9367C11.6661 4.97481 11.6049 5.00053 11.5423 5.01447ZM12.0986 7.80155C12.0985 10.5209 9.89395 12.7253 7.17459 12.7252C6.41444 12.7251 5.41739 12.609 4.85547 12.0471C4.77001 11.9616 4.74707 11.8309 4.79908 11.7218C6.64468 7.85013 9.51804 5.75667 10.9881 5.05746C11.1105 4.9992 11.2551 5.04117 11.3281 5.1555C11.816 5.91974 12.0987 6.82763 12.0986 7.80155ZM25.3765 21.5245V16.4871C25.1351 16.0309 23.954 15.1137 21.1613 15.0949C17.6703 15.0713 11.5382 17.548 11.5382 24.2233V24.441C11.5382 31.1163 17.6703 33.593 21.1613 33.5694C23.954 33.5506 25.1351 32.6334 25.3765 32.1772V27.1398C25.3765 27.0373 25.2022 26.9861 25.1362 27.0645C24.6886 27.5957 23.7101 28.3335 22.2498 28.3335C20.1997 28.3335 18.0536 26.4617 18.0536 24.3321C18.0536 22.2026 20.1997 20.3308 22.2498 20.3308C23.7101 20.3308 24.6886 21.0686 25.1362 21.5998C25.2022 21.6782 25.3765 21.627 25.3765 21.5245ZM4.3844 16.1815C4.3844 15.9699 4.55598 15.7983 4.76764 15.7983H10.3878C10.5994 15.7983 10.771 15.9699 10.771 16.1815V32.7017C10.771 32.9134 10.5994 33.085 10.3878 33.085H4.76764C4.55598 33.085 4.3844 32.9134 4.3844 32.7017V16.1815ZM26.3399 6.25674C26.3399 6.12762 26.4035 6.01347 26.5008 5.94424C26.5644 5.89933 26.6411 5.87313 26.7235 5.87313H32.3429C32.5543 5.87313 32.7265 6.04528 32.7265 6.25674V17.1999C34.2291 15.8844 36.1509 15.0947 38.2448 15.0947C43.0558 15.0947 46.9555 19.2601 46.9555 24.3967C46.9555 29.5352 43.0558 33.7006 38.2448 33.7006C36.1509 33.7006 34.2291 32.9109 32.7265 31.5954V32.7013C32.7265 32.9128 32.5543 33.085 32.3429 33.085H26.7235C26.512 33.085 26.3399 32.9128 26.3399 32.7013V6.25674ZM32.7265 23.8147V25.046C33.0203 26.8125 34.5547 28.1598 36.4035 28.1598C38.4637 28.1598 40.1329 26.4906 40.1329 24.4304C40.1329 22.372 38.4637 20.7028 36.4035 20.7028C34.5547 20.7028 33.0203 22.0483 32.7265 23.8147Z" fill="#AFAFB6"/>
</svg>
