<svg width="75" height="48" viewBox="0 0 75 48" fill="none" xmlns="http://www.w3.org/2000/svg">
<path d="M32.3449 42.5401V46.7887H33.1511L33.1686 43.2774H33.9221C34.1711 43.2774 34.3257 43.4358 34.3252 43.7164V46.7887H35.1488V43.2774H35.9199C36.1685 43.2774 36.3059 43.4535 36.3055 43.7339V46.7887L37.1116 46.8063L37.1291 43.7339C37.1488 42.8295 36.6925 42.5411 36.0426 42.54L32.3449 42.5401ZM65.046 42.5927V43.4354H65.8696V42.5927H65.046ZM22.2332 42.698L22.2157 45.6651C22.2152 45.9751 22.2312 46.0862 22.2858 46.2445C22.3282 46.3598 22.3936 46.4637 22.4786 46.5429C22.6358 46.7009 22.8572 46.7705 23.1971 46.7711H23.9156V46.104H23.4599C23.2897 46.104 23.176 46.0617 23.1094 45.9636C23.0544 45.8843 23.0389 45.7932 23.0393 45.4895V42.698H22.2332ZM59.2103 42.7683V43.7339H58.6845V44.401H59.2103V45.6827C59.2103 46.0075 59.2263 46.1306 59.2804 46.2971C59.3819 46.5889 59.5837 46.84 60.1741 46.8414H60.77V46.1742H60.4545C60.2842 46.1742 60.1526 46.1366 60.0865 46.0338C60.0315 45.9511 60.0157 45.8433 60.0164 45.5246V44.401H60.77V43.7339H60.0164V42.7683H59.2103ZM39.2847 43.6461C38.3438 43.6444 37.7271 44.2825 37.725 45.2262C37.7233 46.2597 38.2838 46.8393 39.2672 46.8414C40.238 46.8437 40.8423 46.2529 40.8444 45.2964C40.8466 44.2633 40.2744 43.6482 39.2847 43.6461ZM25.6855 43.6636C25.2783 43.6636 25.0113 43.7395 24.7918 43.8919C24.4337 44.1402 24.2142 44.6429 24.2135 45.191C24.2125 45.759 24.3987 46.2084 24.7567 46.4902C25.0235 46.7081 25.2706 46.7697 25.7381 46.7711H26.9648V46.1215H25.6855C25.2422 46.1215 25.1046 45.9314 25.0371 45.5422L26.8947 45.5597V44.8926H25.0371C25.1065 44.5044 25.2598 44.33 25.7031 44.3307H26.9648V43.6811L25.6855 43.6636ZM28.6122 43.6811C28.0356 43.6799 27.5621 43.9997 27.5607 44.5765C27.5597 45.331 28.0779 45.5415 28.5946 45.5421C28.6907 45.5421 29.1484 45.5595 29.2431 45.5597C29.4572 45.5597 29.629 45.6212 29.6286 45.8406C29.6281 46.0555 29.4501 46.122 29.2431 46.1215C29.1411 46.1215 27.6483 46.1215 27.6483 46.1215V46.7711C27.6483 46.7711 29.1294 46.7882 29.3657 46.7886C29.9772 46.7899 30.4158 46.5108 30.4172 45.8054C30.4182 45.1771 29.9501 44.9115 29.3832 44.91C29.2911 44.91 28.8473 44.91 28.7699 44.91C28.693 44.91 28.3489 44.9117 28.3493 44.6116C28.3499 44.3112 28.7006 44.3481 28.7699 44.3482C28.8387 44.3482 30.2244 44.3482 30.2244 44.3482V43.6811L28.6122 43.6811ZM41.4052 43.6987V45.6123C41.4042 46.4002 41.7008 46.7895 42.369 46.8062C42.4231 46.8062 44.1916 46.8062 44.1916 46.8062V43.6987H43.3855V46.139H42.6144C42.3658 46.139 42.2281 45.9805 42.2288 45.7001V43.6987H41.4052ZM45.7163 43.7162C45.2411 43.7861 44.8757 44.1068 44.8751 44.6116C44.8734 45.366 45.4099 45.5765 45.9266 45.5772C46.0227 45.5772 46.4626 45.5772 46.5574 45.5772C46.7711 45.5772 46.9435 45.6563 46.943 45.8757C46.9425 46.0908 46.7644 46.1569 46.5574 46.1566C46.4555 46.1566 44.9627 46.1566 44.9627 46.1566V46.8062C44.9627 46.8062 46.4611 46.8235 46.6976 46.8237C47.3087 46.825 47.7477 46.5456 47.7491 45.8405C47.7501 45.2122 47.2644 44.9465 46.6976 44.9451C46.605 44.9451 46.1612 44.9451 46.0843 44.9451C46.0074 44.9451 45.663 44.9468 45.6637 44.6467C45.6642 44.346 46.0149 44.3656 46.0843 44.3658C46.1536 44.3658 47.5388 44.3833 47.5388 44.3833V43.7161H45.9266C45.8545 43.7161 45.7841 43.7063 45.7163 43.7162ZM49.782 43.7162C49.2295 43.7162 49.015 43.769 48.7655 43.9796C48.4195 44.2589 48.223 44.7403 48.2223 45.3139C48.22 46.2383 48.7675 46.8216 49.6418 46.8237H50.4304L50.4129 48H51.2366V43.7162H49.782ZM52.0251 43.7162V45.6299C52.0234 46.4179 52.3207 46.8069 52.989 46.8237C53.044 46.8237 54.794 46.8237 54.794 46.8237L54.8115 43.7338H53.9879V46.1741H53.2168C52.9673 46.1741 52.8307 45.9984 52.8312 45.7177V43.7162H52.0251ZM56.897 43.7337C56.4902 43.7325 56.2218 43.7915 56.0032 43.9444C55.6439 44.1923 55.4081 44.6952 55.4074 45.2436C55.4064 45.8114 55.5935 46.2612 55.9507 46.5428C56.2175 46.7608 56.4645 46.8405 56.9321 46.8412H58.1588V46.1741H56.897C56.454 46.1728 56.2985 46.0019 56.2311 45.6123H58.0887V44.9451H56.2311C56.2998 44.5566 56.4536 44.4002 56.897 44.4009H58.1763V43.7337H56.897ZM61.541 43.7337V44.4009H62.8203C63.2879 44.4009 63.4342 44.5275 63.4337 44.91V44.9627H62.5399C62.072 44.9614 61.8395 45.0169 61.6812 45.1382C61.4627 45.3036 61.3312 45.6033 61.3307 45.9283C61.3297 46.3495 61.5577 46.6987 61.8915 46.7885C62.0551 46.834 62.1725 46.8405 62.6276 46.8412L64.2398 46.8587V45.1031C64.2643 44.3245 63.9923 43.7664 63.1533 43.7512C63.0684 43.7512 62.9594 43.7512 62.8203 43.7512L61.541 43.7337ZM65.046 43.7513V46.8588H65.8521V43.7513H65.046ZM67.7623 43.7513C67.3676 43.7569 67.1161 43.8732 66.9211 44.1024C66.8366 44.2108 66.7708 44.3241 66.7284 44.4711C66.6729 44.6558 66.6587 44.765 66.6582 45.1031V46.8588H67.4644L67.4819 44.9276C67.4829 44.5452 67.6277 44.417 68.0952 44.4184H68.621V43.7513H68.0952C67.9553 43.7513 67.8477 43.7513 67.7623 43.7513ZM70.2683 43.7513C69.8616 43.7513 69.5931 43.8268 69.3746 43.9795C69.0156 44.2276 68.7801 44.7303 68.7787 45.2787C68.7782 45.8465 68.9648 46.2788 69.322 46.5603C69.5888 46.7781 69.8358 46.8581 70.3034 46.8588H71.5301V46.2092L70.2683 46.1916C69.8254 46.1904 69.6703 46.0192 69.6024 45.6298L71.46 45.6474V44.9802H69.6024C69.6713 44.5919 69.825 44.4177 70.2683 44.4184H71.5476V43.7513H70.2683ZM73.1774 43.7688C72.6008 43.7675 72.1266 44.0876 72.126 44.6642C72.1249 45.4189 72.6431 45.6284 73.1599 45.6298C73.2556 45.6298 73.7136 45.6472 73.8083 45.6473C74.0224 45.6473 74.1943 45.7088 74.1939 45.9282C74.1928 46.1435 74.0157 46.2095 73.8083 46.2091C73.7065 46.2091 72.2136 46.2091 72.2136 46.2091V46.8587C72.2136 46.8587 73.7125 46.8756 73.9485 46.8762C74.56 46.8775 74.9986 46.5984 75 45.8931C75.001 45.2645 74.5148 44.9991 73.9485 44.9977C73.8565 44.9977 73.4125 44.9977 73.3352 44.9977C73.2578 44.9977 72.9139 45 72.9146 44.6992C72.9151 44.3989 73.2655 44.4183 73.3352 44.4183C73.4041 44.4183 74.7897 44.4359 74.7897 44.4359V43.7687L73.1774 43.7688ZM39.2847 44.2955C39.771 44.2968 40.0221 44.618 40.0207 45.2435C40.0197 45.8746 39.7818 46.1923 39.3022 46.1916C38.8105 46.1916 38.5415 45.8669 38.5487 45.2611C38.5567 44.6172 38.7939 44.2948 39.2847 44.2955ZM49.8346 44.3833H50.4304V46.1565H49.8696C49.3418 46.1552 49.0628 45.8413 49.0635 45.2611C49.0645 44.6874 49.3308 44.3819 49.8346 44.3833ZM62.4523 45.6298H63.4337V46.1916H62.5925C62.2711 46.1916 62.1544 46.1146 62.1544 45.9107C62.1549 45.7322 62.2646 45.6294 62.4523 45.6298Z" fill="#AFAFB6"/>
<path d="M56.7149 0.305718C59.3705 1.14899 59.7124 3.06041 56.5075 5.47535C58.5823 3.81548 54.2587 1.12434 46.0063 1.02638C48.7486 0.422717 54.2502 -0.478148 56.7149 0.305718Z" fill="#AFAFB6"/>
<path d="M57.4391 8.26545C50.5846 10.1807 39.7911 9.13077 35.0441 6.89161C32.6741 5.77487 31.5383 4.09928 32.911 0.445333C32.3058 4.69859 51.1844 7.56817 57.4391 8.26545Z" fill="#AFAFB6"/>
<path d="M15.022 11.6008C15.1198 13.3 15.3388 14.3217 15.5892 15.0344C22.345 16.5873 33.8022 18.2164 44.0401 17.82C54.277 17.4236 63.3501 16.5149 74.849 12.9939C51.6626 16.1869 24.8767 13.2987 15.3307 8.13866C15.1275 8.84661 14.9348 10.0912 15.022 11.6008Z" fill="#AFAFB6"/>
<path d="M42.5105 21.6572C49.1254 21.6702 50.7018 25.5902 50.6586 29.4284C50.6543 32.2849 49.6966 35.1207 49.2756 36.2301C49.1569 36.5485 49.0809 36.7273 49.0809 36.7273C49.0809 36.7273 49.0839 36.7192 49.0895 36.7034C49.0927 36.6944 49.0968 36.6829 49.1017 36.6689C49.0881 36.7015 49.0807 36.7184 49.0807 36.7184L40.5988 36.7009C40.5988 36.7009 48.5735 23.4591 41.107 23.4457C39.0636 23.4417 36.8074 24.3942 34.4468 25.9914L34.3918 26.0314C28.1389 30.2853 21.2369 39.0689 16.109 46.758L0 46.7266C0 46.7266 23.1849 21.6193 42.5105 21.6572Z" fill="#AFAFB6"/>
</svg>
