<svg width="167" height="48" viewBox="0 0 167 48" fill="none" xmlns="http://www.w3.org/2000/svg">
<path d="M85.6344 1.38662C85.6344 0.580298 86.2839 0 87.1947 0C88.1059 0 88.7561 0.580298 88.7561 1.38662C88.7561 2.19295 88.1059 2.77325 87.1947 2.77325C86.2839 2.77325 85.6344 2.19295 85.6344 1.38662Z" fill="#AFAFB6"/>
<path d="M85.7972 3.77355H88.5931V11.8352H85.7972V3.77355Z" fill="#AFAFB6"/>
<path fill-rule="evenodd" clip-rule="evenodd" d="M79.7334 3.57897C78.0756 3.57897 76.4178 5.15926 76.4174 7.8022C76.4177 10.4131 77.7182 12.0254 79.7334 12.0254C80.4483 12.0254 81.2287 11.639 81.7808 11.0908H81.8462L82.0409 11.833H84.3165V0.611752H81.5207V3.2247L81.6181 4.38529C81.1313 3.90118 80.6111 3.57897 79.7334 3.57897ZM81.5207 6.22237V9.18955C81.2271 9.64005 80.9032 9.7699 80.4802 9.7699C79.7319 9.7699 79.277 9.18955 79.277 7.7709C79.277 6.35222 79.8292 5.83604 80.4149 5.83604C80.7739 5.83604 81.1951 5.93222 81.5207 6.22237Z" fill="#AFAFB6"/>
<path d="M48.1658 46.1806V3.04455H48.1674C48.1674 2.04106 47.3568 1.2235 46.3562 1.2235H3.37103C2.37048 1.2235 1.55664 2.03945 1.55664 3.04455V5.08201C1.55664 5.73925 1.90931 6.3452 2.47899 6.66741C4.92559 8.04534 7.64673 9.70666 10.5364 11.6961H35.2426C35.2426 11.6961 37.3618 12.0664 37.7751 13.5749C38.1884 15.0833 37.7751 39.0118 37.7751 39.0118L37.7528 38.98C39.7261 41.8605 41.386 44.5895 42.7753 47.0703C43.096 47.6458 43.6993 48 44.3535 48H46.3546C47.3551 48 48.1658 47.1857 48.1658 46.1806Z" fill="#AFAFB6"/>
<path d="M36.4824 46.6328V14.3093C36.4824 13.5575 35.876 12.9483 35.1244 12.9483H2.91543C2.16701 12.9483 1.55743 13.5575 1.55743 14.3093V15.8386C1.55743 16.3307 1.82233 16.7844 2.24999 17.0264C5.29362 18.742 8.90619 21.0436 12.722 24.0847C12.5171 23.9167 12.309 23.7469 12.0976 23.575H24.5733C24.5733 23.575 25.6425 23.7626 25.8515 24.524C26.0605 25.2854 25.8515 37.3675 25.8515 37.3675C25.5069 36.9097 25.1665 36.4663 24.8279 36.035V25.5541C24.8279 25.0524 24.4225 24.6452 23.923 24.6452H2.46318C1.9637 24.6452 1.55838 25.0524 1.55838 25.5541V26.572C1.55838 26.9006 1.73391 27.2036 2.01796 27.364C5.38662 29.262 9.79892 32.2355 14.1426 36.7545C17.8575 40.6194 20.4123 44.4603 22.1358 47.5349C22.2969 47.8202 22.5969 47.9982 22.9241 47.9982H23.923C24.4225 47.9982 24.8279 47.591 24.8279 47.0893V36.0819C28.1201 40.1368 30.5989 44.0112 32.4419 47.3014C32.6812 47.731 33.1345 47.9971 33.6259 47.9971H35.1244C35.876 47.9971 36.4824 47.3879 36.4824 46.6328Z" fill="#AFAFB6"/>
<path fill-rule="evenodd" clip-rule="evenodd" d="M53.1575 1.3555H57.0256C59.3331 1.3555 61.3166 2.19389 61.3166 4.83729C61.3166 7.48069 59.3012 8.51304 57.091 8.51304H55.9532V11.8346H53.1575V1.3555ZM56.9602 6.3217C58.0661 6.3217 58.5847 5.77346 58.5847 4.8389C58.5847 3.90432 57.9671 3.54845 56.8948 3.54845H55.9516V6.3217H56.9602Z" fill="#AFAFB6"/>
<path d="M64.6833 3.77056H62.4078V11.8322H65.2035V7.35014C65.5928 6.34984 66.3078 5.99557 66.8934 5.99557C67.2252 5.99557 67.4725 6.05033 67.7387 6.10924L67.8046 6.12381L68.2594 3.7369C68.0312 3.64071 67.7552 3.57659 67.2509 3.57659C66.4546 3.57659 65.545 4.06071 64.9434 5.15718H64.878L64.6833 3.77056Z" fill="#AFAFB6"/>
<path fill-rule="evenodd" clip-rule="evenodd" d="M68.2086 7.80312C68.2086 5.19178 70.1267 3.57913 72.1087 3.57913C74.5135 3.57913 75.6529 5.32003 75.6529 7.48092C75.6529 7.96503 75.5874 8.44915 75.5396 8.64149H70.907C71.1671 9.60977 71.8821 9.93032 72.7916 9.93032C73.3438 9.93032 73.864 9.77005 74.4497 9.44623L75.3592 11.0909C74.4816 11.7033 73.3119 12.0255 72.4006 12.0255C70.0277 12.0255 68.207 10.477 68.207 7.80152L68.2086 7.80312ZM73.2799 6.83489C73.2799 6.22254 73.0198 5.6743 72.174 5.6743C71.5565 5.6743 71.0363 6.02856 70.8736 6.83489H73.2799Z" fill="#AFAFB6"/>
<path d="M94.0054 3.57913C91.6965 3.57913 89.6488 5.12605 89.6488 7.80312L89.6471 7.79991C89.6471 10.4754 91.4346 12.0239 93.7434 12.0239C94.589 12.0239 95.6299 11.7995 96.4421 11.0893L95.3697 9.28432C94.9789 9.57445 94.5241 9.80047 94.0693 9.80047C93.1914 9.80047 92.5079 9.02625 92.5079 7.80152C92.5079 6.5768 93.1257 5.80254 94.1666 5.80254C94.4601 5.80254 94.7204 5.90032 95.0778 6.19047L96.3782 4.41752C95.7604 3.90134 94.9806 3.57913 94.0054 3.57913Z" fill="#AFAFB6"/>
<path d="M97.5321 8.73924V5.93393H96.4596V3.87083L97.695 3.77464L98.0201 1.67788H100.328V3.77464H102.18V5.93553H100.328V8.69279C100.328 9.57921 100.783 9.86934 101.303 9.86934C101.563 9.86934 101.823 9.80523 102.018 9.73949L102.441 11.7385C102.018 11.8684 101.416 12.0287 100.523 12.0287C98.41 12.0287 97.5321 10.7061 97.5321 8.73924Z" fill="#AFAFB6"/>
<path d="M104.669 0C103.758 0 103.109 0.580298 103.109 1.38662C103.109 2.19295 103.758 2.77325 104.669 2.77325C105.58 2.77325 106.23 2.19295 106.23 1.38662C106.23 0.580298 105.58 0 104.669 0Z" fill="#AFAFB6"/>
<path d="M106.067 3.77355H103.272V11.8352H106.067V3.77355Z" fill="#AFAFB6"/>
<path d="M106.798 3.77205H109.594L110.471 7.2875C110.667 8.09383 110.861 8.9322 111.057 9.80267H111.123C111.318 8.9322 111.512 8.09383 111.707 7.2875L112.585 3.77205H115.249L112.682 11.8337H109.464L106.798 3.77205Z" fill="#AFAFB6"/>
<path fill-rule="evenodd" clip-rule="evenodd" d="M119.299 3.57913C117.315 3.57913 115.397 5.19146 115.397 7.80234C115.397 10.4773 117.218 12.0255 119.59 12.0255C120.5 12.0255 121.671 11.7033 122.549 11.0909L121.638 9.44623C121.052 9.77005 120.532 9.93032 119.979 9.93032C119.07 9.93032 118.356 9.60977 118.096 8.64149H122.728C122.775 8.44915 122.841 7.96503 122.841 7.48092C122.841 5.32003 121.703 3.57913 119.299 3.57913ZM119.363 5.6743C120.208 5.6743 120.468 6.22254 120.468 6.83489H118.061C118.224 6.02856 118.745 5.6743 119.363 5.6743Z" fill="#AFAFB6"/>
<path d="M127.035 1.3555H129.831V9.51335H133.83V11.8346H127.035V1.3555Z" fill="#AFAFB6"/>
<path fill-rule="evenodd" clip-rule="evenodd" d="M139.11 6.61046C135.991 6.93268 134.69 7.86724 134.69 9.54403H134.687C134.687 10.8665 135.598 12.0272 137.126 12.0272C138.003 12.0272 138.72 11.6391 139.369 11.0589H139.435L139.629 11.8332H141.905V7.35106C141.905 4.70767 140.638 3.57913 138.525 3.57913C137.256 3.57913 136.086 3.96546 134.948 4.64355L135.924 6.44856C136.769 5.99811 137.387 5.77208 137.973 5.77208C138.688 5.77208 139.045 6.03017 139.11 6.61046ZM139.11 8.25357V9.35006C138.818 9.67225 138.558 9.89827 138.104 9.89827C137.615 9.89827 137.355 9.68828 137.355 9.31801C137.355 8.86597 137.778 8.44754 139.11 8.25357Z" fill="#AFAFB6"/>
<path d="M143.289 14.7031L143.777 12.608C143.812 12.6156 143.851 12.6251 143.892 12.635C144.022 12.6669 144.174 12.7042 144.298 12.7042C145.044 12.7042 145.404 12.382 145.565 11.8978L145.662 11.5435L142.574 3.77205H145.37L146.345 6.8675C146.522 7.44347 146.659 8.01847 146.803 8.62399C146.845 8.79865 146.887 8.97618 146.931 9.15667H146.996C147.159 8.38237 147.322 7.64177 147.516 6.8675L148.329 3.77205H150.995L148.265 11.7038C147.421 13.8808 146.541 14.8635 144.526 14.8635C143.974 14.8635 143.648 14.7994 143.29 14.7016L143.289 14.7031Z" fill="#AFAFB6"/>
<path fill-rule="evenodd" clip-rule="evenodd" d="M155.042 3.57913C153.058 3.57913 151.14 5.19146 151.14 7.80234C151.14 10.4773 152.961 12.0255 155.333 12.0255C156.244 12.0255 157.414 11.7033 158.292 11.0909L157.381 9.44623C156.796 9.77005 156.275 9.93032 155.723 9.93032C154.814 9.93032 154.099 9.60977 153.839 8.64149H158.471C158.519 8.44915 158.584 7.96503 158.584 7.48092C158.584 5.32003 157.447 3.57913 155.042 3.57913ZM155.106 5.6743C155.951 5.6743 156.211 6.22254 156.211 6.83489H153.805C153.968 6.02856 154.488 5.6743 155.106 5.6743Z" fill="#AFAFB6"/>
<path d="M159.705 3.77056H161.981L162.175 5.15718H162.241C162.843 4.06071 163.752 3.57659 164.548 3.57659C165.052 3.57659 165.329 3.64071 165.557 3.7369L165.102 6.12381L165.033 6.10862C164.767 6.04995 164.52 5.99557 164.191 5.99557C163.605 5.99557 162.89 6.34984 162.501 7.35014V11.8322H159.705V3.77056Z" fill="#AFAFB6"/>
<path d="M54.2585 20.2313L53.3473 20.9397H53.3457C53.9377 21.7445 54.7197 22.0667 55.508 22.0667C56.8995 22.0667 57.7995 21.2075 57.7995 20.1158C57.7995 19.4217 57.5394 19.0353 56.9554 18.6891L56.3553 18.3268L56.2573 18.2668C55.8427 18.0131 55.5989 17.864 55.5989 17.5766C55.5989 17.2335 55.8703 16.9306 56.3697 16.9306C56.8085 16.9306 57.15 17.171 57.458 17.4932L58.2591 16.7511C57.7979 16.1948 57.1388 15.8421 56.4255 15.8421C55.2351 15.8421 54.2952 16.6741 54.2952 17.7048C54.2952 18.4342 54.6526 18.8655 55.2 19.2053L55.7947 19.568C56.2116 19.8217 56.4798 19.9849 56.4798 20.2969C56.4798 20.7297 56.1303 20.9926 55.6069 20.9926C55.0835 20.9926 54.5873 20.6913 54.2585 20.2313Z" fill="#AFAFB6"/>
<path d="M60.7872 15.5019L60.4345 17.182L60.2318 17.9241H60.2685C60.6803 17.5635 61.1653 17.2733 61.7207 17.2733C62.4818 17.2733 62.8106 17.6853 62.8106 18.4483C62.8106 18.6535 62.7915 18.8715 62.7356 19.0991L62.1595 21.9558H60.8893L61.435 19.2579L61.4537 19.1721C61.4849 19.0306 61.5084 18.9237 61.5084 18.8202C61.5084 18.5077 61.3441 18.3489 61.0393 18.3489C60.7536 18.3489 60.4712 18.5381 60.0706 18.9453L59.4786 21.9558H58.2084L59.5154 15.5019H60.7872Z" fill="#AFAFB6"/>
<path fill-rule="evenodd" clip-rule="evenodd" d="M65.76 17.2763C64.4881 17.2763 63.2993 18.6517 63.2993 20.3926C63.2993 21.4699 63.7892 22.0678 64.5998 22.0678C65.0786 22.0678 65.6243 21.7937 66.0424 21.3608H66.0648L66.0456 21.9571H67.0797L68.002 17.3869H66.9823L66.7844 17.8775H66.7621C66.5818 17.5104 66.1764 17.2763 65.76 17.2763ZM66.4685 18.743L66.1381 20.3638V20.3621C65.8414 20.8831 65.46 21.0386 65.1536 21.0386C64.8248 21.0386 64.6158 20.7902 64.6158 20.2306C64.6158 19.1406 65.2094 18.3054 65.8493 18.3054C66.0648 18.3054 66.3153 18.4385 66.4685 18.743Z" fill="#AFAFB6"/>
<path fill-rule="evenodd" clip-rule="evenodd" d="M69.2933 22.4204L69.0539 23.6532H67.7837L69.0539 17.3869H70.088L70.0992 17.9095H70.1215C70.5428 17.5376 71.0551 17.2763 71.5337 17.2763C72.3444 17.2763 72.8343 17.8758 72.8343 18.9515C72.8343 20.6924 71.6455 22.0678 70.3736 22.0678C69.9874 22.0678 69.6396 21.861 69.4417 21.5275H69.4226L69.2949 22.4188L69.2933 22.4204ZM70.0273 18.8825L69.6795 20.6074C69.8183 20.9088 70.0513 21.0386 70.2842 21.0386C70.9242 21.0386 71.5178 20.2034 71.5178 19.1134C71.5178 18.5555 71.3072 18.3054 70.9784 18.3054C70.688 18.3054 70.3066 18.4609 70.0273 18.8825Z" fill="#AFAFB6"/>
<path fill-rule="evenodd" clip-rule="evenodd" d="M77.3289 18.9915C77.3289 18.0425 76.9268 17.2763 75.8257 17.2763V17.2779C74.6002 17.2779 73.2645 18.4209 73.2645 20.112C73.2645 21.3367 74.0369 22.0694 75.1507 22.0694C75.864 22.0694 76.4353 21.8482 76.8039 21.59L76.3523 20.795C76.1242 20.9584 75.7923 21.1155 75.5066 21.1155C74.8986 21.1155 74.4358 20.7917 74.4677 20.0319H77.0944C77.1662 19.8941 77.3289 19.4227 77.3289 18.9915ZM76.2869 18.921C76.2869 19.0477 76.2694 19.1678 76.247 19.2608H74.5699C74.7805 18.5907 75.2321 18.2446 75.6693 18.2446C76.1306 18.2446 76.2869 18.5523 76.2869 18.921Z" fill="#AFAFB6"/>
<path d="M78.841 23.559C79.0246 23.6631 79.3257 23.743 79.4947 23.743C80.4457 23.743 81.0394 23.1547 81.6761 22.055L84.1639 17.3854H82.9367L81.9697 19.4469C81.8534 19.6958 81.7264 19.9848 81.6024 20.267L81.6016 20.2687C81.5168 20.4616 81.433 20.6524 81.3554 20.8239H81.3187C81.309 20.3879 81.2819 19.8476 81.2373 19.4469L81.0171 17.3854H79.7548L80.5591 21.8578L80.4457 22.0807C80.2399 22.4863 79.9016 22.7443 79.5744 22.7443C79.4484 22.7443 79.3239 22.7106 79.2282 22.6561L78.841 23.559Z" fill="#AFAFB6"/>
<path fill-rule="evenodd" clip-rule="evenodd" d="M86.4382 17.2763C85.1696 17.2763 83.8563 18.4225 83.8563 20.1842H83.8547C83.8547 21.3207 84.568 22.0678 85.6436 22.0678C86.9135 22.0678 88.2274 20.9216 88.2274 19.1599C88.2274 18.0249 87.5142 17.2763 86.4382 17.2763ZM86.2978 18.291C86.7254 18.291 86.9425 18.6277 86.9425 19.1855C86.9425 20.2516 86.408 21.0547 85.7871 21.0547C85.3595 21.0547 85.1425 20.718 85.1425 20.1601C85.1425 19.0941 85.6771 18.291 86.2978 18.291Z" fill="#AFAFB6"/>
<path d="M92.3998 21.9556H91.3657L91.3853 21.34H91.3486C90.9288 21.7281 90.3973 22.0663 89.8418 22.0663C89.0808 22.0663 88.7523 21.6543 88.7523 20.8913C88.7523 20.6861 88.7779 20.468 88.8256 20.2404L89.4016 17.3854H90.672L90.1259 20.0833L90.1079 20.1658C90.0763 20.3089 90.0526 20.4166 90.0526 20.5209C90.0526 20.8335 90.219 20.9922 90.5219 20.9922C90.7932 20.9922 91.0756 20.8031 91.4442 20.3959L92.0363 17.3854H93.3068L92.3998 21.9556Z" fill="#AFAFB6"/>
<path d="M95.3902 17.3869H94.3561V17.3885L93.4483 21.9587H94.7188L95.2358 19.3105C95.5993 18.6677 95.979 18.3855 96.386 18.3855C96.5378 18.3855 96.7213 18.392 96.8424 18.4593L97.2605 17.366C97.159 17.31 97.0114 17.2763 96.7784 17.2763C96.2486 17.2763 95.7256 17.6995 95.3698 18.2766H95.3331L95.3902 17.3869Z" fill="#AFAFB6"/>
<path d="M99.111 17.4408L99.7203 17.3896L99.7749 17.0882C99.9617 16.1472 100.499 15.3953 101.554 15.3953C101.913 15.3953 102.252 15.4868 102.54 15.6438L102.135 16.5303C102.032 16.4678 101.852 16.394 101.688 16.394C101.346 16.394 101.141 16.5399 101.045 17.0433L100.974 17.3896H101.779L101.586 18.3722H100.765L100.052 21.9598H98.7826L99.5112 18.3722H98.9191L99.1093 17.4408H99.111Z" fill="#AFAFB6"/>
<path d="M104.315 21.9556H105.349L106.255 17.3854H104.985L104.392 20.3959C104.024 20.8031 103.741 20.9922 103.47 20.9922C103.167 20.9922 103.002 20.8335 103.002 20.5209C103.002 20.4166 103.025 20.3089 103.057 20.1658L103.075 20.0833L103.62 17.3854H102.35L101.774 20.2404C101.726 20.468 101.7 20.6861 101.7 20.8913C101.7 21.6543 102.03 22.0663 102.791 22.0663C103.346 22.0663 103.877 21.7281 104.297 21.34H104.334L104.315 21.9556Z" fill="#AFAFB6"/>
<path d="M106.845 20.8579C106.845 20.6624 106.878 20.4749 106.912 20.2825L107.314 18.3684H106.7L106.889 17.437L107.569 17.3857L107.959 16.1899H109.023L108.793 17.3857H109.835L109.642 18.3684H108.57L108.168 20.3305C108.148 20.4411 108.145 20.5373 108.145 20.6351C108.145 20.9381 108.293 21.0823 108.627 21.0823C108.758 21.0823 108.882 21.0359 109.001 20.9781L109.232 21.8646C108.988 21.956 108.624 22.0665 108.15 22.0665C107.221 22.0665 106.845 21.5584 106.845 20.8579Z" fill="#AFAFB6"/>
<path d="M112.414 21.9556H113.448L114.355 17.3854H113.085L112.493 20.3959C112.124 20.8031 111.842 20.9922 111.57 20.9922C111.268 20.9922 111.101 20.8335 111.101 20.5209C111.101 20.4166 111.125 20.3089 111.157 20.1658L111.175 20.0833L111.721 17.3854H110.45L109.874 20.2404C109.826 20.468 109.801 20.6861 109.801 20.8913C109.801 21.6543 110.129 22.0663 110.89 22.0663C111.446 22.0663 111.977 21.7281 112.397 21.34H112.434L112.414 21.9556Z" fill="#AFAFB6"/>
<path d="M115.405 17.3869H116.439L116.382 18.2766H116.418C116.774 17.6995 117.297 17.2763 117.827 17.2763C118.062 17.2763 118.208 17.31 118.309 17.366L117.891 18.4593C117.772 18.392 117.586 18.3855 117.435 18.3855C117.028 18.3855 116.648 18.6677 116.286 19.3105L115.767 21.9587H114.497L115.403 17.3885L115.405 17.3869Z" fill="#AFAFB6"/>
<path fill-rule="evenodd" clip-rule="evenodd" d="M122.034 18.9915C122.034 18.0425 121.632 17.2763 120.531 17.2763V17.2779C119.305 17.2779 117.97 18.4209 117.97 20.112C117.97 21.3367 118.742 22.0694 119.856 22.0694C120.569 22.0694 121.14 21.8482 121.509 21.59L121.057 20.795C120.829 20.9584 120.497 21.1155 120.212 21.1155C119.604 21.1155 119.141 20.7917 119.173 20.0319H121.8C121.871 19.8941 122.034 19.4227 122.034 18.9915ZM120.992 18.921C120.992 19.0477 120.975 19.1678 120.952 19.2608H119.275C119.486 18.5907 119.937 18.2446 120.374 18.2446C120.836 18.2446 120.992 18.5523 120.992 18.921Z" fill="#AFAFB6"/>
</svg>
