<svg width="167" height="48" viewBox="0 0 167 48" fill="none" xmlns="http://www.w3.org/2000/svg">
<path fill-rule="evenodd" clip-rule="evenodd" d="M91.082 16.7742C90.7199 17.5704 90.3954 18.1332 89.999 18.5883C88.6894 20.0919 86.7762 20.9252 84.7877 20.8582C83.6424 20.8196 82.3783 20.3187 79.8503 19.3168C77.3222 18.3149 76.0581 17.8139 75.1954 17.0567C73.6975 15.7421 72.8674 13.8215 72.9341 11.8254C72.9726 10.6757 73.4665 9.41969 74.4544 6.90775C74.635 6.44859 74.7991 6.03133 74.9512 5.65082V2.50728H59.3776V18.4734H74.9512V16.8314C75.0307 16.9086 75.1117 16.9833 75.1954 17.0567C75.4951 17.3198 75.8439 17.5525 76.2766 17.7855V19.8039H58.0522V1.17677H76.2766V2.82622C76.4085 2.62328 76.5447 2.44119 76.6906 2.2737C78.0002 0.770119 79.9134 -0.0632541 81.9019 0.00375188C83.0472 0.0423451 84.3112 0.543296 86.8394 1.5452C89.3675 2.5471 90.6315 3.04805 91.4942 3.80523C91.5786 3.87927 91.6608 3.95523 91.7409 4.03302C93.6237 1.87466 96.3891 0.511662 99.4715 0.511662C105.145 0.511662 109.743 5.12825 109.743 10.8231C109.743 16.5179 105.145 21.1345 99.4715 21.1345C96.0066 21.1345 92.9424 19.4124 91.082 16.7742ZM80.3369 18.0792C77.7024 17.0351 76.7142 16.6225 76.0678 16.0551C74.8695 15.0034 74.2054 13.4669 74.2588 11.87C74.2876 11.0082 74.6578 10.0137 75.6872 7.39626C76.7166 4.77879 77.123 3.79861 77.6884 3.14946C78.736 1.9466 80.2667 1.27991 81.8574 1.33351C82.7156 1.36243 83.7181 1.73866 86.3527 2.78275C88.9872 3.82684 89.9754 4.23951 90.6218 4.80687C90.7279 4.9 90.8298 4.99694 90.9274 5.09738C89.836 6.7353 89.1996 8.70459 89.1996 10.8231C89.1996 12.4514 89.5756 13.9916 90.2452 15.3609C89.724 16.6236 89.4027 17.2515 89.0012 17.7125C87.9535 18.9154 86.4229 19.5821 84.8321 19.5285C83.974 19.4995 82.9715 19.1233 80.3369 18.0792ZM92.6064 5.06396C94.2475 3.0947 96.7138 1.84217 99.4715 1.84217C104.413 1.84217 108.418 5.86307 108.418 10.8231C108.418 15.7831 104.413 19.804 99.4715 19.804C96.1497 19.804 93.2507 17.9866 91.7074 15.2883C91.8682 14.8873 92.0423 14.4447 92.2351 13.9544C93.223 11.4424 93.717 10.1863 93.7555 9.03661C93.8032 7.6091 93.3922 6.22022 92.6064 5.06396ZM91.7743 6.24283C92.2307 7.0734 92.4632 8.02153 92.4308 8.99197C92.402 9.85376 92.0317 10.8482 91.0023 13.4657C90.9867 13.5056 90.9711 13.545 90.9558 13.5841C90.6761 12.7142 90.525 11.7864 90.525 10.8231C90.525 9.15007 90.9807 7.58389 91.7743 6.24283Z" fill="#AFAFB6"/>
<path d="M82.9271 24.6626C81.4763 24.873 80.2305 25.5473 79.4053 26.5722C77.7765 28.5896 77.7495 31.7453 79.3406 33.7358C80.4031 35.0682 82.048 35.7317 84.0705 35.6454C84.8363 35.613 85.3865 35.5159 86.1038 35.2785L86.5999 35.1167L86.7348 34.8092C86.9613 34.2914 87.2525 33.2773 87.2579 33.0076C87.2579 32.8943 87.0692 32.781 86.9667 32.8403C86.9235 32.8619 86.7725 33.11 86.6323 33.3905C86.1954 34.2644 85.4835 34.8632 84.6422 35.0628C84.2646 35.1545 83.3532 35.1437 82.9109 35.0412C82.1235 34.8578 81.293 34.3345 80.7698 33.6926C80.4085 33.2449 80.004 32.398 79.8422 31.7615C79.5779 30.7204 79.5671 29.3287 79.8098 28.2984C79.8799 28.0179 80.0417 27.5755 80.1981 27.2519C80.4354 26.761 80.5379 26.6207 80.9424 26.2216C81.7028 25.4664 82.5172 25.1427 83.666 25.1427C85.2085 25.1481 86.0768 25.7253 86.5083 27.0577C86.6215 27.4029 86.6754 27.4946 86.7671 27.5054C87.0044 27.5432 87.026 27.4622 86.9559 26.8041C86.9235 26.4697 86.875 25.9464 86.8534 25.639C86.8318 25.2991 86.7887 25.0726 86.7509 25.0618C85.3811 24.6788 83.8871 24.5224 82.9271 24.6626Z" fill="#AFAFB6"/>
<path d="M0.593231 24.873C-3.11136e-05 24.9377 -0.016211 24.9431 0.00536216 25.1535C0.021542 25.3207 0.0377219 25.3315 0.291207 25.3747C0.744243 25.4448 0.976154 25.5419 1.09481 25.6983C1.20807 25.8494 1.20807 25.8763 1.20807 30.1216L1.20807 30.3725C1.20815 34.2105 1.20816 34.6022 1.01515 34.7651C0.993215 34.7836 0.96876 34.7992 0.941558 34.8165L0.927615 34.8254C0.852109 34.874 0.630984 34.9441 0.436825 34.9819C0.215112 35.0216 0.129435 35.0369 0.0925895 35.0877C0.0693837 35.1197 0.0655475 35.1657 0.059295 35.2408L0.0431152 35.4296L3.79684 35.4188V35.0466L3.36538 34.9873C2.61571 34.8794 2.54021 34.7823 2.4701 33.8868C2.3892 32.8997 2.43234 25.5581 2.51864 25.4556C2.61032 25.3423 3.07954 25.3045 3.55954 25.3639C4.29303 25.4556 4.85932 25.8224 5.18831 26.4211C5.5982 27.1763 5.5982 28.6058 5.19371 29.3556C4.91865 29.8573 4.35235 30.2727 3.66201 30.483C3.40853 30.5586 3.36538 30.5909 3.36538 30.7042C3.36538 30.8337 3.37617 30.8337 3.80224 30.8283C4.60584 30.8175 5.45258 30.4776 6.01888 29.9274C6.5636 29.4042 6.84405 28.7029 6.84405 27.8668C6.83866 26.3888 6.02427 25.3477 4.57348 24.9755C4.16898 24.873 3.94786 24.8568 2.58335 24.846C1.73661 24.8352 0.841322 24.8514 0.593231 24.873Z" fill="#AFAFB6"/>
<path d="M46.2474 25.639C46.2312 25.7091 46.1934 25.9087 46.1611 26.0867C46.1287 26.2647 46.0263 26.6963 45.94 27.0415C45.8483 27.3921 45.789 27.6996 45.8105 27.732C45.8267 27.7589 45.9022 27.7859 45.9723 27.7859C46.0802 27.7859 46.1341 27.7212 46.2743 27.4299C46.4901 26.966 46.7543 26.6855 47.0672 26.5614C47.2775 26.4805 47.4824 26.4643 48.3184 26.4643H49.3162L49.3323 30.2673C49.3431 32.3602 49.3323 34.1997 49.3162 34.3561C49.2622 34.8146 49.1004 34.9495 48.5341 35.0304L48.0757 35.0951L48.0595 35.2678L48.0433 35.435L49.8393 35.4296L51.6353 35.4188V35.257C51.6353 35.096 51.6299 35.0951 51.221 35.0314L51.2146 35.0304C50.7454 34.9603 50.6591 34.9117 50.535 34.6366C50.4595 34.4694 50.4488 33.9839 50.4326 30.5639C50.4218 28.4332 50.4272 26.6261 50.4488 26.5614C50.4757 26.4373 50.4865 26.4373 51.3656 26.4373C52.9836 26.4373 53.3557 26.6261 53.4744 27.5108C53.5121 27.8129 53.5984 27.9208 53.7656 27.8668C53.8627 27.8344 53.8735 27.7913 53.8735 27.3813C53.8735 27.1332 53.9112 26.6369 53.9598 26.2755C54.0083 25.8763 54.0245 25.5958 53.9975 25.5688C53.922 25.4933 53.7872 25.5635 53.7225 25.7091C53.6146 25.9518 53.4636 25.9572 50.0335 25.9411L46.8191 25.9249L46.6788 25.7954C46.6033 25.7199 46.5386 25.6336 46.5386 25.5904C46.5386 25.5527 46.4793 25.5203 46.4038 25.5203C46.3121 25.5203 46.2636 25.5581 46.2474 25.639Z" fill="#AFAFB6"/>
<path d="M128.031 26.1514C127.967 26.4967 127.853 26.9822 127.789 27.2249C127.659 27.6942 127.675 27.7859 127.896 27.7859C127.983 27.7859 128.042 27.705 128.161 27.4353C128.344 27.0145 128.678 26.6531 128.975 26.5506C129.115 26.5021 129.541 26.4697 130.199 26.4535L131.208 26.4265L131.24 26.6099C131.262 26.707 131.267 28.4979 131.251 30.5909C131.24 33.4067 131.213 34.4478 131.165 34.5989C131.078 34.874 130.9 34.9711 130.383 35.0412L129.946 35.0951V35.4188L131.742 35.4242L133.532 35.435V35.079L133.16 35.0412C132.686 34.9926 132.475 34.8686 132.4 34.5935C132.362 34.4478 132.351 33.0777 132.357 30.4237L132.373 26.4643H134.476L134.8 26.6261C135.167 26.8095 135.296 27.0037 135.35 27.4568C135.388 27.7967 135.469 27.9208 135.62 27.8722C135.717 27.8398 135.733 27.7751 135.765 27.1763C135.798 26.583 135.862 26.0112 135.932 25.7037C135.981 25.4825 135.792 25.4933 135.603 25.7199L135.431 25.9249L132.163 25.9411C128.608 25.9572 128.587 25.9518 128.452 25.6606C128.414 25.5742 128.349 25.5203 128.274 25.5203C128.166 25.5203 128.145 25.5796 128.031 26.1514Z" fill="#AFAFB6"/>
<path d="M152.873 25.8008C152.851 25.9572 152.749 26.4373 152.646 26.8635C152.544 27.2896 152.468 27.6726 152.484 27.7104C152.501 27.7535 152.571 27.7859 152.641 27.7859C152.743 27.7859 152.797 27.7158 152.948 27.4029C153.159 26.9714 153.471 26.6531 153.79 26.5398C153.941 26.4859 154.286 26.4643 154.998 26.4643H155.995V30.483C155.995 34.2213 155.99 34.5126 155.898 34.6744C155.774 34.9063 155.586 34.998 155.122 35.0412C154.804 35.0736 154.733 35.1005 154.712 35.1868L154.711 35.191C154.696 35.2464 154.685 35.2892 154.698 35.3223C154.743 35.435 155.071 35.435 156.513 35.435L158.288 35.4296L158.32 35.3055C158.368 35.1221 158.32 35.0843 157.98 35.0466C157.495 34.9873 157.328 34.9171 157.22 34.7283C157.133 34.5665 157.128 34.2482 157.128 30.51V26.4643L158.039 26.4481C159.614 26.4211 159.97 26.5992 160.127 27.4676C160.175 27.7481 160.218 27.8452 160.294 27.8722C160.499 27.9369 160.553 27.8075 160.553 27.2519C160.558 26.7826 160.612 26.2 160.693 25.7577C160.742 25.4879 160.58 25.4718 160.364 25.7199L160.186 25.9249L156.918 25.9411C153.347 25.9572 153.315 25.9518 153.239 25.6606C153.212 25.5527 153.175 25.5203 153.056 25.5203C152.916 25.5203 152.905 25.5365 152.873 25.8008Z" fill="#AFAFB6"/>
<path d="M34.0963 25.8116C32.7642 26.0651 31.6802 26.7232 30.979 27.705C30.0136 29.0536 29.7709 30.9847 30.3588 32.5976C30.8118 33.8329 31.7718 34.8254 32.9476 35.2624C33.6541 35.5321 34.1719 35.6184 34.997 35.6238C35.8492 35.6238 36.2698 35.5644 37.0411 35.3271L37.602 35.1545L37.7314 34.8632C37.8932 34.4964 38.109 33.752 38.1575 33.4067C38.1899 33.164 38.1791 33.137 38.0658 33.11C38.0011 33.0939 37.9256 33.0885 37.904 33.1047C37.8824 33.1154 37.7746 33.3042 37.6721 33.52C37.1597 34.5773 36.3939 35.1059 35.2937 35.1599C33.8105 35.2408 32.4676 34.3831 31.8096 32.9374C31.2217 31.632 31.2055 29.5552 31.7826 28.2552C32.2141 27.2788 33.05 26.556 34.0532 26.3025C34.4739 26.1946 35.4662 26.1946 35.8761 26.3025C36.7067 26.5182 37.2299 27.0361 37.5049 27.91C37.6074 28.2228 37.6505 28.3038 37.7476 28.3145C37.8123 28.3253 37.8878 28.3145 37.9148 28.2876C37.9472 28.2552 37.9256 27.8075 37.8717 27.1871L37.78 26.1353L37.4833 26.0705C37.3746 26.0495 37.1814 26.0079 36.9824 25.965C36.8757 25.9421 36.7668 25.9186 36.6689 25.8979C36.0002 25.7523 34.6465 25.7091 34.0963 25.8116Z" fill="#AFAFB6"/>
<path fill-rule="evenodd" clip-rule="evenodd" d="M57.9185 25.8224C56.5162 26.1191 55.3836 27.0253 54.7688 28.3307C53.5175 30.9847 54.5153 34.1943 56.9261 35.2624C57.9994 35.737 59.4016 35.7532 60.4641 35.3055C62.6538 34.3831 63.7971 31.6266 63.069 29.0374C62.4704 26.9336 60.901 25.7253 58.7868 25.7415C58.5009 25.7415 58.1126 25.7792 57.9185 25.8224ZM59.4879 26.3294C60.6151 26.6747 61.4133 27.7104 61.7908 29.3125C61.9203 29.8573 61.9311 30.0245 61.9365 30.9955C61.9365 32.2955 61.8663 32.6731 61.478 33.4822C61.149 34.1619 60.7553 34.5827 60.1944 34.8686C59.6929 35.1167 59.2938 35.1976 58.7544 35.1599C57.2012 35.0466 56.1171 33.8598 55.6695 31.7777C55.594 31.4162 55.5724 31.098 55.5778 30.2673C55.5832 29.0374 55.6533 28.676 56.0578 27.856C56.4353 27.0954 57.0663 26.5398 57.8322 26.2971C58.1881 26.1892 59.0888 26.2054 59.4879 26.3294Z" fill="#AFAFB6"/>
<path fill-rule="evenodd" clip-rule="evenodd" d="M91.4648 25.8116C90.6126 25.995 89.9438 26.351 89.2967 26.966C87.2742 28.9025 87.2418 32.5383 89.2319 34.4263C89.836 34.9926 90.4185 35.3109 91.2382 35.5105C91.8531 35.6615 92.7861 35.6669 93.3254 35.5321C95.0944 35.0736 96.3565 33.6495 96.7286 31.686C96.858 30.9793 96.8095 29.771 96.6153 29.0805C96.1623 27.4353 95.1214 26.3294 93.6221 25.8979C93.1043 25.7469 91.9825 25.7037 91.4648 25.8116ZM93.0396 26.3294C94.3448 26.7286 95.2239 28.1257 95.4612 30.1648C95.5529 30.9631 95.4989 31.9934 95.3263 32.6515C94.9326 34.1781 93.8378 35.1761 92.5434 35.1761C90.7798 35.1761 89.534 33.8113 89.1618 31.4918C89.0432 30.7366 89.0863 29.3341 89.2481 28.7353C89.5663 27.5324 90.2674 26.6963 91.2382 26.351C91.7182 26.1784 92.5272 26.173 93.0396 26.3294Z" fill="#AFAFB6"/>
<path d="M109.683 25.817C108.06 26.227 107.332 27.9531 108.146 29.4797C108.41 29.9706 108.82 30.3752 109.77 31.0656C110.81 31.8262 111.037 32.0528 111.269 32.5221C111.436 32.8619 111.447 32.9105 111.447 33.4769C111.447 34.0163 111.431 34.0972 111.301 34.3453C110.994 34.9333 110.444 35.2138 109.716 35.1599C109.214 35.1221 108.81 34.9279 108.454 34.5503C108.173 34.259 107.785 33.5308 107.72 33.1964C107.693 33.0453 107.666 33.0183 107.531 33.0183C107.38 33.0183 107.375 33.0237 107.375 33.2935C107.375 33.6171 107.51 34.5018 107.612 34.8524C107.672 35.0628 107.72 35.1167 107.957 35.2462C108.621 35.6076 109.872 35.7425 110.584 35.5321C111.792 35.1707 112.445 34.2752 112.445 32.9968C112.445 31.7291 111.948 30.9847 110.395 29.9166C109.489 29.2909 109.166 28.9834 108.923 28.5195C108.772 28.2228 108.756 28.1419 108.756 27.732C108.761 27.0307 108.982 26.6153 109.489 26.3618C109.726 26.2431 109.84 26.2216 110.228 26.2216C110.487 26.227 110.784 26.2593 110.897 26.2971C111.355 26.4643 111.679 26.8419 111.889 27.4569C111.992 27.7589 112.029 27.8129 112.143 27.8291C112.24 27.8398 112.294 27.8183 112.321 27.7535C112.358 27.6457 112.256 26.5668 112.17 26.2431L112.116 26.0274L111.619 25.9033C110.994 25.7469 110.12 25.7037 109.683 25.817Z" fill="#AFAFB6"/>
<path fill-rule="evenodd" clip-rule="evenodd" d="M139.007 25.9033C138.915 25.995 138.775 26.1191 138.683 26.173C138.559 26.2539 138.516 26.3294 138.462 26.583C138.338 27.2087 135.846 34.3885 135.657 34.6744C135.528 34.874 135.264 35.0088 134.924 35.0466C134.606 35.0844 134.514 35.1653 134.589 35.3541C134.616 35.4242 134.789 35.435 135.949 35.4296L137.281 35.4188V35.257C137.281 35.1005 137.27 35.0951 136.914 35.0358C136.714 35.0034 136.536 34.9603 136.515 34.9441C136.412 34.8362 136.526 34.3022 136.979 32.8026C137.173 32.1607 137.281 31.8855 137.367 31.8154C137.475 31.7291 137.599 31.7183 138.726 31.7345C139.821 31.7507 139.967 31.7615 140.026 31.8424C140.107 31.9503 140.813 34.3453 140.851 34.6366C140.883 34.8848 140.797 34.9603 140.366 35.0412C140.047 35.1005 140.031 35.1059 140.031 35.2624V35.4188H146.072V35.257C146.072 35.1005 146.066 35.0951 145.694 35.0358C145.489 35.0034 145.263 34.9603 145.193 34.9387C144.869 34.8308 144.804 34.259 144.767 31.1843C144.74 28.827 144.767 27.7535 144.858 27.8129C144.88 27.8237 145.209 28.2444 145.592 28.7407C145.969 29.2424 147.107 30.688 148.11 31.9557C149.114 33.2233 150.165 34.5719 150.451 34.9495L150.681 35.2539C150.855 35.484 150.977 35.6469 150.985 35.6508C150.99 35.6615 151.044 35.6454 151.098 35.6184C151.19 35.5644 151.195 35.3918 151.179 32.0636C151.163 28.6975 151.206 27.1871 151.33 26.7556C151.39 26.5452 151.578 26.4319 152.026 26.3348C152.312 26.2701 152.404 26.1676 152.306 26.0166C152.274 25.9572 151.956 25.9411 150.818 25.9411C149.577 25.9411 149.367 25.9519 149.329 26.022C149.259 26.1406 149.329 26.2701 149.464 26.2971C150.003 26.3996 150.192 26.4535 150.289 26.5182C150.554 26.7017 150.629 27.6349 150.629 30.7635C150.629 32.0959 150.613 33.1802 150.586 33.1802C150.527 33.1802 149.998 32.5437 148.305 30.4291C146.115 27.6996 145.63 27.0577 145.171 26.2593L144.993 25.9465L143.968 25.9411C143.084 25.9411 142.938 25.9519 142.89 26.0274C142.814 26.1514 142.922 26.2971 143.111 26.3187C143.645 26.3726 144.039 26.6585 144.152 27.0685C144.19 27.2033 144.211 28.3793 144.211 30.3752C144.211 33.3312 144.168 34.5287 144.044 34.7499C143.866 35.0844 142.793 35.1707 142.361 34.8848C142.253 34.8146 142.124 34.642 142.021 34.4209C141.887 34.1511 139.999 28.0934 139.427 26.1137C139.368 25.9087 139.292 25.7577 139.244 25.7469C139.201 25.7415 139.093 25.8116 139.007 25.9033ZM139.336 29.4096C139.594 30.2673 139.789 31.0063 139.767 31.0494C139.745 31.1196 139.567 31.1304 138.656 31.1304C137.588 31.1304 137.577 31.1304 137.577 31.0117C137.577 30.9092 138.624 27.6726 138.699 27.5432C138.748 27.4622 138.845 27.7427 139.336 29.4096Z" fill="#AFAFB6"/>
<path d="M163.195 25.817C161.977 26.1568 161.297 27.1062 161.373 28.3577C161.421 29.0913 161.702 29.6793 162.279 30.2511C162.435 30.4075 162.937 30.8067 163.39 31.1357C164.609 32.015 164.884 32.3656 164.991 33.191C165.099 33.9785 164.808 34.6474 164.22 34.9819C163.945 35.1383 163.886 35.1491 163.411 35.1491C162.953 35.1491 162.866 35.1329 162.575 34.9926C162.009 34.7121 161.54 34.1026 161.302 33.342C161.222 33.0723 161.2 33.0453 161.06 33.0453H160.903L160.92 33.3959C160.936 33.7681 161.054 34.5287 161.146 34.8632C161.216 35.1167 161.394 35.2408 161.928 35.4188C163.201 35.8503 164.511 35.6346 165.272 34.8794C166.237 33.9138 166.243 32.1768 165.288 31.044C164.975 30.6718 164.819 30.5424 163.837 29.8465C162.645 28.9996 162.338 28.6058 162.289 27.8614C162.241 27.1332 162.537 26.5722 163.093 26.3348C163.33 26.2323 163.449 26.2162 163.864 26.2323C164.733 26.2647 165.142 26.6045 165.461 27.5432C165.536 27.7643 165.579 27.8183 165.687 27.829C165.779 27.8398 165.838 27.8129 165.86 27.7535C165.903 27.6456 165.8 26.6423 165.714 26.2863L165.649 26.0381L165.191 25.9087C164.587 25.7469 163.622 25.6983 163.195 25.817Z" fill="#AFAFB6"/>
<path fill-rule="evenodd" clip-rule="evenodd" d="M8.75864 25.9572C8.28403 25.9842 7.86875 26.0166 7.8256 26.0328C7.78246 26.0489 7.76088 26.1245 7.77167 26.2323C7.78785 26.405 7.79864 26.4104 8.05752 26.4427C8.46741 26.4913 8.56448 26.5344 8.66696 26.7232C8.75325 26.8797 8.75864 27.1925 8.77482 30.4291C8.78561 32.371 8.77482 34.1134 8.75864 34.3022C8.7101 34.7877 8.55909 34.9387 8.05752 35.0304C7.69077 35.0951 7.67999 35.1005 7.67999 35.257V35.4188H10.916V35.2624C10.916 35.1113 10.8998 35.1005 10.5492 35.0142C10.1016 34.9009 9.98831 34.8038 9.9182 34.4263C9.8373 33.9947 9.84809 31.2544 9.92899 31.2059C10.0638 31.1196 10.862 31.1627 11.0292 31.2598C11.2391 31.3836 11.2611 31.4215 11.9629 32.6326L11.9677 32.6407C12.7443 33.9839 13.0409 34.4263 13.4508 34.8308C13.9686 35.3541 14.4593 35.5536 15.2414 35.5536C15.4841 35.5536 15.7483 35.5267 15.8346 35.4943C15.9317 35.4566 16.5358 35.435 17.5659 35.435H19.1407L19.1731 35.3055C19.2162 35.1275 19.1731 35.0843 18.8872 35.0466C18.4774 34.9873 18.294 34.9117 18.1861 34.7553C18.0944 34.6204 18.089 34.3885 18.0729 30.7797C18.0621 27.3921 18.0675 26.9228 18.143 26.7232C18.24 26.4697 18.4666 26.3294 18.7902 26.3294C18.898 26.3294 19.0329 26.3025 19.0922 26.2755C19.2001 26.2162 19.2324 26.0328 19.1353 25.9788C19.1084 25.9572 18.3695 25.9411 17.4958 25.9411C16.6221 25.9411 15.8832 25.9572 15.8562 25.9788C15.7591 26.0328 15.7915 26.2162 15.8994 26.2755C15.9587 26.3025 16.0881 26.3294 16.1906 26.3294C16.4657 26.3294 16.6922 26.4265 16.8054 26.5884C16.8971 26.7232 16.9025 26.966 16.9187 30.5532C16.9295 33.1316 16.9133 34.4424 16.8755 34.5827C16.8 34.8578 16.6544 34.9495 16.2014 35.025C15.9263 35.0736 15.8292 35.1113 15.8077 35.1868C15.7807 35.3001 15.6243 35.2785 15.3115 35.1221C14.9771 34.9549 14.276 34.1565 13.7366 33.3366C13.1865 32.5059 12.3614 31.0872 12.3182 30.893C12.2912 30.8013 12.3344 30.7527 12.5501 30.6341C13.1704 30.2888 13.6611 29.6847 13.8283 29.0589C13.8984 28.8054 13.9146 28.5735 13.8984 28.1851C13.8823 27.7266 13.8553 27.6025 13.7097 27.2896C13.4077 26.6477 12.9115 26.2701 12.0863 26.0543C11.5847 25.9195 10.1178 25.8763 8.75864 25.9572ZM11.3798 26.4913C12.2481 26.7664 12.7227 27.5162 12.7227 28.6166C12.7227 29.62 12.3991 30.2403 11.725 30.5424C11.5038 30.6449 11.3312 30.6718 10.7757 30.688C10.3227 30.7042 10.0584 30.688 9.97753 30.6503L9.86427 30.5855L9.87505 28.5519L9.89123 26.5236L10.0261 26.4535C10.2418 26.3456 10.9861 26.3672 11.3798 26.4913Z" fill="#AFAFB6"/>
<path d="M19.8364 25.9734C19.7555 26.0597 19.7825 26.2162 19.885 26.2647C19.9335 26.2917 20.0845 26.3294 20.214 26.351C20.6023 26.4104 20.8504 26.583 21.0068 26.9012L21.1416 27.1817L21.12 30.7581C21.1092 33.1154 21.0823 34.4101 21.0391 34.5503C20.9528 34.8578 20.8234 34.9603 20.4189 35.0304C20.0522 35.0897 19.9605 35.1653 20.0306 35.3487C20.0576 35.4188 20.2787 35.4296 21.5299 35.4242L22.9969 35.4188V35.257C22.9969 35.096 22.9916 35.0951 22.6091 35.0367L22.6032 35.0358C21.929 34.9333 21.8805 34.874 21.7834 34.0163C21.7133 33.369 21.7079 27.7697 21.7834 27.8129C21.8104 27.8291 22.0746 28.1527 22.3605 28.5303C22.6517 28.9079 23.8706 30.4669 25.0733 31.9934C26.276 33.52 27.414 34.9711 27.6028 35.2192C27.894 35.6022 27.9533 35.6561 28.0396 35.6076C28.1367 35.5536 28.1421 35.4134 28.1583 31.276C28.1745 28.034 28.196 26.9552 28.2446 26.7987C28.3309 26.5506 28.5034 26.4319 28.8918 26.3564C29.2154 26.2917 29.3448 26.173 29.2531 26.0274C29.2046 25.9572 29.0104 25.9411 27.743 25.9411H26.2868L26.2706 26.1029C26.249 26.2863 26.276 26.3025 26.7237 26.3564C27.3061 26.4319 27.3978 26.5668 27.5003 27.5647C27.565 28.2444 27.5758 33.1964 27.5057 33.1694C27.4248 33.1424 26.8261 32.4088 25.0517 30.1917C23.1964 27.8776 22.4953 26.9444 22.1501 26.3294L21.9236 25.9249H20.9097C20.338 25.9249 19.8688 25.9465 19.8364 25.9734Z" fill="#AFAFB6"/>
<path d="M38.9341 26.0328C38.8586 26.2377 38.9126 26.2863 39.3332 26.3564C39.4465 26.3726 39.5975 26.4265 39.6676 26.4751C39.9265 26.6423 39.9319 26.6909 39.9319 30.6988C39.9319 34.0864 39.9211 34.4694 39.8402 34.6474C39.7269 34.8955 39.5436 34.9926 39.0851 35.0412C38.8101 35.0736 38.713 35.1005 38.6914 35.1761L38.685 35.1954C38.6717 35.2349 38.6608 35.2673 38.6688 35.2941C38.7063 35.4195 39.1579 35.4209 41.7206 35.4289L41.922 35.4296L45.1256 35.435L45.2119 35.2138C45.3521 34.8362 45.6757 33.6657 45.6757 33.5308C45.6757 33.369 45.4924 33.2557 45.4061 33.3528C45.3737 33.3905 45.2335 33.6225 45.0987 33.8598C44.8074 34.3885 44.5863 34.6636 44.3814 34.7715C44.0146 34.9603 42.2402 35.0088 41.6631 34.847C41.3611 34.7607 41.1723 34.5503 41.0968 34.2159C41.0591 34.0379 41.0375 33.3258 41.0375 32.3764C41.0375 31.0063 41.0483 30.8121 41.1238 30.7851C41.2586 30.7366 42.8227 30.7474 43.06 30.8067C43.3458 30.8714 43.4969 31.0602 43.5724 31.4378C43.6047 31.6104 43.6533 31.8046 43.6802 31.8694C43.7342 31.9988 43.9175 32.0366 43.9769 31.9395C43.9984 31.9071 44.0092 31.249 44.0092 30.4722C44.0092 29.2801 43.9984 29.0536 43.9337 29.0158C43.8097 28.9511 43.691 29.0212 43.6586 29.1776C43.6472 29.2346 43.6251 29.3533 43.6017 29.4787L43.6015 29.4799L43.5724 29.6361C43.4645 30.1917 43.3566 30.2295 41.9544 30.2025L41.0645 30.1863V26.4643H42.3049C43.4699 26.4643 43.5562 26.4697 43.7611 26.583C44.1279 26.7772 44.2951 27.0199 44.4623 27.5863C44.5432 27.8722 44.5647 27.8938 44.7103 27.8938C44.856 27.8938 44.8667 27.8776 44.8667 27.6888C44.8667 27.4568 44.7157 26.0004 44.6888 25.9734C44.678 25.9626 43.389 25.9465 41.8249 25.9411C39.015 25.9249 38.9719 25.9249 38.9341 26.0328Z" fill="#AFAFB6"/>
<path d="M64.0344 25.9465C64.0237 25.9572 64.0129 26.0382 64.0129 26.1191C64.0129 26.2755 64.0938 26.3295 64.3311 26.3295C64.412 26.3295 64.6115 26.3942 64.7733 26.4751C64.9944 26.5884 65.0969 26.6855 65.1994 26.8689L65.3342 27.1116L65.3504 29.9436C65.3666 32.4951 65.318 34.1889 65.2156 34.6528C65.1724 34.8524 64.9944 34.9657 64.59 35.0358C64.2664 35.0951 64.2556 35.1005 64.2556 35.257V35.4188L65.7225 35.4296C67.0816 35.435 67.1949 35.4296 67.2219 35.3379C67.2812 35.1491 67.2003 35.079 66.8551 35.0412C66.456 34.9927 66.1971 34.8956 66.127 34.7607C65.976 34.4802 65.9383 33.8221 65.9167 30.9685C65.9005 29.3449 65.9113 27.9747 65.9383 27.9046C65.9814 27.7913 66.0677 27.883 66.8497 28.9025C67.3243 29.5175 68.5432 31.0764 69.5626 32.3656C70.5819 33.6549 71.5743 34.9225 71.7684 35.1868C72.0866 35.6184 72.1298 35.6562 72.2215 35.5968C72.3131 35.5321 72.3185 35.3487 72.3401 31.3731C72.3563 27.2411 72.3779 26.761 72.5451 26.5614C72.599 26.4967 72.9711 26.3726 73.3055 26.3025C73.4349 26.2755 73.4565 26.2485 73.4403 26.1083L73.4241 25.9411H71.968C70.7437 25.9411 70.5064 25.9519 70.4632 26.022C70.4363 26.0651 70.4309 26.1407 70.4471 26.1838C70.4794 26.2755 70.501 26.2809 71.0403 26.3888C71.2183 26.4212 71.4017 26.4913 71.4556 26.5452C71.5904 26.6801 71.6713 27.0954 71.7253 28.0286C71.79 29.0266 71.7954 33.0184 71.7361 33.1154C71.6767 33.2071 71.4934 32.9968 69.2551 30.1971C67.3243 27.7859 66.8821 27.1979 66.4021 26.4104L66.127 25.9519L65.0915 25.9357C64.5252 25.9303 64.0452 25.9357 64.0344 25.9465Z" fill="#AFAFB6"/>
<path d="M97.3974 25.9411C97.365 25.9518 97.3434 26.0274 97.3434 26.1137C97.3434 26.2701 97.4243 26.3294 97.6347 26.3294C98.0607 26.3294 98.5246 26.6747 98.6324 27.0685C98.7079 27.3328 98.7079 33.1478 98.6378 33.9731C98.5569 34.874 98.5246 34.9279 97.9097 35.0358C97.5969 35.0951 97.5861 35.1005 97.5861 35.257V35.4188H100.552V35.257C100.552 35.1005 100.547 35.0951 100.175 35.0358C99.97 35.0034 99.7434 34.9603 99.6733 34.9387C99.5007 34.8848 99.4091 34.6636 99.3389 34.1727C99.2634 33.6549 99.2041 28.3469 99.2688 28.0017L99.3174 27.7589L99.9052 28.5357C100.234 28.9618 101.432 30.4938 102.57 31.9341C103.708 33.3744 104.824 34.7985 105.045 35.0951L105.122 35.1987C105.308 35.4486 105.456 35.646 105.46 35.6507C105.471 35.6615 105.52 35.6507 105.568 35.6238C105.649 35.5752 105.66 35.2192 105.671 31.4216L105.672 30.9657C105.683 27.3576 105.685 26.6803 105.993 26.4857C106.064 26.4407 106.151 26.4215 106.258 26.3979C106.279 26.3933 106.301 26.3885 106.323 26.3834C106.749 26.2863 106.771 26.2755 106.803 26.1892C106.819 26.1406 106.814 26.0705 106.792 26.022C106.755 25.9572 106.523 25.9411 105.315 25.9411C104.522 25.9411 103.853 25.9572 103.821 25.9734C103.659 26.0759 103.848 26.3294 104.08 26.3294C104.161 26.3294 104.355 26.3672 104.506 26.4104C105.034 26.5668 105.061 26.7502 105.094 30.359C105.11 32.1337 105.099 33.1802 105.067 33.1802C105.002 33.1802 104.193 32.1984 102.327 29.8627C100.65 27.7589 100.099 27.0253 99.7273 26.3834L99.4738 25.9465L98.4598 25.9357C97.9043 25.9303 97.4243 25.9303 97.3974 25.9411Z" fill="#AFAFB6"/>
<path d="M113.221 25.9464C113.21 25.9572 113.2 26.0328 113.2 26.1137C113.2 26.2485 113.221 26.2593 113.583 26.3133C113.96 26.3726 114.117 26.4589 114.241 26.6801C114.289 26.7556 114.316 27.6564 114.338 29.7278C114.37 32.4573 114.381 32.7055 114.483 33.1802C114.85 34.8308 115.886 35.6184 117.676 35.6238C119.391 35.6292 120.497 34.7823 120.907 33.1532C121.085 32.4465 121.128 31.7723 121.128 29.8519C121.128 28.061 121.182 26.9552 121.29 26.6855C121.36 26.4913 121.624 26.3456 121.975 26.3025C122.277 26.2647 122.379 26.173 122.282 26.022C122.206 25.9033 119.407 25.9033 119.337 26.022C119.251 26.1838 119.348 26.2701 119.661 26.3079C120.26 26.378 120.378 26.5236 120.481 27.3058C120.572 28.0071 120.615 31.1034 120.54 31.8586C120.432 33.0453 120.152 33.8275 119.645 34.3399C119.154 34.8416 118.447 35.0628 117.638 34.9603C116.495 34.8146 115.859 34.1619 115.557 32.8403C115.459 32.3872 115.443 32.1229 115.427 29.8034C115.411 28.1096 115.422 27.1548 115.459 26.9444C115.54 26.5128 115.67 26.3942 116.134 26.3187C116.506 26.2593 116.608 26.173 116.511 26.022C116.468 25.9572 116.193 25.9411 114.855 25.9357C113.971 25.9303 113.232 25.9357 113.221 25.9464Z" fill="#AFAFB6"/>
<path d="M122.552 25.9465C122.541 25.9572 122.53 26.0382 122.53 26.1191C122.53 26.2863 122.552 26.2971 123.032 26.351C123.366 26.3888 123.479 26.4535 123.593 26.6693C123.684 26.8257 123.69 27.1278 123.706 30.4722C123.717 32.8565 123.7 34.2051 123.663 34.4101C123.582 34.847 123.458 34.9549 122.94 35.025L122.53 35.0843V35.4188L125.604 35.4242L128.678 35.435L128.808 35.0196C128.916 34.669 129.099 33.9569 129.196 33.5146C129.212 33.4229 129.191 33.3798 129.099 33.3474C128.916 33.2773 128.878 33.3096 128.716 33.7088C128.479 34.286 128.209 34.642 127.896 34.7985C127.643 34.9225 127.578 34.9279 126.683 34.9333C125.583 34.9333 125.308 34.8794 125.07 34.6043C124.979 34.5018 124.892 34.3184 124.855 34.1511C124.785 33.8167 124.774 27.2411 124.844 26.8689C124.903 26.5884 125.087 26.3996 125.362 26.3564C125.413 26.3483 125.481 26.3389 125.55 26.3295C125.619 26.3201 125.688 26.3106 125.739 26.3025C125.89 26.2755 125.928 26.2485 125.928 26.1514C125.928 26.0867 125.906 26.0058 125.885 25.9788C125.847 25.9249 122.606 25.8979 122.552 25.9465Z" fill="#AFAFB6"/>
<path d="M15.6513 40.1873C15.1443 40.4193 14.5942 41.2554 14.3191 42.2156L14.1951 42.6471L13.8499 42.6741C13.5425 42.6957 13.5048 42.7119 13.4886 42.8197C13.4724 42.9384 13.4886 42.9438 13.8014 42.9438C14.0926 42.9438 14.1304 42.9546 14.1034 43.0355C14.0603 43.1758 13.7906 44.3086 13.4778 45.6949C13.1596 47.0758 13.0355 47.4426 12.8576 47.5613C12.7012 47.6638 12.5501 47.626 12.2805 47.4157C12.0378 47.2215 11.9515 47.2215 11.8706 47.3941C11.7735 47.5991 11.7897 47.7123 11.9299 47.8418C12.1888 48.0845 12.6203 48.0414 13.0355 47.7393C13.4346 47.448 13.6234 46.9571 14.1627 44.8264L14.6374 42.9708L15.1227 42.9438C15.5758 42.9168 15.6081 42.906 15.6243 42.7928C15.6405 42.6795 15.6297 42.6741 15.1767 42.6741H14.7075L14.7452 42.4961C14.8315 42.1077 15.1174 41.277 15.2738 40.9857C15.4356 40.6728 15.7915 40.3006 15.9263 40.3006C16.0774 40.3006 16.2823 40.5218 16.3147 40.7268C16.3686 41.0558 16.4171 41.099 16.5735 40.9533C16.6491 40.8832 16.7246 40.7591 16.7407 40.6728C16.7785 40.5002 16.6544 40.2251 16.5034 40.1388C16.3362 40.0525 15.8994 40.0794 15.6513 40.1873Z" fill="#AFAFB6"/>
<path d="M54.4128 40.1496C54.0892 40.2197 54.0461 40.2736 54.1863 40.4247C54.251 40.4948 54.3049 40.5865 54.3049 40.6297C54.3049 40.6782 53.9544 41.8596 53.5229 43.2621C53.0915 44.6646 52.7517 45.8297 52.7679 45.8621C52.7894 45.8891 52.8595 45.9107 52.9297 45.9107C53.0429 45.9107 53.1076 45.8136 53.4097 45.2094C53.9112 44.2061 54.3912 43.5318 54.909 43.111C55.5508 42.5878 55.6371 42.9384 55.211 44.3949C55.0061 45.1231 54.909 45.3712 54.7742 45.5169C54.6717 45.6301 54.6609 45.6355 54.5207 45.5492C54.3103 45.4252 54.1863 45.4899 54.2079 45.7057C54.224 45.8567 54.2456 45.8891 54.3805 45.8999C54.6231 45.9268 54.8335 45.8082 55.0924 45.4899C55.4969 44.9936 55.8636 44.1198 55.9823 43.3807C56.0308 43.0409 56.0254 42.9708 55.9391 42.7928C55.8528 42.6148 55.8151 42.5932 55.6155 42.577C55.4645 42.5662 55.3135 42.5986 55.1571 42.6795C54.8605 42.8305 54.3049 43.3646 53.9975 43.7961C53.8627 43.9849 53.744 44.1251 53.7333 44.1198C53.7225 44.109 53.9921 43.2189 54.3319 42.1455C54.6717 41.072 54.9521 40.1658 54.9521 40.1388C54.9521 40.0741 54.7418 40.0794 54.4128 40.1496Z" fill="#AFAFB6"/>
<path d="M65.1455 40.1765C64.7464 40.279 64.7086 40.3276 64.8974 40.484C65.0376 40.5919 65.0484 40.6297 65.016 40.8023C64.9945 40.9102 64.6924 41.9405 64.3419 43.0895C63.6154 45.4611 63.5685 45.6142 63.5964 45.7521C63.5983 45.7617 63.6006 45.7711 63.603 45.7812C63.6354 45.8945 63.6677 45.9107 63.8835 45.9107C64.1963 45.9107 64.4875 45.7596 64.741 45.4683C64.9891 45.1824 65.1617 44.848 65.0916 44.8048C65.0646 44.7886 64.865 44.9559 64.6493 45.1824C64.2448 45.5978 64.1208 45.6679 64.1208 45.4737C64.1208 45.3766 65.5392 40.6566 65.6794 40.2844C65.7118 40.1981 65.7387 40.1226 65.7387 40.1064C65.7387 40.0633 65.4367 40.0956 65.1455 40.1765Z" fill="#AFAFB6"/>
<path fill-rule="evenodd" clip-rule="evenodd" d="M87.5169 40.1496C87.285 40.2089 87.258 40.2898 87.4198 40.4355C87.4791 40.4894 87.5277 40.5703 87.5277 40.6135C87.5277 40.6782 87.0315 42.3127 86.9074 42.6633C86.8859 42.7226 86.8589 42.7172 86.7618 42.6525C86.422 42.4098 85.8234 42.6471 85.2031 43.2621C84.8688 43.5965 84.7447 43.7691 84.5452 44.1845C84.3888 44.5081 84.2701 44.8372 84.2324 45.0799C84.173 45.4252 84.173 45.4791 84.2701 45.6733C84.3672 45.8729 84.3834 45.8837 84.653 45.8999C85.1115 45.9268 85.4998 45.6463 86.0823 44.8696C86.4166 44.411 86.4544 44.4218 86.2872 44.9181C86.0175 45.6895 86.0337 45.9107 86.3627 45.9107C86.6593 45.9107 87.3928 45.2795 87.5007 44.9343C87.5708 44.7185 87.4737 44.7671 87.0962 45.1231C86.7187 45.4791 86.6432 45.5223 86.5892 45.4306C86.5461 45.3658 87.1232 43.4239 87.7164 41.6168C87.9699 40.84 88.1749 40.1765 88.1749 40.1442C88.1749 40.0741 87.7973 40.0741 87.5169 40.1496ZM86.6432 42.9222C86.7241 43.0409 86.7294 43.0948 86.6701 43.3322C86.476 44.1845 85.4243 45.5061 84.8418 45.6194C84.6908 45.6517 84.6692 45.6355 84.6369 45.5115C84.5182 45.0422 85.6508 43.1812 86.2602 42.8467C86.4328 42.7496 86.5461 42.7712 86.6432 42.9222Z" fill="#AFAFB6"/>
<path d="M149.038 40.1765C148.671 40.2844 148.644 40.3276 148.817 40.4894C148.941 40.6027 148.957 40.6566 148.93 40.8023C148.909 40.894 148.58 42.0052 148.197 43.2675C147.781 44.6106 147.501 45.6248 147.512 45.7219C147.528 45.8729 147.544 45.8837 147.787 45.8999C148.143 45.9214 148.461 45.7327 148.774 45.3065C148.99 45.0098 149.076 44.7779 148.968 44.7779C148.946 44.7779 148.801 44.9235 148.639 45.1015C148.31 45.4791 148.11 45.6248 148.04 45.5546C148.008 45.5223 148.294 44.492 148.812 42.7928L149.642 40.0848L149.475 40.0902C149.383 40.0902 149.189 40.128 149.038 40.1765Z" fill="#AFAFB6"/>
<path d="M44.5485 40.8508C44.3759 41.2176 44.3004 41.4226 44.3382 41.4604C44.3705 41.4981 44.4298 41.4604 44.5054 41.3525C44.7049 41.0666 44.9746 40.8454 45.1795 40.7861C45.4815 40.7052 46.3175 40.716 46.3553 40.8023C46.3822 40.8778 45.3197 44.6754 45.131 45.1878C45.0015 45.5331 44.9206 45.6032 44.6024 45.6409C44.4406 45.6571 44.3489 45.6949 44.3382 45.7488C44.3274 45.8243 44.4514 45.8351 45.2982 45.8351C46.1557 45.8351 46.269 45.8243 46.2582 45.7542C46.2474 45.7003 46.1611 45.6571 46.0101 45.6355C45.7728 45.6032 45.6757 45.5277 45.6757 45.3658C45.6757 45.2202 46.9162 40.8778 46.9809 40.7969C47.0294 40.7429 47.1804 40.7268 47.6065 40.7429C48.1189 40.7591 48.1728 40.7699 48.2699 40.8886C48.34 40.9749 48.3723 41.099 48.3723 41.277C48.3723 41.4766 48.3939 41.5413 48.4532 41.5413C48.4964 41.5413 48.5341 41.4981 48.5341 41.4442C48.5395 41.3956 48.6204 41.1367 48.7229 40.8724C48.9117 40.3653 48.9171 40.2305 48.7391 40.3923C48.6366 40.484 48.4964 40.4894 46.8245 40.4894C45.1687 40.4894 45.0123 40.484 44.953 40.3923C44.9152 40.3438 44.8667 40.3006 44.8505 40.3006C44.8343 40.3006 44.6995 40.5487 44.5485 40.8508Z" fill="#AFAFB6"/>
<path d="M132.562 40.4948C131.85 40.6836 131.143 41.1421 130.744 41.6761C130.081 42.5554 129.838 43.5695 130.054 44.4974C130.259 45.355 130.841 45.8459 131.763 45.943C132.06 45.97 132.572 45.9107 133.193 45.7758C133.322 45.7434 133.495 45.4575 133.689 44.9343C133.791 44.6646 133.797 44.5621 133.694 44.5621C133.673 44.5621 133.576 44.6808 133.478 44.8264C133.106 45.4144 132.605 45.7165 132.022 45.7111C131.418 45.7057 131.008 45.4467 130.776 44.9181C130.593 44.5135 130.571 43.6558 130.717 43.0625C130.981 42.016 131.564 41.2392 132.373 40.8562C132.74 40.6836 132.858 40.6512 133.257 40.6351C133.656 40.6189 133.748 40.6351 133.899 40.7322C134.136 40.8832 134.255 41.1637 134.212 41.4981C134.185 41.7031 134.19 41.7571 134.255 41.7571C134.347 41.7571 134.697 40.689 134.627 40.6243C134.411 40.4193 133.139 40.3384 132.562 40.4948Z" fill="#AFAFB6"/>
<path d="M8.05212 40.511C7.97662 40.5865 8.05752 40.6728 8.23549 40.7052C8.48898 40.7537 8.56988 40.8185 8.56988 40.9803C8.56988 41.1205 7.55055 44.7185 7.38336 45.1662C7.24852 45.5277 7.19459 45.5762 6.89257 45.6301C6.74695 45.6571 6.64987 45.7003 6.63908 45.7488C6.62829 45.819 6.75773 45.8297 7.54515 45.8351C8.3919 45.8351 8.46201 45.8297 8.46201 45.738C8.46201 45.6625 8.41887 45.6409 8.28403 45.6409C8.09527 45.6409 7.92268 45.5115 7.92268 45.3658C7.92268 45.3227 8.19235 44.3301 8.52673 43.1596C9.1955 40.8023 9.21168 40.7699 9.64314 40.6998C9.79416 40.6728 9.86427 40.6351 9.86427 40.5757C9.86427 40.5002 9.7564 40.4894 8.96898 40.4894C8.47819 40.4894 8.06291 40.5002 8.05212 40.511Z" fill="#AFAFB6"/>
<path d="M91.2328 40.538C91.1951 40.6404 91.2221 40.6566 91.4755 40.7052C91.7668 40.7591 91.8207 40.8454 91.7452 41.1583C91.7128 41.3039 91.454 42.0861 91.1681 42.8953C90.2566 45.4845 90.2135 45.5708 89.8036 45.6248C89.6418 45.6463 89.5771 45.6787 89.5771 45.7434C89.5771 45.819 89.6742 45.8297 90.3861 45.8297C91.0818 45.8297 91.1951 45.819 91.1951 45.7434C91.1951 45.6895 91.1142 45.6463 90.9686 45.6086C90.7582 45.5654 90.7367 45.5438 90.7205 45.3874C90.7097 45.2741 90.9092 44.5837 91.3029 43.4185C91.6319 42.4314 91.934 41.5467 91.9717 41.4604L92.0418 41.2985L92.0742 41.5683C92.0904 41.7139 92.182 42.7011 92.2791 43.7529C92.3708 44.8048 92.4625 45.6787 92.4733 45.6949C92.5056 45.7272 92.5596 45.6517 92.9856 44.9936C93.4117 44.3301 95.5151 41.3147 95.5421 41.3363C95.569 41.3687 94.5389 45.0098 94.4364 45.2364C94.3124 45.5115 94.2153 45.5924 93.9457 45.6248C93.7946 45.6463 93.7299 45.6787 93.7299 45.7434C93.7299 45.819 93.8378 45.8297 94.663 45.8297C95.4504 45.8297 95.5906 45.819 95.5906 45.7488C95.5906 45.6949 95.5205 45.6571 95.3749 45.6409C95.089 45.6032 95.0243 45.5546 95.0243 45.3928C95.0243 45.2364 95.8872 41.7948 96.0544 41.2878C96.1785 40.9048 96.3295 40.7591 96.6423 40.7052C96.7933 40.6782 96.858 40.6404 96.858 40.5811C96.858 40.5002 96.7825 40.4894 96.254 40.4894H95.6553L95.4558 40.867C95.2724 41.223 93.0234 44.4704 92.9155 44.5351C92.8886 44.5567 92.867 44.5297 92.867 44.4812C92.867 44.4326 92.7915 43.7476 92.6998 42.9546C92.6081 42.1616 92.5272 41.2878 92.5218 41.018L92.5164 40.5164H91.9663C91.6643 40.5164 91.3839 40.5002 91.3407 40.484C91.2976 40.4678 91.249 40.4948 91.2328 40.538Z" fill="#AFAFB6"/>
<path d="M33.9507 41.0127C33.7458 41.3363 33.8051 41.6492 34.0748 41.6492C34.1557 41.6492 34.2689 41.606 34.3175 41.5467C34.4415 41.4118 34.49 41.0774 34.4038 40.9749C34.3013 40.8508 34.0424 40.8724 33.9507 41.0127Z" fill="#AFAFB6"/>
<path d="M153.083 41.0234C152.964 41.2069 152.991 41.6168 153.126 41.6384C153.401 41.6923 153.595 41.4981 153.595 41.1745C153.595 40.9857 153.504 40.894 153.315 40.894C153.218 40.894 153.137 40.9371 153.083 41.0234Z" fill="#AFAFB6"/>
<path d="M31.4967 42.2911L31.4893 42.3057C31.281 42.712 31.2781 42.7177 31.0275 42.755C30.6985 42.8036 30.6284 42.8305 30.6284 42.9222C30.6284 42.9762 30.7039 42.9977 30.8981 42.9977C31.0545 42.9977 31.1678 43.0193 31.1678 43.0571C31.1678 43.0895 30.9952 43.6612 30.7902 44.3355C30.5745 45.026 30.4127 45.6248 30.4235 45.7219C30.4397 45.8621 30.4612 45.8837 30.6176 45.8999C30.8495 45.9214 31.2325 45.6841 31.6208 45.2579C32.0954 44.7455 32.1116 44.4758 31.6424 44.9235C31.281 45.2633 31.0707 45.4036 31.006 45.3389C30.9628 45.2903 31.6046 43.1326 31.6909 43.0463C31.7125 43.0247 31.9174 42.9977 32.1385 42.987C32.5107 42.9708 32.543 42.96 32.5592 42.8467C32.5754 42.7334 32.5592 42.728 32.1709 42.728H31.761L31.7934 42.577C31.8119 42.5076 31.8502 42.3709 31.8845 42.2483L31.9012 42.1886C31.9552 42.0052 31.9606 41.9405 31.9066 41.9081C31.7664 41.8164 31.7017 41.8811 31.4967 42.2911Z" fill="#AFAFB6"/>
<path d="M126.419 42.2911L126.411 42.3057C126.203 42.712 126.2 42.7177 125.949 42.755C125.62 42.8036 125.55 42.8305 125.55 42.9222C125.55 42.9762 125.626 42.9977 125.82 42.9977C125.976 42.9977 126.09 43.0193 126.09 43.0571C126.09 43.0895 125.917 43.6612 125.712 44.3355C125.496 45.026 125.335 45.6248 125.345 45.7219C125.362 45.8621 125.383 45.8837 125.54 45.8999C125.771 45.9214 126.154 45.6841 126.543 45.2579C127.039 44.7239 127.033 44.4758 126.537 44.9505C126.192 45.2795 125.993 45.4036 125.928 45.3335C125.885 45.2903 126.532 43.1272 126.613 43.0463C126.634 43.0247 126.839 42.9977 127.06 42.987C127.433 42.9708 127.465 42.96 127.481 42.8467C127.497 42.7334 127.481 42.728 127.093 42.728H126.683L126.715 42.577C126.734 42.5079 126.772 42.372 126.806 42.2498L126.807 42.2468L126.823 42.1886C126.877 42.0052 126.882 41.9405 126.829 41.9081C126.688 41.8164 126.624 41.8811 126.419 42.2911Z" fill="#AFAFB6"/>
<path d="M150.64 42.2911C150.419 42.7011 150.403 42.7226 150.181 42.755C149.836 42.8089 149.766 42.8359 149.766 42.9222C149.766 42.9762 149.836 42.9977 150.036 42.9977C150.225 42.9977 150.306 43.0193 150.306 43.0679C150.306 43.111 150.133 43.6936 149.928 44.3733C149.718 45.053 149.55 45.6679 149.561 45.7434C149.572 45.8567 149.61 45.8891 149.75 45.8999C150.036 45.9268 150.483 45.6248 150.904 45.1177C151.088 44.8911 151.179 44.67 151.082 44.67C151.066 44.67 150.877 44.8264 150.672 45.0206C150.284 45.3766 150.144 45.4467 150.144 45.2741C150.144 45.2256 150.295 44.6969 150.483 44.1036L150.818 43.0247L151.266 43.0085C151.697 42.9923 151.708 42.987 151.708 42.8629C151.708 42.7334 151.697 42.728 151.309 42.728H150.91L151.007 42.3396C151.115 41.9297 151.109 41.8649 150.964 41.8649C150.904 41.8649 150.791 42.016 150.64 42.2911Z" fill="#AFAFB6"/>
<path fill-rule="evenodd" clip-rule="evenodd" d="M29.415 42.5932C29.3233 42.8197 29.3179 42.8305 29.21 42.755C28.8001 42.4691 27.9749 42.9762 27.3709 43.8824C27.085 44.3139 26.81 44.9181 26.7345 45.2795C26.6752 45.5492 26.6806 45.614 26.7507 45.738C26.8208 45.8621 26.8639 45.8837 27.0797 45.8783C27.2792 45.8783 27.3817 45.8351 27.6783 45.6248C27.8725 45.4845 28.1637 45.2256 28.3201 45.0476C28.4711 44.8696 28.606 44.7347 28.6167 44.7455C28.6275 44.7509 28.5736 44.9397 28.4981 45.1609C28.4226 45.382 28.3687 45.6301 28.374 45.7219C28.3902 45.8675 28.4118 45.8837 28.606 45.8999C28.7731 45.9107 28.881 45.8783 29.0806 45.7488C29.361 45.56 29.7655 45.1285 29.7655 45.0152C29.7655 44.9019 29.7332 44.9181 29.3826 45.2094C29.0644 45.4791 28.8487 45.5546 28.8487 45.3982C28.8487 45.355 29.0698 44.6915 29.3394 43.9202C29.6091 43.1434 29.8194 42.4799 29.7979 42.4313C29.7817 42.3882 29.7116 42.3504 29.6361 42.3504C29.5282 42.3504 29.4851 42.399 29.415 42.5932ZM28.9889 43.0787C29.0356 43.1254 29.0673 43.1571 29.0826 43.1954C29.1151 43.2765 29.0739 43.387 28.9457 43.7314C28.7408 44.2924 28.1421 45.0638 27.6621 45.3982C27.29 45.6571 27.2091 45.5007 27.3709 44.8642C27.5543 44.1413 28.072 43.3052 28.4981 43.0463C28.7138 42.9114 28.8271 42.9168 28.9889 43.0787Z" fill="#AFAFB6"/>
<path fill-rule="evenodd" clip-rule="evenodd" d="M79.5186 42.5986C79.4323 42.8251 79.4215 42.8359 79.3352 42.7604C79.1249 42.5716 78.6449 42.7011 78.1757 43.0679C77.6957 43.4455 77.0539 44.4974 76.8759 45.1932C76.8004 45.4899 76.8004 45.5492 76.8705 45.7165C76.946 45.8945 76.973 45.9107 77.1617 45.9107C77.4422 45.9107 77.906 45.6032 78.3806 45.1015C78.5748 44.8911 78.7366 44.7401 78.7366 44.7671C78.7366 44.794 78.6773 44.9936 78.6018 45.2148C78.5263 45.436 78.4723 45.6733 78.4777 45.7488C78.4993 45.9484 78.8229 45.9646 79.1303 45.7812C79.4 45.6248 79.8692 45.1447 79.8692 45.0206C79.8692 44.9019 79.8314 44.9181 79.5564 45.1609C79.2489 45.4306 79.0764 45.5169 79.0062 45.4467C78.9523 45.3928 79.1303 44.8264 79.7236 43.1542C79.977 42.4367 79.9824 42.3504 79.729 42.3504C79.6427 42.3504 79.5941 42.4098 79.5186 42.5986ZM79.0925 43.0733C79.2382 43.1973 79.2436 43.2081 79.1734 43.4347C79.044 43.8662 78.6773 44.4974 78.3429 44.8642C77.9977 45.2418 77.6364 45.5331 77.5177 45.5331C77.1941 45.5331 77.7011 43.9957 78.2296 43.3807C78.4507 43.1272 78.7096 42.9438 78.8552 42.9438C78.9038 42.9438 79.0116 43.0031 79.0925 43.0733Z" fill="#AFAFB6"/>
<path fill-rule="evenodd" clip-rule="evenodd" d="M99.1178 42.5986C99.0207 42.8359 99.01 42.8467 98.9129 42.7604C98.5246 42.4098 97.5106 43.111 96.9174 44.1521C96.3403 45.1662 96.2594 45.9107 96.7286 45.9107C97.063 45.9107 97.5106 45.6086 98.0553 45.026L98.3628 44.6969L98.201 45.204C98.0122 45.7974 98.0284 45.9107 98.2926 45.9107C98.6055 45.9107 99.0207 45.6517 99.3335 45.2579C99.5816 44.9505 99.4792 44.875 99.1718 45.1447C98.9183 45.3658 98.7403 45.4791 98.6324 45.4791C98.5246 45.4791 98.6055 45.1986 99.0909 43.8069C99.3497 43.0841 99.5439 42.4583 99.5331 42.4206C99.5169 42.3828 99.4414 42.3504 99.3659 42.3504C99.2526 42.3504 99.2095 42.3936 99.1178 42.5986ZM98.6971 43.0571C98.8428 43.2027 98.8158 43.4185 98.5677 43.9364C98.3412 44.411 97.9583 44.9181 97.6239 45.1986C97.1439 45.5978 97.0198 45.6086 97.0198 45.2687C97.0198 44.7185 97.4405 43.8177 97.9367 43.3052C98.325 42.906 98.4922 42.8521 98.6971 43.0571Z" fill="#AFAFB6"/>
<path fill-rule="evenodd" clip-rule="evenodd" d="M106.512 42.399C106.512 42.426 106.474 42.5338 106.426 42.6471C106.35 42.8359 106.339 42.8413 106.248 42.7604C106 42.5392 105.385 42.7658 104.91 43.2567C104.166 44.0227 103.583 45.3658 103.81 45.792C103.977 46.1102 104.614 45.8136 105.293 45.1069C105.498 44.8965 105.649 44.7617 105.633 44.8156C105.626 44.8484 105.598 44.9446 105.562 45.0659L105.562 45.0675C105.539 45.1455 105.512 45.2345 105.487 45.3227C105.417 45.5492 105.379 45.7758 105.396 45.8244C105.439 45.943 105.784 45.9376 106.005 45.8136C106.372 45.614 106.879 45.0692 106.787 44.9775C106.749 44.9397 106.658 44.9936 106.485 45.1501C106.205 45.409 105.994 45.5223 105.919 45.4468C105.865 45.3928 105.908 45.258 106.512 43.5426C106.819 42.6687 106.884 42.4367 106.825 42.399C106.733 42.3396 106.512 42.3396 106.512 42.399ZM106.01 43.0625C106.081 43.1272 106.134 43.2297 106.134 43.289C106.129 43.4563 105.854 44.0712 105.633 44.4057C105.412 44.7401 104.808 45.3551 104.592 45.4683C104.376 45.5816 104.301 45.4575 104.36 45.1123C104.511 44.3032 104.98 43.4401 105.455 43.0949C105.708 42.9114 105.843 42.9061 106.01 43.0625Z" fill="#AFAFB6"/>
<path d="M10.1879 42.7172C9.93977 42.8737 9.5946 43.2297 9.5946 43.3214C9.5946 43.4131 9.68089 43.3807 9.97213 43.1865C10.2634 42.987 10.4036 42.9492 10.4036 43.0679C10.4036 43.1056 10.2094 43.7152 9.97213 44.4272C9.73483 45.1393 9.54067 45.765 9.54067 45.8136C9.54067 45.8837 9.58382 45.9107 9.69168 45.9107C9.82652 45.9107 9.86966 45.8567 10.2094 45.1662C10.409 44.7617 10.7056 44.233 10.862 43.9957C11.1964 43.4886 11.8652 42.8197 12.0054 42.8467C12.205 42.8845 12.1456 43.1704 11.671 44.4434C11.4121 45.1339 11.2126 45.738 11.2234 45.792C11.2557 45.9538 11.6009 45.9376 11.9191 45.765C12.2265 45.5978 12.6148 45.1932 12.6148 45.0422C12.6148 44.9828 12.5987 44.9397 12.5825 44.9397C12.5663 44.9397 12.4153 45.0584 12.2535 45.2094C11.9623 45.4737 11.8059 45.5438 11.8059 45.409C11.8059 45.3766 11.9407 45.0098 12.1025 44.5945C12.6202 43.2944 12.7011 42.9276 12.5286 42.6849C12.4045 42.5069 12.0593 42.5231 11.7465 42.7172C11.4445 42.9114 11.0292 43.37 10.6787 43.8932C10.5276 44.1198 10.4036 44.2816 10.4036 44.2546C10.4036 44.2276 10.5115 43.904 10.6463 43.5318C10.7811 43.165 10.8836 42.8036 10.8782 42.728C10.862 42.6148 10.8297 42.5932 10.6463 42.577C10.4845 42.5662 10.3712 42.5986 10.1879 42.7172Z" fill="#AFAFB6"/>
<path fill-rule="evenodd" clip-rule="evenodd" d="M16.6922 42.6849C16.0396 43.0247 15.4194 44.1359 15.4194 44.9667C15.4194 45.614 15.6513 45.9107 16.1637 45.9107C16.5628 45.9107 16.8648 45.7596 17.1722 45.409C17.965 44.5028 18.2077 43.1164 17.6576 42.6849C17.458 42.5231 16.9888 42.5231 16.6922 42.6849ZM17.3825 42.9007C17.5066 43.0787 17.4904 43.4563 17.3286 44.0011C17.0428 45.0098 16.5951 45.6949 16.2284 45.6949C15.7592 45.6949 15.8131 44.7994 16.3632 43.672C16.7407 42.8845 17.156 42.5716 17.3825 42.9007Z" fill="#AFAFB6"/>
<path d="M19.2701 42.6633C19.1083 42.7658 18.7632 43.2459 18.7632 43.3646C18.7632 43.4778 18.871 43.4347 19.0328 43.2459C19.2108 43.0409 19.3996 42.9654 19.4427 43.0787C19.4751 43.1596 19.3079 43.8123 18.9519 44.9397C18.8171 45.3712 18.7092 45.765 18.7092 45.8136C18.7092 45.8837 18.7524 45.9107 18.8764 45.9107C19.0113 45.9107 19.049 45.8783 19.1191 45.7057C19.5668 44.616 20.1115 43.548 20.4027 43.1865C20.5106 43.0517 20.543 43.0409 20.6131 43.0948C20.6616 43.138 20.7155 43.2405 20.7317 43.3268C20.7533 43.4131 20.8018 43.4832 20.845 43.4832C21.0283 43.4832 21.174 42.7874 21.0176 42.6309C20.9313 42.5446 20.6994 42.55 20.5591 42.6471C20.4135 42.7496 20.1061 43.2081 19.7825 43.8285C19.6369 44.0982 19.5182 44.287 19.5182 44.2492C19.5182 44.2061 19.5937 43.9364 19.6854 43.6451C19.7933 43.2836 19.8418 43.0301 19.831 42.8521C19.8149 42.5986 19.8095 42.5932 19.6261 42.577C19.5128 42.5716 19.3726 42.604 19.2701 42.6633Z" fill="#AFAFB6"/>
<path d="M22.0639 42.6795C21.8104 42.8036 21.5137 43.1272 21.5137 43.2782C21.5137 43.4131 21.5785 43.3969 21.7349 43.2351C21.9021 43.0517 22.2095 42.9168 22.285 42.9924C22.3227 43.0301 22.1987 43.4778 21.9021 44.3895C21.6594 45.1339 21.4598 45.7758 21.4598 45.8243C21.4598 45.8837 21.5084 45.9107 21.6108 45.9107C21.7457 45.9107 21.7834 45.8567 22.1232 45.1662C22.5762 44.233 22.943 43.672 23.4068 43.1973C23.6818 42.9168 23.8059 42.8305 23.8976 42.8467C23.9623 42.8575 24.027 42.906 24.0378 42.9546C24.0486 43.0085 23.849 43.6612 23.5956 44.4057C23.3421 45.1501 23.1317 45.7974 23.1317 45.8351C23.1317 45.8837 23.1911 45.9107 23.2827 45.9107C23.4284 45.9107 23.4661 45.8567 23.8113 45.1986C24.2697 44.314 24.7174 43.6289 25.1434 43.1812C25.4616 42.8359 25.6396 42.755 25.7043 42.9276C25.7529 43.0517 25.6612 43.3646 25.2028 44.5945C24.9762 45.1986 24.8037 45.7326 24.8144 45.7866C24.836 45.9214 25.1758 45.943 25.4077 45.8243C25.6935 45.6787 26.0117 45.3982 26.125 45.1932C26.276 44.9127 26.1843 44.8857 25.9201 45.1393C25.7151 45.3389 25.5102 45.4791 25.4293 45.4791C25.3538 45.4791 25.4185 45.2741 25.7529 44.4164C26.1789 43.343 26.2706 42.9168 26.1358 42.7065C26.0603 42.5932 26.001 42.5662 25.8284 42.5662C25.7151 42.5662 25.5587 42.5878 25.4778 42.6201C25.2297 42.7118 24.7983 43.1758 24.4207 43.7476C24.2158 44.055 24.0486 44.2978 24.0486 44.2816C24.0486 44.2654 24.1349 44.0173 24.2374 43.7314C24.4261 43.2027 24.4693 42.8575 24.3722 42.6687C24.2913 42.523 23.9192 42.5284 23.6711 42.6795C23.3043 42.9007 22.8998 43.3646 22.5169 44.0011C22.409 44.1737 22.3227 44.2924 22.3227 44.2654C22.3227 44.233 22.436 43.8824 22.5762 43.4832C22.7218 43.0625 22.8135 42.7118 22.792 42.6579C22.7434 42.5284 22.3551 42.5392 22.0639 42.6795Z" fill="#AFAFB6"/>
<path d="M33.6541 42.6849C33.3359 42.8521 32.8936 43.2513 32.8936 43.3807C32.8936 43.494 32.9745 43.521 33.0285 43.4239C33.077 43.3484 33.4923 43.0517 33.5516 43.0517C33.6379 43.0517 33.5894 43.2189 33.1094 44.4704C32.8343 45.1878 32.6348 45.7758 32.6563 45.8243C32.7103 45.97 33.0554 45.9322 33.3575 45.7434C33.7026 45.5277 34.1341 45.1069 34.1341 44.9828C34.1341 44.8426 34.0909 44.8588 33.8375 45.0961C33.708 45.2148 33.53 45.3497 33.4384 45.3928C33.2766 45.4791 33.2712 45.4791 33.2712 45.3712C33.2712 45.3119 33.4815 44.7185 33.735 44.055C33.9885 43.3861 34.188 42.7874 34.1772 42.7172C34.1557 42.5446 33.9507 42.5338 33.6541 42.6849Z" fill="#AFAFB6"/>
<path fill-rule="evenodd" clip-rule="evenodd" d="M36.1457 42.6795C35.4338 43.0301 34.7543 44.3517 34.8621 45.177C34.9322 45.7219 35.1264 45.9107 35.6172 45.9107C35.9839 45.9107 36.2698 45.765 36.5988 45.4198C37.4024 44.5621 37.6612 42.9654 37.041 42.6471C36.8253 42.5338 36.41 42.5446 36.1457 42.6795ZM36.766 42.8251C36.8684 42.8899 36.9439 43.2135 36.9062 43.4293C36.8522 43.7529 36.6095 44.5189 36.4531 44.8696C36.2428 45.3335 35.8976 45.6949 35.6711 45.6949C35.574 45.6949 35.4662 45.6571 35.4284 45.614C35.2181 45.3658 35.3799 44.5459 35.806 43.6666C36.1565 42.9438 36.4909 42.6525 36.766 42.8251Z" fill="#AFAFB6"/>
<path d="M38.7669 42.7172C38.632 42.8036 38.4433 42.9708 38.3516 43.0841C38.0604 43.4347 38.1359 43.4724 38.5565 43.1865C38.8478 42.987 38.988 42.9492 38.988 43.0679C38.988 43.1056 38.7938 43.7152 38.5565 44.4272C38.3192 45.1393 38.1251 45.765 38.1251 45.8136C38.1251 45.8837 38.1682 45.9107 38.2761 45.9107C38.4109 45.9107 38.4541 45.8567 38.7938 45.1662C38.9988 44.7617 39.2685 44.26 39.4033 44.055C39.7215 43.5641 40.4496 42.8197 40.5844 42.8467C40.7894 42.8845 40.73 43.1596 40.2554 44.4488C39.9965 45.1339 39.797 45.7434 39.8078 45.792C39.8401 45.9538 40.1907 45.9376 40.5035 45.765C40.8109 45.5978 41.1993 45.1932 41.1993 45.0422C41.1993 44.9828 41.1831 44.9397 41.1669 44.9397C41.1507 44.9397 40.9997 45.0584 40.8379 45.2094C40.5467 45.4737 40.3903 45.5438 40.3903 45.409C40.3903 45.3766 40.5251 45.0098 40.6869 44.5945C41.2046 43.2944 41.2855 42.9276 41.113 42.6849C40.9889 42.5069 40.6437 42.5231 40.3309 42.7172C40.0289 42.9114 39.6136 43.37 39.2631 43.8932C39.112 44.1198 38.988 44.287 38.988 44.2654C38.988 44.2438 39.1013 43.9148 39.2361 43.5318C39.3709 43.1488 39.4734 42.782 39.4626 42.7172C39.4356 42.5177 39.0797 42.5177 38.7669 42.7172Z" fill="#AFAFB6"/>
<path fill-rule="evenodd" clip-rule="evenodd" d="M48.8254 42.728C48.0757 43.1542 47.4555 44.2384 47.4555 45.1177C47.4555 45.4521 47.5957 45.819 47.7522 45.8783C47.9193 45.943 48.3292 45.9107 48.5234 45.819C48.7715 45.7003 49.1814 45.3119 49.1814 45.1932C49.1814 45.0638 49.1598 45.0745 48.8362 45.3173C48.6259 45.4737 48.5018 45.5331 48.3562 45.5331C48.0865 45.5331 47.9948 45.3874 47.9948 44.9559C47.9948 44.465 48.0434 44.3733 48.3832 44.2654C48.7661 44.1359 49.2731 43.8824 49.5158 43.6882C49.7854 43.4778 49.9149 43.1326 49.8286 42.8683C49.7962 42.7604 49.7207 42.6471 49.6668 42.6202C49.4726 42.5177 49.1113 42.5608 48.8254 42.728ZM49.4133 42.8953C49.505 43.0409 49.2623 43.4617 48.9333 43.7206C48.6744 43.9202 48.1567 44.1737 48.1567 44.0928C48.1567 43.9687 48.5611 43.343 48.8092 43.0895C49.1274 42.7604 49.2946 42.7065 49.4133 42.8953Z" fill="#AFAFB6"/>
<path d="M51.5328 42.6849C51.0744 42.9222 50.562 43.6073 50.3301 44.287C50.1575 44.794 50.1575 45.4467 50.3301 45.7003C50.4379 45.8621 50.4811 45.8837 50.7346 45.8999C50.9611 45.9107 51.069 45.8891 51.2901 45.7704C51.5813 45.6086 51.9319 45.2579 51.9319 45.1285C51.9319 45.0206 51.8564 45.026 51.7647 45.1393C51.6353 45.2957 51.2146 45.5331 51.069 45.5331C50.8263 45.5331 50.7238 45.3604 50.7292 44.9882C50.7561 44.1413 51.2685 43.0193 51.7162 42.8359C51.9265 42.7496 52.0398 42.8413 52.0883 43.1434C52.1153 43.3052 52.1476 43.3538 52.2447 43.3646C52.5683 43.4131 52.7139 42.8953 52.4389 42.6795C52.2447 42.5284 51.8186 42.5284 51.5328 42.6849Z" fill="#AFAFB6"/>
<path d="M57.363 42.6795C57.1257 42.8036 56.7319 43.1919 56.7319 43.2998C56.7319 43.4077 56.7535 43.3969 57.0609 43.1865C57.3306 43.0031 57.4385 42.9654 57.4978 43.0301C57.514 43.0463 57.3252 43.672 57.0771 44.4164C56.829 45.1608 56.6241 45.8028 56.6241 45.8405C56.6241 45.8837 56.6888 45.9107 56.7859 45.9107C56.9369 45.9107 56.9639 45.8729 57.3306 45.1447C57.8052 44.1953 58.1558 43.672 58.625 43.1973C58.9863 42.8359 59.1697 42.755 59.2344 42.9222C59.283 43.0463 59.2021 43.2998 58.749 44.5243C58.5279 45.1177 58.3499 45.6679 58.3499 45.7542C58.3499 45.8999 58.3661 45.9107 58.5495 45.9107C58.6574 45.9107 58.8515 45.8621 58.981 45.7974C59.3369 45.6248 59.9194 44.9397 59.709 44.9397C59.6821 44.9397 59.5472 45.0476 59.407 45.1824C59.1589 45.409 58.9648 45.5223 58.9108 45.4629C58.8947 45.4467 59.0565 44.9882 59.2722 44.4488C59.5634 43.6936 59.6659 43.37 59.6821 43.1002C59.7198 42.6687 59.6443 42.5662 59.2938 42.5662C59.105 42.5662 59.0025 42.6094 58.749 42.7982C58.4524 43.0193 57.9347 43.6289 57.6542 44.0874C57.5895 44.2007 57.5248 44.2924 57.5086 44.2924C57.4978 44.2924 57.6111 43.9471 57.7567 43.5264C57.9077 43.1056 58.0156 42.7172 57.994 42.6633C57.9562 42.5284 57.6326 42.5392 57.363 42.6795Z" fill="#AFAFB6"/>
<path fill-rule="evenodd" clip-rule="evenodd" d="M61.7099 42.6795C61.0412 43.0085 60.4317 44.1144 60.4317 44.9936C60.4317 45.6625 60.6313 45.9107 61.1706 45.9107C61.5751 45.9107 61.8124 45.7866 62.1684 45.3982C62.9881 44.5028 63.2308 42.9654 62.6052 42.6471C62.3841 42.5284 61.9742 42.5446 61.7099 42.6795ZM62.3302 42.8251C62.5567 42.9708 62.5135 43.5318 62.2061 44.3841C61.9958 44.972 61.8232 45.2849 61.5751 45.5277C61.4349 45.6679 61.3594 45.6949 61.2084 45.6841C60.847 45.6517 60.8039 45.2633 61.0789 44.3895C61.4241 43.2836 61.9742 42.5986 62.3302 42.8251Z" fill="#AFAFB6"/>
<path fill-rule="evenodd" clip-rule="evenodd" d="M66.8875 42.6795C66.3751 42.933 65.8358 43.7206 65.6578 44.4596C65.5176 45.0638 65.5769 45.4899 65.8466 45.7596C65.9814 45.8945 66.0408 45.9107 66.3428 45.9107C66.6286 45.9107 66.7311 45.8837 66.9307 45.7596C67.6048 45.3281 68.1118 44.3625 68.1118 43.5102C68.1118 43.0571 68.0417 42.8575 67.8098 42.6795C67.6156 42.5284 67.1949 42.5284 66.8875 42.6795ZM67.5455 42.8899C67.8313 43.2027 67.319 44.9289 66.7742 45.4899C66.5639 45.7165 66.2942 45.765 66.1702 45.614C66.0354 45.4521 66.0462 45.0476 66.1972 44.5351C66.5693 43.2729 67.1949 42.5015 67.5455 42.8899Z" fill="#AFAFB6"/>
<path fill-rule="evenodd" clip-rule="evenodd" d="M69.9078 42.6957C69.3145 42.9762 68.91 43.5911 68.8723 44.2816C68.8507 44.7239 68.9208 44.8804 69.1905 45.0206L69.3523 45.1015L69.1851 45.3982C69.0179 45.7003 69.0125 45.8405 69.1689 46.0185C69.2282 46.0887 69.1851 46.1264 68.8345 46.3098C68.403 46.531 68.0902 46.8385 68.0417 47.092C67.9123 47.7231 68.6134 48.1115 69.6165 47.9713C70.1613 47.8957 70.5442 47.7339 70.7545 47.4966C70.9649 47.2538 71.0026 47.0758 70.9109 46.8061C70.8354 46.5849 70.7545 46.5148 69.8431 45.8729C69.5087 45.6355 69.3954 45.436 69.4979 45.2687C69.5249 45.2202 69.6974 45.1069 69.8808 45.0206C70.3177 44.8102 70.6628 44.465 70.8732 44.0334C71.0188 43.7422 71.0458 43.6235 71.0458 43.3106V42.9384L71.3801 42.9708C71.587 42.9945 71.6638 43.0033 71.7017 42.9691C71.7241 42.9488 71.7329 42.9136 71.7469 42.8575C71.8116 42.6094 71.7037 42.5554 71.3046 42.6309C71.0458 42.6795 70.9217 42.6795 70.7869 42.6309C70.5172 42.5338 70.2152 42.5554 69.9078 42.6957ZM70.5819 42.8467C70.8031 43.0679 70.3177 44.2546 69.8215 44.7023C69.5842 44.9181 69.4386 44.9343 69.3199 44.7509C69.1851 44.5405 69.3361 44.0442 69.746 43.3915C70.0696 42.8683 70.3932 42.6579 70.5819 42.8467ZM69.87 46.4932C70.4795 46.887 70.6359 47.2323 70.3285 47.4858C69.8431 47.8957 68.8237 47.7879 68.581 47.3024C68.4947 47.1244 68.4947 47.0866 68.5595 46.9248C68.6835 46.6281 69.1473 46.2936 69.4386 46.2883C69.4979 46.2883 69.6974 46.38 69.87 46.4932Z" fill="#AFAFB6"/>
<path d="M72.5397 42.7226C72.3671 42.8845 72.1028 43.3807 72.1028 43.548C72.1028 43.7098 72.1945 43.699 72.27 43.5318C72.3455 43.3376 72.572 43.0517 72.6475 43.0517C72.6745 43.0517 72.7338 43.1326 72.7878 43.2243C72.928 43.4832 72.928 45.5546 72.7878 46.0617C72.6475 46.5849 72.4372 46.9841 72.1298 47.297C71.8224 47.6152 71.666 47.653 71.5311 47.448C71.3693 47.1945 71.0242 47.324 71.0242 47.6368C71.0242 47.9281 71.3046 48.0738 71.6552 47.9605C71.9302 47.8688 72.5828 47.1999 72.9819 46.5957C73.764 45.4144 74.5082 43.7044 74.573 42.96C74.5945 42.6363 74.5945 42.6255 74.4597 42.5932C74.2601 42.5392 74.217 42.5878 74.1792 42.8791C74.0983 43.494 73.9743 44.0766 73.8449 44.4542C73.7046 44.8588 73.3001 45.7219 73.2624 45.6895C73.2516 45.6787 73.2678 45.4468 73.3001 45.1824C73.3271 44.9127 73.3433 44.3301 73.3325 43.8878C73.3109 43.2135 73.2893 43.0355 73.1923 42.8197C73.0898 42.5878 73.0628 42.5662 72.8956 42.5662C72.7608 42.5662 72.6583 42.6148 72.5397 42.7226Z" fill="#AFAFB6"/>
<path d="M81.2121 42.7172C80.9694 42.8737 80.6242 43.2297 80.6242 43.3214C80.6242 43.4185 80.7321 43.3807 80.937 43.2189C81.1743 43.0301 81.4332 42.9492 81.4332 43.0625C81.4332 43.1002 81.2391 43.7152 81.0017 44.4272C80.7645 45.1393 80.5703 45.765 80.5703 45.8136C80.5703 45.8837 80.6134 45.9107 80.7213 45.9107C80.8561 45.9107 80.8993 45.8567 81.2391 45.1662C81.6651 44.3086 82.0696 43.6828 82.4472 43.289C82.7708 42.9492 82.9703 42.8143 83.0782 42.8575C83.213 42.906 83.1752 43.1758 82.9487 43.7637C82.3447 45.3874 82.2368 45.6949 82.253 45.7866C82.2854 45.9592 82.6521 45.9376 82.9811 45.7542C83.2723 45.5816 83.6445 45.177 83.6445 45.026C83.6445 44.8965 83.6067 44.9127 83.2831 45.2094C82.9973 45.4683 82.8355 45.5438 82.8355 45.4198C82.8355 45.382 82.9973 44.9397 83.1914 44.4326C83.6175 43.3376 83.7092 42.9168 83.5743 42.7065C83.4395 42.5069 83.1051 42.5123 82.7761 42.7172C82.4687 42.9168 82.0211 43.4023 81.6921 43.9094C81.5519 44.1251 81.4332 44.287 81.4332 44.26C81.4332 44.2384 81.5465 43.8878 81.6867 43.4832C81.8323 43.0571 81.924 42.7118 81.9024 42.6579C81.8485 42.5069 81.4979 42.5392 81.2121 42.7172Z" fill="#AFAFB6"/>
<path d="M100.903 42.6633C100.671 42.7766 100.256 43.1812 100.256 43.2944C100.256 43.4077 100.277 43.4023 100.585 43.1866C100.854 43.0031 100.962 42.9654 101.022 43.0301C101.038 43.0463 100.849 43.672 100.601 44.4164C100.353 45.1609 100.148 45.8028 100.148 45.8405C100.148 45.8837 100.213 45.9107 100.304 45.9107C100.445 45.9107 100.477 45.8675 100.709 45.382C100.849 45.0961 101.113 44.6052 101.297 44.2978C101.831 43.3915 102.721 42.5554 102.742 42.9276C102.758 43.165 102.699 43.3646 102.273 44.5028C102.009 45.1986 101.831 45.7542 101.852 45.8136C101.895 45.9484 102.192 45.943 102.483 45.7974C102.747 45.6625 103.093 45.355 103.201 45.1447C103.33 44.8965 103.179 44.9127 102.909 45.177C102.667 45.4144 102.489 45.5223 102.429 45.4629C102.413 45.4468 102.559 45.026 102.753 44.5243C103.157 43.4778 103.222 43.2675 103.222 42.9654C103.222 42.6849 103.098 42.5662 102.807 42.5662C102.402 42.5662 101.917 42.9977 101.297 43.8986C101.14 44.1252 101.011 44.3032 101.011 44.287C101.011 44.2708 101.119 43.9525 101.254 43.5749C101.388 43.1919 101.496 42.8143 101.496 42.728C101.496 42.577 101.48 42.5662 101.297 42.5662C101.183 42.5662 101.005 42.6094 100.903 42.6633Z" fill="#AFAFB6"/>
<path fill-rule="evenodd" clip-rule="evenodd" d="M108.578 42.6687C107.995 42.9384 107.542 43.6019 107.494 44.2438C107.467 44.6592 107.558 44.8911 107.806 45.0206C107.898 45.0692 107.968 45.1177 107.968 45.1339C107.968 45.1501 107.909 45.2526 107.833 45.3604C107.682 45.587 107.661 45.8297 107.779 46.0024C107.86 46.1156 107.85 46.121 107.558 46.2559C107.186 46.4285 106.857 46.682 106.755 46.887C106.652 47.0812 106.652 47.3833 106.755 47.5775C106.997 48.0576 108.206 48.1439 109.031 47.7393C109.408 47.5559 109.586 47.3293 109.586 47.0327C109.586 46.7414 109.387 46.5094 108.804 46.1102C108.508 45.9107 108.222 45.6949 108.173 45.6355C107.963 45.382 108.108 45.1447 108.567 44.9936C108.874 44.8911 109.311 44.4488 109.511 44.0442C109.64 43.7799 109.667 43.6559 109.667 43.3322V42.9384L109.996 42.9762C110.303 43.0085 110.336 42.9977 110.368 42.8953C110.384 42.8305 110.384 42.7334 110.368 42.6687C110.336 42.5716 110.309 42.5608 110.109 42.604C109.867 42.6471 109.629 42.6471 109.128 42.5932C108.869 42.5716 108.756 42.5824 108.578 42.6687ZM109.198 42.8467C109.451 43.1002 108.804 44.5459 108.319 44.8102C108.038 44.9613 107.941 44.8803 107.941 44.4974C107.941 44.26 107.99 44.109 108.168 43.7422C108.535 43.0031 108.971 42.6202 109.198 42.8467ZM108.491 46.4986C108.928 46.7791 109.101 46.9733 109.101 47.1891C109.101 47.7555 107.812 47.9551 107.316 47.4588C107.121 47.2646 107.105 46.9679 107.272 46.7522C107.407 46.5795 107.898 46.2883 108.055 46.2883C108.114 46.2883 108.313 46.38 108.491 46.4986Z" fill="#AFAFB6"/>
<path fill-rule="evenodd" clip-rule="evenodd" d="M111.787 42.7011C110.972 43.1272 110.233 44.5243 110.39 45.3443C110.444 45.6194 110.53 45.7866 110.665 45.8567C110.816 45.9376 111.242 45.9214 111.436 45.8243C111.646 45.7165 112.121 45.2687 112.121 45.1716C112.121 45.0584 111.986 45.0907 111.846 45.2418C111.673 45.4252 111.463 45.5331 111.269 45.5331C110.956 45.5331 110.821 45.1878 110.929 44.6592C110.988 44.3733 110.999 44.3571 111.22 44.2924C111.614 44.1791 112.197 43.8878 112.407 43.699C112.779 43.3753 112.876 42.987 112.655 42.7065C112.504 42.5177 112.148 42.5177 111.787 42.7011ZM112.331 42.8791C112.461 43.1272 111.948 43.7476 111.404 43.9957C111.253 44.0658 111.118 44.1198 111.107 44.109C111.069 44.0658 111.263 43.6774 111.485 43.3646C111.83 42.8737 112.213 42.6525 112.331 42.8791Z" fill="#AFAFB6"/>
<path d="M113.874 42.6579C113.593 42.8036 113.254 43.1812 113.254 43.3484C113.254 43.4239 113.41 43.3592 113.529 43.2351C113.663 43.0948 113.906 42.9438 114.009 42.9438C114.122 42.9438 114.052 43.2135 113.631 44.4812C113.394 45.1932 113.21 45.8082 113.227 45.8405C113.237 45.8783 113.313 45.9107 113.388 45.9107C113.507 45.9107 113.566 45.8243 113.906 45.1393C114.408 44.1359 114.688 43.7152 115.168 43.2243C115.589 42.7928 115.745 42.7388 115.778 43.0085C115.788 43.0948 115.605 43.7044 115.362 44.4218C115.12 45.1123 114.926 45.7326 114.926 45.7974C114.926 45.8837 114.958 45.9107 115.077 45.9107C115.211 45.9107 115.249 45.8513 115.567 45.2256C116.171 44.0281 117.061 42.8359 117.342 42.8359C117.595 42.8359 117.536 43.1218 116.943 44.6754C116.754 45.177 116.597 45.6625 116.597 45.7488C116.597 45.8999 116.614 45.9107 116.797 45.9107C116.905 45.9107 117.099 45.8621 117.228 45.7974C117.584 45.6248 118.167 44.9397 117.957 44.9397C117.93 44.9397 117.795 45.0476 117.655 45.1824C117.412 45.409 117.212 45.5223 117.158 45.4629C117.142 45.4467 117.304 44.9936 117.514 44.4488C118.086 42.9816 118.091 42.5662 117.547 42.5662C117.115 42.5662 116.738 42.906 116.107 43.8716C115.923 44.1467 115.794 44.3247 115.815 44.2654C116.241 43.1164 116.285 42.8953 116.134 42.6849C116.031 42.5338 115.756 42.5284 115.47 42.6687C115.195 42.8089 114.672 43.3807 114.359 43.8824C114.219 44.109 114.095 44.2924 114.084 44.2924C114.073 44.2924 114.176 43.9741 114.305 43.5911C114.44 43.2027 114.548 42.8143 114.548 42.728C114.548 42.5716 114.543 42.5662 114.295 42.5662C114.149 42.5716 113.966 42.6094 113.874 42.6579Z" fill="#AFAFB6"/>
<path fill-rule="evenodd" clip-rule="evenodd" d="M120.108 42.6741C119.78 42.8251 119.251 43.3861 119.014 43.8393C118.582 44.6592 118.528 45.4198 118.873 45.7866C119.014 45.9322 119.407 45.9538 119.699 45.8351C119.941 45.7326 120.373 45.3281 120.373 45.204C120.373 45.0638 120.357 45.0691 120.044 45.3173C119.526 45.7272 119.181 45.5654 119.192 44.9289C119.202 44.4326 119.229 44.3895 119.645 44.2384C120.508 43.9202 120.982 43.5588 121.052 43.1758C121.09 42.9654 120.993 42.6903 120.853 42.6201C120.696 42.5338 120.362 42.5608 120.108 42.6741ZM120.621 42.9114C120.664 43.0895 120.475 43.4293 120.2 43.6666C119.936 43.8932 119.44 44.1467 119.413 44.0712C119.37 43.9579 119.715 43.3915 120.001 43.0948C120.346 42.7442 120.562 42.6795 120.621 42.9114Z" fill="#AFAFB6"/>
<path d="M122.147 42.7172C121.904 42.8737 121.559 43.2297 121.559 43.3214C121.559 43.4185 121.667 43.3807 121.872 43.2189C122.115 43.0247 122.368 42.9492 122.368 43.0679C122.368 43.1164 122.174 43.7152 121.937 44.4057C121.7 45.0907 121.505 45.7111 121.505 45.7812C121.505 45.8891 121.532 45.9107 121.656 45.9107C121.791 45.9107 121.829 45.8513 122.142 45.2094C122.331 44.8264 122.584 44.3625 122.703 44.1737C123.21 43.3807 123.814 42.7766 124.019 42.8575C124.164 42.9114 124.083 43.2405 123.609 44.5081C123.371 45.1447 123.177 45.7165 123.188 45.7758C123.21 45.9214 123.539 45.9484 123.781 45.8243C124.067 45.6787 124.385 45.3982 124.499 45.1932C124.65 44.9127 124.558 44.8857 124.294 45.1393C124.089 45.3389 123.884 45.4791 123.803 45.4791C123.733 45.4791 123.787 45.2957 124.116 44.4488C124.542 43.3538 124.639 42.9438 124.52 42.7388C124.407 42.5284 124.062 42.5123 123.754 42.6903C123.452 42.8683 122.989 43.3646 122.665 43.85C122.525 44.0658 122.395 44.233 122.39 44.2222C122.379 44.2115 122.482 43.877 122.622 43.4778C122.767 43.0571 122.859 42.7172 122.837 42.6579C122.784 42.5069 122.433 42.5392 122.147 42.7172Z" fill="#AFAFB6"/>
<path fill-rule="evenodd" clip-rule="evenodd" d="M135.825 42.6687C134.773 43.1542 134.099 45.2418 134.811 45.8028C134.999 45.9538 135.469 45.9484 135.781 45.7974C136.423 45.4845 137.038 44.3571 137.038 43.4832C137.038 43.0625 136.963 42.8575 136.736 42.6795C136.553 42.5338 136.127 42.5284 135.825 42.6687ZM136.477 42.9168C136.736 43.3106 136.18 45.0692 135.652 45.5331C135.42 45.738 135.188 45.7488 135.064 45.56C134.811 45.1716 135.372 43.4617 135.916 42.9708C136.164 42.7442 136.353 42.728 136.477 42.9168Z" fill="#AFAFB6"/>
<path d="M138.435 42.7172C138.192 42.8737 137.847 43.2297 137.847 43.3214C137.847 43.4185 137.955 43.3807 138.16 43.2189C138.365 43.0571 138.656 42.9492 138.656 43.0355C138.656 43.0625 138.462 43.6612 138.225 44.3733C137.987 45.0853 137.793 45.7219 137.793 45.7866C137.793 45.8891 137.82 45.9107 137.944 45.9053C138.079 45.9053 138.117 45.8459 138.43 45.2094C138.613 44.8318 138.893 44.3247 139.044 44.0928C139.697 43.0895 140.382 42.5392 140.382 43.0247C140.382 43.1002 140.177 43.726 139.923 44.411C139.67 45.1015 139.465 45.7111 139.476 45.7758C139.497 45.9214 139.826 45.9484 140.069 45.8243C140.355 45.6787 140.673 45.3982 140.786 45.1932C140.932 44.9235 140.851 44.8857 140.608 45.1123C140.393 45.3173 140.166 45.4791 140.101 45.4791C140.015 45.4791 140.064 45.3173 140.409 44.4272C140.824 43.3538 140.91 42.9708 140.808 42.7496C140.743 42.6201 140.695 42.5878 140.506 42.577C140.36 42.5662 140.209 42.5986 140.074 42.6633C139.805 42.8036 139.276 43.3592 138.953 43.85C138.812 44.0658 138.683 44.233 138.672 44.2222C138.661 44.2115 138.769 43.877 138.91 43.4778C139.055 43.0571 139.147 42.7118 139.125 42.6579C139.071 42.5069 138.721 42.5392 138.435 42.7172Z" fill="#AFAFB6"/>
<path d="M142.512 42.6687C142.286 42.8089 142.016 43.1056 141.951 43.2836C141.833 43.5857 141.881 43.8608 142.145 44.4218C142.437 45.0422 142.458 45.2633 142.253 45.4683C142.086 45.6301 141.924 45.6032 141.655 45.3712C141.444 45.1824 141.374 45.1716 141.299 45.3119C141.212 45.4791 141.234 45.6841 141.353 45.8028C141.509 45.9592 141.962 45.9484 142.226 45.7866C142.62 45.5492 142.852 45.0799 142.782 44.6538C142.76 44.5351 142.636 44.2169 142.507 43.9525C142.226 43.3753 142.205 43.165 142.415 43.0031C142.588 42.8629 142.717 42.8953 142.949 43.1164C143.111 43.2675 143.122 43.2675 143.213 43.1812C143.278 43.1164 143.294 43.0409 143.273 42.9222C143.208 42.5878 142.841 42.4637 142.512 42.6687Z" fill="#AFAFB6"/>
<path d="M144.486 42.7874C144.098 43.0463 143.699 43.4778 143.774 43.5534C143.807 43.5857 143.947 43.5048 144.157 43.3268C144.341 43.1758 144.513 43.0517 144.54 43.0517C144.632 43.0517 144.589 43.2297 144.211 44.3301C143.742 45.7057 143.726 45.9107 144.087 45.9107C144.405 45.9107 144.961 45.4306 145.64 44.5675C145.786 44.3841 145.91 44.2438 145.921 44.2546C145.932 44.2654 145.829 44.5891 145.694 44.9667C145.559 45.3497 145.452 45.7111 145.462 45.7704C145.489 45.943 145.781 45.9484 146.061 45.7866C146.331 45.6248 146.908 45.0368 146.908 44.9181C146.908 44.7725 146.805 44.821 146.498 45.1285C146.174 45.4414 145.953 45.5277 146.018 45.3011C146.066 45.1501 146.708 43.2621 146.821 42.9492C146.919 42.6903 146.902 42.6471 146.692 42.5932C146.568 42.5608 146.541 42.5986 146.293 43.1164C145.921 43.8824 145.484 44.5189 144.977 45.0098C144.254 45.7057 144.238 45.6086 144.804 43.9903C145.16 42.9654 145.236 42.7065 145.182 42.6471C145.069 42.5069 144.831 42.5554 144.486 42.7874Z" fill="#AFAFB6"/>
<path d="M152.786 42.6957C152.457 42.8683 152.031 43.2513 152.031 43.3807C152.031 43.4347 152.042 43.4832 152.058 43.4832C152.075 43.4832 152.215 43.3861 152.366 43.2675C152.63 43.0517 152.776 43.0139 152.743 43.165C152.735 43.1983 152.605 43.5463 152.432 44.0084L152.429 44.0156L152.428 44.0167L152.269 44.4434C152.015 45.1015 151.816 45.7003 151.826 45.765C151.848 45.9322 152.123 45.9484 152.414 45.8028C152.743 45.6301 153.364 45.0098 153.283 44.9289C153.239 44.8857 153.164 44.9235 152.975 45.0961C152.716 45.3335 152.484 45.4629 152.425 45.4036C152.387 45.3658 152.42 45.2687 153.002 43.7314C153.213 43.1758 153.374 42.6849 153.358 42.6417C153.315 42.5284 153.061 42.5554 152.786 42.6957Z" fill="#AFAFB6"/>
<path d="M154.82 42.6795C154.572 42.8089 154.189 43.1812 154.189 43.2944C154.189 43.4077 154.21 43.4023 154.518 43.1865C154.787 43.0031 154.895 42.9654 154.955 43.0301C154.971 43.0463 154.782 43.672 154.534 44.4164C154.286 45.1608 154.081 45.8028 154.081 45.8405C154.081 45.8837 154.146 45.9107 154.243 45.9107C154.394 45.9107 154.421 45.8729 154.841 45.0422C155.305 44.1198 155.747 43.4832 156.19 43.0841C156.475 42.8251 156.637 42.7766 156.691 42.9222C156.74 43.0463 156.702 43.165 156.206 44.5189C155.958 45.1932 155.769 45.7812 155.785 45.8243C155.834 45.9484 156.157 45.9322 156.438 45.7974C156.794 45.6248 157.376 44.9397 157.166 44.9397C157.139 44.9397 157.004 45.0476 156.864 45.1824C156.616 45.409 156.422 45.5223 156.368 45.4629C156.351 45.4467 156.465 45.1123 156.621 44.7185C157.053 43.6019 157.155 43.2675 157.155 42.9924C157.155 42.6687 157.058 42.5662 156.767 42.5662C156.346 42.5662 155.785 43.0571 155.208 43.9364C155.079 44.1305 154.971 44.2816 154.965 44.2762C154.955 44.2708 155.068 43.9256 155.219 43.5102C155.364 43.1002 155.472 42.7172 155.451 42.6633C155.413 42.5284 155.089 42.5392 154.82 42.6795Z" fill="#AFAFB6"/>
<path fill-rule="evenodd" clip-rule="evenodd" d="M159.005 42.7011C158.066 43.1758 157.603 44.67 158.288 45.0206C158.379 45.0692 158.449 45.1123 158.449 45.1231C158.449 45.1339 158.39 45.2526 158.315 45.3766C158.164 45.6463 158.142 45.8675 158.261 45.9862C158.374 46.0995 158.369 46.1102 158.099 46.2289C157.484 46.4986 157.155 46.8547 157.155 47.243C157.155 47.8041 157.84 48.1061 158.773 47.9659C159.803 47.8094 160.326 47.2269 159.943 46.6605C159.879 46.558 159.566 46.3044 159.258 46.0887C158.617 45.6463 158.482 45.4683 158.627 45.2472C158.681 45.1663 158.827 45.0745 158.989 45.0206C159.345 44.9019 159.782 44.4812 159.986 44.0496C160.111 43.8069 160.148 43.6451 160.159 43.3484L160.17 42.9708H160.849V42.782C160.849 42.604 160.839 42.5932 160.688 42.6094C160.348 42.6363 159.922 42.6309 159.609 42.5932C159.323 42.5608 159.253 42.577 159.005 42.7011ZM159.717 42.9114C159.798 43.0301 159.792 43.0733 159.658 43.4832C159.463 44.0604 159.059 44.6916 158.8 44.8156C158.514 44.9505 158.422 44.8696 158.422 44.5028C158.422 43.931 159.145 42.782 159.496 42.782C159.582 42.782 159.668 42.8305 159.717 42.9114ZM158.789 46.3746C159.129 46.5526 159.463 46.8331 159.555 47.0219C159.641 47.2107 159.641 47.2215 159.544 47.3617C159.377 47.5829 159.124 47.7016 158.751 47.7285C158.347 47.7609 158.077 47.6854 157.824 47.4642C157.489 47.1729 157.624 46.7468 158.137 46.4555C158.466 46.2667 158.552 46.2559 158.789 46.3746Z" fill="#AFAFB6"/>
</svg>
