<svg width="137" height="36" viewBox="0 0 137 36" fill="none" xmlns="http://www.w3.org/2000/svg">
<g id="bcgx-logo" clip-path="url(#clip0_2979_8435)">
<path id="Vector" d="M88.7058 14.9886H74.7498L72.6307 18.3158L70.5117 21.643H81.2604C80.6179 23.8148 79.4002 25.6893 77.7318 27.0174C76.0682 28.3502 73.9587 29.1364 71.5424 29.1364C68.5077 29.1364 65.7845 27.8659 63.8189 25.8332C61.8532 23.8004 60.6451 21.0006 60.6451 17.9418C60.6451 14.8831 61.8676 12.1696 63.8476 10.1608C65.8325 8.152 68.5796 6.89111 71.6383 6.89111C72.9711 6.89111 74.2032 7.10206 75.3347 7.48559C76.4709 7.86913 77.5065 8.42047 78.4413 9.11084L80.3159 6.12882L82.1904 3.1468C80.7618 2.13522 79.1461 1.34896 77.3818 0.812004C75.6175 0.275048 73.7094 -0.0078125 71.6862 -0.0078125C68.9967 -0.0078125 66.5564 0.485995 64.3846 1.37772C62.2128 2.26945 60.3143 3.5639 58.713 5.16997C54.892 8.99099 53.8181 12.8504 53.0558 16.4029C52.2935 19.9554 51.8333 23.1963 49.2444 25.7852C48.1609 26.8687 46.9623 27.6981 45.6583 28.2495C44.3494 28.8056 42.9351 29.0885 41.4058 29.0885C38.2751 29.0885 35.4513 27.8084 33.409 25.7708C31.3666 23.7381 30.1105 20.9526 30.1105 17.9418C30.1105 14.9311 31.3666 12.2223 33.409 10.1943C35.4513 8.16638 38.2703 6.87193 41.4058 6.84796C42.7146 6.87193 43.9323 7.0685 45.0542 7.43286C46.1761 7.79722 47.1972 8.32459 48.1129 9.01496L50.0115 6.03294L51.91 3.05092C50.4813 2.03933 48.8656 1.27705 47.1013 0.764061C45.3371 0.251077 43.429 -0.0078125 41.4058 -0.0078125C38.2991 -0.0078125 35.4034 0.744884 32.872 2.05851C30.3455 3.37213 28.188 5.24668 26.558 7.49039C25.9156 5.51516 24.5972 3.82758 22.7897 2.63382C20.9823 1.43526 18.6906 0.735296 16.1017 0.735296H-0.0117188V35.2587H17.7893C20.033 35.2587 22.0322 34.7313 23.6958 33.8108C25.3594 32.8903 26.6922 31.5863 27.6031 30.0329C29.2572 31.8595 31.2755 33.3506 33.572 34.3861C35.8636 35.4217 38.4286 36.0018 41.1661 36.0018C44.3974 36.0018 47.3411 35.2491 49.8964 33.9067C52.4469 32.5643 54.6043 30.6274 56.2584 28.2591C57.8357 30.6035 59.9931 32.5355 62.5628 33.8875C65.1325 35.2395 68.1145 36.0018 71.3458 36.0018C76.3031 36.0018 80.7042 33.9786 83.8636 30.7185C87.0278 27.4584 88.9503 22.9566 88.9503 17.9994C88.9503 17.4816 88.9264 16.9782 88.8832 16.4748C88.8401 15.9762 88.7777 15.4824 88.7058 14.9886ZM7.48648 10.9183V7.1452H16.0202C17.1037 7.1452 18.0674 7.53833 18.7578 8.20473C19.4481 8.87113 19.8652 9.80601 19.8652 10.8943C19.8652 11.9826 19.4481 12.9271 18.7578 13.6078C18.0674 14.2886 17.1037 14.6913 16.0202 14.6913H7.48648V10.9183ZM20.594 27.7029C19.8556 28.4125 18.8297 28.844 17.6982 28.844H7.48648V21.0054H17.6934C18.8297 21.0054 19.8508 21.4225 20.5892 22.1224C21.3275 22.8176 21.7829 23.7956 21.7829 24.9031C21.7829 26.0106 21.3275 26.9982 20.5892 27.7077L20.594 27.7029Z" fill="#C7C7D1"/>
<path id="Vector_2" d="M102.355 0.489169H95.0625L105.202 16.4204C105.811 17.3793 105.811 18.597 105.202 19.5559L95.0625 35.4872H102.355C103.726 35.4872 105.006 34.7872 105.744 33.627L115.697 17.9882L105.744 2.34454C105.006 1.18433 103.73 0.484375 102.355 0.484375V0.489169Z" fill="#C7C7D1"/>
<path id="Vector_3" d="M126.185 16.4235L136.325 0.492188H129.033C127.662 0.492188 126.382 1.19215 125.648 2.35236L115.695 17.9912L125.648 33.63C126.386 34.7902 127.662 35.4902 129.033 35.4902H136.325L126.185 19.5589C125.576 18.6001 125.576 17.3823 126.185 16.4235Z" fill="#C7C7D1"/>
</g>
<defs>
<clipPath id="clip0_2979_8435">
<rect width="136.339" height="36" fill="white" transform="translate(-0.0117188)"/>
</clipPath>
</defs>
</svg>
