<svg width="161" height="36" viewBox="0 0 161 36" fill="none" xmlns="http://www.w3.org/2000/svg">
<g id="footer logo 1" clip-path="url(#clip0_2979_8501)">
<g id="Clip path group">
<mask id="mask0_2979_8501" style="mask-type:luminance" maskUnits="userSpaceOnUse" x="-1" y="0" width="162" height="36">
<g id="clip0_368_4">
<path id="Vector" d="M160.558 0.5H-0.0117188V35.47H160.558V0.5Z" fill="white"/>
</g>
</mask>
<g mask="url(#mask0_2979_8501)">
<g id="Group">
<path id="Vector_2" d="M75.1175 6.5V3.56H72.4375V32.19H75.1175V11.75C75.7775 6.35 80.9875 6.61 80.9875 6.61V3.5C78.7269 3.73873 76.6353 4.80772 75.1175 6.5Z" fill="#C7C7D1"/>
<path id="Vector_3" d="M17.8894 0.5H16.8594V35.47H17.8894V0.5Z" fill="#C7C7D1"/>
<path id="Vector_4" d="M29.0583 17.4297H-0.0117188V18.4597H29.0583V17.4297Z" fill="#C7C7D1"/>
<path id="Vector_5" d="M24.0392 22.8438C23.2627 23.8986 22.249 24.7559 21.0798 25.3466C19.9107 25.9372 18.6191 26.2445 17.3092 26.2437C15.8751 26.2457 14.4653 25.8734 13.2192 25.1637L12.6992 26.0637C14.8086 27.2514 17.295 27.5795 19.6403 26.9797C21.9856 26.3798 24.0091 24.8984 25.2892 22.8438H24.0392Z" fill="#C7C7D1"/>
<path id="Vector_6" d="M9.54019 20.9595C8.78563 19.0564 8.75561 16.9426 9.45583 15.0189C10.1561 13.0951 11.5378 11.4952 13.3392 10.5224C15.1405 9.54958 17.2362 9.27158 19.2289 9.74107C21.2215 10.2105 22.9726 11.3949 24.1502 13.0695H25.3802C24.1761 11.0433 22.2539 9.54395 19.9954 8.86935C17.7369 8.19476 15.3073 8.39423 13.1891 9.42815C11.0709 10.4621 9.41898 12.2548 8.56144 14.4504C7.70391 16.6459 7.70346 19.0837 8.56019 21.2795L9.54019 20.9595Z" fill="#C7C7D1"/>
<path id="Vector_7" d="M50.9102 5.59969C53.3394 5.59772 55.7146 6.31624 57.7353 7.66438C59.7561 9.01252 61.3316 10.9297 62.2626 13.1734C63.1935 15.4171 63.4381 17.8865 62.9655 20.2692C62.4928 22.652 61.324 24.841 59.607 26.5594C57.89 28.2778 55.7019 29.4483 53.3196 29.923C50.9372 30.3976 48.4676 30.155 46.2231 29.2258C43.9787 28.2967 42.0602 26.7227 40.7104 24.7031C39.3607 22.6834 38.6402 20.3088 38.6402 17.8797C38.6428 14.6253 39.9361 11.5049 42.2363 9.20288C44.5365 6.90079 47.6559 5.60499 50.9102 5.59969ZM50.9102 2.92969C47.9435 2.92969 45.0434 3.80943 42.5766 5.45765C40.1099 7.10587 38.1873 9.44855 37.052 12.1894C35.9167 14.9303 35.6196 17.9463 36.1984 20.856C36.7772 23.7657 38.2058 26.4385 40.3036 28.5363C42.4014 30.634 45.0741 32.0627 47.9838 32.6414C50.8935 33.2202 53.9096 32.9232 56.6504 31.7878C59.3913 30.6525 61.734 28.7299 63.3822 26.2632C65.0305 23.7965 65.9102 20.8964 65.9102 17.9297C65.9102 15.9622 65.5219 14.014 64.7674 12.197C64.013 10.3799 62.9073 8.72962 61.5138 7.34073C60.1202 5.95184 58.4663 4.85167 56.6467 4.10331C54.8271 3.35495 52.8777 2.97311 50.9102 2.97969V2.92969Z" fill="#C7C7D1"/>
<path id="Vector_8" d="M145.609 5.59976C148.038 5.59976 150.412 6.31997 152.431 7.66932C154.451 9.01866 156.025 10.9366 156.954 13.1805C157.884 15.4243 158.127 17.8933 157.653 20.2754C157.179 22.6576 156.01 24.8456 154.292 26.563C152.575 28.2804 150.387 29.45 148.005 29.9239C145.623 30.3977 143.154 30.1544 140.91 29.225C138.666 28.2955 136.748 26.7217 135.399 24.7022C134.049 22.6828 133.329 20.3085 133.329 17.8798C133.332 14.6238 134.626 11.5018 136.929 9.19942C139.231 6.89705 142.353 5.60241 145.609 5.59976ZM145.609 2.92977C142.64 2.91987 139.735 3.79119 137.262 5.43338C134.789 7.07557 132.858 9.41478 131.715 12.1548C130.572 14.8948 130.268 17.9123 130.841 20.8253C131.414 23.7383 132.839 26.4158 134.935 28.5186C137.031 30.6214 139.703 32.055 142.614 32.6378C145.525 33.2206 148.544 32.9265 151.288 31.7927C154.031 30.6588 156.377 28.7363 158.028 26.2684C159.678 23.8006 160.559 20.8987 160.559 17.9298C160.566 15.9624 160.184 14.0129 159.435 12.1933C158.687 10.3737 157.587 8.71972 156.198 7.32618C154.809 5.93264 153.159 4.82696 151.342 4.07253C149.525 3.3181 147.576 2.92975 145.609 2.92977Z" fill="#C7C7D1"/>
<path id="Vector_9" d="M122.658 6.5V3.56H119.988V32.19H122.668V11.75C123.328 6.35 128.578 6.61 128.578 6.61V3.5C126.3 3.72673 124.188 4.79671 122.658 6.5Z" fill="#C7C7D1"/>
<path id="Vector_10" d="M17.3102 19.5266C18.2215 19.5266 18.9602 18.7878 18.9602 17.8766C18.9602 16.9653 18.2215 16.2266 17.3102 16.2266C16.3989 16.2266 15.6602 16.9653 15.6602 17.8766C15.6602 18.7878 16.3989 19.5266 17.3102 19.5266Z" fill="#C7C7D1"/>
<path id="Vector_11" d="M27.8284 24.1884C26.4517 26.4944 24.3564 28.2849 21.864 29.2853C19.3716 30.2858 16.6199 30.4409 14.0309 29.7268C11.4419 29.0127 9.15868 27.4689 7.53157 25.3322C5.90446 23.1956 5.02331 20.5841 5.02331 17.8984C5.02331 15.2128 5.90446 12.6013 7.53157 10.4646C9.15868 8.328 11.4419 6.7842 14.0309 6.07012C16.6199 5.35604 19.3716 5.51111 21.864 6.51155C24.3564 7.51198 26.4517 9.30252 27.8284 11.6084H30.8284C29.3948 8.50473 26.9439 5.98386 23.8818 4.46343C20.8196 2.943 17.33 2.51423 13.9909 3.24816C10.6517 3.98208 7.66352 5.83466 5.52118 8.49901C3.37884 11.1634 2.21094 14.4796 2.21094 17.8984C2.21094 21.3173 3.37884 24.6335 5.52118 27.2979C7.66352 29.9622 10.6517 31.8148 13.9909 32.5487C17.33 33.2827 20.8196 32.8539 23.8818 31.3335C26.9439 29.813 29.3948 27.2922 30.8284 24.1884H27.8284Z" fill="#C7C7D1"/>
<path id="Vector_12" d="M108.668 24.4383C107.302 26.5928 105.299 28.2681 102.937 29.2313C100.575 30.1945 97.9719 30.3976 95.4891 29.8124C93.0063 29.2271 90.7677 27.8827 89.0845 25.966C87.4014 24.0494 86.3574 21.6558 86.0978 19.1183H113.198C113.198 18.7083 113.258 18.2883 113.258 17.8783C113.263 14.2705 111.967 10.7821 109.608 8.05223C107.249 5.32243 103.986 3.53421 100.415 3.01535C96.8449 2.49649 93.2073 3.28177 90.1691 5.22723C87.1309 7.17268 84.8956 10.148 83.873 13.6078C82.8504 17.0675 83.109 20.7799 84.6014 24.0645C86.0938 27.349 88.72 29.9857 91.9986 31.4911C95.2772 32.9965 98.9886 33.2699 102.453 32.261C105.916 31.2522 108.901 29.0287 110.858 25.9983L108.668 24.4383ZM98.3078 5.59823C101.312 5.60413 104.21 6.71024 106.454 8.70753C108.699 10.7049 110.134 13.455 110.488 16.4383H86.1178C86.4745 13.4541 87.9115 10.7039 90.1573 8.70673C92.4031 6.70962 95.3025 5.60386 98.3078 5.59823Z" fill="#C7C7D1"/>
</g>
</g>
</g>
</g>
<defs>
<clipPath id="clip0_2979_8501">
<rect width="161" height="36" fill="white"/>
</clipPath>
</defs>
</svg>
