<svg width="168" height="36" viewBox="0 0 168 36" fill="none" xmlns="http://www.w3.org/2000/svg">
<g id="datacamp2 2">
<path id="Vector" fill-rule="evenodd" clip-rule="evenodd" d="M39.0684 8.2596V10.8516C37.6532 9.52241 35.88 8.63627 33.9674 8.30235C32.0548 7.96843 30.0862 8.20133 28.3043 8.97235C26.5225 9.74336 25.005 11.0188 23.9391 12.6416C22.8731 14.2643 22.3051 16.1634 22.3051 18.105C22.3051 20.0465 22.8731 21.9457 23.9391 23.5684C25.005 25.1911 26.5225 26.4666 28.3043 27.2376C30.0862 28.0086 32.0548 28.2415 33.9674 27.9076C35.88 27.5737 37.6532 26.6875 39.0684 25.3584V27.5494H42.2116V8.2596H39.0696H39.0684ZM32.2619 24.9065C30.4584 24.9065 28.7287 24.19 27.4534 22.9147C26.1781 21.6394 25.4616 19.9098 25.4616 18.1062C25.4616 16.3027 26.1781 14.573 27.4534 13.2977C28.7287 12.0224 30.4584 11.3059 32.2619 11.3059C34.0494 11.3301 35.7554 12.0571 37.0109 13.3297C38.2664 14.6022 38.9703 16.318 38.9703 18.1056C38.9703 19.8932 38.2664 21.609 37.0109 22.8815C35.7554 24.1541 34.0494 24.8823 32.2619 24.9065ZM72.2033 8.2596V10.8516C70.7881 9.52241 69.0149 8.63627 67.1023 8.30235C65.1897 7.96843 63.2211 8.20133 61.4392 8.97235C59.6574 9.74336 58.1399 11.0188 57.074 12.6416C56.008 14.2643 55.44 16.1634 55.44 18.105C55.44 20.0465 56.008 21.9457 57.074 23.5684C58.1399 25.1911 59.6574 26.4666 61.4392 27.2376C63.2211 28.0086 65.1897 28.2415 67.1023 27.9076C69.0149 27.5737 70.7881 26.6875 72.2033 25.3584V27.5494H75.3452V8.2596H72.2033ZM65.3943 24.9065C64.5013 24.9064 63.617 24.7304 62.792 24.3886C61.967 24.0468 61.2174 23.5458 60.586 22.9143C59.9546 22.2828 59.4537 21.5331 59.1121 20.708C58.7704 19.8829 58.5946 18.9986 58.5947 18.1056C58.5947 17.2126 58.7707 16.3283 59.1125 15.5033C59.4544 14.6783 59.9553 13.9287 60.5869 13.2973C61.2184 12.6659 61.9681 12.165 62.7932 11.8233C63.6182 11.4817 64.5025 11.3059 65.3956 11.3059C67.183 11.3301 68.8891 12.0571 70.1446 13.3297C71.4001 14.6022 72.104 16.318 72.104 18.1056C72.104 19.8932 71.4001 21.609 70.1446 22.8815C68.8891 24.1541 67.183 24.8811 65.3956 24.9053L65.3943 24.9065ZM50.1626 11.2712L50.1638 23.1375C50.1638 23.8402 50.7349 24.4112 51.4387 24.4112H55.0971V27.5506H51.4387C50.2688 27.549 49.1473 27.0835 48.32 26.2563C47.4927 25.429 47.0273 24.3075 47.0256 23.1375L47.0169 11.2712H43.6242V8.22608H47.0157V2.9378H50.1614V8.22608H55.7401V11.2724H50.1614L50.1626 11.2712ZM156.688 8.16898C154.064 8.16898 151.679 9.18691 149.901 10.8454V8.2596H146.758V35.4272H149.901V25.3956C151.087 26.5024 152.525 27.3025 154.091 27.7264C155.657 28.1502 157.302 28.1848 158.885 27.8272C160.467 27.4697 161.938 26.7307 163.169 25.6748C164.4 24.6189 165.355 23.2779 165.949 21.7688C166.544 20.2596 166.761 18.628 166.58 17.0159C166.4 15.4039 165.829 13.8603 164.916 12.5196C164.003 11.179 162.776 10.0818 161.342 9.32376C159.908 8.5657 158.31 8.16845 156.688 8.16898ZM156.688 24.9201C154.955 24.9201 153.287 24.2583 152.026 23.0701C150.765 21.8819 150.005 20.2569 149.901 18.527V17.7127C149.981 16.3878 150.447 15.1151 151.241 14.0518C152.036 12.9885 153.124 12.1809 154.372 11.7287C155.62 11.2766 156.973 11.1996 158.264 11.5073C159.555 11.8149 160.728 12.4938 161.638 13.4602C162.548 14.4265 163.155 15.6381 163.385 16.9454C163.614 18.2527 163.456 19.5987 162.93 20.8172C162.403 22.0357 161.532 23.0735 160.423 23.8026C159.313 24.5317 158.015 24.9202 156.688 24.9201ZM95.1427 23.9643C93.8958 25.6784 92.134 26.9496 90.1142 27.5926C88.0944 28.2356 85.922 28.2168 83.9136 27.5389C81.9052 26.8611 80.1657 25.5596 78.9486 23.8241C77.7315 22.0887 77.1004 20.0099 77.1473 17.8907C77.1941 15.7715 77.9164 13.7226 79.209 12.0426C80.5016 10.3626 82.2968 9.13926 84.3332 8.55081C86.3696 7.96235 88.5407 8.03954 90.5302 8.77114C92.5196 9.50274 94.2235 10.8505 95.3935 12.6181L92.3794 14.1847C91.5863 13.067 90.4653 12.2236 89.1715 11.7713C87.8778 11.319 86.4755 11.2803 85.1587 11.6605C83.842 12.0406 82.6761 12.8209 81.8225 13.8931C80.969 14.9654 80.47 16.2765 80.3947 17.645C80.3194 19.0134 80.6716 20.3714 81.4024 21.5308C82.1332 22.6902 83.2065 23.5936 84.4736 24.1159C85.7406 24.6382 87.1388 24.7535 88.4743 24.4459C89.8098 24.1382 91.0167 23.4229 91.9276 22.3989L95.1427 23.9643ZM140.418 8.98953C140.699 8.52773 141.2 8.24718 141.742 8.24718H142.346C143.63 8.24718 144.671 9.28746 144.671 10.571V27.5482H141.466V13.1668C138.672 17.7098 135.884 22.257 133.103 26.8083C132.821 27.2688 132.321 27.5494 131.781 27.5494H131.124C130.268 27.5494 129.575 26.8555 129.575 26.0002V13.1295C126.649 17.8774 123.739 22.6357 120.847 27.4042L120.76 27.5482H117.684V8.24842H120.891V8.28691L120.817 21.597L128.504 8.99077C128.642 8.76392 128.837 8.57651 129.069 8.44652C129.301 8.31653 129.562 8.24831 129.828 8.24842H130.436C131.719 8.24842 132.759 9.28498 132.761 10.5673C132.768 14.1139 132.78 20.5766 132.78 21.5163L140.418 8.98953ZM115.36 18.1037V8.2596H112.218V10.8504C110.803 9.52117 109.03 8.63503 107.117 8.30111C105.204 7.96719 103.236 8.20009 101.454 8.9711C99.672 9.74212 98.1545 11.0176 97.0886 12.6403C96.0226 14.2631 95.4546 16.1622 95.4546 18.1037C95.4546 20.0453 96.0226 21.9444 97.0886 23.5672C98.1545 25.1899 99.672 26.4654 101.454 27.2364C103.236 28.0074 105.204 28.2403 107.117 27.9064C109.03 27.5724 110.803 26.6863 112.218 25.3571V27.5482H115.36V18.1075V18.1037ZM105.409 24.904C104.508 24.9162 103.614 24.7493 102.779 24.413C101.943 24.0768 101.182 23.5779 100.541 22.9453C99.8999 22.3126 99.3908 21.5589 99.0433 20.7279C98.6957 19.8969 98.5168 19.0051 98.5168 18.1044C98.5168 17.2036 98.6957 16.3118 99.0433 15.4808C99.3908 14.6498 99.8999 13.8961 100.541 13.2635C101.182 12.6308 101.943 12.1319 102.779 11.7957C103.614 11.4594 104.508 11.2925 105.409 11.3047C107.196 11.3289 108.902 12.0559 110.158 13.3284C111.413 14.601 112.117 16.3167 112.117 18.1044C112.117 19.892 111.413 21.6077 110.158 22.8803C108.902 24.1528 107.196 24.8799 105.409 24.904ZM17.9078 0.28125V10.8516C16.4926 9.52241 14.7194 8.63627 12.8068 8.30235C10.8942 7.96843 8.92569 8.20133 7.14379 8.97235C5.3619 9.74336 3.84448 11.0188 2.7785 12.6416C1.71251 14.2643 1.14453 16.1634 1.14453 18.105C1.14453 20.0465 1.71251 21.9457 2.7785 23.5684C3.84448 25.1911 5.3619 26.4666 7.14379 27.2376C8.92569 28.0086 10.8942 28.2415 12.8068 27.9076C14.7194 27.5737 16.4926 26.6875 17.9078 25.3584V27.5494H21.0498V0.28125H17.9078ZM11.1001 24.9053C9.29673 24.9053 7.56721 24.1889 6.29202 22.9137C5.01684 21.6385 4.30045 19.909 4.30045 18.1056C4.30045 16.3022 5.01684 14.5727 6.29202 13.2975C7.56721 12.0223 9.29673 11.3059 11.1001 11.3059C12.9035 11.3059 14.633 12.0223 15.9082 13.2975C17.1834 14.5727 17.8998 16.3022 17.8998 18.1056C17.8998 19.909 17.1834 21.6385 15.9082 22.9137C14.633 24.1889 12.9035 24.9053 11.1001 24.9053Z" fill="#C7C7D1"/>
</g>
</svg>
