<svg width="51" height="51" viewBox="0 0 51 51" fill="none" xmlns="http://www.w3.org/2000/svg">
<path fill-rule="evenodd" clip-rule="evenodd" d="M12.1097 4.47703C16.0107 1.93047 20.6654 0.451172 25.6625 0.451172H50.8447V26.1419C50.8447 39.62 39.9768 50.5512 26.5643 50.5512H25.6625C11.898 50.5512 0.744751 39.3331 0.744751 25.5012C0.744751 21.0214 1.91493 16.8148 3.96523 13.175C2.90896 12.0995 2.25647 10.6239 2.25647 8.99655C2.25647 5.70323 4.92623 3.03346 8.21956 3.03346C9.70582 3.03346 11.0658 3.5778 12.1097 4.47703ZM12.213 5.68503C12.0224 5.74767 11.8044 5.70342 11.6525 5.55211C10.7724 4.67483 9.55971 4.13346 8.21956 4.13346C5.53375 4.13346 3.35647 6.31074 3.35647 8.99655C3.35647 10.4224 3.96941 11.7043 4.94789 12.5946C5.03208 12.6712 5.08703 12.768 5.11207 12.8709C5.19785 13.0333 5.20038 13.2349 5.10106 13.4053C3.03148 16.9546 1.84475 21.0876 1.84475 25.5012C1.84475 38.7312 12.5111 49.4512 25.6625 49.4512H26.5643C39.3637 49.4512 49.7448 39.0181 49.7448 26.1419V1.55117H25.6625C20.7528 1.55117 16.1915 3.04432 12.4012 5.60386C12.3423 5.64363 12.2784 5.67047 12.213 5.68503ZM12.7938 8.59404C12.7936 11.4324 10.4926 13.7332 7.65427 13.7331C6.86086 13.733 5.8202 13.6118 5.2337 13.0253C5.14449 12.9361 5.12055 12.7997 5.17483 12.6858C7.10118 8.64475 10.1003 6.4597 11.6346 5.7299C11.7624 5.66908 11.9133 5.71289 11.9895 5.83223C12.4987 6.6299 12.7938 7.57751 12.7938 8.59404ZM26.6525 22.9174V17.6596C26.4005 17.1834 25.1678 16.2261 22.2529 16.2064C18.6092 16.1818 12.2088 18.7669 12.2088 25.7342V25.9615C12.2088 32.9288 18.6092 35.5139 22.2529 35.4893C25.1678 35.4696 26.4005 34.5123 26.6525 34.0361V28.7783C26.6525 28.6714 26.4706 28.618 26.4017 28.6997C25.9345 29.2541 24.9132 30.0243 23.389 30.0243C21.2492 30.0243 19.0093 28.0706 19.0093 25.8479C19.0093 23.6251 21.2492 21.6714 23.389 21.6714C24.9132 21.6714 25.9345 22.4416 26.4017 22.996C26.4706 23.0778 26.6525 23.0243 26.6525 22.9174ZM4.74202 17.3406C4.74202 17.1197 4.9211 16.9406 5.14202 16.9406H11.008C11.2289 16.9406 11.408 17.1197 11.408 17.3406V34.5836C11.408 34.8045 11.2289 34.9836 11.008 34.9836H5.14202C4.9211 34.9836 4.74202 34.8045 4.74202 34.5836V17.3406ZM27.658 6.98164C27.658 6.84688 27.7244 6.72773 27.826 6.65547C27.8924 6.60859 27.9725 6.58125 28.0584 6.58125H33.9237C34.1444 6.58125 34.324 6.76094 34.324 6.98164V18.4035C35.8924 17.0305 37.8983 16.2063 40.0838 16.2063C45.1053 16.2063 49.1756 20.5539 49.1756 25.9152C49.1756 31.2785 45.1053 35.6262 40.0838 35.6262C37.8983 35.6262 35.8924 34.802 34.324 33.4289V34.5832C34.324 34.8039 34.1444 34.9836 33.9237 34.9836H28.0584C27.8377 34.9836 27.658 34.8039 27.658 34.5832V6.98164ZM34.324 25.3078V26.593C34.6307 28.4367 36.2323 29.843 38.1619 29.843C40.3123 29.843 42.0545 28.1008 42.0545 25.9504C42.0545 23.802 40.3123 22.0598 38.1619 22.0598C36.2323 22.0598 34.6307 23.4641 34.324 25.3078Z"/>
</svg>
