<svg width="134" height="40" viewBox="0 0 134 40" fill="none" xmlns="http://www.w3.org/2000/svg">
<g id="KDnuggets logo" clip-path="url(#clip0_2979_8568)">
<path id="Vector" d="M55.2021 -0.015625V12.931C55.0283 12.4965 54.8414 12.0746 54.6416 11.6653C53.5206 9.37611 51.8059 7.42964 49.6764 6.02883C48.4277 5.21456 46.9121 4.57583 45.1297 4.11264C43.3622 3.63642 40.9189 3.39874 37.8 3.39961H30.2539V36.5704H37.8952C40.583 36.5704 42.7882 36.3923 44.5106 36.036C46.3322 35.6449 48.0682 34.9277 49.6347 33.9191C51.6986 32.553 53.3389 30.652 54.5555 28.2161C54.7954 27.7417 55.0126 27.2559 55.2073 26.7588V39.9844H133.68V-0.015625H55.2021ZM50.6541 26.4342C49.9167 28.1128 48.7191 29.5482 47.1997 30.5742C45.9864 31.4179 44.6157 32.0088 43.1692 32.3118C41.6989 32.6221 39.9834 32.778 38.0229 32.7798H34.6598V7.18636H38.0229C40.013 7.18636 41.6763 7.34235 43.0128 7.65432C44.342 7.96395 45.613 8.48458 46.7774 9.19639C48.4306 10.1954 49.7433 11.6708 50.5433 13.4289C51.3897 15.2235 51.8129 17.3986 51.8129 19.9544C51.8129 22.538 51.4266 24.6979 50.6541 26.4342Z" fill="#C7C7D1"/>
<path id="Vector_2" d="M26.7941 3.39844H21.4249L7.83561 18.6588V3.39844H3.42578V36.5693H7.83561V23.315L9.77395 21.1316L21.8707 36.5693H27.5958L13.0706 18.213L26.7941 3.39844Z" fill="#C7C7D1"/>
<path id="e67a144b-368d-4794-bb05-7496379d99bf" d="M69.3153 25.6039V32.5256H67.5203V26.4538C67.5215 25.9973 67.4958 25.5412 67.4434 25.0877C67.4206 24.7342 67.3322 24.3881 67.1827 24.067C67.0477 23.8093 66.8334 23.6018 66.5713 23.4752C66.2372 23.3248 65.8725 23.2547 65.5064 23.2706C65.0227 23.2802 64.5483 23.4044 64.122 23.633C63.6251 23.8853 63.1603 24.1965 62.7377 24.5598V32.5256H60.9375V21.8615H62.7325V23.0451C63.2073 22.6074 63.7408 22.238 64.3175 21.9475C64.8315 21.6939 65.3973 21.5631 65.9704 21.5656C67.0184 21.5656 67.8397 21.9132 68.4341 22.6084C69.0285 23.3036 69.3222 24.3021 69.3153 25.6039ZM80.141 21.8615V32.5256H78.3461V31.342C77.8672 31.7723 77.3385 32.1438 76.7714 32.4487C76.2547 32.7015 75.6859 32.8292 75.1107 32.8215C74.6611 32.8243 74.2145 32.7475 73.7916 32.5947C73.3827 32.4415 73.0163 32.1931 72.7227 31.8699C72.398 31.5081 72.1536 31.0816 72.0057 30.6186C71.8273 30.0245 71.7437 29.4059 71.7581 28.7858V21.8641H73.553V27.9359C73.553 28.5029 73.5726 28.9787 73.6104 29.3489C73.6455 29.6882 73.7423 30.0181 73.8958 30.3227C74.0279 30.5802 74.2364 30.7906 74.4929 30.9249C74.837 31.0684 75.2089 31.1334 75.5813 31.1152C76.0723 31.1026 76.5535 30.9754 76.9865 30.7437C77.4798 30.4999 77.9395 30.1932 78.3539 29.8312V21.8615H80.141ZM89.1536 29.6331V23.7803C88.758 23.5823 88.3419 23.4285 87.9127 23.3214C87.5447 23.2268 87.1663 23.179 86.7864 23.1793C85.8766 23.1793 85.1605 23.5135 84.6382 24.1817C84.1159 24.85 83.8552 25.8059 83.8561 27.0495C83.8561 28.2348 84.0534 29.1356 84.4479 29.7517C84.8424 30.3678 85.4881 30.6763 86.3849 30.6772C86.8755 30.6712 87.3611 30.5776 87.8188 30.4009C88.3045 30.2235 88.7561 29.9638 89.1536 29.6331ZM83.027 34.2345H83.1235C83.2447 34.2854 83.422 34.3558 83.658 34.4444C83.9187 34.537 84.1885 34.6165 84.4596 34.6829C84.7907 34.7651 85.0957 34.8329 85.3721 34.8837C85.6734 34.936 85.9787 34.9618 86.2846 34.9606C86.7637 34.9749 87.2414 34.9006 87.6937 34.7416C88.0462 34.6214 88.3609 34.4105 88.6061 34.1303C88.8126 33.8602 88.9588 33.5491 89.035 33.2178C89.1232 32.833 89.167 32.4394 89.1654 32.0446V31.1087C88.7395 31.4909 88.2588 31.8073 87.7393 32.0472C87.1825 32.2608 86.5887 32.3613 85.9926 32.3431C84.7759 32.3431 83.8083 31.8912 83.0896 30.9875C82.3709 30.0837 82.0129 28.7858 82.0155 27.0938C82.0008 26.296 82.1266 25.5018 82.387 24.7475C82.6085 24.1071 82.9486 23.5141 83.3894 22.9994C83.7816 22.5473 84.2672 22.1857 84.8129 21.9397C85.3447 21.696 85.9225 21.5693 86.5075 21.5682C86.9931 21.5578 87.4772 21.6256 87.9413 21.7689C88.3688 21.9044 88.7788 22.0899 89.1627 22.3216L89.2683 21.8641H90.9629V31.3107C90.9629 33.1192 90.5684 34.4461 89.7793 35.2917C88.9902 36.1373 87.7793 36.5613 86.1464 36.5639C85.6095 36.5597 85.0736 36.5161 84.543 36.4336C84.03 36.3564 83.5226 36.2449 83.0244 36.0999L83.027 34.2345ZM99.9651 29.6331V23.7803C99.569 23.5823 99.1524 23.4285 98.7228 23.3214C98.3549 23.2268 97.9765 23.179 97.5966 23.1793C96.6867 23.1793 95.9706 23.5135 95.4484 24.1817C94.9261 24.85 94.6654 25.8059 94.6662 27.0495C94.6662 28.2348 94.8635 29.1356 95.258 29.7517C95.6526 30.3678 96.2982 30.6763 97.1951 30.6772C97.6857 30.6712 98.1712 30.5776 98.6289 30.4009C99.114 30.223 99.5651 29.9633 99.9625 29.6331H99.9651ZM93.8385 34.2345H93.935C94.0562 34.2854 94.2335 34.3558 94.4694 34.4444C94.7301 34.537 94.9999 34.6165 95.2711 34.6829C95.6022 34.7651 95.9072 34.8329 96.1835 34.8837C96.4849 34.936 96.7902 34.9618 97.096 34.9606C97.5738 34.9735 98.05 34.8993 98.5012 34.7416C98.8537 34.6214 99.1684 34.4105 99.4137 34.1303C99.6201 33.8602 99.7664 33.5491 99.8425 33.2178C99.9315 32.8331 99.9752 32.4394 99.9729 32.0446V31.1087C99.5484 31.4914 99.0685 31.8078 98.5494 32.0472C97.9926 32.2608 97.3988 32.3613 96.8027 32.3431C95.5861 32.3431 94.6184 31.8912 93.8998 30.9875C93.1811 30.0837 92.8222 28.7858 92.823 27.0938C92.8083 26.296 92.9341 25.5018 93.1945 24.7475C93.416 24.1071 93.7561 23.5141 94.197 22.9994C94.5867 22.5467 95.0696 22.1834 95.6126 21.9345C96.1444 21.6908 96.7222 21.5641 97.3072 21.563C97.7928 21.5526 98.277 21.6204 98.7411 21.7637C99.169 21.8992 99.5794 22.0847 99.9638 22.3164L100.068 21.8589H101.763V31.3107C101.763 33.1192 101.368 34.4461 100.579 35.2917C99.79 36.1373 98.582 36.5613 96.9552 36.5639C96.4183 36.5597 95.8824 36.5161 95.3519 36.4336C94.8388 36.3564 94.3315 36.2449 93.8333 36.0999L93.8385 34.2345ZM108.987 32.7733C107.287 32.7733 105.966 32.2953 105.024 31.3394C104.082 30.3835 103.614 29.0204 103.619 27.2502C103.619 25.5122 104.074 24.1309 104.984 23.1063C105.894 22.0818 107.084 21.5664 108.554 21.5604C109.152 21.549 109.748 21.6462 110.311 21.8471C110.82 22.0384 111.277 22.3464 111.645 22.7466C112.041 23.1782 112.34 23.6892 112.523 24.2456C112.744 24.9428 112.848 25.6718 112.83 26.4029V27.3806H105.442C105.442 28.6216 105.754 29.5701 106.377 30.2262C107 30.8823 107.863 31.2099 108.965 31.2091C109.353 31.21 109.741 31.1663 110.12 31.0787C110.473 30.9973 110.819 30.8821 111.151 30.7346C111.432 30.6103 111.706 30.4702 111.972 30.3148C112.164 30.1961 112.349 30.0655 112.526 29.9238H112.637V31.8791C112.427 31.9612 112.165 32.0668 111.855 32.1945C111.58 32.3058 111.3 32.4011 111.015 32.48C110.664 32.5751 110.346 32.6494 110.06 32.7003C109.705 32.7553 109.346 32.7797 108.987 32.7733ZM105.445 26.008H111.087C111.083 25.5852 111.025 25.1647 110.915 24.7566C110.827 24.4349 110.678 24.1334 110.475 23.8689C110.262 23.5986 109.983 23.388 109.665 23.2575C109.279 23.1063 108.866 23.0349 108.452 23.0477C108.034 23.0355 107.617 23.1105 107.23 23.268C106.888 23.4127 106.577 23.6235 106.317 23.8884C106.056 24.1583 105.849 24.4755 105.707 24.8231C105.559 25.2022 105.471 25.6019 105.446 26.008H105.445ZM117.876 32.7381C116.895 32.7381 116.131 32.4613 115.584 31.9077C115.036 31.3542 114.763 30.4739 114.763 29.2668V23.3501H113.549V21.8615H114.761V18.7969H116.556V21.8615H119.858V23.3501H116.555V28.4234C116.555 28.9644 116.564 29.3802 116.584 29.6735C116.601 29.9592 116.675 30.2385 116.803 30.4947C116.913 30.7187 117.097 30.8976 117.324 31.0005C117.638 31.121 117.973 31.1764 118.308 31.1634C118.596 31.1619 118.883 31.1179 119.158 31.0331C119.359 30.9712 119.557 30.898 119.75 30.8141H119.854V32.4252C119.517 32.5215 119.174 32.5986 118.827 32.656C118.511 32.7052 118.192 32.7318 117.873 32.7355L117.876 32.7381ZM124.071 32.7863C123.392 32.7917 122.716 32.695 122.066 32.4995C121.537 32.3426 121.022 32.138 120.529 31.8882V29.8716H120.625C120.777 29.9929 120.954 30.1258 121.159 30.2718C121.423 30.4475 121.7 30.601 121.989 30.7307C122.315 30.8778 122.65 31.0024 122.993 31.1035C123.365 31.2119 123.75 31.2663 124.138 31.2651C124.444 31.2621 124.75 31.2302 125.05 31.1699C125.305 31.124 125.549 31.0359 125.775 30.9092C125.988 30.7924 126.162 30.6148 126.275 30.399C126.387 30.1831 126.433 29.9388 126.406 29.697C126.406 29.2707 126.288 28.95 126.053 28.7324C125.817 28.5147 125.401 28.3335 124.821 28.1888C124.591 28.1314 124.291 28.0584 123.923 27.988C123.554 27.9176 123.212 27.829 122.902 27.7404C122.089 27.5057 121.498 27.1455 121.13 26.6597C120.691 26.0253 120.503 25.2505 120.601 24.4851C120.7 23.7197 121.079 23.0181 121.665 22.5158C122.39 21.9075 123.354 21.6034 124.559 21.6034C125.16 21.6049 125.759 21.6789 126.343 21.8237C126.868 21.9415 127.376 22.1273 127.853 22.3764V24.2965H127.758C127.295 23.9293 126.776 23.6389 126.221 23.4361C125.68 23.2295 125.105 23.123 124.526 23.122C124.002 23.105 123.483 23.2336 123.027 23.4935C122.832 23.6065 122.671 23.7711 122.563 23.9693C122.454 24.1674 122.403 24.3915 122.413 24.6171C122.413 25.0616 122.534 25.3992 122.775 25.6195C123.017 25.8398 123.405 26.0106 123.941 26.154C124.207 26.2235 124.503 26.2935 124.829 26.3638C125.16 26.4277 125.506 26.5033 125.871 26.5933C126.66 26.7888 127.252 27.1164 127.647 27.5761C128.041 28.0358 128.242 28.6598 128.249 29.448C128.249 29.8972 128.155 30.3414 127.971 30.7515C127.793 31.1583 127.522 31.518 127.18 31.8022C126.793 32.121 126.352 32.3666 125.877 32.5269C125.292 32.7116 124.681 32.7996 124.069 32.7876L124.071 32.7863Z" fill="#0B0B0E"/>
</g>
<defs>
<clipPath id="clip0_2979_8568">
<rect width="133.662" height="40" fill="white"/>
</clipPath>
</defs>
</svg>
