<svg width="197" height="40" viewBox="0 0 197 40" fill="none" xmlns="http://www.w3.org/2000/svg">
<g id="Group 1321322945">
<g id="Vector">
<path d="M52.8858 16.2116H50.0557V4.28479H52.8858V9.13637H52.9363L57.1983 4.28479H60.8033L55.6653 9.77651L61.1065 16.2116H57.3499L52.9194 10.7199H52.8858V16.2116Z" fill="#C7C7D1"/>
<path d="M69.3767 16.2116H66.5803V4.28479H69.8652L74.6494 12.0675H74.7L74.6326 4.28479H77.429V16.2116H74.1609L69.3599 8.412H69.3093L69.3767 16.2116Z" fill="#C7C7D1"/>
<path d="M90.3672 16.5317C86.6443 16.5317 83.8816 13.9711 83.8816 10.1977C83.8816 6.37366 86.6443 3.96472 90.3672 3.96472C94.1069 3.96472 96.8696 6.37366 96.8696 10.1977C96.8696 13.9711 94.1069 16.5317 90.3672 16.5317ZM90.3672 13.9037C92.3718 13.9037 93.7869 12.3539 93.7869 10.1977C93.7869 8.10878 92.3887 6.55897 90.3672 6.55897C88.3457 6.55897 86.9643 8.10878 86.9643 10.1977C86.9643 12.3539 88.3625 13.9037 90.3672 13.9037Z" fill="#C7C7D1"/>
<path d="M108.335 16.2116H105.471L102.085 4.28479H105.184L107.071 12.2191H107.122L109.244 4.28479H112.243L114.382 12.2191H114.433L116.353 4.28479H119.352L115.949 16.2116H113.102L110.744 8.14247H110.693L108.335 16.2116Z" fill="#C7C7D1"/>
<path d="M132.65 16.2116H125.136V4.28479H128.034V13.7016H132.65V16.2116Z" fill="#C7C7D1"/>
<path d="M146.874 16.2116H138.552V4.28479H146.57V6.72743H141.331V8.96791H146.284V11.2758H141.331V13.7521H146.874V16.2116Z" fill="#C7C7D1"/>
<path d="M157.78 16.2116H153.333V4.28479H157.645C161.031 4.28479 164.468 5.69984 164.468 10.2145C164.468 14.4091 161.065 16.2116 157.78 16.2116ZM156.146 6.74427V13.7184H157.51C159.566 13.7184 161.469 12.8761 161.469 10.2145C161.469 7.53602 159.566 6.74427 157.578 6.74427H156.146Z" fill="#C7C7D1"/>
<path d="M176.924 16.5148C173.117 16.5148 170.371 13.9879 170.371 10.2313C170.371 6.40736 173.201 3.96472 176.839 3.96472C178.709 3.96472 180.444 4.58801 181.438 5.54822L179.619 7.62025C179.063 6.98011 178.103 6.50843 176.941 6.50843C174.919 6.50843 173.437 8.09193 173.437 10.2313C173.437 12.4213 174.734 13.9879 177.075 13.9879C177.749 13.9879 178.372 13.8869 178.878 13.6679V11.4948H176.604V9.17006H181.523V15.4872C180.36 16.0937 178.76 16.5148 176.924 16.5148Z" fill="#C7C7D1"/>
<path d="M196.744 16.2116H188.422V4.28479H196.44V6.72743H191.201V8.96791H196.154V11.2758H191.201V13.7521H196.744V16.2116Z" fill="#C7C7D1"/>
<path d="M55.1599 37.8159H52.2793V28.3486H48.9102V25.8891H58.5291V28.3486H55.1599V37.8159Z" fill="#C7C7D1"/>
<path d="M69.8121 38.136C66.0891 38.136 63.3264 35.5754 63.3264 31.802C63.3264 27.978 66.0891 25.569 69.8121 25.569C73.5518 25.569 76.3145 27.978 76.3145 31.802C76.3145 35.5754 73.5518 38.136 69.8121 38.136ZM69.8121 35.508C71.8167 35.508 73.2317 33.9582 73.2317 31.802C73.2317 29.7131 71.8335 28.1633 69.8121 28.1633C67.7906 28.1633 66.4092 29.7131 66.4092 31.802C66.4092 33.9582 67.8074 35.508 69.8121 35.508Z" fill="#C7C7D1"/>
<path d="M87.729 38.136C84.5956 38.136 82.6415 36.1819 82.6415 33.3181V25.8891H85.5053V33.0822C85.5053 34.3625 86.1286 35.5417 87.7458 35.5417C89.3798 35.5417 89.9863 34.3625 89.9863 33.0822V25.8891H92.8669V33.3181C92.8669 36.1819 90.8454 38.136 87.729 38.136Z" fill="#C7C7D1"/>
<path d="M105.607 38.136C101.935 38.136 99.1888 35.5754 99.1888 31.8357C99.1888 28.0117 102.019 25.569 105.658 25.569C107.325 25.569 109.128 26.1755 110.122 27.321L108.168 29.2751C107.629 28.5339 106.668 28.1801 105.759 28.1801C103.754 28.1801 102.322 29.7299 102.322 31.8357C102.322 34.0088 103.72 35.4912 105.708 35.4912C106.837 35.4912 107.73 34.9858 108.235 34.2783L110.24 36.165C109.195 37.3779 107.612 38.136 105.607 38.136Z" fill="#C7C7D1"/>
<path d="M118.903 37.8159H116.023V25.8891H118.903V30.4038H123.553V25.8891H126.433V37.8159H123.553V32.8296H118.903V37.8159Z" fill="#C7C7D1"/>
</g>
<path id="Vector_2" d="M19.9596 0.725071C19.3165 1.03949 18.8734 1.65405 18.5019 2.76881C18.2303 3.55486 18.2017 3.91216 18.2446 5.11267C18.3161 6.57044 18.2446 7.05637 17.5586 9.91474C16.8298 12.9589 16.0152 14.9455 14.8433 16.5319C14.3574 17.2036 14.3288 17.2179 14.0573 16.9749C13.7286 16.6748 13.3999 15.6744 13.1427 14.1451C12.9855 13.1733 12.9855 12.9589 13.1855 12.4587C13.3856 11.9442 13.3856 11.8298 13.1855 11.3011C12.9997 10.7723 12.9997 10.6007 13.1855 9.84328C13.2999 9.37165 13.4142 8.28547 13.4571 7.44225C13.5285 5.52714 13.3284 4.79825 12.4567 3.95503C11.3991 2.91173 10.5131 2.94031 10.0415 4.0122C9.79852 4.56958 9.76994 4.85542 9.84139 5.89873C9.88427 6.57044 9.97001 7.39937 10.0129 7.74238C10.0701 8.12826 10.0415 8.42839 9.92714 8.55701C9.79852 8.71422 9.78423 8.82856 9.91285 8.95719C10.1272 9.21444 9.85569 13.6449 9.55557 14.9883C9.25546 16.2746 8.96963 16.8177 8.3694 17.2608C7.79775 17.6895 7.62626 17.6038 7.38331 16.7891C7.28327 16.489 7.11177 16.1603 6.99745 16.0602C6.72591 15.8316 6.72591 15.3314 6.99745 14.9741C7.26898 14.6168 7.26898 13.8879 6.99745 13.0018C6.36863 10.9438 4.65369 9.74324 2.65292 9.97191C1.80974 10.072 1.33813 10.3292 0.866521 10.9723C0.60928 11.3011 0.566406 11.5726 0.566406 12.6016C0.566406 13.7021 0.623571 13.945 1.02372 14.774C1.43817 15.5886 2.00982 17.7038 2.48143 20.062C2.69579 21.1767 3.31032 25.8216 3.52468 27.9225C3.71047 29.8519 3.68189 32.353 3.48181 32.8961C3.41035 33.0818 3.35319 33.5964 3.35319 34.0251C3.35319 36.3118 4.69656 38.2269 6.88312 39.0844C8.09787 39.5561 11.785 39.6561 11.785 39.2273C11.785 39.0416 10.0986 38.2698 8.96963 37.9125C8.39798 37.7267 7.92637 37.5266 7.92637 37.4694C7.92637 37.2979 8.39798 37.4266 11.1705 38.2984C14.1859 39.2559 15.4864 39.5275 16.3582 39.356C16.7155 39.2845 17.5158 39.2273 18.1446 39.2131C19.145 39.2131 21.7745 38.6986 22.2176 38.427C22.6749 38.1412 24.8757 34.8826 25.6046 33.4249C27.1909 30.2235 27.5625 29.566 28.863 27.851C30.3921 25.8073 30.678 25.3642 31.0067 24.3638C31.2067 23.7636 31.3354 23.5778 31.6641 23.4634C32.1642 23.2919 32.1785 23.0918 31.7069 22.6488C31.5211 22.463 31.3782 22.2486 31.4068 22.1629C31.4211 22.0914 31.7355 21.9342 32.0785 21.8199C32.5072 21.6769 32.9074 21.3911 33.2647 20.9766C33.5648 20.6336 33.9078 20.3478 34.0221 20.3478C34.1364 20.3478 34.2222 20.2763 34.2222 20.2049C34.2222 20.1191 34.165 20.062 34.0936 20.062C34.0221 20.062 33.9221 19.9619 33.8792 19.8333C33.7792 19.5617 34.165 19.0615 34.4651 19.0615C34.5795 19.0615 34.7652 18.8186 34.8939 18.5184C35.0082 18.2326 35.4512 17.4751 35.88 16.8463C37.0661 15.0741 37.3805 13.3734 36.6517 12.5159C35.637 11.3011 33.8935 11.7584 31.9785 13.7307C31.4068 14.3023 30.7065 15.1884 30.4207 15.6744C29.6061 17.0607 28.863 17.9468 27.7911 18.7614C27.4339 19.0329 26.7193 19.6618 26.2048 20.1763C25.6618 20.6908 25.1758 21.0481 25.0901 21.0052C24.8043 20.8337 24.9186 20.2906 25.3045 19.9905C25.576 19.7761 25.6903 19.5189 25.7475 19.0187C25.819 18.4613 25.9047 18.3041 26.2763 18.0897C26.6193 17.8753 26.8765 17.5037 27.3624 16.4032C27.7054 15.6315 28.1341 14.7597 28.3199 14.4881C28.4914 14.2166 28.9344 13.3162 29.306 12.4873C29.6633 11.6583 30.0063 10.9152 30.0777 10.8437C30.1349 10.758 30.435 10.0005 30.7208 9.14298C31.2782 7.51371 31.6783 5.44139 31.5211 5.05551C31.221 4.26945 29.9491 3.34048 29.1917 3.34048C28.6772 3.34048 27.7483 4.25516 27.5053 4.99834C27.4053 5.31276 27.2195 5.67006 27.1052 5.81298C26.9051 6.04165 26.6478 6.61332 26.4049 7.37079C26.362 7.51371 26.3906 7.62804 26.4763 7.62804C26.5621 7.62804 26.6764 7.49942 26.7193 7.34221C26.7622 7.18499 26.9051 7.05637 27.0337 7.05637C27.3052 7.05637 27.2624 7.25645 26.5621 9.41452C25.9047 11.4011 24.7757 13.7878 23.7324 15.3456C23.0179 16.4318 22.632 16.6176 23.1179 15.6601C24.0611 13.8164 25.6332 10.2006 25.5045 10.2006C25.4331 10.2006 24.9758 10.8866 24.4899 11.7155C23.9897 12.5587 23.5609 13.159 23.5324 13.0732C23.5038 12.9875 23.5752 12.7445 23.7039 12.5587C23.8325 12.3729 23.9325 12.0871 23.9325 11.9442C23.9325 11.8013 24.0611 11.544 24.2183 11.3725C24.3755 11.201 24.5042 10.9295 24.5042 10.758C24.5042 10.6007 24.6328 10.272 24.8043 10.0291C24.9758 9.80041 25.0758 9.58603 25.0329 9.54315C24.9186 9.42882 22.7606 12.6874 21.0886 15.5171C20.5884 16.3461 19.8881 17.3179 19.5451 17.6609L18.8877 18.2755L19.3593 17.6323C19.8309 16.9606 19.8452 16.8892 19.5594 15.3028C19.4737 14.7883 19.5022 14.7311 20.274 14.0022C21.0886 13.2162 21.1314 13.1161 21.0743 12.0156C21.06 11.6583 21.1171 11.4583 21.2744 11.4011C21.4887 11.3153 21.6316 10.8723 21.7174 9.9862C21.746 9.70036 21.846 9.35736 21.9603 9.22873C22.3748 8.69993 22.5606 8.24259 22.5749 7.6995C22.5891 7.38508 22.8321 6.27031 23.1179 5.22701C23.418 4.16941 23.6467 3.08323 23.6467 2.79739C23.6467 2.06851 22.9607 1.25387 21.9746 0.825115C21.0743 0.424942 20.6027 0.396358 19.9596 0.725071Z" fill="#C7C7D1"/>
</g>
</svg>
