<svg width="80" height="51" viewBox="0 0 80 51" fill="none" xmlns="http://www.w3.org/2000/svg">
<g clip-path="url(#clip0_1186_8621)">
<path d="M34.2845 44.6908V49.0883H35.1195L35.1376 45.454H35.9181C36.176 45.454 36.3362 45.6179 36.3356 45.9083V49.0883H37.1887V45.454H37.9874C38.2449 45.454 38.3872 45.6362 38.3867 45.9264V49.0883L39.2217 49.1065L39.2398 45.9264C39.2602 44.9904 38.7876 44.6918 38.1144 44.6908L34.2845 44.6908ZM68.1555 44.7453V45.6175H69.0087V44.7453H68.1555ZM23.811 44.8543L23.7929 47.9253C23.7923 48.2462 23.8089 48.3612 23.8655 48.525C23.9094 48.6443 23.9771 48.7519 24.0651 48.8339C24.228 48.9974 24.4574 49.0694 24.8094 49.0701H25.5536V48.3796H25.0816C24.9053 48.3796 24.7876 48.3358 24.7186 48.2342C24.6616 48.1522 24.6456 48.0579 24.646 47.7436V44.8543H23.811ZM62.111 44.927V45.9264H61.5665V46.6169H62.111V47.9435C62.111 48.2797 62.1276 48.4071 62.1836 48.5795C62.2888 48.8814 62.4978 49.1414 63.1094 49.1428H63.7265V48.4523H63.3998C63.2234 48.4523 63.0871 48.4134 63.0186 48.3069C62.9616 48.2213 62.9453 48.1098 62.946 47.7799V46.6169H63.7265V45.9264H62.946V44.927H62.111ZM41.4726 45.8356C40.498 45.8339 39.8592 46.4943 39.8571 47.471C39.8553 48.5408 40.4359 49.1406 41.4544 49.1428C42.46 49.1452 43.0859 48.5337 43.0881 47.5437C43.0904 46.4744 42.4977 45.8378 41.4726 45.8356ZM27.3869 45.8537C26.9651 45.8537 26.6885 45.9322 26.4611 46.09C26.0903 46.347 25.8628 46.8673 25.8621 47.4346C25.8611 48.0225 26.0539 48.4877 26.4248 48.7794C26.7012 49.0048 26.957 49.0687 27.4413 49.0701H28.7119V48.3978H27.3869C26.9276 48.3978 26.7852 48.2009 26.7153 47.7981L28.6393 47.8162V47.1257H26.7153C26.7871 46.724 26.9459 46.5435 27.405 46.5442H28.7119V45.8718L27.3869 45.8537ZM30.4182 45.8718C29.821 45.8705 29.3305 46.2015 29.3291 46.7986C29.328 47.5796 29.8648 47.7973 30.4 47.7981C30.4996 47.7981 30.9736 47.816 31.0717 47.8162C31.2935 47.8162 31.4714 47.8799 31.471 48.107C31.4705 48.3294 31.2861 48.3983 31.0717 48.3977C30.9661 48.3977 29.4199 48.3977 29.4199 48.3977V49.07C29.4199 49.07 30.9539 49.0878 31.1987 49.0882C31.8321 49.0895 32.2864 48.8006 32.2878 48.0706C32.2889 47.4202 31.804 47.1453 31.2169 47.1438C31.1215 47.1438 30.6617 47.1438 30.5816 47.1438C30.5019 47.1438 30.1455 47.1455 30.1459 46.8349C30.1466 46.524 30.5098 46.5622 30.5816 46.5623C30.6529 46.5623 32.0881 46.5623 32.0881 46.5623V45.8718L30.4182 45.8718ZM43.6689 45.89V47.8707C43.6679 48.6862 43.9751 49.0892 44.6673 49.1064C44.7233 49.1064 46.555 49.1064 46.555 49.1064V45.89H45.7201V48.4159H44.9214C44.6639 48.4159 44.5213 48.2518 44.522 47.9616V45.89H43.6689ZM48.1342 45.9081C47.6421 45.9805 47.2636 46.3124 47.2629 46.8349C47.2612 47.6158 47.8169 47.8336 48.3521 47.8343C48.4516 47.8343 48.9073 47.8343 49.0055 47.8343C49.2268 47.8343 49.4054 47.9163 49.4048 48.1433C49.4043 48.366 49.2198 48.4344 49.0055 48.434C48.8999 48.434 47.3537 48.434 47.3537 48.434V49.1064C47.3537 49.1064 48.9057 49.1243 49.1507 49.1245C49.7836 49.1258 50.2384 48.8367 50.2398 48.1069C50.2409 47.4566 49.7378 47.1816 49.1507 47.1801C49.0548 47.1801 48.5951 47.1801 48.5154 47.1801C48.4358 47.1801 48.079 47.1818 48.0798 46.8712C48.0803 46.56 48.4436 46.5803 48.5154 46.5805C48.5872 46.5805 50.022 46.5986 50.022 46.5986V45.9081H48.3521C48.2774 45.9081 48.2045 45.8979 48.1342 45.9081ZM52.3454 45.9081C51.7731 45.9081 51.551 45.9627 51.2926 46.1807C50.9342 46.4699 50.7306 46.9681 50.7299 47.5618C50.7276 48.5186 51.2947 49.1224 52.2002 49.1245H53.017L52.9989 50.342H53.852V45.9081H52.3454ZM54.6688 45.9081V47.8889C54.6671 48.7045 54.975 49.1072 55.6672 49.1245C55.7242 49.1245 57.5368 49.1245 57.5368 49.1245L57.5549 45.9263H56.7018V48.4522H55.9031C55.6447 48.4522 55.5032 48.2703 55.5038 47.9797V45.9081H54.6688ZM59.715 45.9263C59.2937 45.925 59.0156 45.9861 58.7893 46.1443C58.4171 46.4009 58.1728 46.9214 58.1721 47.489C58.1711 48.0768 58.3649 48.5423 58.7348 48.8338C59.0112 49.0594 59.267 49.1419 59.7513 49.1427H61.0219V48.4522H59.715C59.2561 48.4508 59.0951 48.2739 59.0252 47.8707H60.9493V47.1801H59.0252C59.0965 46.778 59.2557 46.6161 59.715 46.6168H61.0401V45.9263H59.715ZM64.5252 45.9263V46.6168H65.8503C66.3345 46.6168 66.4861 46.7479 66.4856 47.1438V47.1983H65.5598C65.0751 47.197 64.8343 47.2544 64.6704 47.38C64.444 47.5512 64.3078 47.8613 64.3074 48.1977C64.3063 48.6337 64.5424 48.9951 64.8882 49.0881C65.0577 49.1352 65.1792 49.1419 65.6506 49.1426L67.3205 49.1608V47.3436C67.3459 46.5378 67.0642 45.9601 66.1951 45.9444C66.1072 45.9444 65.9942 45.9444 65.8503 45.9444L64.5252 45.9263ZM68.1555 45.9444V49.1608H68.9905V45.9444H68.1555ZM70.969 45.9444C70.5602 45.9502 70.2997 46.0706 70.0978 46.3079C70.0103 46.4201 69.942 46.5373 69.8981 46.6895C69.8406 46.8806 69.8259 46.9937 69.8255 47.3436V49.1608H70.6605L70.6786 47.1619C70.6796 46.7662 70.8296 46.6335 71.3139 46.6349H71.8584V45.9444H71.3139C71.169 45.9444 71.0575 45.9444 70.969 45.9444ZM73.5647 45.9444C73.1435 45.9444 72.8654 46.0226 72.639 46.1807C72.2672 46.4374 72.0233 46.9577 72.0218 47.5254C72.0213 48.113 72.2145 48.5606 72.5845 48.8519C72.8609 49.0773 73.1167 49.1601 73.601 49.1608H74.8717V48.4885L73.5647 48.4703C73.106 48.469 72.9453 48.2919 72.875 47.8888L74.799 47.907V47.2165H72.875C72.9463 46.8146 73.1055 46.6342 73.5647 46.6349H74.8898V45.9444H73.5647ZM76.5779 45.9626C75.9806 45.9612 75.4895 46.2926 75.4888 46.8893C75.4878 47.6705 76.0245 47.8873 76.5598 47.8888C76.6589 47.8888 77.1333 47.9068 77.2314 47.9069C77.4531 47.9069 77.6311 47.9706 77.6307 48.1977C77.6296 48.4205 77.4462 48.4888 77.2314 48.4884C77.1259 48.4884 75.5796 48.4884 75.5796 48.4884V49.1608C75.5796 49.1608 77.1321 49.1782 77.3766 49.1789C78.0099 49.1802 78.4642 48.8913 78.4657 48.1613C78.4667 47.5107 77.9632 47.236 77.3766 47.2345C77.2812 47.2345 76.8214 47.2345 76.7413 47.2345C76.6612 47.2345 76.3049 47.2369 76.3056 46.9256C76.3062 46.6147 76.6692 46.6349 76.7413 46.6349C76.8126 46.6349 78.2479 46.653 78.2479 46.653V45.9625L76.5779 45.9626ZM41.4726 46.5077C41.9762 46.509 42.2364 46.8415 42.2349 47.489C42.2339 48.1422 41.9875 48.471 41.4907 48.4703C40.9814 48.4703 40.7028 48.1342 40.7102 47.5072C40.7186 46.8407 40.9642 46.507 41.4726 46.5077ZM52.3999 46.5986H53.017V48.4339H52.4362C51.8895 48.4326 51.6005 48.1077 51.6012 47.5072C51.6022 46.9134 51.8781 46.5971 52.3999 46.5986ZM65.4691 47.8888H66.4856V48.4703H65.6143C65.2814 48.4703 65.1605 48.3906 65.1605 48.1795C65.161 47.9948 65.2746 47.8884 65.4691 47.8888Z"/>
<path d="M59.5264 0.976586C62.2769 1.84941 62.6311 3.8278 59.3115 6.32735C61.4606 4.60933 56.9823 1.8239 48.4347 1.7225C51.2751 1.09769 56.9735 0.165254 59.5264 0.976586Z"/>
<path d="M60.2765 9.21522C53.1767 11.1975 41.997 10.1109 37.0803 7.79324C34.6254 6.63737 33.449 4.90307 34.8708 1.12109C34.244 5.52338 53.798 8.49351 60.2765 9.21522Z"/>
<path d="M16.3418 12.6674C16.4431 14.4262 16.6699 15.4837 16.9293 16.2213C23.9268 17.8286 35.794 19.5148 46.3981 19.1045C57.0013 18.6943 66.399 17.7537 78.3092 14.1093C54.2934 17.4143 26.5491 14.4249 16.6616 9.08398C16.451 9.81674 16.2514 11.105 16.3418 12.6674Z" />
<path d="M44.8138 23.0762C51.6653 23.0897 53.2982 27.147 53.2534 31.1197C53.249 34.0763 52.257 37.0115 51.8209 38.1597C51.698 38.4893 51.6192 38.6743 51.6192 38.6743C51.6192 38.6743 51.6223 38.6659 51.6282 38.6496C51.6315 38.6403 51.6357 38.6283 51.6408 38.6139C51.6267 38.6477 51.6191 38.6652 51.6191 38.6652L42.8337 38.647C42.8337 38.647 51.0937 24.9412 43.3601 24.9274C41.2435 24.9233 38.9067 25.9091 36.4616 27.5623L36.4046 27.6037C29.928 32.0067 22.7791 41.098 17.4677 49.0565L0.782349 49.024C0.782349 49.024 24.7968 23.037 44.8138 23.0762Z"/>
</g>
<defs>
<clipPath id="clip0_1186_8621">
<rect width="79" height="51" transform="translate(0.124023)"/>
</clipPath>
</defs>
</svg>
