<svg width="203" height="40" viewBox="0 0 203 40" fill="none" xmlns="http://www.w3.org/2000/svg">
<g id="lsdirect" clip-path="url(#clip0_2979_8518)">
<g id="LS-text">
<path id="Vector" d="M3.78141 8.62449V30.3522H14.8075C16.327 32.9208 18.1278 33.5968 18.1278 33.5968H-0.00390625V8.62449H3.78141ZM32.6904 9.50052C34.4371 10.7929 35.3942 12.7883 35.6538 15.5192H31.9009C31.5548 13.8969 30.9221 12.718 29.9488 12.0205C28.9754 11.3229 27.5748 10.9389 25.693 10.9389C24.3895 10.8622 23.0876 11.1151 21.9077 11.6744C21.3959 11.916 20.968 12.3051 20.6789 12.7917C20.3898 13.2783 20.2528 13.8402 20.2854 14.4052C20.2854 15.5246 20.8802 16.3952 22.1348 17.0603C23.5296 17.6981 24.977 18.2137 26.4609 18.6015C29.8082 19.6506 32.0037 20.4563 32.95 21.0512C35.1455 22.3436 36.227 24.1281 36.227 26.4371C36.2608 27.4654 36.0395 28.486 35.5828 29.4079C35.1261 30.3298 34.4483 31.1243 33.6097 31.7203C31.8685 32.9787 29.428 33.6076 26.2878 33.6076C23.2542 33.6076 20.8802 32.9803 19.1714 31.7906C17.1165 30.3198 16.0026 28.0053 15.7917 24.8581H19.577C19.8582 26.8211 20.5558 28.2541 21.6697 29.0922C22.681 29.8655 24.2167 30.2495 26.3095 30.2495C27.8679 30.31 29.4161 29.9732 30.8086 29.2707C31.3 29.0315 31.714 28.6585 32.0029 28.1946C32.2918 27.7306 32.4439 27.1946 32.4417 26.648C32.4417 25.2474 31.6414 24.1605 30.0732 23.3548C28.4549 22.7032 26.8011 22.1436 25.1198 21.6784C23.1691 21.1172 21.2578 20.4271 19.3986 19.6127C18.5072 19.1225 17.7687 18.3954 17.2648 17.5117C16.7609 16.6279 16.5112 15.6221 16.5433 14.6053C16.5178 13.5818 16.7586 12.5693 17.242 11.6669C17.7255 10.7644 18.435 10.003 19.3012 9.45726C21.0463 8.26759 23.2434 7.67276 25.8931 7.67276C28.7861 7.64572 31.0519 8.24055 32.6904 9.50052Z" fill="#C7C7D1"/>
</g>
<g id="Direct-text">
<path id="Vector_2" d="M136.837 9.91409C138.676 11.4234 139.863 13.5825 140.152 15.9436H136.453C136.153 14.4384 135.295 13.102 134.052 12.2015C132.719 11.3589 131.161 10.9438 129.585 11.0118C126.882 11.0118 124.881 11.9203 123.518 13.7751C122.231 15.4569 121.598 17.7659 121.598 20.6698C121.598 23.6764 122.231 25.9909 123.486 27.6348C124.809 29.3798 126.865 30.2537 129.656 30.2575C131.276 30.3202 132.871 29.8406 134.187 28.8948C135.541 27.7627 136.466 26.2019 136.81 24.4713H140.503C140.085 27.1486 138.695 29.578 136.599 31.2957C134.639 32.8514 132.195 33.6688 129.694 33.6048C125.616 33.6048 122.55 32.2745 120.501 29.6897C118.689 27.4455 117.797 24.4389 117.797 20.659C117.797 16.8791 118.705 13.9373 120.587 11.6175C122.68 8.95694 125.681 7.66453 129.656 7.66453C132.549 7.6429 134.955 8.37292 136.837 9.91409ZM115.942 8.62167V11.8662H101.882V19.1557H115.131V22.4002H101.882V30.3494H116.531V33.594H98.0537V8.62167H115.942ZM69.1718 8.62167V33.6048H65.3864V8.62167H69.1718ZM161.588 8.62167V11.8662H153.287V33.6048H149.502V11.877H141.19V8.63249L161.588 8.62167ZM93.7493 29.933L93.3329 26.5425C93.0517 24.0928 91.835 22.6219 89.6017 22.1299V22.065C90.9136 21.7443 92.0657 20.9608 92.8462 19.8587C93.5532 18.6098 93.9135 17.1946 93.8899 15.7597C93.8899 13.3804 93.122 11.5959 91.5917 10.3521C90.1262 9.19488 88.1038 8.6379 85.5892 8.6379H74.5739V11.8825H85.0539C86.7951 11.8825 88.0497 12.1961 88.8879 12.8612C89.726 13.5264 90.0721 14.4835 90.0721 15.9057C90.0721 17.3279 89.6557 18.8474 88.8554 19.5504C88.0551 20.2534 86.7627 20.6319 85.0701 20.6319H78.3755V20.5725H74.5902V33.6048H78.3755V23.8711H85.1025C86.5301 23.8711 87.6117 24.1523 88.3795 24.7796C89.2007 25.5699 89.6768 26.6523 89.7044 27.7916L90.018 30.3061C90.0725 31.4801 90.4465 32.6169 91.0996 33.594H95.2147C94.3306 32.5718 93.8147 31.2829 93.7493 29.933ZM59.2218 12.0176C57.129 9.74105 54.0954 8.62167 50.0829 8.62167H37.7969V11.8662H49.3962C52.5326 11.8662 54.8362 12.5963 56.3017 14.105C57.7671 15.6137 58.4269 17.8903 58.4269 21.1024C58.4269 24.3145 57.6968 26.5641 56.2638 28.0674C54.8308 29.5707 52.4785 30.3386 49.3259 30.3386H44.8159V19.226H41.0306V33.6048H50.0126C54.0251 33.6048 57.0425 32.4854 59.1515 30.2467C61.1361 28.0836 62.1473 25.0337 62.1473 21.1132C62.1473 17.1927 61.1739 14.1158 59.2218 12.0176Z" fill="#C7C7D1"/>
</g>
<g id="arrow-tip">
<path id="Vector_3" d="M200.794 21.9927C201.187 21.9938 201.572 21.8781 201.9 21.6603C202.228 21.4426 202.484 21.1325 202.635 20.7692C202.787 20.406 202.828 20.006 202.752 19.6198C202.676 19.2336 202.488 18.8785 202.21 18.5994C201.932 18.3203 201.578 18.1298 201.193 18.052C200.807 17.9742 200.407 18.0125 200.042 18.1621C199.678 18.3118 199.367 18.566 199.147 18.8926C198.928 19.2193 198.81 19.6037 198.809 19.9973V20.0027C198.809 20.5295 199.018 21.0349 199.39 21.4079C199.762 21.781 200.267 21.9913 200.794 21.9927ZM194.813 21.9927C195.206 21.9927 195.591 21.876 195.918 21.6573C196.246 21.4387 196.501 21.1279 196.651 20.7642C196.802 20.4006 196.841 20.0005 196.765 19.6145C196.688 19.2285 196.498 18.8739 196.22 18.5956C195.942 18.3173 195.587 18.1277 195.201 18.0509C194.815 17.9742 194.415 18.0136 194.051 18.1642C193.688 18.3148 193.377 18.5699 193.158 18.8971C192.94 19.2244 192.823 19.6091 192.823 20.0027C192.823 20.5305 193.032 21.0366 193.406 21.4098C193.779 21.783 194.285 21.9927 194.813 21.9927ZM194.813 15.9849C195.206 15.9849 195.591 15.8681 195.918 15.6495C196.246 15.4308 196.501 15.12 196.651 14.7564C196.802 14.3928 196.841 13.9927 196.765 13.6066C196.688 13.2206 196.498 12.866 196.22 12.5877C195.942 12.3094 195.587 12.1199 195.201 12.0431C194.815 11.9663 194.415 12.0057 194.051 12.1563C193.688 12.307 193.377 12.562 193.158 12.8893C192.94 13.2165 192.823 13.6013 192.823 13.9949V14.0003C192.823 14.5266 193.032 15.0314 193.404 15.4036C193.776 15.7758 194.281 15.9849 194.807 15.9849H194.813ZM188.832 9.99865C189.226 9.99865 189.61 9.88194 189.938 9.66327C190.265 9.44461 190.52 9.13382 190.671 8.77019C190.821 8.40657 190.861 8.00644 190.784 7.62042C190.707 7.2344 190.517 6.87982 190.239 6.60151C189.961 6.32321 189.606 6.13368 189.22 6.05689C188.834 5.98011 188.434 6.01952 188.07 6.17014C187.707 6.32075 187.396 6.57582 187.177 6.90307C186.959 7.23032 186.842 7.61507 186.842 8.00865C186.842 8.53643 187.052 9.0426 187.425 9.41579C187.798 9.78899 188.304 9.99865 188.832 9.99865ZM194.813 27.9951C195.206 27.9951 195.591 27.8784 195.918 27.6598C196.246 27.4411 196.501 27.1303 196.651 26.7667C196.802 26.4031 196.841 26.0029 196.765 25.6169C196.688 25.2309 196.498 24.8763 196.22 24.598C195.942 24.3197 195.587 24.1302 195.201 24.0534C194.815 23.9766 194.415 24.016 194.051 24.1666C193.688 24.3172 193.377 24.5723 193.158 24.8996C192.94 25.2268 192.823 25.6116 192.823 26.0051C192.823 26.5329 193.032 27.0391 193.406 27.4123C193.779 27.7855 194.285 27.9951 194.813 27.9951ZM188.832 15.9849C189.226 15.9849 189.61 15.8681 189.938 15.6495C190.265 15.4308 190.52 15.12 190.671 14.7564C190.821 14.3928 190.861 13.9927 190.784 13.6066C190.707 13.2206 190.517 12.866 190.239 12.5877C189.961 12.3094 189.606 12.1199 189.22 12.0431C188.834 11.9663 188.434 12.0057 188.07 12.1563C187.707 12.307 187.396 12.562 187.177 12.8893C186.959 13.2165 186.842 13.6013 186.842 13.9949V14.0003C186.842 14.5266 187.051 15.0314 187.423 15.4036C187.795 15.7758 188.3 15.9849 188.827 15.9849H188.832ZM188.832 27.9951C189.226 27.9951 189.61 27.8784 189.938 27.6598C190.265 27.4411 190.52 27.1303 190.671 26.7667C190.821 26.4031 190.861 26.0029 190.784 25.6169C190.707 25.2309 190.517 24.8763 190.239 24.598C189.961 24.3197 189.606 24.1302 189.22 24.0534C188.834 23.9766 188.434 24.016 188.07 24.1666C187.707 24.3172 187.396 24.5723 187.177 24.8996C186.959 25.2268 186.842 25.6116 186.842 26.0051C186.842 26.5329 187.052 27.0391 187.425 27.4123C187.798 27.7855 188.304 27.9951 188.832 27.9951ZM188.832 33.9976C189.226 33.9976 189.61 33.8809 189.938 33.6622C190.265 33.4435 190.52 33.1327 190.671 32.7691C190.821 32.4055 190.861 32.0054 190.784 31.6193C190.707 31.2333 190.517 30.8787 190.239 30.6004C189.961 30.3221 189.606 30.1326 189.22 30.0558C188.834 29.979 188.434 30.0184 188.07 30.1691C187.707 30.3197 187.396 30.5747 187.177 30.902C186.959 31.2292 186.842 31.614 186.842 32.0076V32.013C186.843 32.5398 187.054 33.0446 187.427 33.4166C187.8 33.7887 188.305 33.9976 188.832 33.9976ZM182.846 9.99865C183.239 9.99865 183.624 9.88194 183.951 9.66327C184.279 9.44461 184.534 9.13382 184.684 8.77019C184.835 8.40657 184.874 8.00644 184.798 7.62042C184.721 7.2344 184.531 6.87982 184.253 6.60151C183.975 6.32321 183.62 6.13368 183.234 6.05689C182.848 5.98011 182.448 6.01952 182.084 6.17014C181.721 6.32075 181.41 6.57582 181.191 6.90307C180.973 7.23032 180.856 7.61507 180.856 8.00865C180.856 8.53643 181.065 9.0426 181.439 9.41579C181.812 9.78899 182.318 9.99865 182.846 9.99865ZM182.846 33.9976C183.239 33.9976 183.624 33.8809 183.951 33.6622C184.279 33.4435 184.534 33.1327 184.684 32.7691C184.835 32.4055 184.874 32.0054 184.798 31.6193C184.721 31.2333 184.531 30.8787 184.253 30.6004C183.975 30.3221 183.62 30.1326 183.234 30.0558C182.848 29.979 182.448 30.0184 182.084 30.1691C181.721 30.3197 181.41 30.5747 181.191 30.902C180.973 31.2292 180.856 31.614 180.856 32.0076V32.013C180.857 32.5398 181.068 33.0446 181.441 33.4166C181.814 33.7887 182.319 33.9976 182.846 33.9976ZM182.846 3.97999C183.239 3.97999 183.624 3.86328 183.951 3.64462C184.279 3.42595 184.534 3.11516 184.684 2.75153C184.835 2.38791 184.874 1.98779 184.798 1.60177C184.721 1.21575 184.531 0.861163 184.253 0.582857C183.975 0.304551 183.62 0.115023 183.234 0.0382381C182.848 -0.0385463 182.448 0.000862233 182.084 0.15148C181.721 0.302098 181.41 0.557161 181.191 0.884414C180.973 1.21167 180.856 1.59641 180.856 1.99C180.856 2.51778 181.065 3.02394 181.439 3.39714C181.812 3.77033 182.318 3.97999 182.846 3.97999ZM182.846 40.0054C183.239 40.0054 183.624 39.8887 183.951 39.67C184.279 39.4514 184.534 39.1406 184.684 38.7769C184.835 38.4133 184.874 38.0132 184.798 37.6272C184.721 37.2412 184.531 36.8866 184.253 36.6083C183.975 36.33 183.62 36.1404 183.234 36.0637C182.848 35.9869 182.448 36.0263 182.084 36.1769C181.721 36.3275 181.41 36.5826 181.191 36.9098C180.973 37.2371 180.856 37.6218 180.856 38.0154C180.856 38.2767 180.907 38.5355 181.007 38.7769C181.107 39.0184 181.254 39.2378 181.439 39.4226C181.623 39.6073 181.843 39.7539 182.084 39.8539C182.326 39.9539 182.584 40.0054 182.846 40.0054ZM188.832 21.9927C189.226 21.9927 189.61 21.876 189.938 21.6573C190.265 21.4387 190.52 21.1279 190.671 20.7642C190.821 20.4006 190.861 20.0005 190.784 19.6145C190.707 19.2285 190.517 18.8739 190.239 18.5956C189.961 18.3173 189.606 18.1277 189.22 18.0509C188.834 17.9742 188.434 18.0136 188.07 18.1642C187.707 18.3148 187.396 18.5699 187.177 18.8971C186.959 19.2244 186.842 19.6091 186.842 20.0027C186.842 20.5305 187.052 21.0366 187.425 21.4098C187.798 21.783 188.304 21.9927 188.832 21.9927ZM182.846 21.9927C183.239 21.9927 183.624 21.876 183.951 21.6573C184.279 21.4387 184.534 21.1279 184.684 20.7642C184.835 20.4006 184.874 20.0005 184.798 19.6145C184.721 19.2285 184.531 18.8739 184.253 18.5956C183.975 18.3173 183.62 18.1277 183.234 18.0509C182.848 17.9742 182.448 18.0136 182.084 18.1642C181.721 18.3148 181.41 18.5699 181.191 18.8971C180.973 19.2244 180.856 19.6091 180.856 20.0027C180.856 20.5305 181.065 21.0366 181.439 21.4098C181.812 21.783 182.318 21.9927 182.846 21.9927ZM182.846 15.9849C183.239 15.9849 183.624 15.8681 183.951 15.6495C184.279 15.4308 184.534 15.12 184.684 14.7564C184.835 14.3928 184.874 13.9927 184.798 13.6066C184.721 13.2206 184.531 12.866 184.253 12.5877C183.975 12.3094 183.62 12.1199 183.234 12.0431C182.848 11.9663 182.448 12.0057 182.084 12.1563C181.721 12.307 181.41 12.562 181.191 12.8893C180.973 13.2165 180.856 13.6013 180.856 13.9949V14.0003C180.856 14.2609 180.907 14.519 181.007 14.7597C181.107 15.0005 181.253 15.2193 181.437 15.4036C181.621 15.5879 181.84 15.7341 182.081 15.8338C182.322 15.9335 182.58 15.9849 182.84 15.9849H182.846ZM182.846 27.9951C183.239 27.9951 183.624 27.8784 183.951 27.6598C184.279 27.4411 184.534 27.1303 184.684 26.7667C184.835 26.4031 184.874 26.0029 184.798 25.6169C184.721 25.2309 184.531 24.8763 184.253 24.598C183.975 24.3197 183.62 24.1302 183.234 24.0534C182.848 23.9766 182.448 24.016 182.084 24.1666C181.721 24.3172 181.41 24.5723 181.191 24.8996C180.973 25.2268 180.856 25.6116 180.856 26.0051C180.856 26.5329 181.065 27.0391 181.439 27.4123C181.812 27.7855 182.318 27.9951 182.846 27.9951ZM176.865 21.9927C177.259 21.9927 177.643 21.876 177.971 21.6573C178.298 21.4387 178.553 21.1279 178.704 20.7642C178.854 20.4006 178.894 20.0005 178.817 19.6145C178.74 19.2285 178.55 18.8739 178.272 18.5956C177.994 18.3173 177.639 18.1277 177.253 18.0509C176.867 17.9742 176.467 18.0136 176.103 18.1642C175.74 18.3148 175.429 18.5699 175.21 18.8971C174.992 19.2244 174.875 19.6091 174.875 20.0027C174.875 20.5305 175.085 21.0366 175.458 21.4098C175.831 21.783 176.337 21.9927 176.865 21.9927Z" fill="#C7C7D1"/>
</g>
<g id="arrow-fletching">
<path id="Vector_4" d="M176.86 3.97999C177.253 3.97999 177.638 3.86328 177.965 3.64462C178.293 3.42595 178.548 3.11516 178.698 2.75153C178.849 2.38791 178.888 1.98779 178.811 1.60177C178.735 1.21575 178.545 0.861163 178.267 0.582857C177.989 0.304551 177.634 0.115023 177.248 0.0382381C176.862 -0.0385463 176.462 0.000862233 176.098 0.15148C175.735 0.302098 175.424 0.557161 175.205 0.884414C174.986 1.21167 174.87 1.59641 174.87 1.99C174.87 2.51778 175.079 3.02394 175.453 3.39714C175.826 3.77033 176.332 3.97999 176.86 3.97999ZM176.86 40.0054C177.253 40.0054 177.638 39.8887 177.965 39.67C178.293 39.4514 178.548 39.1406 178.698 38.7769C178.849 38.4133 178.888 38.0132 178.811 37.6272C178.735 37.2412 178.545 36.8866 178.267 36.6083C177.989 36.33 177.634 36.1404 177.248 36.0637C176.862 35.9869 176.462 36.0263 176.098 36.1769C175.735 36.3275 175.424 36.5826 175.205 36.9098C174.986 37.2371 174.87 37.6218 174.87 38.0154C174.87 38.2767 174.921 38.5355 175.021 38.7769C175.121 39.0184 175.268 39.2378 175.453 39.4226C175.637 39.6073 175.857 39.7539 176.098 39.8539C176.34 39.9539 176.598 40.0054 176.86 40.0054ZM176.86 9.99865C177.253 9.99865 177.638 9.88194 177.965 9.66327C178.293 9.44461 178.548 9.13382 178.698 8.77019C178.849 8.40657 178.888 8.00644 178.811 7.62042C178.735 7.2344 178.545 6.87982 178.267 6.60151C177.989 6.32321 177.634 6.13368 177.248 6.05689C176.862 5.98011 176.462 6.01952 176.098 6.17014C175.735 6.32075 175.424 6.57582 175.205 6.90307C174.986 7.23032 174.87 7.61507 174.87 8.00865C174.87 8.53643 175.079 9.0426 175.453 9.41579C175.826 9.78899 176.332 9.99865 176.86 9.99865ZM176.86 15.9849C177.253 15.9849 177.638 15.8681 177.965 15.6495C178.293 15.4308 178.548 15.12 178.698 14.7564C178.849 14.3928 178.888 13.9927 178.811 13.6066C178.735 13.2206 178.545 12.866 178.267 12.5877C177.989 12.3094 177.634 12.1199 177.248 12.0431C176.862 11.9663 176.462 12.0057 176.098 12.1563C175.735 12.307 175.424 12.562 175.205 12.8893C174.986 13.2165 174.87 13.6013 174.87 13.9949V14.0003C174.87 14.5266 175.079 15.0314 175.451 15.4036C175.823 15.7758 176.328 15.9849 176.854 15.9849H176.86ZM176.86 27.9951C177.253 27.9951 177.638 27.8784 177.965 27.6598C178.293 27.4411 178.548 27.1303 178.698 26.7667C178.849 26.4031 178.888 26.0029 178.811 25.6169C178.735 25.2309 178.545 24.8763 178.267 24.598C177.989 24.3197 177.634 24.1302 177.248 24.0534C176.862 23.9766 176.462 24.016 176.098 24.1666C175.735 24.3172 175.424 24.5723 175.205 24.8996C174.986 25.2268 174.87 25.6116 174.87 26.0051C174.87 26.5329 175.079 27.0391 175.453 27.4123C175.826 27.7855 176.332 27.9951 176.86 27.9951ZM176.86 33.9976C177.253 33.9976 177.638 33.8809 177.965 33.6622C178.293 33.4435 178.548 33.1327 178.698 32.7691C178.849 32.4055 178.888 32.0054 178.811 31.6193C178.735 31.2333 178.545 30.8787 178.267 30.6004C177.989 30.3221 177.634 30.1326 177.248 30.0558C176.862 29.979 176.462 30.0184 176.098 30.1691C175.735 30.3197 175.424 30.5747 175.205 30.902C174.986 31.2292 174.87 31.614 174.87 32.0076V32.013C174.871 32.5398 175.081 33.0446 175.454 33.4166C175.827 33.7887 176.333 33.9976 176.86 33.9976ZM170.873 9.99865C171.267 9.99972 171.652 9.88405 171.98 9.66628C172.308 9.4485 172.564 9.1384 172.715 8.77519C172.867 8.41197 172.907 8.01196 172.832 7.62573C172.756 7.23951 172.567 6.88441 172.29 6.60535C172.012 6.32629 171.658 6.1358 171.272 6.05796C170.887 5.98013 170.486 6.01845 170.122 6.16808C169.758 6.31771 169.447 6.57192 169.227 6.89858C169.008 7.22524 168.89 7.60966 168.889 8.00325V8.00865C168.889 8.5355 169.098 9.04084 169.47 9.41388C169.842 9.78693 170.347 9.99722 170.873 9.99865ZM170.873 15.9849C171.267 15.9859 171.652 15.8703 171.98 15.6525C172.308 15.4347 172.564 15.1246 172.715 14.7614C172.867 14.3982 172.907 13.9982 172.832 13.6119C172.756 13.2257 172.567 12.8706 172.29 12.5916C172.012 12.3125 171.658 12.122 171.272 12.0442C170.887 11.9663 170.486 12.0047 170.122 12.1543C169.758 12.3039 169.447 12.5581 169.227 12.8848C169.008 13.2114 168.89 13.5959 168.889 13.9895V14.0003C168.889 14.2609 168.94 14.519 169.04 14.7597C169.14 15.0005 169.286 15.2193 169.47 15.4036C169.654 15.5879 169.873 15.7341 170.114 15.8338C170.355 15.9335 170.613 15.9849 170.873 15.9849ZM170.873 27.9951C171.267 27.9962 171.652 27.8805 171.98 27.6628C172.308 27.445 172.564 27.1349 172.715 26.7717C172.867 26.4085 172.907 26.0084 172.832 25.6222C172.756 25.236 172.567 24.8809 172.29 24.6018C172.012 24.3228 171.658 24.1323 171.272 24.0544C170.887 23.9766 170.486 24.0149 170.122 24.1646C169.758 24.3142 169.447 24.5684 169.227 24.8951C169.008 25.2217 168.89 25.6061 168.889 25.9997V26.0051C168.889 26.532 169.098 27.0373 169.47 27.4104C169.842 27.7834 170.347 27.9937 170.873 27.9951ZM170.873 33.9976C171.267 33.9986 171.652 33.883 171.98 33.6652C172.308 33.4474 172.564 33.1373 172.715 32.7741C172.867 32.4109 172.907 32.0109 172.832 31.6247C172.756 31.2384 172.567 30.8833 172.29 30.6043C172.012 30.3252 171.658 30.1347 171.272 30.0569C170.887 29.979 170.486 30.0174 170.122 30.167C169.758 30.3166 169.447 30.5708 169.227 30.8975C169.008 31.2242 168.89 31.6086 168.889 32.0022V32.013C168.89 32.5389 169.1 33.043 169.472 33.4149C169.843 33.7868 170.348 33.9963 170.873 33.9976ZM164.893 9.99865C165.286 9.99865 165.671 9.88194 165.998 9.66327C166.326 9.44461 166.581 9.13382 166.731 8.77019C166.882 8.40657 166.921 8.00644 166.844 7.62042C166.768 7.2344 166.578 6.87982 166.3 6.60151C166.021 6.32321 165.667 6.13368 165.281 6.05689C164.895 5.98011 164.495 6.01952 164.131 6.17014C163.768 6.32075 163.457 6.57582 163.238 6.90307C163.019 7.23032 162.903 7.61507 162.903 8.00865C162.903 8.26998 162.954 8.52875 163.054 8.77019C163.154 9.01163 163.301 9.231 163.486 9.41579C163.67 9.60058 163.89 9.74716 164.131 9.84717C164.373 9.94718 164.631 9.99865 164.893 9.99865ZM170.873 3.97999C171.267 3.98106 171.652 3.86539 171.98 3.64762C172.308 3.42985 172.564 3.11975 172.715 2.75653C172.867 2.39332 172.907 1.99331 172.832 1.60708C172.756 1.22085 172.567 0.865754 172.29 0.586693C172.012 0.307633 171.658 0.117141 171.272 0.039308C170.887 -0.0385254 170.486 -0.000204881 170.122 0.149424C169.758 0.299052 169.447 0.553268 169.227 0.879925C169.008 1.20658 168.89 1.59101 168.889 1.98459V1.99C168.889 2.51684 169.098 3.02219 169.47 3.39523C169.842 3.76827 170.347 3.97856 170.873 3.97999ZM164.893 3.97999C165.286 3.97999 165.671 3.86328 165.998 3.64462C166.326 3.42595 166.581 3.11516 166.731 2.75153C166.882 2.38791 166.921 1.98779 166.844 1.60177C166.768 1.21575 166.578 0.861163 166.3 0.582857C166.021 0.304551 165.667 0.115023 165.281 0.0382381C164.895 -0.0385463 164.495 0.000862233 164.131 0.15148C163.768 0.302098 163.457 0.557161 163.238 0.884414C163.019 1.21167 162.903 1.59641 162.903 1.99C162.903 2.25133 162.954 2.5101 163.054 2.75153C163.154 2.99297 163.301 3.21235 163.486 3.39714C163.67 3.58192 163.89 3.72851 164.131 3.82851C164.373 3.92852 164.631 3.97999 164.893 3.97999ZM158.912 3.97999C159.305 3.97999 159.69 3.86328 160.017 3.64462C160.345 3.42595 160.6 3.11516 160.75 2.75153C160.901 2.38791 160.94 1.98779 160.864 1.60177C160.787 1.21575 160.597 0.861163 160.319 0.582857C160.041 0.304551 159.686 0.115023 159.3 0.0382381C158.914 -0.0385463 158.514 0.000862233 158.15 0.15148C157.787 0.302098 157.476 0.557161 157.257 0.884414C157.039 1.21167 156.922 1.59641 156.922 1.99C156.922 2.51778 157.132 3.02394 157.505 3.39714C157.878 3.77033 158.384 3.97999 158.912 3.97999ZM164.893 33.9976C165.286 33.9976 165.671 33.8809 165.998 33.6622C166.326 33.4435 166.581 33.1327 166.731 32.7691C166.882 32.4055 166.921 32.0054 166.844 31.6193C166.768 31.2333 166.578 30.8787 166.3 30.6004C166.021 30.3221 165.667 30.1326 165.281 30.0558C164.895 29.979 164.495 30.0184 164.131 30.1691C163.768 30.3197 163.457 30.5747 163.238 30.902C163.019 31.2292 162.903 31.614 162.903 32.0076V32.013C162.904 32.5398 163.114 33.0446 163.487 33.4166C163.86 33.7887 164.366 33.9976 164.893 33.9976ZM170.873 40.0054C171.267 40.0065 171.652 39.8908 171.98 39.673C172.308 39.4553 172.564 39.1452 172.715 38.7819C172.867 38.4187 172.907 38.0187 172.832 37.6325C172.756 37.2463 172.567 36.8912 172.29 36.6121C172.012 36.333 171.658 36.1426 171.272 36.0647C170.887 35.9869 170.486 36.0252 170.122 36.1748C169.758 36.3245 169.447 36.5787 169.227 36.9053C169.008 37.232 168.89 37.6164 168.889 38.01V38.0154C168.889 38.5423 169.098 39.0476 169.47 39.4206C169.842 39.7937 170.347 40.004 170.873 40.0054ZM164.893 40.0054C165.286 40.0054 165.671 39.8887 165.998 39.67C166.326 39.4514 166.581 39.1406 166.731 38.7769C166.882 38.4133 166.921 38.0132 166.844 37.6272C166.768 37.2412 166.578 36.8866 166.3 36.6083C166.021 36.33 165.667 36.1404 165.281 36.0637C164.895 35.9869 164.495 36.0263 164.131 36.1769C163.768 36.3275 163.457 36.5826 163.238 36.9098C163.019 37.2371 162.903 37.6218 162.903 38.0154C162.903 38.2767 162.954 38.5355 163.054 38.7769C163.154 39.0184 163.301 39.2378 163.486 39.4226C163.67 39.6073 163.89 39.7539 164.131 39.8539C164.373 39.9539 164.631 40.0054 164.893 40.0054ZM158.912 40.0054C159.305 40.0054 159.69 39.8887 160.017 39.67C160.345 39.4514 160.6 39.1406 160.75 38.7769C160.901 38.4133 160.94 38.0132 160.864 37.6272C160.787 37.2412 160.597 36.8866 160.319 36.6083C160.041 36.33 159.686 36.1404 159.3 36.0637C158.914 35.9869 158.514 36.0263 158.15 36.1769C157.787 36.3275 157.476 36.5826 157.257 36.9098C157.039 37.2371 156.922 37.6218 156.922 38.0154C156.922 38.2767 156.973 38.5355 157.073 38.7769C157.173 39.0184 157.32 39.2378 157.505 39.4226C157.69 39.6073 157.909 39.7539 158.15 39.8539C158.392 39.9539 158.651 40.0054 158.912 40.0054Z" fill="#C7C7D1"/>
</g>
</g>
<defs>
<clipPath id="clip0_2979_8518">
<rect width="202.785" height="40" fill="white"/>
</clipPath>
</defs>
</svg>
