<svg width="143" height="40" viewBox="0 0 143 40" fill="none" xmlns="http://www.w3.org/2000/svg">
<g id="nylas" clip-path="url(#clip0_2979_8574)">
<g id="Clip path group">
<mask id="mask0_2979_8574" style="mask-type:luminance" maskUnits="userSpaceOnUse" x="0" y="0" width="143" height="40">
<g id="clip0_962_839">
<path id="Vector" d="M143 0H0V40H143V0Z" fill="white"/>
</g>
</mask>
<g mask="url(#mask0_2979_8574)">
<g id="Group">
<path id="Vector_2" d="M142.411 21.2821C142.026 20.5656 141.487 19.9425 140.833 19.457C140.139 18.9489 139.368 18.554 138.549 18.287C137.681 18.0001 136.787 17.7508 135.891 17.5485C134.89 17.3133 133.867 17.0558 132.849 16.7795C131.812 16.4996 130.95 16.1468 130.291 15.7294C130.048 15.6118 129.767 15.3672 129.767 14.8145C129.769 14.5934 129.823 14.3759 129.925 14.1795L129.943 14.1489C130.179 13.8197 130.549 13.5292 131.09 13.26C131.63 12.9907 132.411 12.8613 133.485 12.8613C134.332 12.8613 135.058 12.9789 135.641 13.207C136.163 13.4007 136.648 13.6823 137.074 14.0396C137.43 14.3453 137.736 14.7048 137.981 15.105C138.143 15.3754 138.289 15.6306 138.414 15.8658L142.148 13.4505C141.892 12.8839 141.575 12.3462 141.204 11.8465C140.715 11.1898 140.13 10.6089 139.47 10.1226C138.7 9.55956 137.847 9.11921 136.941 8.81739C135.961 8.47755 134.796 8.30469 133.483 8.30469C131.939 8.30469 130.639 8.51283 129.617 8.92205C128.595 9.33127 127.762 9.83338 127.139 10.4084C126.563 10.9266 126.089 11.548 125.742 12.2404C125.463 12.7958 125.248 13.3808 125.101 13.9843C125.074 14.1454 125.045 14.3371 125.016 14.5346C124.99 14.7122 124.976 14.8914 124.975 15.0709C124.975 16.1221 125.239 17.01 125.761 17.7073C126.308 18.4337 126.994 19.0451 127.779 19.5064C128.618 20.0011 129.515 20.3902 130.45 20.6647C131.426 20.9552 132.36 21.2044 133.227 21.4055C134.071 21.609 134.879 21.8159 135.631 22.0217C136.305 22.19 136.947 22.4682 137.53 22.8448C137.983 23.1976 138.208 23.6115 138.208 24.0972C138.217 24.3355 138.166 24.5721 138.06 24.7861C137.954 25 137.797 25.1847 137.603 25.3237C137.221 25.599 136.796 25.8106 136.345 25.9504C135.879 26.1013 135.397 26.2003 134.909 26.2456C134.437 26.2903 134.043 26.3126 133.742 26.3126C132.949 26.3288 132.158 26.2374 131.389 26.041C130.844 25.8978 130.321 25.6823 129.833 25.4001C129.478 25.1951 129.159 24.9333 128.889 24.6252C128.721 24.429 128.568 24.2216 128.429 24.0043L127.999 23.3799L124.27 25.7929C124.612 26.3214 124.982 26.8317 125.379 27.3216C125.927 27.9921 126.569 28.581 127.284 29.0702C128.132 29.6488 129.058 30.103 130.035 30.4189C131.09 30.7717 132.336 30.954 133.738 30.954C134.768 30.9659 135.797 30.8649 136.805 30.6529C137.607 30.4826 138.386 30.2173 139.124 29.8627C139.722 29.5748 140.272 29.1978 140.756 28.7444C141.162 28.3587 141.527 27.9314 141.844 27.4697C142.528 26.4333 142.923 25.2347 142.991 23.9961C142.998 22.9213 142.801 22.0029 142.411 21.2821Z" fill="#C7C7D1"/>
<path id="Vector_3" d="M54.6908 8.13281C52.1144 8.13592 49.6444 9.15728 47.8226 10.9728C46.0007 12.7884 44.9759 15.25 44.9727 17.8176V30.5093H49.6253V17.8176C49.6253 16.4788 50.159 15.1947 51.109 14.248C52.0589 13.3013 53.3474 12.7694 54.6908 12.7694C56.0343 12.7694 57.3228 13.3013 58.2727 14.248C59.2227 15.1947 59.7564 16.4788 59.7564 17.8176V30.5093H64.409V17.8176C64.4058 15.25 63.381 12.7884 61.5591 10.9728C59.7373 9.15728 57.2673 8.13592 54.6908 8.13281Z" fill="#C7C7D1"/>
<path id="Vector_4" d="M111.222 8.13281C109.431 8.13296 107.665 8.55181 106.065 9.35569C104.466 10.1595 103.078 11.326 102.013 12.7615C100.948 14.1969 100.236 15.8612 99.9339 17.6208C99.6315 19.3803 99.7475 21.1859 100.272 22.8927C100.797 24.5994 101.717 26.1597 102.957 27.4481C104.196 28.7365 105.722 29.7172 107.411 30.3113C109.101 30.9054 110.906 31.0964 112.683 30.869C114.459 30.6416 116.158 30.002 117.641 29.0018L118.022 28.7431V30.5069H122.675V19.5474C122.672 16.5212 121.464 13.6198 119.317 11.4799C117.17 9.33998 114.259 8.13623 111.222 8.13281ZM111.222 26.3242C109.877 26.3244 108.562 25.9271 107.443 25.1824C106.325 24.4377 105.453 23.3791 104.938 22.1406C104.423 20.902 104.288 19.5391 104.551 18.2242C104.813 16.9093 105.461 15.7014 106.412 14.7535C107.363 13.8055 108.575 13.1599 109.895 12.8984C111.214 12.6369 112.582 12.7712 113.824 13.2844C115.067 13.7976 116.129 14.6665 116.877 15.7813C117.624 16.8961 118.023 18.2067 118.022 19.5474C118.02 21.344 117.303 23.0665 116.028 24.3369C114.754 25.6073 113.025 26.322 111.222 26.3242Z" fill="#C7C7D1"/>
<path id="Vector_5" d="M94.7951 21.2841V0H90.1484V21.2841C90.1512 23.8094 91.1427 26.234 92.9117 28.0421C94.6808 29.8501 97.088 30.899 99.6211 30.9654V26.3206C98.3223 26.2573 97.0975 25.6995 96.1994 24.7622C95.3014 23.825 94.7987 22.58 94.7951 21.2841Z" fill="#C7C7D1"/>
<path id="Vector_6" d="M86.7893 8.58594H82.2005V21.3059C82.2005 23.4766 80.7928 25.4357 78.7786 26.0707C77.1585 26.581 75.4747 26.3212 74.1485 25.3557C73.5067 24.8868 72.9843 24.2742 72.6234 23.5673C72.2625 22.8604 72.0731 22.079 72.0706 21.2859V8.58594H67.418V21.2459C67.418 25.6344 70.2959 29.4773 74.4175 30.5968C76.9686 31.2882 79.6093 30.9907 81.8382 29.7572L82.2005 29.5561V30.3193C82.1985 31.6152 81.6973 32.8609 80.8003 33.7992C79.9033 34.7375 78.6791 35.2968 77.3804 35.3616V40.0018C79.9137 39.935 82.321 38.886 84.0902 37.0778C85.8595 35.2696 86.8511 32.8448 86.8542 30.3193V9.04102H86.682L86.7893 8.58594Z" fill="#C7C7D1"/>
<path id="Vector_7" d="M32.6824 5.54846C31.4942 4.35933 30.0812 3.41686 28.525 2.7756C26.9689 2.13433 25.3007 1.80701 23.6168 1.81257C21.9329 1.80688 20.2645 2.13414 18.7084 2.77541C17.1523 3.41669 15.7393 4.35923 14.5512 5.54846L1.44074 18.6129C1.13265 18.9212 0.960056 19.3388 0.960941 19.7739C0.961826 20.209 1.13611 20.626 1.44546 20.933C1.7548 21.24 2.17387 21.412 2.61046 21.4112C3.04706 21.4103 3.46542 21.2366 3.77351 20.9283L16.8828 7.86384C18.6788 6.12404 21.09 5.15881 23.5946 5.17691C26.0992 5.19502 28.4961 6.19501 30.2666 7.96058C32.0372 9.72616 33.0391 12.1154 33.0558 14.6115C33.0724 17.1076 32.1024 19.5099 30.3555 21.2987L17.2462 34.3632C16.9372 34.6705 16.7633 35.0876 16.7629 35.5227C16.7624 35.9578 16.9354 36.3753 17.2438 36.6832C17.5522 36.9912 17.9708 37.1645 18.4074 37.1649C18.844 37.1654 19.2629 36.9929 19.5719 36.6856L32.6824 23.6176C35.0831 21.2196 36.4313 17.9705 36.4313 14.5831C36.4313 11.1956 35.0831 7.9465 32.6824 5.54846Z" fill="#C7C7D1"/>
<path id="Vector_8" d="M30.8487 14.5799C30.8488 13.1547 30.4246 11.7615 29.63 10.5766C28.8354 9.39164 27.706 8.46816 26.3846 7.92297C25.0633 7.37779 23.6094 7.2354 22.2068 7.51382C20.8043 7.79224 19.5161 8.47895 18.5052 9.48709L1.08668 26.8459C0.793914 27.1565 0.634002 27.5685 0.640835 27.9945C0.647667 28.4206 0.820707 28.8272 1.12328 29.1283C1.42585 29.4294 1.83418 29.6012 2.26171 29.6074C2.68924 29.6135 3.10237 29.4536 3.41355 29.1613L20.6409 12.0129L20.6681 11.9812C20.7212 11.9212 20.7731 11.8636 20.8309 11.8024C20.8887 11.7413 20.9642 11.6848 21.035 11.619L21.074 11.5837C21.8139 10.9587 22.7592 10.6278 23.7288 10.6544C24.6983 10.6809 25.624 11.0631 26.3283 11.7276C27.0327 12.3921 27.4663 13.2923 27.546 14.2556C27.6256 15.219 27.3459 16.1777 26.7602 16.9482L26.7484 16.9647C26.6435 17.1033 26.5296 17.2349 26.4074 17.3586C26.2796 17.485 26.1436 17.6029 26.0003 17.7114L8.98885 34.7211C8.68028 35.0286 8.50694 35.4456 8.50694 35.8805C8.50694 36.3154 8.68028 36.7325 8.98885 37.04C9.29741 37.3475 9.71591 37.5202 10.1523 37.5202C10.5887 37.5202 11.0072 37.3475 11.3157 37.04L28.7331 19.6811C29.4069 19.0126 29.9409 18.2175 30.304 17.3419C30.6672 16.4662 30.8524 15.5274 30.8487 14.5799Z" fill="#C7C7D1"/>
<path id="Vector_9" d="M21.9847 18.1544C21.1168 17.7676 20.4224 17.0756 20.0343 16.2106L19.9163 15.9531L0.674748 35.1299C0.306608 35.486 0.0721262 35.957 0.0104335 36.4646C-0.0208502 36.6887 -0.000793874 36.9169 0.0690973 37.1322C0.138988 37.3475 0.256899 37.5442 0.413978 37.7075C0.554816 37.8429 0.721192 37.9491 0.903476 38.0199C1.08576 38.0907 1.28034 38.1249 1.47594 38.1203C2.05612 38.1058 2.60722 37.8642 3.00988 37.4476L22.2432 18.272L21.9847 18.1544Z" fill="#C7C7D1"/>
</g>
</g>
</g>
</g>
<defs>
<clipPath id="clip0_2979_8574">
<rect width="143" height="40" fill="white"/>
</clipPath>
</defs>
</svg>
