<svg width="129" height="37" viewBox="0 0 129 37" fill="none" xmlns="http://www.w3.org/2000/svg">
<g clip-path="url(#clip0_1186_8619)">
<path d="M65.8317 1.10207C65.8317 0.481658 66.3337 0.0351562 67.0377 0.0351562C67.742 0.0351562 68.2445 0.481658 68.2445 1.10207C68.2445 1.72249 67.742 2.16899 67.0377 2.16899C66.3337 2.16899 65.8317 1.72249 65.8317 1.10207Z" />
<path d="M65.9575 2.93865H68.1186V9.14157H65.9575V2.93865Z" />
<path fill-rule="evenodd" clip-rule="evenodd" d="M61.2706 2.78894C59.9892 2.78894 58.7078 4.00487 58.7075 6.03844C58.7077 8.04734 59.7129 9.2879 61.2706 9.2879C61.8231 9.2879 62.4263 8.9906 62.8531 8.56879H62.9036L63.0541 9.13984H64.813V0.505859H62.6521V2.51635L62.7273 3.40935C62.3511 3.03686 61.949 2.78894 61.2706 2.78894ZM62.6521 4.82286V7.10592C62.4251 7.45254 62.1747 7.55246 61.8478 7.55246C61.2694 7.55246 60.9178 7.10592 60.9178 6.01436C60.9178 4.92277 61.3446 4.52561 61.7973 4.52561C62.0748 4.52561 62.4004 4.59961 62.6521 4.82286Z" />
<path d="M36.8707 35.5681V2.37774H36.872C36.872 1.60562 36.2454 0.976562 35.472 0.976562H2.24714C1.47378 0.976562 0.844727 1.60438 0.844727 2.37774V3.94543C0.844727 4.45114 1.11731 4.91737 1.55765 5.16529C3.44871 6.22552 5.55199 7.5038 7.78549 9.03456H26.8819C26.8819 9.03456 28.5199 9.31946 28.8394 10.4802C29.1589 11.6408 28.8394 30.0522 28.8394 30.0522L28.8221 30.0277C30.3473 32.2441 31.6304 34.3439 32.7042 36.2527C32.9521 36.6954 33.4184 36.968 33.9241 36.968H35.4708C36.2441 36.968 36.8707 36.3414 36.8707 35.5681Z" />
<path d="M27.8402 35.9161V11.0452C27.8402 10.4667 27.3715 9.99805 26.7905 9.99805H1.89498C1.31651 9.99805 0.845337 10.4667 0.845337 11.0452V12.2219C0.845337 12.6006 1.05009 12.9497 1.38065 13.1359C3.73318 14.4559 6.52548 16.2268 9.4749 18.5667C9.31647 18.4375 9.1556 18.3068 8.99221 18.1745H18.6352C18.6352 18.1745 19.4616 18.3189 19.6232 18.9048C19.7847 19.4906 19.6232 28.787 19.6232 28.787C19.3568 28.4347 19.0937 28.0936 18.8319 27.7617V19.6974C18.8319 19.3113 18.5186 18.998 18.1326 18.998H1.54542C1.15936 18.998 0.846069 19.3113 0.846069 19.6974V20.4806C0.846069 20.7334 0.981746 20.9666 1.2013 21.0899C3.80507 22.5503 7.2155 24.8383 10.5729 28.3154C13.4443 31.2891 15.419 34.2444 16.7511 36.6101C16.8757 36.8297 17.1076 36.9666 17.3604 36.9666H18.1326C18.5186 36.9666 18.8319 36.6533 18.8319 36.2673V27.7978C21.3766 30.9178 23.2926 33.8989 24.7171 36.4305C24.9021 36.761 25.2525 36.9658 25.6323 36.9658H26.7905C27.3715 36.9658 27.8402 36.4971 27.8402 35.9161Z" />
<path fill-rule="evenodd" clip-rule="evenodd" d="M40.729 1.07812H43.7188C45.5024 1.07812 47.0355 1.72321 47.0355 3.75714C47.0355 5.79106 45.4777 6.58539 43.7694 6.58539H42.8899V9.14108H40.729V1.07812ZM43.6683 4.89929C44.523 4.89929 44.9239 4.47746 44.9239 3.75837C44.9239 3.03928 44.4465 2.76546 43.6177 2.76546H42.8887V4.89929H43.6683Z" />
<path d="M49.6378 2.93635H47.8789V9.13926H50.0398V5.69061C50.3408 4.92094 50.8934 4.64836 51.346 4.64836C51.6025 4.64836 51.7937 4.69049 51.9994 4.73582L52.0504 4.74703L52.4019 2.91045C52.2255 2.83645 52.0121 2.78711 51.6224 2.78711C51.0069 2.78711 50.3038 3.15961 49.8388 4.00327H49.7883L49.6378 2.93635Z" />
<path fill-rule="evenodd" clip-rule="evenodd" d="M52.3626 6.03915C52.3626 4.02989 53.8452 2.78906 55.3771 2.78906C57.2359 2.78906 58.1166 4.12857 58.1166 5.79123C58.1166 6.16372 58.066 6.53622 58.029 6.68422H54.4483C54.6494 7.42924 55.2019 7.67589 55.905 7.67589C56.3318 7.67589 56.7339 7.55257 57.1865 7.30341L57.8896 8.5689C57.2112 9.04011 56.3071 9.28801 55.6028 9.28801C53.7687 9.28801 52.3613 8.09651 52.3613 6.03791L52.3626 6.03915ZM56.2824 5.29416C56.2824 4.82299 56.0814 4.40116 55.4276 4.40116C54.9503 4.40116 54.5482 4.67374 54.4224 5.29416H56.2824Z" />
<path d="M72.3019 2.78906C70.5173 2.78906 68.9345 3.97932 68.9345 6.03915L68.9332 6.03668C68.9332 8.09526 70.3148 9.28676 72.0994 9.28676C72.753 9.28676 73.5576 9.1141 74.1854 8.56765L73.3564 7.17883C73.0544 7.40207 72.7029 7.57598 72.3514 7.57598C71.6727 7.57598 71.1445 6.98026 71.1445 6.03791C71.1445 5.09558 71.622 4.49983 72.4265 4.49983C72.6534 4.49983 72.8545 4.57507 73.1309 4.79832L74.1359 3.43415C73.6585 3.03698 73.0557 2.78906 72.3019 2.78906Z" />
<path d="M75.0278 6.75943V4.60093H74.1989V3.01351L75.1538 2.9395L75.4051 1.32617H77.189V2.9395H78.6207V4.60216H77.189V6.72369C77.189 7.40573 77.5405 7.62897 77.9428 7.62897C78.1432 7.62897 78.3444 7.57964 78.4954 7.52906L78.8219 9.06718C78.4954 9.16709 78.0298 9.29042 77.3393 9.29042C75.7064 9.29042 75.0278 8.27283 75.0278 6.75943Z" />
<path d="M80.5443 0.0351562C79.84 0.0351562 79.3381 0.481658 79.3381 1.10207C79.3381 1.72249 79.84 2.16899 80.5443 2.16899C81.2487 2.16899 81.7505 1.72249 81.7505 1.10207C81.7505 0.481658 81.2487 0.0351562 80.5443 0.0351562Z" />
<path d="M81.6246 2.93865H79.4641V9.14157H81.6246V2.93865Z" />
<path d="M82.1898 2.9375H84.351L85.0289 5.64241C85.1799 6.26283 85.3303 6.9079 85.482 7.57767H85.5328C85.6831 6.9079 85.8335 6.26283 85.9839 5.64241L86.6625 2.9375H88.7221L86.7376 9.1404H84.2507L82.1898 2.9375Z" />
<path fill-rule="evenodd" clip-rule="evenodd" d="M91.852 2.78906C90.3189 2.78906 88.8365 4.02964 88.8362 6.03855C88.8365 8.09676 90.2437 9.28801 92.0776 9.28801C92.7806 9.28801 93.6861 9.04011 94.3647 8.5689L93.6603 7.30341C93.2073 7.55257 92.8056 7.67589 92.3783 7.67589C91.6753 7.67589 91.1233 7.42924 90.9221 6.68422H94.5025C94.5394 6.53622 94.5902 6.16372 94.5902 5.79123C94.5902 4.12857 93.7105 2.78906 91.852 2.78906ZM91.9015 4.40116C92.555 4.40116 92.7562 4.82299 92.7562 5.29416H90.8958C91.0217 4.67374 91.424 4.40116 91.9015 4.40116Z" />
<path d="M97.8318 1.07812H99.9929V7.35506H103.084V9.14108H97.8318V1.07812Z" />
<path fill-rule="evenodd" clip-rule="evenodd" d="M107.165 5.12147C104.754 5.3694 103.748 6.08848 103.748 7.37866H103.746C103.746 8.39625 104.451 9.28926 105.631 9.28926C106.309 9.28926 106.863 8.99071 107.365 8.54424H107.416L107.566 9.14002H109.325V5.69132C109.325 3.6574 108.346 2.78906 106.713 2.78906C105.732 2.78906 104.828 3.08632 103.948 3.60806L104.702 4.9969C105.356 4.65031 105.833 4.4764 106.286 4.4764C106.839 4.4764 107.115 4.67497 107.165 5.12147ZM107.165 6.38574V7.22942C106.94 7.47732 106.739 7.65123 106.387 7.65123C106.01 7.65123 105.809 7.48965 105.809 7.20475C105.809 6.85694 106.135 6.53499 107.165 6.38574Z" />
<path d="M110.395 11.3482L110.773 9.73618C110.8 9.74205 110.829 9.74932 110.861 9.75699C110.962 9.78154 111.079 9.81017 111.175 9.81017C111.752 9.81017 112.03 9.56227 112.154 9.18973L112.229 8.91716L109.843 2.9375H112.003L112.757 5.31925C112.894 5.76242 113 6.20484 113.111 6.67075C113.143 6.80514 113.176 6.94174 113.21 7.08062H113.26C113.386 6.48484 113.512 5.915 113.663 5.31925L114.29 2.9375H116.351L114.241 9.04048C113.589 10.7155 112.909 11.4716 111.351 11.4716C110.924 11.4716 110.672 11.4223 110.396 11.347L110.395 11.3482Z" />
<path fill-rule="evenodd" clip-rule="evenodd" d="M119.479 2.78906C117.946 2.78906 116.464 4.02964 116.463 6.03855C116.464 8.09676 117.871 9.28801 119.705 9.28801C120.408 9.28801 121.313 9.04011 121.992 8.5689L121.288 7.30341C120.835 7.55257 120.433 7.67589 120.006 7.67589C119.303 7.67589 118.75 7.42924 118.549 6.68422H122.13C122.167 6.53622 122.217 6.16372 122.217 5.79123C122.217 4.12857 121.338 2.78906 119.479 2.78906ZM119.529 4.40116C120.182 4.40116 120.383 4.82299 120.383 5.29416H118.524C118.65 4.67374 119.051 4.40116 119.529 4.40116Z" />
<path d="M123.084 2.93635H124.843L124.993 4.00327H125.044C125.509 3.15961 126.212 2.78711 126.827 2.78711C127.217 2.78711 127.431 2.83645 127.607 2.91045L127.255 4.74703L127.202 4.73534C126.996 4.69019 126.805 4.64836 126.551 4.64836C126.098 4.64836 125.546 4.92094 125.245 5.69061V9.13926H123.084V2.93635Z" />
<path d="M41.58 15.6018L40.8757 16.1469H40.8745C41.3321 16.7661 41.9365 17.014 42.5458 17.014C43.6213 17.014 44.317 16.3529 44.317 15.5129C44.317 14.9789 44.116 14.6816 43.6645 14.4152L43.2007 14.1365L43.125 14.0902C42.8045 13.8951 42.6161 13.7803 42.6161 13.5592C42.6161 13.2952 42.8258 13.0622 43.2119 13.0622C43.551 13.0622 43.815 13.2471 44.053 13.495L44.6722 12.924C44.3158 12.496 43.8063 12.2246 43.255 12.2246C42.3349 12.2246 41.6084 12.8648 41.6084 13.6579C41.6084 14.2191 41.8846 14.5509 42.3077 14.8124L42.7674 15.0915C43.0896 15.2867 43.2969 15.4123 43.2969 15.6523C43.2969 15.9853 43.0268 16.1876 42.6223 16.1876C42.2177 16.1876 41.8341 15.9557 41.58 15.6018Z" />
<path d="M46.6263 11.9629L46.3537 13.2556L46.197 13.8266H46.2254C46.5437 13.5491 46.9186 13.3259 47.3478 13.3259C47.9362 13.3259 48.1903 13.6428 48.1903 14.2299C48.1903 14.3878 48.1755 14.5555 48.1323 14.7307L47.687 16.9287H46.7052L47.127 14.8528L47.1415 14.7868C47.1656 14.678 47.1838 14.5957 47.1838 14.5161C47.1838 14.2756 47.0567 14.1534 46.8212 14.1534C46.6004 14.1534 46.3821 14.299 46.0725 14.6123L45.6148 16.9287H44.6331L45.6433 11.9629H46.6263Z" />
<path fill-rule="evenodd" clip-rule="evenodd" d="M50.47 13.3281C49.4869 13.3281 48.568 14.3864 48.568 15.7259C48.568 16.5548 48.9467 17.0149 49.5732 17.0149C49.9433 17.0149 50.3651 16.804 50.6883 16.4709H50.7055L50.6907 16.9297H51.49L52.2029 13.4133H51.4147L51.2618 13.7907H51.2445C51.1052 13.5082 50.7919 13.3281 50.47 13.3281ZM51.0176 14.4567L50.7622 15.7037V15.7025C50.5329 16.1033 50.2381 16.223 50.0013 16.223C49.7472 16.223 49.5856 16.0318 49.5856 15.6013C49.5856 14.7626 50.0444 14.12 50.539 14.12C50.7055 14.12 50.8992 14.2224 51.0176 14.4567Z" />
<path fill-rule="evenodd" clip-rule="evenodd" d="M53.201 17.2862L53.016 18.2347H52.0342L53.016 13.4133H53.8153L53.8239 13.8154H53.8411C54.1668 13.5292 54.5627 13.3281 54.9327 13.3281C55.5593 13.3281 55.938 13.7894 55.938 14.6171C55.938 15.9566 55.0191 17.0149 54.036 17.0149C53.7375 17.0149 53.4686 16.8557 53.3157 16.5992H53.3009L53.2022 17.285L53.201 17.2862ZM53.7684 14.564L53.4995 15.8912C53.6068 16.1231 53.7869 16.223 53.9669 16.223C54.4616 16.223 54.9204 15.5803 54.9204 14.7417C54.9204 14.3124 54.7576 14.12 54.5035 14.12C54.279 14.12 53.9842 14.2396 53.7684 14.564Z" />
<path fill-rule="evenodd" clip-rule="evenodd" d="M59.412 14.6479C59.412 13.9177 59.1012 13.3281 58.2502 13.3281V13.3294C57.3029 13.3294 56.2705 14.2088 56.2705 15.51C56.2705 16.4524 56.8675 17.0161 57.7284 17.0161C58.2798 17.0161 58.7214 16.8459 59.0063 16.6473L58.6572 16.0355C58.4809 16.1613 58.2243 16.2822 58.0035 16.2822C57.5336 16.2822 57.1759 16.033 57.2005 15.4484H59.2308C59.2863 15.3423 59.412 14.9797 59.412 14.6479ZM58.6066 14.5936C58.6066 14.6911 58.5931 14.7835 58.5758 14.8551H57.2795C57.4423 14.3395 57.7914 14.0731 58.1293 14.0731C58.4858 14.0731 58.6066 14.31 58.6066 14.5936Z" />
<path d="M60.5808 18.1623C60.7227 18.2423 60.9554 18.3039 61.086 18.3039C61.8211 18.3039 62.28 17.8512 62.7721 17.0051L64.6951 13.4121H63.7465L62.9991 14.9982C62.9092 15.1898 62.811 15.4121 62.7151 15.6293L62.7146 15.6306C62.649 15.779 62.5842 15.9258 62.5242 16.0578H62.4959C62.4884 15.7223 62.4674 15.3066 62.433 14.9982L62.2627 13.4121H61.2871L61.9087 16.8533L61.8211 17.0248C61.662 17.3369 61.4006 17.5354 61.1477 17.5354C61.0503 17.5354 60.9541 17.5095 60.8801 17.4676L60.5808 18.1623Z" />
<path fill-rule="evenodd" clip-rule="evenodd" d="M66.453 13.3281C65.4724 13.3281 64.4573 14.2101 64.4573 15.5656H64.4561C64.4561 16.4401 65.0074 17.0149 65.8387 17.0149C66.8203 17.0149 67.8359 16.1329 67.8359 14.7774C67.8359 13.9041 67.2846 13.3281 66.453 13.3281ZM66.3444 14.1089C66.675 14.1089 66.8427 14.3679 66.8427 14.7971C66.8427 15.6174 66.4296 16.2353 65.9497 16.2353C65.6192 16.2353 65.4514 15.9763 65.4514 15.547C65.4514 14.7268 65.8647 14.1089 66.3444 14.1089Z" />
<path d="M71.0609 16.9286H70.2616L70.2768 16.4549H70.2484C69.9239 16.7535 69.5131 17.0137 69.0837 17.0137C68.4955 17.0137 68.2416 16.6967 68.2416 16.1096C68.2416 15.9517 68.2614 15.784 68.2983 15.6088L68.7434 13.4121H69.7254L69.3034 15.4879L69.2894 15.5514C69.265 15.6615 69.2466 15.7444 69.2466 15.8246C69.2466 16.0652 69.3752 16.1873 69.6094 16.1873C69.8191 16.1873 70.0374 16.0418 70.3223 15.7284L70.7799 13.4121H71.7619L71.0609 16.9286Z" />
<path d="M73.3723 13.4133H72.573V13.4145L71.8713 16.931H72.8533L73.253 14.8934C73.5339 14.3987 73.8274 14.1816 74.142 14.1816C74.2593 14.1816 74.4011 14.1866 74.4948 14.2384L74.8179 13.3972C74.7394 13.354 74.6254 13.3281 74.4453 13.3281C74.0358 13.3281 73.6315 13.6538 73.3565 14.0978H73.3281L73.3723 13.4133Z" />
<path d="M76.2483 13.4547L76.7192 13.4153L76.7614 13.1834C76.9058 12.4594 77.3213 11.8809 78.1364 11.8809C78.414 11.8809 78.6759 11.9512 78.8988 12.072L78.5855 12.7542C78.5057 12.7061 78.3672 12.6493 78.2399 12.6493C77.9761 12.6493 77.8172 12.7615 77.7433 13.1489L77.6886 13.4153H78.3105L78.1615 14.1714H77.527L76.9757 16.9318H75.9944L76.5576 14.1714H76.0999L76.247 13.4547H76.2483Z" />
<path d="M80.2704 16.9286H81.0697L81.7701 13.4121H80.7881L80.3304 15.7284C80.0455 16.0418 79.8272 16.1873 79.6175 16.1873C79.3834 16.1873 79.2555 16.0652 79.2555 15.8246C79.2555 15.7444 79.2738 15.6615 79.2982 15.5514L79.3122 15.4879L79.7336 13.4121H78.7516L78.3065 15.6088C78.2695 15.784 78.2498 15.9517 78.2498 16.1096C78.2498 16.6967 78.5043 17.0137 79.0926 17.0137C79.5219 17.0137 79.9321 16.7535 80.2566 16.4549H80.2849L80.2704 16.9286Z" />
<path d="M82.2259 16.084C82.2259 15.9335 82.2516 15.7892 82.278 15.6412L82.5886 14.1684H82.1138L82.2602 13.4518L82.7858 13.4123L83.0872 12.4922H83.9096L83.7321 13.4123H84.5374L84.3883 14.1684H83.5594L83.2487 15.6781C83.2336 15.7633 83.2309 15.8372 83.2309 15.9125C83.2309 16.1456 83.3457 16.2566 83.6036 16.2566C83.7051 16.2566 83.8007 16.2209 83.8924 16.1764L84.0711 16.8585C83.8825 16.9288 83.6009 17.0139 83.2349 17.0139C82.5167 17.0139 82.2259 16.623 82.2259 16.084Z" />
<path d="M86.5309 16.9286H87.3302L88.0312 13.4121H87.0492L86.5916 15.7284C86.3067 16.0418 86.0884 16.1873 85.8786 16.1873C85.6445 16.1873 85.5159 16.0652 85.5159 15.8246C85.5159 15.7444 85.5343 15.6615 85.5587 15.5514L85.5726 15.4879L85.9947 13.4121H85.0127L84.5676 15.6088C84.5307 15.784 84.5109 15.9517 84.5109 16.1096C84.5109 16.6967 84.7648 17.0137 85.353 17.0137C85.7824 17.0137 86.1932 16.7535 86.5177 16.4549H86.5461L86.5309 16.9286Z" />
<path d="M88.8423 13.4133H89.6416L89.5974 14.0978H89.6258C89.9008 13.6538 90.3051 13.3281 90.7146 13.3281C90.896 13.3281 91.0087 13.354 91.0872 13.3972L90.7641 14.2384C90.6717 14.1866 90.5286 14.1816 90.4112 14.1816C90.0967 14.1816 89.8032 14.3987 89.5236 14.8934L89.1226 16.931H88.1406L88.841 13.4145L88.8423 13.4133Z" />
<path fill-rule="evenodd" clip-rule="evenodd" d="M93.9666 14.6479C93.9666 13.9177 93.6553 13.3281 92.8046 13.3281V13.3294C91.8569 13.3294 90.8248 14.2088 90.8248 15.51C90.8248 16.4524 91.4217 17.0161 92.283 17.0161C92.8343 17.0161 93.2755 16.8459 93.5604 16.6473L93.2115 16.0355C93.0348 16.1613 92.7782 16.2822 92.558 16.2822C92.0878 16.2822 91.7303 16.033 91.7547 15.4484H93.7853C93.8407 15.3423 93.9666 14.9797 93.9666 14.6479ZM93.1607 14.5936C93.1607 14.6911 93.1476 14.7835 93.1297 14.8551H91.8338C91.9967 14.3395 92.3456 14.0731 92.6833 14.0731C93.0401 14.0731 93.1607 14.31 93.1607 14.5936Z" />
</g>
<defs>
<clipPath id="clip0_1186_8619">
<rect width="127.279" height="36.9308" transform="translate(0.844727 0.0351562)"/>
</clipPath>
</defs>
</svg>
