<svg width="172" height="51" viewBox="0 0 172 51" fill="none" xmlns="http://www.w3.org/2000/svg">
<path fill-rule="evenodd" clip-rule="evenodd" d="M94.6702 18.0861C94.2972 18.9031 93.9629 19.4807 93.5546 19.9477C92.2056 21.4906 90.2347 22.3458 88.1863 22.277C87.0065 22.2374 85.7044 21.7233 83.1002 20.6952C80.4959 19.6671 79.1937 19.153 78.3051 18.376C76.7621 17.027 75.907 15.0562 75.9757 13.0078C76.0153 11.828 76.5241 10.5392 77.5418 7.96153C77.7278 7.49036 77.8968 7.06218 78.0536 6.67171V3.44592H62.0109V19.8297H78.0536V18.1448C78.1355 18.224 78.2189 18.3007 78.3051 18.376C78.6138 18.646 78.9731 18.8848 79.4189 19.1239V21.1951H60.6456V2.08061H79.4189V3.77322C79.5548 3.56496 79.695 3.37811 79.8453 3.20623C81.1944 1.66331 83.1652 0.808138 85.2136 0.876897C86.3934 0.9165 87.6955 1.43056 90.2998 2.45867C92.904 3.48679 94.2062 4.00085 95.0948 4.77784C95.1817 4.85382 95.2665 4.93177 95.349 5.01159C97.2885 2.79675 100.137 1.3981 103.312 1.3981C109.156 1.3981 113.894 6.13547 113.894 11.9793C113.894 17.8232 109.156 22.5605 103.312 22.5605C99.7432 22.5605 96.5867 20.7933 94.6702 18.0861ZM83.6015 19.4253C80.8876 18.3539 79.8697 17.9304 79.2038 17.3482C77.9694 16.269 77.2853 14.6923 77.3403 13.0536C77.37 12.1693 77.7514 11.1488 78.8118 8.46282C79.8722 5.77687 80.2907 4.77104 80.8732 4.10491C81.9524 2.87058 83.5291 2.18644 85.1678 2.24145C86.0518 2.27112 87.0845 2.6572 89.7984 3.72861C92.5123 4.80002 93.5303 5.22347 94.1962 5.80568C94.3055 5.90125 94.4104 6.00072 94.511 6.10379C93.3867 7.78456 92.7311 9.80538 92.7311 11.9793C92.7311 13.6503 93.1184 15.2308 93.8082 16.6359C93.2713 17.9316 92.9404 18.5759 92.5268 19.049C91.4475 20.2833 89.8708 20.9674 88.2321 20.9124C87.3481 20.8828 86.3154 20.4967 83.6015 19.4253ZM96.2405 6.0695C97.9311 4.04871 100.472 2.76341 103.312 2.76341C108.402 2.76341 112.528 6.88951 112.528 11.9793C112.528 17.0691 108.402 21.1952 103.312 21.1952C99.8906 21.1952 96.9043 19.3303 95.3145 16.5614C95.4801 16.1498 95.6594 15.6957 95.8581 15.1925C96.8757 12.6148 97.3846 11.3258 97.4242 10.1461C97.4734 8.68123 97.05 7.25601 96.2405 6.0695ZM95.3834 7.27921C95.8535 8.13152 96.0931 9.10445 96.0596 10.1003C96.03 10.9846 95.6486 12.0051 94.5882 14.6911C94.572 14.732 94.556 14.7725 94.5402 14.8126C94.2521 13.9199 94.0965 12.9678 94.0965 11.9793C94.0965 10.2625 94.5659 8.65536 95.3834 7.27921Z"/>
<path d="M86.2697 26.1809C84.7752 26.3968 83.4918 27.0887 82.6418 28.1405C80.964 30.2107 80.9362 33.4489 82.5751 35.4915C83.6696 36.8587 85.3641 37.5396 87.4475 37.451C88.2364 37.4178 88.8031 37.3182 89.542 37.0746L90.0532 36.9085L90.1921 36.593C90.4254 36.0616 90.7254 35.021 90.731 34.7442C90.731 34.628 90.5365 34.5117 90.431 34.5726C90.3865 34.5947 90.2309 34.8494 90.0865 35.1372C89.6365 36.034 88.9031 36.6484 88.0364 36.8532C87.6475 36.9473 86.7086 36.9362 86.253 36.831C85.4419 36.6428 84.5863 36.1059 84.0474 35.4472C83.6752 34.9878 83.2585 34.1187 83.0918 33.4655C82.8196 32.3972 82.8085 30.9691 83.0585 29.9118C83.1307 29.6239 83.2974 29.17 83.4585 28.8379C83.703 28.3342 83.8085 28.1903 84.2252 27.7807C85.0086 27.0057 85.8475 26.6736 87.0308 26.6736C88.6198 26.6791 89.5143 27.2714 89.9587 28.6386C90.0754 28.9929 90.1309 29.087 90.2254 29.0981C90.4698 29.1368 90.4921 29.0538 90.4198 28.3785C90.3865 28.0353 90.3365 27.4984 90.3143 27.1828C90.2921 26.8341 90.2476 26.6016 90.2087 26.5905C88.7976 26.1975 87.2586 26.037 86.2697 26.1809Z"/>
<path d="M1.45589 26.3968C0.844756 26.4632 0.828088 26.4688 0.850311 26.6847C0.866978 26.8562 0.883646 26.8673 1.14477 26.9116C1.61145 26.9836 1.85034 27.0832 1.97257 27.2437C2.08924 27.3987 2.08924 27.4264 2.08924 31.7828L2.08924 32.0402C2.08933 35.9786 2.08934 36.3805 1.89051 36.5477C1.86792 36.5667 1.84273 36.5827 1.81471 36.6005L1.80034 36.6096C1.72256 36.6595 1.49478 36.7314 1.29477 36.7702C1.06638 36.8109 0.978121 36.8267 0.940166 36.8788C0.916261 36.9116 0.912309 36.9589 0.905869 37.0359L0.889201 37.2296L4.75599 37.2185V36.8366L4.31154 36.7757C3.53929 36.665 3.46151 36.5654 3.38928 35.6465C3.30595 34.6335 3.35039 27.0998 3.43929 26.9946C3.53373 26.8784 4.01708 26.8396 4.51154 26.9005C5.26712 26.9946 5.85048 27.371 6.18937 27.9855C6.61161 28.7604 6.61161 30.2273 6.19493 30.9967C5.91159 31.5115 5.32824 31.9378 4.6171 32.1536C4.35598 32.2311 4.31154 32.2643 4.31154 32.3806C4.31154 32.5134 4.32265 32.5134 4.76155 32.5079C5.58936 32.4968 6.46161 32.1481 7.04496 31.5835C7.60609 31.0466 7.89499 30.3269 7.89499 29.469C7.88943 27.9523 7.05051 26.8839 5.55602 26.502C5.13934 26.3968 4.91156 26.3802 3.50595 26.3691C2.6337 26.3581 1.71145 26.3747 1.45589 26.3968Z"/>
<path d="M48.4852 27.1828C48.4685 27.2548 48.4296 27.4596 48.3963 27.6423C48.3629 27.8249 48.2574 28.2678 48.1685 28.622C48.074 28.9818 48.0129 29.2974 48.0351 29.3306C48.0518 29.3582 48.1296 29.3859 48.2018 29.3859C48.3129 29.3859 48.3685 29.3195 48.5129 29.0206C48.7352 28.5445 49.0074 28.2567 49.3296 28.1294C49.5463 28.0464 49.7574 28.0298 50.6186 28.0298H51.6464L51.663 31.9322C51.6742 34.08 51.663 35.9675 51.6464 36.1281C51.5908 36.5986 51.4241 36.7369 50.8408 36.82L50.3686 36.8864L50.3519 37.0635L50.3352 37.2351L52.1853 37.2296L54.0353 37.2185V37.0525C54.0353 36.8873 54.0299 36.8864 53.6086 36.821L53.602 36.82C53.1186 36.748 53.0298 36.6982 52.902 36.4159C52.8242 36.2443 52.8131 35.7461 52.7964 32.2367C52.7853 30.0502 52.7909 28.1958 52.8131 28.1294C52.8409 28.0021 52.852 28.0021 53.7576 28.0021C55.4243 28.0021 55.8076 28.1958 55.9299 29.1036C55.9687 29.4136 56.0576 29.5243 56.2299 29.469C56.3299 29.4357 56.341 29.3915 56.341 28.9708C56.341 28.7161 56.3799 28.2069 56.4299 27.836C56.4799 27.4264 56.4965 27.1386 56.4688 27.1109C56.391 27.0334 56.2521 27.1053 56.1854 27.2548C56.0743 27.5039 55.9187 27.5094 52.3853 27.4928L49.0741 27.4762L48.9296 27.3434C48.8518 27.2659 48.7852 27.1773 48.7852 27.133C48.7852 27.0943 48.7241 27.0611 48.6463 27.0611C48.5518 27.0611 48.5018 27.0998 48.4852 27.1828Z"/>
<path d="M132.732 27.7087C132.666 28.063 132.549 28.5612 132.482 28.8102C132.349 29.2918 132.366 29.3859 132.594 29.3859C132.682 29.3859 132.744 29.3029 132.866 29.0261C133.055 28.5944 133.399 28.2235 133.705 28.1183C133.849 28.0685 134.288 28.0353 134.966 28.0187L136.005 27.991L136.038 28.1792C136.06 28.2788 136.066 30.1166 136.049 32.2643C136.038 35.1538 136.01 36.2222 135.96 36.3771C135.871 36.6595 135.688 36.7591 135.155 36.8311L134.705 36.8864V37.2185L136.555 37.2241L138.399 37.2351V36.8698L138.016 36.8311C137.527 36.7812 137.31 36.6539 137.233 36.3716C137.194 36.2222 137.183 34.8162 137.188 32.0927L137.205 28.0298H139.372L139.705 28.1958C140.083 28.384 140.216 28.5833 140.272 29.0483C140.31 29.397 140.394 29.5243 140.549 29.4745C140.649 29.4413 140.666 29.3749 140.699 28.7604C140.733 28.1515 140.799 27.5648 140.872 27.2493C140.922 27.0223 140.727 27.0334 140.533 27.2659L140.355 27.4762L136.988 27.4928C133.327 27.5094 133.305 27.5039 133.166 27.205C133.127 27.1164 133.06 27.0611 132.982 27.0611C132.871 27.0611 132.849 27.1219 132.732 27.7087Z"/>
<path d="M158.322 27.3489C158.3 27.5094 158.194 28.0021 158.089 28.4394C157.983 28.8767 157.905 29.2697 157.922 29.3084C157.939 29.3527 158.011 29.3859 158.083 29.3859C158.189 29.3859 158.244 29.314 158.4 28.9929C158.617 28.5501 158.939 28.2235 159.267 28.1072C159.422 28.0519 159.778 28.0298 160.511 28.0298H161.539V32.1536C161.539 35.9897 161.533 36.2886 161.439 36.4546C161.311 36.6927 161.117 36.7868 160.639 36.8311C160.311 36.8643 160.239 36.8919 160.217 36.9805L160.215 36.9848C160.201 37.0416 160.189 37.0856 160.203 37.1195C160.249 37.2351 160.586 37.2351 162.072 37.2351L163.9 37.2296L163.933 37.1023C163.983 36.9141 163.933 36.8753 163.583 36.8366C163.083 36.7757 162.911 36.7037 162.8 36.51C162.711 36.3439 162.706 36.0173 162.706 32.1813V28.0298L163.645 28.0131C165.267 27.9855 165.633 28.1681 165.795 29.0593C165.845 29.3472 165.889 29.4468 165.967 29.4745C166.178 29.5409 166.233 29.4081 166.233 28.8379C166.239 28.3563 166.295 27.7585 166.378 27.3046C166.428 27.0278 166.261 27.0112 166.039 27.2659L165.856 27.4762L162.489 27.4928C158.811 27.5094 158.778 27.5039 158.7 27.205C158.672 27.0943 158.633 27.0611 158.511 27.0611C158.367 27.0611 158.355 27.0777 158.322 27.3489Z"/>
<path d="M35.9681 27.36C34.5959 27.6201 33.4792 28.2955 32.7569 29.3029C31.7624 30.6868 31.5124 32.6684 32.118 34.3235C32.5847 35.5911 33.5736 36.6096 34.7848 37.058C35.5126 37.3348 36.0459 37.4233 36.8959 37.4289C37.7738 37.4289 38.2071 37.368 39.0016 37.1244L39.5794 36.9473L39.7127 36.6484C39.8794 36.272 40.1016 35.5081 40.1516 35.1538C40.1849 34.9047 40.1738 34.8771 40.0572 34.8494C39.9905 34.8328 39.9127 34.8272 39.8905 34.8438C39.8683 34.8549 39.7571 35.0487 39.6516 35.2701C39.1238 36.355 38.3349 36.8975 37.2015 36.9528C35.6737 37.0359 34.2903 36.1557 33.6125 34.6722C33.0069 33.3327 32.9903 31.2015 33.5847 29.8675C34.0292 28.8656 34.8903 28.1239 35.9237 27.8637C36.357 27.753 37.3793 27.753 37.8015 27.8637C38.6571 28.0851 39.196 28.6165 39.4794 29.5132C39.5849 29.8343 39.6294 29.9173 39.7294 29.9284C39.796 29.9395 39.8738 29.9284 39.9016 29.9007C39.9349 29.8675 39.9127 29.4081 39.8572 28.7715L39.7627 27.6921L39.4571 27.6257C39.3451 27.6041 39.1461 27.5614 38.9411 27.5174C38.8312 27.4938 38.719 27.4698 38.6182 27.4485C37.9293 27.2991 36.5348 27.2548 35.9681 27.36Z"/>
<path fill-rule="evenodd" clip-rule="evenodd" d="M60.5078 27.371C59.0633 27.6755 57.8966 28.6054 57.2632 29.945C55.9743 32.6684 57.0021 35.962 59.4855 37.058C60.5911 37.5451 62.0356 37.5617 63.1301 37.1023C65.3857 36.1557 66.5635 33.3271 65.8135 30.6701C65.1968 28.5113 63.5801 27.2714 61.4023 27.288C61.1078 27.288 60.7078 27.3268 60.5078 27.371ZM62.1245 27.8914C63.2856 28.2456 64.1079 29.3084 64.4968 30.9524C64.6301 31.5115 64.6413 31.6831 64.6468 32.6795C64.6468 34.0135 64.5746 34.401 64.1746 35.2313C63.8357 35.9288 63.4301 36.3605 62.8523 36.6539C62.3356 36.9085 61.9245 36.9916 61.3689 36.9528C59.7689 36.8366 58.6522 35.6188 58.191 33.4821C58.1133 33.1113 58.091 32.7847 58.0966 31.9322C58.1021 30.6701 58.1744 30.2993 58.5911 29.4579C58.9799 28.6774 59.63 28.1072 60.4189 27.8582C60.7856 27.7474 61.7134 27.764 62.1245 27.8914Z"/>
<path fill-rule="evenodd" clip-rule="evenodd" d="M95.0645 27.36C94.1867 27.5482 93.4978 27.9135 92.8311 28.5445C90.7477 30.5318 90.7144 34.2626 92.7644 36.2C93.3867 36.7812 93.9867 37.1078 94.8312 37.3126C95.4645 37.4676 96.4257 37.4732 96.9812 37.3348C98.8035 36.8643 100.104 35.4029 100.487 33.388C100.62 32.6629 100.57 31.423 100.37 30.7144C99.9036 29.0261 98.8313 27.8914 97.2868 27.4485C96.7534 27.2935 95.5979 27.2493 95.0645 27.36ZM96.6868 27.8914C98.0313 28.301 98.9369 29.7347 99.1813 31.827C99.2758 32.6463 99.2202 33.7035 99.0424 34.3789C98.6368 35.9454 97.509 36.9694 96.1757 36.9694C94.3589 36.9694 93.0756 35.569 92.6922 33.1888C92.57 32.4138 92.6144 30.9746 92.7811 30.3602C93.1089 29.1258 93.8311 28.2678 94.8312 27.9135C95.3256 27.7364 96.159 27.7308 96.6868 27.8914Z"/>
<path d="M113.832 27.3655C112.16 27.7862 111.409 29.5575 112.248 31.1241C112.521 31.6278 112.943 32.0429 113.921 32.7515C114.993 33.532 115.226 33.7644 115.465 34.246C115.637 34.5947 115.649 34.6446 115.649 35.2258C115.649 35.7793 115.632 35.8624 115.498 36.117C115.182 36.7203 114.615 37.0082 113.865 36.9528C113.348 36.9141 112.932 36.7148 112.565 36.3273C112.276 36.0284 111.876 35.2811 111.809 34.9379C111.782 34.783 111.754 34.7553 111.615 34.7553C111.459 34.7553 111.454 34.7608 111.454 35.0376C111.454 35.3697 111.593 36.2775 111.698 36.6373C111.759 36.8532 111.809 36.9086 112.054 37.0414C112.737 37.4123 114.026 37.5507 114.76 37.3348C116.004 36.9639 116.676 36.045 116.676 34.7331C116.676 33.4323 116.165 32.6684 114.565 31.5724C113.632 30.9303 113.298 30.6148 113.048 30.1387C112.893 29.8343 112.876 29.7513 112.876 29.3306C112.882 28.611 113.11 28.1847 113.632 27.9246C113.876 27.8028 113.993 27.7807 114.393 27.7807C114.66 27.7862 114.965 27.8194 115.082 27.8582C115.554 28.0298 115.887 28.4172 116.104 29.0483C116.21 29.3583 116.249 29.4136 116.365 29.4302C116.465 29.4413 116.521 29.4191 116.549 29.3527C116.587 29.242 116.482 28.1349 116.393 27.8028L116.337 27.5814L115.826 27.4541C115.182 27.2935 114.282 27.2493 113.832 27.3655Z"/>
<path fill-rule="evenodd" clip-rule="evenodd" d="M144.038 27.4541C143.944 27.5482 143.799 27.6755 143.705 27.7308C143.577 27.8139 143.533 27.8914 143.477 28.1515C143.349 28.7936 140.783 36.1613 140.588 36.4546C140.455 36.6595 140.183 36.7978 139.833 36.8366C139.505 36.8753 139.41 36.9584 139.488 37.1521C139.516 37.2241 139.694 37.2351 140.888 37.2296L142.26 37.2185V37.0525C142.26 36.8919 142.249 36.8864 141.883 36.8255C141.677 36.7923 141.494 36.748 141.472 36.7314C141.366 36.6207 141.483 36.0727 141.949 34.5339C142.149 33.8751 142.26 33.5928 142.349 33.5209C142.46 33.4323 142.588 33.4212 143.749 33.4379C144.877 33.4545 145.027 33.4655 145.088 33.5486C145.172 33.6593 145.899 36.117 145.938 36.4159C145.972 36.6705 145.883 36.748 145.438 36.8311C145.111 36.8919 145.094 36.8975 145.094 37.058V37.2185H151.316V37.0525C151.316 36.8919 151.311 36.8864 150.927 36.8255C150.716 36.7923 150.483 36.748 150.411 36.7259C150.077 36.6152 150.011 36.0284 149.972 32.8732C149.944 30.4543 149.972 29.3527 150.066 29.4136C150.089 29.4247 150.427 29.8564 150.822 30.3657C151.211 30.8805 152.383 32.364 153.416 33.6648C154.45 34.9656 155.533 36.3495 155.828 36.737L156.064 37.0493C156.243 37.2854 156.37 37.4526 156.378 37.4566C156.383 37.4676 156.439 37.451 156.494 37.4233C156.589 37.368 156.594 37.1909 156.578 33.7755C156.561 30.3214 156.605 28.7715 156.733 28.3287C156.794 28.1128 156.989 27.9965 157.45 27.8969C157.744 27.8305 157.839 27.7253 157.739 27.5703C157.705 27.5094 157.378 27.4928 156.205 27.4928C154.928 27.4928 154.711 27.5039 154.672 27.5759C154.6 27.6976 154.672 27.8305 154.811 27.8582C155.366 27.9633 155.561 28.0187 155.661 28.0851C155.933 28.2733 156.011 29.2309 156.011 32.4415C156.011 33.8087 155.994 34.9213 155.966 34.9213C155.905 34.9213 155.361 34.2682 153.616 32.0983C151.361 29.2974 150.861 28.6387 150.389 27.8194L150.205 27.4984L149.15 27.4928C148.238 27.4928 148.088 27.5039 148.038 27.5814C147.961 27.7087 148.072 27.8582 148.266 27.8803C148.816 27.9357 149.222 28.229 149.338 28.6497C149.377 28.7881 149.4 29.9948 149.4 32.0429C149.4 35.0763 149.355 36.3052 149.227 36.5321C149.044 36.8753 147.938 36.9639 147.494 36.6705C147.383 36.5986 147.25 36.4214 147.144 36.1945C147.005 35.9177 145.061 29.7015 144.472 27.67C144.411 27.4596 144.333 27.3046 144.283 27.2935C144.238 27.288 144.127 27.36 144.038 27.4541ZM144.377 31.0521C144.644 31.9322 144.844 32.6906 144.822 32.7349C144.799 32.8068 144.616 32.8179 143.677 32.8179C142.577 32.8179 142.566 32.8179 142.566 32.6961C142.566 32.5909 143.644 29.2697 143.722 29.1368C143.772 29.0538 143.872 29.3417 144.377 31.0521Z"/>
<path d="M168.956 27.3655C167.7 27.7142 167 28.6885 167.078 29.9727C167.128 30.7255 167.417 31.3289 168.011 31.9156C168.172 32.0761 168.689 32.4858 169.156 32.8234C170.411 33.7257 170.695 34.0855 170.806 34.9324C170.917 35.7406 170.617 36.427 170.011 36.7702C169.728 36.9307 169.667 36.9418 169.178 36.9418C168.706 36.9418 168.617 36.9251 168.317 36.7812C167.734 36.4934 167.25 35.8679 167.006 35.0874C166.922 34.8106 166.9 34.7829 166.756 34.7829H166.595L166.611 35.1427C166.628 35.5247 166.75 36.3052 166.845 36.6484C166.917 36.9085 167.1 37.0359 167.65 37.2185C168.961 37.6614 170.311 37.4399 171.095 36.665C172.089 35.6741 172.095 33.8917 171.111 32.7293C170.789 32.3474 170.628 32.2145 169.617 31.5005C168.389 30.6314 168.072 30.2273 168.022 29.4634C167.972 28.7161 168.278 28.1405 168.85 27.8969C169.095 27.7917 169.217 27.7751 169.645 27.7917C170.539 27.8249 170.961 28.1737 171.289 29.1368C171.367 29.3638 171.411 29.4191 171.523 29.4302C171.617 29.4413 171.678 29.4136 171.7 29.3527C171.745 29.242 171.639 28.2124 171.55 27.8471L171.484 27.5925L171.011 27.4596C170.389 27.2935 169.395 27.2437 168.956 27.3655Z"/>
<path fill-rule="evenodd" clip-rule="evenodd" d="M9.86725 27.5094C9.37834 27.5371 8.95055 27.5703 8.9061 27.5869C8.86166 27.6035 8.83943 27.681 8.85055 27.7917C8.86721 27.9689 8.87832 27.9744 9.145 28.0076C9.56724 28.0574 9.66724 28.1017 9.7728 28.2955C9.86169 28.456 9.86725 28.777 9.88391 32.0983C9.89502 34.091 9.88391 35.879 9.86725 36.0727C9.81724 36.5709 9.66168 36.7259 9.145 36.82C8.76721 36.8864 8.7561 36.8919 8.7561 37.0525V37.2185H12.0895V37.058C12.0895 36.903 12.0729 36.8919 11.7118 36.8034C11.2506 36.6871 11.134 36.5875 11.0617 36.2C10.9784 35.7572 10.9895 32.9452 11.0728 32.8954C11.2117 32.8068 12.034 32.8511 12.2062 32.9507C12.4224 33.0778 12.445 33.1166 13.168 34.3594L13.1729 34.3678C13.9729 35.7461 14.2785 36.2 14.7007 36.6152C15.2341 37.1521 15.7397 37.3569 16.5452 37.3569C16.7952 37.3569 17.0675 37.3292 17.1564 37.296C17.2564 37.2573 17.8786 37.2351 18.9398 37.2351H20.562L20.5954 37.1023C20.6398 36.9196 20.5954 36.8753 20.3009 36.8366C19.8787 36.7757 19.6898 36.6982 19.5787 36.5377C19.4842 36.3993 19.4787 36.1613 19.462 32.4581C19.4509 28.9818 19.4564 28.5003 19.5342 28.2955C19.6342 28.0353 19.8676 27.8914 20.2009 27.8914C20.312 27.8914 20.4509 27.8637 20.512 27.836C20.6232 27.7751 20.6565 27.5869 20.5565 27.5316C20.5287 27.5094 19.7676 27.4928 18.8675 27.4928C17.9675 27.4928 17.2064 27.5094 17.1786 27.5316C17.0786 27.5869 17.1119 27.7751 17.223 27.836C17.2842 27.8637 17.4175 27.8914 17.5231 27.8914C17.8064 27.8914 18.0397 27.991 18.1564 28.1571C18.2509 28.2955 18.2564 28.5445 18.2731 32.2256C18.2842 34.8715 18.2675 36.2166 18.2286 36.3605C18.1509 36.6428 18.0008 36.7369 17.5342 36.8144C17.2508 36.8643 17.1508 36.903 17.1286 36.9805C17.1008 37.0968 16.9397 37.0746 16.6175 36.9141C16.273 36.7425 15.5508 35.9232 14.9952 35.0819C14.4285 34.2294 13.5785 32.7736 13.534 32.5743C13.5063 32.4802 13.5507 32.4304 13.7729 32.3086C14.4118 31.9544 14.9174 31.3344 15.0896 30.6923C15.1619 30.4321 15.1785 30.1941 15.1619 29.7955C15.1452 29.325 15.1174 29.1977 14.9674 28.8767C14.6563 28.218 14.1452 27.8305 13.2951 27.6091C12.7785 27.4707 11.2673 27.4264 9.86725 27.5094ZM12.5673 28.0574C13.4618 28.3397 13.9507 29.1092 13.9507 30.2384C13.9507 31.268 13.6174 31.9045 12.9229 32.2145C12.6951 32.3197 12.5173 32.3474 11.9451 32.364C11.4784 32.3806 11.2062 32.364 11.1228 32.3252L11.0062 32.2588L11.0173 30.172L11.034 28.0906L11.1728 28.0187C11.3951 27.908 12.1618 27.9301 12.5673 28.0574Z"/>
<path d="M21.2787 27.526C21.1954 27.6146 21.2231 27.7751 21.3287 27.8249C21.3787 27.8526 21.5343 27.8914 21.6676 27.9135C22.0676 27.9744 22.3232 28.1515 22.4843 28.4781L22.6232 28.766L22.601 32.4359C22.5899 34.8549 22.5621 36.1834 22.5176 36.3273C22.4287 36.6428 22.2954 36.748 21.8787 36.82C21.5009 36.8809 21.4065 36.9584 21.4787 37.1466C21.5065 37.2185 21.7343 37.2296 23.0232 37.2241L24.5344 37.2185V37.0525C24.5344 36.8872 24.5289 36.8864 24.1348 36.8264L24.1288 36.8255C23.4343 36.7203 23.3843 36.6595 23.2843 35.7793C23.2121 35.1151 23.2065 29.3693 23.2843 29.4136C23.3121 29.4302 23.5843 29.7623 23.8788 30.1498C24.1788 30.5373 25.4344 32.137 26.6733 33.7035C27.9122 35.2701 29.0845 36.7591 29.279 37.0137C29.579 37.4067 29.6401 37.4621 29.729 37.4123C29.829 37.3569 29.8345 37.213 29.8512 32.9673C29.8679 29.6406 29.8901 28.5335 29.9401 28.3729C30.029 28.1183 30.2068 27.9965 30.6068 27.919C30.9401 27.8526 31.0735 27.7308 30.979 27.5814C30.929 27.5094 30.729 27.4928 29.4234 27.4928H27.9234L27.9067 27.6589C27.8845 27.8471 27.9122 27.8637 28.3734 27.919C28.9734 27.9965 29.0678 28.1349 29.1734 29.159C29.2401 29.8564 29.2512 34.9379 29.179 34.9103C29.0956 34.8826 28.4789 34.1298 26.6511 31.8547C24.7399 29.48 24.0177 28.5224 23.6621 27.8914L23.4288 27.4762H22.3843C21.7954 27.4762 21.312 27.4984 21.2787 27.526Z"/>
<path d="M40.9516 27.5869C40.8739 27.7973 40.9294 27.8471 41.3628 27.919C41.4794 27.9356 41.635 27.991 41.7072 28.0408C41.9739 28.2124 41.9794 28.2622 41.9794 32.375C41.9794 35.8513 41.9683 36.2443 41.885 36.427C41.7683 36.6816 41.5794 36.7812 41.1072 36.8311C40.8238 36.8643 40.7238 36.8919 40.7016 36.9694L40.695 36.9893C40.6813 37.0298 40.6701 37.0631 40.6783 37.0906C40.717 37.2192 41.1822 37.2207 43.8221 37.2289L44.0295 37.2296L47.3296 37.2351L47.4185 37.0082C47.563 36.6207 47.8963 35.4195 47.8963 35.2811C47.8963 35.1151 47.7074 34.9988 47.6185 35.0985C47.5852 35.1372 47.4407 35.3752 47.3018 35.6188C47.0018 36.1613 46.774 36.4436 46.5629 36.5543C46.1851 36.748 44.3573 36.7978 43.7628 36.6318C43.4517 36.5432 43.2573 36.3273 43.1795 35.9841C43.1406 35.8015 43.1184 35.0708 43.1184 34.0966C43.1184 32.6906 43.1295 32.4913 43.2073 32.4636C43.3462 32.4138 44.9573 32.4249 45.2018 32.4858C45.4962 32.5522 45.6518 32.7459 45.7296 33.1334C45.7629 33.3105 45.8129 33.5098 45.8407 33.5762C45.8962 33.7091 46.0851 33.7478 46.1462 33.6482C46.1685 33.615 46.1796 32.9397 46.1796 32.1426C46.1796 30.9192 46.1685 30.6867 46.1018 30.648C45.974 30.5816 45.8518 30.6535 45.8185 30.8141C45.8067 30.8726 45.7839 30.9943 45.7598 31.1231L45.7596 31.1243L45.7296 31.2846C45.6185 31.8547 45.5073 31.8935 44.0628 31.8658L43.1461 31.8492V28.0298H44.424C45.624 28.0298 45.7129 28.0353 45.924 28.1515C46.3018 28.3508 46.474 28.5999 46.6463 29.1811C46.7296 29.4745 46.7518 29.4966 46.9018 29.4966C47.0518 29.4966 47.0629 29.48 47.0629 29.2863C47.0629 29.0483 46.9074 27.5537 46.8796 27.526C46.8685 27.515 45.5407 27.4984 43.9295 27.4928C41.035 27.4762 40.9905 27.4762 40.9516 27.5869Z"/>
<path d="M66.808 27.4984C66.7969 27.5094 66.7858 27.5925 66.7858 27.6755C66.7858 27.836 66.8691 27.8914 67.1135 27.8914C67.1969 27.8914 67.4024 27.9578 67.5691 28.0408C67.7969 28.1571 67.9025 28.2567 68.008 28.4449L68.1469 28.694L68.1636 31.6001C68.1802 34.2183 68.1302 35.9565 68.0247 36.4325C67.9802 36.6373 67.7969 36.7536 67.3802 36.8255C67.0469 36.8864 67.0358 36.8919 67.0358 37.0525V37.2185L68.5469 37.2296C69.947 37.2351 70.0636 37.2296 70.0914 37.1355C70.1525 36.9418 70.0692 36.8698 69.7136 36.8311C69.3025 36.7812 69.0358 36.6816 68.9636 36.5432C68.808 36.2554 68.7691 35.5801 68.7469 32.6518C68.7303 30.9857 68.7414 29.5797 68.7691 29.5077C68.8136 29.3915 68.9025 29.4856 69.7081 30.5318C70.197 31.1628 71.4526 32.7625 72.5026 34.0855C73.5526 35.4085 74.5749 36.7093 74.7749 36.9805C75.1027 37.4233 75.1471 37.4621 75.2416 37.4012C75.336 37.3348 75.3416 37.1466 75.3638 33.067C75.3805 28.8269 75.4027 28.3342 75.5749 28.1294C75.6305 28.063 76.0138 27.9357 76.3583 27.8637C76.4916 27.836 76.5138 27.8083 76.4972 27.6644L76.4805 27.4928H74.9805C73.7193 27.4928 73.4749 27.5039 73.4304 27.5759C73.4026 27.6201 73.3971 27.6976 73.4137 27.7419C73.4471 27.836 73.4693 27.8416 74.0249 27.9523C74.2082 27.9855 74.3971 28.0574 74.4527 28.1128C74.5916 28.2512 74.6749 28.6774 74.7305 29.635C74.7971 30.6591 74.8027 34.7553 74.7416 34.8549C74.6805 34.949 74.4916 34.7331 72.1859 31.8603C70.197 29.3859 69.7414 28.7826 69.2469 27.9744L68.9636 27.5039L67.8969 27.4873C67.3135 27.4818 66.8191 27.4873 66.808 27.4984Z"/>
<path d="M101.176 27.4928C101.142 27.5039 101.12 27.5814 101.12 27.67C101.12 27.8305 101.204 27.8914 101.42 27.8914C101.859 27.8914 102.337 28.2456 102.448 28.6497C102.526 28.921 102.526 34.8881 102.454 35.735C102.37 36.6595 102.337 36.7148 101.704 36.8255C101.381 36.8864 101.37 36.8919 101.37 37.0525V37.2185H104.426V37.0525C104.426 36.8919 104.42 36.8864 104.037 36.8255C103.826 36.7923 103.593 36.748 103.52 36.7259C103.343 36.6705 103.248 36.4436 103.176 35.9398C103.098 35.4085 103.037 29.9616 103.104 29.6073L103.154 29.3583L103.759 30.1553C104.098 30.5926 105.331 32.1647 106.504 33.6427C107.676 35.1206 108.826 36.582 109.054 36.8864L109.133 36.9927C109.325 37.2491 109.477 37.4517 109.482 37.4566C109.493 37.4676 109.543 37.4566 109.593 37.4289C109.676 37.3791 109.687 37.0137 109.698 33.1168L109.7 32.649C109.711 28.9464 109.713 28.2514 110.03 28.0517C110.103 28.0056 110.193 27.9859 110.304 27.9616C110.325 27.9569 110.348 27.9519 110.371 27.9467C110.809 27.8471 110.832 27.836 110.865 27.7474C110.882 27.6976 110.876 27.6257 110.854 27.5758C110.815 27.5094 110.576 27.4928 109.332 27.4928C108.515 27.4928 107.826 27.5094 107.793 27.526C107.626 27.6312 107.82 27.8914 108.059 27.8914C108.143 27.8914 108.343 27.9301 108.498 27.9744C109.043 28.1349 109.071 28.3231 109.104 32.0263C109.121 33.8475 109.109 34.9213 109.076 34.9213C109.009 34.9213 108.176 33.9139 106.254 31.5171C104.526 29.3583 103.959 28.6054 103.576 27.9467L103.315 27.4984L102.27 27.4873C101.698 27.4817 101.204 27.4817 101.176 27.4928Z"/>
<path d="M117.476 27.4984C117.465 27.5094 117.454 27.5869 117.454 27.6699C117.454 27.8083 117.476 27.8194 117.849 27.8748C118.237 27.9356 118.399 28.0242 118.526 28.2512C118.576 28.3287 118.604 29.2531 118.626 31.3787C118.66 34.1796 118.671 34.4342 118.776 34.9213C119.154 36.6152 120.221 37.4233 122.065 37.4289C123.832 37.4344 124.971 36.5653 125.393 34.8937C125.577 34.1685 125.621 33.4766 125.621 31.506C125.621 29.6682 125.677 28.5335 125.788 28.2567C125.86 28.0574 126.132 27.908 126.493 27.8637C126.804 27.8249 126.91 27.7308 126.81 27.5758C126.732 27.4541 123.849 27.4541 123.777 27.5758C123.688 27.7419 123.788 27.8305 124.11 27.8692C124.727 27.9412 124.849 28.0906 124.954 28.8933C125.049 29.6129 125.093 32.7902 125.015 33.5652C124.904 34.7829 124.615 35.5856 124.093 36.1114C123.588 36.6262 122.86 36.8532 122.026 36.748C120.849 36.5986 120.193 35.9288 119.882 34.5726C119.782 34.1076 119.765 33.8364 119.749 31.4562C119.732 29.7181 119.743 28.7383 119.782 28.5224C119.865 28.0796 119.999 27.9578 120.476 27.8803C120.86 27.8194 120.965 27.7308 120.865 27.5758C120.821 27.5094 120.538 27.4928 119.16 27.4873C118.249 27.4817 117.487 27.4873 117.476 27.4984Z"/>
<path d="M127.088 27.4984C127.077 27.5094 127.066 27.5925 127.066 27.6755C127.066 27.8471 127.088 27.8582 127.582 27.9135C127.927 27.9523 128.043 28.0187 128.16 28.2401C128.254 28.4006 128.26 28.7106 128.277 32.1426C128.288 34.5892 128.271 35.9731 128.232 36.1834C128.149 36.6318 128.021 36.7425 127.488 36.8144L127.066 36.8753V37.2185L130.232 37.2241L133.399 37.2351L133.532 36.8089C133.644 36.4491 133.832 35.7184 133.932 35.2645C133.949 35.1704 133.927 35.1261 133.832 35.0929C133.644 35.021 133.605 35.0542 133.438 35.4638C133.194 36.0561 132.916 36.4214 132.594 36.582C132.332 36.7093 132.266 36.7148 131.343 36.7203C130.21 36.7203 129.927 36.665 129.682 36.3827C129.588 36.2775 129.499 36.0893 129.46 35.9177C129.388 35.5745 129.377 28.8269 129.449 28.4449C129.51 28.1571 129.699 27.9633 129.982 27.919C130.035 27.9108 130.106 27.9011 130.176 27.8914C130.247 27.8817 130.318 27.872 130.371 27.8637C130.527 27.836 130.566 27.8083 130.566 27.7087C130.566 27.6423 130.543 27.5592 130.521 27.5316C130.482 27.4762 127.143 27.4485 127.088 27.4984Z"/>
<path d="M16.9675 42.1118C16.4453 42.3498 15.8786 43.2078 15.5952 44.1931L15.4675 44.636L15.1119 44.6637C14.7952 44.6858 14.7563 44.7024 14.7397 44.8131C14.723 44.9349 14.7397 44.9404 15.0619 44.9404C15.3619 44.9404 15.4008 44.9515 15.373 45.0345C15.3286 45.1784 15.0508 46.3409 14.7285 47.7635C14.4008 49.1805 14.273 49.5569 14.0896 49.6787C13.9285 49.7839 13.773 49.7452 13.4952 49.5293C13.2452 49.33 13.1563 49.33 13.0729 49.5071C12.9729 49.7175 12.9896 49.8337 13.134 49.9666C13.4007 50.2157 13.8452 50.1714 14.273 49.8614C14.6841 49.5625 14.8785 49.0588 15.4341 46.8723L15.923 44.9681L16.423 44.9404C16.8897 44.9127 16.9231 44.9017 16.9397 44.7854C16.9564 44.6692 16.9453 44.6637 16.4786 44.6637H15.9952L16.0341 44.481C16.123 44.0824 16.4175 43.23 16.5786 42.9311C16.7453 42.61 17.112 42.2281 17.2508 42.2281C17.4064 42.2281 17.6175 42.455 17.6509 42.6654C17.7064 43.003 17.7564 43.0473 17.9175 42.8979C17.9953 42.8259 18.0731 42.6986 18.0898 42.61C18.1287 42.4329 18.0009 42.1506 17.8453 42.062C17.6731 41.9734 17.2231 42.0011 16.9675 42.1118Z"/>
<path d="M56.8965 42.0731C56.5632 42.145 56.5187 42.2004 56.6632 42.3554C56.7299 42.4273 56.7854 42.5215 56.7854 42.5657C56.7854 42.6156 56.4243 43.8278 55.9798 45.267C55.5354 46.7062 55.1854 47.9019 55.202 47.9351C55.2243 47.9628 55.2965 47.9849 55.3687 47.9849C55.4854 47.9849 55.552 47.8853 55.8632 47.2653C56.3799 46.2357 56.8743 45.5438 57.4077 45.112C58.0688 44.5751 58.1577 44.9349 57.7188 46.4294C57.5077 47.1767 57.4077 47.4314 57.2688 47.5808C57.1632 47.6971 57.1521 47.7026 57.0077 47.614C56.791 47.4867 56.6632 47.5531 56.6854 47.7746C56.7021 47.9295 56.7243 47.9628 56.8632 47.9738C57.1132 48.0015 57.3299 47.8797 57.5966 47.5531C58.0132 47.0439 58.391 46.1471 58.5133 45.3888C58.5633 45.0401 58.5577 44.9681 58.4688 44.7854C58.3799 44.6028 58.341 44.5806 58.1355 44.564C57.9799 44.5529 57.8243 44.5862 57.6632 44.6692C57.3577 44.8242 56.7854 45.3722 56.4687 45.815C56.3298 46.0088 56.2076 46.1527 56.1965 46.1471C56.1854 46.1361 56.4632 45.2227 56.8132 44.1212C57.1632 43.0196 57.4521 42.0897 57.4521 42.062C57.4521 41.9956 57.2354 42.0011 56.8965 42.0731Z"/>
<path d="M67.9525 42.1008C67.5414 42.2059 67.5025 42.2557 67.6969 42.4163C67.8414 42.527 67.8525 42.5657 67.8191 42.7429C67.7969 42.8536 67.4858 43.9108 67.1247 45.0899C66.3763 47.5236 66.328 47.6807 66.3567 47.8222C66.3587 47.832 66.361 47.8417 66.3635 47.852C66.3969 47.9683 66.4302 47.9849 66.6524 47.9849C66.9747 47.9849 67.2747 47.8299 67.5358 47.531C67.7914 47.2376 67.9691 46.8944 67.8969 46.8501C67.8691 46.8335 67.6636 47.0051 67.4414 47.2376C67.0247 47.6638 66.8969 47.7358 66.8969 47.5365C66.8969 47.4369 68.358 42.5934 68.5025 42.2115C68.5358 42.1229 68.5636 42.0454 68.5636 42.0288C68.5636 41.9845 68.2525 42.0177 67.9525 42.1008Z"/>
<path fill-rule="evenodd" clip-rule="evenodd" d="M90.9977 42.0731C90.7588 42.134 90.731 42.217 90.8977 42.3665C90.9588 42.4218 91.0088 42.5048 91.0088 42.5491C91.0088 42.6156 90.4977 44.2928 90.3699 44.6526C90.3477 44.7135 90.3199 44.7079 90.2199 44.6415C89.8699 44.3924 89.2532 44.636 88.6143 45.267C88.2698 45.6102 88.1421 45.7873 87.9365 46.2136C87.7754 46.5457 87.6532 46.8834 87.6143 47.1324C87.5532 47.4867 87.5532 47.5421 87.6532 47.7413C87.7532 47.9461 87.7698 47.9572 88.0476 47.9738C88.5199 48.0015 88.9199 47.7137 89.5199 46.9166C89.8643 46.4461 89.9032 46.4571 89.731 46.9664C89.4532 47.7579 89.4699 47.9849 89.8088 47.9849C90.1143 47.9849 90.8699 47.3373 90.981 46.983C91.0533 46.7616 90.9533 46.8114 90.5644 47.1767C90.1755 47.5421 90.0977 47.5863 90.0421 47.4922C89.9977 47.4258 90.5921 45.4331 91.2033 43.5787C91.4644 42.7816 91.6755 42.1008 91.6755 42.0675C91.6755 41.9956 91.2866 41.9956 90.9977 42.0731ZM90.0977 44.9183C90.181 45.0401 90.1866 45.0954 90.1255 45.339C89.9255 46.2136 88.8421 47.5697 88.2421 47.686C88.0865 47.7192 88.0643 47.7026 88.0309 47.5753C87.9087 47.0937 89.0754 45.184 89.7032 44.8408C89.881 44.7411 89.9977 44.7633 90.0977 44.9183Z"/>
<path d="M154.372 42.1008C153.994 42.2115 153.966 42.2558 154.144 42.4218C154.272 42.5381 154.289 42.5934 154.261 42.7429C154.239 42.837 153.9 43.9773 153.505 45.2726C153.077 46.6509 152.789 47.6915 152.8 47.7912C152.816 47.9462 152.833 47.9572 153.083 47.9738C153.45 47.996 153.778 47.8022 154.1 47.3649C154.322 47.0605 154.411 46.8225 154.3 46.8225C154.278 46.8225 154.128 46.9719 153.961 47.1546C153.622 47.5421 153.416 47.6915 153.344 47.6196C153.311 47.5864 153.605 46.5291 154.139 44.7854L154.994 42.0067L154.822 42.0122C154.728 42.0122 154.528 42.0509 154.372 42.1008Z"/>
<path d="M46.7351 42.7927C46.5573 43.1691 46.4795 43.3794 46.5184 43.4182C46.5518 43.4569 46.6129 43.4182 46.6907 43.3075C46.8962 43.0141 47.174 42.7871 47.3851 42.7263C47.6963 42.6432 48.5574 42.6543 48.5963 42.7429C48.6241 42.8204 47.5296 46.7173 47.3351 47.2431C47.2018 47.5974 47.1185 47.6694 46.7907 47.7081C46.624 47.7247 46.5295 47.7635 46.5184 47.8188C46.5073 47.8963 46.6351 47.9074 47.5074 47.9074C48.3907 47.9074 48.5074 47.8963 48.4963 47.8244C48.4852 47.769 48.3963 47.7247 48.2407 47.7026C47.9963 47.6694 47.8963 47.5919 47.8963 47.4258C47.8963 47.2764 49.1741 42.8204 49.2408 42.7373C49.2908 42.682 49.4463 42.6654 49.8852 42.682C50.413 42.6986 50.4686 42.7097 50.5686 42.8314C50.6408 42.92 50.6741 43.0473 50.6741 43.23C50.6741 43.4348 50.6964 43.5012 50.7575 43.5012C50.8019 43.5012 50.8408 43.4569 50.8408 43.4016C50.8464 43.3518 50.9297 43.0861 51.0353 42.8148C51.2297 42.2945 51.2353 42.1561 51.0519 42.3222C50.9464 42.4163 50.8019 42.4218 49.0796 42.4218C47.374 42.4218 47.2129 42.4163 47.1518 42.3222C47.1129 42.2724 47.0629 42.2281 47.0462 42.2281C47.0296 42.2281 46.8907 42.4827 46.7351 42.7927Z"/>
<path d="M137.399 42.4273C136.666 42.6211 135.938 43.0916 135.527 43.6396C134.844 44.5419 134.594 45.5825 134.816 46.5346C135.027 47.4147 135.627 47.9185 136.577 48.0181C136.883 48.0458 137.41 47.9849 138.049 47.8465C138.183 47.8133 138.36 47.5199 138.56 46.983C138.666 46.7062 138.671 46.601 138.566 46.601C138.544 46.601 138.444 46.7228 138.344 46.8723C137.96 47.4756 137.444 47.7856 136.844 47.7801C136.221 47.7746 135.799 47.5089 135.56 46.9664C135.371 46.5512 135.349 45.6711 135.499 45.0622C135.771 43.9883 136.371 43.1912 137.205 42.7982C137.583 42.6211 137.705 42.5879 138.116 42.5713C138.527 42.5547 138.621 42.5713 138.777 42.6709C139.021 42.8259 139.144 43.1137 139.099 43.4569C139.071 43.6673 139.077 43.7226 139.144 43.7226C139.238 43.7226 139.599 42.6266 139.527 42.5602C139.305 42.3498 137.994 42.2668 137.399 42.4273Z"/>
<path d="M9.13944 42.444C9.06166 42.5214 9.145 42.61 9.32834 42.6432C9.58946 42.693 9.6728 42.7595 9.6728 42.9255C9.6728 43.0695 8.62276 46.7616 8.45053 47.221C8.31164 47.5919 8.25608 47.6417 7.94496 47.6971C7.79496 47.7247 7.69495 47.769 7.68384 47.8188C7.67273 47.8908 7.80607 47.9019 8.61721 47.9074C9.48946 47.9074 9.56168 47.9019 9.56168 47.8078C9.56168 47.7303 9.51723 47.7081 9.37834 47.7081C9.18389 47.7081 9.00611 47.5753 9.00611 47.4258C9.00611 47.3815 9.28389 46.363 9.62835 45.1618C10.3173 42.7429 10.3339 42.7097 10.7784 42.6377C10.9339 42.61 11.0062 42.5713 11.0062 42.5104C11.0062 42.4329 10.8951 42.4218 10.0839 42.4218C9.57835 42.4218 9.15056 42.4329 9.13944 42.444Z"/>
<path d="M94.8256 42.4716C94.7867 42.5768 94.8145 42.5934 95.0756 42.6432C95.3756 42.6986 95.4312 42.7871 95.3534 43.1082C95.3201 43.2577 95.0534 44.0603 94.7589 44.8906C93.82 47.5476 93.7756 47.6362 93.3533 47.6915C93.1867 47.7137 93.12 47.7469 93.12 47.8133C93.12 47.8908 93.22 47.9019 93.9533 47.9019C94.67 47.9019 94.7867 47.8908 94.7867 47.8133C94.7867 47.7579 94.7034 47.7137 94.5534 47.6749C94.3367 47.6306 94.3145 47.6085 94.2978 47.448C94.2867 47.3317 94.4923 46.6232 94.8978 45.4275C95.2367 44.4146 95.5478 43.5068 95.5867 43.4182L95.659 43.2521L95.6923 43.5289C95.709 43.6783 95.8034 44.6913 95.9034 45.7707C95.9979 46.8501 96.0923 47.7469 96.1034 47.7635C96.1367 47.7967 96.1923 47.7192 96.6312 47.0439C97.0701 46.363 99.2369 43.2687 99.2646 43.2909C99.2924 43.3241 98.2313 47.0605 98.1257 47.293C97.9979 47.5753 97.8979 47.6583 97.6201 47.6915C97.4646 47.7137 97.3979 47.7469 97.3979 47.8133C97.3979 47.8908 97.509 47.9019 98.359 47.9019C99.1702 47.9019 99.3146 47.8908 99.3146 47.8188C99.3146 47.7635 99.2424 47.7247 99.0924 47.7081C98.7979 47.6694 98.7313 47.6196 98.7313 47.4535C98.7313 47.293 99.6202 43.7614 99.7924 43.2411C99.9202 42.848 100.076 42.6986 100.398 42.6432C100.554 42.6156 100.62 42.5768 100.62 42.5159C100.62 42.4329 100.542 42.4218 99.998 42.4218H99.3813L99.1757 42.8093C98.9868 43.1746 96.6701 46.5069 96.559 46.5734C96.5312 46.5955 96.509 46.5678 96.509 46.518C96.509 46.4682 96.4312 45.7652 96.3368 44.9515C96.2423 44.1378 96.159 43.2411 96.1534 42.9643L96.1479 42.4495H95.5812C95.2701 42.4495 94.9812 42.4329 94.9367 42.4163C94.8923 42.3997 94.8423 42.4273 94.8256 42.4716Z"/>
<path d="M35.8181 42.9587C35.607 43.2909 35.6681 43.6119 35.9459 43.6119C36.0292 43.6119 36.1459 43.5676 36.1959 43.5068C36.3237 43.3684 36.3737 43.0252 36.2848 42.92C36.1792 42.7927 35.9126 42.8148 35.8181 42.9587Z"/>
<path d="M158.539 42.9698C158.417 43.158 158.444 43.5787 158.583 43.6009C158.867 43.6562 159.067 43.4569 159.067 43.1248C159.067 42.9311 158.972 42.837 158.778 42.837C158.678 42.837 158.594 42.8813 158.539 42.9698Z"/>
<path d="M33.2902 44.2706L33.2825 44.2856C33.068 44.7025 33.0649 44.7084 32.8069 44.7467C32.468 44.7965 32.3958 44.8242 32.3958 44.9183C32.3958 44.9736 32.4735 44.9958 32.6735 44.9958C32.8347 44.9958 32.9513 45.0179 32.9513 45.0567C32.9513 45.0899 32.7735 45.6766 32.5624 46.3686C32.3402 47.0771 32.1735 47.6915 32.1846 47.7912C32.2013 47.9351 32.2235 47.9572 32.3846 47.9738C32.6235 47.996 33.018 47.7524 33.418 47.3151C33.9069 46.7892 33.9236 46.5125 33.4402 46.9719C33.068 47.3206 32.8513 47.4646 32.7847 47.3981C32.7402 47.3483 33.4013 45.1342 33.4902 45.0456C33.5125 45.0235 33.7236 44.9958 33.9514 44.9847C34.3347 44.9681 34.368 44.957 34.3847 44.8408C34.4014 44.7245 34.3847 44.719 33.9847 44.719H33.5625L33.5958 44.564C33.6148 44.4928 33.6543 44.3525 33.6897 44.2267L33.7069 44.1655C33.7625 43.9773 33.768 43.9108 33.7125 43.8776C33.568 43.7835 33.5013 43.8499 33.2902 44.2706Z"/>
<path d="M131.071 44.2706L131.064 44.2856C130.849 44.7025 130.846 44.7084 130.588 44.7467C130.249 44.7965 130.177 44.8242 130.177 44.9183C130.177 44.9736 130.255 44.9958 130.455 44.9958C130.616 44.9958 130.732 45.0179 130.732 45.0567C130.732 45.0899 130.555 45.6766 130.343 46.3686C130.121 47.0771 129.955 47.6915 129.966 47.7912C129.982 47.9351 130.005 47.9572 130.166 47.9738C130.405 47.996 130.799 47.7524 131.199 47.3151C131.71 46.7671 131.705 46.5125 131.193 46.9996C130.838 47.3373 130.632 47.4646 130.566 47.3926C130.521 47.3483 131.188 45.1286 131.271 45.0456C131.293 45.0235 131.505 44.9958 131.732 44.9847C132.116 44.9681 132.149 44.957 132.166 44.8408C132.182 44.7245 132.166 44.719 131.766 44.719H131.343L131.377 44.564C131.396 44.4931 131.435 44.3537 131.47 44.2283L131.471 44.2252L131.488 44.1655C131.543 43.9773 131.549 43.9108 131.493 43.8776C131.349 43.7835 131.282 43.8499 131.071 44.2706Z"/>
<path d="M156.022 44.2706C155.794 44.6913 155.778 44.7135 155.55 44.7467C155.194 44.802 155.122 44.8297 155.122 44.9183C155.122 44.9736 155.194 44.9958 155.4 44.9958C155.594 44.9958 155.678 45.0179 155.678 45.0677C155.678 45.112 155.5 45.7098 155.289 46.4073C155.072 47.1048 154.9 47.7358 154.911 47.8133C154.922 47.9295 154.961 47.9627 155.105 47.9738C155.4 48.0015 155.861 47.6915 156.294 47.1712C156.483 46.9387 156.578 46.7117 156.478 46.7117C156.461 46.7117 156.266 46.8723 156.055 47.0715C155.655 47.4369 155.511 47.5088 155.511 47.3317C155.511 47.2819 155.666 46.7394 155.861 46.1305L156.205 45.0234L156.667 45.0068C157.111 44.9902 157.122 44.9847 157.122 44.8574C157.122 44.7245 157.111 44.719 156.711 44.719H156.3L156.4 44.3204C156.511 43.8998 156.505 43.8333 156.355 43.8333C156.294 43.8333 156.178 43.9883 156.022 44.2706Z"/>
<path fill-rule="evenodd" clip-rule="evenodd" d="M31.1457 44.5806C31.0513 44.8131 31.0457 44.8242 30.9346 44.7467C30.5124 44.4533 29.6623 44.9736 29.0401 45.9036C28.7457 46.3464 28.4623 46.9664 28.3845 47.3373C28.3234 47.614 28.329 47.6805 28.4012 47.8078C28.4734 47.9351 28.5179 47.9572 28.7401 47.9517C28.9457 47.9517 29.0512 47.9074 29.3568 47.6915C29.5568 47.5476 29.8568 47.2819 30.0179 47.0992C30.1735 46.9166 30.3124 46.7782 30.3235 46.7892C30.3346 46.7948 30.279 46.9885 30.2013 47.2155C30.1235 47.4424 30.0679 47.6971 30.0735 47.7912C30.0901 47.9406 30.1124 47.9572 30.3124 47.9738C30.4846 47.9849 30.5957 47.9517 30.8013 47.8188C31.0902 47.6251 31.5069 47.1823 31.5069 47.066C31.5069 46.9498 31.4735 46.9664 31.1124 47.2653C30.7846 47.5421 30.5624 47.6196 30.5624 47.459C30.5624 47.4147 30.7902 46.7339 31.068 45.9423C31.3457 45.1452 31.5624 44.4644 31.5402 44.4146C31.5235 44.3703 31.4513 44.3315 31.3735 44.3315C31.2624 44.3315 31.218 44.3813 31.1457 44.5806ZM30.7068 45.0788C30.755 45.1268 30.7876 45.1593 30.8034 45.1986C30.8368 45.2818 30.7944 45.3952 30.6624 45.7486C30.4513 46.3243 29.8346 47.1158 29.3401 47.459C28.9568 47.7247 28.8734 47.5642 29.0401 46.911C29.229 46.1693 29.7624 45.3113 30.2013 45.0456C30.4235 44.9072 30.5402 44.9127 30.7068 45.0788Z"/>
<path fill-rule="evenodd" clip-rule="evenodd" d="M82.7585 44.5862C82.6697 44.8186 82.6585 44.8297 82.5696 44.7522C82.353 44.5585 81.8585 44.6913 81.3752 45.0677C80.8807 45.4552 80.2196 46.5346 80.0362 47.2487C79.9585 47.5531 79.9585 47.614 80.0307 47.7856C80.1085 47.9683 80.1362 47.9849 80.3307 47.9849C80.6196 47.9849 81.0974 47.6694 81.5863 47.1546C81.7863 46.9387 81.953 46.7837 81.953 46.8114C81.953 46.8391 81.8918 47.0439 81.8141 47.2708C81.7363 47.4978 81.6807 47.7413 81.6863 47.8188C81.7085 48.0236 82.0418 48.0402 82.3585 47.852C82.6363 47.6915 83.1197 47.1989 83.1197 47.0716C83.1197 46.9498 83.0808 46.9664 82.7974 47.2155C82.4808 47.4922 82.303 47.5808 82.2307 47.5089C82.1752 47.4535 82.3585 46.8723 82.9697 45.1563C83.2308 44.4201 83.2363 44.3315 82.9752 44.3315C82.8863 44.3315 82.8363 44.3924 82.7585 44.5862ZM82.3196 45.0733C82.4696 45.2006 82.4752 45.2117 82.403 45.4441C82.2696 45.887 81.8918 46.5346 81.5474 46.911C81.1918 47.2985 80.8196 47.5974 80.6974 47.5974C80.364 47.5974 80.8863 46.0198 81.4307 45.3888C81.6585 45.1286 81.9252 44.9404 82.0752 44.9404C82.1252 44.9404 82.2363 45.0013 82.3196 45.0733Z"/>
<path fill-rule="evenodd" clip-rule="evenodd" d="M102.948 44.5862C102.848 44.8297 102.837 44.8408 102.737 44.7522C102.337 44.3924 101.292 45.112 100.681 46.1804C100.087 47.221 100.004 47.9849 100.487 47.9849C100.831 47.9849 101.292 47.6749 101.854 47.0771L102.17 46.7394L102.004 47.2598C101.809 47.8687 101.826 47.9849 102.098 47.9849C102.42 47.9849 102.848 47.7192 103.17 47.3151C103.426 46.9996 103.32 46.9221 103.004 47.1989C102.743 47.4258 102.559 47.5421 102.448 47.5421C102.337 47.5421 102.42 47.2542 102.92 45.8261C103.187 45.0843 103.387 44.4422 103.376 44.4035C103.359 44.3647 103.281 44.3315 103.204 44.3315C103.087 44.3315 103.043 44.3758 102.948 44.5862ZM102.515 45.0567C102.665 45.2061 102.637 45.4275 102.381 45.9589C102.148 46.4461 101.754 46.9664 101.409 47.2542C100.915 47.6638 100.787 47.6749 100.787 47.3262C100.787 46.7616 101.22 45.8372 101.731 45.3113C102.131 44.9017 102.304 44.8463 102.515 45.0567Z"/>
<path fill-rule="evenodd" clip-rule="evenodd" d="M110.565 44.3814C110.565 44.409 110.526 44.5197 110.476 44.636C110.398 44.8297 110.387 44.8353 110.293 44.7522C110.037 44.5253 109.404 44.7578 108.915 45.2615C108.148 46.0475 107.548 47.4258 107.782 47.8631C107.954 48.1897 108.609 47.8853 109.309 47.1601C109.521 46.9442 109.676 46.8059 109.659 46.8612C109.653 46.8948 109.623 46.9936 109.587 47.118L109.586 47.1197C109.562 47.1997 109.535 47.2911 109.509 47.3815C109.437 47.614 109.398 47.8465 109.415 47.8963C109.459 48.0181 109.815 48.0126 110.043 47.8853C110.421 47.6805 110.943 47.1214 110.848 47.0273C110.809 46.9885 110.715 47.0439 110.537 47.2044C110.248 47.4701 110.032 47.5864 109.954 47.5089C109.898 47.4535 109.943 47.3151 110.565 45.5549C110.882 44.6581 110.948 44.4201 110.887 44.3814C110.793 44.3205 110.565 44.3205 110.565 44.3814ZM110.048 45.0622C110.121 45.1286 110.176 45.2338 110.176 45.2947C110.171 45.4663 109.887 46.0973 109.659 46.4405C109.432 46.7837 108.809 47.4148 108.587 47.531C108.365 47.6472 108.287 47.5199 108.348 47.1657C108.504 46.3354 108.987 45.4497 109.476 45.0954C109.737 44.9072 109.876 44.9017 110.048 45.0622Z"/>
<path d="M11.3395 44.7079C11.084 44.8685 10.7284 45.2338 10.7284 45.3279C10.7284 45.422 10.8173 45.3888 11.1173 45.1895C11.4173 44.9847 11.5617 44.946 11.5617 45.0677C11.5617 45.1065 11.3617 45.732 11.1173 46.4627C10.8728 47.1933 10.6728 47.8354 10.6728 47.8853C10.6728 47.9572 10.7173 47.9849 10.8284 47.9849C10.9673 47.9849 11.0117 47.9295 11.3617 47.221C11.5673 46.8059 11.8729 46.2634 12.034 46.0198C12.3784 45.4995 13.0673 44.8131 13.2118 44.8408C13.4174 44.8795 13.3562 45.1729 12.8673 46.4793C12.6007 47.1878 12.3951 47.8078 12.4062 47.8631C12.4396 48.0292 12.7951 48.0126 13.1229 47.8354C13.4396 47.6638 13.8396 47.2487 13.8396 47.0937C13.8396 47.0328 13.8229 46.9885 13.8063 46.9885C13.7896 46.9885 13.634 47.1103 13.4674 47.2653C13.1674 47.5365 13.0062 47.6085 13.0062 47.4701C13.0062 47.4369 13.1451 47.0605 13.3118 46.6343C13.8452 45.3002 13.9285 44.9238 13.7507 44.6747C13.6229 44.4921 13.2674 44.5087 12.9451 44.7079C12.634 44.9072 12.2062 45.3777 11.8451 45.9147C11.6895 46.1471 11.5617 46.3132 11.5617 46.2855C11.5617 46.2578 11.6729 45.9257 11.8118 45.5438C11.9506 45.1674 12.0562 44.7965 12.0506 44.719C12.034 44.6028 12.0006 44.5806 11.8118 44.564C11.6451 44.5529 11.5284 44.5862 11.3395 44.7079Z"/>
<path fill-rule="evenodd" clip-rule="evenodd" d="M18.0398 44.6747C17.3675 45.0235 16.7286 46.1637 16.7286 47.0162C16.7286 47.6805 16.9675 47.9849 17.4953 47.9849C17.9064 47.9849 18.2175 47.8299 18.5342 47.4701C19.3509 46.5402 19.6009 45.1176 19.0342 44.6747C18.8287 44.5087 18.3453 44.5087 18.0398 44.6747ZM18.7509 44.8961C18.8787 45.0788 18.862 45.4663 18.6953 46.0254C18.4009 47.0605 17.9398 47.7635 17.562 47.7635C17.0786 47.7635 17.1342 46.8446 17.7009 45.6877C18.0898 44.8795 18.5176 44.5585 18.7509 44.8961Z"/>
<path d="M20.6954 44.6526C20.5287 44.7578 20.1731 45.2504 20.1731 45.3722C20.1731 45.4884 20.2842 45.4441 20.4509 45.2504C20.6342 45.0401 20.8287 44.9626 20.8731 45.0788C20.9065 45.1618 20.7342 45.8316 20.3676 46.9885C20.2287 47.4314 20.1176 47.8354 20.1176 47.8853C20.1176 47.9572 20.162 47.9849 20.2898 47.9849C20.4287 47.9849 20.4676 47.9517 20.5398 47.7746C21.0009 46.6564 21.562 45.5604 21.8621 45.1895C21.9732 45.0511 22.0065 45.0401 22.0787 45.0954C22.1287 45.1397 22.1843 45.2449 22.201 45.3334C22.2232 45.422 22.2732 45.494 22.3176 45.494C22.5065 45.494 22.6565 44.7799 22.4954 44.6194C22.4065 44.5308 22.1676 44.5363 22.0232 44.636C21.8732 44.7411 21.5565 45.2117 21.2231 45.8482C21.0731 46.125 20.9509 46.3187 20.9509 46.28C20.9509 46.2357 21.0287 45.9589 21.1231 45.66C21.2343 45.2892 21.2843 45.029 21.2731 44.8463C21.2565 44.5862 21.2509 44.5806 21.062 44.564C20.9454 44.5585 20.8009 44.5917 20.6954 44.6526Z"/>
<path d="M23.5732 44.6692C23.3121 44.7965 23.0065 45.1286 23.0065 45.2836C23.0065 45.422 23.0732 45.4054 23.2343 45.2393C23.4066 45.0511 23.7232 44.9127 23.801 44.9902C23.8399 45.029 23.7121 45.4884 23.4066 46.4239C23.1565 47.1878 22.951 47.8465 22.951 47.8963C22.951 47.9572 23.001 47.9849 23.1065 47.9849C23.2454 47.9849 23.2843 47.9295 23.6343 47.221C24.101 46.2634 24.4788 45.6877 24.9566 45.2006C25.2399 44.9127 25.3677 44.8242 25.4622 44.8408C25.5288 44.8519 25.5955 44.9017 25.6066 44.9515C25.6177 45.0068 25.4122 45.6766 25.1511 46.4405C24.8899 47.2044 24.6733 47.8687 24.6733 47.9074C24.6733 47.9572 24.7344 47.9849 24.8288 47.9849C24.9788 47.9849 25.0177 47.9295 25.3733 47.2542C25.8455 46.3464 26.3066 45.6434 26.7455 45.184C27.0733 44.8297 27.2567 44.7467 27.3233 44.9238C27.3733 45.0511 27.2789 45.3722 26.8067 46.6343C26.5733 47.2542 26.3955 47.8022 26.4067 47.8576C26.4289 47.996 26.7789 48.0181 27.0178 47.8963C27.3122 47.7469 27.64 47.459 27.7567 47.2487C27.9123 46.9608 27.8178 46.9332 27.5456 47.1933C27.3345 47.3981 27.1233 47.5421 27.04 47.5421C26.9622 47.5421 27.0289 47.3317 27.3733 46.4516C27.8123 45.35 27.9067 44.9127 27.7678 44.6969C27.69 44.5806 27.6289 44.5529 27.4511 44.5529C27.3345 44.5529 27.1733 44.5751 27.09 44.6083C26.8344 44.7024 26.39 45.1784 26.0011 45.7652C25.79 46.0807 25.6177 46.3298 25.6177 46.3132C25.6177 46.2966 25.7066 46.042 25.8122 45.7486C26.0066 45.2061 26.0511 44.8519 25.9511 44.6581C25.8677 44.5087 25.4844 44.5142 25.2288 44.6692C24.851 44.8961 24.4344 45.3722 24.0399 46.0254C23.9288 46.2025 23.8399 46.3243 23.8399 46.2966C23.8399 46.2634 23.9566 45.9036 24.101 45.494C24.251 45.0622 24.3455 44.7024 24.3232 44.647C24.2732 44.5142 23.8732 44.5253 23.5732 44.6692Z"/>
<path d="M35.5126 44.6747C35.1848 44.8463 34.7292 45.2559 34.7292 45.3888C34.7292 45.505 34.8125 45.5327 34.8681 45.4331C34.9181 45.3556 35.3459 45.0511 35.407 45.0511C35.4959 45.0511 35.4459 45.2227 34.9514 46.5069C34.6681 47.2432 34.4625 47.8465 34.4847 47.8963C34.5403 48.0458 34.8959 48.007 35.207 47.8133C35.5626 47.5919 36.007 47.1601 36.007 47.0328C36.007 46.8889 35.9626 46.9055 35.7014 47.1491C35.5681 47.2708 35.3848 47.4092 35.2903 47.4535C35.1236 47.5421 35.1181 47.5421 35.1181 47.4314C35.1181 47.3705 35.3348 46.7616 35.5959 46.0807C35.857 45.3943 36.0626 44.7799 36.0515 44.7079C36.0292 44.5308 35.8181 44.5197 35.5126 44.6747Z"/>
<path fill-rule="evenodd" clip-rule="evenodd" d="M38.0792 44.6692C37.3459 45.029 36.6459 46.3852 36.757 47.2321C36.8292 47.7912 37.0292 47.9849 37.5348 47.9849C37.9126 47.9849 38.207 47.8354 38.5459 47.4812C39.3737 46.601 39.6404 44.9626 39.0015 44.636C38.7793 44.5197 38.3515 44.5308 38.0792 44.6692ZM38.7182 44.8186C38.8237 44.8851 38.9015 45.2172 38.8626 45.4386C38.807 45.7707 38.557 46.5568 38.3959 46.9166C38.1792 47.3926 37.8237 47.7635 37.5903 47.7635C37.4903 47.7635 37.3792 47.7247 37.3403 47.6805C37.1237 47.4258 37.2903 46.5844 37.7292 45.6822C38.0904 44.9404 38.4348 44.6415 38.7182 44.8186Z"/>
<path d="M40.7793 44.7079C40.6404 44.7965 40.446 44.9681 40.3516 45.0843C40.0515 45.4441 40.1293 45.4829 40.5627 45.1895C40.8627 44.9847 41.0071 44.946 41.0071 45.0677C41.0071 45.1065 40.8071 45.732 40.5627 46.4627C40.3182 47.1933 40.1182 47.8354 40.1182 47.8853C40.1182 47.9572 40.1627 47.9849 40.2738 47.9849C40.4127 47.9849 40.4571 47.9295 40.8071 47.221C41.0182 46.8059 41.296 46.2911 41.4349 46.0807C41.7627 45.577 42.5127 44.8131 42.6516 44.8408C42.8627 44.8795 42.8016 45.1618 42.3127 46.4848C42.0461 47.1878 41.8405 47.8133 41.8516 47.8631C41.8849 48.0292 42.2461 48.0126 42.5683 47.8354C42.885 47.6638 43.285 47.2487 43.285 47.0937C43.285 47.0328 43.2683 46.9885 43.2516 46.9885C43.235 46.9885 43.0794 47.1103 42.9127 47.2653C42.6127 47.5365 42.4516 47.6085 42.4516 47.4701C42.4516 47.4369 42.5905 47.0605 42.7572 46.6343C43.2905 45.3002 43.3739 44.9238 43.1961 44.6747C43.0683 44.4921 42.7127 44.5087 42.3905 44.7079C42.0794 44.9072 41.6516 45.3777 41.2905 45.9147C41.1349 46.1471 41.0071 46.3187 41.0071 46.2966C41.0071 46.2745 41.1238 45.9368 41.2627 45.5438C41.4016 45.1508 41.5071 44.7744 41.496 44.7079C41.4683 44.5031 41.1016 44.5031 40.7793 44.7079Z"/>
<path fill-rule="evenodd" clip-rule="evenodd" d="M51.1408 44.719C50.3686 45.1563 49.7297 46.2689 49.7297 47.1712C49.7297 47.5144 49.8741 47.8908 50.0353 47.9517C50.2075 48.0181 50.6297 47.9849 50.8297 47.8908C51.0853 47.769 51.5075 47.3705 51.5075 47.2487C51.5075 47.1158 51.4853 47.1269 51.152 47.376C50.9353 47.5365 50.8075 47.5974 50.6575 47.5974C50.3797 47.5974 50.2853 47.448 50.2853 47.0051C50.2853 46.5014 50.3353 46.4073 50.6853 46.2966C51.0797 46.1638 51.602 45.9036 51.852 45.7043C52.1298 45.4884 52.2631 45.1342 52.1742 44.8629C52.1409 44.7522 52.0631 44.636 52.0075 44.6083C51.8075 44.5031 51.4353 44.5474 51.1408 44.719ZM51.7464 44.8906C51.8409 45.0401 51.5909 45.4718 51.252 45.7375C50.9853 45.9423 50.4519 46.2025 50.4519 46.1195C50.4519 45.9922 50.8686 45.35 51.1242 45.0899C51.452 44.7522 51.6242 44.6969 51.7464 44.8906Z"/>
<path d="M53.9298 44.6747C53.4575 44.9183 52.9297 45.6213 52.6908 46.3187C52.5131 46.8391 52.5131 47.5088 52.6908 47.769C52.802 47.9351 52.8464 47.9572 53.1075 47.9738C53.3409 47.9849 53.452 47.9628 53.6798 47.841C53.9798 47.6749 54.3409 47.3151 54.3409 47.1823C54.3409 47.0716 54.2631 47.0771 54.1687 47.1933C54.0353 47.3539 53.602 47.5974 53.452 47.5974C53.202 47.5974 53.0964 47.4203 53.102 47.0383C53.1297 46.1693 53.6575 45.0179 54.1187 44.8297C54.3353 44.7411 54.452 44.8352 54.502 45.1452C54.5298 45.3113 54.5631 45.3611 54.6631 45.3722C54.9965 45.422 55.1465 44.8906 54.8631 44.6692C54.6631 44.5142 54.2242 44.5142 53.9298 44.6747Z"/>
<path d="M59.9356 44.6692C59.6911 44.7965 59.2855 45.195 59.2855 45.3058C59.2855 45.4165 59.3078 45.4054 59.6244 45.1895C59.9022 45.0013 60.0133 44.9626 60.0744 45.029C60.0911 45.0456 59.8967 45.6877 59.6411 46.4516C59.3855 47.2155 59.1744 47.8742 59.1744 47.9129C59.1744 47.9572 59.2411 47.9849 59.3411 47.9849C59.4966 47.9849 59.5244 47.9461 59.9022 47.1989C60.3911 46.2246 60.7522 45.6877 61.2356 45.2006C61.6078 44.8297 61.7967 44.7467 61.8634 44.9183C61.9134 45.0456 61.8301 45.3058 61.3634 46.5623C61.1356 47.1712 60.9523 47.7358 60.9523 47.8244C60.9523 47.9738 60.9689 47.9849 61.1578 47.9849C61.2689 47.9849 61.4689 47.9351 61.6023 47.8687C61.969 47.6915 62.569 46.9885 62.3523 46.9885C62.3245 46.9885 62.1856 47.0992 62.0412 47.2376C61.7856 47.4701 61.5856 47.5863 61.53 47.5255C61.5134 47.5089 61.6801 47.0383 61.9023 46.4848C62.2023 45.7098 62.3078 45.3777 62.3245 45.1009C62.3634 44.6581 62.2856 44.5529 61.9245 44.5529C61.7301 44.5529 61.6245 44.5972 61.3634 44.791C61.0578 45.0179 60.5245 45.6434 60.2356 46.1139C60.1689 46.2302 60.1022 46.3243 60.0856 46.3243C60.0744 46.3243 60.1911 45.97 60.3411 45.5382C60.4967 45.1065 60.6078 44.7079 60.5856 44.6526C60.5467 44.5142 60.2133 44.5253 59.9356 44.6692Z"/>
<path fill-rule="evenodd" clip-rule="evenodd" d="M64.4135 44.6692C63.7245 45.0068 63.0967 46.1416 63.0967 47.0439C63.0967 47.7303 63.3023 47.9849 63.8579 47.9849C64.2746 47.9849 64.519 47.8576 64.8857 47.459C65.7302 46.5402 65.9802 44.9626 65.3357 44.636C65.1079 44.5142 64.6857 44.5308 64.4135 44.6692ZM65.0524 44.8186C65.2857 44.9681 65.2413 45.5438 64.9246 46.4184C64.7079 47.0217 64.5301 47.3428 64.2746 47.5919C64.1301 47.7358 64.0523 47.7635 63.8968 47.7524C63.5245 47.7192 63.4801 47.3206 63.7634 46.4239C64.119 45.2892 64.6857 44.5862 65.0524 44.8186Z"/>
<path fill-rule="evenodd" clip-rule="evenodd" d="M69.747 44.6692C69.2192 44.9294 68.6636 45.7375 68.4803 46.4959C68.3358 47.1158 68.3969 47.5531 68.6747 47.8299C68.8136 47.9683 68.8747 47.9849 69.1858 47.9849C69.4803 47.9849 69.5859 47.9572 69.7914 47.8299C70.4859 47.3871 71.0081 46.3962 71.0081 45.5216C71.0081 45.0567 70.9359 44.8519 70.697 44.6692C70.497 44.5142 70.0637 44.5142 69.747 44.6692ZM70.4248 44.8851C70.7192 45.2061 70.1914 46.9775 69.6303 47.5531C69.4136 47.7856 69.1358 47.8354 69.0081 47.6805C68.8692 47.5144 68.8803 47.0992 69.0358 46.5734C69.4192 45.2781 70.0637 44.4865 70.4248 44.8851Z"/>
<path fill-rule="evenodd" clip-rule="evenodd" d="M72.8582 44.6858C72.2471 44.9736 71.8304 45.6047 71.7915 46.3132C71.7693 46.7671 71.8415 46.9276 72.1193 47.0716L72.286 47.1546L72.1137 47.459C71.9415 47.769 71.936 47.9129 72.0971 48.0956C72.1582 48.1676 72.1137 48.2063 71.7526 48.3945C71.3082 48.6215 70.9859 48.937 70.9359 49.1972C70.8026 49.8448 71.5248 50.2433 72.5582 50.0994C73.1193 50.0219 73.5138 49.8559 73.7305 49.6123C73.9471 49.3632 73.986 49.1805 73.8916 48.9038C73.8138 48.6768 73.7305 48.6049 72.7915 47.9461C72.4471 47.7026 72.3304 47.4978 72.436 47.3262C72.4638 47.2764 72.6415 47.1601 72.8304 47.0716C73.2805 46.8557 73.636 46.5014 73.8527 46.0586C74.0027 45.7597 74.0305 45.6379 74.0305 45.3168V44.9349L74.3749 44.9681C74.588 44.9925 74.6671 45.0015 74.7061 44.9664C74.7292 44.9456 74.7383 44.9094 74.7527 44.8519C74.8194 44.5972 74.7083 44.5419 74.2972 44.6194C74.0305 44.6692 73.9027 44.6692 73.7638 44.6194C73.486 44.5197 73.1749 44.5419 72.8582 44.6858ZM73.5527 44.8408C73.7805 45.0677 73.2805 46.2855 72.7693 46.745C72.5249 46.9664 72.3749 46.983 72.2526 46.7948C72.1137 46.5789 72.2693 46.0696 72.6915 45.3999C73.0249 44.8629 73.3582 44.647 73.5527 44.8408ZM72.8193 48.5827C73.4471 48.9868 73.6082 49.3411 73.2916 49.6012C72.7915 50.0219 71.7415 49.9112 71.4915 49.413C71.4026 49.2304 71.4026 49.1916 71.4693 49.0256C71.5971 48.7211 72.0749 48.3779 72.3749 48.3724C72.436 48.3724 72.6415 48.4665 72.8193 48.5827Z"/>
<path d="M75.5694 44.7135C75.3916 44.8795 75.1194 45.3888 75.1194 45.5604C75.1194 45.7265 75.2138 45.7154 75.2916 45.5438C75.3694 45.3445 75.6027 45.0511 75.6805 45.0511C75.7083 45.0511 75.7694 45.1342 75.825 45.2283C75.9694 45.494 75.9694 47.6196 75.825 48.1399C75.6805 48.6768 75.4638 49.0864 75.1472 49.4075C74.8305 49.7341 74.6694 49.7728 74.5305 49.5625C74.3638 49.3023 74.0082 49.4352 74.0082 49.7562C74.0082 50.0551 74.2971 50.2046 74.6583 50.0884C74.9416 49.9943 75.6138 49.3079 76.025 48.6879C76.8306 47.4756 77.5972 45.7209 77.6639 44.957C77.6861 44.6249 77.6861 44.6138 77.5472 44.5806C77.3417 44.5253 77.2972 44.5751 77.2583 44.874C77.175 45.505 77.0472 46.1029 76.9139 46.4903C76.7694 46.9055 76.3528 47.7912 76.3139 47.7579C76.3028 47.7469 76.3194 47.5089 76.3528 47.2376C76.3805 46.9608 76.3972 46.363 76.3861 45.9091C76.3639 45.2172 76.3416 45.0345 76.2416 44.8131C76.1361 44.5751 76.1083 44.5529 75.9361 44.5529C75.7972 44.5529 75.6916 44.6028 75.5694 44.7135Z"/>
<path d="M84.503 44.7079C84.253 44.8685 83.8975 45.2338 83.8975 45.3279C83.8975 45.4275 84.0086 45.3888 84.2197 45.2227C84.4641 45.029 84.7308 44.946 84.7308 45.0622C84.7308 45.1009 84.5308 45.732 84.2863 46.4627C84.0419 47.1933 83.8419 47.8354 83.8419 47.8853C83.8419 47.9572 83.8863 47.9849 83.9975 47.9849C84.1363 47.9849 84.1808 47.9295 84.5308 47.221C84.9697 46.3409 85.3864 45.6988 85.7753 45.2947C86.1086 44.946 86.3142 44.8076 86.4253 44.8519C86.5642 44.9017 86.5253 45.1784 86.292 45.7818C85.6697 47.448 85.5586 47.7635 85.5753 47.8576C85.6086 48.0347 85.9864 48.0126 86.3253 47.8244C86.6253 47.6472 87.0087 47.2321 87.0087 47.0771C87.0087 46.9442 86.9698 46.9608 86.6364 47.2653C86.342 47.531 86.1753 47.6085 86.1753 47.4812C86.1753 47.4424 86.342 46.9885 86.542 46.4682C86.9809 45.3445 87.0753 44.9127 86.9364 44.6969C86.7975 44.4921 86.4531 44.4976 86.1142 44.7079C85.7975 44.9127 85.3364 45.4109 84.9975 45.9313C84.853 46.1527 84.7308 46.3187 84.7308 46.2911C84.7308 46.2689 84.8475 45.9091 84.9919 45.494C85.1419 45.0567 85.2364 44.7024 85.2142 44.647C85.1586 44.4921 84.7975 44.5253 84.503 44.7079Z"/>
<path d="M104.787 44.6526C104.548 44.7688 104.12 45.184 104.12 45.3002C104.12 45.4165 104.143 45.4109 104.459 45.1895C104.737 45.0013 104.848 44.9626 104.909 45.029C104.926 45.0456 104.731 45.6877 104.476 46.4516C104.22 47.2155 104.009 47.8742 104.009 47.9129C104.009 47.9572 104.076 47.9849 104.17 47.9849C104.315 47.9849 104.348 47.9406 104.587 47.4424C104.731 47.1491 105.004 46.6453 105.193 46.3298C105.743 45.3999 106.659 44.5419 106.682 44.9238C106.698 45.1674 106.637 45.3722 106.198 46.5402C105.926 47.2542 105.743 47.8244 105.765 47.8853C105.809 48.0236 106.115 48.0181 106.415 47.8687C106.687 47.7303 107.043 47.4147 107.154 47.1989C107.287 46.9442 107.132 46.9608 106.854 47.2321C106.604 47.4756 106.42 47.5863 106.359 47.5255C106.343 47.5089 106.493 47.0771 106.693 46.5623C107.109 45.4884 107.176 45.2725 107.176 44.9626C107.176 44.6747 107.048 44.5529 106.748 44.5529C106.332 44.5529 105.832 44.9958 105.193 45.9202C105.031 46.1527 104.898 46.3353 104.898 46.3187C104.898 46.3021 105.009 45.9755 105.148 45.5881C105.287 45.1951 105.398 44.8076 105.398 44.719C105.398 44.564 105.381 44.5529 105.193 44.5529C105.076 44.5529 104.893 44.5972 104.787 44.6526Z"/>
<path fill-rule="evenodd" clip-rule="evenodd" d="M112.693 44.6581C112.093 44.9349 111.626 45.6157 111.576 46.2745C111.548 46.7007 111.643 46.9387 111.898 47.0716C111.993 47.1214 112.065 47.1712 112.065 47.1878C112.065 47.2044 112.004 47.3096 111.926 47.4203C111.771 47.6528 111.748 47.9019 111.871 48.079C111.954 48.1952 111.943 48.2008 111.643 48.3392C111.259 48.5163 110.921 48.7765 110.815 48.9868C110.709 49.1861 110.709 49.4961 110.815 49.6953C111.065 50.188 112.309 50.2766 113.16 49.8614C113.548 49.6732 113.732 49.4407 113.732 49.1363C113.732 48.8374 113.526 48.5993 112.926 48.1897C112.621 47.9849 112.326 47.7635 112.276 47.7026C112.059 47.4424 112.209 47.1989 112.682 47.0439C112.998 46.9387 113.448 46.4848 113.654 46.0696C113.787 45.7984 113.815 45.6711 113.815 45.339V44.9349L114.154 44.9736C114.471 45.0069 114.504 44.9958 114.537 44.8906C114.554 44.8242 114.554 44.7245 114.537 44.6581C114.504 44.5585 114.476 44.5474 114.271 44.5917C114.021 44.636 113.776 44.636 113.26 44.5806C112.993 44.5585 112.876 44.5696 112.693 44.6581ZM113.332 44.8408C113.593 45.101 112.926 46.5844 112.426 46.8557C112.137 47.0107 112.037 46.9276 112.037 46.5346C112.037 46.2911 112.087 46.1361 112.271 45.7597C112.648 45.0013 113.098 44.6083 113.332 44.8408ZM112.604 48.5883C113.054 48.8761 113.232 49.0754 113.232 49.2968C113.232 49.878 111.904 50.0828 111.393 49.5736C111.193 49.3743 111.176 49.0698 111.348 48.8484C111.487 48.6713 111.993 48.3724 112.154 48.3724C112.215 48.3724 112.421 48.4665 112.604 48.5883Z"/>
<path fill-rule="evenodd" clip-rule="evenodd" d="M115.998 44.6913C115.16 45.1286 114.398 46.5623 114.56 47.4037C114.615 47.686 114.704 47.8576 114.843 47.9295C114.998 48.0126 115.437 47.996 115.637 47.8963C115.854 47.7856 116.343 47.3262 116.343 47.2265C116.343 47.1103 116.204 47.1435 116.06 47.2985C115.882 47.4867 115.665 47.5974 115.465 47.5974C115.143 47.5974 115.004 47.2432 115.115 46.7007C115.176 46.4073 115.187 46.3907 115.415 46.3243C115.821 46.208 116.421 45.9091 116.637 45.7154C117.021 45.3833 117.121 44.9847 116.893 44.6969C116.737 44.5031 116.371 44.5031 115.998 44.6913ZM116.56 44.874C116.693 45.1286 116.165 45.7652 115.604 46.0198C115.448 46.0918 115.31 46.1471 115.298 46.1361C115.26 46.0918 115.46 45.6932 115.687 45.3722C116.043 44.8685 116.437 44.6415 116.56 44.874Z"/>
<path d="M118.149 44.647C117.86 44.7965 117.51 45.184 117.51 45.3556C117.51 45.4331 117.671 45.3666 117.793 45.2393C117.932 45.0954 118.182 44.9404 118.287 44.9404C118.404 44.9404 118.332 45.2172 117.899 46.518C117.654 47.2487 117.465 47.8797 117.482 47.9129C117.493 47.9517 117.571 47.9849 117.649 47.9849C117.771 47.9849 117.832 47.8963 118.182 47.1933C118.699 46.1637 118.987 45.732 119.482 45.2283C119.915 44.7854 120.076 44.7301 120.11 45.0068C120.121 45.0954 119.932 45.7209 119.682 46.4571C119.432 47.1657 119.232 47.8022 119.232 47.8687C119.232 47.9572 119.265 47.9849 119.387 47.9849C119.526 47.9849 119.565 47.924 119.893 47.2819C120.515 46.053 121.432 44.8297 121.721 44.8297C121.982 44.8297 121.921 45.1231 121.31 46.7173C121.115 47.2321 120.954 47.7303 120.954 47.8188C120.954 47.9738 120.971 47.9849 121.16 47.9849C121.271 47.9849 121.471 47.9351 121.604 47.8687C121.971 47.6915 122.571 46.9885 122.354 46.9885C122.326 46.9885 122.188 47.0992 122.043 47.2376C121.793 47.4701 121.588 47.5863 121.532 47.5255C121.515 47.5089 121.682 47.0439 121.899 46.4848C122.488 44.9792 122.493 44.5529 121.932 44.5529C121.488 44.5529 121.099 44.9017 120.449 45.8925C120.26 46.1748 120.126 46.3575 120.149 46.2966C120.588 45.1176 120.632 44.8906 120.476 44.6747C120.371 44.5197 120.088 44.5142 119.793 44.6581C119.51 44.802 118.971 45.3888 118.649 45.9036C118.504 46.1361 118.376 46.3243 118.365 46.3243C118.354 46.3243 118.46 45.9977 118.593 45.6047C118.732 45.2061 118.843 44.8076 118.843 44.719C118.843 44.5585 118.837 44.5529 118.582 44.5529C118.432 44.5585 118.243 44.5972 118.149 44.647Z"/>
<path fill-rule="evenodd" clip-rule="evenodd" d="M124.571 44.6637C124.232 44.8186 123.688 45.3943 123.443 45.8593C122.999 46.7007 122.943 47.4812 123.299 47.8576C123.443 48.007 123.849 48.0292 124.149 47.9074C124.399 47.8022 124.843 47.3871 124.843 47.2598C124.843 47.1158 124.827 47.1214 124.504 47.376C123.971 47.7967 123.615 47.6306 123.627 46.9775C123.638 46.4682 123.665 46.4239 124.093 46.2689C124.982 45.9423 125.471 45.5715 125.543 45.1784C125.582 44.9626 125.482 44.6803 125.338 44.6083C125.177 44.5197 124.832 44.5474 124.571 44.6637ZM125.099 44.9072C125.143 45.0899 124.949 45.4386 124.665 45.6822C124.393 45.9147 123.882 46.1748 123.854 46.0973C123.81 45.9811 124.165 45.3999 124.46 45.0954C124.815 44.7356 125.038 44.6692 125.099 44.9072Z"/>
<path d="M126.671 44.7079C126.421 44.8685 126.065 45.2338 126.065 45.3279C126.065 45.4275 126.177 45.3888 126.388 45.2227C126.638 45.0235 126.899 44.946 126.899 45.0677C126.899 45.1176 126.699 45.732 126.454 46.4405C126.21 47.1435 126.01 47.7801 126.01 47.852C126.01 47.9628 126.038 47.9849 126.166 47.9849C126.304 47.9849 126.343 47.924 126.666 47.2653C126.86 46.8723 127.121 46.3962 127.243 46.2025C127.766 45.3888 128.388 44.7688 128.599 44.8519C128.749 44.9072 128.666 45.2449 128.177 46.5457C127.932 47.1989 127.732 47.7856 127.743 47.8465C127.766 47.996 128.104 48.0236 128.354 47.8963C128.649 47.7469 128.977 47.459 129.093 47.2487C129.249 46.9608 129.154 46.9332 128.882 47.1933C128.671 47.3981 128.46 47.5421 128.377 47.5421C128.304 47.5421 128.36 47.3539 128.699 46.4848C129.138 45.3611 129.238 44.9404 129.116 44.7301C128.999 44.5142 128.643 44.4976 128.327 44.6803C128.016 44.8629 127.538 45.3722 127.204 45.8704C127.06 46.0918 126.927 46.2634 126.921 46.2523C126.91 46.2412 127.016 45.898 127.16 45.4884C127.31 45.0567 127.404 44.7079 127.382 44.647C127.327 44.4921 126.966 44.5253 126.671 44.7079Z"/>
<path fill-rule="evenodd" clip-rule="evenodd" d="M140.76 44.6581C139.677 45.1563 138.983 47.2985 139.716 47.8742C139.91 48.0292 140.394 48.0236 140.716 47.8687C141.377 47.5476 142.01 46.3907 142.01 45.494C142.01 45.0622 141.933 44.8519 141.699 44.6692C141.51 44.5197 141.072 44.5142 140.76 44.6581ZM141.433 44.9127C141.699 45.3168 141.127 47.1214 140.583 47.5974C140.344 47.8078 140.105 47.8188 139.977 47.6251C139.716 47.2265 140.294 45.4718 140.855 44.9681C141.11 44.7356 141.305 44.719 141.433 44.9127Z"/>
<path d="M143.449 44.7079C143.199 44.8685 142.844 45.2338 142.844 45.3279C142.844 45.4275 142.955 45.3888 143.166 45.2227C143.377 45.0567 143.677 44.946 143.677 45.0345C143.677 45.0622 143.477 45.6766 143.233 46.4073C142.988 47.138 142.788 47.7912 142.788 47.8576C142.788 47.9628 142.816 47.9849 142.944 47.9794C143.083 47.9794 143.122 47.9185 143.444 47.2653C143.633 46.8778 143.922 46.3575 144.077 46.1195C144.749 45.0899 145.455 44.5253 145.455 45.0235C145.455 45.1009 145.244 45.7431 144.983 46.4461C144.722 47.1546 144.511 47.7801 144.522 47.8465C144.544 47.996 144.883 48.0236 145.133 47.8963C145.427 47.7469 145.755 47.459 145.872 47.2487C146.022 46.9719 145.938 46.9332 145.688 47.1657C145.466 47.376 145.233 47.5421 145.166 47.5421C145.077 47.5421 145.127 47.376 145.483 46.4627C145.911 45.3611 145.999 44.9681 145.894 44.7411C145.827 44.6083 145.777 44.5751 145.583 44.564C145.433 44.5529 145.277 44.5862 145.138 44.6526C144.861 44.7965 144.316 45.3666 143.983 45.8704C143.838 46.0918 143.705 46.2634 143.694 46.2523C143.683 46.2412 143.794 45.898 143.938 45.4884C144.088 45.0567 144.183 44.7024 144.161 44.647C144.105 44.4921 143.744 44.5253 143.449 44.7079Z"/>
<path d="M147.65 44.6581C147.416 44.802 147.138 45.1065 147.072 45.2892C146.95 45.5991 147 45.8814 147.272 46.4571C147.572 47.0937 147.594 47.3206 147.383 47.531C147.211 47.6971 147.044 47.6694 146.766 47.4314C146.55 47.2376 146.477 47.2265 146.4 47.3705C146.311 47.5421 146.333 47.7524 146.455 47.8742C146.616 48.0347 147.083 48.0236 147.355 47.8576C147.761 47.614 148 47.1324 147.927 46.6951C147.905 46.5734 147.777 46.2468 147.644 45.9755C147.355 45.3833 147.333 45.1674 147.55 45.0013C147.727 44.8574 147.861 44.8906 148.1 45.1176C148.266 45.2725 148.277 45.2725 148.372 45.184C148.438 45.1176 148.455 45.0401 148.433 44.9183C148.366 44.5751 147.988 44.4478 147.65 44.6581Z"/>
<path d="M149.683 44.7799C149.283 45.0456 148.872 45.4884 148.95 45.5659C148.983 45.5991 149.127 45.5161 149.344 45.3334C149.533 45.1784 149.711 45.0511 149.739 45.0511C149.833 45.0511 149.789 45.2338 149.4 46.363C148.916 47.7746 148.9 47.9849 149.272 47.9849C149.6 47.9849 150.172 47.4922 150.872 46.6066C151.022 46.4184 151.15 46.2745 151.161 46.2855C151.172 46.2966 151.066 46.6287 150.927 47.0162C150.789 47.4092 150.677 47.7801 150.689 47.841C150.716 48.0181 151.016 48.0236 151.305 47.8576C151.583 47.6915 152.177 47.0882 152.177 46.9664C152.177 46.8169 152.072 46.8667 151.755 47.1823C151.422 47.5033 151.194 47.5919 151.261 47.3594C151.311 47.2044 151.972 45.267 152.089 44.946C152.189 44.6803 152.172 44.636 151.955 44.5806C151.827 44.5474 151.8 44.5862 151.544 45.1176C151.161 45.9036 150.711 46.5568 150.189 47.0605C149.444 47.7746 149.427 47.6749 150.011 46.0143C150.377 44.9626 150.455 44.6969 150.4 44.636C150.283 44.4921 150.039 44.5419 149.683 44.7799Z"/>
<path d="M158.233 44.6858C157.894 44.8629 157.455 45.2559 157.455 45.3888C157.455 45.4441 157.467 45.494 157.483 45.494C157.5 45.494 157.644 45.3943 157.8 45.2725C158.072 45.0511 158.222 45.0124 158.189 45.1674C158.18 45.2015 158.046 45.5587 157.868 46.0329L157.865 46.0402L157.864 46.0414L157.7 46.4793C157.439 47.1546 157.233 47.769 157.244 47.8354C157.267 48.007 157.55 48.0236 157.85 47.8742C158.189 47.697 158.828 47.0605 158.744 46.9774C158.7 46.9332 158.622 46.9719 158.428 47.149C158.161 47.3926 157.922 47.5255 157.861 47.4646C157.822 47.4258 157.855 47.3262 158.455 45.7486C158.672 45.1784 158.839 44.6747 158.822 44.6304C158.778 44.5142 158.517 44.5419 158.233 44.6858Z"/>
<path d="M160.328 44.6692C160.072 44.802 159.678 45.184 159.678 45.3002C159.678 45.4165 159.7 45.4109 160.017 45.1895C160.294 45.0013 160.406 44.9626 160.467 45.029C160.483 45.0456 160.289 45.6877 160.033 46.4516C159.778 47.2155 159.567 47.8742 159.567 47.9129C159.567 47.9572 159.633 47.9849 159.733 47.9849C159.889 47.9849 159.917 47.9461 160.35 47.0937C160.828 46.1471 161.283 45.494 161.739 45.0843C162.033 44.8186 162.2 44.7688 162.256 44.9183C162.306 45.0456 162.267 45.1674 161.756 46.5568C161.5 47.2487 161.306 47.852 161.322 47.8963C161.372 48.0236 161.706 48.007 161.994 47.8687C162.361 47.6915 162.961 46.9885 162.745 46.9885C162.717 46.9885 162.578 47.0992 162.433 47.2376C162.178 47.4701 161.978 47.5863 161.922 47.5255C161.906 47.5089 162.022 47.1657 162.183 46.7616C162.628 45.6157 162.733 45.2725 162.733 44.9902C162.733 44.6581 162.633 44.5529 162.333 44.5529C161.9 44.5529 161.322 45.0567 160.728 45.9589C160.594 46.1582 160.483 46.3132 160.478 46.3077C160.467 46.3021 160.583 45.9479 160.739 45.5216C160.889 45.1009 161 44.7079 160.978 44.6526C160.939 44.5142 160.606 44.5253 160.328 44.6692Z"/>
<path fill-rule="evenodd" clip-rule="evenodd" d="M164.639 44.6913C163.672 45.1785 163.195 46.7118 163.9 47.0716C163.995 47.1214 164.067 47.1657 164.067 47.1767C164.067 47.1878 164.006 47.3096 163.928 47.4369C163.772 47.7137 163.75 47.9406 163.872 48.0624C163.989 48.1786 163.983 48.1897 163.706 48.3115C163.072 48.5883 162.733 48.9536 162.733 49.3521C162.733 49.9278 163.439 50.2378 164.4 50.0939C165.461 49.9334 166 49.3355 165.606 48.7543C165.539 48.6492 165.217 48.389 164.9 48.1676C164.239 47.7137 164.1 47.531 164.25 47.304C164.306 47.221 164.456 47.1269 164.622 47.0716C164.989 46.9498 165.439 46.518 165.65 46.0752C165.778 45.8261 165.817 45.66 165.828 45.3556L165.839 44.9681H166.539V44.7744C166.539 44.5917 166.528 44.5806 166.372 44.5972C166.022 44.6249 165.583 44.6194 165.261 44.5806C164.967 44.5474 164.895 44.564 164.639 44.6913ZM165.372 44.9072C165.456 45.029 165.45 45.0733 165.311 45.494C165.111 46.0863 164.695 46.7339 164.428 46.8612C164.133 46.9996 164.039 46.9166 164.039 46.5402C164.039 45.9534 164.783 44.7744 165.145 44.7744C165.233 44.7744 165.322 44.8242 165.372 44.9072ZM164.417 48.4609C164.767 48.6436 165.111 48.9315 165.206 49.1252C165.295 49.3189 165.295 49.33 165.195 49.4739C165.022 49.7009 164.761 49.8227 164.378 49.8503C163.961 49.8835 163.683 49.806 163.422 49.5791C163.078 49.2802 163.217 48.8429 163.745 48.544C164.083 48.3502 164.172 48.3392 164.417 48.4609Z"/>
</svg>
