<svg width="172" height="51" viewBox="0 0 172 51" fill="none" xmlns="http://www.w3.org/2000/svg">
  <path fill-rule="evenodd" clip-rule="evenodd" d="M94.7941 18.1428C94.4212 18.9598 94.0869 19.5373 93.6786 20.0043C92.3295 21.5472 90.3586 22.4024 88.3103 22.3336C87.1305 22.294 85.8284 21.78 83.2242 20.7519C80.6199 19.7238 79.3177 19.2097 78.429 18.4327C76.8861 17.0837 76.0309 15.1128 76.0997 13.0644C76.1393 11.8847 76.6481 10.5958 77.6657 8.01817C77.8518 7.547 78.0208 7.11882 78.1776 6.72835V3.50257H62.1349V19.8864H78.1776V18.2015C78.2594 18.2806 78.3428 18.3573 78.429 18.4327C78.7378 18.7026 79.0971 18.9415 79.5429 19.1805V21.2517H60.7695V2.13725H79.5429V3.82986C79.6787 3.6216 79.819 3.43475 79.9693 3.26287C81.3183 1.71996 83.2892 0.864778 85.3376 0.933538C86.5174 0.97314 87.8195 1.4872 90.4238 2.51531C93.028 3.54343 94.3301 4.05749 95.2188 4.83448C95.3057 4.91046 95.3904 4.98841 95.4729 5.06823C97.4124 2.85339 100.261 1.45474 103.436 1.45474C109.28 1.45474 114.018 6.19211 114.018 12.036C114.018 17.8798 109.28 22.6172 103.436 22.6172C99.8671 22.6172 96.7106 20.8499 94.7941 18.1428ZM83.7255 19.4819C81.0115 18.4105 79.9936 17.9871 79.3277 17.4048C78.0934 16.3256 77.4092 14.7489 77.4642 13.1103C77.4939 12.2259 77.8753 11.2054 78.9357 8.51946C79.9961 5.83351 80.4147 4.82768 80.9971 4.16155C82.0764 2.92722 83.6531 2.24308 85.2918 2.29809C86.1758 2.32776 87.2085 2.71384 89.9224 3.78525C92.6363 4.85666 93.6542 5.28011 94.3201 5.86232C94.4294 5.95789 94.5344 6.05736 94.635 6.16043C93.5107 7.8412 92.8551 9.86202 92.8551 12.036C92.8551 13.7069 93.2424 15.2874 93.9322 16.6925C93.3953 17.9882 93.0643 18.6326 92.6507 19.1056C91.5715 20.3399 89.9948 21.0241 88.3561 20.9691C87.472 20.9394 86.4394 20.5533 83.7255 19.4819ZM96.3645 6.12614C98.0551 4.10535 100.596 2.82006 103.436 2.82006C108.526 2.82006 112.652 6.94615 112.652 12.036C112.652 17.1258 108.526 21.2519 103.436 21.2519C100.015 21.2519 97.0282 19.3869 95.4384 16.618C95.6041 16.2064 95.7834 15.7524 95.982 15.2491C96.9997 12.6715 97.5086 11.3825 97.5482 10.2027C97.5973 8.73787 97.174 7.31265 96.3645 6.12614ZM95.5074 7.33585C95.9775 8.18816 96.217 9.16109 96.1836 10.1569C96.1539 11.0413 95.7725 12.0618 94.7121 14.7477C94.696 14.7886 94.68 14.8291 94.6641 14.8692C94.376 13.9766 94.2204 13.0244 94.2204 12.036C94.2204 10.3192 94.6899 8.712 95.5074 7.33585Z" fill="white"/>
  <path d="M86.3937 26.2376C84.8992 26.4534 83.6158 27.1454 82.7658 28.1971C81.0879 30.2673 81.0602 33.5056 82.6991 35.5481C83.7936 36.9154 85.4881 37.5962 87.5715 37.5077C88.3604 37.4744 88.9271 37.3748 89.666 37.1312L90.1771 36.9652L90.316 36.6497C90.5494 36.1183 90.8494 35.0776 90.8549 34.8008C90.8549 34.6846 90.6605 34.5684 90.5549 34.6292C90.5105 34.6514 90.3549 34.906 90.2104 35.1939C89.7604 36.0906 89.0271 36.705 88.1604 36.9098C87.7715 37.0039 86.8326 36.9929 86.377 36.8877C85.5659 36.6995 84.7103 36.1626 84.1714 35.5038C83.7991 35.0444 83.3825 34.1753 83.2158 33.5222C82.9436 32.4538 82.9324 31.0257 83.1824 29.9684C83.2547 29.6806 83.4213 29.2267 83.5825 28.8946C83.8269 28.3908 83.9325 28.2469 84.3492 27.8373C85.1325 27.0623 85.9714 26.7302 87.1548 26.7302C88.7437 26.7358 89.6382 27.328 90.0827 28.6953C90.1993 29.0496 90.2549 29.1437 90.3493 29.1547C90.5938 29.1935 90.616 29.1104 90.5438 28.4351C90.5105 28.0919 90.4605 27.555 90.4382 27.2395C90.416 26.8907 90.3716 26.6583 90.3327 26.6472C88.9215 26.2542 87.3826 26.0936 86.3937 26.2376Z" fill="white"/>
  <path d="M1.57985 26.4535C0.968718 26.5199 0.952051 26.5254 0.974274 26.7413C0.990941 26.9129 1.00761 26.924 1.26873 26.9682C1.73541 27.0402 1.97431 27.1398 2.09653 27.3004C2.2132 27.4554 2.2132 27.483 2.2132 31.8394L2.21321 32.0969C2.21329 36.0352 2.2133 36.4372 2.01448 36.6044C1.99188 36.6234 1.96669 36.6394 1.93867 36.6571L1.9243 36.6663C1.84652 36.7161 1.61874 36.7881 1.41873 36.8268C1.19034 36.8676 1.10208 36.8833 1.06413 36.9354C1.04022 36.9682 1.03627 37.0155 1.02983 37.0925L1.01316 37.2862L4.87996 37.2752V36.8932L4.4355 36.8323C3.66325 36.7216 3.58547 36.622 3.51325 35.7031C3.42991 34.6901 3.47436 27.1564 3.56325 27.0513C3.6577 26.935 4.14104 26.8963 4.6355 26.9572C5.39108 27.0513 5.97444 27.4277 6.31334 28.0421C6.73557 28.8171 6.73557 30.284 6.31889 31.0534C6.03555 31.5682 5.4522 31.9944 4.74106 32.2103C4.47994 32.2878 4.4355 32.321 4.4355 32.4372C4.4355 32.5701 4.44661 32.5701 4.88551 32.5645C5.71332 32.5535 6.58557 32.2047 7.16892 31.6401C7.73005 31.1032 8.01895 30.3836 8.01895 29.5256C8.01339 28.0089 7.17448 26.9406 5.67998 26.5586C5.2633 26.4535 5.03552 26.4368 3.62992 26.4258C2.75767 26.4147 1.83541 26.4313 1.57985 26.4535Z" fill="white"/>
  <path d="M48.6091 27.2395C48.5925 27.3114 48.5536 27.5162 48.5202 27.6989C48.4869 27.8816 48.3813 28.3244 48.2924 28.6787C48.198 29.0385 48.1369 29.354 48.1591 29.3872C48.1758 29.4149 48.2536 29.4426 48.3258 29.4426C48.4369 29.4426 48.4925 29.3761 48.6369 29.0772C48.8591 28.6012 49.1314 28.3133 49.4536 28.186C49.6703 28.103 49.8814 28.0864 50.7425 28.0864H51.7703L51.787 31.9889C51.7981 34.1366 51.787 36.0242 51.7703 36.1847C51.7148 36.6552 51.5481 36.7936 50.9648 36.8766L50.4925 36.943L50.4759 37.1202L50.4592 37.2918L52.3092 37.2862L54.1593 37.2752V37.1091C54.1593 36.9439 54.1538 36.9431 53.7326 36.8776L53.726 36.8766C53.2426 36.8047 53.1537 36.7548 53.0259 36.4725C52.9482 36.3009 52.937 35.8027 52.9204 32.2933C52.9093 30.1068 52.9148 28.2525 52.937 28.186C52.9648 28.0587 52.9759 28.0587 53.8815 28.0587C55.5482 28.0587 55.9316 28.2525 56.0538 29.1603C56.0927 29.4702 56.1816 29.581 56.3538 29.5256C56.4538 29.4924 56.4649 29.4481 56.4649 29.0274C56.4649 28.7728 56.5038 28.2635 56.5538 27.8927C56.6038 27.483 56.6205 27.1952 56.5927 27.1675C56.5149 27.09 56.376 27.162 56.3094 27.3114C56.1983 27.5605 56.0427 27.5661 52.5093 27.5495L49.198 27.5329L49.0536 27.4C48.9758 27.3225 48.9091 27.2339 48.9091 27.1897C48.9091 27.1509 48.848 27.1177 48.7702 27.1177C48.6758 27.1177 48.6258 27.1564 48.6091 27.2395Z" fill="white"/>
  <path d="M132.856 27.7653C132.79 28.1196 132.673 28.6178 132.606 28.8669C132.473 29.3485 132.49 29.4426 132.717 29.4426C132.806 29.4426 132.867 29.3595 132.99 29.0828C133.179 28.651 133.523 28.2801 133.829 28.175C133.973 28.1251 134.412 28.0919 135.09 28.0753L136.129 28.0476L136.162 28.2358C136.184 28.3355 136.19 30.1732 136.173 32.321C136.162 35.2105 136.134 36.2788 136.084 36.4338C135.995 36.7161 135.812 36.8157 135.279 36.8877L134.829 36.943V37.2752L136.679 37.2807L138.523 37.2918V36.9264L138.14 36.8877C137.651 36.8379 137.434 36.7106 137.357 36.4283C137.318 36.2788 137.307 34.8728 137.312 32.1494L137.329 28.0864H139.495L139.829 28.2525C140.207 28.4407 140.34 28.6399 140.396 29.1049C140.434 29.4536 140.518 29.581 140.673 29.5311C140.773 29.4979 140.79 29.4315 140.823 28.8171C140.857 28.2082 140.923 27.6214 140.996 27.3059C141.046 27.0789 140.851 27.09 140.657 27.3225L140.479 27.5329L137.112 27.5495C133.451 27.5661 133.429 27.5605 133.29 27.2616C133.251 27.173 133.184 27.1177 133.106 27.1177C132.995 27.1177 132.973 27.1786 132.856 27.7653Z" fill="white"/>
  <path d="M158.446 27.4055C158.424 27.5661 158.318 28.0587 158.213 28.496C158.107 28.9333 158.029 29.3263 158.046 29.3651C158.063 29.4094 158.135 29.4426 158.207 29.4426C158.313 29.4426 158.368 29.3706 158.524 29.0496C158.741 28.6067 159.063 28.2801 159.391 28.1639C159.546 28.1085 159.902 28.0864 160.635 28.0864H161.663V32.2103C161.663 36.0463 161.657 36.3452 161.563 36.5113C161.435 36.7493 161.241 36.8434 160.763 36.8877C160.435 36.9209 160.363 36.9486 160.341 37.0371L160.339 37.0415C160.325 37.0983 160.313 37.1422 160.327 37.1762C160.373 37.2918 160.71 37.2918 162.196 37.2918L164.024 37.2862L164.057 37.1589C164.107 36.9707 164.057 36.932 163.707 36.8932C163.207 36.8323 163.035 36.7604 162.924 36.5666C162.835 36.4006 162.83 36.074 162.83 32.2379V28.0864L163.768 28.0698C165.391 28.0421 165.757 28.2248 165.919 29.116C165.969 29.4038 166.013 29.5035 166.091 29.5311C166.302 29.5976 166.357 29.4647 166.357 28.8946C166.363 28.413 166.419 27.8152 166.502 27.3613C166.552 27.0845 166.385 27.0679 166.163 27.3225L165.98 27.5329L162.613 27.5495C158.935 27.5661 158.902 27.5605 158.824 27.2616C158.796 27.1509 158.757 27.1177 158.635 27.1177C158.491 27.1177 158.479 27.1343 158.446 27.4055Z" fill="white"/>
  <path d="M36.0921 27.4166C34.7198 27.6768 33.6031 28.3521 32.8809 29.3595C31.8864 30.7434 31.6364 32.7251 32.242 34.3802C32.7087 35.6478 33.6976 36.6663 34.9087 37.1146C35.6365 37.3914 36.1699 37.48 37.0199 37.4855C37.8977 37.4855 38.3311 37.4246 39.1255 37.1811L39.7033 37.0039L39.8367 36.705C40.0033 36.3286 40.2256 35.5647 40.2756 35.2105C40.3089 34.9614 40.2978 34.9337 40.1811 34.906C40.1145 34.8894 40.0367 34.8839 40.0144 34.9005C39.9922 34.9116 39.8811 35.1053 39.7756 35.3267C39.2478 36.4116 38.4588 36.9541 37.3255 37.0095C35.7976 37.0925 34.4143 36.2124 33.7365 34.7289C33.1309 33.3893 33.1142 31.2582 33.7087 29.9242C34.1531 28.9222 35.0143 28.1805 36.0476 27.9203C36.481 27.8096 37.5033 27.8096 37.9255 27.9203C38.7811 28.1418 39.32 28.6731 39.6033 29.5699C39.7089 29.8909 39.7533 29.974 39.8533 29.985C39.92 29.9961 39.9978 29.985 40.0256 29.9574C40.0589 29.9242 40.0367 29.4647 39.9811 28.8281L39.8867 27.7487L39.5811 27.6823C39.4691 27.6607 39.27 27.618 39.0651 27.5741C38.9552 27.5505 38.843 27.5264 38.7422 27.5052C38.0533 27.3557 36.6588 27.3114 36.0921 27.4166Z" fill="white"/>
  <path fill-rule="evenodd" clip-rule="evenodd" d="M60.6317 27.4277C59.1873 27.7321 58.0205 28.6621 57.3872 30.0016C56.0983 32.7251 57.1261 36.0186 59.6095 37.1146C60.7151 37.6018 62.1596 37.6184 63.2541 37.1589C65.5097 36.2124 66.6875 33.3838 65.9375 30.7268C65.3208 28.568 63.7041 27.328 61.5262 27.3446C61.2318 27.3446 60.8317 27.3834 60.6317 27.4277ZM62.2485 27.948C63.4096 28.3023 64.2319 29.3651 64.6208 31.0091C64.7541 31.5682 64.7652 31.7398 64.7708 32.7361C64.7708 34.0702 64.6985 34.4576 64.2985 35.288C63.9596 35.9854 63.5541 36.4172 62.9763 36.7106C62.4596 36.9652 62.0485 37.0482 61.4929 37.0095C59.8928 36.8932 58.7761 35.6754 58.315 33.5388C58.2372 33.1679 58.215 32.8413 58.2206 31.9889C58.2261 30.7268 58.2983 30.3559 58.715 29.5145C59.1039 28.734 59.7539 28.1639 60.5429 27.9148C60.9095 27.8041 61.8373 27.8207 62.2485 27.948Z" fill="white"/>
  <path fill-rule="evenodd" clip-rule="evenodd" d="M95.1885 27.4166C94.3107 27.6048 93.6217 27.9702 92.9551 28.6012C90.8717 30.5884 90.8383 34.3193 92.8884 36.2567C93.5106 36.8379 94.1107 37.1645 94.9551 37.3693C95.5885 37.5243 96.5496 37.5298 97.1052 37.3914C98.9275 36.9209 100.228 35.4596 100.611 33.4447C100.744 32.7195 100.694 31.4796 100.494 30.7711C100.028 29.0828 98.9553 27.948 97.4108 27.5052C96.8774 27.3502 95.7218 27.3059 95.1885 27.4166ZM96.8107 27.948C98.1552 28.3576 99.0608 29.7913 99.3053 31.8837C99.3997 32.7029 99.3442 33.7602 99.1664 34.4355C98.7608 36.002 97.633 37.0261 96.2996 37.0261C94.4829 37.0261 93.1995 35.6256 92.8162 33.2454C92.6939 32.4704 92.7384 31.0312 92.9051 30.4168C93.2328 29.1824 93.9551 28.3244 94.9551 27.9702C95.4496 27.793 96.283 27.7875 96.8107 27.948Z" fill="white"/>
  <path d="M113.956 27.4221C112.283 27.8428 111.533 29.6142 112.372 31.1807C112.645 31.6844 113.067 32.0996 114.045 32.8081C115.117 33.5886 115.35 33.8211 115.589 34.3027C115.761 34.6514 115.772 34.7012 115.772 35.2824C115.772 35.836 115.756 35.919 115.622 36.1736C115.306 36.777 114.739 37.0648 113.989 37.0095C113.472 36.9707 113.056 36.7715 112.689 36.384C112.4 36.0851 112 35.3378 111.933 34.9946C111.906 34.8396 111.878 34.8119 111.739 34.8119C111.583 34.8119 111.578 34.8175 111.578 35.0942C111.578 35.4263 111.717 36.3342 111.822 36.694C111.883 36.9098 111.933 36.9652 112.178 37.098C112.861 37.4689 114.15 37.6073 114.884 37.3914C116.128 37.0205 116.8 36.1017 116.8 34.7898C116.8 33.489 116.289 32.7251 114.689 31.6291C113.756 30.987 113.422 30.6714 113.172 30.1954C113.017 29.8909 113 29.8079 113 29.3872C113.006 28.6676 113.233 28.2414 113.756 27.9812C114 27.8594 114.117 27.8373 114.517 27.8373C114.784 27.8428 115.089 27.8761 115.206 27.9148C115.678 28.0864 116.011 28.4739 116.228 29.1049C116.334 29.4149 116.372 29.4702 116.489 29.4869C116.589 29.4979 116.645 29.4758 116.672 29.4094C116.711 29.2987 116.606 28.1916 116.517 27.8594L116.461 27.638L115.95 27.5107C115.306 27.3502 114.406 27.3059 113.956 27.4221Z" fill="white"/>
  <path fill-rule="evenodd" clip-rule="evenodd" d="M144.162 27.5107C144.068 27.6048 143.923 27.7321 143.829 27.7875C143.701 27.8705 143.657 27.948 143.601 28.2082C143.473 28.8503 140.907 36.2179 140.712 36.5113C140.579 36.7161 140.307 36.8545 139.957 36.8932C139.629 36.932 139.534 37.015 139.612 37.2087C139.64 37.2807 139.818 37.2918 141.012 37.2862L142.384 37.2752V37.1091C142.384 36.9486 142.373 36.9431 142.007 36.8822C141.801 36.8489 141.618 36.8047 141.596 36.7881C141.49 36.6773 141.607 36.1293 142.073 34.5905C142.273 33.9318 142.384 33.6495 142.473 33.5775C142.584 33.489 142.712 33.4779 143.873 33.4945C145.001 33.5111 145.151 33.5222 145.212 33.6052C145.296 33.7159 146.023 36.1736 146.062 36.4725C146.096 36.7272 146.007 36.8047 145.562 36.8877C145.235 36.9486 145.218 36.9541 145.218 37.1146V37.2752H151.44V37.1091C151.44 36.9486 151.435 36.9431 151.051 36.8822C150.84 36.8489 150.607 36.8047 150.535 36.7825C150.201 36.6718 150.135 36.0851 150.096 32.9299C150.068 30.5109 150.096 29.4094 150.19 29.4703C150.212 29.4813 150.551 29.9131 150.946 30.4223C151.335 30.9371 152.507 32.4206 153.54 33.7214C154.574 35.0223 155.657 36.4061 155.952 36.7936L156.188 37.106C156.367 37.3421 156.494 37.5093 156.502 37.5132C156.507 37.5243 156.563 37.5077 156.618 37.48C156.713 37.4246 156.718 37.2475 156.702 33.8321C156.685 30.3781 156.729 28.8281 156.857 28.3853C156.918 28.1694 157.113 28.0532 157.574 27.9535C157.868 27.8871 157.963 27.782 157.863 27.627C157.829 27.5661 157.502 27.5495 156.329 27.5495C155.052 27.5495 154.835 27.5605 154.796 27.6325C154.724 27.7543 154.796 27.8871 154.935 27.9148C155.49 28.02 155.685 28.0753 155.785 28.1418C156.057 28.33 156.135 29.2876 156.135 32.4981C156.135 33.8654 156.118 34.978 156.09 34.978C156.029 34.978 155.485 34.3248 153.74 32.1549C151.485 29.354 150.985 28.6953 150.512 27.8761L150.329 27.555L149.274 27.5495C148.362 27.5495 148.212 27.5605 148.162 27.638C148.085 27.7653 148.196 27.9148 148.39 27.9369C148.94 27.9923 149.346 28.2857 149.462 28.7064C149.501 28.8447 149.524 30.0515 149.524 32.0996C149.524 35.133 149.479 36.3618 149.351 36.5888C149.168 36.932 148.062 37.0205 147.618 36.7272C147.507 36.6552 147.374 36.4781 147.268 36.2511C147.129 35.9744 145.185 29.7581 144.596 27.7266C144.535 27.5163 144.457 27.3613 144.407 27.3502C144.362 27.3447 144.251 27.4166 144.162 27.5107ZM144.501 31.1087C144.768 31.9889 144.968 32.7472 144.946 32.7915C144.923 32.8635 144.74 32.8745 143.801 32.8745C142.701 32.8745 142.69 32.8745 142.69 32.7527C142.69 32.6476 143.768 29.3263 143.846 29.1935C143.896 29.1104 143.996 29.3983 144.501 31.1087Z" fill="white"/>
  <path d="M169.08 27.4221C167.824 27.7709 167.124 28.7451 167.202 30.0293C167.252 30.7821 167.541 31.3855 168.135 31.9722C168.296 32.1328 168.813 32.5424 169.28 32.8801C170.535 33.7823 170.819 34.1421 170.93 34.989C171.041 35.7972 170.741 36.4836 170.135 36.8268C169.852 36.9873 169.791 36.9984 169.302 36.9984C168.83 36.9984 168.741 36.9818 168.441 36.8379C167.857 36.55 167.374 35.9245 167.13 35.144C167.046 34.8673 167.024 34.8396 166.88 34.8396H166.719L166.735 35.1994C166.752 35.5813 166.874 36.3618 166.969 36.705C167.041 36.9652 167.224 37.0925 167.774 37.2752C169.085 37.718 170.435 37.4966 171.219 36.7216C172.213 35.7308 172.219 33.9484 171.235 32.786C170.913 32.404 170.752 32.2712 169.741 31.5571C168.513 30.688 168.196 30.2839 168.146 29.5201C168.096 28.7728 168.402 28.1971 168.974 27.9535C169.219 27.8484 169.341 27.8318 169.769 27.8484C170.663 27.8816 171.085 28.2303 171.413 29.1935C171.491 29.4204 171.535 29.4758 171.647 29.4868C171.741 29.4979 171.802 29.4702 171.824 29.4094C171.869 29.2986 171.763 28.2691 171.674 27.9037L171.608 27.6491L171.135 27.5162C170.513 27.3502 169.519 27.3004 169.08 27.4221Z" fill="white"/>
  <path fill-rule="evenodd" clip-rule="evenodd" d="M9.99121 27.5661C9.5023 27.5937 9.07451 27.627 9.03007 27.6436C8.98562 27.6602 8.9634 27.7377 8.97451 27.8484C8.99118 28.0255 9.00229 28.031 9.26896 28.0643C9.6912 28.1141 9.7912 28.1584 9.89676 28.3521C9.98565 28.5126 9.99121 28.8337 10.0079 32.1549C10.019 34.1477 10.0079 35.9356 9.99121 36.1293C9.94121 36.6275 9.78565 36.7825 9.26896 36.8766C8.89117 36.943 8.88006 36.9486 8.88006 37.1091V37.2752H12.2135V37.1146C12.2135 36.9597 12.1968 36.9486 11.8357 36.86C11.3746 36.7438 11.2579 36.6441 11.1857 36.2567C11.1024 35.8138 11.1135 33.0018 11.1968 32.952C11.3357 32.8635 12.1579 32.9077 12.3302 33.0074C12.5464 33.1344 12.569 33.1733 13.292 34.4161L13.2969 34.4244C14.0969 35.8027 14.4025 36.2567 14.8247 36.6718C15.358 37.2087 15.8636 37.4136 16.6692 37.4136C16.9192 37.4136 17.1914 37.3859 17.2803 37.3527C17.3803 37.3139 18.0026 37.2918 19.0637 37.2918H20.686L20.7193 37.1589C20.7638 36.9763 20.7193 36.932 20.4249 36.8932C20.0026 36.8323 19.8138 36.7548 19.7026 36.5943C19.6082 36.4559 19.6026 36.2179 19.586 32.5147C19.5749 29.0385 19.5804 28.5569 19.6582 28.3521C19.7582 28.0919 19.9915 27.948 20.3249 27.948C20.436 27.948 20.5749 27.9203 20.636 27.8927C20.7471 27.8318 20.7805 27.6436 20.6804 27.5882C20.6527 27.5661 19.8915 27.5495 18.9915 27.5495C18.0915 27.5495 17.3303 27.5661 17.3026 27.5882C17.2026 27.6436 17.2359 27.8318 17.347 27.8927C17.4081 27.9203 17.5415 27.948 17.647 27.948C17.9304 27.948 18.1637 28.0476 18.2804 28.2137C18.3748 28.3521 18.3804 28.6012 18.397 32.2822C18.4081 34.9282 18.3915 36.2733 18.3526 36.4172C18.2748 36.6995 18.1248 36.7936 17.6581 36.8711C17.3748 36.9209 17.2748 36.9597 17.2526 37.0371C17.2248 37.1534 17.0637 37.1312 16.7414 36.9707C16.397 36.7991 15.6747 35.9799 15.1192 35.1385C14.5525 34.286 13.7024 32.8302 13.658 32.631C13.6302 32.5369 13.6747 32.487 13.8969 32.3653C14.5358 32.011 15.0414 31.391 15.2136 30.7489C15.2858 30.4888 15.3025 30.2507 15.2858 29.8522C15.2692 29.3817 15.2414 29.2544 15.0914 28.9333C14.7803 28.2746 14.2691 27.8871 13.4191 27.6657C12.9024 27.5273 11.3913 27.483 9.99121 27.5661ZM12.6913 28.1141C13.5858 28.3964 14.0747 29.1658 14.0747 30.295C14.0747 31.3246 13.7413 31.9612 13.0469 32.2712C12.8191 32.3763 12.6413 32.404 12.0691 32.4206C11.6024 32.4372 11.3301 32.4206 11.2468 32.3819L11.1301 32.3154L11.1412 30.2286L11.1579 28.1473L11.2968 28.0753C11.519 27.9646 12.2857 27.9868 12.6913 28.1141Z" fill="white"/>
  <path d="M21.4027 27.5827C21.3193 27.6712 21.3471 27.8318 21.4527 27.8816C21.5027 27.9093 21.6582 27.948 21.7916 27.9701C22.1916 28.031 22.4471 28.2082 22.6083 28.5348L22.7471 28.8226L22.7249 32.4926C22.7138 34.9116 22.686 36.2401 22.6416 36.384C22.5527 36.6995 22.4194 36.8047 22.0027 36.8766C21.6249 36.9375 21.5304 37.015 21.6027 37.2032C21.6304 37.2752 21.8582 37.2862 23.1472 37.2807L24.6583 37.2752V37.1091C24.6583 36.9439 24.6528 36.9431 24.2588 36.8831L24.2528 36.8822C23.5583 36.777 23.5083 36.7161 23.4083 35.836C23.3361 35.1717 23.3305 29.426 23.4083 29.4702C23.4361 29.4869 23.7083 29.819 24.0027 30.2065C24.3028 30.5939 25.5584 32.1937 26.7973 33.7602C28.0362 35.3267 29.2085 36.8157 29.4029 37.0704C29.7029 37.4634 29.764 37.5187 29.8529 37.4689C29.9529 37.4136 29.9585 37.2696 29.9752 33.024C29.9918 29.6972 30.0141 28.5901 30.0641 28.4296C30.1529 28.175 30.3307 28.0532 30.7307 27.9757C31.0641 27.9093 31.1974 27.7875 31.103 27.638C31.053 27.5661 30.853 27.5495 29.5474 27.5495H28.0473L28.0307 27.7155C28.0084 27.9037 28.0362 27.9203 28.4973 27.9757C29.0974 28.0532 29.1918 28.1916 29.2974 29.2156C29.364 29.9131 29.3751 34.9946 29.3029 34.9669C29.2196 34.9392 28.6029 34.1864 26.7751 31.9114C24.8639 29.5367 24.1416 28.579 23.7861 27.948L23.5527 27.5329H22.5083C21.9193 27.5329 21.436 27.555 21.4027 27.5827Z" fill="white"/>
  <path d="M41.0756 27.6436C40.9978 27.8539 41.0534 27.9037 41.4867 27.9757C41.6034 27.9923 41.7589 28.0476 41.8312 28.0975C42.0978 28.2691 42.1034 28.3189 42.1034 32.4317C42.1034 35.9079 42.0923 36.3009 42.009 36.4836C41.8923 36.7382 41.7034 36.8379 41.2312 36.8877C40.9478 36.9209 40.8478 36.9486 40.8256 37.0261L40.8189 37.046C40.8053 37.0864 40.794 37.1197 40.8023 37.1472C40.8409 37.2759 41.3061 37.2773 43.946 37.2856L44.1535 37.2862L47.4536 37.2918L47.5425 37.0648C47.6869 36.6773 48.0203 35.4762 48.0203 35.3378C48.0203 35.1717 47.8314 35.0555 47.7425 35.1551C47.7091 35.1939 47.5647 35.4319 47.4258 35.6754C47.1258 36.2179 46.898 36.5002 46.6869 36.6109C46.3091 36.8047 44.4813 36.8545 43.8868 36.6884C43.5757 36.5998 43.3812 36.384 43.3034 36.0408C43.2646 35.8581 43.2423 35.1274 43.2423 34.1532C43.2423 32.7472 43.2534 32.5479 43.3312 32.5203C43.4701 32.4704 45.0813 32.4815 45.3257 32.5424C45.6202 32.6088 45.7757 32.8026 45.8535 33.19C45.8869 33.3672 45.9369 33.5664 45.9646 33.6329C46.0202 33.7657 46.2091 33.8045 46.2702 33.7048C46.2924 33.6716 46.3035 32.9963 46.3035 32.1992C46.3035 30.9759 46.2924 30.7434 46.2258 30.7046C46.098 30.6382 45.9758 30.7102 45.9424 30.8707C45.9307 30.9292 45.9079 31.0509 45.8838 31.1797L45.8836 31.1809L45.8535 31.3412C45.7424 31.9114 45.6313 31.9501 44.1868 31.9224L43.2701 31.9058V28.0864H44.5479C45.748 28.0864 45.8369 28.0919 46.048 28.2082C46.4258 28.4074 46.598 28.6565 46.7702 29.2378C46.8536 29.5311 46.8758 29.5533 47.0258 29.5533C47.1758 29.5533 47.1869 29.5367 47.1869 29.3429C47.1869 29.1049 47.0313 27.6103 47.0036 27.5827C46.9925 27.5716 45.6646 27.555 44.0535 27.5495C41.1589 27.5329 41.1145 27.5329 41.0756 27.6436Z" fill="white"/>
  <path d="M66.9319 27.555C66.9208 27.5661 66.9097 27.6491 66.9097 27.7321C66.9097 27.8927 66.993 27.948 67.2375 27.948C67.3208 27.948 67.5264 28.0144 67.6931 28.0975C67.9209 28.2137 68.0264 28.3134 68.132 28.5016L68.2709 28.7507L68.2875 31.6567C68.3042 34.275 68.2542 36.0131 68.1486 36.4892C68.1042 36.694 67.9209 36.8102 67.5042 36.8822C67.1708 36.9431 67.1597 36.9486 67.1597 37.1091V37.2752L68.6709 37.2862C70.0709 37.2918 70.1876 37.2862 70.2154 37.1921C70.2765 36.9984 70.1932 36.9264 69.8376 36.8877C69.4265 36.8379 69.1598 36.7382 69.0876 36.5999C68.932 36.312 68.8931 35.6367 68.8709 32.7085C68.8542 31.0423 68.8653 29.6363 68.8931 29.5644C68.9376 29.4481 69.0265 29.5422 69.832 30.5884C70.3209 31.2194 71.5765 32.8192 72.6266 34.1421C73.6766 35.4651 74.6989 36.7659 74.8989 37.0372C75.2266 37.48 75.2711 37.5187 75.3655 37.4578C75.46 37.3914 75.4655 37.2032 75.4878 33.1236C75.5044 28.8835 75.5267 28.3909 75.6989 28.186C75.7544 28.1196 76.1378 27.9923 76.4822 27.9203C76.6156 27.8927 76.6378 27.865 76.6211 27.7211L76.6045 27.5495H75.1044C73.8433 27.5495 73.5988 27.5605 73.5544 27.6325C73.5266 27.6768 73.521 27.7543 73.5377 27.7986C73.571 27.8927 73.5933 27.8982 74.1488 28.0089C74.3322 28.0421 74.5211 28.1141 74.5766 28.1694C74.7155 28.3078 74.7989 28.734 74.8544 29.6917C74.9211 30.7157 74.9266 34.8119 74.8655 34.9116C74.8044 35.0057 74.6155 34.7898 72.3099 31.9169C70.3209 29.4426 69.8654 28.8392 69.3709 28.031L69.0876 27.5605L68.0209 27.5439C67.4375 27.5384 66.943 27.5439 66.9319 27.555Z" fill="white"/>
  <path d="M101.3 27.5495C101.266 27.5605 101.244 27.638 101.244 27.7266C101.244 27.8871 101.328 27.948 101.544 27.948C101.983 27.948 102.461 28.3023 102.572 28.7064C102.65 28.9776 102.65 34.9448 102.578 35.7917C102.494 36.7161 102.461 36.7714 101.828 36.8822C101.505 36.943 101.494 36.9486 101.494 37.1091V37.2752H104.55V37.1091C104.55 36.9486 104.544 36.943 104.161 36.8822C103.95 36.8489 103.717 36.8047 103.644 36.7825C103.466 36.7272 103.372 36.5002 103.3 35.9965C103.222 35.4651 103.161 30.0183 103.228 29.664L103.278 29.4149L103.883 30.212C104.222 30.6493 105.455 32.2213 106.628 33.6993C107.8 35.1772 108.95 36.6386 109.178 36.943L109.257 37.0493C109.449 37.3057 109.601 37.5083 109.606 37.5132C109.617 37.5243 109.667 37.5132 109.717 37.4855C109.8 37.4357 109.811 37.0704 109.822 33.1734L109.824 32.7056C109.835 29.003 109.837 28.308 110.154 28.1083C110.227 28.0622 110.317 28.0425 110.428 28.0182C110.449 28.0136 110.472 28.0086 110.495 28.0034C110.933 27.9037 110.956 27.8927 110.989 27.8041C111.006 27.7543 111 27.6823 110.978 27.6325C110.939 27.5661 110.7 27.5495 109.456 27.5495C108.639 27.5495 107.95 27.5661 107.917 27.5827C107.75 27.6878 107.944 27.948 108.183 27.948C108.267 27.948 108.467 27.9868 108.622 28.031C109.167 28.1916 109.194 28.3798 109.228 32.083C109.244 33.9041 109.233 34.978 109.2 34.978C109.133 34.978 108.3 33.9705 106.378 31.5737C104.65 29.4149 104.083 28.6621 103.7 28.0034L103.439 27.555L102.394 27.5439C101.822 27.5384 101.328 27.5384 101.3 27.5495Z" fill="white"/>
  <path d="M117.6 27.555C117.589 27.5661 117.578 27.6436 117.578 27.7266C117.578 27.865 117.6 27.876 117.973 27.9314C118.361 27.9923 118.523 28.0809 118.65 28.3078C118.7 28.3853 118.728 29.3097 118.75 31.4353C118.784 34.2362 118.795 34.4909 118.9 34.978C119.278 36.6718 120.345 37.48 122.189 37.4855C123.956 37.491 125.095 36.622 125.517 34.9503C125.701 34.2252 125.745 33.5332 125.745 31.5626C125.745 29.7249 125.801 28.5901 125.912 28.3133C125.984 28.1141 126.256 27.9646 126.617 27.9203C126.928 27.8816 127.034 27.7875 126.934 27.6325C126.856 27.5107 123.973 27.5107 123.901 27.6325C123.812 27.7985 123.912 27.8871 124.234 27.9259C124.851 27.9978 124.973 28.1473 125.078 28.9499C125.173 29.6695 125.217 32.8468 125.139 33.6218C125.028 34.8396 124.739 35.6422 124.217 36.1681C123.712 36.6829 122.984 36.9098 122.15 36.8047C120.973 36.6552 120.317 35.9854 120.006 34.6292C119.906 34.1643 119.889 33.893 119.873 31.5128C119.856 29.7747 119.867 28.7949 119.906 28.579C119.989 28.1362 120.123 28.0144 120.6 27.9369C120.984 27.876 121.089 27.7875 120.989 27.6325C120.945 27.5661 120.662 27.5495 119.284 27.5439C118.373 27.5384 117.611 27.5439 117.6 27.555Z" fill="white"/>
  <path d="M127.212 27.555C127.201 27.5661 127.19 27.6491 127.19 27.7321C127.19 27.9037 127.212 27.9148 127.706 27.9701C128.051 28.0089 128.167 28.0753 128.284 28.2967C128.378 28.4573 128.384 28.7672 128.401 32.1992C128.412 34.6459 128.395 36.0297 128.356 36.24C128.273 36.6884 128.145 36.7991 127.612 36.8711L127.19 36.932V37.2752L130.356 37.2807L133.523 37.2918L133.656 36.8656C133.768 36.5057 133.956 35.7751 134.056 35.3212C134.073 35.2271 134.051 35.1828 133.956 35.1496C133.768 35.0776 133.729 35.1108 133.562 35.5204C133.317 36.1127 133.04 36.4781 132.717 36.6386C132.456 36.7659 132.39 36.7714 131.467 36.777C130.334 36.777 130.051 36.7216 129.806 36.4393C129.712 36.3341 129.623 36.1459 129.584 35.9743C129.512 35.6312 129.501 28.8835 129.573 28.5015C129.634 28.2137 129.823 28.02 130.106 27.9757C130.159 27.9674 130.23 27.9577 130.3 27.9481C130.371 27.9384 130.442 27.9286 130.495 27.9203C130.651 27.8927 130.69 27.865 130.69 27.7653C130.69 27.6989 130.667 27.6159 130.645 27.5882C130.606 27.5329 127.267 27.5052 127.212 27.555Z" fill="white"/>
  <path d="M17.0915 42.1685C16.5692 42.4065 16.0025 43.2645 15.7192 44.2498L15.5914 44.6926L15.2358 44.7203C14.9192 44.7424 14.8803 44.759 14.8636 44.8697C14.8469 44.9915 14.8636 44.9971 15.1858 44.9971C15.4859 44.9971 15.5247 45.0081 15.497 45.0912C15.4525 45.2351 15.1747 46.3975 14.8525 47.8201C14.5247 49.2372 14.3969 49.6136 14.2136 49.7354C14.0525 49.8405 13.8969 49.8018 13.6191 49.5859C13.3691 49.3866 13.2802 49.3866 13.1969 49.5638C13.0969 49.7741 13.1136 49.8904 13.258 50.0232C13.5247 50.2723 13.9691 50.228 14.3969 49.918C14.8081 49.6191 15.0025 49.1154 15.5581 46.9289L16.047 45.0247L16.547 44.9971C17.0137 44.9694 17.047 44.9583 17.0637 44.8421C17.0804 44.7258 17.0692 44.7203 16.6026 44.7203H16.1192L16.1581 44.5376C16.247 44.1391 16.5414 43.2866 16.7026 42.9877C16.8692 42.6667 17.2359 42.2847 17.3748 42.2847C17.5304 42.2847 17.7415 42.5117 17.7748 42.722C17.8304 43.0597 17.8804 43.104 18.0415 42.9545C18.1193 42.8825 18.1971 42.7552 18.2137 42.6667C18.2526 42.4895 18.1248 42.2072 17.9693 42.1186C17.797 42.0301 17.347 42.0578 17.0915 42.1685Z" fill="white"/>
  <path d="M57.0205 42.1297C56.6872 42.2017 56.6427 42.257 56.7872 42.412C56.8538 42.484 56.9094 42.5781 56.9094 42.6224C56.9094 42.6722 56.5483 43.8844 56.1038 45.3237C55.6593 46.7629 55.3093 47.9585 55.326 47.9917C55.3482 48.0194 55.4204 48.0415 55.4927 48.0415C55.6093 48.0415 55.676 47.9419 55.9871 47.3219C56.5038 46.2923 56.9983 45.6004 57.5316 45.1687C58.1928 44.6317 58.2817 44.9915 57.8428 46.4861C57.6316 47.2334 57.5316 47.488 57.3927 47.6375C57.2872 47.7537 57.2761 47.7592 57.1316 47.6707C56.9149 47.5434 56.7872 47.6098 56.8094 47.8312C56.826 47.9862 56.8483 48.0194 56.9872 48.0305C57.2372 48.0581 57.4538 47.9364 57.7205 47.6098C58.1372 47.1005 58.515 46.2038 58.6372 45.4454C58.6872 45.0967 58.6817 45.0247 58.5928 44.8421C58.5039 44.6594 58.465 44.6373 58.2594 44.6207C58.1039 44.6096 57.9483 44.6428 57.7872 44.7258C57.4816 44.8808 56.9094 45.4288 56.5927 45.8717C56.4538 46.0654 56.3316 46.2093 56.3205 46.2038C56.3094 46.1927 56.5872 45.2794 56.9372 44.1778C57.2872 43.0763 57.5761 42.1463 57.5761 42.1186C57.5761 42.0522 57.3594 42.0578 57.0205 42.1297Z" fill="white"/>
  <path d="M68.0764 42.1574C67.6653 42.2626 67.6264 42.3124 67.8209 42.4729C67.9653 42.5836 67.9764 42.6224 67.9431 42.7995C67.9209 42.9102 67.6098 43.9675 67.2486 45.1465C66.5002 47.5803 66.4519 47.7373 66.4807 47.8789C66.4826 47.8886 66.485 47.8983 66.4875 47.9087C66.5208 48.0249 66.5542 48.0415 66.7764 48.0415C67.0986 48.0415 67.3986 47.8865 67.6598 47.5876C67.9153 47.2943 68.0931 46.9511 68.0209 46.9068C67.9931 46.8902 67.7875 47.0618 67.5653 47.2943C67.1486 47.7205 67.0209 47.7924 67.0209 47.5932C67.0209 47.4935 68.482 42.6501 68.6265 42.2681C68.6598 42.1795 68.6876 42.102 68.6876 42.0854C68.6876 42.0412 68.3765 42.0744 68.0764 42.1574Z" fill="white"/>
  <path fill-rule="evenodd" clip-rule="evenodd" d="M91.1217 42.1297C90.8828 42.1906 90.855 42.2736 91.0217 42.4231C91.0828 42.4785 91.1328 42.5615 91.1328 42.6058C91.1328 42.6722 90.6217 44.3494 90.4939 44.7092C90.4716 44.7701 90.4439 44.7646 90.3439 44.6982C89.9939 44.4491 89.3772 44.6926 88.7383 45.3237C88.3938 45.6668 88.266 45.844 88.0605 46.2702C87.8993 46.6023 87.7771 46.94 87.7382 47.1891C87.6771 47.5434 87.6771 47.5987 87.7771 47.798C87.8771 48.0028 87.8938 48.0139 88.1716 48.0305C88.6438 48.0581 89.0438 47.7703 89.6438 46.9732C89.9883 46.5027 90.0272 46.5138 89.855 47.023C89.5772 47.8146 89.5938 48.0415 89.9327 48.0415C90.2383 48.0415 90.9939 47.3939 91.105 47.0396C91.1772 46.8182 91.0772 46.868 90.6883 47.2334C90.2994 47.5987 90.2216 47.643 90.1661 47.5489C90.1216 47.4825 90.7161 45.4897 91.3272 43.6354C91.5884 42.8383 91.7995 42.1574 91.7995 42.1242C91.7995 42.0522 91.4106 42.0522 91.1217 42.1297ZM90.2216 44.9749C90.305 45.0967 90.3105 45.1521 90.2494 45.3956C90.0494 46.2702 88.966 47.6264 88.366 47.7426C88.2105 47.7758 88.1882 47.7592 88.1549 47.6319C88.0327 47.1503 89.1994 45.2406 89.8272 44.8974C90.005 44.7978 90.1216 44.8199 90.2216 44.9749Z" fill="white"/>
  <path d="M154.496 42.1574C154.118 42.2681 154.09 42.3124 154.268 42.4785C154.396 42.5947 154.413 42.6501 154.385 42.7995C154.363 42.8936 154.024 44.0339 153.629 45.3292C153.201 46.7075 152.913 47.7482 152.924 47.8478C152.94 48.0028 152.957 48.0139 153.207 48.0305C153.574 48.0526 153.901 47.8589 154.224 47.4216C154.446 47.1171 154.535 46.8791 154.424 46.8791C154.401 46.8791 154.251 47.0286 154.085 47.2112C153.746 47.5987 153.54 47.7482 153.468 47.6762C153.435 47.643 153.729 46.5857 154.263 44.8421L155.118 42.0633L154.946 42.0688C154.852 42.0688 154.652 42.1076 154.496 42.1574Z" fill="white"/>
  <path d="M46.8591 42.8493C46.6813 43.2257 46.6035 43.4361 46.6424 43.4748C46.6757 43.5136 46.7368 43.4748 46.8146 43.3641C47.0202 43.0707 47.298 42.8438 47.5091 42.7829C47.8202 42.6999 48.6814 42.7109 48.7202 42.7995C48.748 42.877 47.6535 46.7739 47.4591 47.2998C47.3258 47.6541 47.2424 47.726 46.9146 47.7648C46.748 47.7814 46.6535 47.8201 46.6424 47.8755C46.6313 47.953 46.7591 47.964 47.6313 47.964C48.5147 47.964 48.6314 47.953 48.6202 47.881C48.6091 47.8257 48.5202 47.7814 48.3647 47.7592C48.1202 47.726 48.0202 47.6485 48.0202 47.4825C48.0202 47.333 49.298 42.877 49.3647 42.794C49.4147 42.7386 49.5703 42.722 50.0092 42.7386C50.537 42.7552 50.5925 42.7663 50.6925 42.8881C50.7648 42.9766 50.7981 43.104 50.7981 43.2866C50.7981 43.4914 50.8203 43.5579 50.8814 43.5579C50.9259 43.5579 50.9648 43.5136 50.9648 43.4582C50.9703 43.4084 51.0537 43.1427 51.1592 42.8715C51.3537 42.3511 51.3592 42.2127 51.1759 42.3788C51.0703 42.4729 50.9259 42.4785 49.2036 42.4785C47.498 42.4785 47.3369 42.4729 47.2758 42.3788C47.2369 42.329 47.1869 42.2847 47.1702 42.2847C47.1535 42.2847 47.0146 42.5393 46.8591 42.8493Z" fill="white"/>
  <path d="M137.523 42.484C136.79 42.6777 136.062 43.1482 135.651 43.6962C134.968 44.5985 134.717 45.6392 134.94 46.5913C135.151 47.4714 135.751 47.9751 136.701 48.0747C137.006 48.1024 137.534 48.0415 138.173 47.9032C138.307 47.8699 138.484 47.5766 138.684 47.0396C138.79 46.7629 138.795 46.6577 138.69 46.6577C138.668 46.6577 138.568 46.7795 138.468 46.9289C138.084 47.5323 137.568 47.8423 136.968 47.8367C136.345 47.8312 135.923 47.5655 135.684 47.023C135.495 46.6079 135.473 45.7277 135.623 45.1188C135.895 44.045 136.495 43.2479 137.329 42.8549C137.706 42.6777 137.829 42.6445 138.24 42.6279C138.651 42.6113 138.745 42.6279 138.901 42.7275C139.145 42.8825 139.268 43.1704 139.223 43.5136C139.195 43.7239 139.201 43.7793 139.268 43.7793C139.362 43.7793 139.723 42.6833 139.651 42.6168C139.429 42.4065 138.118 42.3235 137.523 42.484Z" fill="white"/>
  <path d="M9.26341 42.5006C9.18563 42.5781 9.26896 42.6667 9.4523 42.6999C9.71342 42.7497 9.79676 42.8161 9.79676 42.9822C9.79676 43.1261 8.74672 46.8182 8.5745 47.2776C8.4356 47.6485 8.38004 47.6983 8.06892 47.7537C7.91892 47.7814 7.81891 47.8257 7.8078 47.8755C7.79669 47.9474 7.93003 47.9585 8.74117 47.964C9.61342 47.964 9.68564 47.9585 9.68564 47.8644C9.68564 47.7869 9.6412 47.7648 9.5023 47.7648C9.30785 47.7648 9.13007 47.6319 9.13007 47.4825C9.13007 47.4382 9.40786 46.4197 9.75231 45.2185C10.4412 42.7995 10.4579 42.7663 10.9023 42.6943C11.0579 42.6667 11.1301 42.6279 11.1301 42.567C11.1301 42.4895 11.019 42.4785 10.2079 42.4785C9.70231 42.4785 9.27452 42.4895 9.26341 42.5006Z" fill="white"/>
  <path d="M94.9496 42.5283C94.9107 42.6334 94.9385 42.6501 95.1996 42.6999C95.4996 42.7552 95.5551 42.8438 95.4774 43.1648C95.444 43.3143 95.1773 44.1169 94.8829 44.9472C93.944 47.6042 93.8995 47.6928 93.4773 47.7482C93.3106 47.7703 93.2439 47.8035 93.2439 47.8699C93.2439 47.9474 93.3439 47.9585 94.0773 47.9585C94.794 47.9585 94.9107 47.9474 94.9107 47.8699C94.9107 47.8146 94.8273 47.7703 94.6773 47.7316C94.4607 47.6873 94.4384 47.6651 94.4218 47.5046C94.4107 47.3884 94.6162 46.6798 95.0218 45.4842C95.3607 44.4712 95.6718 43.5634 95.7107 43.4748L95.7829 43.3088L95.8163 43.5855C95.8329 43.735 95.9274 44.748 96.0274 45.8274C96.1218 46.9068 96.2163 47.8035 96.2274 47.8201C96.2607 47.8533 96.3163 47.7758 96.7552 47.1005C97.1941 46.4197 99.3608 43.3254 99.3886 43.3475C99.4164 43.3807 98.3552 47.1171 98.2497 47.3496C98.1219 47.6319 98.0219 47.7149 97.7441 47.7482C97.5885 47.7703 97.5219 47.8035 97.5219 47.8699C97.5219 47.9474 97.633 47.9585 98.483 47.9585C99.2941 47.9585 99.4386 47.9474 99.4386 47.8755C99.4386 47.8201 99.3664 47.7814 99.2164 47.7648C98.9219 47.726 98.8552 47.6762 98.8552 47.5101C98.8552 47.3496 99.7442 43.818 99.9164 43.2977C100.044 42.9047 100.2 42.7552 100.522 42.6999C100.678 42.6722 100.744 42.6334 100.744 42.5726C100.744 42.4895 100.666 42.4785 100.122 42.4785H99.5053L99.2997 42.8659C99.1108 43.2313 96.7941 46.5636 96.683 46.63C96.6552 46.6521 96.6329 46.6245 96.6329 46.5747C96.6329 46.5248 96.5552 45.8218 96.4607 45.0081C96.3663 44.1944 96.2829 43.2977 96.2774 43.0209L96.2718 42.5061H95.7051C95.394 42.5061 95.1051 42.4895 95.0607 42.4729C95.0162 42.4563 94.9662 42.484 94.9496 42.5283Z" fill="white"/>
  <path d="M35.9421 43.0154C35.731 43.3475 35.7921 43.6686 36.0699 43.6686C36.1532 43.6686 36.2699 43.6243 36.3199 43.5634C36.4477 43.425 36.4977 43.0818 36.4088 42.9766C36.3032 42.8493 36.0365 42.8715 35.9421 43.0154Z" fill="white"/>
  <path d="M158.663 43.0265C158.541 43.2147 158.568 43.6354 158.707 43.6575C158.991 43.7128 159.191 43.5136 159.191 43.1814C159.191 42.9877 159.096 42.8936 158.902 42.8936C158.802 42.8936 158.718 42.9379 158.663 43.0265Z" fill="white"/>
  <path d="M33.4142 44.3273L33.4065 44.3422C33.1919 44.7592 33.1889 44.765 32.9308 44.8033C32.5919 44.8531 32.5197 44.8808 32.5197 44.9749C32.5197 45.0303 32.5975 45.0524 32.7975 45.0524C32.9586 45.0524 33.0753 45.0746 33.0753 45.1133C33.0753 45.1465 32.8975 45.7333 32.6864 46.4252C32.4642 47.1337 32.2975 47.7482 32.3086 47.8478C32.3253 47.9917 32.3475 48.0139 32.5086 48.0305C32.7475 48.0526 33.142 47.8091 33.542 47.3718C34.0309 46.8459 34.0475 46.5691 33.5642 47.0286C33.192 47.3773 32.9753 47.5212 32.9086 47.4548C32.8642 47.405 33.5253 45.1908 33.6142 45.1022C33.6364 45.0801 33.8475 45.0524 34.0753 45.0413C34.4587 45.0247 34.492 45.0137 34.5087 44.8974C34.5253 44.7812 34.5087 44.7756 34.1087 44.7756H33.6864L33.7198 44.6207C33.7388 44.5495 33.7783 44.4091 33.8137 44.2833L33.8309 44.2221C33.8864 44.0339 33.892 43.9675 33.8364 43.9343C33.692 43.8402 33.6253 43.9066 33.4142 44.3273Z" fill="white"/>
  <path d="M131.195 44.3273L131.188 44.3422C130.973 44.7592 130.97 44.765 130.712 44.8033C130.373 44.8531 130.301 44.8808 130.301 44.9749C130.301 45.0303 130.378 45.0524 130.578 45.0524C130.74 45.0524 130.856 45.0746 130.856 45.1133C130.856 45.1465 130.678 45.7333 130.467 46.4252C130.245 47.1337 130.078 47.7482 130.09 47.8478C130.106 47.9917 130.128 48.0139 130.29 48.0305C130.528 48.0526 130.923 47.8091 131.323 47.3718C131.834 46.8237 131.829 46.5691 131.317 47.0562C130.962 47.3939 130.756 47.5212 130.69 47.4492C130.645 47.405 131.312 45.1853 131.395 45.1022C131.417 45.0801 131.629 45.0524 131.856 45.0413C132.24 45.0247 132.273 45.0137 132.29 44.8974C132.306 44.7812 132.29 44.7756 131.89 44.7756H131.467L131.501 44.6207C131.52 44.5498 131.559 44.4103 131.594 44.2849L131.595 44.2818L131.612 44.2221C131.667 44.0339 131.673 43.9675 131.617 43.9343C131.473 43.8402 131.406 43.9066 131.195 44.3273Z" fill="white"/>
  <path d="M156.146 44.3273C155.918 44.748 155.902 44.7701 155.674 44.8033C155.318 44.8587 155.246 44.8863 155.246 44.9749C155.246 45.0303 155.318 45.0524 155.524 45.0524C155.718 45.0524 155.802 45.0746 155.802 45.1244C155.802 45.1687 155.624 45.7665 155.413 46.4639C155.196 47.1614 155.024 47.7924 155.035 47.8699C155.046 47.9862 155.085 48.0194 155.229 48.0305C155.524 48.0581 155.985 47.7482 156.418 47.2278C156.607 46.9953 156.702 46.7684 156.602 46.7684C156.585 46.7684 156.39 46.9289 156.179 47.1282C155.779 47.4935 155.635 47.5655 155.635 47.3884C155.635 47.3385 155.79 46.7961 155.985 46.1872L156.329 45.0801L156.79 45.0635C157.235 45.0469 157.246 45.0413 157.246 44.914C157.246 44.7812 157.235 44.7756 156.835 44.7756H156.424L156.524 44.3771C156.635 43.9564 156.629 43.89 156.479 43.89C156.418 43.89 156.302 44.045 156.146 44.3273Z" fill="white"/>
  <path fill-rule="evenodd" clip-rule="evenodd" d="M31.2697 44.6373C31.1752 44.8697 31.1697 44.8808 31.0586 44.8033C30.6363 44.5099 29.7863 45.0303 29.1641 45.9602C28.8696 46.4031 28.5863 47.023 28.5085 47.3939C28.4474 47.6707 28.4529 47.7371 28.5252 47.8644C28.5974 47.9917 28.6418 48.0139 28.8641 48.0083C29.0696 48.0083 29.1752 47.964 29.4807 47.7482C29.6808 47.6042 29.9808 47.3385 30.1419 47.1559C30.2974 46.9732 30.4363 46.8348 30.4474 46.8459C30.4586 46.8514 30.403 47.0452 30.3252 47.2721C30.2474 47.4991 30.1919 47.7537 30.1974 47.8478C30.2141 47.9973 30.2363 48.0139 30.4363 48.0305C30.6086 48.0415 30.7197 48.0083 30.9252 47.8755C31.2141 47.6817 31.6308 47.2389 31.6308 47.1227C31.6308 47.0064 31.5975 47.023 31.2364 47.3219C30.9086 47.5987 30.6863 47.6762 30.6863 47.5157C30.6863 47.4714 30.9141 46.7905 31.1919 45.999C31.4697 45.2019 31.6864 44.521 31.6642 44.4712C31.6475 44.4269 31.5753 44.3882 31.4975 44.3882C31.3864 44.3882 31.3419 44.438 31.2697 44.6373ZM30.8308 45.1354C30.8789 45.1834 30.9116 45.216 30.9274 45.2553C30.9608 45.3385 30.9184 45.4519 30.7863 45.8052C30.5752 46.3809 29.9585 47.1725 29.4641 47.5157C29.0807 47.7814 28.9974 47.6208 29.1641 46.9677C29.353 46.2259 29.8863 45.3679 30.3252 45.1022C30.5474 44.9639 30.6641 44.9694 30.8308 45.1354Z" fill="white"/>
  <path fill-rule="evenodd" clip-rule="evenodd" d="M82.8825 44.6428C82.7936 44.8753 82.7825 44.8864 82.6936 44.8089C82.4769 44.6151 81.9825 44.748 81.4991 45.1244C81.0047 45.5119 80.3435 46.5913 80.1602 47.3053C80.0824 47.6098 80.0824 47.6707 80.1546 47.8423C80.2324 48.0249 80.2602 48.0415 80.4546 48.0415C80.7435 48.0415 81.2213 47.726 81.7102 47.2112C81.9102 46.9953 82.0769 46.8404 82.0769 46.868C82.0769 46.8957 82.0158 47.1005 81.938 47.3275C81.8603 47.5544 81.8047 47.798 81.8102 47.8755C81.8325 48.0803 82.1658 48.0969 82.4825 47.9087C82.7603 47.7482 83.2436 47.2555 83.2436 47.1282C83.2436 47.0064 83.2047 47.023 82.9214 47.2721C82.6047 47.5489 82.4269 47.6375 82.3547 47.5655C82.2991 47.5101 82.4825 46.9289 83.0936 45.2129C83.3547 44.4767 83.3603 44.3882 83.0992 44.3882C83.0103 44.3882 82.9603 44.4491 82.8825 44.6428ZM82.4436 45.1299C82.5936 45.2572 82.5992 45.2683 82.5269 45.5008C82.3936 45.9436 82.0158 46.5913 81.6714 46.9677C81.3158 47.3551 80.9436 47.6541 80.8213 47.6541C80.488 47.6541 81.0102 46.0765 81.5547 45.4454C81.7825 45.1853 82.0491 44.9971 82.1992 44.9971C82.2491 44.9971 82.3603 45.058 82.4436 45.1299Z" fill="white"/>
  <path fill-rule="evenodd" clip-rule="evenodd" d="M103.072 44.6428C102.972 44.8864 102.961 44.8974 102.861 44.8089C102.461 44.4491 101.416 45.1687 100.805 46.237C100.211 47.2776 100.128 48.0415 100.611 48.0415C100.955 48.0415 101.416 47.7316 101.978 47.1337L102.294 46.7961L102.128 47.3164C101.933 47.9253 101.95 48.0415 102.222 48.0415C102.544 48.0415 102.972 47.7758 103.294 47.3718C103.55 47.0562 103.444 46.9787 103.128 47.2555C102.866 47.4825 102.683 47.5987 102.572 47.5987C102.461 47.5987 102.544 47.3109 103.044 45.8827C103.311 45.141 103.511 44.4989 103.5 44.4601C103.483 44.4214 103.405 44.3882 103.328 44.3882C103.211 44.3882 103.166 44.4324 103.072 44.6428ZM102.639 45.1133C102.789 45.2628 102.761 45.4842 102.505 46.0156C102.272 46.5027 101.878 47.023 101.533 47.3109C101.039 47.7205 100.911 47.7316 100.911 47.3828C100.911 46.8182 101.344 45.8938 101.855 45.3679C102.255 44.9583 102.428 44.903 102.639 45.1133Z" fill="white"/>
  <path fill-rule="evenodd" clip-rule="evenodd" d="M110.689 44.438C110.689 44.4657 110.65 44.5764 110.6 44.6926C110.522 44.8864 110.511 44.8919 110.417 44.8089C110.161 44.5819 109.528 44.8144 109.039 45.3181C108.272 46.1041 107.672 47.4825 107.906 47.9198C108.078 48.2464 108.733 47.9419 109.433 47.2168C109.644 47.0009 109.8 46.8625 109.783 46.9179C109.777 46.9514 109.747 47.0502 109.711 47.1746L109.71 47.1763C109.686 47.2564 109.659 47.3477 109.633 47.4382C109.561 47.6707 109.522 47.9032 109.539 47.953C109.583 48.0748 109.939 48.0692 110.167 47.9419C110.545 47.7371 111.067 47.178 110.972 47.0839C110.933 47.0452 110.839 47.1005 110.661 47.2611C110.372 47.5267 110.156 47.643 110.078 47.5655C110.022 47.5101 110.067 47.3718 110.689 45.6115C111.006 44.7148 111.072 44.4767 111.011 44.438C110.917 44.3771 110.689 44.3771 110.689 44.438ZM110.172 45.1188C110.245 45.1853 110.3 45.2904 110.3 45.3513C110.295 45.5229 110.011 46.154 109.783 46.4972C109.556 46.8404 108.933 47.4714 108.711 47.5876C108.489 47.7039 108.411 47.5766 108.472 47.2223C108.628 46.392 109.111 45.5063 109.6 45.1521C109.861 44.9639 110 44.9583 110.172 45.1188Z" fill="white"/>
  <path d="M11.4635 44.7646C11.2079 44.9251 10.8523 45.2904 10.8523 45.3845C10.8523 45.4786 10.9412 45.4454 11.2412 45.2462C11.5413 45.0413 11.6857 45.0026 11.6857 45.1244C11.6857 45.1631 11.4857 45.7886 11.2412 46.5193C10.9968 47.25 10.7968 47.8921 10.7968 47.9419C10.7968 48.0139 10.8412 48.0415 10.9524 48.0415C11.0912 48.0415 11.1357 47.9862 11.4857 47.2776C11.6913 46.8625 11.9968 46.32 12.1579 46.0765C12.5024 45.5561 13.1913 44.8697 13.3358 44.8974C13.5413 44.9362 13.4802 45.2295 12.9913 46.5359C12.7246 47.2444 12.5191 47.8644 12.5302 47.9198C12.5635 48.0858 12.9191 48.0692 13.2469 47.8921C13.5635 47.7205 13.9636 47.3053 13.9636 47.1503C13.9636 47.0894 13.9469 47.0452 13.9302 47.0452C13.9136 47.0452 13.758 47.1669 13.5913 47.3219C13.2913 47.5932 13.1302 47.6651 13.1302 47.5267C13.1302 47.4935 13.2691 47.1171 13.4358 46.6909C13.9691 45.3569 14.0525 44.9805 13.8747 44.7314C13.7469 44.5487 13.3913 44.5653 13.0691 44.7646C12.758 44.9639 12.3302 45.4344 11.9691 45.9713C11.8135 46.2038 11.6857 46.3698 11.6857 46.3422C11.6857 46.3145 11.7968 45.9824 11.9357 45.6004C12.0746 45.224 12.1802 44.8531 12.1746 44.7756C12.1579 44.6594 12.1246 44.6373 11.9357 44.6207C11.769 44.6096 11.6524 44.6428 11.4635 44.7646Z" fill="white"/>
  <path fill-rule="evenodd" clip-rule="evenodd" d="M18.1637 44.7314C17.4915 45.0801 16.8526 46.2204 16.8526 47.0728C16.8526 47.7371 17.0915 48.0415 17.6193 48.0415C18.0304 48.0415 18.3415 47.8865 18.6582 47.5267C19.4749 46.5968 19.7249 45.1742 19.1582 44.7314C18.9526 44.5653 18.4693 44.5653 18.1637 44.7314ZM18.8749 44.9528C19.0026 45.1354 18.986 45.5229 18.8193 46.082C18.5248 47.1171 18.0637 47.8201 17.6859 47.8201C17.2026 47.8201 17.2581 46.9012 17.8248 45.7443C18.2137 44.9362 18.6415 44.6151 18.8749 44.9528Z" fill="white"/>
  <path d="M20.8193 44.7092C20.6526 44.8144 20.2971 45.307 20.2971 45.4288C20.2971 45.5451 20.4082 45.5008 20.5749 45.307C20.7582 45.0967 20.9527 45.0192 20.9971 45.1354C21.0304 45.2185 20.8582 45.8883 20.4915 47.0452C20.3526 47.488 20.2415 47.8921 20.2415 47.9419C20.2415 48.0139 20.286 48.0415 20.4137 48.0415C20.5526 48.0415 20.5915 48.0083 20.6638 47.8312C21.1249 46.713 21.686 45.617 21.986 45.2462C22.0971 45.1078 22.1305 45.0967 22.2027 45.1521C22.2527 45.1963 22.3083 45.3015 22.3249 45.3901C22.3471 45.4786 22.3971 45.5506 22.4416 45.5506C22.6305 45.5506 22.7805 44.8365 22.6194 44.676C22.5305 44.5874 22.2916 44.593 22.1471 44.6926C21.9971 44.7978 21.6805 45.2683 21.3471 45.9049C21.1971 46.1816 21.0749 46.3754 21.0749 46.3366C21.0749 46.2923 21.1527 46.0156 21.2471 45.7167C21.3582 45.3458 21.4082 45.0856 21.3971 44.903C21.3804 44.6428 21.3749 44.6373 21.186 44.6207C21.0693 44.6151 20.9249 44.6483 20.8193 44.7092Z" fill="white"/>
  <path d="M23.6972 44.7258C23.4361 44.8531 23.1305 45.1853 23.1305 45.3403C23.1305 45.4786 23.1972 45.462 23.3583 45.296C23.5305 45.1078 23.8472 44.9694 23.925 45.0469C23.9639 45.0856 23.8361 45.5451 23.5305 46.4806C23.2805 47.2444 23.0749 47.9032 23.0749 47.953C23.0749 48.0139 23.1249 48.0415 23.2305 48.0415C23.3694 48.0415 23.4083 47.9862 23.7583 47.2776C24.225 46.32 24.6028 45.7443 25.0806 45.2572C25.3639 44.9694 25.4917 44.8808 25.5861 44.8974C25.6528 44.9085 25.7195 44.9583 25.7306 45.0081C25.7417 45.0635 25.5361 45.7333 25.275 46.4972C25.0139 47.261 24.7972 47.9253 24.7972 47.964C24.7972 48.0139 24.8583 48.0415 24.9528 48.0415C25.1028 48.0415 25.1417 47.9862 25.4972 47.3109C25.9695 46.4031 26.4306 45.7001 26.8695 45.2406C27.1973 44.8864 27.3806 44.8033 27.4473 44.9805C27.4973 45.1078 27.4029 45.4288 26.9306 46.6909C26.6973 47.3109 26.5195 47.8589 26.5306 47.9142C26.5528 48.0526 26.9028 48.0747 27.1417 47.953C27.4362 47.8035 27.764 47.5157 27.8807 47.3053C28.0362 47.0175 27.9418 46.9898 27.6695 47.25C27.4584 47.4548 27.2473 47.5987 27.164 47.5987C27.0862 47.5987 27.1529 47.3884 27.4973 46.5082C27.9362 45.4067 28.0307 44.9694 27.8918 44.7535C27.814 44.6373 27.7529 44.6096 27.5751 44.6096C27.4584 44.6096 27.2973 44.6317 27.214 44.6649C26.9584 44.759 26.5139 45.2351 26.125 45.8218C25.9139 46.1374 25.7417 46.3864 25.7417 46.3698C25.7417 46.3532 25.8306 46.0986 25.9361 45.8052C26.1306 45.2628 26.175 44.9085 26.075 44.7148C25.9917 44.5653 25.6084 44.5708 25.3528 44.7258C24.975 44.9528 24.5583 45.4288 24.1639 46.082C24.0528 46.2591 23.9639 46.3809 23.9639 46.3532C23.9639 46.32 24.0805 45.9602 24.225 45.5506C24.375 45.1188 24.4694 44.759 24.4472 44.7037C24.3972 44.5708 23.9972 44.5819 23.6972 44.7258Z" fill="white"/>
  <path d="M35.6365 44.7314C35.3087 44.903 34.8532 45.3126 34.8532 45.4454C34.8532 45.5617 34.9365 45.5894 34.992 45.4897C35.042 45.4122 35.4698 45.1078 35.531 45.1078C35.6198 45.1078 35.5698 45.2794 35.0754 46.5636C34.792 47.2998 34.5865 47.9032 34.6087 47.953C34.6643 48.1024 35.0198 48.0637 35.3309 47.8699C35.6865 47.6485 36.131 47.2168 36.131 47.0894C36.131 46.9455 36.0865 46.9621 35.8254 47.2057C35.6921 47.3275 35.5087 47.4659 35.4143 47.5101C35.2476 47.5987 35.2421 47.5987 35.2421 47.488C35.2421 47.4271 35.4587 46.8182 35.7198 46.1374C35.981 45.451 36.1865 44.8365 36.1754 44.7646C36.1532 44.5874 35.9421 44.5764 35.6365 44.7314Z" fill="white"/>
  <path fill-rule="evenodd" clip-rule="evenodd" d="M38.2032 44.7258C37.4698 45.0856 36.7698 46.4418 36.8809 47.2887C36.9532 47.8478 37.1532 48.0415 37.6587 48.0415C38.0365 48.0415 38.331 47.8921 38.6699 47.5378C39.4977 46.6577 39.7644 45.0192 39.1255 44.6926C38.9032 44.5764 38.4754 44.5874 38.2032 44.7258ZM38.8421 44.8753C38.9477 44.9417 39.0255 45.2738 38.9866 45.4952C38.931 45.8274 38.681 46.6134 38.5199 46.9732C38.3032 47.4492 37.9476 47.8201 37.7143 47.8201C37.6143 47.8201 37.5032 47.7814 37.4643 47.7371C37.2476 47.4825 37.4143 46.6411 37.8532 45.7388C38.2143 44.9971 38.5588 44.6982 38.8421 44.8753Z" fill="white"/>
  <path d="M40.9033 44.7646C40.7644 44.8531 40.57 45.0247 40.4755 45.141C40.1755 45.5008 40.2533 45.5395 40.6866 45.2462C40.9866 45.0413 41.1311 45.0026 41.1311 45.1244C41.1311 45.1631 40.9311 45.7886 40.6866 46.5193C40.4422 47.25 40.2422 47.8921 40.2422 47.9419C40.2422 48.0139 40.2866 48.0415 40.3977 48.0415C40.5366 48.0415 40.5811 47.9862 40.9311 47.2776C41.1422 46.8625 41.42 46.3477 41.5589 46.1374C41.8867 45.6336 42.6367 44.8697 42.7756 44.8974C42.9867 44.9362 42.9256 45.2185 42.4367 46.5414C42.17 47.2444 41.9645 47.8699 41.9756 47.9198C42.0089 48.0858 42.37 48.0692 42.6923 47.8921C43.0089 47.7205 43.4089 47.3053 43.4089 47.1503C43.4089 47.0894 43.3923 47.0452 43.3756 47.0452C43.3589 47.0452 43.2034 47.1669 43.0367 47.3219C42.7367 47.5932 42.5756 47.6651 42.5756 47.5267C42.5756 47.4935 42.7145 47.1171 42.8811 46.6909C43.4145 45.3569 43.4978 44.9805 43.3201 44.7314C43.1923 44.5487 42.8367 44.5653 42.5145 44.7646C42.2033 44.9639 41.7756 45.4344 41.4144 45.9713C41.2589 46.2038 41.1311 46.3754 41.1311 46.3532C41.1311 46.3311 41.2478 45.9934 41.3867 45.6004C41.5255 45.2074 41.6311 44.831 41.62 44.7646C41.5922 44.5598 41.2255 44.5598 40.9033 44.7646Z" fill="white"/>
  <path fill-rule="evenodd" clip-rule="evenodd" d="M51.2648 44.7757C50.4926 45.2129 49.8537 46.3256 49.8537 47.2278C49.8537 47.571 49.9981 47.9474 50.1592 48.0083C50.3314 48.0748 50.7537 48.0415 50.9537 47.9474C51.2093 47.8257 51.6315 47.4271 51.6315 47.3053C51.6315 47.1725 51.6093 47.1836 51.2759 47.4326C51.0592 47.5932 50.9315 47.6541 50.7815 47.6541C50.5037 47.6541 50.4092 47.5046 50.4092 47.0618C50.4092 46.5581 50.4592 46.464 50.8092 46.3532C51.2037 46.2204 51.7259 45.9602 51.9759 45.761C52.2537 45.5451 52.3871 45.1908 52.2982 44.9196C52.2648 44.8089 52.1871 44.6926 52.1315 44.6649C51.9315 44.5598 51.5593 44.6041 51.2648 44.7757ZM51.8704 44.9473C51.9648 45.0967 51.7148 45.5285 51.3759 45.7942C51.1092 45.999 50.5759 46.2591 50.5759 46.1761C50.5759 46.0488 50.9926 45.4067 51.2481 45.1465C51.5759 44.8089 51.7482 44.7535 51.8704 44.9473Z" fill="white"/>
  <path d="M54.0537 44.7314C53.5815 44.9749 53.0537 45.6779 52.8148 46.3754C52.637 46.8957 52.637 47.5655 52.8148 47.8257C52.9259 47.9917 52.9704 48.0139 53.2315 48.0305C53.4648 48.0415 53.5759 48.0194 53.8037 47.8976C54.1037 47.7316 54.4649 47.3717 54.4649 47.2389C54.4649 47.1282 54.3871 47.1337 54.2926 47.25C54.1593 47.4105 53.7259 47.6541 53.5759 47.6541C53.3259 47.6541 53.2204 47.4769 53.2259 47.095C53.2537 46.2259 53.7815 45.0746 54.2426 44.8864C54.4593 44.7978 54.576 44.8919 54.626 45.2019C54.6538 45.3679 54.6871 45.4178 54.7871 45.4288C55.1204 45.4786 55.2704 44.9472 54.9871 44.7258C54.7871 44.5708 54.3482 44.5708 54.0537 44.7314Z" fill="white"/>
  <path d="M60.0595 44.7258C59.8151 44.8531 59.4095 45.2517 59.4095 45.3624C59.4095 45.4731 59.4317 45.462 59.7484 45.2462C60.0262 45.058 60.1373 45.0192 60.1984 45.0856C60.2151 45.1022 60.0206 45.7443 59.7651 46.5082C59.5095 47.2721 59.2984 47.9308 59.2984 47.9696C59.2984 48.0139 59.365 48.0415 59.465 48.0415C59.6206 48.0415 59.6484 48.0028 60.0262 47.2555C60.5151 46.2813 60.8762 45.7443 61.3596 45.2572C61.7318 44.8864 61.9207 44.8033 61.9874 44.9749C62.0374 45.1022 61.954 45.3624 61.4873 46.6189C61.2596 47.2278 61.0762 47.7924 61.0762 47.881C61.0762 48.0305 61.0929 48.0415 61.2818 48.0415C61.3929 48.0415 61.5929 47.9917 61.7262 47.9253C62.0929 47.7482 62.6929 47.0452 62.4763 47.0452C62.4485 47.0452 62.3096 47.1559 62.1651 47.2943C61.9096 47.5267 61.7096 47.643 61.654 47.5821C61.6373 47.5655 61.804 47.095 62.0262 46.5414C62.3263 45.7665 62.4318 45.4344 62.4485 45.1576C62.4874 44.7148 62.4096 44.6096 62.0485 44.6096C61.854 44.6096 61.7485 44.6539 61.4873 44.8476C61.1818 45.0746 60.6484 45.7001 60.3595 46.1706C60.2929 46.2868 60.2262 46.3809 60.2095 46.3809C60.1984 46.3809 60.3151 46.0266 60.4651 45.5949C60.6206 45.1631 60.7318 44.7646 60.7095 44.7092C60.6706 44.5708 60.3373 44.5819 60.0595 44.7258Z" fill="white"/>
  <path fill-rule="evenodd" clip-rule="evenodd" d="M64.5374 44.7258C63.8485 45.0635 63.2207 46.1982 63.2207 47.1005C63.2207 47.7869 63.4263 48.0415 63.9818 48.0415C64.3985 48.0415 64.643 47.9142 65.0097 47.5157C65.8541 46.5968 66.1041 45.0192 65.4597 44.6926C65.2319 44.5708 64.8096 44.5874 64.5374 44.7258ZM65.1763 44.8753C65.4097 45.0247 65.3652 45.6004 65.0485 46.475C64.8319 47.0784 64.6541 47.3994 64.3985 47.6485C64.2541 47.7924 64.1763 47.8201 64.0207 47.8091C63.6485 47.7758 63.604 47.3773 63.8874 46.4806C64.243 45.3458 64.8096 44.6428 65.1763 44.8753Z" fill="white"/>
  <path fill-rule="evenodd" clip-rule="evenodd" d="M69.8709 44.7258C69.3431 44.986 68.7876 45.7942 68.6042 46.5525C68.4598 47.1725 68.5209 47.6098 68.7987 47.8865C68.9376 48.0249 68.9987 48.0415 69.3098 48.0415C69.6043 48.0415 69.7098 48.0139 69.9154 47.8865C70.6099 47.4437 71.1321 46.4529 71.1321 45.5783C71.1321 45.1133 71.0599 44.9085 70.821 44.7258C70.621 44.5708 70.1876 44.5708 69.8709 44.7258ZM70.5487 44.9417C70.8432 45.2628 70.3154 47.0341 69.7543 47.6098C69.5376 47.8423 69.2598 47.8921 69.132 47.7371C68.9931 47.571 69.0042 47.1559 69.1598 46.63C69.5432 45.3347 70.1876 44.5432 70.5487 44.9417Z" fill="white"/>
  <path fill-rule="evenodd" clip-rule="evenodd" d="M72.9822 44.7424C72.3711 45.0303 71.9544 45.6613 71.9155 46.3698C71.8933 46.8237 71.9655 46.9843 72.2433 47.1282L72.4099 47.2112L72.2377 47.5157C72.0655 47.8257 72.0599 47.9696 72.221 48.1522C72.2822 48.2242 72.2377 48.263 71.8766 48.4512C71.4321 48.6781 71.1099 48.9936 71.0599 49.2538C70.9266 49.9014 71.6488 50.3 72.6822 50.1561C73.2433 50.0786 73.6378 49.9125 73.8544 49.6689C74.0711 49.4199 74.11 49.2372 74.0155 48.9604C73.9378 48.7335 73.8544 48.6615 72.9155 48.0028C72.5711 47.7592 72.4544 47.5544 72.5599 47.3828C72.5877 47.333 72.7655 47.2168 72.9544 47.1282C73.4044 46.9123 73.76 46.558 73.9767 46.1152C74.1267 45.8163 74.1544 45.6945 74.1544 45.3735V44.9915L74.4989 45.0247C74.7119 45.0491 74.7911 45.0581 74.8301 45.023C74.8532 45.0022 74.8623 44.9661 74.8767 44.9085C74.9434 44.6539 74.8322 44.5985 74.4211 44.676C74.1544 44.7258 74.0267 44.7258 73.8878 44.676C73.61 44.5764 73.2989 44.5985 72.9822 44.7424ZM73.6766 44.8974C73.9044 45.1244 73.4044 46.3422 72.8933 46.8016C72.6488 47.023 72.4988 47.0396 72.3766 46.8514C72.2377 46.6355 72.3933 46.1263 72.8155 45.4565C73.1489 44.9196 73.4822 44.7037 73.6766 44.8974ZM72.9433 48.6394C73.5711 49.0434 73.7322 49.3977 73.4155 49.6579C72.9155 50.0786 71.8655 49.9679 71.6155 49.4697C71.5266 49.287 71.5266 49.2483 71.5932 49.0822C71.721 48.7777 72.1988 48.4346 72.4988 48.429C72.5599 48.429 72.7655 48.5231 72.9433 48.6394Z" fill="white"/>
  <path d="M75.6934 44.7701C75.5156 44.9362 75.2433 45.4454 75.2433 45.617C75.2433 45.7831 75.3378 45.772 75.4156 45.6004C75.4934 45.4012 75.7267 45.1078 75.8045 45.1078C75.8323 45.1078 75.8934 45.1908 75.9489 45.2849C76.0934 45.5506 76.0934 47.6762 75.9489 48.1965C75.8045 48.7335 75.5878 49.1431 75.2711 49.4641C74.9544 49.7907 74.7933 49.8295 74.6544 49.6191C74.4878 49.359 74.1322 49.4918 74.1322 49.8129C74.1322 50.1118 74.4211 50.2612 74.7822 50.145C75.0656 50.0509 75.7378 49.3645 76.1489 48.7445C76.9545 47.5323 77.7212 45.7776 77.7879 45.0137C77.8101 44.6815 77.8101 44.6705 77.6712 44.6373C77.4656 44.5819 77.4212 44.6317 77.3823 44.9306C77.299 45.5617 77.1712 46.1595 77.0378 46.547C76.8934 46.9621 76.4767 47.8478 76.4378 47.8146C76.4267 47.8035 76.4434 47.5655 76.4767 47.2943C76.5045 47.0175 76.5212 46.4197 76.5101 45.9658C76.4878 45.2738 76.4656 45.0912 76.3656 44.8698C76.26 44.6317 76.2323 44.6096 76.06 44.6096C75.9211 44.6096 75.8156 44.6594 75.6934 44.7701Z" fill="white"/>
  <path d="M84.627 44.7646C84.377 44.9251 84.0214 45.2904 84.0214 45.3845C84.0214 45.4842 84.1325 45.4454 84.3436 45.2794C84.5881 45.0856 84.8548 45.0026 84.8548 45.1188C84.8548 45.1576 84.6548 45.7886 84.4103 46.5193C84.1659 47.25 83.9659 47.8921 83.9659 47.9419C83.9659 48.0139 84.0103 48.0415 84.1214 48.0415C84.2603 48.0415 84.3047 47.9862 84.6548 47.2776C85.0937 46.3975 85.5103 45.7554 85.8993 45.3513C86.2326 45.0026 86.4382 44.8642 86.5493 44.9085C86.6882 44.9583 86.6493 45.2351 86.4159 45.8384C85.7937 47.5046 85.6826 47.8201 85.6992 47.9142C85.7326 48.0914 86.1104 48.0692 86.4493 47.881C86.7493 47.7039 87.1326 47.2887 87.1326 47.1337C87.1326 47.0009 87.0937 47.0175 86.7604 47.3219C86.4659 47.5876 86.2993 47.6651 86.2993 47.5378C86.2993 47.4991 86.4659 47.0452 86.6659 46.5248C87.1048 45.4011 87.1993 44.9694 87.0604 44.7535C86.9215 44.5487 86.577 44.5542 86.2382 44.7646C85.9215 44.9694 85.4604 45.4676 85.1214 45.9879C84.977 46.2093 84.8548 46.3754 84.8548 46.3477C84.8548 46.3256 84.9714 45.9658 85.1159 45.5506C85.2659 45.1133 85.3603 44.759 85.3381 44.7037C85.2826 44.5487 84.9214 44.5819 84.627 44.7646Z" fill="white"/>
  <path d="M104.911 44.7092C104.672 44.8255 104.244 45.2406 104.244 45.3569C104.244 45.4731 104.267 45.4676 104.583 45.2462C104.861 45.058 104.972 45.0192 105.033 45.0856C105.05 45.1022 104.855 45.7443 104.6 46.5082C104.344 47.2721 104.133 47.9308 104.133 47.9696C104.133 48.0139 104.2 48.0415 104.294 48.0415C104.439 48.0415 104.472 47.9973 104.711 47.4991C104.855 47.2057 105.128 46.702 105.317 46.3865C105.867 45.4565 106.783 44.5985 106.805 44.9805C106.822 45.224 106.761 45.4288 106.322 46.5968C106.05 47.3109 105.867 47.881 105.889 47.9419C105.933 48.0803 106.239 48.0747 106.539 47.9253C106.811 47.7869 107.167 47.4714 107.278 47.2555C107.411 47.0009 107.256 47.0175 106.978 47.2887C106.728 47.5323 106.544 47.643 106.483 47.5821C106.467 47.5655 106.617 47.1337 106.817 46.6189C107.233 45.5451 107.3 45.3292 107.3 45.0192C107.3 44.7314 107.172 44.6096 106.872 44.6096C106.455 44.6096 105.955 45.0524 105.317 45.9768C105.155 46.2093 105.022 46.392 105.022 46.3754C105.022 46.3588 105.133 46.0322 105.272 45.6447C105.411 45.2517 105.522 44.8642 105.522 44.7756C105.522 44.6207 105.505 44.6096 105.317 44.6096C105.2 44.6096 105.017 44.6539 104.911 44.7092Z" fill="white"/>
  <path fill-rule="evenodd" clip-rule="evenodd" d="M112.817 44.7148C112.217 44.9915 111.75 45.6724 111.7 46.3311C111.672 46.7573 111.767 46.9953 112.022 47.1282C112.117 47.178 112.189 47.2278 112.189 47.2444C112.189 47.261 112.128 47.3662 112.05 47.4769C111.895 47.7094 111.872 47.9585 111.995 48.1356C112.078 48.2519 112.067 48.2574 111.767 48.3958C111.383 48.5729 111.045 48.8331 110.939 49.0434C110.833 49.2427 110.833 49.5527 110.939 49.752C111.189 50.2446 112.433 50.3332 113.283 49.918C113.672 49.7298 113.856 49.4974 113.856 49.1929C113.856 48.894 113.65 48.656 113.05 48.2463C112.745 48.0415 112.45 47.8201 112.4 47.7592C112.183 47.4991 112.333 47.2555 112.806 47.1005C113.122 46.9953 113.572 46.5414 113.778 46.1263C113.911 45.8551 113.939 45.7277 113.939 45.3956V44.9915L114.278 45.0303C114.595 45.0635 114.628 45.0524 114.661 44.9472C114.678 44.8808 114.678 44.7812 114.661 44.7148C114.628 44.6151 114.6 44.604 114.395 44.6483C114.145 44.6926 113.9 44.6926 113.383 44.6373C113.117 44.6151 113 44.6262 112.817 44.7148ZM113.456 44.8974C113.717 45.1576 113.05 46.6411 112.55 46.9123C112.261 47.0673 112.161 46.9843 112.161 46.5913C112.161 46.3477 112.211 46.1927 112.395 45.8163C112.772 45.058 113.222 44.6649 113.456 44.8974ZM112.728 48.6449C113.178 48.9327 113.356 49.132 113.356 49.3534C113.356 49.9347 112.028 50.1395 111.517 49.6302C111.317 49.4309 111.3 49.1265 111.472 48.9051C111.611 48.7279 112.117 48.429 112.278 48.429C112.339 48.429 112.545 48.5231 112.728 48.6449Z" fill="white"/>
  <path fill-rule="evenodd" clip-rule="evenodd" d="M116.122 44.748C115.284 45.1853 114.522 46.6189 114.684 47.4603C114.739 47.7426 114.828 47.9142 114.967 47.9862C115.122 48.0692 115.561 48.0526 115.761 47.953C115.978 47.8423 116.467 47.3828 116.467 47.2832C116.467 47.1669 116.328 47.2002 116.184 47.3551C116.006 47.5434 115.789 47.6541 115.589 47.6541C115.267 47.6541 115.128 47.2998 115.239 46.7573C115.3 46.4639 115.311 46.4473 115.539 46.3809C115.945 46.2647 116.545 45.9658 116.761 45.772C117.145 45.4399 117.245 45.0413 117.017 44.7535C116.861 44.5598 116.495 44.5598 116.122 44.748ZM116.684 44.9306C116.817 45.1853 116.289 45.8218 115.728 46.0765C115.572 46.1484 115.434 46.2038 115.422 46.1927C115.384 46.1484 115.584 45.7499 115.811 45.4288C116.167 44.9251 116.561 44.6982 116.684 44.9306Z" fill="white"/>
  <path d="M118.273 44.7037C117.984 44.8531 117.634 45.2406 117.634 45.4122C117.634 45.4897 117.795 45.4233 117.917 45.296C118.056 45.1521 118.306 44.9971 118.411 44.9971C118.528 44.9971 118.456 45.2738 118.023 46.5747C117.778 47.3053 117.589 47.9364 117.606 47.9696C117.617 48.0083 117.695 48.0415 117.773 48.0415C117.895 48.0415 117.956 47.953 118.306 47.25C118.823 46.2204 119.111 45.7886 119.606 45.2849C120.039 44.8421 120.2 44.7867 120.234 45.0635C120.245 45.1521 120.056 45.7776 119.806 46.5138C119.556 47.2223 119.356 47.8589 119.356 47.9253C119.356 48.0139 119.389 48.0415 119.511 48.0415C119.65 48.0415 119.689 47.9806 120.017 47.3385C120.639 46.1097 121.556 44.8864 121.845 44.8864C122.106 44.8864 122.045 45.1797 121.434 46.7739C121.239 47.2887 121.078 47.7869 121.078 47.8755C121.078 48.0305 121.095 48.0415 121.284 48.0415C121.395 48.0415 121.595 47.9917 121.728 47.9253C122.095 47.7482 122.695 47.0452 122.478 47.0452C122.45 47.0452 122.312 47.1559 122.167 47.2943C121.917 47.5267 121.712 47.643 121.656 47.5821C121.639 47.5655 121.806 47.1005 122.023 46.5414C122.612 45.0358 122.617 44.6096 122.056 44.6096C121.612 44.6096 121.223 44.9583 120.573 45.9492C120.384 46.2315 120.25 46.4141 120.273 46.3532C120.711 45.1742 120.756 44.9472 120.6 44.7314C120.495 44.5764 120.211 44.5708 119.917 44.7148C119.634 44.8587 119.095 45.4454 118.773 45.9602C118.628 46.1927 118.5 46.3809 118.489 46.3809C118.478 46.3809 118.584 46.0543 118.717 45.6613C118.856 45.2628 118.967 44.8642 118.967 44.7756C118.967 44.6151 118.961 44.6096 118.706 44.6096C118.556 44.6151 118.367 44.6539 118.273 44.7037Z" fill="white"/>
  <path fill-rule="evenodd" clip-rule="evenodd" d="M124.695 44.7203C124.356 44.8753 123.812 45.451 123.567 45.9159C123.123 46.7573 123.067 47.5378 123.423 47.9142C123.567 48.0637 123.973 48.0858 124.273 47.964C124.523 47.8589 124.967 47.4437 124.967 47.3164C124.967 47.1725 124.951 47.178 124.628 47.4326C124.095 47.8533 123.739 47.6873 123.751 47.0341C123.762 46.5248 123.789 46.4806 124.217 46.3256C125.106 45.999 125.595 45.6281 125.667 45.2351C125.706 45.0192 125.606 44.7369 125.462 44.6649C125.301 44.5764 124.956 44.604 124.695 44.7203ZM125.223 44.9639C125.267 45.1465 125.073 45.4953 124.789 45.7388C124.517 45.9713 124.006 46.2315 123.978 46.154C123.934 46.0377 124.289 45.4565 124.584 45.1521C124.939 44.7923 125.162 44.7258 125.223 44.9639Z" fill="white"/>
  <path d="M126.795 44.7646C126.545 44.9251 126.189 45.2904 126.189 45.3845C126.189 45.4842 126.301 45.4454 126.512 45.2794C126.762 45.0801 127.023 45.0026 127.023 45.1244C127.023 45.1742 126.823 45.7886 126.578 46.4972C126.334 47.2002 126.134 47.8367 126.134 47.9087C126.134 48.0194 126.162 48.0415 126.289 48.0415C126.428 48.0415 126.467 47.9806 126.789 47.3219C126.984 46.9289 127.245 46.4529 127.367 46.2591C127.89 45.4454 128.512 44.8255 128.723 44.9085C128.873 44.9639 128.79 45.3015 128.301 46.6023C128.056 47.2555 127.856 47.8423 127.867 47.9032C127.89 48.0526 128.228 48.0803 128.478 47.953C128.773 47.8035 129.101 47.5157 129.217 47.3053C129.373 47.0175 129.278 46.9898 129.006 47.25C128.795 47.4548 128.584 47.5987 128.501 47.5987C128.428 47.5987 128.484 47.4105 128.823 46.5414C129.262 45.4178 129.362 44.9971 129.24 44.7867C129.123 44.5708 128.767 44.5542 128.451 44.7369C128.14 44.9196 127.662 45.4288 127.328 45.927C127.184 46.1484 127.051 46.32 127.045 46.309C127.034 46.2979 127.139 45.9547 127.284 45.5451C127.434 45.1133 127.528 44.7646 127.506 44.7037C127.451 44.5487 127.089 44.5819 126.795 44.7646Z" fill="white"/>
  <path fill-rule="evenodd" clip-rule="evenodd" d="M140.884 44.7148C139.801 45.2129 139.107 47.3551 139.84 47.9308C140.034 48.0858 140.518 48.0803 140.84 47.9253C141.501 47.6042 142.134 46.4473 142.134 45.5506C142.134 45.1188 142.057 44.9085 141.823 44.7258C141.634 44.5764 141.196 44.5708 140.884 44.7148ZM141.557 44.9694C141.823 45.3735 141.251 47.178 140.707 47.6541C140.468 47.8644 140.229 47.8755 140.101 47.6817C139.84 47.2832 140.418 45.5285 140.979 45.0247C141.234 44.7923 141.429 44.7757 141.557 44.9694Z" fill="white"/>
  <path d="M143.573 44.7646C143.323 44.9251 142.968 45.2904 142.968 45.3845C142.968 45.4842 143.079 45.4454 143.29 45.2794C143.501 45.1133 143.801 45.0026 143.801 45.0912C143.801 45.1188 143.601 45.7333 143.357 46.4639C143.112 47.1946 142.912 47.8478 142.912 47.9142C142.912 48.0194 142.94 48.0415 143.068 48.036C143.207 48.036 143.246 47.9751 143.568 47.3219C143.757 46.9345 144.046 46.4141 144.201 46.1761C144.873 45.1465 145.579 44.5819 145.579 45.0801C145.579 45.1576 145.368 45.7997 145.107 46.5027C144.846 47.2112 144.635 47.8367 144.646 47.9032C144.668 48.0526 145.007 48.0803 145.257 47.953C145.551 47.8035 145.879 47.5157 145.996 47.3053C146.146 47.0286 146.062 46.9898 145.812 47.2223C145.59 47.4326 145.357 47.5987 145.29 47.5987C145.201 47.5987 145.251 47.4326 145.607 46.5193C146.035 45.4178 146.123 45.0247 146.018 44.7978C145.951 44.6649 145.901 44.6317 145.707 44.6207C145.557 44.6096 145.401 44.6428 145.262 44.7092C144.985 44.8531 144.44 45.4233 144.107 45.927C143.962 46.1484 143.829 46.32 143.818 46.309C143.807 46.2979 143.918 45.9547 144.062 45.5451C144.212 45.1133 144.307 44.759 144.285 44.7037C144.229 44.5487 143.868 44.5819 143.573 44.7646Z" fill="white"/>
  <path d="M147.774 44.7148C147.54 44.8587 147.262 45.1631 147.196 45.3458C147.073 45.6558 147.123 45.9381 147.396 46.5138C147.696 47.1503 147.718 47.3773 147.507 47.5876C147.335 47.7537 147.168 47.726 146.89 47.488C146.673 47.2943 146.601 47.2832 146.523 47.4271C146.435 47.5987 146.457 47.8091 146.579 47.9308C146.74 48.0914 147.207 48.0803 147.479 47.9142C147.885 47.6707 148.124 47.1891 148.051 46.7518C148.029 46.63 147.901 46.3034 147.768 46.0322C147.479 45.4399 147.457 45.224 147.674 45.058C147.851 44.914 147.985 44.9472 148.224 45.1742C148.39 45.3292 148.401 45.3292 148.496 45.2406C148.562 45.1742 148.579 45.0967 148.557 44.9749C148.49 44.6317 148.112 44.5044 147.774 44.7148Z" fill="white"/>
  <path d="M149.807 44.8365C149.407 45.1022 148.996 45.5451 149.074 45.6226C149.107 45.6558 149.251 45.5727 149.468 45.3901C149.657 45.2351 149.835 45.1078 149.862 45.1078C149.957 45.1078 149.912 45.2904 149.524 46.4197C149.04 47.8312 149.024 48.0415 149.396 48.0415C149.724 48.0415 150.296 47.5489 150.996 46.6632C151.146 46.475 151.274 46.3311 151.285 46.3422C151.296 46.3532 151.19 46.6854 151.051 47.0728C150.913 47.4659 150.801 47.8367 150.812 47.8976C150.84 48.0747 151.14 48.0803 151.429 47.9142C151.707 47.7482 152.301 47.1448 152.301 47.023C152.301 46.8736 152.196 46.9234 151.879 47.2389C151.546 47.56 151.318 47.6485 151.385 47.416C151.435 47.261 152.096 45.3237 152.213 45.0026C152.313 44.7369 152.296 44.6926 152.079 44.6373C151.951 44.604 151.924 44.6428 151.668 45.1742C151.285 45.9602 150.835 46.6134 150.312 47.1171C149.568 47.8312 149.551 47.7316 150.135 46.0709C150.501 45.0192 150.579 44.7535 150.524 44.6926C150.407 44.5487 150.162 44.5985 149.807 44.8365Z" fill="white"/>
  <path d="M158.357 44.7424C158.018 44.9196 157.579 45.3126 157.579 45.4454C157.579 45.5008 157.59 45.5506 157.607 45.5506C157.624 45.5506 157.768 45.451 157.924 45.3292C158.196 45.1078 158.346 45.069 158.313 45.224C158.304 45.2582 158.17 45.6154 157.992 46.0895L157.989 46.0969L157.988 46.098L157.824 46.5359C157.563 47.2112 157.357 47.8256 157.368 47.8921C157.39 48.0637 157.674 48.0803 157.974 47.9308C158.313 47.7537 158.952 47.1171 158.868 47.0341C158.824 46.9898 158.746 47.0286 158.552 47.2057C158.285 47.4492 158.046 47.5821 157.985 47.5212C157.946 47.4825 157.979 47.3828 158.579 45.8052C158.796 45.2351 158.963 44.7314 158.946 44.6871C158.902 44.5708 158.641 44.5985 158.357 44.7424Z" fill="white"/>
  <path d="M160.452 44.7258C160.196 44.8587 159.802 45.2406 159.802 45.3569C159.802 45.4731 159.824 45.4676 160.141 45.2462C160.418 45.058 160.529 45.0192 160.591 45.0856C160.607 45.1022 160.413 45.7443 160.157 46.5082C159.902 47.2721 159.691 47.9308 159.691 47.9696C159.691 48.0139 159.757 48.0415 159.857 48.0415C160.013 48.0415 160.041 48.0028 160.474 47.1503C160.952 46.2038 161.407 45.5506 161.863 45.141C162.157 44.8753 162.324 44.8255 162.38 44.9749C162.43 45.1022 162.391 45.224 161.88 46.6134C161.624 47.3053 161.43 47.9087 161.446 47.953C161.496 48.0803 161.83 48.0637 162.118 47.9253C162.485 47.7482 163.085 47.0452 162.868 47.0452C162.841 47.0452 162.702 47.1559 162.557 47.2943C162.302 47.5267 162.102 47.643 162.046 47.5821C162.03 47.5655 162.146 47.2223 162.307 46.8182C162.752 45.6724 162.857 45.3292 162.857 45.0469C162.857 44.7148 162.757 44.6096 162.457 44.6096C162.024 44.6096 161.446 45.1133 160.852 46.0156C160.718 46.2149 160.607 46.3698 160.602 46.3643C160.591 46.3588 160.707 46.0045 160.863 45.5783C161.013 45.1576 161.124 44.7646 161.102 44.7092C161.063 44.5708 160.73 44.5819 160.452 44.7258Z" fill="white"/>
  <path fill-rule="evenodd" clip-rule="evenodd" d="M164.763 44.748C163.796 45.2351 163.318 46.7684 164.024 47.1282C164.118 47.178 164.191 47.2223 164.191 47.2334C164.191 47.2444 164.13 47.3662 164.052 47.4935C163.896 47.7703 163.874 47.9973 163.996 48.119C164.113 48.2353 164.107 48.2464 163.83 48.3681C163.196 48.6449 162.857 49.0102 162.857 49.4088C162.857 49.9845 163.563 50.2945 164.524 50.1505C165.585 49.99 166.124 49.3922 165.73 48.811C165.663 48.7058 165.341 48.4456 165.024 48.2242C164.363 47.7703 164.224 47.5876 164.374 47.3607C164.43 47.2777 164.58 47.1836 164.746 47.1282C165.113 47.0064 165.563 46.5747 165.774 46.1318C165.902 45.8827 165.941 45.7167 165.952 45.4122L165.963 45.0247H166.663V44.831C166.663 44.6483 166.652 44.6373 166.496 44.6539C166.146 44.6815 165.707 44.676 165.385 44.6373C165.091 44.6041 165.019 44.6207 164.763 44.748ZM165.496 44.9639C165.58 45.0856 165.574 45.1299 165.435 45.5506C165.235 46.1429 164.819 46.7905 164.552 46.9179C164.257 47.0562 164.163 46.9732 164.163 46.5968C164.163 46.01 164.907 44.831 165.269 44.831C165.357 44.831 165.446 44.8808 165.496 44.9639ZM164.541 48.5176C164.891 48.7003 165.235 48.9881 165.33 49.1818C165.419 49.3756 165.419 49.3866 165.319 49.5306C165.146 49.7575 164.885 49.8793 164.502 49.907C164.085 49.9402 163.807 49.8627 163.546 49.6357C163.202 49.3368 163.341 48.8995 163.868 48.6006C164.207 48.4069 164.296 48.3958 164.541 48.5176Z" fill="white"/>
</svg>
