<svg width="165" height="38" viewBox="0 0 165 38" fill="none" xmlns="http://www.w3.org/2000/svg">
<g id="pro-btp-vector-logo" clip-path="url(#clip0_2979_8528)">
<path id="Vector" d="M45.3794 -0.132812H52.5013C57.1317 -0.132812 61.7118 1.50295 61.7118 7.26586V7.54268C61.7118 13.2804 57.1317 14.9665 52.5767 14.9665C51.8469 14.9665 50.8655 14.9162 50.0854 14.8659V22.3149C50.0854 22.642 49.8085 22.9188 49.4814 22.9188H45.5304C45.2032 22.9188 44.9264 22.6672 44.9264 22.34V1.7546V0.320168C44.9013 0.345334 44.9013 -0.132812 45.3794 -0.132812ZM56.5026 7.26586C56.5026 5.07646 55.1436 4.22083 52.5767 4.22083C52.1489 4.22083 50.4628 4.27116 50.0854 4.3215V10.5877C50.4125 10.6129 52.2244 10.638 52.5767 10.638C55.2946 10.638 56.5026 9.63143 56.5026 7.54268V7.26586ZM79.8814 22.944H75.2006C74.8734 22.944 74.7476 22.642 74.5966 22.34L70.4443 14.589L70.1171 14.6142C69.4628 14.6142 68.5317 14.5639 67.9277 14.5639V22.3652C67.9277 22.6924 67.6509 22.9692 67.3238 22.9692H63.3476C63.0205 22.9692 62.7436 22.6924 62.7436 22.3652V1.7546C62.7436 0.722817 63.1715 0.445995 64.1277 0.295001C65.537 0.0685112 68.1542 -0.107645 70.3436 -0.107645C75.5529 -0.107645 79.5794 1.62878 79.5794 7.06454V7.46719C79.5794 10.7135 77.8681 12.7016 75.6284 13.6076L80.2589 22.2645C80.3092 22.3904 80.3595 22.5162 80.3595 22.5917C80.3344 22.793 80.2085 22.944 79.8814 22.944ZM74.345 7.06454C74.345 5.20229 72.9105 4.34665 70.3185 4.34665C69.8907 4.34665 68.3052 4.39699 67.9277 4.44732V10.3109C68.2549 10.3361 69.7648 10.3612 70.1171 10.3612C73.3383 10.3612 74.345 9.53077 74.345 7.44202V7.06454ZM89.3436 23.2208C84.2854 23.2208 80.2589 20.503 80.2589 13.3811V9.73209C80.2589 2.61024 84.2854 -0.107645 89.3436 -0.107645C94.4019 -0.107645 98.4284 2.6354 98.4284 9.73209V13.3811C98.4284 20.503 94.4019 23.2208 89.3436 23.2208ZM93.1436 9.73209C93.1436 6.05792 91.9105 4.49765 89.3436 4.49765C86.7768 4.49765 85.5688 6.05792 85.5688 9.73209V13.3811C85.5688 17.0553 86.7768 18.6155 89.3436 18.6155C91.9105 18.6155 93.1436 17.0553 93.1436 13.3811V9.73209ZM112.546 23.2208C110.533 23.2208 108.117 23.0698 106.934 22.8433C105.701 22.6169 105.248 22.2394 105.248 20.8553V2.20759C105.248 0.82348 105.676 0.395663 106.884 0.219504C107.916 0.0685105 110.407 -0.107645 112.37 -0.107645C118.158 -0.107645 122.059 1.42745 122.059 6.30957V6.86321C122.059 8.85129 121.103 10.5626 119.492 11.3679C121.128 12.1732 122.21 13.7837 122.21 15.8977V16.3506C122.21 21.7612 117.856 23.2208 112.546 23.2208ZM117.001 6.63672C117.001 4.95063 115.918 4.1705 112.773 4.1705C112.295 4.1705 110.86 4.1705 110.432 4.19567V9.5056H113.855C116.271 9.5056 116.975 8.39832 116.975 7.08971V6.63672H117.001ZM117.126 15.8977C117.126 14.4129 116.321 13.1798 113.88 13.1798H110.458V18.9175C110.936 18.9175 112.546 18.9427 112.974 18.9427C116.145 18.9427 117.152 17.9612 117.152 16.25V15.8977H117.126ZM138.316 4.49765C138.643 4.49765 138.97 4.246 138.97 3.91884V0.747982C138.97 0.42083 138.668 0.169174 138.316 0.169174H123.091C122.764 0.169174 122.487 0.42083 122.487 0.747982V3.91884C122.487 4.246 122.764 4.49765 123.091 4.49765H128.099V22.34C128.099 22.6672 128.375 22.944 128.703 22.944H132.729C133.056 22.944 133.333 22.6672 133.333 22.34V4.49765H138.316ZM147.401 14.9665C146.671 14.9665 145.689 14.9162 144.909 14.8659V22.3149C144.909 22.642 144.632 22.9188 144.305 22.9188H140.354C140.027 22.9188 139.75 22.6672 139.75 22.34V1.7546C139.75 0.722817 140.178 0.445995 141.134 0.295001C142.695 0.0433457 145.161 -0.107645 147.35 -0.107645C151.981 -0.107645 156.561 1.52811 156.561 7.29103V7.56785C156.536 13.2804 151.956 14.9665 147.401 14.9665ZM151.326 7.26586C151.326 5.07646 149.967 4.22083 147.401 4.22083C146.973 4.22083 145.287 4.27116 144.909 4.3215V10.5877C145.236 10.6129 147.048 10.638 147.401 10.638C150.118 10.638 151.326 9.63143 151.326 7.54268V7.26586ZM31.9913 -0.132812C31.488 -0.132812 31.1357 0.14401 31.1357 0.14401L5.9198 25.3599C5.39132 25.8884 5.39132 26.744 5.9198 27.2473L16.2125 37.54C16.2125 37.54 16.6907 38.0937 17.3701 38.0937H24.6681C24.6681 38.0937 25.7251 38.1943 26.4046 37.5149L32.7211 31.1983C32.8469 31.0725 33.0483 31.0725 33.1741 31.1983L39.4907 37.5149C39.4907 37.5149 40.1198 38.0937 40.8496 38.0937H47.6443H48.1224C48.1224 38.0937 49.1794 38.1943 49.8589 37.5149L56.1754 31.1983C56.3013 31.0725 56.5026 31.0725 56.6284 31.1983L62.945 37.5149C62.945 37.5149 63.5741 38.0937 64.3039 38.0937H70.8721H71.5516C71.5516 38.0937 72.6085 38.1943 73.288 37.5149L79.1516 31.6513V29.1096L72.3569 35.9043L72.1556 36.1056L72.0801 36.1811C71.9542 36.3069 71.7529 36.3069 71.6271 36.1811L71.6019 36.1559L61.9132 26.4672C60.9569 25.5109 59.3715 25.5109 58.4152 26.4672L48.9529 35.9294L48.7516 36.1308L48.6761 36.2063C48.5503 36.3321 48.3489 36.3321 48.2231 36.2063L48.1979 36.1811L38.5092 26.4924C37.5529 25.5361 35.9675 25.5361 35.0112 26.4924L25.5489 35.9546L25.2721 36.2314C25.1463 36.3573 24.945 36.3573 24.8191 36.2314L15.0297 26.442C14.9039 26.3162 14.9039 26.1149 15.0297 25.989L41.0761 -0.057315H31.9913" fill="#C7C7D1"/>
</g>
<defs>
<clipPath id="clip0_2979_8528">
<rect width="164.079" height="38" fill="white"/>
</clipPath>
</defs>
</svg>
