<svg width="45" height="57" viewBox="0 0 45 57" fill="none" xmlns="http://www.w3.org/2000/svg">
<g id="stevens" clip-path="url(#clip0_2979_8588)">
<g id="Group">
<path id="Vector" fill-rule="evenodd" clip-rule="evenodd" d="M0.00390625 0H44.9363V42.3649L22.3417 57L0.00390625 42.3649V0Z" fill="#C7C7D1"/>
<g id="Group_2">
<path id="Vector_2" fill-rule="evenodd" clip-rule="evenodd" d="M23.8313 43.366C23.8313 43.5073 23.9227 43.6024 24.0586 43.6024C24.1934 43.6024 24.284 43.5073 24.284 43.366V42.9385C24.284 42.7949 24.1955 42.7023 24.0586 42.7023C23.9205 42.7023 23.8313 42.7949 23.8313 42.9385V43.366ZM24.5457 42.9327V43.3718C24.5457 43.6497 24.3363 43.8592 24.0586 43.8592C23.7798 43.8592 23.5696 43.6497 23.5696 43.3718V42.9327C23.5696 42.6503 23.7752 42.4453 24.0586 42.4453C24.341 42.4453 24.5457 42.6503 24.5457 42.9327ZM22.4082 42.7179H22.8951L22.4385 43.8376H22.7369L23.1844 42.6824L23.1856 42.4669H22.3657L22.4082 42.7179ZM21.6918 42.8306C21.6918 42.7462 21.6236 42.6826 21.5333 42.6826C21.4442 42.6826 21.3768 42.7462 21.3768 42.8306C21.3768 42.9188 21.4426 42.9826 21.5333 42.9826C21.6236 42.9826 21.6918 42.9172 21.6918 42.8306ZM21.7351 43.4288C21.7351 43.3174 21.6484 43.2337 21.5333 43.2337C21.4213 43.2337 21.3336 43.3193 21.3336 43.4288C21.3336 43.537 21.4213 43.6219 21.5333 43.6219C21.6465 43.6219 21.7351 43.537 21.7351 43.4288ZM21.9871 43.4307C21.9871 43.6749 21.792 43.8592 21.5333 43.8592C21.2758 43.8592 21.0817 43.6749 21.0817 43.4307C21.0817 43.2897 21.1471 43.1721 21.2625 43.1039C21.1769 43.0426 21.1268 42.9428 21.1268 42.8306C21.1268 42.611 21.3016 42.4453 21.5333 42.4453C21.7661 42.4453 21.9418 42.611 21.9418 42.8306C21.9418 42.9433 21.892 43.0418 21.8042 43.1054C21.9192 43.1721 21.9871 43.2915 21.9871 43.4307ZM20.4538 43.5866H20.7274V43.8376H19.8711V43.5866H20.192V42.7179H19.9145L19.872 42.4669H20.4538V43.5866Z" fill="#0B0B0E"/>
<path id="Vector_3" fill-rule="evenodd" clip-rule="evenodd" d="M10.3594 32.5625H14.8623L14.7103 33.4909H13.0203V37.9574H12.0492V33.4909H10.3594V32.5625Z" fill="#0B0B0E"/>
<path id="Vector_4" fill-rule="evenodd" clip-rule="evenodd" d="M8.694 35.0402L7.87734 34.5318C7.58962 34.3535 7.45566 34.1748 7.45566 33.9694C7.45566 33.6212 7.74493 33.4049 8.21068 33.4049C8.59586 33.4049 9.04284 33.5584 9.34933 33.7958L9.41063 33.8434V32.7727L9.38962 32.7623C9.13531 32.6355 8.72706 32.4844 8.22635 32.4844C6.89589 32.4844 6.42188 33.2676 6.42188 34.0007C6.42188 34.6258 6.68807 35.0473 7.31137 35.4096L8.1437 35.918C8.47326 36.1196 8.62014 36.3098 8.62014 36.5351C8.62014 36.897 8.31158 37.1308 7.83378 37.1308C7.31189 37.1308 6.82254 36.8867 6.5622 36.6778L6.50039 36.628V37.7321L6.52174 37.7424C6.75901 37.8577 7.25025 38.0512 7.87303 38.0512C8.7596 38.0512 9.65392 37.5679 9.65392 36.4881C9.65392 35.8739 9.36672 35.4408 8.694 35.0402Z" fill="#0B0B0E"/>
<path id="Vector_5" fill-rule="evenodd" clip-rule="evenodd" d="M18.9573 33.4909L18.8055 32.5625H15.793V37.9574H18.8814L19.0333 37.0292H16.7639V35.5371H18.3277V34.6087H16.7639V33.4909H18.9573Z" fill="#0B0B0E"/>
<path id="Vector_6" fill-rule="evenodd" clip-rule="evenodd" d="M28.7503 33.4909L28.5985 32.5625H25.5859V37.9574H28.6744L28.8262 37.0292H26.5569V35.5371H28.1206V34.6087H26.5569V33.4909H28.7503Z" fill="#0B0B0E"/>
<path id="Vector_7" fill-rule="evenodd" clip-rule="evenodd" d="M22.2156 36.7718L20.9812 32.5703H19.9023L21.6868 37.9651H22.7366L24.5212 32.5703H23.4424L22.2156 36.7718Z" fill="#0B0B0E"/>
<path id="Vector_8" fill-rule="evenodd" clip-rule="evenodd" d="M37.7293 35.0402L36.9127 34.5318C36.6249 34.3535 36.491 34.1748 36.491 33.9694C36.491 33.6212 36.7803 33.4049 37.246 33.4049C37.6312 33.4049 38.0782 33.5584 38.3847 33.7958L38.446 33.8434V32.7727L38.425 32.7623C38.1706 32.6355 37.7624 32.4844 37.2617 32.4844C35.9312 32.4844 35.457 33.2676 35.457 34.0007C35.457 34.6258 35.7234 35.0473 36.3467 35.4096L37.179 35.918C37.5086 36.1196 37.6555 36.3098 37.6555 36.5351C37.6555 36.897 37.3467 37.1308 36.8691 37.1308C36.3472 37.1308 35.8579 36.8867 35.5975 36.6778L35.5357 36.628V37.7321L35.5571 37.7424C35.7943 37.8577 36.2856 38.0512 36.9084 38.0512C37.7949 38.0512 38.6893 37.5679 38.6893 36.4881C38.6893 35.8739 38.402 35.4408 37.7293 35.0402Z" fill="#0B0B0E"/>
<path id="Vector_9" fill-rule="evenodd" clip-rule="evenodd" d="M33.2596 32.5625V36.1248L31.1717 32.5625H29.8906L30.3281 33.2449V37.9574H31.2993V34.5941L33.2782 37.9574H34.2305V32.5625H33.2596Z" fill="#0B0B0E"/>
<g id="Group_3">
<path id="Vector_10" fill-rule="evenodd" clip-rule="evenodd" d="M23.3888 29.813C22.7892 29.7009 22.3169 29.2301 22.2042 28.6328C22.0915 29.2301 21.6191 29.7009 21.0195 29.813C21.6191 29.9254 22.0915 30.396 22.2042 30.9933C22.3169 30.396 22.7892 29.9254 23.3888 29.813Z" fill="#0B0B0E"/>
<path id="Vector_11" fill-rule="evenodd" clip-rule="evenodd" d="M6.49609 40.8941H6.76711V39.5234H6.49609V40.8941Z" fill="#0B0B0E"/>
<path id="Vector_12" fill-rule="evenodd" clip-rule="evenodd" d="M8.27283 40.8941H8.54385V39.5234H8.27283V40.4261L7.64298 39.5234H7.32031V39.5414L7.41587 39.6931V40.8941H7.68689V40.0738L8.27283 40.8941Z" fill="#0B0B0E"/>
<path id="Vector_13" fill-rule="evenodd" clip-rule="evenodd" d="M9.87203 39.5643C9.78938 39.5283 9.68366 39.5 9.57777 39.5C9.22669 39.5 9.10547 39.7057 9.10547 39.8935C9.10547 40.0477 9.15971 40.161 9.34033 40.2613L9.54677 40.3898C9.61392 40.431 9.65008 40.4799 9.65008 40.5312C9.65008 40.6058 9.5881 40.6675 9.46929 40.6675C9.33774 40.6675 9.20602 40.6083 9.13388 40.5492V40.8501C9.21894 40.8861 9.34291 40.9221 9.47962 40.9221C9.79454 40.9221 9.93918 40.7293 9.93918 40.5159C9.93918 40.3641 9.87461 40.2407 9.69141 40.1404L9.48221 40.0169C9.42556 39.9808 9.39715 39.9424 9.39715 39.8884C9.39715 39.8163 9.45397 39.7546 9.56485 39.7546C9.68108 39.7546 9.80229 39.8035 9.87203 39.8549V39.5643Z" fill="#0B0B0E"/>
<path id="Vector_14" fill-rule="evenodd" clip-rule="evenodd" d="M10.6936 40.8941H10.9647V39.7832H11.3028L11.3453 39.5234H10.3555V39.7832H10.6936V40.8941Z" fill="#0B0B0E"/>
<path id="Vector_15" fill-rule="evenodd" clip-rule="evenodd" d="M11.8203 40.8941H12.0913V39.5234H11.8203V40.8941Z" fill="#0B0B0E"/>
<path id="Vector_16" fill-rule="evenodd" clip-rule="evenodd" d="M14.8186 39.5234V40.4055C14.8186 40.552 14.723 40.6575 14.5682 40.6575C14.4159 40.6575 14.3179 40.552 14.3179 40.4055V39.5234H14.0469V40.3849C14.0469 40.7193 14.2482 40.9198 14.5682 40.9198C14.8883 40.9198 15.0896 40.7193 15.0896 40.3849V39.5234H14.8186Z" fill="#0B0B0E"/>
<path id="Vector_17" fill-rule="evenodd" clip-rule="evenodd" d="M17.8146 40.8941L17.8572 40.6344H17.3062V40.3036H17.6963V40.0439H17.3062V39.7832H17.8572L17.8146 39.5234H17.0352V40.8941H17.8146Z" fill="#0B0B0E"/>
<path id="Vector_18" fill-rule="evenodd" clip-rule="evenodd" d="M19.8373 40.6495C19.5921 40.6495 19.4036 40.4567 19.4036 40.2123C19.4036 39.9654 19.5921 39.7726 19.8373 39.7726C20.0851 39.7726 20.2709 39.9654 20.2709 40.2123C20.2709 40.4567 20.0851 40.6495 19.8373 40.6495ZM19.8373 39.5C19.432 39.5 19.125 39.806 19.125 40.2123C19.125 40.6161 19.432 40.9221 19.8373 40.9221C20.2426 40.9221 20.5522 40.6161 20.5522 40.2123C20.5522 39.806 20.2426 39.5 19.8373 39.5Z" fill="#0B0B0E"/>
<path id="Vector_19" fill-rule="evenodd" clip-rule="evenodd" d="M21.8749 40.3038V40.0441H21.4077V39.7833H21.9162L21.9587 39.5234H21.1367V40.8943H21.4077V40.3038H21.8749Z" fill="#0B0B0E"/>
<path id="Vector_20" fill-rule="evenodd" clip-rule="evenodd" d="M27.0051 40.5389C26.9327 40.6032 26.8167 40.6495 26.6824 40.6495C26.4346 40.6495 26.2514 40.4565 26.2514 40.2123C26.2514 39.9654 26.4372 39.7726 26.6824 39.7726C26.8167 39.7726 26.9302 39.8163 27.0051 39.8856V39.5746C26.9147 39.5257 26.8012 39.5 26.685 39.5C26.2798 39.5 25.9727 39.806 25.9727 40.2123C25.9727 40.6161 26.2798 40.9221 26.685 40.9221C26.8012 40.9221 26.9147 40.8938 27.0051 40.8475V40.5389Z" fill="#0B0B0E"/>
<path id="Vector_21" fill-rule="evenodd" clip-rule="evenodd" d="M28.5022 40.8941H28.7732V39.5234H28.5022V40.0738H27.8491V39.5234H27.5781V40.8941H27.8491V40.3335H28.5022V40.8941Z" fill="#0B0B0E"/>
<path id="Vector_22" fill-rule="evenodd" clip-rule="evenodd" d="M29.2969 39.5234L29.4036 39.6931V40.8941H29.6748V40.0738L30.2606 40.8941H30.5316V39.5234H30.2606V40.4261L29.6309 39.5234H29.2969Z" fill="#0B0B0E"/>
<path id="Vector_23" fill-rule="evenodd" clip-rule="evenodd" d="M31.7084 40.6495C31.4632 40.6495 31.2749 40.4567 31.2749 40.2123C31.2749 39.9654 31.4632 39.7726 31.7084 39.7726C31.9562 39.7726 32.1421 39.9654 32.1421 40.2123C32.1421 40.4567 31.9562 40.6495 31.7084 40.6495ZM31.7084 39.5C31.3031 39.5 30.9961 39.806 30.9961 40.2123C30.9961 40.6161 31.3031 40.9221 31.7084 40.9221C32.1137 40.9221 32.4233 40.6161 32.4233 40.2123C32.4233 39.806 32.1137 39.5 31.7084 39.5Z" fill="#0B0B0E"/>
<path id="Vector_24" fill-rule="evenodd" clip-rule="evenodd" d="M33.6701 40.8941L33.7126 40.6344H33.1616V39.5234H32.8906V40.8941H33.6701Z" fill="#0B0B0E"/>
<path id="Vector_25" fill-rule="evenodd" clip-rule="evenodd" d="M34.7709 40.6495C34.5257 40.6495 34.3374 40.4567 34.3374 40.2123C34.3374 39.9654 34.5257 39.7726 34.7709 39.7726C35.0187 39.7726 35.2046 39.9654 35.2046 40.2123C35.2046 40.4567 35.0187 40.6495 34.7709 40.6495ZM34.7709 39.5C34.3656 39.5 34.0586 39.806 34.0586 40.2123C34.0586 40.6161 34.3656 40.9221 34.7709 40.9221C35.1762 40.9221 35.486 40.6161 35.486 40.2123C35.486 39.806 35.1762 39.5 34.7709 39.5Z" fill="#0B0B0E"/>
<path id="Vector_26" fill-rule="evenodd" clip-rule="evenodd" d="M37.9343 40.8941H38.2053V40.4235L38.6877 39.5234H38.3831L38.0686 40.1535L37.7564 39.5234H37.4492L37.9343 40.421V40.8941Z" fill="#0B0B0E"/>
<path id="Vector_27" fill-rule="evenodd" clip-rule="evenodd" d="M37.1426 40.7651V40.1779H36.6233L36.623 40.4262H36.8637L36.864 40.6102C36.8223 40.6343 36.7585 40.6463 36.6725 40.6463C36.5828 40.6463 36.5029 40.6291 36.4329 40.5951C36.3626 40.5612 36.308 40.5125 36.2688 40.4488C36.2297 40.3853 36.2101 40.3107 36.2101 40.2251C36.2101 40.0766 36.2502 39.9645 36.3304 39.8891C36.4106 39.8134 36.5265 39.7757 36.6782 39.7757C36.7211 39.7757 36.7746 39.7842 36.8384 39.8012C36.9022 39.8182 36.9523 39.8367 36.989 39.857L37.0782 39.6021C37.0212 39.5717 36.9556 39.5472 36.8811 39.5283C36.8065 39.5094 36.7268 39.5 36.6422 39.5C36.5109 39.5 36.3908 39.528 36.2822 39.5841C36.1734 39.6402 36.0869 39.7244 36.0225 39.8371C35.958 39.9498 35.9258 40.0872 35.9258 40.2497C35.9258 40.3793 35.9561 40.4948 36.0169 40.5962C36.0775 40.6976 36.1637 40.7768 36.2755 40.8341C36.3872 40.8914 36.5172 40.92 36.665 40.92C36.7194 40.92 36.7796 40.9122 36.8459 40.8964C36.9122 40.8806 36.973 40.8605 37.0279 40.836C37.0829 40.8115 37.1211 40.7878 37.1426 40.7651Z" fill="#0B0B0E"/>
<path id="Vector_28" fill-rule="evenodd" clip-rule="evenodd" d="M12.9358 40.8941H13.2068V39.7832H13.545L13.5875 39.5234H12.5977V39.7832H12.9358V40.8941Z" fill="#0B0B0E"/>
<path id="Vector_29" fill-rule="evenodd" clip-rule="evenodd" d="M15.9241 40.8941H16.1951V39.7832H16.5333L16.5758 39.5234H15.5859V39.7832H15.9241V40.8941Z" fill="#0B0B0E"/>
<path id="Vector_30" fill-rule="evenodd" clip-rule="evenodd" d="M23.5491 40.8941H23.8201V39.7832H24.1583L24.2008 39.5234H23.2109V39.7832H23.5491V40.8941Z" fill="#0B0B0E"/>
<path id="Vector_31" fill-rule="evenodd" clip-rule="evenodd" d="M25.4982 40.8941L25.5408 40.6344H24.9898V40.3036H25.3799V40.0439H24.9898V39.7832H25.5408L25.4982 39.5234H24.7188V40.8941H25.4982Z" fill="#0B0B0E"/>
</g>
<path id="Vector_32" fill-rule="evenodd" clip-rule="evenodd" d="M20.6643 11.2788L21.4195 10.8614V12.289L20.6643 12.6867V11.2788ZM25.3957 17.0257V15.3377L26.4648 15.8443V17.4999L25.3957 17.0257ZM23.912 15.1101L24.8138 14.5826L25.9302 14.3164L25.0646 14.8228V17.2474L23.912 15.1101ZM19.0193 17.0257L17.9502 17.4999V15.8443L19.0193 15.3377V17.0257ZM21.4197 12.7875L20.248 13.4041L19.4177 14.475L20.5033 15.1101L19.3504 17.2474V14.8228L18.4848 14.3164L17.6191 15.6431V16.6876L14.7617 20.1279L22.2076 16.7012L21.4197 12.7875ZM24.1674 11.6979L23.7507 11.9041V11.2791L22.9953 10.8614H21.4195V10.3629H22.9953L24.1674 11.0112V11.6979ZM22.2076 16.7012L29.6521 20.1274V20.6259L22.2074 17.1997L22.2076 16.7012ZM22.9953 12.289L24.1674 12.9061V13.4046L22.9953 12.7875H21.4197L21.4195 12.289H22.9953ZM28.2273 22.842V27.0988L27.1549 26.7352V22.4954C27.1549 22.0992 27.3443 21.5945 27.6911 21.3138C28.0214 21.6134 28.2273 22.2784 28.2273 22.842ZM26.4653 22.0796V26.5012L25.3932 26.1375V21.7329C25.3932 21.3368 25.5824 20.8321 25.9292 20.5515C26.2594 20.851 26.4653 21.5161 26.4653 22.0796ZM24.7034 21.3178V25.9035L23.6312 25.5398V20.9711C23.6312 20.575 23.8206 20.0703 24.1674 19.7897C24.4975 20.0892 24.7034 20.7543 24.7034 21.3178ZM21.4195 10.3629L20.2471 11.0114L22.2074 4.63281L21.4195 10.3629ZM20.7826 25.5398L19.7104 25.9035V21.3178C19.7104 20.7543 19.9164 20.0892 20.2464 19.7897C20.5932 20.0703 20.7826 20.575 20.7826 20.9713V25.5398ZM19.0207 26.1375L17.9485 26.5012V22.0796C17.9485 21.5161 18.1544 20.851 18.4847 20.5515C18.8314 20.8321 19.0207 21.3368 19.0207 21.7329V26.1375ZM17.2589 26.7352L16.1865 27.0988V22.842C16.1865 22.2784 16.3925 21.6134 16.7227 21.3138C17.0695 21.5945 17.2589 22.0992 17.2589 22.4954V26.7352ZM22.2074 27.0548L29.6521 29.5254V29.0268L22.2076 26.5563L22.2074 17.1997L14.7617 20.6261V29.5254L22.2074 27.0548Z" fill="#0B0B0E"/>
</g>
</g>
</g>
<defs>
<clipPath id="clip0_2979_8588">
<rect width="44.9324" height="57" fill="white"/>
</clipPath>
</defs>
</svg>
