<svg width="100" height="57" viewBox="0 0 100 57" fill="none" xmlns="http://www.w3.org/2000/svg">
  <path fill-rule="evenodd" clip-rule="evenodd"
        d="M25.6631 34.1656C21.9894 34.8706 16.0475 33.6141 13.7744 26.0577C10.1587 14.038 22.4722 5.04765 32.1467 0.943359C30.4267 3.60138 31.1042 6.15516 31.658 7.0998C32.0814 7.62098 32.987 8.97605 33.2215 10.2269C33.4561 11.4777 33.3193 12.3768 33.2215 12.6699C32.271 13.1094 31.3353 13.5283 30.4238 13.9364L30.4237 13.9364C23.9281 16.8445 18.6621 19.2021 18.0473 24.5122C17.9368 25.0426 17.8786 25.5924 17.8786 26.1557C17.8786 30.5047 21.3433 34.0446 25.6631 34.1656ZM25.2647 18.1565C28.856 17.1938 35.3489 18.1474 37.7495 26.1279C41.3652 38.1476 25.7949 51.9543 16.1205 56.0586C12.6025 55.8632 10.2246 54.0716 9.67085 53.127L9.59544 53.0338C9.00401 52.3025 6.61924 49.3536 5.3711 48.7295C3.87371 47.9808 3.12202 47.9778 2.01735 47.9734H2.01727H2.01719C1.68006 47.9721 1.31004 47.9706 0.875916 47.9477C5.76616 45.519 9.97995 43.4841 13.5977 41.7371L13.5979 41.737L13.5988 41.7366C27.725 34.9149 32.7628 32.4821 33.4994 28.1277C33.659 27.497 33.7438 26.8365 33.7438 26.1563C33.7438 21.7307 30.1561 18.1431 25.7306 18.1431C25.5742 18.1431 25.4189 18.1476 25.2647 18.1565ZM25.8928 32.7999C29.5628 32.7999 32.5379 29.8248 32.5379 26.1548C32.5379 22.4849 29.5628 19.5098 25.8928 19.5098C22.2229 19.5098 19.2478 22.4849 19.2478 26.1548C19.2478 29.8248 22.2229 32.7999 25.8928 32.7999Z"/>
  <path
    d="M48.0121 21.1608H45.204V28.9473H43.7468V21.1608H40.9324V19.9413H48.0121V21.1608ZM53.1517 25.57L51.9133 22.2803C51.8133 22.026 51.7111 21.7029 51.6069 21.3109C51.561 21.5069 51.511 21.6883 51.4568 21.855C51.4026 22.0176 51.3525 22.1615 51.3067 22.2866L50.0683 25.57H53.1517ZM55.9223 28.9473H54.7902C54.661 28.9473 54.5568 28.916 54.4775 28.8535C54.3983 28.7867 54.3379 28.7054 54.2962 28.6095L53.5457 26.6207H49.6681L48.9176 28.6095C48.8842 28.6929 48.8259 28.7701 48.7425 28.8409C48.6591 28.9118 48.5548 28.9473 48.4298 28.9473H47.2978L50.8689 19.9413H52.3511L55.9223 28.9473ZM62.1767 27.7214V28.9473H56.9732V19.9413H58.4367V27.7214H62.1767ZM73.5449 24.5131V28.0779C72.6485 28.7242 71.6061 29.0473 70.4179 29.0473C69.6882 29.0473 69.0273 28.9348 68.4353 28.7096C67.8474 28.4803 67.345 28.1634 66.928 27.759C66.5111 27.3504 66.19 26.8646 65.9649 26.3018C65.7397 25.7389 65.6272 25.1197 65.6272 24.4443C65.6272 23.7646 65.7356 23.1434 65.9524 22.5805C66.1692 22.0135 66.4798 21.5277 66.8842 21.1233C67.2887 20.7147 67.7765 20.3999 68.3477 20.1789C68.9189 19.9538 69.561 19.8412 70.274 19.8412C70.6367 19.8412 70.9724 19.8704 71.2809 19.9288C71.5936 19.983 71.8834 20.0601 72.1503 20.1602C72.4171 20.2602 72.6631 20.3811 72.8882 20.5229C73.1134 20.6647 73.3198 20.8231 73.5074 20.9982L73.0884 21.6674C73.0217 21.7716 72.9362 21.8363 72.832 21.8613C72.7277 21.8863 72.6151 21.8613 72.4942 21.7862C72.3733 21.7154 72.2441 21.6403 72.1065 21.5611C71.9731 21.4819 71.8188 21.4089 71.6437 21.3422C71.4686 21.2713 71.2663 21.215 71.037 21.1733C70.8077 21.1275 70.5367 21.1045 70.224 21.1045C69.7487 21.1045 69.3192 21.1838 68.9356 21.3422C68.5562 21.4965 68.231 21.7195 67.96 22.0114C67.6889 22.2991 67.4805 22.6493 67.3345 23.0621C67.1886 23.4749 67.1156 23.9356 67.1156 24.4443C67.1156 24.9821 67.1928 25.4637 67.3471 25.889C67.5013 26.3101 67.7202 26.6687 68.0037 26.9647C68.2873 27.2566 68.6292 27.4796 69.0294 27.6339C69.4339 27.7882 69.8842 27.8653 70.3803 27.8653C70.7514 27.8653 71.0808 27.8257 71.3685 27.7465C71.6603 27.6672 71.946 27.5568 72.2253 27.415V25.6263H70.9682C70.8723 25.6263 70.7973 25.6013 70.7431 25.5513C70.6889 25.497 70.6618 25.4283 70.6618 25.3449V24.5131H73.5449ZM76.1933 23.7501C76.3934 23.3456 76.6352 23.0287 76.9188 22.7994C77.2023 22.5659 77.5421 22.4492 77.9382 22.4492C78.0758 22.4492 78.205 22.4659 78.326 22.4992C78.4469 22.5284 78.5553 22.5743 78.6512 22.6368L78.5574 23.65C78.5407 23.7209 78.5136 23.7709 78.4761 23.8001C78.4427 23.8251 78.3968 23.8376 78.3385 23.8376C78.2759 23.8376 78.1863 23.8272 78.0695 23.8063C77.9528 23.7813 77.8298 23.7688 77.7005 23.7688C77.5129 23.7688 77.3461 23.7959 77.2002 23.8501C77.0584 23.9043 76.9292 23.9835 76.8124 24.0878C76.6999 24.192 76.5998 24.3192 76.5122 24.4693C76.4247 24.6194 76.3434 24.7903 76.2683 24.9821V28.9473H74.9237V22.568H75.7055C75.8472 22.568 75.9452 22.5951 75.9994 22.6493C76.0536 22.6994 76.0911 22.789 76.112 22.9182L76.1933 23.7501ZM82.0792 22.4679C82.5504 22.4679 82.9757 22.5451 83.3551 22.6994C83.7387 22.8536 84.0639 23.0725 84.3307 23.356C84.6018 23.6396 84.8102 23.9835 84.9562 24.388C85.1021 24.7924 85.1751 25.2469 85.1751 25.7514C85.1751 26.2559 85.1021 26.7104 84.9562 27.1148C84.8102 27.5192 84.6018 27.8653 84.3307 28.153C84.0639 28.4365 83.7387 28.6554 83.3551 28.8097C82.9757 28.9639 82.5504 29.0411 82.0792 29.0411C81.6039 29.0411 81.1745 28.9639 80.7909 28.8097C80.4115 28.6554 80.0862 28.4365 79.8152 28.153C79.5442 27.8653 79.3357 27.5192 79.1898 27.1148C79.0439 26.7104 78.9709 26.2559 78.9709 25.7514C78.9709 25.2469 79.0439 24.7924 79.1898 24.388C79.3357 23.9835 79.5442 23.6396 79.8152 23.356C80.0862 23.0725 80.4115 22.8536 80.7909 22.6994C81.1745 22.5451 81.6039 22.4679 82.0792 22.4679ZM82.0792 27.9904C82.6546 27.9904 83.082 27.7986 83.3613 27.415C83.6449 27.0272 83.7866 26.4748 83.7866 25.7576C83.7866 25.0405 83.6449 24.488 83.3613 24.1003C83.082 23.7084 82.6546 23.5124 82.0792 23.5124C81.4955 23.5124 81.0619 23.7084 80.7784 24.1003C80.4948 24.488 80.3531 25.0405 80.3531 25.7576C80.3531 26.4748 80.4948 27.0272 80.7784 27.415C81.0619 27.7986 81.4955 27.9904 82.0792 27.9904ZM91.8456 22.568V28.9473H91.0326C90.8533 28.9473 90.7386 28.8618 90.6886 28.6908L90.5885 28.0967C90.4551 28.2385 90.3133 28.3677 90.1632 28.4845C90.0173 28.6012 89.861 28.7013 89.6942 28.7847C89.5274 28.868 89.3481 28.9327 89.1563 28.9785C88.9687 29.0244 88.7665 29.0473 88.5497 29.0473C88.1994 29.0473 87.8909 28.989 87.624 28.8722C87.3572 28.7555 87.1321 28.5908 86.9486 28.3781C86.7693 28.1655 86.6338 27.9112 86.5421 27.6151C86.4504 27.3149 86.4045 26.9855 86.4045 26.627V22.568H87.7491V26.627C87.7491 27.0564 87.8471 27.39 88.0431 27.6276C88.2432 27.8653 88.5455 27.9841 88.9499 27.9841C89.246 27.9841 89.5211 27.9174 89.7755 27.784C90.034 27.6464 90.2758 27.4588 90.501 27.2211V22.568H91.8456ZM94.8232 27.3462C95.0108 27.588 95.2151 27.759 95.4361 27.859C95.6612 27.9549 95.9093 28.0029 96.1803 28.0029C96.7057 28.0029 97.1143 27.8111 97.4062 27.4275C97.7022 27.0439 97.8502 26.4727 97.8502 25.7139C97.8502 25.3219 97.8168 24.9884 97.7501 24.7132C97.6834 24.4338 97.5875 24.2066 97.4624 24.0315C97.3374 23.8564 97.1852 23.7292 97.0059 23.65C96.8266 23.5708 96.6244 23.5312 96.3992 23.5312C96.0573 23.5312 95.7613 23.6062 95.5111 23.7563C95.2651 23.9022 95.0358 24.1128 94.8232 24.388V27.3462ZM94.7544 23.4936C95.0212 23.1809 95.3235 22.9287 95.6612 22.7369C96.0031 22.5451 96.3992 22.4492 96.8495 22.4492C97.2081 22.4492 97.5333 22.5221 97.8252 22.6681C98.117 22.8098 98.3672 23.0183 98.5757 23.2935C98.7842 23.5687 98.9447 23.9106 99.0573 24.3192C99.174 24.7236 99.2324 25.1885 99.2324 25.7139C99.2324 26.185 99.1677 26.6249 99.0385 27.0335C98.9134 27.4379 98.732 27.7902 98.4944 28.0904C98.2567 28.3865 97.969 28.62 97.6313 28.7909C97.2936 28.9577 96.9121 29.0411 96.4868 29.0411C96.1115 29.0411 95.7926 28.9806 95.5299 28.8597C95.2714 28.7388 95.0358 28.572 94.8232 28.3594V31.0674H93.4785V22.568H94.2916C94.475 22.568 94.5918 22.6535 94.6418 22.8244L94.7544 23.4936Z"/>
</svg>
