<svg width="83" height="55" viewBox="0 0 83 55" fill="none" xmlns="http://www.w3.org/2000/svg">
<g id="svgexport-1 (1)" clip-path="url(#clip0_2979_8625)">
<path id="Vector" d="M39.7725 32.8197C41.3264 29.6503 43.8221 27.039 46.9178 25.3436H0V33.8082H7.48498V54.9593H16.9263V33.8082H11.7784C14.281 33.6404 16.7139 32.9119 18.897 31.6767C21.0802 30.4414 22.9577 28.731 24.3907 26.672V54.9593H33.8422V33.8082H39.3607C39.4945 33.4787 39.649 33.1492 39.8137 32.7785" fill="#C7C7D1"/>
<path id="Vector_2" d="M55.0007 46.5379C53.3615 46.4719 51.8114 45.7742 50.675 44.5908C49.5385 43.4075 48.9038 41.8303 48.9038 40.1895C48.9038 38.5487 49.5385 36.9715 50.675 35.7882C51.8114 34.6049 53.3615 33.9071 55.0007 33.8411C55.8328 33.8379 56.6572 34.0001 57.4263 34.3183C58.1951 34.6365 58.8929 35.1043 59.4796 35.6946C59.6647 35.2004 59.8297 34.6649 59.9735 34.2015C60.5584 31.9695 60.8529 29.6714 60.8489 27.364C60.8489 27.0962 60.8489 26.8285 60.8489 26.571C58.3756 25.5082 55.66 25.1392 52.9932 25.5036C50.3264 25.8681 47.8093 26.9524 45.7121 28.6398C43.615 30.3274 42.0171 32.5544 41.0901 35.0817C40.163 37.6091 39.9419 40.3413 40.4504 42.9849C40.9589 45.6284 42.1779 48.0835 43.9763 50.0864C45.7748 52.0893 48.0848 53.5644 50.6582 54.3531C53.2317 55.1419 55.9715 55.2146 58.583 54.5634C61.1949 53.9122 63.58 52.5617 65.4821 50.657L59.5002 44.6741C58.9118 45.2657 58.2123 45.7349 57.4417 46.0547C56.6713 46.3746 55.8452 46.5388 55.011 46.5379" fill="#C7C7D1"/>
<g id="Mask group">
<mask id="mask0_2979_8625" style="mask-type:luminance" maskUnits="userSpaceOnUse" x="48" y="0" width="35" height="41">
<g id="Group">
<path id="Vector_3" d="M48.6211 0C55.5611 3.74131 60.8212 9.97964 63.3363 17.4528C65.852 24.9258 65.4349 33.0756 62.1704 40.253C69.3771 40.1809 71.4877 32.6019 76.8726 26.6191C78.4773 24.7883 80.3863 23.2485 82.5147 22.0675C81.3969 21.3323 80.0809 20.956 78.7432 20.9892C77.4054 21.0223 76.11 21.4632 75.0295 22.2529C72.4136 16.9133 68.7143 12.1771 64.1676 8.34585C59.6209 4.51463 54.3264 1.67234 48.6211 0Z" fill="white"/>
</g>
</mask>
<g mask="url(#mask0_2979_8625)">
<g id="Group_2">
<path id="Vector_4" d="M82.5147 0H48.6211V40.253H82.5147V0Z" fill="#C7C7D1"/>
</g>
</g>
</g>
<path id="Vector_5" d="M57.9414 7.6875C61.6092 12.186 63.9479 17.6199 64.6938 23.3766C65.4397 29.1333 64.5632 34.9839 62.1627 40.2689C66.6411 40.2689 69.1534 37.262 71.7069 33.5961C70.3044 23.6105 65.4306 14.4378 57.9414 7.6875Z" fill="#C7C7D1"/>
<path id="Vector_6" d="M57.9414 7.6875C61.6092 12.186 63.9479 17.6199 64.6938 23.3766C65.4397 29.1333 64.5632 34.9839 62.1627 40.2689C63.8631 40.2664 65.5251 39.7613 66.9396 38.817C67.1889 36.9946 67.3126 35.1574 67.3103 33.3181C67.3361 23.9684 64.0539 14.9111 58.044 7.74932L57.9723 7.6875" fill="#C7C7D1"/>
</g>
<defs>
<clipPath id="clip0_2979_8625">
<rect width="82.5" height="55" fill="white"/>
</clipPath>
</defs>
</svg>
