<svg width="24" height="24" viewBox="0 0 24 24" fill="none" xmlns="http://www.w3.org/2000/svg">
<path fill-rule="evenodd" clip-rule="evenodd" d="M10.7336 1L2.43228 9.3013C1.85738 9.87637 1.53442 10.6562 1.53442 11.4694C1.53442 12.2825 1.85738 13.0624 2.43228 13.6375L4.8641 16.0693L0.63525 20.2981C0.433855 20.4995 0.274096 20.7385 0.165099 21.0016C0.056101 21.2647 0 21.5467 0 21.8314C0 22.1162 0.056101 22.3982 0.165099 22.6613C0.274096 22.9244 0.433855 23.1634 0.63525 23.3647C0.836585 23.5661 1.07562 23.7259 1.33871 23.8349C1.6018 23.9439 1.88378 24 2.16855 24C2.45333 24 2.73531 23.9439 2.9984 23.8349C3.26148 23.7259 3.50052 23.5661 3.70186 23.3647L7.92917 19.1374L10.361 21.5693C10.9361 22.1442 11.7159 22.4671 12.5291 22.4671C13.3422 22.4671 14.1221 22.1442 14.6972 21.5693L23 13.2664L10.7336 1ZM6.70711 10.2929C6.31658 9.90237 5.68342 9.90237 5.29289 10.2929C4.90237 10.6834 4.90237 11.3166 5.29289 11.7071L12.2929 18.7071C12.6834 19.0976 13.3166 19.0976 13.7071 18.7071C14.0976 18.3166 14.0976 17.6834 13.7071 17.2929L6.70711 10.2929Z" fill="white"/>
</svg>
