<svg width="24" height="24" viewBox="0 0 24 24" fill="none" xmlns="http://www.w3.org/2000/svg">
<path d="M9.8 2C9.8 1.44772 9.35228 1 8.8 1H2C1.44772 1 1 1.44772 1 2V11.7333C1 12.2856 1.44772 12.7333 2 12.7333H8.8C9.35229 12.7333 9.8 12.2856 9.8 11.7333V2Z" fill="white"/>
<path d="M9.8 18.1333C9.8 17.581 9.35228 17.1333 8.8 17.1333H2C1.44772 17.1333 1 17.581 1 18.1333V22C1 22.5523 1.44772 23 2 23H8.8C9.35229 23 9.8 22.5523 9.8 22V18.1333Z" fill="white"/>
<path d="M23 2C23 1.44772 22.5523 1 22 1H15.2C14.6477 1 14.2 1.44772 14.2 2V7.33333C14.2 7.88562 14.6477 8.33333 15.2 8.33333H22C22.5523 8.33333 23 7.88562 23 7.33333V2Z" fill="white"/>
<path d="M23 13.7333C23 13.181 22.5523 12.7333 22 12.7333H15.2C14.6477 12.7333 14.2 13.181 14.2 13.7333V22C14.2 22.5523 14.6477 23 15.2 23H22C22.5523 23 23 22.5523 23 22V13.7333Z" fill="white"/>
</svg>
