<svg width="36" height="36" viewBox="0 0 36 36" fill="none" xmlns="http://www.w3.org/2000/svg">
<circle cx="18" cy="18" r="18" fill="#1F1F1F"/>
<path d="M13.3875 25.5234C13.4132 25.6794 13.4664 25.7496 13.6326 25.7496H14.1091V26.0204H13.6515C13.585 26.0269 13.5178 26.0197 13.4542 25.9994C13.3905 25.9791 13.3317 25.946 13.2813 25.9022C13.1492 25.7575 13.0773 25.5679 13.0802 25.3721C13.083 25.1763 13.1605 24.9889 13.2967 24.8481C13.3938 24.7805 13.5112 24.7484 13.6292 24.7573H14.1091V25.0281H13.6343C13.4629 25.0281 13.4149 25.0949 13.3892 25.2526H14.0748V25.5234H13.3875Z" fill="white"/>
<path d="M25.0409 25.5235C25.0666 25.6795 25.1197 25.7498 25.2859 25.7498H25.7607V26.0205H25.2979C25.2315 26.0268 25.1644 26.0196 25.1008 25.9992C25.0371 25.9789 24.9783 25.9459 24.9278 25.9023C24.7957 25.7576 24.7238 25.5681 24.7266 25.3722C24.7295 25.1764 24.8069 24.989 24.9432 24.8483C25.0407 24.7802 25.1588 24.7481 25.2774 24.7574H25.7555V25.0282H25.2808C25.1094 25.0282 25.0614 25.0951 25.0374 25.2527H25.723V25.5235H25.0409Z" fill="white"/>
<path d="M30.0253 25.5233C30.051 25.6793 30.1059 25.7496 30.2704 25.7496H30.7469V26.0203H30.2875C30.221 26.0267 30.154 26.0195 30.0903 25.9992C30.0267 25.9789 29.9678 25.9458 29.9174 25.9021C29.7857 25.7572 29.714 25.5678 29.7169 25.372C29.7197 25.1763 29.7969 24.989 29.9328 24.8481C30.0306 24.7807 30.1485 24.7486 30.267 24.7572H30.7451V25.028H30.2687C30.0973 25.028 30.051 25.0949 30.0253 25.2525H30.7109V25.5233H30.0253Z" fill="white"/>
<path d="M18.6992 24.7422C19.0676 24.7422 19.287 24.989 19.287 25.4072C19.287 25.7962 19.0591 26.0413 18.6974 26.0413C18.3358 26.0413 18.1182 25.8014 18.1182 25.3797C18.1182 24.9958 18.3495 24.7422 18.7009 24.7422M18.4284 25.3969C18.4284 25.6437 18.5226 25.7756 18.706 25.7756C18.8894 25.7756 18.9751 25.6471 18.9751 25.3883C18.9751 25.1295 18.8877 25.0061 18.6992 25.0061C18.5106 25.0061 18.4284 25.1347 18.4267 25.3969" fill="white"/>
<path d="M20.2411 24.7578H20.5462V26.0209H19.8606C19.6104 26.0209 19.499 25.8495 19.499 25.5359V24.7578H19.8024V25.5702C19.8024 25.6833 19.8572 25.7501 19.9498 25.7501H20.2411V24.7578Z" fill="white"/>
<path d="M24.196 24.7578H24.4993V26.0209H23.8138C23.5653 26.0209 23.4521 25.8495 23.4521 25.5359V24.7578H23.7572V25.5702C23.7572 25.6833 23.8103 25.7501 23.9029 25.7501H24.1891L24.196 24.7578Z" fill="white"/>
<path d="M23.1704 26.4994H22.867V26.0264H22.5756C22.25 26.0264 22.0443 25.7864 22.0443 25.4111C22.0382 25.3125 22.0527 25.2137 22.0869 25.121C22.1212 25.0284 22.1744 24.9439 22.2432 24.8729C22.2955 24.8282 22.3569 24.7952 22.4232 24.7763C22.4894 24.7573 22.5589 24.7529 22.6271 24.7633H23.1721L23.1704 26.4994ZM22.6425 25.0289C22.454 25.0289 22.3528 25.1557 22.3528 25.3888C22.3528 25.6219 22.4574 25.7522 22.6528 25.7522H22.8619V25.0289H22.6425Z" fill="white"/>
<path d="M26.1419 24.3652H26.4453V24.7577H26.7263V25.0285H26.4453V25.4861C26.4453 25.6164 26.4453 25.6575 26.4693 25.6901C26.4846 25.7116 26.5054 25.7286 26.5295 25.7394C26.5536 25.7503 26.5801 25.7545 26.6064 25.7517H26.7246V26.0225H26.5052C26.4308 26.0353 26.3543 26.0197 26.2908 25.9787C26.2274 25.9378 26.1816 25.8745 26.1625 25.8015C26.139 25.7185 26.1297 25.6321 26.1351 25.5461V25.0319H25.9482V24.7577H26.1419V24.3652Z" fill="white"/>
<path d="M27.7229 25.2326C27.7229 25.0783 27.6647 25.0286 27.4916 25.0286H27.0168V24.7578H27.6115C27.9252 24.7578 28.0314 24.9909 28.0229 25.308V26.0192H27.4213C27.3288 26.0261 27.2358 26.0192 27.1454 25.9987C27.0773 25.9692 27.0202 25.9191 26.9821 25.8554C26.9439 25.7918 26.9267 25.7178 26.9328 25.6439C26.9306 25.584 26.9411 25.5244 26.9635 25.4689C26.986 25.4133 27.0199 25.3632 27.0631 25.3217C27.1589 25.2612 27.273 25.2363 27.3853 25.2514H27.7195L27.7229 25.2326ZM27.4093 25.5239H27.3596C27.3441 25.5225 27.3285 25.5246 27.3139 25.53C27.2993 25.5355 27.2861 25.5441 27.2753 25.5552C27.2644 25.5664 27.2562 25.5798 27.2512 25.5946C27.2463 25.6093 27.2446 25.625 27.2465 25.6405C27.2465 25.7227 27.2893 25.7519 27.4179 25.7519H27.7315V25.5239H27.4093Z" fill="white"/>
<path d="M29.2285 26.02H28.9252V25.3088C28.9202 25.2223 28.9289 25.1355 28.9509 25.0517C28.966 24.9957 28.9909 24.9429 29.0246 24.8957C29.0613 24.8495 29.1088 24.8129 29.1628 24.789C29.2168 24.7651 29.2758 24.7547 29.3348 24.7586H29.6673V25.0294H29.4685C29.2971 25.0294 29.2371 25.0791 29.2371 25.2334L29.2285 26.02Z" fill="white"/>
<path d="M28.3232 24.291H28.6266V24.6338H28.3232V24.291ZM28.6266 26.022H28.3232V24.7589H28.6266V26.022Z" fill="white"/>
<path d="M12.3357 24.3652H12.6391V25.4998C12.6391 25.6232 12.6391 25.6609 12.6648 25.6935C12.6803 25.7141 12.701 25.7303 12.7248 25.7405C12.7485 25.7507 12.7745 25.7546 12.8002 25.7517H12.9715V26.0225H12.7008C12.6525 26.0278 12.6037 26.0224 12.5578 26.0067C12.5119 25.991 12.47 25.9654 12.4351 25.9317C12.4015 25.8981 12.3752 25.8578 12.358 25.8134C12.3345 25.7346 12.3252 25.6522 12.3306 25.5701L12.3357 24.3652Z" fill="white"/>
<path d="M16.1172 24.291V26.022H16.4223V24.5927H16.7085C16.8027 24.5927 16.8559 24.6595 16.8559 24.7743V26.0237H17.1575V24.5927H17.4489C17.5414 24.5927 17.5963 24.6595 17.5963 24.7743V26.0237H17.8996V24.7778C17.8996 24.411 17.7419 24.291 17.4986 24.291H16.1172Z" fill="white"/>
<path d="M15.3242 24.7559V25.0267H14.7809C14.7552 25.0267 14.6267 25.0181 14.6267 25.1415C14.6267 25.2649 14.7518 25.2597 14.7809 25.2597H15.0106C15.0609 25.2525 15.1122 25.2566 15.1608 25.2717C15.2094 25.2868 15.254 25.3125 15.2914 25.3469C15.3288 25.3814 15.3581 25.4237 15.3771 25.4709C15.3961 25.5181 15.4044 25.5689 15.4013 25.6196C15.4084 25.673 15.4033 25.7273 15.3863 25.7784C15.3693 25.8295 15.3409 25.876 15.3032 25.9145C15.2656 25.953 15.2196 25.9824 15.1689 26.0005C15.1182 26.0186 15.0641 26.0249 15.0106 26.019H14.3662V25.7482H14.9592C15.0363 25.7482 15.1048 25.7208 15.1048 25.6334C15.1048 25.5459 15.0397 25.5185 14.9592 25.5185H14.7209C14.6682 25.5242 14.6149 25.518 14.5649 25.5004C14.5149 25.4828 14.4695 25.4541 14.432 25.4167C14.3946 25.3792 14.3659 25.3338 14.3483 25.2838C14.3307 25.2338 14.3245 25.1805 14.3302 25.1278C14.3288 25.0772 14.3381 25.027 14.3574 24.9803C14.3768 24.9336 14.4058 24.8915 14.4425 24.8567C14.4792 24.8219 14.5228 24.7953 14.5705 24.7785C14.6181 24.7617 14.6688 24.7552 14.7192 24.7593L15.3242 24.7559Z" fill="white"/>
<path d="M21.7827 24.7559V25.0267H21.2394C21.2137 25.0267 21.0851 25.0181 21.0851 25.1415C21.0851 25.2649 21.2102 25.2597 21.2394 25.2597H21.469C21.5195 25.2522 21.571 25.2561 21.6198 25.2711C21.6686 25.286 21.7134 25.3117 21.751 25.3462C21.7887 25.3806 21.8181 25.4231 21.8372 25.4704C21.8563 25.5177 21.8646 25.5687 21.8615 25.6196C21.8687 25.6732 21.8635 25.7276 21.8464 25.7789C21.8293 25.8301 21.8007 25.8767 21.7629 25.9152C21.725 25.9538 21.6789 25.9831 21.628 26.0011C21.577 26.0191 21.5227 26.0252 21.469 26.019H20.8263V25.7482H21.4193C21.4965 25.7482 21.565 25.7208 21.565 25.6334C21.565 25.5459 21.4999 25.5185 21.4193 25.5185H21.1811C21.1285 25.5239 21.0754 25.5175 21.0256 25.4998C20.9759 25.482 20.9307 25.4534 20.8934 25.4159C20.8561 25.3785 20.8277 25.3332 20.8101 25.2833C20.7926 25.2335 20.7864 25.1803 20.7921 25.1278C20.7907 25.0772 20.8 25.027 20.8193 24.9803C20.8387 24.9336 20.8676 24.8915 20.9043 24.8567C20.9411 24.8219 20.9847 24.7953 21.0324 24.7785C21.08 24.7617 21.1307 24.7552 21.1811 24.7593L21.7827 24.7559Z" fill="white"/>
<path d="M31.9592 24.7559V25.0267H31.4159C31.3902 25.0267 31.2617 25.0181 31.2617 25.1415C31.2617 25.2649 31.3885 25.2597 31.4159 25.2597H31.6456C31.6959 25.2525 31.7472 25.2566 31.7958 25.2717C31.8444 25.2868 31.889 25.3125 31.9264 25.3469C31.9638 25.3814 31.9931 25.4237 32.0121 25.4709C32.0311 25.5181 32.0394 25.5689 32.0363 25.6196C32.0434 25.673 32.0383 25.7273 32.0213 25.7784C32.0043 25.8295 31.9759 25.876 31.9382 25.9145C31.9006 25.953 31.8546 25.9824 31.8039 26.0005C31.7532 26.0186 31.6991 26.0249 31.6456 26.019H31.0029V25.7482H31.5941C31.6713 25.7482 31.7398 25.7208 31.7398 25.6334C31.7398 25.5459 31.673 25.5185 31.5941 25.5185H31.3559C31.3033 25.5239 31.2502 25.5175 31.2005 25.4998C31.1507 25.482 31.1055 25.4534 31.0682 25.4159C31.0309 25.3785 31.0025 25.3332 30.9849 25.2833C30.9674 25.2335 30.9612 25.1803 30.9669 25.1278C30.9655 25.0772 30.9748 25.027 30.9941 24.9803C31.0135 24.9336 31.0424 24.8915 31.0792 24.8567C31.1159 24.8219 31.1595 24.7953 31.2072 24.7785C31.2548 24.7617 31.3055 24.7552 31.3559 24.7593L31.9592 24.7559Z" fill="white"/>
<path d="M19.6822 17.043C18.8407 17.043 17.8621 17.5023 16.832 18.2547C17.7232 17.648 18.5785 17.2863 19.3497 17.2863C22.1484 17.2863 19.1663 22.2445 19.1663 22.2445H22.3438C22.3438 22.2445 24.2513 17.043 19.6805 17.043" fill="white"/>
<path d="M19.8732 16.6113C12.6304 16.6113 3.95996 26.0204 3.95996 26.0204H9.9979C11.914 23.1394 14.4951 19.8505 16.8345 18.2532C17.8628 17.5025 18.8432 17.0415 19.6847 17.0415C24.2555 17.0415 22.348 22.2431 22.348 22.2431C22.348 22.2431 24.7337 16.6113 19.8732 16.6113Z" fill="#ED1D24"/>
<path d="M9.56365 12.8662C9.57648 13.3053 9.65149 13.7404 9.78646 14.1585C12.3195 14.7343 16.6145 15.3359 20.4501 15.1868C24.2857 15.0377 27.6792 14.6726 31.9861 13.3444C23.3003 14.5561 13.2587 13.4952 9.67677 11.5723C9.56992 11.9953 9.53173 12.4328 9.56365 12.8679" fill="white"/>
<path d="M25.1074 10.5473C26.3071 9.64071 26.1769 8.92603 25.1811 8.61239C24.2573 8.32104 22.1955 8.6621 21.1689 8.89004C24.2539 8.92089 25.8855 9.91836 25.1108 10.5473" fill="white"/>
<path d="M17.0646 11.0923C18.8453 11.927 22.8918 12.3109 25.4626 11.5893C23.118 11.3323 16.0363 10.2731 16.2643 8.67578C15.7501 10.0469 16.1786 10.669 17.0681 11.0855" fill="#ED1D24"/>
</svg>
