<svg width="24" height="24" viewBox="0 0 24 24" fill="none" xmlns="http://www.w3.org/2000/svg">
<path fill-rule="evenodd" clip-rule="evenodd" d="M1 14C1 7.92487 5.92487 3 12 3C18.0751 3 23 7.92487 23 14C23 16.321 22.2811 18.4741 21.0539 20.2489C20.7146 20.7396 20.1402 21 19.5435 21H4.45647C3.85982 21 3.28541 20.7396 2.94606 20.2489C1.71885 18.4741 1 16.321 1 14ZM6.86719 8.86719C6.86719 8.86719 9.58639 14.6972 10.4444 15.5567C11.3039 16.4147 12.6972 16.4147 13.5567 15.5552C14.4161 14.6972 14.4161 13.3039 13.5567 12.4444C12.6972 11.5864 6.86719 8.86719 6.86719 8.86719Z" fill="white"/>
</svg>
