<svg width="56" height="56" viewBox="0 0 56 56" fill="none" xmlns="http://www.w3.org/2000/svg">
<g style="mix-blend-mode:overlay">
<path d="M18.2828 35.3107V37.2578L21.102 39.0837L24.4965 37.131C24.9226 36.8858 25.4679 37.0319 25.7144 37.4573C25.9608 37.8826 25.8152 38.4262 25.3891 38.6713L22.7815 40.1714L23.8004 40.8313L27.0134 38.8612C27.0276 38.8525 27.0419 38.844 27.0562 38.8358V34.1638L20.8749 37.7197C20.4488 37.9648 19.9035 37.8187 19.657 37.3934C19.4106 36.968 19.5562 36.4244 19.9823 36.1793L23.3734 34.2286V30.9194L21.2006 29.6205L18.0026 31.5088C17.5793 31.7587 17.0335 31.6182 16.7835 31.1948C16.5335 30.7715 16.6741 30.2257 17.0974 29.9757L20.177 28.1574V25.0434L17.475 23.2127L14.7656 25.4214L14.7656 27.1928L17.6993 25.5052C18.1254 25.2601 18.6707 25.4062 18.9172 25.8316C19.1636 26.2569 19.018 26.8005 18.5919 27.0456L14.7656 29.2467V30.3103L17.6274 32.6432C17.857 32.8304 18.0333 33.0693 18.1449 33.3361L21.3758 31.4776C21.8019 31.2324 22.3472 31.3785 22.5936 31.8039C22.8401 32.2293 22.6945 32.7728 22.2683 33.0179L18.2828 35.3107Z" fill="white"/>
<path d="M28.8539 38.8487L28.8365 38.8385V36.4023H31.2556C31.5431 36.8247 32.0288 37.1022 32.5796 37.1022C33.4625 37.1022 34.1783 36.389 34.1783 35.5093C34.1783 34.6296 33.4625 33.9164 32.5796 33.9164C32.0263 33.9164 31.5387 34.1964 31.2517 34.622H28.8365V28.3701L26.0735 26.3512C25.6765 26.0612 25.1196 26.1478 24.8296 26.5448C24.5395 26.9417 24.6262 27.4986 25.0232 27.7887L27.0562 29.2742V32.11L25.1537 33.2044L25.1537 29.9096L21.9573 27.9987V25.1922L25.4744 23.1213V18.7098C25.4744 18.2182 25.0759 17.8197 24.5843 17.8197C24.0927 17.8197 23.6941 18.2182 23.6941 18.7098V22.1036L21.1889 23.5786L18.2828 21.6096V18.4739L20.176 17.2477V21.3381C20.176 21.8298 20.5745 22.2283 21.0661 22.2283C21.5578 22.2283 21.9563 21.8298 21.9563 21.3381V16.0947L23.8004 14.9004L27.0134 16.8705C27.0265 16.8785 27.0397 16.8864 27.053 16.894V24.7781L30.3375 26.7521C30.3385 27.631 31.0539 28.3432 31.9362 28.3432C32.8192 28.3432 33.5349 27.63 33.5349 26.7503C33.5349 25.8705 32.8192 25.1574 31.9362 25.1574C31.7233 25.1574 31.5202 25.1988 31.3344 25.2741L28.8333 23.771V16.8951C28.8471 16.8871 28.8609 16.8789 28.8746 16.8705L32.0877 14.9004L37.6053 18.4739V19.169H33.9022C33.6145 18.7479 33.1295 18.4713 32.5796 18.4713C31.6967 18.4713 30.9809 19.1844 30.9809 20.0642C30.9809 20.9439 31.6967 21.6571 32.5796 21.6571C33.1338 21.6571 33.6221 21.3761 33.9089 20.9493H37.6053V21.7086C37.6053 22.2437 37.846 22.7504 38.2607 23.0885L41.1224 25.4214V30.3103L41.0189 30.3947L39.1293 29.259C39.1323 29.2197 39.1337 29.18 39.1337 29.14C39.1337 28.2603 38.418 27.5471 37.535 27.5471C36.6521 27.5471 35.9363 28.2603 35.9363 29.14C35.9363 30.0197 36.6521 30.7329 37.535 30.7329C37.6996 30.7329 37.8584 30.7081 38.0078 30.6621L39.5523 31.5903L38.2607 32.6432C37.846 32.9813 37.6053 33.488 37.6053 34.0231V37.2578L32.0877 40.8313L28.8746 38.8612L28.8539 38.8487Z" fill="white"/>
<path fill-rule="evenodd" clip-rule="evenodd" d="M8.60227 7C7.71736 7 7 7.71736 7 8.60227V47.4504C7 48.3353 7.71736 49.0527 8.60227 49.0527H47.6034C48.4883 49.0527 49.2057 48.3353 49.2057 47.4504V8.60227C49.2057 7.71736 48.4883 7 47.6034 7H8.60227ZM24.731 13.3827C24.1465 13.0243 23.4081 13.0334 22.8326 13.4061L17.315 16.9796C16.8083 17.3077 16.5025 17.8702 16.5025 18.4739V21.7086L13.6407 24.0415C13.226 24.3796 12.9853 24.8863 12.9853 25.4214V30.3103C12.9853 30.8454 13.226 31.3521 13.6407 31.6902L16.5025 34.0231V34.731C16.4993 34.774 16.4993 34.8173 16.5025 34.8606V37.2578C16.5025 37.8615 16.8083 38.424 17.315 38.7521L22.8326 42.3256C23.4081 42.6983 24.1465 42.7074 24.731 42.349L27.944 40.3789L31.1571 42.349C31.7416 42.7074 32.48 42.6983 33.0554 42.3256L38.5731 38.7521C39.0797 38.424 39.3856 37.8615 39.3856 37.2578V34.0231L42.2473 31.6902C42.6621 31.3521 42.9027 30.8454 42.9027 30.3103V25.4214C42.9027 24.8863 42.6621 24.3796 42.2473 24.0415L39.3856 21.7086V18.4739C39.3856 17.8702 39.0797 17.3077 38.5731 16.9796L33.0554 13.4061C32.48 13.0334 31.7416 13.0243 31.1571 13.3827L27.944 15.3528L24.731 13.3827Z" fill="white"/>
</g>
</svg>
