<svg width="56" height="56" viewBox="0 0 56 56" fill="none" xmlns="http://www.w3.org/2000/svg">
<g style="mix-blend-mode:overlay">
<path d="M35.3499 17.4905C35.1849 17.4889 35.0233 17.5364 34.8854 17.6269C34.7476 17.7174 34.6397 17.8469 34.5754 17.9988C34.5113 18.1507 34.4937 18.3183 34.525 18.4802C34.5562 18.6422 34.6348 18.7912 34.7508 18.9084C34.8669 19.0255 35.0151 19.1056 35.1769 19.1383C35.3385 19.171 35.5061 19.155 35.6587 19.0923C35.8112 19.0295 35.9417 18.9229 36.0334 18.7858C36.1252 18.6488 36.1742 18.4876 36.1742 18.3227C36.1742 18.1033 36.0877 17.8928 35.9332 17.737C35.7789 17.5811 35.5692 17.4925 35.3499 17.4905Z" fill="white"/>
<path fill-rule="evenodd" clip-rule="evenodd" d="M28 7C23.8466 7 19.7865 8.23162 16.3331 10.5391C12.8796 12.8466 10.188 16.1264 8.59857 19.9636C7.00914 23.8009 6.59321 28.0232 7.40351 32.0969C8.21381 36.1705 10.2139 39.9123 13.1507 42.8491C16.0877 45.786 19.8295 47.7861 23.9031 48.5965C27.9767 49.4068 32.1991 48.9908 36.0364 47.4015C39.8736 45.812 43.1533 43.1203 45.4608 39.6669C47.7684 36.2135 49 32.1533 49 27.9999C49 22.4304 46.7875 17.089 42.8492 13.1508C38.911 9.21248 33.5695 7 28 7ZM39.441 33.88H28.8866V32.2466H39.441V33.88ZM38.15 18.5733C38.15 18.5733 37.4266 19.5222 37.8156 22.0655C38.5311 26.8333 36.0266 31.0799 31.5933 31.0799H28.3033C28.3033 31.0799 25.0911 30.9166 23.1622 32.8456C21.1956 34.8147 19.745 36.281 18.6714 37.3663L18.6411 37.3969C16.6215 39.4385 15.9489 40.1184 15.68 40.2655C15.4233 40.3977 15.3533 40.0944 15.3533 40.0944L32.2389 19.2733C32.1658 18.5726 32.3325 17.8679 32.712 17.2743C33.0914 16.6808 33.6611 16.2336 34.3278 16.0059C34.9945 15.7783 35.7187 15.7837 36.382 16.0212C37.0453 16.2586 37.6083 16.7142 37.9788 17.3133L39.5344 16.8778L38.15 18.5733Z" fill="white"/>
</g>
</svg>
