<svg width="56" height="56" viewBox="0 0 56 56" fill="none" xmlns="http://www.w3.org/2000/svg">
<g style="mix-blend-mode:overlay">
<path d="M28.023 35.5602L49.428 23.4361V18.4574L28.023 30.5815L4 17.0284V15.5532L28.023 2L46.2127 12.2801V13.4326L44.7427 14.2624L28.023 4.81205L7.67466 16.2908L28.023 27.7233L50.8059 14.8617L52 15.5532V24.8191L28.023 38.3723L6.57224 26.2943V31.2731L28.023 43.351L50.8976 30.4432L52 31.0426V40.4467L28.023 54L4 40.4467V38.8334L5.10242 38.234L28.023 51.188L49.428 39.0639V34.0851L28.023 46.163L4 32.61V23.2056L5.10242 22.6064L28.023 35.5602Z" fill="white"/>
</g>
</svg>
