<svg width="56" height="56" viewBox="0 0 56 56" fill="none" xmlns="http://www.w3.org/2000/svg">
<g style="mix-blend-mode:overlay">
<path d="M28.4966 16.6946C25.4846 19.6925 23.793 23.7547 23.793 27.9899C23.793 32.225 25.4846 36.2872 28.4966 39.2851L33.9796 33.8394C32.4145 32.2849 31.5353 30.1767 31.5353 27.9783C31.5353 25.78 32.4145 23.6717 33.9796 22.1173C35.5448 20.5628 37.6675 19.6895 39.8809 19.6895C42.0943 19.6895 44.2171 20.5628 45.7822 22.1173L51.1498 16.8312L45.8282 22.1391C47.3933 23.6935 48.2726 25.8018 48.2726 28.0001C48.2726 30.1985 47.3933 32.3067 45.8282 33.8612C44.2631 35.4156 42.1403 36.2889 39.9269 36.2889C37.7135 36.2889 35.5907 35.4156 34.0256 33.8612L28.4961 39.3069C31.5154 42.3087 35.6117 43.9963 39.8838 43.9985C41.9992 43.9996 44.094 43.5868 46.0488 42.7838C48.0035 41.9808 49.7798 40.8033 51.2764 39.3184C52.7729 37.8336 53.9603 36.0706 54.7709 34.13C55.5814 32.1894 55.9991 30.1092 56.0001 28.0083C56.0012 25.9074 55.5856 23.8268 54.7771 21.8854C53.9686 19.9439 52.783 18.1797 51.288 16.6934C49.7927 15.2056 48.0163 14.0256 46.0612 13.2202C44.1058 12.4146 42.0095 12 39.8925 12C37.7755 12 35.6793 12.4146 33.7238 13.2202C31.7684 14.0258 29.9921 15.2064 28.4966 16.6946Z" fill="white"/>
<path d="M11.163 22.1411L11.1622 22.1403C9.60684 23.6961 8.73589 25.8009 8.74025 27.9934C8.7446 30.1864 9.62437 32.2883 11.1867 33.8381L11.1631 33.8615C11.9377 34.6317 12.8576 35.2427 13.8701 35.6596C14.8827 36.0765 15.9681 36.2911 17.0642 36.2911C18.1604 36.2911 19.2458 36.0765 20.2584 35.6596C21.2709 35.2426 22.1909 34.6316 22.9655 33.8613L26.9616 40.5992H26.8687L26.6131 40.8069C23.5217 43.078 19.7139 44.1752 15.8787 43.9001C12.0434 43.625 8.43391 41.9958 5.70312 39.307L11.0823 33.9418L5.7036 39.2838C2.69159 36.2859 1 32.2237 1 27.9886C1 23.7534 2.69159 19.6913 5.7036 16.6934L5.70439 16.6941C8.44049 13.982 12.0678 12.338 15.9235 12.0627C19.7798 11.7873 23.6072 12.8993 26.7061 15.1955L26.9384 15.3801L22.9655 22.1411C22.1909 21.3708 21.2709 20.7598 20.2584 20.3429C19.2458 19.926 18.1604 19.7114 17.0642 19.7114C15.9681 19.7114 14.8827 19.926 13.8701 20.3429C12.8575 20.7598 11.9376 21.3708 11.163 22.1411Z" fill="white"/>
</g>
</svg>
