<svg width="56" height="56" viewBox="0 0 56 56"  fill="none" xmlns="http://www.w3.org/2000/svg">
  <path fill-rule="evenodd" clip-rule="evenodd" d="M38.7081 18.8023C38.4647 18.7936 38.2118 18.7902 37.9734 18.79C37.9258 18.7945 37.8733 18.7903 37.8108 18.769L37.8036 18.7691C37.52 18.7734 37.2364 18.7777 36.9578 18.7905C36.3814 18.8133 35.8105 18.8672 35.2495 18.9384C34.6316 19.0195 33.9998 19.12 33.3829 19.2465C33.1926 19.2842 33.0021 19.3241 32.8116 19.3661C32.338 19.1753 31.8591 18.997 31.3751 18.8318C31.2566 18.7909 31.1376 18.7507 31.0183 18.7112L31.0447 18.6937C31.4144 18.4443 31.7956 18.2124 32.1871 17.9986C32.5199 17.8144 32.868 17.6392 33.2262 17.4822C33.74 17.2521 34.2605 17.0635 34.8035 16.9254C35.1917 16.8234 35.5923 16.7536 35.9996 16.7255C36.0491 16.7243 36.0993 16.7217 36.1502 16.719C36.2283 16.7149 36.308 16.7107 36.3885 16.7116L36.4029 16.7094C36.4283 16.7058 36.4431 16.7036 36.4411 16.6918C36.4656 16.6935 36.4934 16.694 36.5212 16.6945H36.5213C36.5495 16.6951 36.5777 16.6956 36.6026 16.6973C36.6938 16.6998 36.7928 16.7067 36.8916 16.7137C37.1621 16.7443 37.4217 16.7939 37.6781 16.8668C37.8722 16.9303 38.0631 16.9995 38.2468 17.0894C38.3692 17.1581 38.4909 17.2281 38.6118 17.2996C38.7046 17.3592 38.7954 17.422 38.8841 17.4877L38.8854 17.4888L38.8855 17.4888C38.9822 17.5697 39.079 17.6506 39.1704 17.7408L39.1722 17.7424L39.1722 17.7425C39.2456 17.8097 39.319 17.8771 39.3794 17.9492C39.6396 18.2376 39.8596 18.566 40.0433 18.9127C39.5988 18.8567 39.1531 18.8191 38.7081 18.8023ZM45.0206 23.5794C45.2006 23.8729 45.3729 24.1708 45.5369 24.4726C45.5843 24.5786 45.6285 24.6867 45.6696 24.7991C45.726 24.9618 45.7729 25.13 45.8149 25.2896L45.8156 25.2925C45.8418 25.4026 45.868 25.5127 45.8849 25.6282C46.0068 26.3389 46.0004 27.0663 45.8931 27.7714L45.8432 28.076C45.8257 28.1435 45.8118 28.2118 45.798 28.2802C45.7841 28.3484 45.7703 28.4167 45.7528 28.4842L45.6214 28.9736C45.5916 29.0799 45.5601 29.1858 45.5269 29.2911C45.1197 28.6932 44.6834 28.1165 44.2205 27.5601C43.8015 27.054 43.3622 26.568 42.9064 26.0953C42.9295 25.924 42.9511 25.7522 42.9715 25.5796C43.0284 25.0354 43.0697 24.4824 43.0903 23.9298C43.1028 23.498 43.0945 23.0668 43.0785 22.631C43.0692 22.3956 43.0572 22.1647 43.037 21.9355C43.2381 22.0411 43.4348 22.1568 43.626 22.2805C43.8295 22.4157 44.0286 22.565 44.2182 22.7196C44.4178 22.8915 44.6035 23.0829 44.7799 23.2797C44.8637 23.3764 44.9442 23.4765 45.0206 23.5794ZM40.7675 21.1545C40.5716 21.1119 40.375 21.0743 40.1776 21.0437C39.6502 20.9652 39.119 20.9153 38.5862 20.8942C38.531 20.8929 38.4766 20.8911 38.4226 20.8893C38.29 20.8849 38.1602 20.8806 38.0281 20.8834C37.9839 20.8992 37.9372 20.9067 37.8904 20.9055C37.6663 20.9085 37.4423 20.9116 37.2232 20.9231C36.8853 20.9379 36.5419 20.9604 36.2002 20.9922C37.7989 21.8856 39.3235 22.9134 40.7267 24.0761C40.7941 24.1321 40.8611 24.1885 40.9279 24.2451C40.9535 23.828 40.955 23.408 40.9451 22.9923C40.9317 22.6537 40.9107 22.3155 40.8824 21.9778C40.8599 21.7148 40.8166 21.4523 40.7733 21.1898L40.7729 21.1871C40.7711 21.1762 40.7693 21.1654 40.7675 21.1545ZM29.2614 20.3961C29.1492 20.3645 29.0367 20.3337 28.9241 20.3036C28.8187 20.3932 28.714 20.4835 28.6104 20.5744C28.571 20.6094 28.5316 20.6445 28.4923 20.6798C28.5125 20.6721 28.5327 20.6644 28.5529 20.6567C28.788 20.5675 29.0242 20.4805 29.2614 20.3961ZM24.6363 24.8799C24.6857 24.852 24.7351 24.8242 24.7845 24.7965C25.5327 24.3761 26.3101 23.9846 27.0881 23.6159C27.7908 23.2905 28.5035 22.9825 29.2216 22.7056C30.0107 22.3995 30.8195 22.1277 31.6339 21.8873C31.9786 21.786 32.3225 21.6929 32.6674 21.6069C33.433 21.9382 34.1836 22.3045 34.9165 22.7047C36.3562 23.4905 37.7313 24.3946 39.0169 25.4174C39.5687 25.8598 40.106 26.3235 40.6226 26.8098C40.5422 27.2561 40.4503 27.7017 40.3495 28.1422C40.1778 28.921 39.9566 29.6963 39.7122 30.4583C39.4484 31.2718 39.1614 32.0719 38.8382 32.8635C38.4706 33.7677 38.0722 34.6539 37.6296 35.5273C37.1872 36.4007 36.7215 37.2607 36.2173 38.0984C35.6881 38.997 35.1127 39.8688 34.5119 40.7135C34.2487 41.0805 33.9812 41.4417 33.7082 41.7968C33.5919 41.8626 33.4751 41.9277 33.358 41.9923C32.5672 42.4258 31.7615 42.8335 30.9455 43.2014C30.1907 43.5452 29.4255 43.8492 28.6503 44.1359C27.8616 44.4297 27.0594 44.6859 26.2464 44.9035C26.0632 44.9527 25.8798 45.0002 25.696 45.0459C24.9687 44.7301 24.255 44.3841 23.5589 44.0102C22.0084 43.1779 20.5343 42.2057 19.1709 41.0987C18.6753 40.6936 18.1952 40.2702 17.7315 39.8295C17.8159 39.3537 17.9153 38.8828 18.0263 38.4076C18.2103 37.661 18.4153 36.9138 18.651 36.1845C18.904 35.3899 19.1932 34.6036 19.5057 33.8307C19.8732 32.9267 20.2794 32.0449 20.7142 31.167C21.1489 30.2892 21.6146 29.4292 22.1188 28.5915C22.6363 27.7304 23.1845 26.888 23.7622 26.066C24.0451 25.6644 24.3365 25.2689 24.6363 24.8799ZM23.2421 23.1946C23.3715 23.0302 23.5021 22.8671 23.6335 22.7055C24.1968 22.0161 24.7853 21.3476 25.3978 20.7014C25.7053 20.3805 26.0175 20.0656 26.3373 19.7567C25.6685 19.6549 24.9943 19.5801 24.3171 19.5423C24.0641 19.5298 23.811 19.5172 23.5674 19.5099C23.5128 19.508 23.4543 19.5075 23.3959 19.5069H23.3956C23.3372 19.5064 23.2788 19.5059 23.2242 19.504C23.2149 19.5041 23.2048 19.5057 23.194 19.5074L23.194 19.5074C23.1758 19.5103 23.1556 19.5136 23.134 19.5105C22.9749 19.5074 22.8099 19.515 22.6449 19.5226L22.6448 19.5226L21.7295 19.5672C21.3448 19.5937 20.9579 19.6469 20.5709 19.7L20.5709 19.7L20.5709 19.7001L20.5677 19.7005C20.2699 19.7473 19.9721 19.794 19.6779 19.8568C19.6067 19.8738 19.5345 19.8902 19.4622 19.9066C19.3179 19.9394 19.1735 19.9722 19.0376 20.0096C18.855 20.0495 18.676 20.1053 18.4971 20.1611C17.4291 20.4852 16.3942 20.9529 15.4648 21.59L15.4632 21.5912L15.4631 21.5913C15.342 21.6778 15.2207 21.7646 15.0937 21.8619C14.9177 22.003 14.7416 22.1441 14.5751 22.2905C14.3543 22.4909 14.1431 22.6966 13.945 22.9234C13.6325 23.2691 13.3582 23.6357 13.1065 24.0286C13.0643 24.0965 13.0232 24.165 12.9832 24.2341L12.9483 24.297L12.9133 24.3609C12.8597 24.4591 12.8069 24.5578 12.755 24.6569C12.6051 24.9558 12.474 25.263 12.3612 25.5755C12.2378 25.9369 12.1358 26.3053 12.0559 26.6788C11.9857 27.0354 11.9377 27.3959 11.912 27.7585C11.8357 28.8053 11.9434 29.8548 12.1875 30.8813C12.3314 31.5078 12.525 32.1295 12.7596 32.7325C12.8856 32.54 13.0146 32.3493 13.1444 32.1601C13.4672 31.6981 13.8093 31.2479 14.1564 30.8063C14.5731 30.2899 15.0049 29.7995 15.4605 29.3067C15.9393 28.7892 16.4424 28.2919 16.9649 27.8064C17.5388 27.2799 18.1227 26.7704 18.7309 26.2815C19.3907 25.7517 20.0688 25.2453 20.7641 24.763C21.5697 24.2086 22.3963 23.6854 23.2421 23.1946ZM13.879 35.0422C14.0605 34.7121 14.2577 34.3865 14.4582 34.0665C14.7825 33.5477 15.1335 33.0461 15.5096 32.5636C15.8566 32.1219 16.2181 31.6835 16.5895 31.2624C16.9822 30.8176 17.3902 30.3867 17.8128 29.9703C18.502 29.2999 19.2221 28.662 19.9683 28.0555C19.4245 29.0005 18.9183 29.9665 18.4507 30.9514C18.0151 31.8665 17.618 32.8037 17.2519 33.7587C16.9324 34.6153 16.6414 35.4758 16.3813 36.3541C16.2253 36.8881 16.0857 37.4258 15.9602 37.966C15.2915 37.1788 14.6748 36.3392 14.1313 35.459C14.0454 35.3213 13.9612 35.1823 13.879 35.0422ZM11.4788 35.0437C11.1734 34.4395 10.9018 33.8194 10.6726 33.1803C10.6521 33.1259 10.632 33.0714 10.6122 33.0168C10.5981 33.9598 10.6548 34.9027 10.782 35.8375C10.8129 36.0639 10.8479 36.2897 10.8872 36.5147C10.9102 36.4453 10.9341 36.3755 10.9593 36.3048C11.0438 36.0611 11.1428 35.8206 11.2417 35.5799L11.2423 35.5785C11.3171 35.3993 11.3969 35.2213 11.4788 35.0437ZM15.3535 44.6875C15.1218 44.5684 14.896 44.4341 14.6782 44.2887C14.4841 44.148 14.2851 43.9987 14.1048 43.8386C13.9146 43.6612 13.7339 43.4785 13.5719 43.2849C13.3606 43.0273 13.1751 42.7497 13.018 42.4559C12.8987 42.2492 12.8125 42.0348 12.7308 41.8063C12.6744 41.6436 12.6275 41.4754 12.5855 41.3158C12.559 41.2048 12.5326 41.0937 12.5155 40.9772C12.3986 40.2751 12.415 39.5649 12.5128 38.8653L12.5628 38.5608C12.5801 38.4934 12.594 38.4253 12.6078 38.3571C12.6217 38.2886 12.6356 38.2201 12.6531 38.1524L12.7845 37.6631C12.8108 37.5694 12.8384 37.4761 12.8672 37.3831C13.2535 37.9495 13.6651 38.4975 14.1009 39.0288C14.5389 39.5642 14.9993 40.079 15.479 40.5738C15.462 40.7025 15.4459 40.8313 15.4306 40.9603C15.3683 41.5139 15.327 42.0669 15.3064 42.6195C15.2939 43.0512 15.2891 43.4874 15.3051 43.9232C15.3085 43.9823 15.3117 44.0417 15.3149 44.1013C15.3254 44.296 15.3361 44.4927 15.3535 44.6875ZM11.7658 44.4383C11.9067 44.66 12.0518 44.8789 12.2011 45.0945C12.7331 45.8655 13.301 46.5933 13.9327 47.2724C14.5064 47.899 15.1169 48.5038 15.7719 49.0494C16.3118 49.5112 16.8884 49.9513 17.473 50.3539C17.7341 50.5333 17.9993 50.7067 18.2682 50.8741C18.385 50.9621 18.5052 51.0459 18.6308 51.1237C18.8969 51.2945 19.1793 51.4455 19.4748 51.5709C20.1489 51.9302 20.8511 52.2527 21.5521 52.5388C22.4516 52.9052 23.378 53.2014 24.3232 53.4247C25.1246 53.6115 25.9342 53.7609 26.7604 53.8568C27.5772 53.9474 28.3925 53.9955 29.2063 54.001C30.6747 54.0086 32.1467 53.8512 33.5945 53.534C34.996 53.2336 36.3548 52.7845 37.6624 52.2029C38.9332 51.6431 40.1432 50.9454 41.2833 50.1262C42.3326 49.3829 43.3035 48.5338 44.1965 47.6006C44.8551 46.9155 45.4558 46.1779 46.0088 45.4142C46.4255 44.836 46.8123 44.237 47.1678 43.6195C47.2861 43.4214 47.398 43.2199 47.5029 43.0145C47.8254 42.4079 48.1163 41.7849 48.3745 41.1482C48.8225 40.0556 49.175 38.9109 49.4338 37.7568C49.6909 36.5608 49.8454 35.3451 49.8954 34.1228C49.9401 33.0007 49.8913 31.8769 49.7494 30.7629C49.6078 29.6619 49.382 28.5567 49.0639 27.4846C48.7875 26.5399 48.4365 25.5961 48.0216 24.7011C47.5861 23.7531 47.0775 22.8487 46.5138 21.9769C46.0097 21.2002 45.4513 20.4776 44.8467 19.7715C44.2421 19.0654 43.5826 18.392 42.8784 17.7777C42.2894 17.2684 41.6764 16.7874 41.0416 16.3364C40.4086 15.8863 39.7492 15.4847 39.0723 15.1152C38.3763 14.7352 37.6539 14.4036 36.914 14.1042C36.0714 13.7693 35.2088 13.4868 34.3313 13.2585C33.2374 12.9956 32.1361 12.7914 31.0106 12.6994C30.617 12.6725 30.2232 12.6456 29.8207 12.6348C29.6426 12.6211 29.4461 12.6183 29.2591 12.6208L29.2473 12.6196C29.2057 12.6158 29.1707 12.6125 29.1264 12.5692C29.0326 12.5598 28.9204 12.5612 28.8177 12.5679C28.5934 12.5708 28.3691 12.5737 28.136 12.5927C27.4521 12.6177 26.7705 12.6852 26.0951 12.7948C25.1732 12.933 24.2616 13.1334 23.3668 13.3948C22.4411 13.6625 21.5183 14.0154 20.6344 14.4104C19.4009 14.9698 18.2189 15.6616 17.1241 16.4429C16.0381 17.2081 15.0314 18.1002 14.1208 19.0656C13.5304 19.6911 12.982 20.3549 12.4793 21.0527C11.9621 21.7733 11.4832 22.5146 11.0615 23.2873C10.6573 24.0278 10.2912 24.7891 9.98164 25.5602C9.54332 26.6578 9.19831 27.7904 8.95026 28.9459C8.68366 30.1633 8.53306 31.4033 8.5005 32.6491C8.47487 33.7842 8.52476 34.9396 8.68614 36.0723C8.83793 37.1998 9.09232 38.3206 9.42959 39.4031C9.75585 40.4378 10.1568 41.4715 10.6494 42.4507C10.7033 42.5597 10.7582 42.6683 10.8139 42.7765C10.8668 42.9095 10.9237 43.0409 10.9847 43.1704C11.1986 43.6231 11.4631 44.0467 11.7658 44.4383ZM18.3158 47.7272C18.9315 47.8066 19.5538 47.8467 20.1752 47.8574C20.8242 47.8733 21.4863 47.847 22.1335 47.795C22.8666 47.7393 23.6078 47.6329 24.3392 47.5093C24.7332 47.4382 25.1257 47.3593 25.5164 47.2726C26.1178 47.5172 26.7272 47.7422 27.3431 47.9461C27.2812 47.9874 27.2191 48.0283 27.1568 48.069C26.7782 48.3146 26.3897 48.5418 25.9858 48.7601C25.6391 48.9496 25.2827 49.1206 24.918 49.2724C24.6178 49.4002 24.3076 49.5096 23.9952 49.6051C23.7353 49.6808 23.4809 49.7471 23.2109 49.8046C22.7578 49.8942 22.2924 49.9516 21.8287 49.9347C21.4221 49.9257 21.0142 49.8658 20.631 49.7449C20.4595 49.6901 20.2895 49.6237 20.1257 49.544C19.9562 49.4488 19.7882 49.351 19.6217 49.2507C19.5656 49.211 19.5103 49.17 19.455 49.1289L19.4536 49.1279C19.3564 49.0467 19.2592 48.9654 19.1675 48.8749C19.1011 48.8114 19.0424 48.7526 18.9816 48.6798C18.7216 48.3933 18.4995 48.0692 18.3158 47.7272ZM22.1582 45.6584C22.0776 45.6661 21.9969 45.6735 21.9163 45.6806C21.3022 45.7249 20.6876 45.7468 20.0769 45.7318C19.4424 45.719 18.8118 45.6696 18.1896 45.5694C17.9856 45.5365 17.7806 45.4984 17.5764 45.4549C17.5744 45.443 17.5724 45.4311 17.5704 45.4192C17.5269 45.1557 17.4888 44.8829 17.4662 44.6191C17.4322 44.2858 17.419 43.9521 17.4112 43.609C17.4016 43.2049 17.4091 42.8006 17.4338 42.3971L17.5279 42.4764C18.9636 43.6849 20.5241 44.7468 22.1582 45.6584ZM29.0524 46.2568C29.1792 46.2932 29.3064 46.3285 29.4338 46.3627C29.5067 46.2999 29.5792 46.2367 29.6513 46.1729C29.7394 46.0958 29.827 46.018 29.914 45.9395C29.7503 46.0029 29.5865 46.0648 29.4226 46.1252C29.2993 46.1697 29.1759 46.2136 29.0524 46.2568ZM35.1773 43.3979C34.9969 43.6274 34.8137 43.8545 34.6274 44.0789C34.0508 44.7746 33.4511 45.4568 32.8182 46.1073C32.5565 46.3772 32.2912 46.6425 32.021 46.9024C32.1268 46.918 32.2326 46.9328 32.3386 46.9467C33.3476 47.0929 34.3666 47.1592 35.3861 47.145L35.3865 47.145C35.8506 47.1333 36.3148 47.1216 36.7811 47.0832C37.1532 47.052 37.5241 47.0077 37.893 46.9505C38.1753 46.9093 38.4539 46.8521 38.7325 46.795L38.7329 46.7949L39.3732 46.642C39.5463 46.597 39.7099 46.5467 39.8735 46.4965C40.9318 46.1672 41.955 45.7209 42.869 45.0895L42.8718 45.0876C43.008 44.9956 43.1442 44.9036 43.2768 44.7958L43.2769 44.7957C43.453 44.6545 43.629 44.5134 43.7955 44.3671C44.0302 44.1634 44.2499 43.9428 44.4526 43.7072C44.7452 43.3754 45.0125 43.0222 45.2522 42.6505C45.5508 42.1715 45.8076 41.6558 46.0013 41.1196C46.1297 40.771 46.2236 40.4176 46.2984 40.0538C46.3744 39.6867 46.4284 39.3153 46.4599 38.9418C46.5363 37.895 46.4345 36.8346 46.2094 35.8186C46.0604 35.1704 45.8584 34.5272 45.6127 33.9047C45.4765 34.1139 45.3363 34.321 45.1913 34.5286C44.8314 35.035 44.4616 35.5241 44.0724 36.0015C43.6732 36.4842 43.2582 36.9537 42.8281 37.4091C42.3538 37.9127 41.8645 38.3905 41.3608 38.865C40.7599 39.4198 40.1379 39.9513 39.4963 40.4584C38.7989 41.0103 38.0774 41.5418 37.3357 42.0389C36.6299 42.5155 35.9093 42.9667 35.1773 43.3979ZM44.5041 31.6344C44.4262 31.5022 44.3467 31.371 44.2655 31.2409C43.7213 30.3503 43.0996 29.5087 42.4233 28.7081C42.302 29.2208 42.1683 29.7305 42.0222 30.2367C41.7644 31.1289 41.4626 32.0082 41.1322 32.8836C40.7467 33.8901 40.317 34.8839 39.8511 35.8691C39.3986 36.8063 38.9179 37.7271 38.3955 38.6238C38.576 38.4771 38.7547 38.3281 38.9316 38.177C39.4339 37.7495 39.9227 37.3064 40.3973 36.8484C40.8385 36.4213 41.2653 35.9795 41.6769 35.5238C42.0696 35.0897 42.447 34.642 42.8083 34.1814C43.1855 33.6974 43.5411 33.197 43.8741 32.6817C44.0977 32.3409 44.3078 31.9915 44.5041 31.6344ZM46.8934 31.603C47.2107 32.2326 47.4944 32.8814 47.7374 33.5408L47.7628 33.6127L47.7993 33.7172C47.8173 32.8245 47.7687 31.9173 47.655 31.0404C47.613 30.7169 47.5631 30.3936 47.5049 30.0709C47.4759 30.1596 47.4458 30.249 47.4135 30.3396C47.3287 30.5837 47.2296 30.8247 47.1304 31.0658L47.1304 31.0658C47.0556 31.2468 46.9766 31.4259 46.8934 31.603ZM29.1675 0.0119398C29.1216 0 29.1101 0 29.0641 0C29.0412 0 29.0296 0 29.0182 0.0119398H28.9149C28.8345 0.0238795 28.7426 0.0478351 28.6622 0.0717907C28.5129 0.131642 28.3867 0.215372 28.2719 0.323058C28.157 0.430744 28.0766 0.574326 28.0192 0.717983C27.9848 0.801714 27.9732 0.885444 27.9618 0.969251V1.07694V7.67028C27.9618 7.68823 27.9647 7.70617 27.9675 7.72412C27.9704 7.74207 27.9733 7.76002 27.9733 7.77796C27.9848 7.88565 28.0192 7.9814 28.0652 8.07714C28.1226 8.20878 28.2029 8.31639 28.3063 8.41222C28.3981 8.49595 28.5015 8.55572 28.6163 8.60363C28.7082 8.63953 28.8115 8.66348 28.9149 8.67542C29.0641 8.68744 29.2249 8.66348 29.3742 8.61565C29.5235 8.5558 29.6497 8.47199 29.7646 8.36431C29.8335 8.29251 29.9024 8.20878 29.9483 8.11304C30.0057 8.00535 30.0402 7.88565 30.0631 7.76602C30.0746 7.73013 30.0746 7.69423 30.0746 7.65834V0.957235C30.0631 0.885444 30.0516 0.82567 30.0287 0.753879C29.9827 0.598281 29.9024 0.46664 29.799 0.347014C29.6957 0.239328 29.5693 0.143581 29.4201 0.0837305C29.3397 0.0478351 29.2479 0.0238795 29.1675 0.0119398ZM45.3988 4.38414C45.3898 4.38243 45.3809 4.38072 45.3729 4.38304C45.3686 4.38057 45.3631 4.38002 45.3546 4.37917C45.3435 4.37806 45.3272 4.37643 45.3012 4.36927C45.2803 4.37107 45.2673 4.3705 45.2543 4.36994C45.2415 4.36938 45.2285 4.36882 45.2077 4.37057C45.1956 4.37228 45.1841 4.37378 45.1732 4.37522C45.1321 4.38063 45.0981 4.38511 45.0604 4.39604L45.0598 4.39622C44.9644 4.42392 44.8691 4.45159 44.7876 4.50107L44.787 4.50145C44.7055 4.55091 44.6241 4.60034 44.5565 4.67165C44.5363 4.69503 44.5145 4.72107 44.4928 4.74708C44.4717 4.77233 44.4506 4.79754 44.431 4.82025L44.3831 4.90314L41.1104 10.5716L41.0864 10.6131C41.0775 10.6286 41.0725 10.643 41.0675 10.6574C41.0625 10.6718 41.0575 10.6862 41.0485 10.7018C41.0025 10.8272 40.9726 10.9481 40.9724 11.0862C40.9643 11.1921 40.986 11.3151 41.0198 11.4175C41.0435 11.5141 41.0892 11.5958 41.1449 11.6831C41.2343 11.8039 41.3356 11.9039 41.459 11.9888C41.5883 12.0635 41.7294 12.1174 41.8727 12.1449C42.006 12.1666 42.1414 12.1618 42.2628 12.1351C42.3897 12.1066 42.51 12.0541 42.6172 11.9806C42.7149 11.9264 42.8045 11.8399 42.8683 11.7525C42.8962 11.7271 42.9082 11.7064 42.9261 11.6753L42.95 11.6338L46.2228 5.96525L46.2467 5.9238C46.2557 5.90827 46.2607 5.89389 46.2657 5.87949C46.2707 5.86512 46.2757 5.85074 46.2846 5.8352C46.3285 5.73619 46.3465 5.63603 46.3586 5.54629C46.3767 5.44613 46.3688 5.34491 46.355 5.25403C46.3253 5.09874 46.2538 4.94694 46.1605 4.81013C46.0611 4.68366 45.9399 4.57217 45.7947 4.50213C45.7151 4.45627 45.6196 4.4149 45.5221 4.40007C45.5042 4.39665 45.4888 4.39465 45.4734 4.39266C45.4579 4.39066 45.4425 4.38867 45.4246 4.38524C45.4166 4.38756 45.4077 4.38585 45.3988 4.38414ZM12.7739 4.37956C12.7649 4.37938 12.7549 4.37919 12.7418 4.37809C12.736 4.37837 12.7307 4.37834 12.726 4.37832C12.7094 4.37824 12.6991 4.3782 12.696 4.39072C12.688 4.38844 12.6791 4.39015 12.6702 4.39186C12.6612 4.39357 12.6523 4.39528 12.6443 4.393C12.6264 4.39643 12.6109 4.3984 12.5955 4.40038C12.5801 4.40236 12.5647 4.40434 12.5467 4.40775C12.4493 4.42266 12.3479 4.45361 12.2623 4.48913C12.117 4.55917 11.9799 4.66602 11.8805 4.79249C11.7811 4.91896 11.7096 5.07075 11.6701 5.23175C11.6555 5.32693 11.649 5.42317 11.6506 5.51945C11.6487 5.63109 11.6787 5.75185 11.7225 5.85087C11.7305 5.88757 11.7425 5.90832 11.7604 5.93928L11.7605 5.93954L11.7844 5.98099L15.0572 11.6495L15.0811 11.6909C15.09 11.7065 15.1 11.718 15.11 11.7295C15.1199 11.7411 15.1299 11.7526 15.1389 11.7681C15.215 11.8521 15.2991 11.9285 15.39 11.9963C15.4972 12.0698 15.6175 12.1223 15.7444 12.1509C15.8758 12.1717 16.0012 12.1822 16.1345 12.1605C16.2319 12.1457 16.3335 12.1148 16.419 12.0792C16.5542 12.015 16.6776 11.9299 16.7729 11.8195C16.8694 11.7063 16.9423 11.575 16.9874 11.4332C17.0211 11.3308 17.033 11.2135 17.0348 11.1019C17.0346 10.9638 17.0047 10.843 16.9587 10.7175C16.9507 10.6806 16.9387 10.6599 16.9208 10.6289L16.9208 10.6288L16.8968 10.5874L13.6241 4.91881L13.5763 4.83591C13.5523 4.79455 13.5184 4.75881 13.4846 4.72307L13.4846 4.72306C13.4168 4.65164 13.3391 4.58594 13.2575 4.53635C13.1698 4.47643 13.0842 4.44297 12.9886 4.41521C12.9408 4.40137 12.8832 4.39323 12.8413 4.38973C12.8085 4.38023 12.7935 4.37994 12.7739 4.37956ZM1.18688 16.2351C1.16509 16.2298 1.15148 16.2265 1.11831 16.228C1.09755 16.216 1.0815 16.22 1.08606 16.236C1.07595 16.2352 1.0682 16.2338 1.06157 16.2327C1.05085 16.2308 1.0431 16.2294 1.03313 16.2319C1.02165 16.2324 1.01134 16.2326 1.00178 16.2329C0.975861 16.2335 0.955408 16.2339 0.931911 16.2398C0.782321 16.2595 0.64201 16.311 0.51668 16.3846C0.43295 16.4373 0.355445 16.4993 0.285642 16.5694C0.201759 16.6668 0.122516 16.7801 0.0800801 16.9015C0.0273018 17.0168 0.00555161 17.1502 0 17.2795C0.00121679 17.3731 0.0128524 17.4726 0.0406104 17.5681C0.0729315 17.6796 0.111032 17.7812 0.181302 17.8748C0.235525 17.9724 0.321994 18.062 0.409451 18.1259C0.434705 18.1537 0.455422 18.1657 0.486384 18.1835L0.486641 18.1837L0.528088 18.2076L6.19659 21.4803L6.23804 21.5043C6.25359 21.5133 6.26798 21.5182 6.28237 21.5232C6.29677 21.5282 6.31116 21.5332 6.32671 21.5422C6.43463 21.5768 6.54564 21.601 6.65821 21.6143C6.78789 21.6243 6.9183 21.6096 7.04249 21.5709C7.16668 21.5233 7.28052 21.4697 7.38509 21.3842C7.47866 21.3176 7.55668 21.2314 7.61377 21.1317C7.67013 21.0582 7.71142 20.9627 7.73659 20.8712C7.77439 20.7339 7.78116 20.5787 7.76602 20.4373C7.74055 20.29 7.69895 20.1467 7.6194 20.0212C7.5502 19.9017 7.4638 19.812 7.36129 19.7263C7.33604 19.6985 7.31533 19.6866 7.28438 19.6687L7.2841 19.6685L7.24265 19.6446L1.57415 16.3719L1.49125 16.324C1.45009 16.3003 1.40332 16.2863 1.35657 16.2724L1.35535 16.272L1.35468 16.2718C1.30775 16.258 1.26072 16.2441 1.20805 16.2401C1.19991 16.2383 1.19307 16.2366 1.18688 16.2351ZM57.4178 16.2234C57.4074 16.2294 57.3913 16.2255 57.3752 16.2215C57.359 16.2176 57.3429 16.2136 57.3315 16.1937C57.3215 16.1945 57.3137 16.1958 57.3071 16.1969C57.2963 16.1988 57.2885 16.2002 57.2786 16.1977C57.2305 16.1954 57.1823 16.2009 57.1358 16.2138C57.0518 16.2359 56.984 16.2617 56.9056 16.2937L56.8228 16.3416L51.1542 19.6143L51.1127 19.6383C51.0971 19.6473 51.0856 19.6572 51.0741 19.6672C51.0626 19.6772 51.0511 19.6871 51.0356 19.6961C50.9331 19.7818 50.8467 19.8714 50.7775 19.9909C50.7175 20.0786 50.6748 20.196 50.6529 20.3016C50.617 20.4548 50.618 20.6001 50.6454 20.7434C50.6729 20.8866 50.7371 21.022 50.8221 21.1452C50.8811 21.2248 50.9502 21.2963 51.0279 21.3579C51.1294 21.4409 51.2457 21.5043 51.3705 21.5446C51.4947 21.5833 51.6251 21.598 51.7548 21.5879C51.8664 21.5898 51.9872 21.5598 52.0862 21.5159C52.1231 21.5079 52.1438 21.4959 52.1748 21.478L52.1749 21.478L52.2164 21.454L57.8849 18.1813L57.9263 18.1574C57.9419 18.1484 57.9534 18.1384 57.9649 18.1285C57.9764 18.1185 57.9879 18.1085 58.0035 18.0996C58.1164 18.0079 58.2178 17.8963 58.2812 17.7668C58.3354 17.6693 58.3735 17.5677 58.3897 17.4523L58.3898 17.4521C58.4014 17.3525 58.413 17.2531 58.3981 17.1557C58.3994 17.0622 58.3685 16.9607 58.3329 16.8752C58.2859 16.7698 58.2284 16.6702 58.1503 16.5827C58.0607 16.4754 57.9618 16.3999 57.8422 16.3363C57.7445 16.2868 57.626 16.249 57.519 16.2312C57.5077 16.2307 57.4975 16.2305 57.488 16.2303C57.462 16.2297 57.4414 16.2293 57.4178 16.2234ZM26.9027 51.7824C26.3002 51.7183 25.696 51.6085 25.1022 51.4722C25.278 51.4094 25.4525 51.3429 25.6255 51.2739C26.0386 51.111 26.4394 50.916 26.8325 50.7165C27.2914 50.4922 27.7302 50.2314 28.1667 49.9566C28.6667 49.6432 29.149 49.307 29.6212 48.9525C29.7414 48.8623 29.8609 48.771 29.9796 48.6785C30.6359 48.8267 31.2975 48.9498 31.9614 49.0434C33.1114 49.2097 34.2724 49.2883 35.4343 49.2785C35.8831 49.2723 36.3283 49.2502 36.7795 49.2174C37.1476 49.1965 37.5147 49.1594 37.8796 49.1062C38.1448 49.0707 38.4158 49.0247 38.6868 48.9786L38.6869 48.9786L38.687 48.9785L38.6922 48.9776C38.9116 48.9418 39.1296 48.8978 39.3457 48.8459C39.4084 48.8316 39.471 48.817 39.5336 48.802C38.6715 49.3729 37.755 49.878 36.8099 50.2959C35.6409 50.8278 34.411 51.222 33.1583 51.4992C31.8682 51.7769 30.545 51.9112 29.2173 51.9177C28.4321 51.9279 27.6638 51.8845 26.9027 51.7824ZM30.8889 14.8267C31.6722 14.9055 32.4509 15.0214 33.2161 15.1905C32.9625 15.2816 32.7116 15.3804 32.4639 15.4868C32.0399 15.6684 31.6205 15.8779 31.2165 16.0962C30.7863 16.3244 30.3738 16.5754 29.9636 16.8403C29.4898 17.1437 29.0339 17.47 28.5879 17.8146C28.5167 17.8687 28.4462 17.9232 28.3761 17.978C28.0946 17.9157 27.8122 17.8585 27.529 17.8069C26.4589 17.6135 25.3749 17.4683 24.2879 17.4192C24.1067 17.4054 23.9275 17.4009 23.7446 17.3963C23.6877 17.3949 23.6306 17.3934 23.5728 17.3917C23.4577 17.3985 23.3485 17.3947 23.2392 17.3909H23.2391C23.2271 17.3911 23.2144 17.391 23.2014 17.3908H23.2014C23.1607 17.3904 23.1164 17.3899 23.0741 17.3985C22.9667 17.3921 22.8612 17.3945 22.7523 17.3969H22.7523C22.7155 17.3978 22.6784 17.3986 22.6406 17.3992L21.7253 17.4437C21.3644 17.47 20.9977 17.5071 20.6251 17.5549C20.3313 17.5917 20.0385 17.6367 19.7472 17.6897C19.5278 17.7255 19.3098 17.7695 19.0936 17.8214C19.0103 17.8404 18.9271 17.86 18.844 17.8802C19.6887 17.31 20.584 16.8137 21.5082 16.3917C22.2352 16.0573 22.9923 15.7811 23.7509 15.5475C24.6203 15.2699 25.5109 15.0667 26.4133 14.9324C26.9997 14.8556 27.5957 14.784 28.1931 14.7549C28.2958 14.7483 28.3986 14.7469 28.5014 14.7456H28.5014C28.6042 14.7443 28.7071 14.743 28.8097 14.7363L29.1462 14.732L29.1466 14.732C29.1839 14.7315 29.2212 14.7311 29.2591 14.7518C29.427 14.739 29.5956 14.7475 29.7642 14.756L29.7644 14.756H29.7644C30.139 14.7724 30.5136 14.7889 30.8889 14.8267Z" fill="#C7C7D1"/>
</svg>
