<svg width="56" height="56" viewBox="0 0 56 56" fill="none" xmlns="http://www.w3.org/2000/svg">
  <path fill-rule="evenodd" clip-rule="evenodd"
        d="M35.1622 16.713C34.9459 16.7053 34.7211 16.7022 34.5092 16.7021C34.4669 16.7061 34.4202 16.7023 34.3647 16.6834L34.3578 16.6835C34.1059 16.6873 33.854 16.6912 33.6064 16.7026C33.0941 16.7228 32.5866 16.7707 32.088 16.834C31.5387 16.906 30.9771 16.9954 30.4288 17.1078C30.2587 17.1416 30.0883 17.1772 29.9178 17.2149C29.4977 17.0456 29.0727 16.8874 28.6434 16.7408C28.5367 16.704 28.4297 16.6679 28.3224 16.6324L28.3507 16.6136C28.6794 16.3919 29.0182 16.1858 29.3661 15.9958C29.6619 15.832 29.9714 15.6763 30.2898 15.5368C30.7465 15.3322 31.2092 15.1646 31.6918 15.0418C32.0369 14.9511 32.3929 14.8891 32.755 14.8641C32.7989 14.863 32.8436 14.8607 32.8889 14.8583C32.9583 14.8547 33.0291 14.851 33.1006 14.8518L33.1135 14.8498C33.136 14.8466 33.1491 14.8447 33.1474 14.8342C33.1692 14.8357 33.1939 14.8362 33.2187 14.8366C33.2438 14.8371 33.2689 14.8375 33.291 14.8391C33.372 14.8412 33.46 14.8474 33.5479 14.8536C33.7883 14.8808 34.019 14.9249 34.247 14.9897C34.4095 15.0429 34.5694 15.1005 34.7238 15.1738C34.8555 15.2474 34.9862 15.3227 35.1158 15.3998C35.1848 15.4451 35.2526 15.4925 35.3189 15.5416L35.32 15.5425C35.4061 15.6144 35.4921 15.6864 35.5734 15.7666L35.5751 15.7682L35.5751 15.7682C35.6403 15.828 35.7055 15.8878 35.7591 15.9518C35.9913 16.2091 36.1873 16.5021 36.351 16.8114C35.9552 16.7615 35.5584 16.7279 35.1622 16.713ZM42.6067 20.358C42.4441 20.0793 42.2747 19.8046 42.0994 19.5335C41.6513 18.8431 41.1549 18.2007 40.6175 17.5731C40.0801 16.9455 39.4939 16.3469 38.868 15.8009C38.3444 15.3482 37.7996 14.9206 37.2353 14.5197C36.6727 14.1197 36.0866 13.7627 35.4848 13.4342C34.8662 13.0965 34.2241 12.8017 33.5664 12.5355C32.8174 12.2379 32.0508 11.9868 31.2708 11.7838C30.2984 11.5502 29.3195 11.3687 28.3191 11.2869C27.9692 11.2629 27.6192 11.2391 27.2615 11.2295C27.1031 11.2173 26.9284 11.2148 26.7623 11.217L26.7518 11.216C26.7148 11.2125 26.6836 11.2097 26.6443 11.1711C26.5609 11.1627 26.4612 11.164 26.3699 11.17C26.1705 11.1725 25.9712 11.1751 25.7639 11.192C25.1561 11.2142 24.5502 11.2742 23.9498 11.3717C23.1304 11.4945 22.3202 11.6726 21.5248 11.905C20.7019 12.1429 19.8817 12.4567 19.096 12.8078C17.9996 13.305 16.9489 13.9199 15.9758 14.6144C15.0106 15.2946 14.1157 16.0875 13.3063 16.9456C12.7815 17.5016 12.2941 18.0917 11.8472 18.712C11.3875 19.3525 10.9618 20.0114 10.587 20.6983C10.2277 21.3565 9.90225 22.0331 9.62713 22.7186C9.23752 23.6942 8.93085 24.7009 8.71037 25.7281C8.4734 26.8102 8.33954 27.9124 8.31059 29.0198C8.28781 30.0287 8.33216 31.0558 8.4756 32.0626C8.61053 33.0648 8.83664 34.0611 9.13644 35.0233C9.42643 35.943 9.78281 36.8618 10.2207 37.7322C10.2694 37.8307 10.3189 37.9287 10.3692 38.0264C10.4159 38.1435 10.4661 38.2592 10.5198 38.3734C10.7097 38.7752 10.9443 39.1512 11.213 39.4989C11.3382 39.696 11.4672 39.8905 11.5999 40.0822C12.0728 40.7676 12.5776 41.4145 13.1391 42.0181C13.6491 42.5751 14.1917 43.1127 14.7739 43.5977C15.2538 44.0082 15.7663 44.3994 16.2859 44.7573C16.5243 44.921 16.7664 45.0791 17.012 45.2316C17.1102 45.3049 17.2112 45.3748 17.3164 45.44C17.5468 45.5879 17.7909 45.7191 18.0461 45.8288C18.6512 46.1523 19.282 46.4423 19.9118 46.6994C20.7112 47.0251 21.5347 47.2883 22.3749 47.4868C23.0872 47.6529 23.8068 47.7856 24.5413 47.8709C25.2673 47.9514 25.992 47.9942 26.7153 47.999C28.0205 48.0058 29.329 47.8659 30.6158 47.584C31.8616 47.3169 33.0694 46.9177 34.2316 46.4007C35.3613 45.9031 36.4367 45.283 37.4502 44.5549C38.3829 43.8941 39.2458 43.1394 40.0396 42.3099C40.625 41.7009 41.1589 41.0453 41.6505 40.3664C42.0013 39.8796 42.3284 39.3761 42.6305 38.8579C42.7697 38.6298 42.8994 38.3967 43.0186 38.1577C43.2893 37.6424 43.5345 37.114 43.7533 36.5745C44.1515 35.6033 44.4649 34.5858 44.6948 33.5599C44.9234 32.4968 45.0607 31.4161 45.1052 30.3297C45.1449 29.3323 45.1015 28.3333 44.9754 27.3432C44.8496 26.3645 44.6488 25.3821 44.366 24.4292C44.1204 23.5894 43.8084 22.7505 43.4396 21.955C43.2056 21.4454 42.9477 20.95 42.6697 20.4666C42.6491 20.4302 42.6281 20.394 42.6067 20.358ZM40.7719 20.9575C40.9329 21.2201 41.087 21.4865 41.2337 21.7566C41.2752 21.8498 41.314 21.9447 41.3501 22.0434C41.4002 22.1881 41.4419 22.3376 41.4792 22.4794L41.4798 22.482C41.5032 22.5799 41.5265 22.6778 41.5415 22.7804C41.6498 23.4122 41.6441 24.0587 41.5488 24.6854L41.5044 24.9562C41.4888 25.0162 41.4765 25.0769 41.4642 25.1377C41.4519 25.1984 41.4396 25.2591 41.4241 25.319L41.3073 25.754C41.2806 25.8492 41.2524 25.944 41.2227 26.0383C40.8607 25.5067 40.4727 24.9939 40.0612 24.4993C39.6889 24.0495 39.2985 23.6177 38.8935 23.1977C38.9143 23.0437 38.9337 22.8894 38.9521 22.7344C39.0026 22.2506 39.0394 21.759 39.0576 21.2679C39.0688 20.8841 39.0614 20.5008 39.0472 20.1134C39.0389 19.9052 39.0283 19.701 39.0106 19.4983C39.1891 19.5921 39.3638 19.6949 39.5336 19.8047C39.7144 19.9249 39.8914 20.0576 40.06 20.195C40.2374 20.3478 40.4025 20.518 40.5593 20.6929C40.6332 20.7783 40.7044 20.8666 40.7719 20.9575ZM36.9935 18.804C36.8192 18.7661 36.6441 18.7326 36.4685 18.7053C35.9997 18.6356 35.5275 18.5912 35.0539 18.5725C35.0048 18.5713 34.9564 18.5697 34.9084 18.5681C34.7906 18.5642 34.6752 18.5604 34.5578 18.5629C34.5185 18.5769 34.477 18.5835 34.4354 18.5825H34.4352C34.2361 18.5852 34.037 18.5879 33.8423 18.5982C33.5409 18.6114 33.2346 18.6315 32.9298 18.6598C34.3518 19.4543 35.7078 20.3683 36.9557 21.4024C37.0158 21.4524 37.0757 21.5027 37.1353 21.5533C37.1584 21.1808 37.1597 20.8058 37.1509 20.4346C37.1389 20.1336 37.1203 19.8329 37.0951 19.5328C37.0751 19.2991 37.0367 19.0658 36.9982 18.8325L36.9978 18.8299C36.9964 18.8213 36.9949 18.8126 36.9935 18.804ZM26.7625 18.1307C26.6623 18.1026 26.562 18.0751 26.4615 18.0482C26.3693 18.1267 26.2777 18.2058 26.187 18.2853C26.1501 18.318 26.1133 18.3509 26.0766 18.3838C26.0963 18.3763 26.116 18.3688 26.1356 18.3614C26.3436 18.2824 26.5526 18.2054 26.7625 18.1307ZM22.6508 22.1173C22.6958 22.0918 22.7409 22.0664 22.786 22.0411C23.4511 21.6674 24.142 21.3195 24.8336 20.9917C25.4582 20.7025 26.0917 20.4287 26.73 20.1826C27.4314 19.9105 28.1503 19.6689 28.8742 19.4552C29.1797 19.3655 29.4843 19.283 29.7899 19.2067C30.4712 19.5014 31.139 19.8273 31.7912 20.1834C33.0709 20.8819 34.2932 21.6856 35.4359 22.5946C35.9265 22.988 36.4041 23.4002 36.8634 23.8325C36.7921 24.2277 36.7107 24.6222 36.6215 25.0122C36.4688 25.7045 36.2722 26.3936 36.055 27.071C35.8205 27.7941 35.5654 28.5052 35.2781 29.2089C34.9513 30.0126 34.5972 30.8003 34.2038 31.5766C33.8106 32.353 33.3967 33.1174 32.9485 33.8621C32.4781 34.6608 31.9666 35.4358 31.4326 36.1866C31.1975 36.5144 30.9584 36.8372 30.7146 37.1543C30.6122 37.2121 30.5096 37.2694 30.4067 37.3261C29.7038 37.7115 28.9877 38.0739 28.2623 38.4009C27.5914 38.7065 26.9113 38.9767 26.2222 39.2315C25.5211 39.4927 24.8081 39.7204 24.0854 39.9139C23.9217 39.9579 23.7577 40.0003 23.5933 40.0412C22.9476 39.7606 22.3139 39.4534 21.6958 39.1214C20.3176 38.3816 19.0073 37.5174 17.7955 36.5335C17.355 36.1734 16.9283 35.7971 16.5162 35.4055C16.5914 34.981 16.6801 34.5609 16.7791 34.1369C16.9426 33.4733 17.1248 32.8091 17.3344 32.1608C17.5593 31.4546 17.8163 30.7556 18.094 30.0686C18.4207 29.265 18.7818 28.4812 19.1682 27.7009C19.5547 26.9206 19.9686 26.1562 20.4168 25.4116C20.8768 24.6462 21.364 23.8974 21.8776 23.1667C22.1278 22.8114 22.3856 22.4615 22.6508 22.1173ZM21.4113 20.6194C21.5277 20.4715 21.645 20.3249 21.7631 20.1797C22.2639 19.5668 22.787 18.9726 23.3314 18.3982C23.6034 18.1143 23.8795 17.8358 24.1623 17.5625C23.5688 17.4723 22.9706 17.406 22.3697 17.3724C22.1448 17.3613 21.9198 17.3501 21.7034 17.3436C21.6548 17.3419 21.6028 17.3414 21.5509 17.341C21.4989 17.3405 21.4469 17.34 21.3983 17.3383C21.39 17.3384 21.381 17.3399 21.3714 17.3414C21.3553 17.344 21.3373 17.3469 21.3182 17.3442C21.1767 17.3414 21.03 17.3481 20.8833 17.3549L20.0697 17.3945C19.7277 17.4181 19.3838 17.4654 19.0399 17.5126L19.0398 17.5126L19.037 17.513C18.7723 17.5546 18.5076 17.5962 18.2461 17.6519C18.1829 17.667 18.1189 17.6816 18.0548 17.6961L18.0544 17.6962C17.9261 17.7254 17.7978 17.7546 17.677 17.7878C17.5147 17.8232 17.3556 17.8728 17.1965 17.9225C16.2472 18.2106 15.3274 18.6263 14.5012 19.1926L14.4998 19.1936C14.3921 19.2706 14.2843 19.3477 14.1714 19.4342C14.0149 19.5596 13.8584 19.6851 13.7103 19.8152C13.5141 19.9934 13.3264 20.1762 13.1503 20.3778C12.8725 20.6851 12.6287 21.011 12.405 21.3602C12.341 21.4632 12.2799 21.5677 12.2215 21.6736C12.2002 21.7127 12.1791 21.7519 12.1582 21.7911C11.9972 22.0967 11.859 22.4128 11.7425 22.7352C11.6328 23.0564 11.5422 23.3839 11.4712 23.7159C11.4088 24.0328 11.3661 24.3534 11.3433 24.6756C11.2754 25.6061 11.3711 26.539 11.5881 27.4514C11.716 28.0082 11.8881 28.5608 12.0965 29.0967C12.2089 28.9251 12.3238 28.7551 12.4395 28.5865C12.7264 28.1758 13.0305 27.7757 13.339 27.3831C13.7094 26.9241 14.0933 26.4882 14.4982 26.0502C14.9238 25.5901 15.3709 25.1482 15.8354 24.7166C16.3455 24.2486 16.8645 23.7957 17.4052 23.3611C17.9916 22.8902 18.5944 22.44 19.2124 22.0114C19.9273 21.5194 20.6608 21.055 21.4113 20.6194ZM13.0916 31.1499C13.2531 30.856 13.4288 30.566 13.6073 30.281C13.8956 29.8199 14.2075 29.374 14.5418 28.9451C14.8503 28.5526 15.1716 28.1629 15.5017 27.7885C15.8508 27.3932 16.2134 27.0101 16.5891 26.64C17.2008 26.0449 17.8401 25.4786 18.5024 24.9401C18.0201 25.7785 17.5711 26.6355 17.1563 27.5093C16.7691 28.3226 16.4162 29.1557 16.0908 30.0046C15.8067 30.7661 15.5481 31.5309 15.3169 32.3116C15.1778 32.7877 15.0534 33.2672 14.9415 33.7489C14.3472 33.0492 13.799 32.3029 13.3159 31.5205C13.2395 31.398 13.1647 31.2745 13.0916 31.1499ZM10.9582 31.1513C10.6867 30.6143 10.4453 30.0631 10.2416 29.4949C10.2233 29.4463 10.2053 29.3976 10.1876 29.3488C10.1752 30.1863 10.2256 31.0237 10.3385 31.8538C10.3661 32.0562 10.3975 32.2579 10.4326 32.4589C10.4532 32.3967 10.4746 32.334 10.4972 32.2707C10.5723 32.054 10.6603 31.8402 10.7483 31.6263L10.7488 31.6251C10.815 31.4664 10.8857 31.3086 10.9582 31.1513ZM14.4036 39.7221C14.1975 39.6162 13.9966 39.4968 13.8029 39.3673C13.6303 39.2423 13.4534 39.1096 13.2932 38.9673C13.1241 38.8096 12.9634 38.6472 12.8195 38.4751C12.6317 38.2461 12.4668 37.9993 12.3271 37.7383C12.2211 37.5545 12.1445 37.3639 12.0718 37.1608C12.0217 37.0162 11.98 36.8666 11.9427 36.7248C11.9192 36.6261 11.8957 36.5274 11.8804 36.4238C11.7766 35.7997 11.7912 35.1685 11.8781 34.5466L11.9225 34.2759C11.9379 34.216 11.9502 34.1555 11.9625 34.0949C11.9749 34.034 11.9872 33.9732 12.0028 33.913L12.1196 33.478C12.1428 33.3954 12.1671 33.313 12.1925 33.2311C12.5358 33.7344 12.9016 34.2214 13.2889 34.6936C13.6784 35.1696 14.0877 35.6274 14.5142 36.0673C14.4993 36.1801 14.4852 36.293 14.4719 36.406C14.4165 36.898 14.3797 37.3896 14.3615 37.8808C14.3503 38.2645 14.3461 38.6523 14.3603 39.0396C14.3633 39.0922 14.3661 39.145 14.369 39.198C14.3784 39.372 14.3879 39.548 14.4036 39.7221ZM17.0381 42.424C17.201 42.7269 17.3979 43.0139 17.6282 43.2677C17.6823 43.3324 17.7345 43.3847 17.7934 43.4411C17.875 43.5216 17.9614 43.5938 18.0478 43.666L18.049 43.6668C18.1055 43.7088 18.1621 43.7508 18.2197 43.791C18.3498 43.8691 18.481 43.9454 18.6132 44.02C18.7686 44.098 18.9307 44.1621 19.0944 44.2144C19.4349 44.3219 19.7975 44.3751 20.1589 44.3831C20.5711 44.3981 20.9848 44.3471 21.3875 44.2675C21.6275 44.2164 21.8536 44.1575 22.0846 44.0901C22.3624 44.0052 22.6381 43.908 22.9049 43.7945C23.2291 43.6595 23.5459 43.5075 23.854 43.3391C24.2131 43.145 24.5584 42.9431 24.8949 42.7248C24.9486 42.6897 25.0022 42.6543 25.0557 42.6187C24.5087 42.4375 23.9675 42.2377 23.4335 42.0204C23.0872 42.0972 22.7393 42.1671 22.3902 42.2301C21.7401 42.34 21.0812 42.4346 20.4296 42.484C19.8544 42.5303 19.2658 42.5537 18.689 42.5395C18.1372 42.53 17.5848 42.4945 17.0381 42.424ZM20.4484 40.5851C20.3778 40.5919 20.3071 40.5984 20.2365 40.6046C19.6907 40.644 19.1444 40.6634 18.6016 40.6501C18.0376 40.6387 17.4771 40.5948 16.924 40.5058C16.7429 40.4766 16.561 40.4428 16.3797 40.4042C16.3777 40.3926 16.3758 40.381 16.3739 40.3694C16.3352 40.1352 16.3013 39.8927 16.2813 39.6582C16.251 39.3619 16.2393 39.0653 16.2324 38.7603C16.2239 38.4028 16.2305 38.0452 16.2521 37.6883L16.335 37.7581C17.6105 38.8317 18.9968 39.7752 20.4484 40.5851ZM26.5766 41.1178C26.6891 41.15 26.8017 41.1813 26.9146 41.2117C26.9808 41.1547 27.0467 41.0973 27.1121 41.0393C27.1887 40.9724 27.2647 40.9048 27.3403 40.8367C27.1965 40.8924 27.0526 40.9468 26.9086 40.9998C26.7981 41.0397 26.6874 41.0791 26.5766 41.1178ZM32.0201 38.5777C31.8611 38.78 31.6995 38.9802 31.5353 39.1781C31.0228 39.7964 30.4897 40.4028 29.9271 40.9811C29.6931 41.2223 29.456 41.4595 29.2143 41.6918C29.3094 41.7058 29.4045 41.7191 29.4998 41.7317C30.3967 41.8616 31.3024 41.9206 32.2086 41.9079C32.6213 41.8975 33.034 41.8871 33.4486 41.853C33.7793 41.8252 34.109 41.7859 34.437 41.735C34.6879 41.6984 34.9357 41.6475 35.1834 41.5967L35.7526 41.4608C35.9063 41.4209 36.0515 41.3762 36.1968 41.3316L36.1969 41.3316L36.197 41.3315L36.1973 41.3314C37.138 41.0387 38.0475 40.6421 38.8599 40.0808L38.8624 40.0792L38.8624 40.0791C38.9835 39.9974 39.1046 39.9155 39.2224 39.8197C39.3789 39.6943 39.5354 39.5688 39.6834 39.4387C39.8921 39.2576 40.0873 39.0616 40.2675 38.8521C40.5276 38.5572 40.7652 38.2433 40.9783 37.9128C41.2437 37.4871 41.4719 37.0286 41.6441 36.5521C41.7582 36.2422 41.8417 35.9281 41.9082 35.6047C41.9758 35.2784 42.0237 34.9483 42.0517 34.6162C42.1197 33.6857 42.0291 32.7432 41.8291 31.8401C41.6967 31.2638 41.517 30.6921 41.2986 30.1386C41.1778 30.3241 41.0535 30.5077 40.9249 30.6918C40.605 31.142 40.2763 31.5767 39.9304 32.0011C39.5755 32.4301 39.2067 32.8474 38.8244 33.2523C38.4028 33.6999 37.9678 34.1246 37.5201 34.5464C36.986 35.0395 36.4332 35.5119 35.8628 35.9627C35.243 36.4533 34.6016 36.9257 33.9424 37.3675C33.3138 37.7921 32.6721 38.1938 32.0201 38.5777ZM40.3132 28.1207C40.2441 28.0032 40.1734 27.8867 40.1012 27.7711C39.6175 26.9794 39.0649 26.2314 38.4637 25.5197C38.3562 25.9739 38.2377 26.4255 38.1083 26.874C37.8791 27.6671 37.6108 28.4486 37.3172 29.2268C36.9745 30.1214 36.5925 31.0047 36.1784 31.8805C35.7754 32.7153 35.3471 33.5355 34.8816 34.3342C35.043 34.203 35.2028 34.0699 35.3609 33.9348C35.8074 33.5548 36.2418 33.161 36.6637 32.7539C37.0559 32.3742 37.4352 31.9815 37.8011 31.5764C38.1502 31.1906 38.4856 30.7926 38.8068 30.3832C39.1421 29.953 39.4582 29.5082 39.7541 29.0501C39.9525 28.7477 40.139 28.4376 40.3132 28.1207ZM42.4371 28.093C42.7191 28.6526 42.9713 29.2293 43.1873 29.8154C43.2057 29.8673 43.224 29.9192 43.2419 29.9713C43.2581 29.1771 43.2149 28.37 43.1137 27.5898C43.0766 27.3033 43.0324 27.0169 42.9809 26.7311C42.9553 26.8094 42.9287 26.8883 42.9002 26.9683C42.8248 27.1852 42.7367 27.3995 42.6485 27.6138L42.6485 27.6138C42.5818 27.7752 42.5114 27.935 42.4371 28.093ZM26.6819 0.010613C26.6411 0 26.6309 0 26.59 0C26.5696 0 26.5593 0 26.5492 0.010613H26.4573C26.3859 0.0212261 26.3042 0.0425197 26.2328 0.0638134C26.1001 0.117014 25.9879 0.19144 25.8858 0.28716C25.7837 0.38288 25.7123 0.510507 25.6612 0.638202C25.6306 0.712628 25.6203 0.787055 25.6102 0.861549V0.957269V6.81796C25.6102 6.83392 25.6127 6.84987 25.6153 6.86582C25.6179 6.88178 25.6204 6.89773 25.6204 6.91368C25.6306 7.0094 25.6612 7.09451 25.7021 7.17962C25.7531 7.29663 25.8245 7.39228 25.9164 7.47746C25.998 7.55188 26.0899 7.60502 26.1919 7.6476C26.2736 7.67951 26.3655 7.7008 26.4573 7.71142C26.59 7.7221 26.7329 7.7008 26.8656 7.65828C26.9983 7.60508 27.1105 7.53059 27.2126 7.43487C27.2738 7.37106 27.3351 7.29663 27.3759 7.21152C27.427 7.1158 27.4576 7.0094 27.478 6.90307C27.4882 6.87116 27.4882 6.83926 27.4882 6.80735V0.850868C27.478 0.787055 27.4678 0.733922 27.4474 0.670108C27.4065 0.531801 27.3352 0.414787 27.2432 0.308454C27.1514 0.212734 27.0391 0.127627 26.9065 0.0744264C26.835 0.0425197 26.7533 0.0212261 26.6819 0.010613ZM41.1093 3.89698C41.1014 3.89546 41.0934 3.89394 41.0863 3.896C41.0825 3.8938 41.0777 3.89332 41.0701 3.89256C41.0602 3.89157 41.0457 3.89012 41.0227 3.88376C41.004 3.88536 40.9925 3.88486 40.981 3.88436C40.9695 3.88386 40.958 3.88336 40.9395 3.88491C40.9287 3.88643 40.9186 3.88777 40.9088 3.88905C40.8723 3.89386 40.8421 3.89784 40.8086 3.90756L40.808 3.90772C40.7232 3.93234 40.6385 3.95693 40.5661 4.00091L40.5656 4.00124C40.4931 4.04521 40.4208 4.08915 40.3607 4.15254C40.3427 4.17331 40.3234 4.19644 40.3041 4.21954C40.2853 4.242 40.2666 4.26443 40.2491 4.28462L40.2066 4.35831L37.2975 9.39693L37.2762 9.43377C37.2683 9.44759 37.2638 9.46039 37.2594 9.47318C37.2549 9.48597 37.2505 9.49877 37.2425 9.51259C37.2017 9.62413 37.1751 9.73154 37.1749 9.8543C37.1677 9.9484 37.187 10.0578 37.217 10.1488C37.2381 10.2347 37.2787 10.3073 37.3282 10.3849C37.4077 10.4922 37.4978 10.5811 37.6074 10.6566C37.7223 10.723 37.8478 10.7709 37.9751 10.7953C38.0936 10.8146 38.214 10.8104 38.3219 10.7867C38.4347 10.7613 38.5416 10.7147 38.6369 10.6493C38.7237 10.6011 38.8034 10.5243 38.8601 10.4465C38.8849 10.424 38.8956 10.4056 38.9115 10.3779L38.9327 10.3411L41.8418 5.30239L41.863 5.26555C41.871 5.25175 41.8755 5.23896 41.8799 5.22617C41.8844 5.21339 41.8888 5.20061 41.8968 5.1868C41.9358 5.09879 41.9518 5.00976 41.9625 4.92999C41.9786 4.84096 41.9716 4.75099 41.9593 4.67021C41.9329 4.53217 41.8694 4.39724 41.7864 4.27563C41.6981 4.16322 41.5903 4.06412 41.4612 4.00186C41.3905 3.9611 41.3056 3.92432 41.219 3.91114C41.203 3.9081 41.1893 3.90632 41.1756 3.90455C41.1619 3.90277 41.1482 3.901 41.1323 3.89796C41.1252 3.90002 41.1173 3.8985 41.1093 3.89698ZM12.1101 3.8929C12.1021 3.89275 12.0933 3.89258 12.0816 3.8916C12.0765 3.89185 12.0718 3.89182 12.0676 3.8918C12.0528 3.89174 12.0437 3.8917 12.0409 3.90283C12.0338 3.9008 12.0259 3.90232 12.0179 3.90384C12.01 3.90536 12.0021 3.90688 11.995 3.90485C11.979 3.9079 11.9653 3.90966 11.9516 3.91142C11.9379 3.91317 11.9242 3.91493 11.9082 3.91797C11.8216 3.93122 11.7315 3.95873 11.6554 3.9903C11.5263 4.05256 11.4044 4.14753 11.3161 4.25995C11.2277 4.37237 11.1642 4.50729 11.129 4.6504C11.1161 4.735 11.1102 4.82055 11.1117 4.90613C11.11 5.00536 11.1367 5.11271 11.1756 5.20073C11.1828 5.23335 11.1934 5.25179 11.2093 5.27931L11.2094 5.27955L11.2306 5.31639L14.1397 10.355L14.1609 10.3919C14.1689 10.4057 14.1778 10.4159 14.1866 10.4262C14.1955 10.4364 14.2043 10.4466 14.2123 10.4605C14.28 10.5351 14.3547 10.603 14.4355 10.6633C14.5309 10.7286 14.6378 10.7753 14.7505 10.8007C14.8673 10.8192 14.9788 10.8285 15.0973 10.8093C15.1839 10.7961 15.2741 10.7686 15.3502 10.7369C15.4704 10.6799 15.58 10.6042 15.6648 10.5062C15.7505 10.4055 15.8153 10.2888 15.8554 10.1628C15.8854 10.0717 15.8959 9.96746 15.8975 9.86823C15.8974 9.74554 15.8708 9.63812 15.8299 9.52658C15.8228 9.49381 15.8122 9.47542 15.7962 9.44779L15.7962 9.44776L15.7749 9.41092L12.8659 4.37223L12.8234 4.29855C12.802 4.26178 12.7719 4.23001 12.7419 4.19824L12.7418 4.19823C12.6816 4.13476 12.6125 4.07635 12.54 4.03228C12.4621 3.97901 12.3859 3.94927 12.301 3.92459C12.2585 3.91229 12.2073 3.90506 12.1701 3.90195C12.1409 3.8935 12.1276 3.89324 12.1101 3.8929ZM1.81084 14.4311C1.79147 14.4264 1.77938 14.4234 1.74989 14.4247C1.73143 14.4141 1.71717 14.4176 1.72123 14.4318C1.71224 14.4311 1.70535 14.4299 1.69946 14.4289C1.68993 14.4272 1.68303 14.426 1.67418 14.4282C1.66397 14.4287 1.65481 14.4289 1.64631 14.4291C1.62327 14.4296 1.60509 14.43 1.5842 14.4352C1.45124 14.4527 1.32652 14.4986 1.21512 14.5639C1.14069 14.6108 1.0718 14.6659 1.00976 14.7282C0.935197 14.8148 0.86476 14.9155 0.82704 15.0234C0.780127 15.1259 0.760794 15.2444 0.755859 15.3594C0.756941 15.4426 0.767283 15.5311 0.791957 15.616C0.820686 15.7151 0.854552 15.8054 0.917013 15.8886C0.96521 15.9753 1.04207 16.055 1.11981 16.1117C1.14225 16.1365 1.16067 16.1471 1.18818 16.163L1.18842 16.1631L1.22526 16.1844L6.26381 19.0935L6.30065 19.1148C6.31447 19.1227 6.32726 19.1272 6.34006 19.1316C6.35285 19.136 6.36564 19.1404 6.37947 19.1484C6.47539 19.1792 6.57407 19.2007 6.67413 19.2125C6.7894 19.2214 6.90531 19.2084 7.0157 19.174C7.12609 19.1317 7.22728 19.084 7.32023 19.008C7.4034 18.9488 7.47274 18.8722 7.52349 18.7836C7.57358 18.7182 7.61029 18.6333 7.63266 18.552C7.66626 18.43 7.67228 18.292 7.65882 18.1663C7.63618 18.0354 7.5992 17.908 7.5285 17.7964C7.46698 17.6902 7.39019 17.6105 7.29907 17.5344C7.27663 17.5096 7.25822 17.499 7.23072 17.4831L7.23046 17.483L7.19362 17.4617L2.15507 14.5526L2.08139 14.51C2.04479 14.489 2.00321 14.4766 1.96165 14.4642L1.96059 14.4639L1.96002 14.4637C1.9183 14.4514 1.87649 14.4391 1.82965 14.4355C1.82242 14.4339 1.81634 14.4324 1.81084 14.4311ZM51.7926 14.4207C51.7834 14.426 51.7691 14.4225 51.7548 14.419C51.7404 14.4155 51.7261 14.412 51.716 14.3942C51.707 14.3949 51.7002 14.3961 51.6943 14.3972C51.6847 14.3988 51.6778 14.4 51.6689 14.3978C51.6261 14.3958 51.5833 14.4006 51.542 14.4122C51.4674 14.4318 51.4071 14.4548 51.3374 14.4831L51.2637 14.5257L46.2251 17.4348L46.1883 17.4561C46.1744 17.4641 46.1642 17.4729 46.1539 17.4818C46.1437 17.4906 46.1335 17.4995 46.1197 17.5075C46.0286 17.5836 45.9518 17.6633 45.8903 17.7695C45.837 17.8475 45.7991 17.9518 45.7795 18.0457C45.7476 18.1819 45.7486 18.3111 45.7729 18.4384C45.7973 18.5657 45.8544 18.686 45.93 18.7955C45.9824 18.8663 46.0439 18.9299 46.1129 18.9846C46.2032 19.0584 46.3065 19.1147 46.4174 19.1506C46.5278 19.185 46.6437 19.198 46.759 19.1891C46.8583 19.1907 46.9656 19.1641 47.0536 19.125C47.0864 19.1179 47.1048 19.1073 47.1324 19.0914L47.1324 19.0914L47.1693 19.0701L52.2078 16.161L52.2447 16.1397C52.2585 16.1317 52.2687 16.1229 52.279 16.114C52.2892 16.1052 52.2994 16.0963 52.3133 16.0883C52.4136 16.0069 52.5038 15.9077 52.5601 15.7926C52.6083 15.7059 52.6421 15.6156 52.6566 15.513L52.6566 15.5128C52.667 15.4243 52.6773 15.336 52.664 15.2494C52.6652 15.1662 52.6377 15.0761 52.606 15C52.5643 14.9063 52.5132 14.8178 52.4437 14.7401C52.3641 14.6447 52.2762 14.5776 52.1699 14.5211C52.083 14.477 51.9777 14.4435 51.8826 14.4276C51.8725 14.4272 51.8635 14.427 51.8551 14.4268C51.8319 14.4263 51.8137 14.4259 51.7926 14.4207ZM24.6677 46.027C24.1316 45.9699 23.594 45.8722 23.0656 45.7509C23.2229 45.6947 23.379 45.6353 23.5338 45.5735C23.901 45.4287 24.2572 45.2554 24.6066 45.078C25.0145 44.8787 25.4046 44.6468 25.7926 44.4026C26.237 44.124 26.6657 43.8252 27.0854 43.5101C27.1907 43.4311 27.2953 43.3511 27.3993 43.2702C27.9839 43.4023 28.5731 43.512 29.1645 43.5954C30.1867 43.7432 31.2187 43.813 32.2514 43.8043C32.6504 43.7989 33.0461 43.7792 33.4471 43.75C33.7744 43.7314 34.1006 43.6985 34.425 43.6512C34.6606 43.6197 34.9013 43.5788 35.142 43.5378L35.1422 43.5378L35.1423 43.5378L35.1473 43.5369C35.3423 43.505 35.5361 43.466 35.7282 43.4198C35.7814 43.4077 35.8345 43.3953 35.8876 43.3826C35.1235 43.8881 34.3113 44.3354 33.4739 44.7057C32.4348 45.1785 31.3416 45.5288 30.2281 45.7753C29.0813 46.0221 27.9052 46.1415 26.7251 46.1473C26.0271 46.1563 25.3442 46.1178 24.6677 46.027ZM28.2109 13.1778C28.9066 13.2478 29.5981 13.3506 30.2778 13.5008C30.0534 13.5815 29.8314 13.6689 29.6122 13.763C29.2353 13.9245 28.8625 14.1107 28.5034 14.3048C28.121 14.5076 27.7544 14.7307 27.3898 14.9662C26.9686 15.2359 26.5634 15.5259 26.1669 15.8322C26.1021 15.8815 26.0378 15.9312 25.974 15.9811C25.725 15.9261 25.4751 15.8755 25.2247 15.8298C24.2735 15.6579 23.31 15.5288 22.3438 15.4852C22.1827 15.473 22.0234 15.469 21.8608 15.4649C21.8103 15.4636 21.7595 15.4623 21.7082 15.4608C21.6058 15.4669 21.5087 15.4635 21.4116 15.4601C21.4008 15.4602 21.3896 15.4601 21.378 15.46C21.3418 15.4596 21.3024 15.4592 21.2649 15.4669C21.1694 15.4611 21.0756 15.4632 20.9788 15.4654C20.9462 15.4662 20.9131 15.4669 20.8796 15.4674L20.066 15.507C19.7452 15.5304 19.4193 15.5633 19.088 15.6058C18.8269 15.6386 18.5666 15.6785 18.3077 15.7256C18.1127 15.7575 17.9189 15.7966 17.7267 15.8427C17.6503 15.8602 17.5738 15.8782 17.4975 15.8968C18.2504 15.3879 19.0486 14.9452 19.8727 14.5689C20.5189 14.2716 21.1919 14.0261 21.8662 13.8185C22.6389 13.5718 23.4306 13.3911 24.2327 13.2718C24.7539 13.2035 25.2837 13.1398 25.8147 13.114C25.906 13.1081 25.9974 13.1069 26.0888 13.1057H26.0888C26.1802 13.1045 26.2716 13.1033 26.3628 13.0974L26.6619 13.0936L26.6622 13.0936C26.6954 13.0932 26.7285 13.0928 26.7623 13.1112C26.9115 13.0998 27.0614 13.1074 27.2112 13.1149L27.2115 13.1149C27.5444 13.1295 27.8774 13.1441 28.2109 13.1778Z"
        fill="white"/>
</svg>
