<svg width="99" height="57" viewBox="0 0 99 57" fill="none" xmlns="http://www.w3.org/2000/svg">
<path fill-rule="evenodd" clip-rule="evenodd" d="M24.7872 34.1648C21.1135 34.8698 15.1716 33.6133 12.8985 26.0569C9.2828 14.0372 21.5963 5.0468 31.2707 0.942505C29.5508 3.60052 30.2283 6.15431 30.7821 7.09895C31.2055 7.62013 32.1111 8.9752 32.3456 10.226C32.5802 11.4769 32.4433 12.3759 32.3456 12.6691C31.3951 13.1085 30.4594 13.5275 29.5478 13.9356C23.0522 16.8437 17.7862 19.2013 17.1714 24.5113C17.0609 25.0418 17.0027 25.5915 17.0027 26.1548C17.0027 30.5039 20.4674 34.0437 24.7872 34.1648Z" fill="white"/>
<path fill-rule="evenodd" clip-rule="evenodd" d="M24.3888 18.1551C27.9801 17.1925 34.473 18.146 36.8736 26.1265C40.4893 38.1462 24.919 51.953 15.2445 56.0573C11.7266 55.8618 9.34869 54.0703 8.79493 53.1256C8.7746 53.1006 8.74934 53.0694 8.71952 53.0325C8.12809 52.3011 5.74332 49.3522 4.49519 48.7282C2.9978 47.9795 2.24611 47.9765 1.14143 47.9721C0.804256 47.9707 0.434192 47.9692 -7.13359e-07 47.9464C4.89073 45.5174 9.10488 43.4824 12.7229 41.7352C26.8491 34.9136 31.8869 32.4808 32.6235 28.1264C32.7831 27.4957 32.8678 26.8352 32.8678 26.1549C32.8678 21.7294 29.2802 18.1418 24.8547 18.1418C24.6983 18.1418 24.543 18.1463 24.3888 18.1551Z" fill="white"/>
<ellipse cx="25.0169" cy="26.1541" rx="6.64506" ry="6.64505" fill="white"/>
<path d="M47.1362 21.1591H44.3281V28.9456H42.8709V21.1591H40.0565V19.9396H47.1362V21.1591ZM52.2758 25.5683L51.0374 22.2786C50.9374 22.0243 50.8352 21.7011 50.731 21.3092C50.6851 21.5052 50.6351 21.6866 50.5809 21.8533C50.5267 22.0159 50.4766 22.1598 50.4308 22.2849L49.1924 25.5683H52.2758ZM55.0464 28.9456H53.9143C53.7851 28.9456 53.6809 28.9143 53.6016 28.8517C53.5224 28.785 53.462 28.7037 53.4203 28.6078L52.6698 26.619H48.7922L48.0417 28.6078C48.0083 28.6912 47.95 28.7684 47.8666 28.8392C47.7832 28.9101 47.6789 28.9456 47.5539 28.9456H46.4219L49.993 19.9396H51.4752L55.0464 28.9456ZM61.3008 27.7197V28.9456H56.0973V19.9396H57.5608V27.7197H61.3008ZM72.669 24.5114V28.0762C71.7726 28.7225 70.7302 29.0456 69.542 29.0456C68.8123 29.0456 68.1514 28.933 67.5594 28.7079C66.9715 28.4786 66.4691 28.1617 66.0521 27.7573C65.6352 27.3487 65.3141 26.8629 65.089 26.3C64.8638 25.7372 64.7513 25.118 64.7513 24.4426C64.7513 23.7629 64.8597 23.1417 65.0765 22.5788C65.2933 22.0118 65.6039 21.526 66.0083 21.1216C66.4128 20.713 66.9006 20.3982 67.4718 20.1772C68.043 19.9521 68.6851 19.8395 69.3981 19.8395C69.7608 19.8395 70.0965 19.8687 70.405 19.927C70.7177 19.9812 71.0075 20.0584 71.2744 20.1584C71.5412 20.2585 71.7872 20.3794 72.0123 20.5212C72.2375 20.663 72.4439 20.8214 72.6315 20.9965L72.2125 21.6657C72.1458 21.7699 72.0603 21.8346 71.9561 21.8596C71.8518 21.8846 71.7392 21.8596 71.6183 21.7845C71.4974 21.7137 71.3682 21.6386 71.2306 21.5594C71.0972 21.4802 70.9429 21.4072 70.7678 21.3405C70.5927 21.2696 70.3904 21.2133 70.1611 21.1716C69.9318 21.1258 69.6608 21.1028 69.3481 21.1028C68.8728 21.1028 68.4433 21.182 68.0597 21.3405C67.6803 21.4948 67.3551 21.7178 67.0841 22.0097C66.813 22.2974 66.6046 22.6476 66.4586 23.0604C66.3127 23.4732 66.2397 23.9339 66.2397 24.4426C66.2397 24.9804 66.3169 25.462 66.4712 25.8873C66.6254 26.3084 66.8443 26.667 67.1278 26.963C67.4114 27.2548 67.7533 27.4779 68.1535 27.6322C68.558 27.7865 69.0083 27.8636 69.5044 27.8636C69.8755 27.8636 70.2049 27.824 70.4926 27.7448C70.7844 27.6655 71.0701 27.555 71.3494 27.4133V25.6246H70.0923C69.9964 25.6246 69.9214 25.5996 69.8672 25.5495C69.813 25.4953 69.7859 25.4265 69.7859 25.3432V24.5114H72.669ZM75.3174 23.7483C75.5175 23.3439 75.7593 23.027 76.0429 22.7977C76.3264 22.5642 76.6662 22.4475 77.0623 22.4475C77.1999 22.4475 77.3291 22.4642 77.4501 22.4975C77.571 22.5267 77.6794 22.5726 77.7753 22.6351L77.6815 23.6483C77.6648 23.7192 77.6377 23.7692 77.6002 23.7984C77.5668 23.8234 77.5209 23.8359 77.4626 23.8359C77.4 23.8359 77.3104 23.8255 77.1936 23.8046C77.0769 23.7796 76.9539 23.7671 76.8246 23.7671C76.637 23.7671 76.4702 23.7942 76.3243 23.8484C76.1825 23.9026 76.0533 23.9818 75.9365 24.0861C75.824 24.1903 75.7239 24.3175 75.6363 24.4676C75.5488 24.6177 75.4675 24.7886 75.3924 24.9804V28.9456H74.0478V22.5663H74.8296C74.9713 22.5663 75.0693 22.5934 75.1235 22.6476C75.1777 22.6976 75.2152 22.7873 75.2361 22.9165L75.3174 23.7483ZM81.2033 22.4662C81.6745 22.4662 82.0998 22.5434 82.4792 22.6976C82.8628 22.8519 83.188 23.0708 83.4548 23.3543C83.7259 23.6379 83.9343 23.9818 84.0803 24.3863C84.2262 24.7907 84.2992 25.2452 84.2992 25.7497C84.2992 26.2542 84.2262 26.7086 84.0803 27.1131C83.9343 27.5175 83.7259 27.8636 83.4548 28.1513C83.188 28.4348 82.8628 28.6537 82.4792 28.808C82.0998 28.9622 81.6745 29.0394 81.2033 29.0394C80.728 29.0394 80.2986 28.9622 79.915 28.808C79.5356 28.6537 79.2103 28.4348 78.9393 28.1513C78.6683 27.8636 78.4598 27.5175 78.3139 27.1131C78.168 26.7086 78.095 26.2542 78.095 25.7497C78.095 25.2452 78.168 24.7907 78.3139 24.3863C78.4598 23.9818 78.6683 23.6379 78.9393 23.3543C79.2103 23.0708 79.5356 22.8519 79.915 22.6976C80.2986 22.5434 80.728 22.4662 81.2033 22.4662ZM81.2033 27.9887C81.7787 27.9887 82.2061 27.7969 82.4854 27.4133C82.769 27.0255 82.9107 26.4731 82.9107 25.7559C82.9107 25.0388 82.769 24.4863 82.4854 24.0986C82.2061 23.7066 81.7787 23.5107 81.2033 23.5107C80.6196 23.5107 80.186 23.7066 79.9025 24.0986C79.6189 24.4863 79.4772 25.0388 79.4772 25.7559C79.4772 26.4731 79.6189 27.0255 79.9025 27.4133C80.186 27.7969 80.6196 27.9887 81.2033 27.9887ZM90.9697 22.5663V28.9456H90.1567C89.9774 28.9456 89.8627 28.8601 89.8127 28.6891L89.7126 28.095C89.5792 28.2368 89.4374 28.366 89.2873 28.4827C89.1414 28.5995 88.9851 28.6996 88.8183 28.7829C88.6515 28.8663 88.4722 28.931 88.2804 28.9768C88.0928 29.0227 87.8906 29.0456 87.6738 29.0456C87.3235 29.0456 87.015 28.9873 86.7481 28.8705C86.4813 28.7538 86.2562 28.5891 86.0727 28.3764C85.8934 28.1638 85.7579 27.9094 85.6662 27.6134C85.5744 27.3132 85.5286 26.9838 85.5286 26.6253V22.5663H86.8732V26.6253C86.8732 27.0547 86.9712 27.3883 87.1672 27.6259C87.3673 27.8636 87.6696 27.9824 88.074 27.9824C88.3701 27.9824 88.6452 27.9157 88.8996 27.7823C89.1581 27.6447 89.3999 27.4571 89.6251 27.2194V22.5663H90.9697ZM93.9473 27.3445C94.1349 27.5863 94.3392 27.7573 94.5602 27.8573C94.7853 27.9532 95.0334 28.0012 95.3044 28.0012C95.8298 28.0012 96.2384 27.8094 96.5303 27.4258C96.8263 27.0422 96.9743 26.471 96.9743 25.7122C96.9743 25.3202 96.9409 24.9867 96.8742 24.7115C96.8075 24.4321 96.7116 24.2049 96.5865 24.0298C96.4615 23.8547 96.3093 23.7275 96.13 23.6483C95.9507 23.5691 95.7485 23.5294 95.5233 23.5294C95.1814 23.5294 94.8854 23.6045 94.6352 23.7546C94.3892 23.9005 94.1599 24.1111 93.9473 24.3863V27.3445ZM93.8785 23.4919C94.1453 23.1792 94.4476 22.927 94.7853 22.7352C95.1272 22.5434 95.5233 22.4475 95.9736 22.4475C96.3322 22.4475 96.6574 22.5204 96.9493 22.6664C97.2411 22.8081 97.4913 23.0166 97.6998 23.2918C97.9083 23.567 98.0688 23.9089 98.1814 24.3175C98.2981 24.7219 98.3565 25.1868 98.3565 25.7122C98.3565 26.1833 98.2918 26.6232 98.1626 27.0318C98.0375 27.4362 97.8561 27.7885 97.6185 28.0887C97.3808 28.3848 97.0931 28.6183 96.7554 28.7892C96.4177 28.956 96.0362 29.0394 95.6109 29.0394C95.2356 29.0394 94.9167 28.9789 94.654 28.858C94.3955 28.7371 94.1599 28.5703 93.9473 28.3577V31.0657H92.6026V22.5663H93.4157C93.5991 22.5663 93.7159 22.6518 93.7659 22.8227L93.8785 23.4919Z" fill="white"/>
</svg>
