<svg width="944" height="577" viewBox="0 0 944 577" fill="none" xmlns="http://www.w3.org/2000/svg">
<mask id="mask0_13_589" style="mask-type:alpha" maskUnits="userSpaceOnUse" x="0" y="0" width="944" height="573">
<rect width="944" height="573" fill="url(#paint0_linear_13_589)"/>
</mask>
<g mask="url(#mask0_13_589)">
<g filter="url(#filter0_f_13_589)">
<path d="M101.353 139.755C100.429 134.12 104.778 129 110.488 129H833.518C839.228 129 843.577 134.12 842.653 139.755L772.881 565.241C772.147 569.716 768.28 573 763.746 573H180.26C175.726 573 171.859 569.716 171.125 565.241L101.353 139.755Z" fill="url(#paint1_linear_13_589)"/>
</g>
</g>
<g filter="url(#filter1_b_13_589)">
<rect x="92" y="95" width="760" height="482" rx="18" fill="white" fill-opacity="0.1"/>
<rect x="92.5" y="95.5" width="759" height="481" rx="17.5" stroke="white" stroke-opacity="0.1"/>
<rect x="92.5" y="95.5" width="759" height="481" rx="17.5" stroke="url(#paint2_radial_13_589)"/>
</g>
<rect x="106" y="109" width="732" height="454" rx="10" fill="#0F0F10"/>
<defs>
<filter id="filter0_f_13_589" x="-19.1071" y="8.66373" width="982.22" height="684.673" filterUnits="userSpaceOnUse" color-interpolation-filters="sRGB">
<feFlood flood-opacity="0" result="BackgroundImageFix"/>
<feBlend mode="normal" in="SourceGraphic" in2="BackgroundImageFix" result="shape"/>
<feGaussianBlur stdDeviation="60.1681" result="effect1_foregroundBlur_13_589"/>
</filter>
<filter id="filter1_b_13_589" x="76" y="79" width="792" height="514" filterUnits="userSpaceOnUse" color-interpolation-filters="sRGB">
<feFlood flood-opacity="0" result="BackgroundImageFix"/>
<feGaussianBlur in="BackgroundImageFix" stdDeviation="8"/>
<feComposite in2="SourceAlpha" operator="in" result="effect1_backgroundBlur_13_589"/>
<feBlend mode="normal" in="SourceGraphic" in2="effect1_backgroundBlur_13_589" result="shape"/>
</filter>
<linearGradient id="paint0_linear_13_589" x1="-3.75292e-07" y1="317.742" x2="944" y2="317.742" gradientUnits="userSpaceOnUse">
<stop offset="0.0439183" stop-color="#D9D9D9" stop-opacity="0.2"/>
<stop offset="0.362025" stop-color="#D9D9D9"/>
<stop offset="0.641513" stop-color="#D9D9D9"/>
<stop offset="0.954541" stop-color="#D9D9D9" stop-opacity="0.2"/>
</linearGradient>
<linearGradient id="paint1_linear_13_589" x1="469.597" y1="149.589" x2="469.597" y2="653.782" gradientUnits="userSpaceOnUse">
<stop stop-color="#F44E36"/>
<stop offset="1" stop-color="#F44E36" stop-opacity="0.6"/>
</linearGradient>
<radialGradient id="paint2_radial_13_589" cx="0" cy="0" r="1" gradientUnits="userSpaceOnUse" gradientTransform="translate(472 -38) rotate(90) scale(246.5 388.672)">
<stop stop-color="#FFA699"/>
<stop offset="1" stop-color="#FFA699" stop-opacity="0"/>
</radialGradient>
</defs>
</svg>
