<svg width="20" height="20" viewBox="0 0 20 20" xmlns="http://www.w3.org/2000/svg">
<path fill-rule="evenodd" clip-rule="evenodd" d="M4 4C4 3.44772 4.44772 3 5 3H16C16.5523 3 17 3.44772 17 4V7.9C17 8.45228 16.5523 8.9 16 8.9H5C4.44772 8.9 4 8.45228 4 7.9V4ZM4 11.0977C4 10.5454 4.44772 10.0977 5 10.0977H8.9C9.45228 10.0977 9.9 10.5454 9.9 11.0977V15C9.9 15.5523 9.45228 16 8.9 16H5C4.44772 16 4 15.5523 4 15V11.0977ZM12.0996 10.0977C11.5473 10.0977 11.0996 10.5454 11.0996 11.0977V14.9016C11.0996 15.4539 11.5473 15.9016 12.0996 15.9016H15.9996C16.5519 15.9016 16.9996 15.4539 16.9996 14.9016V11.0977C16.9996 10.5454 16.5519 10.0977 15.9996 10.0977H12.0996Z"/>
<defs>
<linearGradient id="paint0_linear_4215_51976" x1="6.85417" y1="10.6436" x2="6.85417" y2="16.1755" gradientUnits="userSpaceOnUse">
<stop stop-color="#D6D6EC"/>
<stop offset="1" stop-color="#C4C4D6"/>
</linearGradient>
</defs>
</svg>
