<svg width="20" height="20" viewBox="0 0 20 20" xmlns="http://www.w3.org/2000/svg">
<path fill-rule="evenodd" clip-rule="evenodd" d="M4.5 3.5C3.94772 3.5 3.5 3.94772 3.5 4.5V15.5C3.5 16.0523 3.94772 16.5 4.5 16.5H15.5C16.0523 16.5 16.5 16.0523 16.5 15.5V4.5C16.5 3.94772 16.0523 3.5 15.5 3.5H4.5ZM7 8C7.55228 8 8 7.55228 8 7C8 6.44772 7.55228 6 7 6C6.44772 6 6 6.44772 6 7C6 7.55228 6.44772 8 7 8ZM9 7.0001C9 7.33147 9.26863 7.6001 9.6 7.6001H13.4C13.7314 7.6001 14 7.33147 14 7.0001C14 6.66873 13.7314 6.4001 13.4 6.4001L9.6 6.4001C9.26863 6.4001 9 6.66873 9 7.0001ZM9 13.0001C9 13.3315 9.26863 13.6001 9.6 13.6001H13.4C13.7314 13.6001 14 13.3315 14 13.0001C14 12.6687 13.7314 12.4001 13.4 12.4001H9.6C9.26863 12.4001 9 12.6687 9 13.0001ZM6.6 10.6001C6.26863 10.6001 6 10.3315 6 10.0001C6 9.66873 6.26863 9.4001 6.6 9.4001L13.4 9.4001C13.7314 9.4001 14 9.66873 14 10.0001C14 10.3315 13.7314 10.6001 13.4 10.6001L6.6 10.6001ZM8 13C8 13.5523 7.55228 14 7 14C6.44772 14 6 13.5523 6 13C6 12.4477 6.44772 12 7 12C7.55228 12 8 12.4477 8 13Z"/>
</svg>
