<svg width="20" height="20" viewBox="0 0 20 20" xmlns="http://www.w3.org/2000/svg">
<path d="M16.5625 5.24138H9.81012L8.62494 3.21741C8.58606 3.15111 8.5311 3.09624 8.4654 3.05814C8.3997 3.02004 8.32549 3.00001 8.25 3H3.4375C3.32147 3 3.21019 3.04723 3.12814 3.1313C3.04609 3.21536 3 3.32939 3 3.44828V14.2069C3 14.6825 3.18437 15.1385 3.51256 15.4748C3.84075 15.8111 4.28587 16 4.75 16H15.25C15.7141 16 16.1592 15.8111 16.4874 15.4748C16.8156 15.1385 17 14.6825 17 14.2069V5.68966C17 5.57077 16.9539 5.45674 16.8719 5.37268C16.7898 5.28861 16.6785 5.24138 16.5625 5.24138ZM14.8125 11.9655L13.0625 10.6207L11.3125 11.9655V6.58621H14.8125V11.9655Z"/>
</svg>
