<svg width="20" height="20" viewBox="0 0 20 20" xmlns="http://www.w3.org/2000/svg">
<path d="M10 3C8.61553 3 7.26215 3.41054 6.11101 4.17971C4.95987 4.94888 4.06266 6.04213 3.53285 7.32122C3.00303 8.6003 2.86441 10.0078 3.13451 11.3656C3.4046 12.7235 4.07129 13.9708 5.05026 14.9497C6.02922 15.9287 7.2765 16.5954 8.63437 16.8655C9.99224 17.1356 11.3997 16.997 12.6788 16.4672C13.9579 15.9373 15.0511 15.0401 15.8203 13.889C16.5895 12.7378 17 11.3845 17 10C16.998 8.1441 16.2599 6.36479 14.9475 5.05247C13.6352 3.74015 11.8559 3.00201 10 3ZM9.41667 5.33333H10.5833V10H9.41667V5.33333ZM10 14.0833C9.21173 14.0833 8.44032 13.8551 7.77888 13.4263C7.11744 12.9975 6.59426 12.3864 6.27248 11.6668C5.95071 10.9472 5.84409 10.1499 5.96552 9.37102C6.08694 8.59216 6.4312 7.86509 6.95675 7.27758L7.34584 6.843L8.215 7.62117L7.82592 8.05575C7.45033 8.47534 7.20425 8.99469 7.11737 9.55109C7.0305 10.1075 7.10656 10.6771 7.33636 11.1912C7.56616 11.7054 7.93988 12.142 8.41239 12.4483C8.8849 12.7547 9.43599 12.9177 9.99913 12.9177C10.5623 12.9177 11.1134 12.7547 11.5859 12.4483C12.0584 12.142 12.4321 11.7054 12.6619 11.1912C12.8917 10.6771 12.9678 10.1075 12.8809 9.55109C12.794 8.99469 12.5479 8.47534 12.1723 8.05575L11.7833 7.62175L12.6518 6.843L13.0409 7.27758C13.5663 7.86494 13.9106 8.5918 14.0321 9.37044C14.1536 10.1491 14.0472 10.9463 13.7257 11.6658C13.4042 12.3853 12.8813 12.9964 12.2203 13.4254C11.5592 13.8544 10.7881 14.0829 10 14.0833Z"/>
</svg>
