<svg width="20" height="20" viewBox="0 0 20 20" xmlns="http://www.w3.org/2000/svg">
<path fill-rule="evenodd" clip-rule="evenodd" d="M10 17C13.866 17 17 13.866 17 10C17 6.13401 13.866 3 10 3C6.13401 3 3 6.13401 3 10C3 13.866 6.13401 17 10 17ZM11.4134 8.06927L13.5714 8.39813L13.5724 8.39866C13.6646 8.41278 13.7512 8.45363 13.8225 8.51659C13.8937 8.57956 13.9467 8.66214 13.9755 8.755C14.0043 8.84786 14.0078 8.94731 13.9855 9.04211C13.9632 9.13692 13.916 9.22331 13.8493 9.29152L12.2872 10.8851L12.6556 13.1368C12.6713 13.2331 12.6611 13.3321 12.6259 13.4226C12.5908 13.5132 12.5321 13.5915 12.4567 13.649C12.3812 13.7064 12.2919 13.7406 12.1989 13.7476C12.1059 13.7546 12.0128 13.7343 11.9302 13.6888L10.0002 12.6263L8.06907 13.6898C7.98652 13.7353 7.89346 13.7557 7.80044 13.7486C7.70741 13.7416 7.61811 13.7074 7.54265 13.65C7.46719 13.5926 7.40856 13.5142 7.37341 13.4237C7.33826 13.3332 7.32798 13.2342 7.34373 13.1379L7.71215 10.8861L6.15098 9.29152C6.08413 9.22326 6.03685 9.13675 6.01452 9.04179C5.99218 8.94683 5.99568 8.84722 6.0246 8.75423C6.05353 8.66125 6.10674 8.57861 6.1782 8.51567C6.24966 8.45273 6.33651 8.41202 6.42892 8.39813L8.58696 8.06979L9.55025 6.02119C9.59603 5.93869 9.66167 5.87022 9.74063 5.82264C9.81958 5.77505 9.90907 5.75 10.0002 5.75C10.0912 5.75 10.1807 5.77505 10.2597 5.82264C10.3386 5.87022 10.4043 5.93869 10.4501 6.02119L11.4134 8.06927Z" />
</svg>
