<svg width="16" height="16" viewBox="0 0 16 16" fill="none" xmlns="http://www.w3.org/2000/svg">
<path d="M5.24226 14.0909L5.24213 14.0908L0.908858 9.75751L5.24226 14.0909ZM5.24226 14.0909C5.35535 14.2036 5.50807 14.2664 5.66651 14.2664C5.68135 14.2664 5.69601 14.2656 5.70727 14.2649L5.70755 14.2649L5.70897 14.2648C5.88244 14.2524 6.04206 14.1657 6.14651 14.0264L15.1468 2.02645C15.3457 1.76151 15.2916 1.38519 15.0269 1.18644L15.0267 1.18629C14.7614 0.988126 14.3854 1.04105 14.1865 1.30641C14.1865 1.30641 14.1865 1.30642 14.1865 1.30643L5.60136 12.7532M5.24226 14.0909L5.60136 12.7532M5.60136 12.7532L1.75722 8.90903C1.52285 8.67466 1.14325 8.67464 0.908858 8.90897C0.674411 9.14302 0.674391 9.52338 0.908797 9.75745L5.60136 12.7532Z" fill="white" stroke="white" stroke-width="0.2"/>
</svg>
