<svg width="51" height="51" viewBox="0 0 51 51" fill="none" xmlns="http://www.w3.org/2000/svg">
<path fill-rule="evenodd" clip-rule="evenodd" d="M11.365 4.02585C15.266 1.47929 19.9207 0 24.9177 0H50.1V25.6908C50.1 39.1688 39.2321 50.1 25.8196 50.1H24.9177C11.1532 50.1 0 38.8819 0 25.05C0 20.5703 1.17018 16.3636 3.22048 12.7238C2.16421 11.6484 1.51172 10.1727 1.51172 8.54538C1.51172 5.25206 4.18148 2.58229 7.4748 2.58229C8.96107 2.58229 10.3211 3.12663 11.365 4.02585ZM11.4683 5.23385C11.2777 5.2965 11.0596 5.25225 10.9078 5.10094C10.0276 4.22366 8.81496 3.68229 7.4748 3.68229C4.789 3.68229 2.61172 5.85957 2.61172 8.54538C2.61172 9.97124 3.22466 11.2532 4.20313 12.1435C4.28733 12.2201 4.34228 12.3168 4.36732 12.4197C4.4531 12.5821 4.45563 12.7838 4.3563 12.9541C2.28673 16.5034 1.1 20.6365 1.1 25.05C1.1 38.28 11.7664 49 24.9177 49H25.8196C38.619 49 49 38.5669 49 25.6908V1.1H24.9177C20.0081 1.1 15.4468 2.59315 11.6564 5.15268C11.5975 5.19246 11.5337 5.2193 11.4683 5.23385ZM12.049 8.14286C12.0489 10.9812 9.74786 13.282 6.90952 13.2819C6.11611 13.2819 5.07544 13.1607 4.48895 12.5741C4.39974 12.4849 4.3758 12.3485 4.43008 12.2346C6.35643 8.19357 9.3555 6.00853 10.8898 5.27873C11.0177 5.21791 11.1686 5.26172 11.2447 5.38106C11.754 6.17873 12.049 7.12634 12.049 8.14286ZM25.9077 22.4662V17.2084C25.6558 16.7322 24.4231 15.7749 21.5081 15.7553C17.8644 15.7306 11.4641 18.3157 11.4641 25.283V25.5103C11.4641 32.4777 17.8644 35.0627 21.5081 35.0381C24.4231 35.0184 25.6558 34.0611 25.9077 33.585V28.3271C25.9077 28.2202 25.7258 28.1668 25.6569 28.2485C25.1898 28.803 24.1685 29.5731 22.6442 29.5731C20.5044 29.5731 18.2645 27.6194 18.2645 25.3967C18.2645 23.174 20.5044 21.2202 22.6442 21.2202C24.1685 21.2202 25.1898 21.9904 25.6569 22.5448C25.7258 22.6266 25.9077 22.5732 25.9077 22.4662ZM3.99727 16.8895C3.99727 16.6685 4.17635 16.4895 4.39727 16.4895H10.2633C10.4842 16.4895 10.6633 16.6685 10.6633 16.8895V34.1324C10.6633 34.3533 10.4842 34.5324 10.2633 34.5324H4.39727C4.17635 34.5324 3.99727 34.3533 3.99727 34.1324V16.8895ZM26.9133 6.53047C26.9133 6.3957 26.9797 6.27656 27.0812 6.2043C27.1477 6.15742 27.2277 6.13008 27.3137 6.13008H33.1789C33.3996 6.13008 33.5793 6.30977 33.5793 6.53047V17.9523C35.1477 16.5793 37.1535 15.7551 39.3391 15.7551C44.3605 15.7551 48.4309 20.1027 48.4309 25.4641C48.4309 30.8273 44.3605 35.175 39.3391 35.175C37.1535 35.175 35.1477 34.3508 33.5793 32.9777V34.132C33.5793 34.3527 33.3996 34.5324 33.1789 34.5324H27.3137C27.093 34.5324 26.9133 34.3527 26.9133 34.132V6.53047ZM33.5793 24.8566V26.1418C33.8859 27.9855 35.4875 29.3918 37.4172 29.3918C39.5676 29.3918 41.3098 27.6496 41.3098 25.4992C41.3098 23.3508 39.5676 21.6086 37.4172 21.6086C35.4875 21.6086 33.8859 23.0129 33.5793 24.8566Z" fill="#AFAFB6"/>
</svg>
