<svg width="79" height="51" viewBox="0 0 79 51" fill="none" xmlns="http://www.w3.org/2000/svg">
<g clip-path="url(#clip0_2046_23420)">
<path d="M34.1584 44.6869V49.0844H34.9934L35.0115 45.4501H35.792C36.0499 45.4501 36.2101 45.614 36.2095 45.9044V49.0844H37.0626V45.4501H37.8613C38.1188 45.4501 38.2611 45.6323 38.2607 45.9225V49.0844L39.0956 49.1026L39.1138 45.9225C39.1341 44.9865 38.6615 44.6879 37.9883 44.6868L34.1584 44.6869ZM68.0294 44.7414V45.6136H68.8826V44.7414H68.0294ZM23.6849 44.8504L23.6668 47.9214C23.6662 48.2422 23.6828 48.3573 23.7394 48.5211C23.7833 48.6404 23.851 48.748 23.939 48.83C24.1019 48.9935 24.3313 49.0655 24.6833 49.0662H25.4275V48.3757H24.9555C24.7792 48.3757 24.6615 48.3319 24.5925 48.2303C24.5355 48.1483 24.5195 48.054 24.5199 47.7397V44.8504H23.6849ZM61.9849 44.9231V45.9225H61.4404V46.613H61.9849V47.9396C61.9849 48.2758 62.0015 48.4032 62.0575 48.5756C62.1627 48.8775 62.3717 49.1375 62.9833 49.1389H63.6004V48.4484H63.2737C63.0973 48.4484 62.961 48.4095 62.8925 48.303C62.8355 48.2174 62.8192 48.1059 62.8199 47.776V46.613H63.6004V45.9225H62.8199V44.9231H61.9849ZM41.3465 45.8317C40.3719 45.8299 39.7331 46.4903 39.731 47.4671C39.7292 48.5368 40.3098 49.1367 41.3283 49.1389C42.3339 49.1413 42.9598 48.5298 42.962 47.5398C42.9643 46.4705 42.3716 45.8338 41.3465 45.8317ZM27.2608 45.8498C26.839 45.8498 26.5624 45.9283 26.335 46.086C25.9642 46.3431 25.7367 46.8633 25.736 47.4307C25.735 48.0186 25.9279 48.4838 26.2987 48.7755C26.5751 49.0009 26.8309 49.0648 27.3152 49.0662H28.5858V48.3939H27.2608C26.8015 48.3939 26.6591 48.197 26.5892 47.7942L28.5132 47.8123V47.1218H26.5892C26.661 46.7201 26.8198 46.5396 27.2789 46.5403H28.5858V45.8679L27.2608 45.8498ZM30.2921 45.8679C29.6949 45.8666 29.2044 46.1976 29.203 46.7947C29.2019 47.5756 29.7387 47.7934 30.2739 47.7941C30.3735 47.7941 30.8475 47.8121 30.9456 47.8123C31.1674 47.8123 31.3453 47.876 31.3449 48.1031C31.3444 48.3255 31.16 48.3944 30.9456 48.3938C30.84 48.3938 29.2938 48.3938 29.2938 48.3938V49.0661C29.2938 49.0661 30.8278 49.0839 31.0726 49.0843C31.706 49.0856 32.1603 48.7967 32.1617 48.0667C32.1628 47.4163 31.6779 47.1414 31.0908 47.1399C30.9954 47.1399 30.5356 47.1399 30.4555 47.1399C30.3758 47.1399 30.0194 47.1416 30.0198 46.831C30.0205 46.5201 30.3837 46.5583 30.4555 46.5584C30.5268 46.5584 31.962 46.5584 31.962 46.5584V45.8679L30.2921 45.8679ZM43.5428 45.8861V47.8668C43.5418 48.6823 43.849 49.0853 44.5412 49.1025C44.5972 49.1025 46.4289 49.1025 46.4289 49.1025V45.8861H45.594V48.412H44.7953C44.5378 48.412 44.3952 48.2479 44.3959 47.9577V45.8861H43.5428ZM48.0081 45.9042C47.516 45.9766 47.1375 46.3085 47.1368 46.831C47.1351 47.6119 47.6908 47.8297 48.226 47.8304C48.3255 47.8304 48.7812 47.8304 48.8794 47.8304C49.1007 47.8304 49.2793 47.9124 49.2787 48.1394C49.2782 48.3621 49.0937 48.4305 48.8794 48.4301C48.7738 48.4301 47.2276 48.4301 47.2276 48.4301V49.1025C47.2276 49.1025 48.7796 49.1204 49.0246 49.1206C49.6575 49.1219 50.1123 48.8327 50.1137 48.103C50.1148 47.4526 49.6117 47.1777 49.0246 47.1762C48.9287 47.1762 48.469 47.1762 48.3893 47.1762C48.3097 47.1762 47.9529 47.1779 47.9537 46.8673C47.9542 46.5561 48.3175 46.5764 48.3893 46.5766C48.4611 46.5766 49.8959 46.5947 49.8959 46.5947V45.9042H48.226C48.1513 45.9042 48.0784 45.894 48.0081 45.9042ZM52.2193 45.9042C51.647 45.9042 51.4249 45.9588 51.1665 46.1768C50.8081 46.466 50.6045 46.9642 50.6038 47.5579C50.6015 48.5147 51.1686 49.1184 52.0741 49.1206H52.8909L52.8728 50.3381H53.7259V45.9042H52.2193ZM54.5427 45.9042V47.8849C54.541 48.7006 54.8489 49.1033 55.5411 49.1206C55.5981 49.1206 57.4107 49.1206 57.4107 49.1206L57.4288 45.9224H56.5757V48.4483H55.777C55.5186 48.4483 55.3771 48.2664 55.3777 47.9758V45.9042H54.5427ZM59.5889 45.9224C59.1676 45.9211 58.8895 45.9822 58.6632 46.1404C58.291 46.397 58.0467 46.9175 58.046 47.4851C58.045 48.0729 58.2388 48.5384 58.6087 48.8299C58.8851 49.0555 59.1409 49.138 59.6252 49.1388H60.8958V48.4483H59.5889C59.13 48.4469 58.969 48.27 58.8991 47.8667H60.8232V47.1762H58.8991C58.9704 46.7741 59.1296 46.6122 59.5889 46.6129H60.914V45.9224H59.5889ZM64.3991 45.9224V46.6129H65.7242C66.2085 46.6129 66.36 46.744 66.3595 47.1399V47.1944H65.4337C64.949 47.193 64.7082 47.2505 64.5443 47.3761C64.3179 47.5473 64.1817 47.8574 64.1813 48.1938C64.1802 48.6298 64.4163 48.9912 64.7621 49.0842C64.9316 49.1313 65.0531 49.138 65.5245 49.1387L67.1945 49.1569V47.3397C67.2198 46.5339 66.9381 45.9562 66.069 45.9405C65.9811 45.9405 65.8681 45.9405 65.7242 45.9405L64.3991 45.9224ZM68.0294 45.9405V49.1569H68.8644V45.9405H68.0294ZM70.8429 45.9405C70.4341 45.9463 70.1736 46.0667 69.9717 46.304C69.8842 46.4162 69.8159 46.5334 69.772 46.6856C69.7145 46.8767 69.6998 46.9898 69.6994 47.3397V49.1569H70.5344L70.5525 47.158C70.5535 46.7622 70.7035 46.6296 71.1878 46.631H71.7323V45.9405H71.1878C71.0429 45.9405 70.9314 45.9405 70.8429 45.9405ZM73.4386 45.9405C73.0174 45.9405 72.7393 46.0187 72.5129 46.1768C72.1411 46.4335 71.8972 46.9538 71.8957 47.5215C71.8952 48.1091 72.0884 48.5567 72.4584 48.848C72.7348 49.0734 72.9906 49.1562 73.4749 49.1569H74.7456V48.4846L73.4386 48.4664C72.9799 48.4651 72.8192 48.288 72.7489 47.8849L74.6729 47.9031V47.2125H72.7489C72.8202 46.8107 72.9794 46.6303 73.4386 46.631H74.7637V45.9405H73.4386ZM76.4518 45.9587C75.8545 45.9573 75.3634 46.2887 75.3627 46.8854C75.3617 47.6666 75.8984 47.8834 76.4337 47.8848C76.5328 47.8848 77.0072 47.9029 77.1053 47.903C77.327 47.903 77.505 47.9667 77.5046 48.1938C77.5035 48.4166 77.3201 48.4848 77.1053 48.4845C76.9998 48.4845 75.4535 48.4845 75.4535 48.4845V49.1569C75.4535 49.1569 77.006 49.1743 77.2505 49.175C77.8838 49.1763 78.3381 48.8874 78.3396 48.1574C78.3406 47.5068 77.8371 47.2321 77.2505 47.2306C77.1551 47.2306 76.6953 47.2306 76.6152 47.2306C76.5351 47.2306 76.1788 47.233 76.1795 46.9217C76.1801 46.6108 76.5431 46.6309 76.6152 46.6309C76.6865 46.6309 78.1218 46.6491 78.1218 46.6491V45.9586L76.4518 45.9587ZM41.3465 46.5038C41.8501 46.5051 42.1103 46.8376 42.1088 47.4851C42.1078 48.1383 41.8614 48.4671 41.3646 48.4664C40.8553 48.4664 40.5767 48.1303 40.5841 47.5033C40.5925 46.8368 40.8381 46.5031 41.3465 46.5038ZM52.2738 46.5947H52.8909V48.43H52.3101C51.7634 48.4287 51.4744 48.1038 51.4751 47.5033C51.4762 46.9095 51.752 46.5932 52.2738 46.5947ZM65.343 47.8848H66.3595V48.4664H65.4882C65.1553 48.4664 65.0344 48.3867 65.0344 48.1756C65.0349 47.9909 65.1485 47.8845 65.343 47.8848Z" fill="#AFAFB6"/>
<path d="M59.4003 0.97268C62.1508 1.8455 62.505 3.82389 59.1854 6.32345C61.3345 4.60542 56.8562 1.81999 48.3086 1.7186C51.149 1.09378 56.8474 0.161348 59.4003 0.97268Z" fill="#AFAFB6"/>
<path d="M60.1504 9.21131C53.0506 11.1936 41.8709 10.107 36.9542 7.78934C34.4993 6.63347 33.3229 4.89916 34.7447 1.11719C34.1179 5.51947 53.6719 8.48961 60.1504 9.21131Z" fill="#AFAFB6"/>
<path d="M16.2157 12.6635C16.317 14.4223 16.5438 15.4798 16.8032 16.2174C23.8007 17.8247 35.6679 19.5109 46.272 19.1006C56.8752 18.6904 66.2729 17.7498 78.1832 14.1054C54.1673 17.4104 26.423 14.421 16.5355 9.08008C16.3249 9.81284 16.1253 11.1011 16.2157 12.6635Z" fill="#AFAFB6"/>
<path d="M44.6877 23.0723C51.5392 23.0858 53.1721 27.1431 53.1273 31.1158C53.1229 34.0723 52.1309 37.0076 51.6948 38.1558C51.5719 38.4854 51.4931 38.6704 51.4931 38.6704C51.4931 38.6704 51.4962 38.662 51.5021 38.6457C51.5054 38.6364 51.5096 38.6244 51.5147 38.61C51.5006 38.6438 51.493 38.6613 51.493 38.6613L42.7076 38.6431C42.7076 38.6431 50.9676 24.9373 43.234 24.9235C41.1174 24.9194 38.7806 25.9052 36.3355 27.5583L36.2785 27.5998C29.8019 32.0028 22.653 41.0941 17.3416 49.0526L0.65625 49.0201C0.65625 49.0201 24.6707 23.0331 44.6877 23.0723Z" fill="#AFAFB6"/>
</g>
<defs>
<clipPath id="clip0_2046_23420">
<rect width="79" height="51" fill="white"/>
</clipPath>
</defs>
</svg>
