<svg width="128" height="37" viewBox="0 0 128 37" fill="none" xmlns="http://www.w3.org/2000/svg">
<g clip-path="url(#clip0_2046_23446)">
<path d="M64.9869 1.06691C64.9869 0.446501 65.4889 0 66.1929 0C66.8973 0 67.3998 0.446501 67.3998 1.06691C67.3998 1.68733 66.8973 2.13383 66.1929 2.13383C65.4889 2.13383 64.9869 1.68733 64.9869 1.06691Z" fill="#AFAFB6"/>
<path d="M65.1128 2.9035H67.2738V9.10641H65.1128V2.9035Z" fill="#AFAFB6"/>
<path fill-rule="evenodd" clip-rule="evenodd" d="M60.4258 2.75378C59.1444 2.75378 57.863 3.96971 57.8628 6.00328C57.863 8.01218 58.8682 9.25274 60.4258 9.25274C60.9784 9.25274 61.5816 8.95545 62.0083 8.53364H62.0589L62.2094 9.10469H63.9683V0.470703H61.8073V2.4812L61.8826 3.3742C61.5063 3.0017 61.1042 2.75378 60.4258 2.75378ZM61.8073 4.7877V7.07076C61.5803 7.41739 61.33 7.5173 61.0031 7.5173C60.4246 7.5173 60.0731 7.07076 60.0731 5.9792C60.0731 4.88762 60.4999 4.49045 60.9526 4.49045C61.2301 4.49045 61.5557 4.56445 61.8073 4.7877Z" fill="#AFAFB6"/>
<path d="M36.026 35.533V2.34258H36.0273C36.0273 1.57046 35.4007 0.941406 34.6273 0.941406H1.40241C0.629049 0.941406 0 1.56923 0 2.34258V3.91027C0 4.41598 0.272588 4.88222 0.71292 5.13013C2.60399 6.19036 4.70727 7.46864 6.94077 8.99941H26.0372C26.0372 8.99941 27.6752 9.28431 27.9947 10.445C28.3141 11.6056 27.9947 30.017 27.9947 30.017L27.9774 29.9926C29.5026 32.2089 30.7857 34.3087 31.8595 36.2175C32.1074 36.6603 32.5736 36.9329 33.0793 36.9329H34.626C35.3994 36.9329 36.026 36.3063 36.026 35.533Z" fill="#AFAFB6"/>
<path d="M26.9954 35.8809V11.0101C26.9954 10.4316 26.5267 9.96289 25.9458 9.96289H1.05026C0.47178 9.96289 0.000610352 10.4316 0.000610352 11.0101V12.1868C0.000610352 12.5654 0.20536 12.9145 0.535919 13.1007C2.88845 14.4207 5.68075 16.1917 8.63017 18.5316C8.47174 18.4023 8.31088 18.2717 8.14748 18.1394H17.7905C17.7905 18.1394 18.6169 18.2838 18.7784 18.8696C18.94 19.4555 18.7784 28.7519 18.7784 28.7519C18.5121 28.3996 18.249 28.0585 17.9872 27.7266V19.6622C17.9872 19.2761 17.6739 18.9629 17.2878 18.9629H0.700697C0.314634 18.9629 0.00134277 19.2761 0.00134277 19.6622V20.4454C0.00134277 20.6983 0.13702 20.9314 0.35657 21.0548C2.96034 22.5152 6.37077 24.8031 9.72818 28.2802C12.5996 31.254 14.5743 34.2093 15.9064 36.575C16.031 36.7945 16.2629 36.9314 16.5157 36.9314H17.2878C17.6739 36.9314 17.9872 36.6182 17.9872 36.2321V27.7627C20.5319 30.8826 22.4479 33.8637 23.8724 36.3953C24.0574 36.7259 24.4077 36.9306 24.7876 36.9306H25.9458C26.5267 36.9306 26.9954 36.4619 26.9954 35.8809Z" fill="#AFAFB6"/>
<path fill-rule="evenodd" clip-rule="evenodd" d="M39.8843 1.04297H42.8741C44.6577 1.04297 46.1908 1.68805 46.1908 3.72198C46.1908 5.7559 44.633 6.55023 42.9246 6.55023H42.0452V9.10593H39.8843V1.04297ZM42.8236 4.86414C43.6783 4.86414 44.0792 4.4423 44.0792 3.72322C44.0792 3.00412 43.6018 2.7303 42.773 2.7303H42.044V4.86414H42.8236Z" fill="#AFAFB6"/>
<path d="M48.793 2.9012H47.0342V9.10411H49.1951V5.65545C49.496 4.88579 50.0486 4.6132 50.5013 4.6132C50.7578 4.6132 50.9489 4.65533 51.1546 4.70066L51.2056 4.71187L51.5571 2.8753C51.3807 2.80129 51.1674 2.75195 50.7776 2.75195C50.1621 2.75195 49.459 3.12445 48.994 3.96812H48.9435L48.793 2.9012Z" fill="#AFAFB6"/>
<path fill-rule="evenodd" clip-rule="evenodd" d="M51.5179 6.00399C51.5179 3.99473 53.0005 2.75391 54.5324 2.75391C56.3911 2.75391 57.2718 4.09341 57.2718 5.75608C57.2718 6.12857 57.2212 6.50107 57.1842 6.64906H53.6036C53.8046 7.39409 54.3572 7.64073 55.0602 7.64073C55.4871 7.64073 55.8891 7.51741 56.3418 7.26826L57.0448 8.53375C56.3665 9.00495 55.4624 9.25285 54.7581 9.25285C52.924 9.25285 51.5166 8.06136 51.5166 6.00276L51.5179 6.00399ZM55.4377 5.259C55.4377 4.78783 55.2366 4.366 54.5829 4.366C54.1056 4.366 53.7035 4.63859 53.5777 5.259H55.4377Z" fill="#AFAFB6"/>
<path d="M71.4572 2.75391C69.6726 2.75391 68.0898 3.94416 68.0898 6.00399L68.0885 6.00152C68.0885 8.0601 69.4701 9.2516 71.2547 9.2516C71.9083 9.2516 72.7128 9.07895 73.3407 8.53249L72.5117 7.14368C72.2096 7.36691 71.8581 7.54082 71.5066 7.54082C70.828 7.54082 70.2998 6.94511 70.2998 6.00276C70.2998 5.06042 70.7772 4.46467 71.5818 4.46467C71.8087 4.46467 72.0098 4.53991 72.2861 4.76316L73.2912 3.39899C72.8137 3.00183 72.211 2.75391 71.4572 2.75391Z" fill="#AFAFB6"/>
<path d="M74.1831 6.72428V4.56577H73.3541V2.97835L74.3091 2.90434L74.5603 1.29102H76.3442V2.90434H77.776V4.567H76.3442V6.68853C76.3442 7.37057 76.6957 7.59381 77.098 7.59381C77.2985 7.59381 77.4997 7.54448 77.6507 7.4939L77.9771 9.03202C77.6507 9.13194 77.1851 9.25526 76.4946 9.25526C74.8617 9.25526 74.1831 8.23767 74.1831 6.72428Z" fill="#AFAFB6"/>
<path d="M79.6996 0C78.9953 0 78.4934 0.446501 78.4934 1.06691C78.4934 1.68733 78.9953 2.13383 79.6996 2.13383C80.4039 2.13383 80.9058 1.68733 80.9058 1.06691C80.9058 0.446501 80.4039 0 79.6996 0Z" fill="#AFAFB6"/>
<path d="M80.7799 2.9035H78.6194V9.10641H80.7799V2.9035Z" fill="#AFAFB6"/>
<path d="M81.3451 2.90234H83.5062L84.1842 5.60725C84.3352 6.22767 84.4856 6.87274 84.6373 7.54252H84.688C84.8384 6.87274 84.9888 6.22767 85.1391 5.60725L85.8177 2.90234H87.8773L85.8929 9.10524H83.406L81.3451 2.90234Z" fill="#AFAFB6"/>
<path fill-rule="evenodd" clip-rule="evenodd" d="M91.0073 2.75391C89.4741 2.75391 87.9918 3.99449 87.9915 6.00339C87.9917 8.0616 89.399 9.25285 91.2328 9.25285C91.9359 9.25285 92.8413 9.00495 93.52 8.53375L92.8156 7.26826C92.3625 7.51741 91.9609 7.64073 91.5336 7.64073C90.8306 7.64073 90.2786 7.39409 90.0774 6.64906H93.6578C93.6947 6.50107 93.7455 6.12857 93.7455 5.75608C93.7455 4.09341 92.8657 2.75391 91.0073 2.75391ZM91.0568 4.366C91.7103 4.366 91.9115 4.78783 91.9115 5.259H90.051C90.177 4.63859 90.5793 4.366 91.0568 4.366Z" fill="#AFAFB6"/>
<path d="M96.9871 1.04297H99.1482V7.3199H102.239V9.10593H96.9871V1.04297Z" fill="#AFAFB6"/>
<path fill-rule="evenodd" clip-rule="evenodd" d="M106.321 5.08632C103.909 5.33424 102.904 6.05333 102.904 7.3435H102.902C102.902 8.36109 103.606 9.25411 104.787 9.25411C105.465 9.25411 106.018 8.95556 106.52 8.50908H106.571L106.721 9.10487H108.48V5.65616C108.48 3.62224 107.501 2.75391 105.868 2.75391C104.887 2.75391 103.983 3.05116 103.104 3.57291L103.857 4.96175C104.511 4.61515 104.988 4.44124 105.441 4.44124C105.994 4.44124 106.27 4.63982 106.321 5.08632ZM106.321 6.35058V7.19426C106.095 7.44216 105.894 7.61607 105.542 7.61607C105.165 7.61607 104.964 7.45449 104.964 7.1696C104.964 6.82178 105.29 6.49983 106.321 6.35058Z" fill="#AFAFB6"/>
<path d="M109.551 11.3131L109.928 9.70102C109.955 9.7069 109.985 9.71417 110.016 9.72184C110.117 9.74638 110.234 9.77502 110.33 9.77502C110.907 9.77502 111.185 9.52712 111.31 9.15457L111.385 8.882L108.998 2.90234H111.159L111.912 5.28409C112.049 5.72726 112.155 6.16969 112.267 6.6356C112.299 6.76999 112.331 6.90658 112.365 7.04546H112.416C112.541 6.44969 112.667 5.87984 112.818 5.28409L113.446 2.90234H115.507L113.396 9.00533C112.744 10.6804 112.064 11.4365 110.506 11.4365C110.08 11.4365 109.828 11.3871 109.551 11.3119L109.551 11.3131Z" fill="#AFAFB6"/>
<path fill-rule="evenodd" clip-rule="evenodd" d="M118.634 2.75391C117.101 2.75391 115.619 3.99449 115.619 6.00339C115.619 8.0616 117.026 9.25285 118.86 9.25285C119.564 9.25285 120.469 9.00495 121.147 8.53375L120.443 7.26826C119.99 7.51741 119.588 7.64073 119.161 7.64073C118.458 7.64073 117.906 7.39409 117.705 6.64906H121.285C121.323 6.50107 121.373 6.12857 121.373 5.75608C121.373 4.09341 120.494 2.75391 118.634 2.75391ZM118.684 4.366C119.338 4.366 119.539 4.78783 119.539 5.259H117.679C117.805 4.63859 118.206 4.366 118.684 4.366Z" fill="#AFAFB6"/>
<path d="M122.239 2.9012H123.998L124.148 3.96812H124.199C124.664 3.12445 125.367 2.75195 125.982 2.75195C126.372 2.75195 126.586 2.80129 126.762 2.8753L126.41 4.71187L126.357 4.70018C126.151 4.65504 125.961 4.6132 125.707 4.6132C125.254 4.6132 124.701 4.88579 124.4 5.65545V9.10411H122.239V2.9012Z" fill="#AFAFB6"/>
<path d="M40.7353 15.5666L40.031 16.1118H40.0298C40.4873 16.731 41.0918 16.9789 41.7011 16.9789C42.7766 16.9789 43.4722 16.3178 43.4722 15.4778C43.4722 14.9437 43.2712 14.6464 42.8198 14.3801L42.356 14.1013L42.2802 14.0551C41.9598 13.8599 41.7714 13.7452 41.7714 13.5241C41.7714 13.2601 41.9811 13.027 42.3671 13.027C42.7063 13.027 42.9702 13.212 43.2083 13.4599L43.8275 12.8888C43.4711 12.4608 42.9616 12.1895 42.4103 12.1895C41.4902 12.1895 40.7637 12.8296 40.7637 13.6227C40.7637 14.1839 41.0399 14.5157 41.463 14.7772L41.9227 15.0563C42.2449 15.2515 42.4522 15.3771 42.4522 15.6171C42.4522 15.9502 42.1821 16.1525 41.7776 16.1525C41.373 16.1525 40.9894 15.9206 40.7353 15.5666Z" fill="#AFAFB6"/>
<path d="M45.7816 11.9277L45.5089 13.2204L45.3523 13.7914H45.3807C45.6989 13.5139 46.0738 13.2907 46.5031 13.2907C47.0914 13.2907 47.3455 13.6076 47.3455 14.1948C47.3455 14.3527 47.3308 14.5204 47.2876 14.6955L46.8423 16.8935H45.8605L46.2823 14.8177L46.2968 14.7517C46.3208 14.6428 46.339 14.5606 46.339 14.4809C46.339 14.2404 46.212 14.1183 45.9764 14.1183C45.7556 14.1183 45.5374 14.2638 45.2277 14.5772L44.7701 16.8935H43.7883L44.7985 11.9277H45.7816Z" fill="#AFAFB6"/>
<path fill-rule="evenodd" clip-rule="evenodd" d="M49.6252 13.293C48.6421 13.293 47.7233 14.3512 47.7233 15.6907C47.7233 16.5196 48.1019 16.9797 48.7285 16.9797C49.0986 16.9797 49.5204 16.7688 49.8435 16.4358H49.8608L49.846 16.8946H50.6453L51.3582 13.3781H50.57L50.4171 13.7555H50.3998C50.2605 13.4731 49.9471 13.293 49.6252 13.293ZM50.1729 14.4216L49.9175 15.6686V15.6673C49.6881 16.0682 49.3934 16.1879 49.1565 16.1879C48.9024 16.1879 48.7409 15.9967 48.7409 15.5662C48.7409 14.7274 49.1997 14.0848 49.6943 14.0848C49.8608 14.0848 50.0544 14.1872 50.1729 14.4216Z" fill="#AFAFB6"/>
<path fill-rule="evenodd" clip-rule="evenodd" d="M52.3563 17.251L52.1712 18.1996H51.1895L52.1712 13.3781H52.9705L52.9792 13.7802H52.9964C53.322 13.494 53.718 13.293 54.088 13.293C54.7146 13.293 55.0932 13.7543 55.0932 14.5819C55.0932 15.9214 54.1744 16.9797 53.1913 16.9797C52.8928 16.9797 52.6239 16.8206 52.471 16.564H52.4562L52.3575 17.2498L52.3563 17.251ZM52.9236 14.5289L52.6548 15.8561C52.7621 16.0879 52.9422 16.1879 53.1222 16.1879C53.6168 16.1879 54.0756 15.5452 54.0756 14.7065C54.0756 14.2773 53.9129 14.0848 53.6588 14.0848C53.4343 14.0848 53.1395 14.2044 52.9236 14.5289Z" fill="#AFAFB6"/>
<path fill-rule="evenodd" clip-rule="evenodd" d="M58.5673 14.6127C58.5673 13.8826 58.2565 13.293 57.4054 13.293V13.2942C56.4582 13.2942 55.4258 14.1736 55.4258 15.4749C55.4258 16.4172 56.0228 16.981 56.8837 16.981C57.435 16.981 57.8766 16.8107 58.1615 16.6121L57.8125 16.0004C57.6361 16.1261 57.3796 16.247 57.1588 16.247C56.6888 16.247 56.3311 15.9979 56.3558 15.4132H58.386C58.4416 15.3072 58.5673 14.9445 58.5673 14.6127ZM57.7619 14.5585C57.7619 14.6559 57.7484 14.7484 57.7311 14.8199H56.4347C56.5976 14.3044 56.9466 14.038 57.2846 14.038C57.6411 14.038 57.7619 14.2748 57.7619 14.5585Z" fill="#AFAFB6"/>
<path d="M59.736 18.1271C59.8779 18.2072 60.1107 18.2687 60.2413 18.2687C60.9764 18.2687 61.4353 17.816 61.9274 16.9699L63.8503 13.377H62.9018L62.1543 14.9631C62.0644 15.1547 61.9663 15.377 61.8704 15.5941L61.8698 15.5954C61.8043 15.7439 61.7395 15.8907 61.6795 16.0226H61.6511C61.6437 15.6871 61.6227 15.2715 61.5882 14.9631L61.418 13.377H60.4424L61.064 16.8182L60.9764 16.9896C60.8173 17.3017 60.5559 17.5003 60.303 17.5003C60.2056 17.5003 60.1093 17.4744 60.0353 17.4324L59.736 18.1271Z" fill="#AFAFB6"/>
<path fill-rule="evenodd" clip-rule="evenodd" d="M65.6083 13.293C64.6277 13.293 63.6126 14.1749 63.6126 15.5304H63.6113C63.6113 16.4049 64.1627 16.9797 64.994 16.9797C65.9756 16.9797 66.9912 16.0978 66.9912 14.7423C66.9912 13.869 66.4399 13.293 65.6083 13.293ZM65.4997 14.0737C65.8302 14.0737 65.998 14.3328 65.998 14.762C65.998 15.5823 65.5848 16.2002 65.105 16.2002C64.7745 16.2002 64.6067 15.9411 64.6067 15.5119C64.6067 14.6917 65.0199 14.0737 65.4997 14.0737Z" fill="#AFAFB6"/>
<path d="M70.2162 16.8934H69.4169L69.432 16.4198H69.4037C69.0792 16.7183 68.6683 16.9786 68.239 16.9786C67.6508 16.9786 67.3969 16.6615 67.3969 16.0745C67.3969 15.9166 67.4166 15.7488 67.4536 15.5736L67.8987 13.377H68.8807L68.4586 15.4528L68.4447 15.5163C68.4203 15.6264 68.4019 15.7092 68.4019 15.7895C68.4019 16.03 68.5305 16.1521 68.7646 16.1521C68.9743 16.1521 69.1926 16.0066 69.4775 15.6933L69.9352 13.377H70.9172L70.2162 16.8934Z" fill="#AFAFB6"/>
<path d="M72.5276 13.3781H71.7283V13.3793L71.0266 16.8958H72.0086L72.4082 14.8582C72.6892 14.3636 72.9827 14.1465 73.2972 14.1465C73.4146 14.1465 73.5564 14.1514 73.6501 14.2033L73.9732 13.362C73.8947 13.3189 73.7806 13.293 73.6006 13.293C73.1911 13.293 72.7868 13.6186 72.5118 14.0627H72.4834L72.5276 13.3781Z" fill="#AFAFB6"/>
<path d="M75.4036 13.4196L75.8744 13.3801L75.9166 13.1483C76.0611 12.4242 76.4765 11.8457 77.2917 11.8457C77.5693 11.8457 77.8311 11.9161 78.054 12.0369L77.7408 12.719C77.661 12.6709 77.5225 12.6141 77.3952 12.6141C77.1314 12.6141 76.9725 12.7264 76.8986 13.1137L76.8439 13.3801H77.4658L77.3167 14.1362H76.6823L76.131 16.8967H75.1497L75.7129 14.1362H75.2552L75.4022 13.4196H75.4036Z" fill="#AFAFB6"/>
<path d="M79.4257 16.8934H80.225L80.9254 13.377H79.9434L79.4857 15.6933C79.2008 16.0066 78.9825 16.1521 78.7728 16.1521C78.5387 16.1521 78.4108 16.03 78.4108 15.7895C78.4108 15.7092 78.4291 15.6264 78.4535 15.5163L78.4675 15.4528L78.8889 13.377H77.9069L77.4617 15.5736C77.4248 15.7488 77.405 15.9166 77.405 16.0745C77.405 16.6615 77.6596 16.9786 78.2479 16.9786C78.6772 16.9786 79.0874 16.7183 79.4118 16.4198H79.4402L79.4257 16.8934Z" fill="#AFAFB6"/>
<path d="M81.3812 16.0488C81.3812 15.8983 81.4069 15.7541 81.4332 15.6061L81.7439 14.1333H81.269L81.4155 13.4167L81.9411 13.3771L82.2424 12.457H83.0648L82.8874 13.3771H83.6927L83.5436 14.1333H82.7146L82.404 15.643C82.3889 15.7281 82.3862 15.8021 82.3862 15.8773C82.3862 16.1105 82.501 16.2215 82.7588 16.2215C82.8604 16.2215 82.956 16.1857 83.0477 16.1413L83.2264 16.8234C83.0378 16.8937 82.7562 16.9787 82.3902 16.9787C81.672 16.9787 81.3812 16.5878 81.3812 16.0488Z" fill="#AFAFB6"/>
<path d="M85.6861 16.8934H86.4855L87.1865 13.377H86.2045L85.7468 15.6933C85.4619 16.0066 85.2436 16.1521 85.0339 16.1521C84.7998 16.1521 84.6712 16.03 84.6712 15.7895C84.6712 15.7092 84.6896 15.6264 84.714 15.5163L84.7279 15.4528L85.15 13.377H84.168L83.7229 15.5736C83.6859 15.7488 83.6661 15.9166 83.6661 16.0745C83.6661 16.6615 83.92 16.9786 84.5083 16.9786C84.9376 16.9786 85.3485 16.7183 85.673 16.4198H85.7013L85.6861 16.8934Z" fill="#AFAFB6"/>
<path d="M87.9976 13.3781H88.7969L88.7527 14.0627H88.7811C89.0561 13.6186 89.4603 13.293 89.8699 13.293C90.0512 13.293 90.164 13.3189 90.2425 13.362L89.9193 14.2033C89.827 14.1514 89.6839 14.1465 89.5665 14.1465C89.2519 14.1465 88.9585 14.3636 88.6788 14.8582L88.2779 16.8958H87.2959L87.9963 13.3793L87.9976 13.3781Z" fill="#AFAFB6"/>
<path fill-rule="evenodd" clip-rule="evenodd" d="M93.1219 14.6127C93.1219 13.8826 92.8106 13.293 91.9599 13.293V13.2942C91.0122 13.2942 89.9801 14.1736 89.9801 15.4749C89.9801 16.4172 90.5769 16.981 91.4382 16.981C91.9896 16.981 92.4308 16.8107 92.7157 16.6121L92.3668 16.0004C92.19 16.1261 91.9335 16.247 91.7132 16.247C91.243 16.247 90.8856 15.9979 90.91 15.4132H92.9405C92.9959 15.3072 93.1219 14.9445 93.1219 14.6127ZM92.316 14.5585C92.316 14.6559 92.3028 14.7484 92.285 14.8199H90.9891C91.152 14.3044 91.5009 14.038 91.8385 14.038C92.1953 14.038 92.316 14.2748 92.316 14.5585Z" fill="#AFAFB6"/>
</g>
<defs>
<clipPath id="clip0_2046_23446">
<rect width="127.279" height="36.9308" fill="white"/>
</clipPath>
</defs>
</svg>
