<svg width="171" height="50" viewBox="0 0 171 50" fill="none" xmlns="http://www.w3.org/2000/svg">
<path fill-rule="evenodd" clip-rule="evenodd" d="M93.8254 17.2131C93.4524 18.0301 93.1181 18.6076 92.7098 19.0746C91.3608 20.6175 89.3899 21.4727 87.3415 21.4039C86.1617 21.3643 84.8596 20.8503 82.2554 19.8222C79.6512 18.7941 78.349 18.28 77.4603 17.503C75.9174 16.154 75.0622 14.1831 75.1309 12.1348C75.1705 10.955 75.6793 9.66615 76.697 7.08848C76.883 6.61731 77.052 6.18914 77.2088 5.79866V2.57288H61.1661V18.9567H77.2088V17.2718C77.2907 17.351 77.3741 17.4276 77.4603 17.503C77.769 17.7729 78.1283 18.0118 78.5741 18.2508V20.322H59.8008V1.20756H78.5741V2.90017C78.71 2.69192 78.8502 2.50506 79.0005 2.33318C80.3496 0.790268 82.3204 -0.0649091 84.3688 0.00385004C85.5486 0.043453 86.8507 0.557511 89.455 1.58563C92.0593 2.61374 93.3614 3.1278 94.2501 3.90479C94.337 3.98077 94.4217 4.05872 94.5042 4.13854C96.4437 1.9237 99.2923 0.525049 102.468 0.525049C108.312 0.525049 113.049 5.26242 113.049 11.1063C113.049 16.9501 108.312 21.6875 102.468 21.6875C98.8984 21.6875 95.7419 19.9203 93.8254 17.2131ZM82.7567 18.5522C80.0428 17.4808 79.0249 17.0574 78.359 16.4752C77.1246 15.3959 76.4405 13.8192 76.4955 12.1806C76.5252 11.2962 76.9066 10.2757 77.967 7.58977C79.0274 4.90382 79.4459 3.898 80.0284 3.23187C81.1076 1.99753 82.6843 1.31339 84.323 1.3684C85.2071 1.39807 86.2397 1.78416 88.9536 2.85556C91.6675 3.92697 92.6855 4.35043 93.3514 4.93264C93.4607 5.02821 93.5657 5.12768 93.6662 5.23075C92.5419 6.91152 91.8863 8.93233 91.8863 11.1063C91.8863 12.7772 92.2737 14.3577 92.9634 15.7628C92.4265 17.0585 92.0956 17.7029 91.682 18.1759C90.6027 19.4103 89.026 20.0944 87.3873 20.0394C86.5033 20.0097 85.4706 19.6236 82.7567 18.5522ZM95.3957 5.19645C97.0863 3.17567 99.6269 1.89037 102.468 1.89037C107.558 1.89037 111.684 6.01647 111.684 11.1063C111.684 16.1961 107.558 20.3222 102.468 20.3222C99.0458 20.3222 96.0595 18.4572 94.4697 15.6883C94.6354 15.2768 94.8146 14.8227 95.0133 14.3195C96.031 11.7418 96.5398 10.4528 96.5794 9.27304C96.6286 7.80819 96.2052 6.38296 95.3957 5.19645ZM94.5386 6.40616C95.0087 7.25847 95.2483 8.23141 95.2149 9.22723C95.1852 10.1116 94.8038 11.1321 93.7434 13.818C93.7272 13.8589 93.7112 13.8994 93.6954 13.9395C93.4073 13.0469 93.2517 12.0948 93.2517 11.1063C93.2517 9.38947 93.7211 7.78231 94.5386 6.40616Z" fill="#AFAFB6"/>
<path d="M85.4249 25.3079C83.9304 25.5238 82.647 26.2157 81.797 27.2674C80.1192 29.3377 80.0914 32.5759 81.7304 34.6184C82.8248 35.9857 84.5193 36.6665 86.6027 36.578C87.3916 36.5448 87.9583 36.4451 88.6972 36.2016L89.2084 36.0355L89.3473 35.72C89.5806 35.1886 89.8806 34.1479 89.8862 33.8712C89.8862 33.7549 89.6917 33.6387 89.5862 33.6996C89.5417 33.7217 89.3862 33.9763 89.2417 34.2642C88.7917 35.1609 88.0583 35.7753 87.1916 35.9801C86.8027 36.0742 85.8638 36.0632 85.4082 35.958C84.5971 35.7698 83.7415 35.2329 83.2026 34.5742C82.8304 34.1147 82.4137 33.2457 82.247 32.5925C81.9748 31.5241 81.9637 30.096 82.2137 29.0387C82.2859 28.7509 82.4526 28.297 82.6137 27.9649C82.8582 27.4612 82.9637 27.3172 83.3804 26.9076C84.1638 26.1327 85.0027 25.8005 86.1861 25.8005C87.775 25.8061 88.6695 26.3984 89.1139 27.7656C89.2306 28.1199 89.2861 28.214 89.3806 28.225C89.6251 28.2638 89.6473 28.1808 89.5751 27.5054C89.5417 27.1622 89.4917 26.6253 89.4695 26.3098C89.4473 25.9611 89.4028 25.7286 89.3639 25.7175C87.9528 25.3245 86.4138 25.164 85.4249 25.3079Z" fill="#AFAFB6"/>
<path d="M0.611099 25.5238C-3.20673e-05 25.5902 -0.0166993 25.5957 0.00552367 25.8116C0.0221909 25.9832 0.0388581 25.9943 0.299978 26.0386C0.76666 26.1105 1.00556 26.2102 1.12778 26.3707C1.24445 26.5257 1.24445 26.5533 1.24445 30.9097L1.24446 31.1672C1.24454 35.1056 1.24455 35.5075 1.04573 35.6747C1.02313 35.6937 0.997939 35.7097 0.969918 35.7275L0.955555 35.7366C0.877775 35.7864 0.649989 35.8584 0.449983 35.8971C0.221592 35.9379 0.133334 35.9536 0.0953784 36.0057C0.0714736 36.0386 0.0675218 36.0858 0.061081 36.1628L0.0444138 36.3566L3.91121 36.3455V35.9635L3.46675 35.9027C2.6945 35.7919 2.61672 35.6923 2.5445 34.7734C2.46116 33.7604 2.50561 26.2268 2.5945 26.1216C2.68895 26.0053 3.17229 25.9666 3.66675 26.0275C4.42233 26.1216 5.00569 26.498 5.34459 27.1124C5.76682 27.8874 5.76682 29.3543 5.35014 30.1237C5.0668 30.6385 4.48345 31.0647 3.77231 31.2806C3.51119 31.3581 3.46675 31.3913 3.46675 31.5075C3.46675 31.6404 3.47786 31.6404 3.91676 31.6349C4.74457 31.6238 5.61682 31.2751 6.20017 30.7104C6.7613 30.1735 7.0502 29.4539 7.0502 28.5959C7.04464 27.0792 6.20573 26.0109 4.71123 25.6289C4.29455 25.5238 4.06677 25.5072 2.66117 25.4961C1.78892 25.485 0.866663 25.5016 0.611099 25.5238Z" fill="#AFAFB6"/>
<path d="M47.6404 26.3098C47.6237 26.3817 47.5848 26.5866 47.5515 26.7692C47.5181 26.9519 47.4126 27.3947 47.3237 27.749C47.2293 28.1088 47.1681 28.4243 47.1904 28.4575C47.207 28.4852 47.2848 28.5129 47.357 28.5129C47.4681 28.5129 47.5237 28.4465 47.6682 28.1475C47.8904 27.6715 48.1626 27.3837 48.4848 27.2563C48.7015 27.1733 48.9126 27.1567 49.7738 27.1567H50.8016L50.8183 31.0592C50.8294 33.2069 50.8183 35.0945 50.8016 35.255C50.746 35.7255 50.5794 35.8639 49.996 35.9469L49.5238 36.0134L49.5071 36.1905L49.4904 36.3621L51.3405 36.3566L53.1906 36.3455V36.1794C53.1906 36.0142 53.1851 36.0134 52.7638 35.948L52.7572 35.9469C52.2739 35.875 52.185 35.8252 52.0572 35.5428C51.9794 35.3713 51.9683 34.8731 51.9516 31.3636C51.9405 29.1771 51.9461 27.3228 51.9683 27.2563C51.9961 27.129 52.0072 27.129 52.9128 27.129C54.5795 27.129 54.9628 27.3228 55.0851 28.2306C55.124 28.5406 55.2128 28.6513 55.3851 28.5959C55.4851 28.5627 55.4962 28.5184 55.4962 28.0977C55.4962 27.8431 55.5351 27.3338 55.5851 26.963C55.6351 26.5533 55.6517 26.2655 55.624 26.2378C55.5462 26.1603 55.4073 26.2323 55.3406 26.3817C55.2295 26.6308 55.074 26.6364 51.5405 26.6198L48.2293 26.6032L48.0848 26.4703C48.0071 26.3928 47.9404 26.3043 47.9404 26.26C47.9404 26.2212 47.8793 26.188 47.8015 26.188C47.707 26.188 47.657 26.2268 47.6404 26.3098Z" fill="#AFAFB6"/>
<path d="M131.888 26.8357C131.821 27.1899 131.704 27.6881 131.638 27.9372C131.504 28.4188 131.521 28.5129 131.749 28.5129C131.838 28.5129 131.899 28.4298 132.021 28.1531C132.21 27.7213 132.554 27.3504 132.86 27.2453C133.004 27.1955 133.443 27.1622 134.121 27.1456L135.16 27.118L135.193 27.3062C135.215 27.4058 135.221 29.2436 135.204 31.3913C135.193 34.2808 135.165 35.3491 135.115 35.5041C135.027 35.7864 134.843 35.886 134.31 35.958L133.86 36.0134V36.3455L135.71 36.351L137.554 36.3621V35.9967L137.171 35.958C136.682 35.9082 136.466 35.7809 136.388 35.4986C136.349 35.3491 136.338 33.9431 136.343 31.2197L136.36 27.1567H138.527L138.86 27.3228C139.238 27.511 139.371 27.7102 139.427 28.1752C139.466 28.524 139.549 28.6513 139.705 28.6014C139.805 28.5682 139.821 28.5018 139.855 27.8874C139.888 27.2785 139.955 26.6917 140.027 26.3762C140.077 26.1493 139.882 26.1603 139.688 26.3928L139.51 26.6032L136.143 26.6198C132.482 26.6364 132.46 26.6308 132.321 26.3319C132.282 26.2434 132.215 26.188 132.138 26.188C132.027 26.188 132.004 26.2489 131.888 26.8357Z" fill="#AFAFB6"/>
<path d="M157.477 26.4759C157.455 26.6364 157.35 27.129 157.244 27.5663C157.138 28.0036 157.061 28.3966 157.077 28.4354C157.094 28.4797 157.166 28.5129 157.238 28.5129C157.344 28.5129 157.4 28.4409 157.555 28.1199C157.772 27.677 158.094 27.3504 158.422 27.2342C158.577 27.1788 158.933 27.1567 159.666 27.1567H160.694V31.2806C160.694 35.1166 160.689 35.4155 160.594 35.5816C160.466 35.8196 160.272 35.9137 159.794 35.958C159.466 35.9912 159.394 36.0189 159.372 36.1075L159.371 36.1118C159.356 36.1686 159.344 36.2125 159.358 36.2465C159.404 36.3621 159.741 36.3621 161.227 36.3621L163.055 36.3566L163.089 36.2292C163.139 36.041 163.089 36.0023 162.739 35.9635C162.239 35.9026 162.066 35.8307 161.955 35.6369C161.866 35.4709 161.861 35.1443 161.861 31.3083V27.1567L162.8 27.1401C164.422 27.1124 164.789 27.2951 164.95 28.1863C165 28.4741 165.044 28.5738 165.122 28.6014C165.333 28.6679 165.389 28.535 165.389 27.9649C165.394 27.4833 165.45 26.8855 165.533 26.4316C165.583 26.1548 165.416 26.1382 165.194 26.3928L165.011 26.6032L161.644 26.6198C157.966 26.6364 157.933 26.6308 157.855 26.3319C157.827 26.2212 157.788 26.188 157.666 26.188C157.522 26.188 157.511 26.2046 157.477 26.4759Z" fill="#AFAFB6"/>
<path d="M35.1233 26.4869C33.7511 26.7471 32.6344 27.4224 31.9121 28.4299C30.9177 29.8137 30.6676 31.7954 31.2732 33.4505C31.7399 34.7181 32.7288 35.7366 33.94 36.185C34.6678 36.4617 35.2011 36.5503 36.0512 36.5558C36.929 36.5558 37.3623 36.4949 38.1568 36.2514L38.7346 36.0742L38.8679 35.7753C39.0346 35.3989 39.2568 34.635 39.3068 34.2808C39.3402 34.0317 39.329 34.004 39.2124 33.9763C39.1457 33.9597 39.0679 33.9542 39.0457 33.9708C39.0235 33.9819 38.9124 34.1756 38.8068 34.397C38.279 35.482 37.4901 36.0244 36.3567 36.0798C34.8289 36.1628 33.4455 35.2827 32.7677 33.7992C32.1621 32.4596 32.1455 30.3285 32.7399 28.9945C33.1844 27.9926 34.0455 27.2508 35.0789 26.9906C35.5122 26.8799 36.5345 26.8799 36.9567 26.9906C37.8123 27.2121 38.3512 27.7435 38.6346 28.6402C38.7401 28.9613 38.7846 29.0443 38.8846 29.0554C38.9512 29.0664 39.029 29.0554 39.0568 29.0277C39.0901 28.9945 39.0679 28.535 39.0124 27.8985L38.9179 26.819L38.6124 26.7526C38.5003 26.731 38.3013 26.6883 38.0964 26.6444C37.9864 26.6208 37.8742 26.5967 37.7734 26.5755C37.0845 26.426 35.69 26.3818 35.1233 26.4869Z" fill="#AFAFB6"/>
<path fill-rule="evenodd" clip-rule="evenodd" d="M59.663 26.498C58.2185 26.8024 57.0518 27.7324 56.4184 29.072C55.1295 31.7954 56.1573 35.0889 58.6407 36.185C59.7463 36.6721 61.1908 36.6887 62.2853 36.2292C64.5409 35.2827 65.7188 32.4541 64.9687 29.7971C64.352 27.6383 62.7353 26.3984 60.5575 26.415C60.263 26.415 59.863 26.4537 59.663 26.498ZM61.2797 27.0183C62.4409 27.3726 63.2631 28.4354 63.652 30.0794C63.7854 30.6385 63.7965 30.8101 63.802 31.8064C63.802 33.1405 63.7298 33.528 63.3298 34.3583C62.9909 35.0557 62.5853 35.4875 62.0075 35.7809C61.4908 36.0355 61.0797 36.1185 60.5241 36.0798C58.9241 35.9635 57.8074 34.7457 57.3463 32.6091C57.2685 32.2382 57.2463 31.9116 57.2518 31.0592C57.2574 29.7971 57.3296 29.4262 57.7463 28.5848C58.1352 27.8043 58.7852 27.2342 59.5741 26.9851C59.9408 26.8744 60.8686 26.891 61.2797 27.0183Z" fill="#AFAFB6"/>
<path fill-rule="evenodd" clip-rule="evenodd" d="M94.2197 26.4869C93.3419 26.6751 92.653 27.0405 91.9863 27.6715C89.9029 29.6587 89.8696 33.3896 91.9196 35.327C92.5419 35.9082 93.1419 36.2348 93.9864 36.4396C94.6197 36.5946 95.5809 36.6001 96.1365 36.4617C97.9587 35.9912 99.2588 34.5299 99.6421 32.515C99.7755 31.7898 99.7255 30.5499 99.5254 29.8414C99.0588 28.1531 97.9865 27.0183 96.442 26.5755C95.9087 26.4205 94.7531 26.3762 94.2197 26.4869ZM95.842 27.0183C97.1865 27.4279 98.0921 28.8616 98.3365 30.954C98.431 31.7732 98.3754 32.8305 98.1976 33.5058C97.7921 35.0723 96.6642 36.0964 95.3309 36.0964C93.5141 36.0964 92.2308 34.6959 91.8474 32.3157C91.7252 31.5408 91.7696 30.1015 91.9363 29.4871C92.2641 28.2527 92.9863 27.3947 93.9864 27.0405C94.4808 26.8633 95.3142 26.8578 95.842 27.0183Z" fill="#AFAFB6"/>
<path d="M112.987 26.4925C111.315 26.9132 110.565 28.6845 111.404 30.251C111.676 30.7547 112.098 31.1699 113.076 31.8784C114.148 32.6589 114.381 32.8914 114.62 33.373C114.793 33.7217 114.804 33.7715 114.804 34.3527C114.804 34.9063 114.787 34.9893 114.654 35.2439C114.337 35.8473 113.77 36.1351 113.02 36.0798C112.504 36.041 112.087 35.8418 111.72 35.4543C111.431 35.1554 111.031 34.4081 110.965 34.0649C110.937 33.9099 110.909 33.8822 110.77 33.8822C110.615 33.8822 110.609 33.8878 110.609 34.1645C110.609 34.4967 110.748 35.4045 110.854 35.7643C110.915 35.9801 110.965 36.0355 111.209 36.1684C111.893 36.5392 113.181 36.6776 113.915 36.4617C115.159 36.0909 115.832 35.172 115.832 33.8601C115.832 32.5593 115.32 31.7954 113.72 30.6994C112.787 30.0573 112.454 29.7417 112.204 29.2657C112.048 28.9613 112.031 28.8782 112.031 28.4575C112.037 27.7379 112.265 27.3117 112.787 27.0515C113.031 26.9298 113.148 26.9076 113.548 26.9076C113.815 26.9132 114.12 26.9464 114.237 26.9851C114.709 27.1567 115.043 27.5442 115.259 28.1752C115.365 28.4852 115.404 28.5406 115.52 28.5572C115.62 28.5682 115.676 28.5461 115.704 28.4797C115.743 28.369 115.637 27.2619 115.548 26.9298L115.493 26.7083L114.981 26.581C114.337 26.4205 113.437 26.3762 112.987 26.4925Z" fill="#AFAFB6"/>
<path fill-rule="evenodd" clip-rule="evenodd" d="M143.194 26.581C143.099 26.6751 142.955 26.8024 142.86 26.8578C142.732 26.9408 142.688 27.0183 142.632 27.2785C142.505 27.9206 139.938 35.2882 139.743 35.5816C139.61 35.7864 139.338 35.9248 138.988 35.9635C138.66 36.0023 138.566 36.0853 138.643 36.2791C138.671 36.351 138.849 36.3621 140.043 36.3566L141.416 36.3455V36.1794C141.416 36.0189 141.405 36.0134 141.038 35.9525C140.832 35.9193 140.649 35.875 140.627 35.8584C140.521 35.7477 140.638 35.1997 141.105 33.6608C141.305 33.0021 141.416 32.7198 141.505 32.6478C141.616 32.5593 141.743 32.5482 142.905 32.5648C144.032 32.5814 144.182 32.5925 144.244 32.6755C144.327 32.7862 145.055 35.2439 145.094 35.5429C145.127 35.7975 145.038 35.875 144.594 35.958C144.266 36.0189 144.249 36.0244 144.249 36.185V36.3455H150.472V36.1794C150.472 36.0189 150.466 36.0134 150.083 35.9525C149.872 35.9193 149.638 35.875 149.566 35.8528C149.233 35.7421 149.166 35.1554 149.127 32.0002C149.099 29.5812 149.127 28.4797 149.221 28.5406C149.244 28.5516 149.583 28.9834 149.977 29.4927C150.366 30.0074 151.538 31.4909 152.572 32.7918C153.605 34.0926 154.688 35.4764 154.983 35.8639L155.22 36.1763C155.398 36.4124 155.525 36.5796 155.533 36.5835C155.538 36.5946 155.594 36.578 155.649 36.5503C155.744 36.4949 155.749 36.3178 155.733 32.9025C155.716 29.4484 155.761 27.8985 155.888 27.4556C155.95 27.2397 156.144 27.1235 156.605 27.0239C156.9 26.9574 156.994 26.8523 156.894 26.6973C156.861 26.6364 156.533 26.6198 155.361 26.6198C154.083 26.6198 153.866 26.6308 153.827 26.7028C153.755 26.8246 153.827 26.9574 153.966 26.9851C154.522 27.0903 154.716 27.1456 154.816 27.2121C155.088 27.4003 155.166 28.3579 155.166 31.5684C155.166 32.9357 155.149 34.0483 155.122 34.0483C155.061 34.0483 154.516 33.3951 152.772 31.2252C150.516 28.4243 150.016 27.7656 149.544 26.9464L149.36 26.6253L148.305 26.6198C147.394 26.6198 147.244 26.6308 147.194 26.7083C147.116 26.8357 147.227 26.9851 147.421 27.0073C147.971 27.0626 148.377 27.356 148.494 27.7767C148.533 27.9151 148.555 29.1218 148.555 31.1699C148.555 34.2033 148.51 35.4321 148.383 35.6591C148.199 36.0023 147.094 36.0909 146.649 35.7975C146.538 35.7255 146.405 35.5484 146.299 35.3214C146.16 35.0447 144.216 28.8284 143.627 26.7969C143.566 26.5866 143.488 26.4316 143.438 26.4205C143.394 26.415 143.282 26.4869 143.194 26.581ZM143.532 30.179C143.799 31.0592 143.999 31.8175 143.977 31.8618C143.955 31.9338 143.771 31.9448 142.832 31.9448C141.732 31.9448 141.721 31.9448 141.721 31.8231C141.721 31.7179 142.799 28.3966 142.877 28.2638C142.927 28.1808 143.027 28.4686 143.532 30.179Z" fill="#AFAFB6"/>
<path d="M168.111 26.4925C166.855 26.8412 166.155 27.8154 166.233 29.0996C166.283 29.8524 166.572 30.4558 167.167 31.0426C167.328 31.2031 167.844 31.6127 168.311 31.9504C169.567 32.8526 169.85 33.2124 169.961 34.0594C170.072 34.8675 169.772 35.5539 169.167 35.8971C168.883 36.0576 168.822 36.0687 168.333 36.0687C167.861 36.0687 167.772 36.0521 167.472 35.9082C166.889 35.6203 166.405 34.9948 166.161 34.2143C166.078 33.9376 166.055 33.9099 165.911 33.9099H165.75L165.766 34.2697C165.783 34.6516 165.905 35.4321 166 35.7753C166.072 36.0355 166.255 36.1628 166.805 36.3455C168.117 36.7883 169.467 36.5669 170.25 35.7919C171.244 34.8011 171.25 33.0187 170.267 31.8563C169.944 31.4743 169.783 31.3415 168.772 30.6274C167.544 29.7583 167.228 29.3543 167.178 28.5904C167.128 27.8431 167.433 27.2674 168.005 27.0239C168.25 26.9187 168.372 26.9021 168.8 26.9187C169.694 26.9519 170.117 27.3006 170.444 28.2638C170.522 28.4907 170.567 28.5461 170.678 28.5572C170.772 28.5682 170.833 28.5406 170.856 28.4797C170.9 28.369 170.794 27.3394 170.706 26.974L170.639 26.7194L170.167 26.5866C169.544 26.4205 168.55 26.3707 168.111 26.4925Z" fill="#AFAFB6"/>
<path fill-rule="evenodd" clip-rule="evenodd" d="M9.02246 26.6364C8.53355 26.6641 8.10576 26.6973 8.06132 26.7139C8.01687 26.7305 7.99465 26.808 8.00576 26.9187C8.02243 27.0958 8.03354 27.1014 8.30021 27.1346C8.72245 27.1844 8.82245 27.2287 8.92801 27.4224C9.0169 27.5829 9.02246 27.904 9.03913 31.2252C9.05024 33.218 9.03913 35.0059 9.02246 35.1997C8.97246 35.6978 8.8169 35.8528 8.30021 35.9469C7.92242 36.0134 7.91131 36.0189 7.91131 36.1794V36.3455H11.2448V36.185C11.2448 36.03 11.2281 36.0189 10.867 35.9303C10.4058 35.8141 10.2892 35.7144 10.2169 35.327C10.1336 34.8841 10.1447 32.0721 10.2281 32.0223C10.3669 31.9338 11.1892 31.978 11.3614 32.0777C11.5776 32.2047 11.6002 32.2436 12.3232 33.4864L12.3281 33.4947C13.1281 34.8731 13.4337 35.327 13.8559 35.7421C14.3893 36.2791 14.8949 36.4839 15.7005 36.4839C15.9505 36.4839 16.2227 36.4562 16.3116 36.423C16.4116 36.3842 17.0338 36.3621 18.095 36.3621H19.7173L19.7506 36.2292C19.795 36.0466 19.7506 36.0023 19.4561 35.9635C19.0339 35.9026 18.845 35.8252 18.7339 35.6646C18.6394 35.5262 18.6339 35.2882 18.6172 31.585C18.6061 28.1088 18.6117 27.6272 18.6894 27.4224C18.7894 27.1622 19.0228 27.0183 19.3561 27.0183C19.4672 27.0183 19.6061 26.9906 19.6673 26.963C19.7784 26.9021 19.8117 26.7139 19.7117 26.6585C19.6839 26.6364 18.9228 26.6198 18.0228 26.6198C17.1227 26.6198 16.3616 26.6364 16.3338 26.6585C16.2338 26.7139 16.2671 26.9021 16.3783 26.963C16.4394 26.9906 16.5727 27.0183 16.6783 27.0183C16.9616 27.0183 17.1949 27.118 17.3116 27.284C17.4061 27.4224 17.4116 27.6715 17.4283 31.3525C17.4394 33.9985 17.4227 35.3436 17.3838 35.4875C17.3061 35.7698 17.1561 35.8639 16.6894 35.9414C16.406 35.9912 16.306 36.03 16.2838 36.1075C16.256 36.2237 16.0949 36.2016 15.7727 36.041C15.4282 35.8694 14.706 35.0502 14.1504 34.2088C13.5837 33.3564 12.7337 31.9006 12.6892 31.7013C12.6615 31.6072 12.7059 31.5574 12.9281 31.4356C13.5671 31.0813 14.0726 30.4613 14.2449 29.8192C14.3171 29.5591 14.3337 29.3211 14.3171 28.9225C14.3004 28.452 14.2726 28.3247 14.1226 28.0036C13.8115 27.3449 13.3004 26.9574 12.4503 26.736C11.9337 26.5976 10.4225 26.5533 9.02246 26.6364ZM11.7225 27.1844C12.617 27.4667 13.1059 28.2361 13.1059 29.3653C13.1059 30.3949 12.7726 31.0315 12.0781 31.3415C11.8503 31.4466 11.6725 31.4743 11.1003 31.4909C10.6336 31.5075 10.3614 31.4909 10.2781 31.4522L10.1614 31.3858L10.1725 29.2989L10.1892 27.2176L10.3281 27.1456C10.5503 27.0349 11.317 27.0571 11.7225 27.1844Z" fill="#AFAFB6"/>
<path d="M20.4339 26.653C20.3506 26.7416 20.3784 26.9021 20.4839 26.9519C20.5339 26.9796 20.6895 27.0183 20.8228 27.0405C21.2228 27.1014 21.4784 27.2785 21.6395 27.6051L21.7784 27.8929L21.7562 31.5629C21.7451 33.9819 21.7173 35.3104 21.6728 35.4543C21.5839 35.7698 21.4506 35.875 21.0339 35.9469C20.6561 36.0078 20.5617 36.0853 20.6339 36.2735C20.6617 36.3455 20.8895 36.3566 22.1784 36.351L23.6896 36.3455V36.1794C23.6896 36.0142 23.6841 36.0134 23.2901 35.9534L23.284 35.9525C22.5895 35.8473 22.5395 35.7864 22.4395 34.9063C22.3673 34.242 22.3617 28.4963 22.4395 28.5406C22.4673 28.5572 22.7395 28.8893 23.034 29.2768C23.334 29.6642 24.5896 31.264 25.8285 32.8305C27.0675 34.397 28.2397 35.886 28.4342 36.1407C28.7342 36.5337 28.7953 36.589 28.8842 36.5392C28.9842 36.4839 28.9897 36.3399 29.0064 32.0943C29.0231 28.7675 29.0453 27.6604 29.0953 27.4999C29.1842 27.2453 29.362 27.1235 29.762 27.046C30.0953 26.9796 30.2287 26.8578 30.1342 26.7083C30.0842 26.6364 29.8842 26.6198 28.5786 26.6198H27.0786L27.0619 26.7858C27.0397 26.974 27.0675 26.9906 27.5286 27.046C28.1286 27.1235 28.2231 27.2619 28.3286 28.2859C28.3953 28.9834 28.4064 34.0649 28.3342 34.0372C28.2508 34.0095 27.6341 33.2567 25.8063 30.9817C23.8951 28.607 23.1729 27.6494 22.8173 27.0183L22.584 26.6032H21.5395C20.9506 26.6032 20.4672 26.6253 20.4339 26.653Z" fill="#AFAFB6"/>
<path d="M40.1068 26.7139C40.0291 26.9242 40.0846 26.974 40.518 27.046C40.6346 27.0626 40.7902 27.118 40.8624 27.1678C41.1291 27.3394 41.1347 27.3892 41.1347 31.502C41.1347 34.9782 41.1235 35.3713 41.0402 35.5539C40.9235 35.8085 40.7346 35.9082 40.2624 35.958C39.9791 35.9912 39.8791 36.0189 39.8568 36.0964L39.8502 36.1163C39.8365 36.1567 39.8253 36.1901 39.8335 36.2176C39.8722 36.3462 40.3374 36.3476 42.9773 36.3559L43.1847 36.3566L46.4848 36.3621L46.5737 36.1351C46.7182 35.7477 47.0515 34.5465 47.0515 34.4081C47.0515 34.242 46.8626 34.1258 46.7737 34.2254C46.7404 34.2642 46.5959 34.5022 46.4571 34.7458C46.157 35.2882 45.9293 35.5705 45.7181 35.6812C45.3404 35.875 43.5125 35.9248 42.9181 35.7587C42.6069 35.6702 42.4125 35.4543 42.3347 35.1111C42.2958 34.9284 42.2736 34.1977 42.2736 33.2235C42.2736 31.8175 42.2847 31.6182 42.3625 31.5906C42.5014 31.5407 44.1125 31.5518 44.357 31.6127C44.6514 31.6791 44.807 31.8729 44.8848 32.2604C44.9181 32.4375 44.9681 32.6368 44.9959 32.7032C45.0515 32.836 45.2403 32.8748 45.3015 32.7751C45.3237 32.7419 45.3348 32.0666 45.3348 31.2695C45.3348 30.0462 45.3237 29.8137 45.257 29.775C45.1292 29.7085 45.007 29.7805 44.9737 29.941C44.9619 29.9995 44.9391 30.1212 44.9151 30.25L44.9148 30.2512L44.8848 30.4115C44.7737 30.9817 44.6625 31.0204 43.2181 30.9927L42.3014 30.9761V27.1567H43.5792C44.7792 27.1567 44.8681 27.1622 45.0792 27.2785C45.457 27.4778 45.6292 27.7269 45.8015 28.3081C45.8848 28.6014 45.907 28.6236 46.057 28.6236C46.207 28.6236 46.2182 28.607 46.2182 28.4132C46.2182 28.1752 46.0626 26.6807 46.0348 26.653C46.0237 26.6419 44.6959 26.6253 43.0847 26.6198C40.1902 26.6032 40.1457 26.6032 40.1068 26.7139Z" fill="#AFAFB6"/>
<path d="M65.9632 26.6253C65.9521 26.6364 65.941 26.7194 65.941 26.8024C65.941 26.963 66.0243 27.0183 66.2688 27.0183C66.3521 27.0183 66.5576 27.0848 66.7243 27.1678C66.9521 27.284 67.0577 27.3837 67.1632 27.5719L67.3021 27.821L67.3188 30.7271C67.3354 33.3453 67.2855 35.0834 67.1799 35.5595C67.1354 35.7643 66.9521 35.8805 66.5354 35.9525C66.2021 36.0134 66.191 36.0189 66.191 36.1794V36.3455L67.7021 36.3566C69.1022 36.3621 69.2188 36.3566 69.2466 36.2625C69.3077 36.0687 69.2244 35.9968 68.8688 35.958C68.4577 35.9082 68.191 35.8086 68.1188 35.6702C67.9632 35.3823 67.9244 34.707 67.9021 31.7788C67.8855 30.1126 67.8966 28.7066 67.9244 28.6347C67.9688 28.5184 68.0577 28.6125 68.8633 29.6587C69.3522 30.2898 70.6078 31.8895 71.6578 33.2125C72.7078 34.5354 73.7301 35.8362 73.9301 36.1075C74.2579 36.5503 74.3023 36.5891 74.3968 36.5282C74.4912 36.4617 74.4968 36.2735 74.519 32.1939C74.5357 27.9538 74.5579 27.4612 74.7301 27.2564C74.7857 27.1899 75.169 27.0626 75.5135 26.9907C75.6468 26.963 75.6691 26.9353 75.6524 26.7914L75.6357 26.6198H74.1357C72.8745 26.6198 72.6301 26.6309 72.5856 26.7028C72.5578 26.7471 72.5523 26.8246 72.569 26.8689C72.6023 26.963 72.6245 26.9685 73.1801 27.0792C73.3634 27.1124 73.5523 27.1844 73.6079 27.2397C73.7468 27.3781 73.8301 27.8044 73.8857 28.762C73.9523 29.786 73.9579 33.8822 73.8968 33.9819C73.8357 34.076 73.6468 33.8601 71.3411 30.9872C69.3522 28.5129 68.8966 27.9095 68.4022 27.1014L68.1188 26.6309L67.0521 26.6142C66.4688 26.6087 65.9743 26.6142 65.9632 26.6253Z" fill="#AFAFB6"/>
<path d="M100.331 26.6198C100.298 26.6308 100.275 26.7083 100.275 26.7969C100.275 26.9574 100.359 27.0183 100.575 27.0183C101.014 27.0183 101.492 27.3726 101.603 27.7767C101.681 28.0479 101.681 34.0151 101.609 34.862C101.525 35.7864 101.492 35.8418 100.859 35.9525C100.537 36.0134 100.525 36.0189 100.525 36.1794V36.3455H103.581V36.1794C103.581 36.0189 103.576 36.0134 103.192 35.9525C102.981 35.9193 102.748 35.875 102.676 35.8528C102.498 35.7975 102.403 35.5705 102.331 35.0668C102.253 34.5354 102.192 29.0886 102.259 28.7343L102.309 28.4852L102.914 29.2823C103.253 29.7196 104.487 31.2917 105.659 32.7696C106.831 34.2476 107.981 35.7089 108.209 36.0134L108.289 36.1196C108.48 36.376 108.632 36.5786 108.637 36.5835C108.648 36.5946 108.698 36.5835 108.748 36.5558C108.831 36.506 108.842 36.1407 108.854 32.2437L108.855 31.7759C108.866 28.0733 108.868 27.3783 109.185 27.1786C109.258 27.1325 109.348 27.1128 109.459 27.0885C109.48 27.0839 109.503 27.0789 109.526 27.0737C109.965 26.974 109.987 26.963 110.02 26.8744C110.037 26.8246 110.031 26.7526 110.009 26.7028C109.97 26.6364 109.731 26.6198 108.487 26.6198C107.67 26.6198 106.981 26.6364 106.948 26.653C106.781 26.7582 106.976 27.0183 107.215 27.0183C107.298 27.0183 107.498 27.0571 107.653 27.1014C108.198 27.2619 108.226 27.4501 108.259 31.1533C108.276 32.9744 108.265 34.0483 108.231 34.0483C108.165 34.0483 107.331 33.0408 105.409 30.644C103.681 28.4852 103.114 27.7324 102.731 27.0737L102.47 26.6253L101.425 26.6142C100.853 26.6087 100.359 26.6087 100.331 26.6198Z" fill="#AFAFB6"/>
<path d="M116.632 26.6253C116.62 26.6364 116.609 26.7139 116.609 26.7969C116.609 26.9353 116.632 26.9464 117.004 27.0017C117.393 27.0626 117.554 27.1512 117.682 27.3781C117.732 27.4556 117.759 28.38 117.782 30.5056C117.815 33.3065 117.826 33.5612 117.932 34.0483C118.309 35.7421 119.376 36.5503 121.221 36.5558C122.987 36.5614 124.126 35.6923 124.548 34.0206C124.732 33.2955 124.776 32.6035 124.776 30.6329C124.776 28.7952 124.832 27.6604 124.943 27.3837C125.015 27.1844 125.287 27.0349 125.649 26.9906C125.96 26.9519 126.065 26.8578 125.965 26.7028C125.887 26.581 123.004 26.581 122.932 26.7028C122.843 26.8689 122.943 26.9574 123.265 26.9962C123.882 27.0681 124.004 27.2176 124.11 28.0202C124.204 28.7398 124.248 31.9172 124.171 32.6921C124.06 33.9099 123.771 34.7125 123.248 35.2384C122.743 35.7532 122.015 35.9801 121.182 35.875C120.004 35.7255 119.348 35.0557 119.037 33.6996C118.937 33.2346 118.921 32.9633 118.904 30.5831C118.887 28.845 118.898 27.8652 118.937 27.6494C119.021 27.2065 119.154 27.0847 119.632 27.0072C120.015 26.9464 120.121 26.8578 120.021 26.7028C119.976 26.6364 119.693 26.6198 118.315 26.6142C117.404 26.6087 116.643 26.6142 116.632 26.6253Z" fill="#AFAFB6"/>
<path d="M126.243 26.6253C126.232 26.6364 126.221 26.7194 126.221 26.8024C126.221 26.974 126.243 26.9851 126.737 27.0405C127.082 27.0792 127.199 27.1456 127.315 27.3671C127.41 27.5276 127.415 27.8376 127.432 31.2695C127.443 33.7162 127.426 35.1 127.387 35.3104C127.304 35.7587 127.176 35.8694 126.643 35.9414L126.221 36.0023V36.3455L129.388 36.351L132.554 36.3621L132.688 35.9359C132.799 35.5761 132.988 34.8454 133.088 34.3915C133.104 34.2974 133.082 34.2531 132.988 34.2199C132.799 34.1479 132.76 34.1811 132.593 34.5908C132.349 35.183 132.071 35.5484 131.749 35.7089C131.488 35.8362 131.421 35.8418 130.499 35.8473C129.365 35.8473 129.082 35.7919 128.838 35.5096C128.743 35.4045 128.654 35.2163 128.615 35.0447C128.543 34.7015 128.532 27.9538 128.604 27.5719C128.665 27.284 128.854 27.0903 129.138 27.046C129.19 27.0377 129.261 27.028 129.332 27.0184C129.402 27.0087 129.474 26.9989 129.526 26.9906C129.682 26.963 129.721 26.9353 129.721 26.8357C129.721 26.7692 129.699 26.6862 129.676 26.6585C129.638 26.6032 126.299 26.5755 126.243 26.6253Z" fill="#AFAFB6"/>
<path d="M16.1227 41.2388C15.6005 41.4768 15.0338 42.3348 14.7504 43.3201L14.6227 43.7629L14.2671 43.7906C13.9504 43.8127 13.9115 43.8294 13.8949 43.9401C13.8782 44.0618 13.8949 44.0674 14.2171 44.0674C14.5171 44.0674 14.556 44.0784 14.5282 44.1615C14.4838 44.3054 14.206 45.4678 13.8838 46.8904C13.556 48.3075 13.4282 48.6839 13.2448 48.8057C13.0837 48.9109 12.9282 48.8721 12.6504 48.6562C12.4004 48.457 12.3115 48.457 12.2281 48.6341C12.1281 48.8444 12.1448 48.9607 12.2893 49.0935C12.5559 49.3426 13.0004 49.2983 13.4282 48.9884C13.8393 48.6894 14.0338 48.1857 14.5893 45.9992L15.0782 44.0951L15.5783 44.0674C16.0449 44.0397 16.0783 44.0286 16.0949 43.9124C16.1116 43.7961 16.1005 43.7906 15.6338 43.7906H15.1505L15.1894 43.6079C15.2782 43.2094 15.5727 42.3569 15.7338 42.058C15.9005 41.737 16.2672 41.355 16.4061 41.355C16.5616 41.355 16.7727 41.582 16.8061 41.7923C16.8616 42.13 16.9116 42.1743 17.0727 42.0248C17.1505 41.9529 17.2283 41.8255 17.245 41.737C17.2839 41.5598 17.1561 41.2775 17.0005 41.189C16.8283 41.1004 16.3783 41.1281 16.1227 41.2388Z" fill="#AFAFB6"/>
<path d="M56.0518 41.2C55.7184 41.272 55.674 41.3273 55.8184 41.4823C55.8851 41.5543 55.9406 41.6484 55.9406 41.6927C55.9406 41.7425 55.5795 42.9548 55.1351 44.394C54.6906 45.8332 54.3406 47.0288 54.3573 47.062C54.3795 47.0897 54.4517 47.1118 54.5239 47.1118C54.6406 47.1118 54.7073 47.0122 55.0184 46.3922C55.5351 45.3627 56.0295 44.6707 56.5629 44.239C57.224 43.702 57.3129 44.0618 56.874 45.5564C56.6629 46.3037 56.5629 46.5583 56.424 46.7078C56.3184 46.824 56.3073 46.8295 56.1629 46.741C55.9462 46.6137 55.8184 46.6801 55.8406 46.9015C55.8573 47.0565 55.8795 47.0897 56.0184 47.1008C56.2684 47.1285 56.4851 47.0067 56.7518 46.6801C57.1685 46.1708 57.5462 45.2741 57.6685 44.5157C57.7185 44.167 57.7129 44.0951 57.624 43.9124C57.5351 43.7297 57.4962 43.7076 57.2907 43.691C57.1351 43.6799 56.9796 43.7131 56.8184 43.7961C56.5129 43.9511 55.9406 44.4991 55.624 44.942C55.4851 45.1357 55.3628 45.2796 55.3517 45.2741C55.3406 45.263 55.6184 44.3497 55.9684 43.2481C56.3184 42.1466 56.6073 41.2166 56.6073 41.189C56.6073 41.1225 56.3907 41.1281 56.0518 41.2Z" fill="#AFAFB6"/>
<path d="M67.1077 41.2277C66.6966 41.3329 66.6577 41.3827 66.8521 41.5432C66.9966 41.6539 67.0077 41.6927 66.9744 41.8698C66.9521 41.9805 66.641 43.0378 66.2799 44.2168C65.5315 46.6506 65.4832 46.8076 65.5119 46.9492C65.5139 46.959 65.5162 46.9686 65.5188 46.979C65.5521 47.0952 65.5854 47.1118 65.8077 47.1118C66.1299 47.1118 66.4299 46.9569 66.691 46.6579C66.9466 46.3646 67.1244 46.0214 67.0521 45.9771C67.0244 45.9605 66.8188 46.1321 66.5966 46.3646C66.1799 46.7908 66.0521 46.8628 66.0521 46.6635C66.0521 46.5638 67.5133 41.7204 67.6577 41.3384C67.691 41.2499 67.7188 41.1724 67.7188 41.1558C67.7188 41.1115 67.4077 41.1447 67.1077 41.2277Z" fill="#AFAFB6"/>
<path fill-rule="evenodd" clip-rule="evenodd" d="M90.1529 41.2C89.914 41.2609 89.8862 41.344 90.0529 41.4934C90.114 41.5488 90.164 41.6318 90.164 41.6761C90.164 41.7425 89.6529 43.4197 89.5251 43.7795C89.5029 43.8404 89.4751 43.8349 89.3751 43.7685C89.0251 43.5194 88.4084 43.7629 87.7695 44.394C87.4251 44.7372 87.2973 44.9143 87.0917 45.3405C86.9306 45.6726 86.8084 46.0103 86.7695 46.2594C86.7084 46.6137 86.7084 46.669 86.8084 46.8683C86.9084 47.0731 86.925 47.0842 87.2028 47.1008C87.6751 47.1285 88.0751 46.8406 88.6751 46.0435C89.0195 45.573 89.0584 45.5841 88.8862 46.0933C88.6084 46.8849 88.6251 47.1118 88.964 47.1118C89.2696 47.1118 90.0251 46.4642 90.1363 46.1099C90.2085 45.8885 90.1085 45.9383 89.7196 46.3037C89.3307 46.669 89.2529 46.7133 89.1973 46.6192C89.1529 46.5528 89.7474 44.56 90.3585 42.7057C90.6196 41.9086 90.8307 41.2277 90.8307 41.1945C90.8307 41.1225 90.4418 41.1225 90.1529 41.2ZM89.2529 44.0452C89.3362 44.167 89.3418 44.2224 89.2807 44.4659C89.0807 45.3405 87.9973 46.6967 87.3973 46.8129C87.2417 46.8461 87.2195 46.8295 87.1862 46.7022C87.0639 46.2206 88.2306 44.3109 88.8584 43.9677C89.0362 43.8681 89.1529 43.8902 89.2529 44.0452Z" fill="#AFAFB6"/>
<path d="M153.527 41.2277C153.149 41.3384 153.122 41.3827 153.299 41.5488C153.427 41.665 153.444 41.7204 153.416 41.8698C153.394 41.9639 153.055 43.1042 152.66 44.3995C152.233 45.7778 151.944 46.8185 151.955 46.9181C151.972 47.0731 151.988 47.0842 152.238 47.1008C152.605 47.1229 152.933 46.9292 153.255 46.4919C153.477 46.1874 153.566 45.9494 153.455 45.9494C153.433 45.9494 153.283 46.0989 153.116 46.2815C152.777 46.669 152.572 46.8185 152.499 46.7465C152.466 46.7133 152.76 45.656 153.294 43.9124L154.149 41.1336L153.977 41.1392C153.883 41.1392 153.683 41.1779 153.527 41.2277Z" fill="#AFAFB6"/>
<path d="M45.8903 41.9196C45.7125 42.296 45.6348 42.5064 45.6736 42.5451C45.707 42.5839 45.7681 42.5451 45.8459 42.4344C46.0514 42.1411 46.3292 41.9141 46.5403 41.8532C46.8515 41.7702 47.7126 41.7812 47.7515 41.8698C47.7793 41.9473 46.6848 45.8442 46.4903 46.3701C46.357 46.7244 46.2737 46.7963 45.9459 46.8351C45.7792 46.8517 45.6848 46.8904 45.6736 46.9458C45.6625 47.0233 45.7903 47.0344 46.6626 47.0344C47.5459 47.0344 47.6626 47.0233 47.6515 46.9513C47.6404 46.896 47.5515 46.8517 47.3959 46.8295C47.1515 46.7963 47.0515 46.7188 47.0515 46.5528C47.0515 46.4033 48.3293 41.9473 48.396 41.8643C48.446 41.8089 48.6015 41.7923 49.0404 41.8089C49.5682 41.8255 49.6238 41.8366 49.7238 41.9584C49.796 42.047 49.8293 42.1743 49.8293 42.3569C49.8293 42.5617 49.8516 42.6282 49.9127 42.6282C49.9571 42.6282 49.996 42.5839 49.996 42.5285C50.0016 42.4787 50.0849 42.213 50.1905 41.9418C50.3849 41.4214 50.3905 41.2831 50.2071 41.4491C50.1016 41.5432 49.9571 41.5488 48.2348 41.5488C46.5292 41.5488 46.3681 41.5432 46.307 41.4491C46.2681 41.3993 46.2181 41.355 46.2014 41.355C46.1848 41.355 46.0459 41.6097 45.8903 41.9196Z" fill="#AFAFB6"/>
<path d="M136.554 41.5543C135.821 41.748 135.093 42.2185 134.682 42.7666C133.999 43.6688 133.749 44.7095 133.971 45.6616C134.182 46.5417 134.782 47.0454 135.732 47.1451C136.038 47.1727 136.566 47.1118 137.204 46.9735C137.338 46.9403 137.516 46.6469 137.716 46.1099C137.821 45.8332 137.827 45.728 137.721 45.728C137.699 45.728 137.599 45.8498 137.499 45.9992C137.116 46.6026 136.599 46.9126 135.999 46.907C135.377 46.9015 134.954 46.6358 134.715 46.0933C134.527 45.6782 134.504 44.798 134.654 44.1892C134.927 43.1153 135.527 42.3182 136.36 41.9252C136.738 41.748 136.86 41.7148 137.271 41.6982C137.682 41.6816 137.777 41.6982 137.932 41.7979C138.177 41.9528 138.299 42.2407 138.254 42.5839C138.227 42.7942 138.232 42.8496 138.299 42.8496C138.393 42.8496 138.754 41.7536 138.682 41.6871C138.46 41.4768 137.149 41.3938 136.554 41.5543Z" fill="#AFAFB6"/>
<path d="M8.29466 41.5709C8.21688 41.6484 8.30021 41.737 8.48355 41.7702C8.74467 41.82 8.82801 41.8864 8.82801 42.0525C8.82801 42.1964 7.77797 45.8885 7.60575 46.348C7.46685 46.7188 7.41129 46.7687 7.10017 46.824C6.95017 46.8517 6.85016 46.896 6.83905 46.9458C6.82794 47.0177 6.96128 47.0288 7.77242 47.0344C8.64467 47.0344 8.71689 47.0288 8.71689 46.9347C8.71689 46.8572 8.67245 46.8351 8.53355 46.8351C8.3391 46.8351 8.16132 46.7022 8.16132 46.5528C8.16132 46.5085 8.43911 45.49 8.78356 44.2888C9.47247 41.8698 9.48914 41.8366 9.9336 41.7646C10.0892 41.737 10.1614 41.6982 10.1614 41.6373C10.1614 41.5598 10.0503 41.5488 9.23913 41.5488C8.73356 41.5488 8.30577 41.5598 8.29466 41.5709Z" fill="#AFAFB6"/>
<path d="M93.9808 41.5986C93.9419 41.7038 93.9697 41.7204 94.2308 41.7702C94.5308 41.8255 94.5864 41.9141 94.5086 42.2352C94.4753 42.3846 94.2086 43.1872 93.9141 44.0176C92.9752 46.6746 92.9308 46.7631 92.5085 46.8185C92.3419 46.8406 92.2752 46.8738 92.2752 46.9403C92.2752 47.0177 92.3752 47.0288 93.1086 47.0288C93.8252 47.0288 93.9419 47.0177 93.9419 46.9403C93.9419 46.8849 93.8586 46.8406 93.7086 46.8019C93.4919 46.7576 93.4697 46.7354 93.453 46.5749C93.4419 46.4587 93.6475 45.7501 94.053 44.5545C94.3919 43.5415 94.7031 42.6337 94.7419 42.5451L94.8142 42.3791L94.8475 42.6558C94.8642 42.8053 94.9586 43.8183 95.0586 44.8977C95.1531 45.9771 95.2475 46.8738 95.2586 46.8904C95.292 46.9236 95.3475 46.8461 95.7864 46.1708C96.2253 45.49 98.3921 42.3957 98.4198 42.4178C98.4476 42.451 97.3865 46.1874 97.2809 46.4199C97.1531 46.7022 97.0531 46.7853 96.7753 46.8185C96.6198 46.8406 96.5531 46.8738 96.5531 46.9403C96.5531 47.0177 96.6642 47.0288 97.5143 47.0288C98.3254 47.0288 98.4698 47.0177 98.4698 46.9458C98.4698 46.8904 98.3976 46.8517 98.2476 46.8351C97.9532 46.7963 97.8865 46.7465 97.8865 46.5805C97.8865 46.4199 98.7754 42.8883 98.9476 42.368C99.0754 41.975 99.231 41.8255 99.5532 41.7702C99.7088 41.7425 99.7754 41.7038 99.7754 41.6429C99.7754 41.5598 99.6977 41.5488 99.1532 41.5488H98.5365L98.3309 41.9362C98.1421 42.3016 95.8253 45.6339 95.7142 45.7003C95.6864 45.7225 95.6642 45.6948 95.6642 45.645C95.6642 45.5951 95.5864 44.8922 95.492 44.0784C95.3975 43.2647 95.3142 42.368 95.3086 42.0912L95.3031 41.5764H94.7364C94.4253 41.5764 94.1364 41.5598 94.0919 41.5432C94.0475 41.5266 93.9975 41.5543 93.9808 41.5986Z" fill="#AFAFB6"/>
<path d="M34.9733 42.0857C34.7622 42.4178 34.8233 42.7389 35.1011 42.7389C35.1844 42.7389 35.3011 42.6946 35.3511 42.6337C35.4789 42.4953 35.5289 42.1521 35.44 42.047C35.3345 41.9196 35.0678 41.9418 34.9733 42.0857Z" fill="#AFAFB6"/>
<path d="M157.694 42.0968C157.572 42.285 157.6 42.7057 157.738 42.7278C158.022 42.7832 158.222 42.5839 158.222 42.2518C158.222 42.058 158.127 41.9639 157.933 41.9639C157.833 41.9639 157.75 42.0082 157.694 42.0968Z" fill="#AFAFB6"/>
<path d="M32.4454 43.3976L32.4377 43.4125C32.2232 43.8295 32.2202 43.8353 31.9621 43.8736C31.6232 43.9235 31.551 43.9511 31.551 44.0452C31.551 44.1006 31.6287 44.1227 31.8288 44.1227C31.9899 44.1227 32.1065 44.1449 32.1065 44.1836C32.1065 44.2168 31.9288 44.8036 31.7176 45.4955C31.4954 46.204 31.3287 46.8185 31.3398 46.9181C31.3565 47.062 31.3787 47.0842 31.5399 47.1008C31.7788 47.1229 32.1732 46.8794 32.5732 46.4421C33.0621 45.9162 33.0788 45.6394 32.5954 46.0989C32.2232 46.4476 32.0065 46.5915 31.9399 46.5251C31.8954 46.4753 32.5566 44.2611 32.6454 44.1726C32.6677 44.1504 32.8788 44.1227 33.1066 44.1117C33.4899 44.0951 33.5233 44.084 33.5399 43.9677C33.5566 43.8515 33.5399 43.846 33.1399 43.846H32.7177L32.751 43.691C32.7701 43.6198 32.8095 43.4795 32.8449 43.3537L32.8621 43.2924C32.9177 43.1042 32.9232 43.0378 32.8677 43.0046C32.7232 42.9105 32.6566 42.9769 32.4454 43.3976Z" fill="#AFAFB6"/>
<path d="M130.226 43.3976L130.219 43.4125C130.004 43.8295 130.001 43.8353 129.743 43.8736C129.404 43.9235 129.332 43.9511 129.332 44.0452C129.332 44.1006 129.41 44.1227 129.61 44.1227C129.771 44.1227 129.888 44.1449 129.888 44.1836C129.888 44.2168 129.71 44.8036 129.499 45.4955C129.276 46.204 129.11 46.8185 129.121 46.9181C129.138 47.062 129.16 47.0842 129.321 47.1008C129.56 47.1229 129.954 46.8794 130.354 46.4421C130.865 45.8941 130.86 45.6394 130.349 46.1265C129.993 46.4642 129.788 46.5915 129.721 46.5196C129.676 46.4753 130.343 44.2556 130.426 44.1726C130.449 44.1504 130.66 44.1227 130.888 44.1117C131.271 44.0951 131.304 44.084 131.321 43.9677C131.338 43.8515 131.321 43.846 130.921 43.846H130.499L130.532 43.691C130.551 43.6201 130.59 43.4806 130.625 43.3552L130.626 43.3521L130.643 43.2924C130.699 43.1042 130.704 43.0378 130.649 43.0046C130.504 42.9105 130.438 42.9769 130.226 43.3976Z" fill="#AFAFB6"/>
<path d="M155.177 43.3976C154.949 43.8183 154.933 43.8404 154.705 43.8736C154.349 43.929 154.277 43.9567 154.277 44.0452C154.277 44.1006 154.349 44.1227 154.555 44.1227C154.749 44.1227 154.833 44.1449 154.833 44.1947C154.833 44.239 154.655 44.8368 154.444 45.5343C154.227 46.2317 154.055 46.8628 154.066 46.9402C154.077 47.0565 154.116 47.0897 154.261 47.1008C154.555 47.1285 155.016 46.8185 155.449 46.2981C155.638 46.0657 155.733 45.8387 155.633 45.8387C155.616 45.8387 155.422 45.9992 155.211 46.1985C154.811 46.5638 154.666 46.6358 154.666 46.4587C154.666 46.4088 154.822 45.8664 155.016 45.2575L155.361 44.1504L155.822 44.1338C156.266 44.1172 156.277 44.1117 156.277 43.9843C156.277 43.8515 156.266 43.846 155.866 43.846H155.455L155.555 43.4474C155.666 43.0267 155.661 42.9603 155.511 42.9603C155.449 42.9603 155.333 43.1153 155.177 43.3976Z" fill="#AFAFB6"/>
<path fill-rule="evenodd" clip-rule="evenodd" d="M30.3009 43.7076C30.2065 43.9401 30.2009 43.9511 30.0898 43.8736C29.6676 43.5803 28.8176 44.1006 28.1953 45.0305C27.9009 45.4734 27.6175 46.0933 27.5397 46.4642C27.4786 46.741 27.4842 46.8074 27.5564 46.9347C27.6286 47.062 27.6731 47.0842 27.8953 47.0786C28.1009 47.0786 28.2064 47.0344 28.512 46.8185C28.712 46.6746 29.012 46.4089 29.1731 46.2262C29.3287 46.0435 29.4676 45.9051 29.4787 45.9162C29.4898 45.9217 29.4342 46.1155 29.3565 46.3424C29.2787 46.5694 29.2231 46.824 29.2287 46.9181C29.2454 47.0676 29.2676 47.0842 29.4676 47.1008C29.6398 47.1118 29.7509 47.0786 29.9565 46.9458C30.2454 46.752 30.6621 46.3092 30.6621 46.193C30.6621 46.0767 30.6287 46.0933 30.2676 46.3922C29.9398 46.669 29.7176 46.7465 29.7176 46.586C29.7176 46.5417 29.9454 45.8608 30.2232 45.0693C30.5009 44.2722 30.7176 43.5913 30.6954 43.5415C30.6787 43.4972 30.6065 43.4585 30.5287 43.4585C30.4176 43.4585 30.3732 43.5083 30.3009 43.7076ZM29.862 44.2058C29.9102 44.2537 29.9429 44.2863 29.9586 44.3256C29.992 44.4088 29.9497 44.5222 29.8176 44.8755C29.6065 45.4512 28.9898 46.2428 28.4953 46.586C28.112 46.8517 28.0286 46.6912 28.1953 46.038C28.3842 45.2962 28.9176 44.4382 29.3565 44.1725C29.5787 44.0342 29.6954 44.0397 29.862 44.2058Z" fill="#AFAFB6"/>
<path fill-rule="evenodd" clip-rule="evenodd" d="M81.9138 43.7131C81.8249 43.9456 81.8138 43.9567 81.7249 43.8792C81.5082 43.6854 81.0137 43.8183 80.5304 44.1947C80.0359 44.5822 79.3748 45.6616 79.1914 46.3756C79.1137 46.6801 79.1137 46.741 79.1859 46.9126C79.2637 47.0952 79.2914 47.1118 79.4859 47.1118C79.7748 47.1118 80.2526 46.7963 80.7415 46.2815C80.9415 46.0657 81.1082 45.9107 81.1082 45.9383C81.1082 45.966 81.0471 46.1708 80.9693 46.3978C80.8915 46.6247 80.8359 46.8683 80.8415 46.9458C80.8637 47.1506 81.1971 47.1672 81.5137 46.979C81.7915 46.8185 82.2749 46.3258 82.2749 46.1985C82.2749 46.0767 82.236 46.0933 81.9526 46.3424C81.636 46.6192 81.4582 46.7078 81.386 46.6358C81.3304 46.5805 81.5137 45.9992 82.1249 44.2833C82.386 43.547 82.3915 43.4585 82.1304 43.4585C82.0415 43.4585 81.9915 43.5194 81.9138 43.7131ZM81.4749 44.2002C81.6249 44.3275 81.6304 44.3386 81.5582 44.5711C81.4249 45.0139 81.0471 45.6616 80.7026 46.038C80.347 46.4255 79.9748 46.7244 79.8526 46.7244C79.5192 46.7244 80.0415 45.1468 80.5859 44.5157C80.8137 44.2556 81.0804 44.0674 81.2304 44.0674C81.2804 44.0674 81.3915 44.1283 81.4749 44.2002Z" fill="#AFAFB6"/>
<path fill-rule="evenodd" clip-rule="evenodd" d="M102.103 43.7131C102.003 43.9567 101.992 43.9677 101.892 43.8792C101.492 43.5194 100.448 44.239 99.8366 45.3073C99.2421 46.348 99.1588 47.1118 99.6421 47.1118C99.9865 47.1118 100.448 46.8019 101.009 46.204L101.325 45.8664L101.159 46.3867C100.964 46.9956 100.981 47.1118 101.253 47.1118C101.576 47.1118 102.003 46.8461 102.326 46.4421C102.581 46.1265 102.476 46.049 102.159 46.3258C101.898 46.5528 101.714 46.669 101.603 46.669C101.492 46.669 101.576 46.3812 102.076 44.953C102.342 44.2113 102.542 43.5692 102.531 43.5304C102.514 43.4917 102.437 43.4585 102.359 43.4585C102.242 43.4585 102.198 43.5028 102.103 43.7131ZM101.67 44.1836C101.82 44.3331 101.792 44.5545 101.537 45.0859C101.303 45.573 100.909 46.0933 100.564 46.3812C100.07 46.7908 99.9421 46.8019 99.9421 46.4531C99.9421 45.8885 100.375 44.9641 100.887 44.4382C101.287 44.0286 101.459 43.9733 101.67 44.1836Z" fill="#AFAFB6"/>
<path fill-rule="evenodd" clip-rule="evenodd" d="M109.72 43.5083C109.72 43.536 109.681 43.6467 109.631 43.7629C109.554 43.9567 109.542 43.9622 109.448 43.8792C109.192 43.6522 108.559 43.8847 108.07 44.3884C107.303 45.1745 106.703 46.5528 106.937 46.9901C107.109 47.3167 107.765 47.0122 108.465 46.2871C108.676 46.0712 108.831 45.9328 108.815 45.9882C108.808 46.0218 108.779 46.1205 108.742 46.245L108.741 46.2466C108.718 46.3267 108.691 46.418 108.665 46.5085C108.592 46.741 108.554 46.9735 108.57 47.0233C108.615 47.1451 108.97 47.1395 109.198 47.0122C109.576 46.8074 110.098 46.2483 110.004 46.1542C109.965 46.1155 109.87 46.1708 109.692 46.3314C109.404 46.5971 109.187 46.7133 109.109 46.6358C109.054 46.5805 109.098 46.4421 109.72 44.6818C110.037 43.7851 110.104 43.5471 110.042 43.5083C109.948 43.4474 109.72 43.4474 109.72 43.5083ZM109.204 44.1892C109.276 44.2556 109.331 44.3608 109.331 44.4216C109.326 44.5932 109.042 45.2243 108.815 45.5675C108.587 45.9107 107.965 46.5417 107.742 46.658C107.52 46.7742 107.442 46.6469 107.503 46.2926C107.659 45.4623 108.142 44.5766 108.631 44.2224C108.892 44.0342 109.031 44.0286 109.204 44.1892Z" fill="#AFAFB6"/>
<path d="M10.4947 43.8349C10.2392 43.9954 9.8836 44.3608 9.8836 44.4549C9.8836 44.549 9.97249 44.5157 10.2725 44.3165C10.5725 44.1117 10.717 44.0729 10.717 44.1947C10.717 44.2334 10.517 44.8589 10.2725 45.5896C10.028 46.3203 9.82804 46.9624 9.82804 47.0122C9.82804 47.0842 9.87249 47.1118 9.9836 47.1118C10.1225 47.1118 10.1669 47.0565 10.517 46.348C10.7225 45.9328 11.0281 45.3903 11.1892 45.1468C11.5337 44.6264 12.2226 43.9401 12.367 43.9677C12.5726 44.0065 12.5115 44.2999 12.0226 45.6062C11.7559 46.3148 11.5503 46.9347 11.5614 46.9901C11.5948 47.1561 11.9503 47.1395 12.2781 46.9624C12.5948 46.7908 12.9948 46.3756 12.9948 46.2206C12.9948 46.1598 12.9781 46.1155 12.9615 46.1155C12.9448 46.1155 12.7892 46.2373 12.6226 46.3922C12.3226 46.6635 12.1614 46.7354 12.1614 46.5971C12.1614 46.5638 12.3003 46.1874 12.467 45.7612C13.0004 44.4272 13.0837 44.0508 12.9059 43.8017C12.7781 43.619 12.4226 43.6356 12.1003 43.8349C11.7892 44.0342 11.3614 44.5047 11.0003 45.0416C10.8447 45.2741 10.717 45.4402 10.717 45.4125C10.717 45.3848 10.8281 45.0527 10.967 44.6707C11.1059 44.2943 11.2114 43.9235 11.2059 43.846C11.1892 43.7297 11.1559 43.7076 10.967 43.691C10.8003 43.6799 10.6836 43.7131 10.4947 43.8349Z" fill="#AFAFB6"/>
<path fill-rule="evenodd" clip-rule="evenodd" d="M17.195 43.8017C16.5227 44.1504 15.8838 45.2907 15.8838 46.1432C15.8838 46.8074 16.1227 47.1118 16.6505 47.1118C17.0616 47.1118 17.3728 46.9569 17.6894 46.5971C18.5061 45.6671 18.7561 44.2445 18.1895 43.8017C17.9839 43.6356 17.5005 43.6356 17.195 43.8017ZM17.9061 44.0231C18.0339 44.2058 18.0172 44.5932 17.8506 45.1523C17.5561 46.1874 17.095 46.8904 16.7172 46.8904C16.2338 46.8904 16.2894 45.9716 16.8561 44.8147C17.245 44.0065 17.6728 43.6854 17.9061 44.0231Z" fill="#AFAFB6"/>
<path d="M19.8506 43.7795C19.6839 43.8847 19.3283 44.3774 19.3283 44.4991C19.3283 44.6154 19.4394 44.5711 19.6061 44.3774C19.7894 44.167 19.9839 44.0895 20.0283 44.2058C20.0617 44.2888 19.8895 44.9586 19.5228 46.1155C19.3839 46.5583 19.2728 46.9624 19.2728 47.0122C19.2728 47.0842 19.3172 47.1118 19.445 47.1118C19.5839 47.1118 19.6228 47.0786 19.695 46.9015C20.1561 45.7834 20.7173 44.6873 21.0173 44.3165C21.1284 44.1781 21.1617 44.167 21.2339 44.2224C21.2839 44.2667 21.3395 44.3718 21.3562 44.4604C21.3784 44.549 21.4284 44.6209 21.4728 44.6209C21.6617 44.6209 21.8117 43.9068 21.6506 43.7463C21.5617 43.6578 21.3228 43.6633 21.1784 43.7629C21.0284 43.8681 20.7117 44.3386 20.3784 44.9752C20.2284 45.252 20.1061 45.4457 20.1061 45.4069C20.1061 45.3627 20.1839 45.0859 20.2784 44.787C20.3895 44.4161 20.4395 44.1559 20.4284 43.9733C20.4117 43.7131 20.4061 43.7076 20.2172 43.691C20.1006 43.6854 19.9561 43.7186 19.8506 43.7795Z" fill="#AFAFB6"/>
<path d="M22.7284 43.7961C22.4673 43.9235 22.1617 44.2556 22.1617 44.4106C22.1617 44.549 22.2284 44.5323 22.3895 44.3663C22.5618 44.1781 22.8784 44.0397 22.9562 44.1172C22.9951 44.1559 22.8673 44.6154 22.5618 45.5509C22.3118 46.3148 22.1062 46.9735 22.1062 47.0233C22.1062 47.0842 22.1562 47.1118 22.2618 47.1118C22.4006 47.1118 22.4395 47.0565 22.7895 46.348C23.2562 45.3903 23.634 44.8147 24.1118 44.3275C24.3952 44.0397 24.5229 43.9511 24.6174 43.9677C24.6841 43.9788 24.7507 44.0286 24.7618 44.0784C24.7729 44.1338 24.5674 44.8036 24.3063 45.5675C24.0451 46.3314 23.8285 46.9956 23.8285 47.0344C23.8285 47.0842 23.8896 47.1118 23.984 47.1118C24.134 47.1118 24.1729 47.0565 24.5285 46.3812C25.0007 45.4734 25.4619 44.7704 25.9008 44.3109C26.2285 43.9567 26.4119 43.8736 26.4786 44.0508C26.5286 44.1781 26.4341 44.4991 25.9619 45.7612C25.7285 46.3812 25.5508 46.9292 25.5619 46.9845C25.5841 47.1229 25.9341 47.1451 26.173 47.0233C26.4674 46.8738 26.7952 46.586 26.9119 46.3756C27.0675 46.0878 26.973 46.0601 26.7008 46.3203C26.4897 46.5251 26.2786 46.669 26.1952 46.669C26.1174 46.669 26.1841 46.4587 26.5286 45.5785C26.9675 44.477 27.0619 44.0397 26.923 43.8238C26.8452 43.7076 26.7841 43.6799 26.6063 43.6799C26.4897 43.6799 26.3286 43.702 26.2452 43.7352C25.9897 43.8294 25.5452 44.3054 25.1563 44.8922C24.9452 45.2077 24.7729 45.4568 24.7729 45.4402C24.7729 45.4235 24.8618 45.1689 24.9674 44.8755C25.1618 44.3331 25.2063 43.9788 25.1063 43.7851C25.023 43.6356 24.6396 43.6411 24.384 43.7961C24.0063 44.0231 23.5896 44.4991 23.1951 45.1523C23.084 45.3294 22.9951 45.4512 22.9951 45.4235C22.9951 45.3903 23.1118 45.0305 23.2562 44.6209C23.4062 44.1892 23.5007 43.8294 23.4785 43.774C23.4285 43.6411 23.0284 43.6522 22.7284 43.7961Z" fill="#AFAFB6"/>
<path d="M34.6678 43.8017C34.34 43.9733 33.8844 44.3829 33.8844 44.5157C33.8844 44.632 33.9677 44.6597 34.0233 44.56C34.0733 44.4825 34.5011 44.1781 34.5622 44.1781C34.6511 44.1781 34.6011 44.3497 34.1066 45.6339C33.8233 46.3701 33.6177 46.9735 33.6399 47.0233C33.6955 47.1727 34.0511 47.134 34.3622 46.9403C34.7178 46.7188 35.1622 46.2871 35.1622 46.1598C35.1622 46.0158 35.1178 46.0324 34.8567 46.276C34.7233 46.3978 34.54 46.5362 34.4455 46.5805C34.2789 46.669 34.2733 46.669 34.2733 46.5583C34.2733 46.4974 34.49 45.8885 34.7511 45.2077C35.0122 44.5213 35.2178 43.9068 35.2067 43.8349C35.1844 43.6578 34.9733 43.6467 34.6678 43.8017Z" fill="#AFAFB6"/>
<path fill-rule="evenodd" clip-rule="evenodd" d="M37.2345 43.7961C36.5011 44.1559 35.8011 45.5121 35.9122 46.359C35.9844 46.9181 36.1844 47.1118 36.69 47.1118C37.0678 47.1118 37.3622 46.9624 37.7011 46.6081C38.5289 45.728 38.7956 44.0895 38.1567 43.7629C37.9345 43.6467 37.5067 43.6578 37.2345 43.7961ZM37.8734 43.9456C37.9789 44.012 38.0567 44.3441 38.0178 44.5656C37.9623 44.8977 37.7122 45.6837 37.5511 46.0435C37.3345 46.5196 36.9789 46.8904 36.7455 46.8904C36.6455 46.8904 36.5344 46.8517 36.4955 46.8074C36.2789 46.5528 36.4455 45.7114 36.8844 44.8091C37.2456 44.0674 37.59 43.7685 37.8734 43.9456Z" fill="#AFAFB6"/>
<path d="M39.9346 43.8349C39.7957 43.9235 39.6012 44.0951 39.5068 44.2113C39.2068 44.5711 39.2845 44.6098 39.7179 44.3165C40.0179 44.1117 40.1623 44.0729 40.1623 44.1947C40.1623 44.2334 39.9623 44.8589 39.7179 45.5896C39.4734 46.3203 39.2734 46.9624 39.2734 47.0122C39.2734 47.0842 39.3179 47.1118 39.429 47.1118C39.5679 47.1118 39.6123 47.0565 39.9623 46.348C40.1735 45.9328 40.4512 45.418 40.5901 45.2077C40.9179 44.7039 41.6679 43.9401 41.8068 43.9677C42.018 44.0065 41.9568 44.2888 41.4679 45.6118C41.2013 46.3148 40.9957 46.9403 41.0068 46.9901C41.0401 47.1561 41.4013 47.1395 41.7235 46.9624C42.0402 46.7908 42.4402 46.3756 42.4402 46.2206C42.4402 46.1598 42.4235 46.1155 42.4069 46.1155C42.3902 46.1155 42.2346 46.2373 42.068 46.3922C41.7679 46.6635 41.6068 46.7354 41.6068 46.5971C41.6068 46.5638 41.7457 46.1874 41.9124 45.7612C42.4457 44.4272 42.5291 44.0508 42.3513 43.8017C42.2235 43.619 41.868 43.6356 41.5457 43.8349C41.2346 44.0342 40.8068 44.5047 40.4457 45.0416C40.2901 45.2741 40.1623 45.4457 40.1623 45.4235C40.1623 45.4014 40.279 45.0637 40.4179 44.6707C40.5568 44.2777 40.6624 43.9013 40.6512 43.8349C40.6235 43.6301 40.2568 43.6301 39.9346 43.8349Z" fill="#AFAFB6"/>
<path fill-rule="evenodd" clip-rule="evenodd" d="M50.2961 43.846C49.5238 44.2833 48.8849 45.3959 48.8849 46.2981C48.8849 46.6413 49.0294 47.0178 49.1905 47.0786C49.3627 47.1451 49.7849 47.1119 49.9849 47.0178C50.2405 46.896 50.6627 46.4974 50.6627 46.3756C50.6627 46.2428 50.6405 46.2539 50.3072 46.503C50.0905 46.6635 49.9627 46.7244 49.8127 46.7244C49.5349 46.7244 49.4405 46.5749 49.4405 46.1321C49.4405 45.6284 49.4905 45.5343 49.8405 45.4236C50.2349 45.2907 50.7572 45.0305 51.0072 44.8313C51.285 44.6154 51.4183 44.2611 51.3294 43.9899C51.2961 43.8792 51.2183 43.7629 51.1628 43.7353C50.9627 43.6301 50.5905 43.6744 50.2961 43.846ZM50.9016 44.0176C50.9961 44.167 50.7461 44.5988 50.4072 44.8645C50.1405 45.0693 49.6072 45.3295 49.6072 45.2464C49.6072 45.1191 50.0238 44.477 50.2794 44.2168C50.6072 43.8792 50.7794 43.8238 50.9016 44.0176Z" fill="#AFAFB6"/>
<path d="M53.085 43.8017C52.6127 44.0452 52.0849 44.7482 51.846 45.4457C51.6683 45.966 51.6683 46.6358 51.846 46.896C51.9572 47.062 52.0016 47.0842 52.2627 47.1008C52.4961 47.1118 52.6072 47.0897 52.835 46.9679C53.135 46.8019 53.4961 46.4421 53.4961 46.3092C53.4961 46.1985 53.4183 46.204 53.3239 46.3203C53.1905 46.4808 52.7572 46.7244 52.6072 46.7244C52.3572 46.7244 52.2516 46.5472 52.2572 46.1653C52.285 45.2962 52.8127 44.1449 53.2739 43.9567C53.4905 43.8681 53.6072 43.9622 53.6572 44.2722C53.685 44.4382 53.7183 44.4881 53.8183 44.4991C54.1517 44.549 54.3017 44.0176 54.0183 43.7961C53.8183 43.6411 53.3794 43.6411 53.085 43.8017Z" fill="#AFAFB6"/>
<path d="M59.0908 43.7961C58.8463 43.9235 58.4407 44.322 58.4407 44.4327C58.4407 44.5434 58.463 44.5323 58.7796 44.3165C59.0574 44.1283 59.1685 44.0895 59.2297 44.1559C59.2463 44.1725 59.0519 44.8147 58.7963 45.5785C58.5407 46.3424 58.3296 47.0011 58.3296 47.0399C58.3296 47.0842 58.3963 47.1118 58.4963 47.1118C58.6519 47.1118 58.6796 47.0731 59.0574 46.3258C59.5463 45.3516 59.9075 44.8147 60.3908 44.3275C60.763 43.9567 60.9519 43.8736 61.0186 44.0452C61.0686 44.1725 60.9853 44.4327 60.5186 45.6893C60.2908 46.2981 60.1075 46.8628 60.1075 46.9513C60.1075 47.1008 60.1241 47.1118 60.313 47.1118C60.4241 47.1118 60.6241 47.062 60.7575 46.9956C61.1242 46.8185 61.7242 46.1155 61.5075 46.1155C61.4797 46.1155 61.3408 46.2262 61.1964 46.3646C60.9408 46.5971 60.7408 46.7133 60.6853 46.6524C60.6686 46.6358 60.8353 46.1653 61.0575 45.6118C61.3575 44.8368 61.4631 44.5047 61.4797 44.2279C61.5186 43.7851 61.4408 43.6799 61.0797 43.6799C60.8853 43.6799 60.7797 43.7242 60.5186 43.9179C60.213 44.1449 59.6797 44.7704 59.3908 45.2409C59.3241 45.3571 59.2574 45.4512 59.2408 45.4512C59.2297 45.4512 59.3463 45.097 59.4963 44.6652C59.6519 44.2334 59.763 43.8349 59.7408 43.7795C59.7019 43.6411 59.3686 43.6522 59.0908 43.7961Z" fill="#AFAFB6"/>
<path fill-rule="evenodd" clip-rule="evenodd" d="M63.5687 43.7961C62.8798 44.1338 62.252 45.2686 62.252 46.1708C62.252 46.8572 62.4575 47.1118 63.0131 47.1118C63.4298 47.1118 63.6742 46.9845 64.0409 46.586C64.8854 45.6671 65.1354 44.0895 64.4909 43.7629C64.2631 43.6411 63.8409 43.6578 63.5687 43.7961ZM64.2076 43.9456C64.4409 44.0951 64.3965 44.6707 64.0798 45.5453C63.8631 46.1487 63.6853 46.4697 63.4298 46.7188C63.2853 46.8628 63.2075 46.8904 63.052 46.8794C62.6798 46.8461 62.6353 46.4476 62.9186 45.5509C63.2742 44.4161 63.8409 43.7131 64.2076 43.9456Z" fill="#AFAFB6"/>
<path fill-rule="evenodd" clip-rule="evenodd" d="M68.9022 43.7961C68.3744 44.0563 67.8188 44.8645 67.6355 45.6228C67.491 46.2428 67.5521 46.6801 67.8299 46.9569C67.9688 47.0952 68.0299 47.1118 68.3411 47.1118C68.6355 47.1118 68.7411 47.0842 68.9466 46.9569C69.6411 46.514 70.1633 45.5232 70.1633 44.6486C70.1633 44.1836 70.0911 43.9788 69.8522 43.7961C69.6522 43.6411 69.2189 43.6411 68.9022 43.7961ZM69.58 44.012C69.8744 44.3331 69.3466 46.1044 68.7855 46.6801C68.5688 46.9126 68.2911 46.9624 68.1633 46.8074C68.0244 46.6413 68.0355 46.2262 68.1911 45.7003C68.5744 44.405 69.2189 43.6135 69.58 44.012Z" fill="#AFAFB6"/>
<path fill-rule="evenodd" clip-rule="evenodd" d="M72.0134 43.8127C71.4023 44.1006 70.9856 44.7316 70.9467 45.4402C70.9245 45.8941 70.9967 46.0546 71.2745 46.1985L71.4412 46.2815L71.269 46.586C71.0967 46.896 71.0912 47.0399 71.2523 47.2226C71.3134 47.2945 71.269 47.3333 70.9078 47.5215C70.4634 47.7484 70.1411 48.0639 70.0911 48.3241C69.9578 48.9717 70.6801 49.3703 71.7134 49.2264C72.2746 49.1489 72.669 48.9828 72.8857 48.7393C73.1024 48.4902 73.1412 48.3075 73.0468 48.0307C72.969 47.8038 72.8857 47.7318 71.9468 47.0731C71.6023 46.8295 71.4856 46.6247 71.5912 46.4531C71.619 46.4033 71.7968 46.2871 71.9857 46.1985C72.4357 45.9826 72.7912 45.6284 73.0079 45.1855C73.1579 44.8866 73.1857 44.7648 73.1857 44.4438V44.0618L73.5302 44.0951C73.7432 44.1194 73.8223 44.1285 73.8614 44.0933C73.8844 44.0726 73.8935 44.0364 73.9079 43.9788C73.9746 43.7242 73.8635 43.6688 73.4524 43.7463C73.1857 43.7961 73.0579 43.7961 72.919 43.7463C72.6412 43.6467 72.3301 43.6688 72.0134 43.8127ZM72.7079 43.9677C72.9357 44.1947 72.4357 45.4125 71.9245 45.8719C71.6801 46.0933 71.5301 46.1099 71.4079 45.9217C71.269 45.7059 71.4245 45.1966 71.8468 44.5268C72.1801 43.9899 72.5135 43.774 72.7079 43.9677ZM71.9745 47.7097C72.6023 48.1138 72.7635 48.468 72.4468 48.7282C71.9468 49.1489 70.8967 49.0382 70.6467 48.54C70.5578 48.3573 70.5578 48.3186 70.6245 48.1525C70.7523 47.8481 71.2301 47.5049 71.5301 47.4993C71.5912 47.4993 71.7968 47.5934 71.9745 47.7097Z" fill="#AFAFB6"/>
<path d="M74.7246 43.8404C74.5468 44.0065 74.2746 44.5157 74.2746 44.6873C74.2746 44.8534 74.369 44.8423 74.4468 44.6707C74.5246 44.4715 74.7579 44.1781 74.8357 44.1781C74.8635 44.1781 74.9246 44.2611 74.9802 44.3552C75.1246 44.6209 75.1246 46.7465 74.9802 47.2668C74.8357 47.8038 74.619 48.2134 74.3024 48.5345C73.9857 48.861 73.8246 48.8998 73.6857 48.6894C73.519 48.4293 73.1634 48.5621 73.1634 48.8832C73.1634 49.1821 73.4523 49.3316 73.8135 49.2153C74.0968 49.1212 74.7691 48.4348 75.1802 47.8148C75.9858 46.6026 76.7524 44.8479 76.8191 44.084C76.8413 43.7519 76.8413 43.7408 76.7025 43.7076C76.4969 43.6522 76.4524 43.702 76.4136 44.001C76.3302 44.632 76.2024 45.2298 76.0691 45.6173C75.9247 46.0324 75.508 46.9181 75.4691 46.8849C75.458 46.8738 75.4746 46.6358 75.508 46.3646C75.5358 46.0878 75.5524 45.49 75.5413 45.0361C75.5191 44.3442 75.4969 44.1615 75.3969 43.9401C75.2913 43.702 75.2635 43.6799 75.0913 43.6799C74.9524 43.6799 74.8468 43.7297 74.7246 43.8404Z" fill="#AFAFB6"/>
<path d="M83.6582 43.8349C83.4082 43.9954 83.0527 44.3608 83.0527 44.4549C83.0527 44.5545 83.1638 44.5157 83.3749 44.3497C83.6193 44.1559 83.886 44.0729 83.886 44.1892C83.886 44.2279 83.686 44.8589 83.4416 45.5896C83.1971 46.3203 82.9971 46.9624 82.9971 47.0122C82.9971 47.0842 83.0415 47.1118 83.1527 47.1118C83.2916 47.1118 83.336 47.0565 83.686 46.348C84.1249 45.4678 84.5416 44.8257 84.9305 44.4216C85.2638 44.0729 85.4694 43.9345 85.5805 43.9788C85.7194 44.0286 85.6805 44.3054 85.4472 44.9088C84.8249 46.5749 84.7138 46.8904 84.7305 46.9845C84.7638 47.1617 85.1416 47.1395 85.4805 46.9513C85.7805 46.7742 86.1639 46.359 86.1639 46.204C86.1639 46.0712 86.125 46.0878 85.7916 46.3922C85.4972 46.6579 85.3305 46.7354 85.3305 46.6081C85.3305 46.5694 85.4972 46.1155 85.6972 45.5951C86.1361 44.4715 86.2305 44.0397 86.0916 43.8238C85.9527 43.619 85.6083 43.6245 85.2694 43.8349C84.9527 44.0397 84.4916 44.5379 84.1527 45.0582C84.0082 45.2796 83.886 45.4457 83.886 45.418C83.886 45.3959 84.0027 45.0361 84.1471 44.6209C84.2971 44.1836 84.3916 43.8294 84.3694 43.774C84.3138 43.619 83.9527 43.6522 83.6582 43.8349Z" fill="#AFAFB6"/>
<path d="M103.942 43.7795C103.703 43.8958 103.276 44.3109 103.276 44.4272C103.276 44.5434 103.298 44.5379 103.614 44.3165C103.892 44.1283 104.003 44.0895 104.064 44.1559C104.081 44.1726 103.887 44.8147 103.631 45.5785C103.376 46.3424 103.164 47.0011 103.164 47.0399C103.164 47.0842 103.231 47.1119 103.326 47.1119C103.47 47.1119 103.503 47.0676 103.742 46.5694C103.887 46.276 104.159 45.7723 104.348 45.4568C104.898 44.5268 105.815 43.6688 105.837 44.0508C105.853 44.2943 105.792 44.4991 105.353 45.6671C105.081 46.3812 104.898 46.9513 104.92 47.0122C104.964 47.1506 105.27 47.1451 105.57 46.9956C105.842 46.8572 106.198 46.5417 106.309 46.3258C106.442 46.0712 106.287 46.0878 106.009 46.359C105.759 46.6026 105.576 46.7133 105.515 46.6524C105.498 46.6358 105.648 46.204 105.848 45.6893C106.265 44.6154 106.331 44.3995 106.331 44.0895C106.331 43.8017 106.203 43.6799 105.903 43.6799C105.487 43.6799 104.987 44.1227 104.348 45.0471C104.187 45.2796 104.053 45.4623 104.053 45.4457C104.053 45.4291 104.164 45.1025 104.303 44.715C104.442 44.322 104.553 43.9345 104.553 43.846C104.553 43.691 104.537 43.6799 104.348 43.6799C104.231 43.6799 104.048 43.7242 103.942 43.7795Z" fill="#AFAFB6"/>
<path fill-rule="evenodd" clip-rule="evenodd" d="M111.848 43.7851C111.248 44.0618 110.781 44.7427 110.731 45.4014C110.704 45.8276 110.798 46.0657 111.054 46.1985C111.148 46.2483 111.22 46.2981 111.22 46.3148C111.22 46.3314 111.159 46.4365 111.081 46.5472C110.926 46.7797 110.904 47.0288 111.026 47.206C111.109 47.3222 111.098 47.3277 110.798 47.4661C110.415 47.6433 110.076 47.9034 109.97 48.1138C109.865 48.313 109.865 48.623 109.97 48.8223C110.22 49.3149 111.465 49.4035 112.315 48.9884C112.704 48.8002 112.887 48.5677 112.887 48.2632C112.887 47.9643 112.681 47.7263 112.081 47.3167C111.776 47.1119 111.481 46.8904 111.431 46.8295C111.215 46.5694 111.365 46.3258 111.837 46.1708C112.154 46.0657 112.604 45.6118 112.809 45.1966C112.943 44.9254 112.97 44.7981 112.97 44.4659V44.0618L113.309 44.1006C113.626 44.1338 113.659 44.1227 113.693 44.0176C113.709 43.9511 113.709 43.8515 113.693 43.7851C113.659 43.6854 113.631 43.6744 113.426 43.7186C113.176 43.7629 112.931 43.7629 112.415 43.7076C112.148 43.6854 112.031 43.6965 111.848 43.7851ZM112.487 43.9677C112.748 44.2279 112.081 45.7114 111.581 45.9826C111.292 46.1376 111.192 46.0546 111.192 45.6616C111.192 45.418 111.242 45.263 111.426 44.8866C111.804 44.1283 112.254 43.7353 112.487 43.9677ZM111.759 47.7152C112.209 48.0031 112.387 48.2023 112.387 48.4237C112.387 49.005 111.059 49.2098 110.548 48.7005C110.348 48.5012 110.331 48.1968 110.504 47.9754C110.642 47.7982 111.148 47.4993 111.309 47.4993C111.37 47.4993 111.576 47.5934 111.759 47.7152Z" fill="#AFAFB6"/>
<path fill-rule="evenodd" clip-rule="evenodd" d="M115.154 43.8183C114.315 44.2556 113.554 45.6893 113.715 46.5306C113.77 46.8129 113.859 46.9845 113.998 47.0565C114.154 47.1395 114.593 47.1229 114.793 47.0233C115.009 46.9126 115.498 46.4531 115.498 46.3535C115.498 46.2373 115.359 46.2705 115.215 46.4255C115.037 46.6137 114.82 46.7244 114.62 46.7244C114.298 46.7244 114.159 46.3701 114.27 45.8276C114.331 45.5343 114.343 45.5177 114.57 45.4512C114.976 45.335 115.576 45.0361 115.793 44.8423C116.176 44.5102 116.276 44.1117 116.048 43.8238C115.893 43.6301 115.526 43.6301 115.154 43.8183ZM115.715 44.001C115.848 44.2556 115.32 44.8922 114.759 45.1468C114.604 45.2187 114.465 45.2741 114.454 45.263C114.415 45.2187 114.615 44.8202 114.843 44.4991C115.198 43.9954 115.593 43.7685 115.715 44.001Z" fill="#AFAFB6"/>
<path d="M117.304 43.774C117.015 43.9235 116.665 44.3109 116.665 44.4825C116.665 44.56 116.826 44.4936 116.948 44.3663C117.087 44.2224 117.337 44.0674 117.443 44.0674C117.559 44.0674 117.487 44.3441 117.054 45.645C116.809 46.3756 116.62 47.0067 116.637 47.0399C116.648 47.0786 116.726 47.1118 116.804 47.1118C116.926 47.1118 116.987 47.0233 117.337 46.3203C117.854 45.2907 118.143 44.8589 118.637 44.3552C119.07 43.9124 119.232 43.857 119.265 44.1338C119.276 44.2224 119.087 44.8479 118.837 45.5841C118.587 46.2926 118.387 46.9292 118.387 46.9956C118.387 47.0842 118.42 47.1118 118.543 47.1118C118.682 47.1118 118.72 47.051 119.048 46.4089C119.671 45.18 120.587 43.9567 120.876 43.9567C121.137 43.9567 121.076 44.25 120.465 45.8442C120.271 46.359 120.109 46.8572 120.109 46.9458C120.109 47.1008 120.126 47.1118 120.315 47.1118C120.426 47.1118 120.626 47.062 120.759 46.9956C121.126 46.8185 121.726 46.1155 121.509 46.1155C121.482 46.1155 121.343 46.2262 121.198 46.3646C120.948 46.5971 120.743 46.7133 120.687 46.6524C120.671 46.6358 120.837 46.1708 121.054 45.6118C121.643 44.1061 121.648 43.6799 121.087 43.6799C120.643 43.6799 120.254 44.0286 119.604 45.0195C119.415 45.3018 119.282 45.4844 119.304 45.4235C119.743 44.2445 119.787 44.0176 119.632 43.8017C119.526 43.6467 119.243 43.6411 118.948 43.7851C118.665 43.929 118.126 44.5157 117.804 45.0305C117.659 45.263 117.532 45.4512 117.52 45.4512C117.509 45.4512 117.615 45.1246 117.748 44.7316C117.887 44.3331 117.998 43.9345 117.998 43.846C117.998 43.6854 117.993 43.6799 117.737 43.6799C117.587 43.6854 117.398 43.7242 117.304 43.774Z" fill="#AFAFB6"/>
<path fill-rule="evenodd" clip-rule="evenodd" d="M123.726 43.7906C123.387 43.9456 122.843 44.5213 122.598 44.9863C122.154 45.8276 122.098 46.6081 122.454 46.9845C122.598 47.134 123.004 47.1561 123.304 47.0344C123.554 46.9292 123.998 46.514 123.998 46.3867C123.998 46.2428 123.982 46.2483 123.66 46.503C123.126 46.9236 122.771 46.7576 122.782 46.1044C122.793 45.5951 122.821 45.5509 123.248 45.3959C124.137 45.0693 124.626 44.6984 124.698 44.3054C124.737 44.0895 124.637 43.8072 124.493 43.7353C124.332 43.6467 123.987 43.6744 123.726 43.7906ZM124.254 44.0342C124.298 44.2168 124.104 44.5656 123.821 44.8091C123.548 45.0416 123.037 45.3018 123.01 45.2243C122.965 45.108 123.321 44.5268 123.615 44.2224C123.971 43.8626 124.193 43.7961 124.254 44.0342Z" fill="#AFAFB6"/>
<path d="M125.826 43.8349C125.576 43.9954 125.221 44.3608 125.221 44.4549C125.221 44.5545 125.332 44.5157 125.543 44.3497C125.793 44.1504 126.054 44.0729 126.054 44.1947C126.054 44.2445 125.854 44.8589 125.61 45.5675C125.365 46.2705 125.165 46.907 125.165 46.979C125.165 47.0897 125.193 47.1118 125.321 47.1118C125.46 47.1118 125.498 47.051 125.821 46.3922C126.015 45.9992 126.276 45.5232 126.399 45.3294C126.921 44.5157 127.543 43.8958 127.754 43.9788C127.904 44.0342 127.821 44.3718 127.332 45.6726C127.087 46.3258 126.887 46.9126 126.899 46.9735C126.921 47.1229 127.26 47.1506 127.51 47.0233C127.804 46.8738 128.132 46.586 128.249 46.3756C128.404 46.0878 128.31 46.0601 128.037 46.3203C127.826 46.5251 127.615 46.669 127.532 46.669C127.46 46.669 127.515 46.4808 127.854 45.6118C128.293 44.4881 128.393 44.0674 128.271 43.857C128.154 43.6411 127.799 43.6245 127.482 43.8072C127.171 43.9899 126.693 44.4991 126.36 44.9973C126.215 45.2187 126.082 45.3903 126.076 45.3793C126.065 45.3682 126.171 45.025 126.315 44.6154C126.465 44.1836 126.56 43.8349 126.537 43.774C126.482 43.619 126.121 43.6522 125.826 43.8349Z" fill="#AFAFB6"/>
<path fill-rule="evenodd" clip-rule="evenodd" d="M139.916 43.7851C138.832 44.2833 138.138 46.4255 138.871 47.0011C139.066 47.1561 139.549 47.1506 139.871 46.9956C140.532 46.6746 141.166 45.5177 141.166 44.6209C141.166 44.1892 141.088 43.9788 140.855 43.7961C140.666 43.6467 140.227 43.6412 139.916 43.7851ZM140.588 44.0397C140.855 44.4438 140.282 46.2483 139.738 46.7244C139.499 46.9347 139.26 46.9458 139.132 46.752C138.871 46.3535 139.449 44.5988 140.01 44.0951C140.266 43.8626 140.46 43.846 140.588 44.0397Z" fill="#AFAFB6"/>
<path d="M142.605 43.8349C142.355 43.9954 141.999 44.3608 141.999 44.4549C141.999 44.5545 142.11 44.5157 142.321 44.3497C142.532 44.1836 142.832 44.0729 142.832 44.1615C142.832 44.1892 142.632 44.8036 142.388 45.5343C142.143 46.2649 141.943 46.9181 141.943 46.9845C141.943 47.0897 141.971 47.1118 142.099 47.1063C142.238 47.1063 142.277 47.0454 142.599 46.3922C142.788 46.0048 143.077 45.4844 143.232 45.2464C143.905 44.2168 144.61 43.6522 144.61 44.1504C144.61 44.2279 144.399 44.87 144.138 45.573C143.877 46.2815 143.666 46.907 143.677 46.9735C143.699 47.1229 144.038 47.1506 144.288 47.0233C144.582 46.8738 144.91 46.586 145.027 46.3756C145.177 46.0989 145.094 46.0601 144.844 46.2926C144.621 46.503 144.388 46.669 144.321 46.669C144.232 46.669 144.282 46.503 144.638 45.5896C145.066 44.4881 145.155 44.0951 145.049 43.8681C144.982 43.7352 144.932 43.702 144.738 43.691C144.588 43.6799 144.432 43.7131 144.294 43.7795C144.016 43.9235 143.471 44.4936 143.138 44.9973C142.994 45.2187 142.86 45.3903 142.849 45.3793C142.838 45.3682 142.949 45.025 143.094 44.6154C143.244 44.1836 143.338 43.8294 143.316 43.774C143.26 43.619 142.899 43.6522 142.605 43.8349Z" fill="#AFAFB6"/>
<path d="M146.805 43.7851C146.571 43.929 146.294 44.2334 146.227 44.4161C146.105 44.7261 146.155 45.0084 146.427 45.5841C146.727 46.2206 146.749 46.4476 146.538 46.6579C146.366 46.824 146.199 46.7963 145.921 46.5583C145.705 46.3646 145.633 46.3535 145.555 46.4974C145.466 46.669 145.488 46.8794 145.61 47.0011C145.771 47.1617 146.238 47.1506 146.51 46.9845C146.916 46.741 147.155 46.2594 147.083 45.8221C147.06 45.7003 146.933 45.3737 146.799 45.1025C146.51 44.5102 146.488 44.2943 146.705 44.1283C146.883 43.9843 147.016 44.0176 147.255 44.2445C147.421 44.3995 147.433 44.3995 147.527 44.3109C147.594 44.2445 147.61 44.167 147.588 44.0452C147.521 43.702 147.144 43.5747 146.805 43.7851Z" fill="#AFAFB6"/>
<path d="M148.838 43.9068C148.438 44.1725 148.027 44.6154 148.105 44.6929C148.138 44.7261 148.283 44.6431 148.499 44.4604C148.688 44.3054 148.866 44.1781 148.894 44.1781C148.988 44.1781 148.944 44.3608 148.555 45.49C148.071 46.9015 148.055 47.1118 148.427 47.1118C148.755 47.1118 149.327 46.6192 150.027 45.7335C150.177 45.5453 150.305 45.4014 150.316 45.4125C150.327 45.4235 150.222 45.7557 150.083 46.1432C149.944 46.5362 149.833 46.907 149.844 46.9679C149.872 47.1451 150.172 47.1506 150.46 46.9845C150.738 46.8185 151.333 46.2151 151.333 46.0933C151.333 45.9439 151.227 45.9937 150.91 46.3092C150.577 46.6303 150.349 46.7188 150.416 46.4863C150.466 46.3314 151.127 44.394 151.244 44.0729C151.344 43.8072 151.327 43.7629 151.11 43.7076C150.983 43.6744 150.955 43.7131 150.699 44.2445C150.316 45.0305 149.866 45.6837 149.344 46.1874C148.599 46.9015 148.583 46.8019 149.166 45.1412C149.533 44.0895 149.61 43.8238 149.555 43.7629C149.438 43.619 149.194 43.6688 148.838 43.9068Z" fill="#AFAFB6"/>
<path d="M157.388 43.8127C157.05 43.9899 156.611 44.3829 156.611 44.5157C156.611 44.5711 156.622 44.6209 156.638 44.6209C156.655 44.6209 156.8 44.5213 156.955 44.3995C157.227 44.1781 157.377 44.1393 157.344 44.2943C157.335 44.3285 157.201 44.6857 157.023 45.1598L157.02 45.1672L157.02 45.1683L156.855 45.6062C156.594 46.2815 156.388 46.896 156.4 46.9624C156.422 47.134 156.705 47.1506 157.005 47.0011C157.344 46.824 157.983 46.1874 157.9 46.1044C157.855 46.0601 157.777 46.0989 157.583 46.276C157.316 46.5196 157.077 46.6524 157.016 46.5915C156.977 46.5528 157.011 46.4531 157.611 44.8755C157.827 44.3054 157.994 43.8017 157.977 43.7574C157.933 43.6411 157.672 43.6688 157.388 43.8127Z" fill="#AFAFB6"/>
<path d="M159.483 43.7961C159.227 43.929 158.833 44.3109 158.833 44.4272C158.833 44.5434 158.855 44.5379 159.172 44.3165C159.45 44.1283 159.561 44.0895 159.622 44.1559C159.639 44.1725 159.444 44.8147 159.189 45.5785C158.933 46.3424 158.722 47.0011 158.722 47.0399C158.722 47.0842 158.788 47.1118 158.889 47.1118C159.044 47.1118 159.072 47.0731 159.505 46.2206C159.983 45.2741 160.439 44.6209 160.894 44.2113C161.189 43.9456 161.355 43.8958 161.411 44.0452C161.461 44.1725 161.422 44.2943 160.911 45.6837C160.655 46.3756 160.461 46.979 160.477 47.0233C160.527 47.1506 160.861 47.134 161.15 46.9956C161.516 46.8185 162.116 46.1155 161.9 46.1155C161.872 46.1155 161.733 46.2262 161.589 46.3646C161.333 46.5971 161.133 46.7133 161.077 46.6524C161.061 46.6358 161.177 46.2926 161.339 45.8885C161.783 44.7427 161.889 44.3995 161.889 44.1172C161.889 43.7851 161.789 43.6799 161.489 43.6799C161.055 43.6799 160.477 44.1836 159.883 45.0859C159.75 45.2852 159.639 45.4402 159.633 45.4346C159.622 45.4291 159.739 45.0748 159.894 44.6486C160.044 44.2279 160.155 43.8349 160.133 43.7795C160.094 43.6411 159.761 43.6522 159.483 43.7961Z" fill="#AFAFB6"/>
<path fill-rule="evenodd" clip-rule="evenodd" d="M163.794 43.8183C162.828 44.3054 162.35 45.8387 163.055 46.1985C163.15 46.2483 163.222 46.2926 163.222 46.3037C163.222 46.3148 163.161 46.4365 163.083 46.5639C162.928 46.8406 162.905 47.0676 163.028 47.1894C163.144 47.3056 163.139 47.3167 162.861 47.4384C162.228 47.7152 161.889 48.0806 161.889 48.4791C161.889 49.0548 162.594 49.3648 163.555 49.2208C164.616 49.0603 165.155 48.4625 164.761 47.8813C164.694 47.7761 164.372 47.5159 164.055 47.2945C163.394 46.8406 163.255 46.658 163.405 46.431C163.461 46.348 163.611 46.2539 163.778 46.1985C164.144 46.0767 164.594 45.645 164.805 45.2021C164.933 44.953 164.972 44.787 164.983 44.4825L164.994 44.0951H165.694V43.9013C165.694 43.7187 165.683 43.7076 165.528 43.7242C165.178 43.7519 164.739 43.7463 164.416 43.7076C164.122 43.6744 164.05 43.691 163.794 43.8183ZM164.528 44.0342C164.611 44.1559 164.605 44.2002 164.466 44.6209C164.266 45.2132 163.85 45.8609 163.583 45.9882C163.289 46.1266 163.194 46.0435 163.194 45.6671C163.194 45.0804 163.939 43.9013 164.3 43.9013C164.389 43.9013 164.478 43.9511 164.528 44.0342ZM163.572 47.5879C163.922 47.7706 164.266 48.0584 164.361 48.2521C164.45 48.4459 164.45 48.457 164.35 48.6009C164.178 48.8278 163.916 48.9496 163.533 48.9773C163.116 49.0105 162.839 48.933 162.578 48.7061C162.233 48.4071 162.372 47.9698 162.9 47.6709C163.239 47.4772 163.328 47.4661 163.572 47.5879Z" fill="#AFAFB6"/>
</svg>
