<svg width="99" height="56" viewBox="0 0 99 56" fill="none" xmlns="http://www.w3.org/2000/svg">
<path fill-rule="evenodd" clip-rule="evenodd" d="M24.8017 33.2189C21.1294 33.9312 15.1721 32.6828 12.8954 25.1144C9.27975 13.0947 21.5933 4.10429 31.2677 0C29.5477 2.65802 30.2253 5.2118 30.779 6.15644C31.2025 6.67762 32.108 8.03269 32.3426 9.28352C32.5771 10.5344 32.4403 11.4334 32.3426 11.7266C31.3921 12.166 30.4563 12.585 29.5448 12.993L29.5448 12.9931C23.0528 15.8995 17.7891 18.2561 17.1694 23.5598C17.0582 24.0919 16.9996 24.6433 16.9996 25.2085C16.9996 29.5634 20.4737 33.1069 24.8017 33.2189ZM24.3935 17.2133C27.9861 16.2536 34.4725 17.2109 36.8716 25.1865C40.4873 37.2062 24.917 51.0129 15.2426 55.1172C11.7246 54.9217 9.34673 53.1302 8.79298 52.1855L8.71757 52.0924C8.12614 51.3611 5.74137 48.4122 4.49323 47.7881C2.99585 47.0394 2.24416 47.0364 1.13948 47.032H1.1394H1.13932C0.802188 47.0306 0.432172 47.0292 -0.00195312 47.0063C4.88829 44.5776 9.10208 42.5427 12.7198 40.7957L12.7201 40.7956L12.7209 40.7952C26.8397 33.9771 31.8797 31.5433 32.6204 27.1932C32.7813 26.56 32.8668 25.8967 32.8668 25.2134C32.8668 20.7879 29.2792 17.2003 24.8537 17.2003C24.6992 17.2003 24.5458 17.2046 24.3935 17.2133ZM25.0197 31.8526C28.6897 31.8526 31.6648 28.8775 31.6648 25.2076C31.6648 21.5376 28.6897 18.5625 25.0197 18.5625C21.3497 18.5625 18.3746 21.5376 18.3746 25.2076C18.3746 28.8775 21.3497 31.8526 25.0197 31.8526Z" fill="#AFAFB6"/>
<path d="M47.1345 20.2136H44.3264V28H42.8692V20.2136H40.0548V18.994H47.1345V20.2136ZM52.2741 24.6227L51.0358 21.3331C50.9357 21.0787 50.8335 20.7556 50.7293 20.3637C50.6834 20.5596 50.6334 20.741 50.5792 20.9078C50.525 21.0704 50.475 21.2142 50.4291 21.3393L49.1908 24.6227H52.2741ZM55.0447 28H53.9127C53.7834 28 53.6792 27.9687 53.6 27.9062C53.5208 27.8395 53.4603 27.7582 53.4186 27.6623L52.6681 25.6734H48.7905L48.04 27.6623C48.0067 27.7457 47.9483 27.8228 47.8649 27.8937C47.7815 27.9646 47.6773 28 47.5522 28H46.4202L49.9913 18.994H51.4736L55.0447 28ZM61.2992 26.7742V28H56.0957V18.994H57.5592V26.7742H61.2992ZM72.6674 23.5658V27.1307C71.7709 27.7769 70.7286 28.1001 69.5403 28.1001C68.8106 28.1001 68.1498 27.9875 67.5577 27.7623C66.9698 27.533 66.4674 27.2161 66.0505 26.8117C65.6335 26.4031 65.3125 25.9174 65.0873 25.3545C64.8622 24.7916 64.7496 24.1724 64.7496 23.497C64.7496 22.8174 64.858 22.1961 65.0748 21.6333C65.2916 21.0662 65.6022 20.5805 66.0067 20.176C66.4111 19.7674 66.8989 19.4526 67.4702 19.2317C68.0414 19.0065 68.6835 18.8939 69.3964 18.8939C69.7592 18.8939 70.0948 18.9231 70.4034 18.9815C70.7161 19.0357 71.0058 19.1128 71.2727 19.2129C71.5395 19.313 71.7855 19.4339 72.0107 19.5756C72.2358 19.7174 72.4422 19.8758 72.6298 20.051L72.2108 20.7201C72.1441 20.8244 72.0586 20.889 71.9544 20.914C71.8502 20.939 71.7376 20.914 71.6167 20.839C71.4958 20.7681 71.3665 20.693 71.2289 20.6138C71.0955 20.5346 70.9412 20.4616 70.7661 20.3949C70.591 20.324 70.3888 20.2678 70.1594 20.2261C69.9301 20.1802 69.6591 20.1573 69.3464 20.1573C68.8711 20.1573 68.4416 20.2365 68.058 20.3949C67.6786 20.5492 67.3534 20.7723 67.0824 21.0641C66.8114 21.3518 66.6029 21.7021 66.457 22.1148C66.3111 22.5276 66.2381 22.9883 66.2381 23.497C66.2381 24.0349 66.3152 24.5164 66.4695 24.9417C66.6238 25.3628 66.8427 25.7214 67.1262 26.0174C67.4097 26.3093 67.7516 26.5324 68.1519 26.6866C68.5563 26.8409 69.0066 26.918 69.5028 26.918C69.8738 26.918 70.2032 26.8784 70.4909 26.7992C70.7828 26.72 71.0684 26.6095 71.3477 26.4677V24.679H70.0907C69.9948 24.679 69.9197 24.654 69.8655 24.604C69.8113 24.5498 69.7842 24.481 69.7842 24.3976V23.5658H72.6674ZM75.3157 22.8028C75.5159 22.3983 75.7577 22.0815 76.0412 21.8522C76.3247 21.6187 76.6645 21.5019 77.0606 21.5019C77.1982 21.5019 77.3275 21.5186 77.4484 21.552C77.5693 21.5811 77.6777 21.627 77.7736 21.6895L77.6798 22.7027C77.6631 22.7736 77.636 22.8236 77.5985 22.8528C77.5651 22.8778 77.5193 22.8903 77.4609 22.8903C77.3984 22.8903 77.3087 22.8799 77.192 22.8591C77.0752 22.8341 76.9522 22.8215 76.823 22.8215C76.6353 22.8215 76.4686 22.8486 76.3226 22.9029C76.1809 22.9571 76.0516 23.0363 75.9349 23.1405C75.8223 23.2447 75.7222 23.3719 75.6347 23.522C75.5471 23.6721 75.4658 23.8431 75.3908 24.0349V28H74.0461V21.6207H74.8279C74.9697 21.6207 75.0676 21.6478 75.1218 21.7021C75.176 21.7521 75.2136 21.8417 75.2344 21.971L75.3157 22.8028ZM81.2017 21.5207C81.6728 21.5207 82.0981 21.5978 82.4775 21.7521C82.8611 21.9064 83.1863 22.1253 83.4532 22.4088C83.7242 22.6923 83.9327 23.0363 84.0786 23.4407C84.2245 23.8451 84.2975 24.2996 84.2975 24.8041C84.2975 25.3086 84.2245 25.7631 84.0786 26.1675C83.9327 26.572 83.7242 26.918 83.4532 27.2057C83.1863 27.4892 82.8611 27.7081 82.4775 27.8624C82.0981 28.0167 81.6728 28.0938 81.2017 28.0938C80.7264 28.0938 80.2969 28.0167 79.9133 27.8624C79.5339 27.7081 79.2087 27.4892 78.9377 27.2057C78.6667 26.918 78.4582 26.572 78.3122 26.1675C78.1663 25.7631 78.0934 25.3086 78.0934 24.8041C78.0934 24.2996 78.1663 23.8451 78.3122 23.4407C78.4582 23.0363 78.6667 22.6923 78.9377 22.4088C79.2087 22.1253 79.5339 21.9064 79.9133 21.7521C80.2969 21.5978 80.7264 21.5207 81.2017 21.5207ZM81.2017 27.0431C81.7771 27.0431 82.2044 26.8513 82.4838 26.4677C82.7673 26.08 82.9091 25.5275 82.9091 24.8104C82.9091 24.0932 82.7673 23.5408 82.4838 23.153C82.2044 22.7611 81.7771 22.5651 81.2017 22.5651C80.618 22.5651 80.1843 22.7611 79.9008 23.153C79.6173 23.5408 79.4755 24.0932 79.4755 24.8104C79.4755 25.5275 79.6173 26.08 79.9008 26.4677C80.1843 26.8513 80.618 27.0431 81.2017 27.0431ZM90.9681 21.6207V28H90.155C89.9757 28 89.8611 27.9145 89.811 27.7436L89.711 27.1494C89.5775 27.2912 89.4358 27.4204 89.2857 27.5372C89.1397 27.6539 88.9834 27.754 88.8166 27.8374C88.6498 27.9208 88.4706 27.9854 88.2788 28.0313C88.0911 28.0771 87.8889 28.1001 87.6721 28.1001C87.3219 28.1001 87.0133 28.0417 86.7465 27.9249C86.4796 27.8082 86.2545 27.6435 86.071 27.4309C85.8917 27.2182 85.7562 26.9639 85.6645 26.6679C85.5728 26.3677 85.5269 26.0383 85.5269 25.6797V21.6207H86.8716V25.6797C86.8716 26.1092 86.9696 26.4427 87.1655 26.6804C87.3656 26.918 87.6679 27.0369 88.0724 27.0369C88.3684 27.0369 88.6436 26.9701 88.8979 26.8367C89.1564 26.6991 89.3983 26.5115 89.6234 26.2738V21.6207H90.9681ZM93.9456 26.3989C94.1332 26.6408 94.3375 26.8117 94.5585 26.9118C94.7837 27.0077 95.0318 27.0556 95.3028 27.0556C95.8281 27.0556 96.2367 26.8638 96.5286 26.4802C96.8246 26.0966 96.9726 25.5254 96.9726 24.7666C96.9726 24.3747 96.9393 24.0411 96.8726 23.7659C96.8059 23.4866 96.71 23.2593 96.5849 23.0842C96.4598 22.9091 96.3076 22.7819 96.1283 22.7027C95.949 22.6235 95.7468 22.5839 95.5217 22.5839C95.1798 22.5839 94.8837 22.6589 94.6336 22.809C94.3876 22.955 94.1583 23.1655 93.9456 23.4407V26.3989ZM93.8768 22.5464C94.1437 22.2337 94.446 21.9814 94.7837 21.7896C95.1256 21.5978 95.5217 21.5019 95.972 21.5019C96.3305 21.5019 96.6558 21.5749 96.9476 21.7208C97.2395 21.8626 97.4896 22.071 97.6981 22.3462C97.9066 22.6214 98.0671 22.9633 98.1797 23.3719C98.2964 23.7764 98.3548 24.2412 98.3548 24.7666C98.3548 25.2377 98.2902 25.6776 98.1609 26.0862C98.0358 26.4907 97.8545 26.843 97.6168 27.1432C97.3792 27.4392 97.0915 27.6727 96.7537 27.8436C96.416 28.0104 96.0345 28.0938 95.6092 28.0938C95.234 28.0938 94.915 28.0334 94.6523 27.9124C94.3938 27.7915 94.1583 27.6247 93.9456 27.4121V30.1202H92.601V21.6207H93.414C93.5975 21.6207 93.7142 21.7062 93.7642 21.8772L93.8768 22.5464Z" fill="#AFAFB6"/>
</svg>
