<svg width="14" height="18" viewBox="0 0 14 18" fill="none" xmlns="http://www.w3.org/2000/svg">
<mask id="mask0_4064_7497" style="mask-type:luminance" maskUnits="userSpaceOnUse" x="0" y="4" width="14" height="10">
<path d="M0 4H14V14H0V4Z" fill="white"/>
</mask>
<g mask="url(#mask0_4064_7497)">
<path fill-rule="evenodd" clip-rule="evenodd" d="M-0.4375 4H15.3125V14H-0.4375V4Z" fill="white"/>
<path fill-rule="evenodd" clip-rule="evenodd" d="M-0.4375 4H15.3125V9H-0.4375V4Z" fill="#DF0000"/>
<path fill-rule="evenodd" clip-rule="evenodd" d="M3.19364 4.83746C2.77929 4.92227 2.40818 5.14026 2.14264 5.45484C1.87709 5.76942 1.73327 6.16143 1.73532 6.56506C1.73738 6.96869 1.88518 7.35936 2.15391 7.67147C2.42264 7.98359 2.79594 8.19815 3.21114 8.27913C2.97329 8.34468 2.72419 8.36486 2.47812 8.33853C2.23206 8.31219 1.99388 8.23985 1.77724 8.12565C1.56059 8.01146 1.36975 7.85765 1.21566 7.67306C1.06156 7.48847 0.947248 7.27672 0.879267 7.04996C0.744248 6.59415 0.80422 6.10596 1.04607 5.69214C1.28792 5.27832 1.69198 4.97253 2.16989 4.84163C2.51989 4.7458 2.84364 4.74371 3.19583 4.83746H3.19364Z" fill="white"/>
<path fill-rule="evenodd" clip-rule="evenodd" d="M2.90977 6.29165L3.01695 6.60415L2.73258 6.41248L2.45258 6.60832L2.55539 6.29165L2.27539 6.0979L2.6232 6.09373L2.73258 5.78123L2.84195 6.09373H3.18758L2.90977 6.29165ZM3.29258 7.37498L3.40195 7.68957L3.11758 7.4979L2.83539 7.69165L2.94039 7.37707L2.66039 7.18123L3.0082 7.17915L3.11539 6.86457L3.22477 7.17707H3.57477L3.29258 7.37498ZM4.57227 7.36665L4.67945 7.68332L4.39508 7.48957L4.11508 7.68332L4.21789 7.36873L3.93789 7.17498L4.2857 7.17082L4.39508 6.85832L4.50445 7.17082H4.85008L4.57227 7.36665ZM4.95289 6.29165L5.06008 6.60623L4.7757 6.41457L4.4957 6.60832L4.6007 6.29373L4.31852 6.0979L4.66852 6.09582L4.77352 5.78123L4.88289 6.09373H5.23289L4.95289 6.29165ZM3.94008 5.57707L4.04945 5.89373L3.76508 5.69998L3.48289 5.89582L3.58789 5.57915L3.30789 5.38332L3.65352 5.38123L3.76289 5.06665L3.87227 5.37915H4.22227L3.94008 5.57707Z" fill="white"/>
</g>
</svg>
