<svg width="14" height="18" viewBox="0 0 14 18" fill="none" xmlns="http://www.w3.org/2000/svg">
<g clip-path="url(#clip0_4064_7476)">
<path d="M0 4H14V14H0V4Z" fill="white"/>
<path d="M0 4H14V4.76901H0V4ZM0 5.53801H14V6.30702H0V5.53801ZM0 7.07602H14V7.84503H0V7.07602ZM0 8.61404H14V9.38304H0V8.61404ZM0 10.155H14V10.924H0V10.155ZM0 11.693H14V12.462H0V11.693ZM0 13.231H14V14H0V13.231Z" fill="#D80027"/>
<path d="M0 4H7V9.38304H0V4Z" fill="#2E52B2"/>
<path d="M1.30432 8.06135L1.19516 7.68708L1.07508 8.06135H0.714844L1.00685 8.2865L0.89769 8.66076L1.19516 8.42977L1.48443 8.66076L1.37254 8.2865L1.67001 8.06135H1.30432ZM2.84077 8.06135L2.72888 7.68708L2.61426 8.06135H2.25402L2.54603 8.2865L2.43687 8.66076L2.72888 8.42977L3.02362 8.66076L2.91445 8.2865L3.20646 8.06135H2.84077ZM4.38268 8.06135L4.26533 7.68708L4.15617 8.06135H3.78775L4.08794 8.2865L3.97332 8.66076L4.26533 8.42977L4.56553 8.66076L4.45091 8.2865L4.74291 8.06135H4.38268ZM5.9164 8.06135L5.80724 7.68708L5.69262 8.06135H5.32966L5.6244 8.2865L5.51523 8.66076L5.80724 8.42977L6.10198 8.66076L5.98463 8.2865L6.28482 8.06135H5.9164ZM2.72888 6.2017L2.61426 6.57597H2.25402L2.54603 6.80696L2.43687 7.17538L2.72888 6.94731L3.02362 7.17538L2.91445 6.80696L3.20646 6.57597H2.84077L2.72888 6.2017ZM1.19516 6.2017L1.07508 6.57597H0.714844L1.00685 6.80696L0.89769 7.17538L1.19516 6.94731L1.48443 7.17538L1.37254 6.80696L1.67001 6.57597H1.30432L1.19516 6.2017ZM4.26533 6.2017L4.15617 6.57597H3.78775L4.08794 6.80696L3.97332 7.17538L4.26533 6.94731L4.56553 7.17538L4.45091 6.80696L4.74291 6.57597H4.38268L4.26533 6.2017ZM5.80724 6.2017L5.69262 6.57597H5.32966L5.6244 6.80696L5.51523 7.17538L5.80724 6.94731L6.10198 7.17538L5.98463 6.80696L6.28482 6.57597H5.9164L5.80724 6.2017ZM1.19516 4.72217L1.07508 5.09059H0.714844L1.00685 5.32158L0.89769 5.69293L1.19516 5.46193L1.48443 5.69293L1.37254 5.32158L1.67001 5.09059H1.30432L1.19516 4.72217ZM2.72888 4.72217L2.61426 5.09059H2.25402L2.54603 5.32158L2.43687 5.69293L2.72888 5.46193L3.02362 5.69293L2.91445 5.32158L3.20646 5.09059H2.84077L2.72888 4.72217ZM4.26533 4.72217L4.15617 5.09059H3.78775L4.08794 5.32158L3.97332 5.69293L4.26533 5.46193L4.56553 5.69293L4.45091 5.32158L4.74291 5.09059H4.38268L4.26533 4.72217ZM5.80724 4.72217L5.69262 5.09059H5.32966L5.6244 5.32158L5.51523 5.69293L5.80724 5.46193L6.10198 5.69293L5.98463 5.32158L6.28482 5.09059H5.9164L5.80724 4.72217Z" fill="white"/>
</g>
<defs>
<clipPath id="clip0_4064_7476">
<rect width="14" height="10" fill="white" transform="translate(0 4)"/>
</clipPath>
</defs>
</svg>
