<svg width="40" height="40" viewBox="0 0 40 40" fill="none" xmlns="http://www.w3.org/2000/svg">
  <path fill-rule="evenodd" clip-rule="evenodd"
    d="M34.1529 3.5C33.5305 3.5 32.9335 3.74727 32.4934 4.18741L32.4857 4.19505L32.4779 4.20251L19.9796 16.1725C20.842 16.5303 21.6257 17.0542 22.286 17.7146C22.9462 18.3748 23.4701 19.1583 23.8279 20.0206L35.7974 7.52199L35.8048 7.51418L35.8125 7.50653C36.2526 7.06639 36.4999 6.46943 36.4999 5.84697C36.4999 5.22452 36.2526 4.62755 35.8125 4.18741C35.3723 3.74727 34.7754 3.5 34.1529 3.5ZM24.3608 22.3558L37.2349 8.91256C38.045 8.09814 38.4999 6.99601 38.4999 5.84697C38.4999 4.69408 38.0419 3.58841 37.2267 2.7732C36.4115 1.95798 35.3058 1.5 34.1529 1.5C33.0039 1.5 31.9017 1.95493 31.0873 2.76505L17.6442 15.6398C17.503 15.632 17.3614 15.6284 17.2196 15.629C16.2793 15.6331 15.349 15.8234 14.4826 16.189C13.6175 16.554 12.8331 17.0866 12.1746 17.7559C11.402 18.5306 10.8655 19.7432 10.4736 20.9666C10.0701 22.2262 9.77462 23.6476 9.55933 24.9655C9.34332 26.2878 9.2042 27.5301 9.11904 28.4404C9.07639 28.8962 9.04713 29.2703 9.02848 29.5315C9.01915 29.6621 9.01246 29.7646 9.00808 29.8351L9.00317 29.9163L9.00194 29.938L9.0016 29.9439L9.00151 29.9457L9.00148 29.9462C9.00147 29.9464 9.00146 29.9466 10 30.0006L9.00146 29.9466L8.94126 31.0593L10.054 30.9991L10 30.0006C10.054 30.9991 10.0542 30.9991 10.0544 30.9991L10.0549 30.9991L10.0567 30.999L10.0626 30.9986L10.0843 30.9974L10.1655 30.9925C10.2359 30.9881 10.3384 30.9814 10.4691 30.9721C10.7303 30.9534 11.1044 30.9242 11.5602 30.8815C12.4704 30.7964 13.7128 30.6572 15.0351 30.4412C16.353 30.226 17.7744 29.9305 19.034 29.527C20.2574 29.1351 21.47 28.5986 22.2447 27.8259C22.914 27.1674 23.4466 26.3831 23.8116 25.5179C24.1771 24.6515 24.3675 23.7213 24.3716 22.7809C24.3722 22.639 24.3686 22.4972 24.3608 22.3558ZM2.33203 4.33203C2.33203 3.22746 3.22746 2.33203 4.33203 2.33203H22.4987C23.051 2.33203 23.4987 2.77975 23.4987 3.33203C23.4987 3.88432 23.051 4.33203 22.4987 4.33203H4.33203V35.6654H35.6654V17.4987C35.6654 16.9464 36.1131 16.4987 36.6654 16.4987C37.2176 16.4987 37.6654 16.9464 37.6654 17.4987V35.6654C37.6654 36.7699 36.7699 37.6654 35.6654 37.6654H4.33203C3.22746 37.6654 2.33203 36.7699 2.33203 35.6654V4.33203ZM17.2284 17.629C17.9046 17.626 18.5748 17.757 19.2001 18.0144C19.8255 18.2718 20.3936 18.6506 20.8718 19.1288C21.35 19.6069 21.7287 20.1751 21.9861 20.8004C22.2436 21.4258 22.3746 22.0959 22.3716 22.7722C22.3687 23.4484 22.2318 24.1174 21.9689 24.7404C21.706 25.3635 21.3223 25.9283 20.84 26.4023L20.8399 26.4023L20.8339 26.4083C20.413 26.829 19.5869 27.2497 18.4239 27.6223C17.2955 27.9838 15.9811 28.2602 14.7126 28.4674C13.4486 28.6739 12.254 28.8079 11.3739 28.8902C11.2729 28.8997 11.1762 28.9084 11.084 28.9165C11.0921 28.8244 11.1009 28.7276 11.1103 28.6267C11.1927 27.7466 11.3267 26.552 11.5332 25.2879C11.7404 24.0195 12.0168 22.7051 12.3783 21.5767C12.7508 20.4137 13.1715 19.5876 13.5922 19.1667L13.5923 19.1667L13.5983 19.1606C14.0722 18.6783 14.6371 18.2946 15.2601 18.0317C15.8832 17.7688 16.5522 17.6319 17.2284 17.629Z"
    fill="#212121" />
  <path fill-rule="evenodd" clip-rule="evenodd"
    d="M34.1529 3.5C33.5305 3.5 32.9335 3.74727 32.4934 4.18741L32.4857 4.19505L32.4779 4.20251L19.9796 16.1725C20.842 16.5303 21.6257 17.0542 22.286 17.7146C22.9462 18.3748 23.4701 19.1583 23.8279 20.0206L35.7974 7.52199L35.8048 7.51418L35.8125 7.50653C36.2526 7.06639 36.4999 6.46943 36.4999 5.84697C36.4999 5.22452 36.2526 4.62755 35.8125 4.18741C35.3723 3.74727 34.7754 3.5 34.1529 3.5ZM24.3608 22.3558L37.2349 8.91256C38.045 8.09814 38.4999 6.99601 38.4999 5.84697C38.4999 4.69408 38.0419 3.58841 37.2267 2.7732C36.4115 1.95798 35.3058 1.5 34.1529 1.5C33.0039 1.5 31.9017 1.95493 31.0873 2.76505L17.6442 15.6398C17.503 15.632 17.3614 15.6284 17.2196 15.629C16.2793 15.6331 15.349 15.8234 14.4826 16.189C13.6175 16.554 12.8331 17.0866 12.1746 17.7559C11.402 18.5306 10.8655 19.7432 10.4736 20.9666C10.0701 22.2262 9.77462 23.6476 9.55933 24.9655C9.34332 26.2878 9.2042 27.5301 9.11904 28.4404C9.07639 28.8962 9.04713 29.2703 9.02848 29.5315C9.01915 29.6621 9.01246 29.7646 9.00808 29.8351L9.00317 29.9163L9.00194 29.938L9.0016 29.9439L9.00151 29.9457L9.00148 29.9462C9.00147 29.9464 9.00146 29.9466 10 30.0006L9.00146 29.9466L8.94126 31.0593L10.054 30.9991L10 30.0006C10.054 30.9991 10.0542 30.9991 10.0544 30.9991L10.0549 30.9991L10.0567 30.999L10.0626 30.9986L10.0843 30.9974L10.1655 30.9925C10.2359 30.9881 10.3384 30.9814 10.4691 30.9721C10.7303 30.9534 11.1044 30.9242 11.5602 30.8815C12.4704 30.7964 13.7128 30.6572 15.0351 30.4412C16.353 30.226 17.7744 29.9305 19.034 29.527C20.2574 29.1351 21.47 28.5986 22.2447 27.8259C22.914 27.1674 23.4466 26.3831 23.8116 25.5179C24.1771 24.6515 24.3675 23.7213 24.3716 22.7809C24.3722 22.639 24.3686 22.4972 24.3608 22.3558ZM2.33203 4.33203C2.33203 3.22746 3.22746 2.33203 4.33203 2.33203H22.4987C23.051 2.33203 23.4987 2.77975 23.4987 3.33203C23.4987 3.88432 23.051 4.33203 22.4987 4.33203H4.33203V35.6654H35.6654V17.4987C35.6654 16.9464 36.1131 16.4987 36.6654 16.4987C37.2176 16.4987 37.6654 16.9464 37.6654 17.4987V35.6654C37.6654 36.7699 36.7699 37.6654 35.6654 37.6654H4.33203C3.22746 37.6654 2.33203 36.7699 2.33203 35.6654V4.33203ZM17.2284 17.629C17.9046 17.626 18.5748 17.757 19.2001 18.0144C19.8255 18.2718 20.3936 18.6506 20.8718 19.1288C21.35 19.6069 21.7287 20.1751 21.9861 20.8004C22.2436 21.4258 22.3746 22.0959 22.3716 22.7722C22.3687 23.4484 22.2318 24.1174 21.9689 24.7404C21.706 25.3635 21.3223 25.9283 20.84 26.4023L20.8399 26.4023L20.8339 26.4083C20.413 26.829 19.5869 27.2497 18.4239 27.6223C17.2955 27.9838 15.9811 28.2602 14.7126 28.4674C13.4486 28.6739 12.254 28.8079 11.3739 28.8902C11.2729 28.8997 11.1762 28.9084 11.084 28.9165C11.0921 28.8244 11.1009 28.7276 11.1103 28.6267C11.1927 27.7466 11.3267 26.552 11.5332 25.2879C11.7404 24.0195 12.0168 22.7051 12.3783 21.5767C12.7508 20.4137 13.1715 19.5876 13.5922 19.1667L13.5923 19.1667L13.5983 19.1606C14.0722 18.6783 14.6371 18.2946 15.2601 18.0317C15.8832 17.7688 16.5522 17.6319 17.2284 17.629Z"
    fill="url(#paint0_linear_1950_14049)" />
  <defs>
    <linearGradient id="paint0_linear_1950_14049" x1="20.7734" y1="1.5" x2="20.7734" y2="37.6659"
      gradientUnits="userSpaceOnUse">
      <stop stop-color="#C7C7D1" />
      <stop offset="1" stop-color="#66666B" />
    </linearGradient>
  </defs>
</svg>