<svg width="40" height="40" viewBox="0 0 40 40" fill="none" xmlns="http://www.w3.org/2000/svg">
  <path fill-rule="evenodd" clip-rule="evenodd"
    d="M19.9987 0.664062C17.9654 0.664062 16.0153 1.4718 14.5775 2.90958C13.1398 4.34736 12.332 6.2974 12.332 8.33073V14H9.33203C8.22746 14 7.33203 14.8954 7.33203 16V29C7.33203 30.1046 8.22746 31 9.33203 31H30.6654C31.7699 31 32.6654 30.1046 32.6654 29V16C32.6654 14.8954 31.7699 14 30.6654 14H27.6654V8.33073C27.6654 6.2974 26.8576 4.34736 25.4198 2.90958C23.9821 1.4718 22.032 0.664062 19.9987 0.664062ZM25.6654 14V8.33073C25.6654 6.82784 25.0683 5.3865 24.0056 4.32379C22.9429 3.26108 21.5016 2.66406 19.9987 2.66406C18.4958 2.66406 17.0545 3.26108 15.9918 4.32379C14.9291 5.3865 14.332 6.82784 14.332 8.33073V14H25.6654ZM30.6654 16H9.33203V29H30.6654V16ZM20 20.1641C19.1716 20.1641 18.5 20.8356 18.5 21.6641C18.5 22.4925 19.1716 23.1641 20 23.1641C20.8284 23.1641 21.5 22.4925 21.5 21.6641C21.5 20.8356 20.8284 20.1641 20 20.1641ZM21 25.0191C22.4457 24.5888 23.5 23.2496 23.5 21.6641C23.5 19.7311 21.933 18.1641 20 18.1641C18.067 18.1641 16.5 19.7311 16.5 21.6641C16.5 23.2496 17.5543 24.5888 19 25.0191V25.8307C19 26.383 19.4477 26.8307 20 26.8307C20.5523 26.8307 21 26.383 21 25.8307V25.0191ZM11.6654 35.6641C10.6528 35.6641 9.83203 36.4849 9.83203 37.4974C9.83203 38.5099 10.6528 39.3307 11.6654 39.3307C12.6779 39.3307 13.4987 38.5099 13.4987 37.4974C13.4987 36.4849 12.6779 35.6641 11.6654 35.6641ZM18.168 37.4974C18.168 36.4849 18.9888 35.6641 20.0013 35.6641C21.0138 35.6641 21.8346 36.4849 21.8346 37.4974C21.8346 38.5099 21.0138 39.3307 20.0013 39.3307C18.9888 39.3307 18.168 38.5099 18.168 37.4974ZM28.3333 35.6641C27.3208 35.6641 26.5 36.4849 26.5 37.4974C26.5 38.5099 27.3208 39.3307 28.3333 39.3307C29.3459 39.3307 30.1667 38.5099 30.1667 37.4974C30.1667 36.4849 29.3459 35.6641 28.3333 35.6641ZM1.50391 37.4974C1.50391 36.4849 2.32472 35.6641 3.33724 35.6641C4.34976 35.6641 5.17057 36.4849 5.17057 37.4974C5.17057 38.5099 4.34976 39.3307 3.33724 39.3307C2.32472 39.3307 1.50391 38.5099 1.50391 37.4974ZM36.6654 35.6641C35.6528 35.6641 34.832 36.4849 34.832 37.4974C34.832 38.5099 35.6528 39.3307 36.6654 39.3307C37.6779 39.3307 38.4987 38.5099 38.4987 37.4974C38.4987 36.4849 37.6779 35.6641 36.6654 35.6641Z"
    fill="#212121" />
  <path fill-rule="evenodd" clip-rule="evenodd"
    d="M19.9987 0.664062C17.9654 0.664062 16.0153 1.4718 14.5775 2.90958C13.1398 4.34736 12.332 6.2974 12.332 8.33073V14H9.33203C8.22746 14 7.33203 14.8954 7.33203 16V29C7.33203 30.1046 8.22746 31 9.33203 31H30.6654C31.7699 31 32.6654 30.1046 32.6654 29V16C32.6654 14.8954 31.7699 14 30.6654 14H27.6654V8.33073C27.6654 6.2974 26.8576 4.34736 25.4198 2.90958C23.9821 1.4718 22.032 0.664062 19.9987 0.664062ZM25.6654 14V8.33073C25.6654 6.82784 25.0683 5.3865 24.0056 4.32379C22.9429 3.26108 21.5016 2.66406 19.9987 2.66406C18.4958 2.66406 17.0545 3.26108 15.9918 4.32379C14.9291 5.3865 14.332 6.82784 14.332 8.33073V14H25.6654ZM30.6654 16H9.33203V29H30.6654V16ZM20 20.1641C19.1716 20.1641 18.5 20.8356 18.5 21.6641C18.5 22.4925 19.1716 23.1641 20 23.1641C20.8284 23.1641 21.5 22.4925 21.5 21.6641C21.5 20.8356 20.8284 20.1641 20 20.1641ZM21 25.0191C22.4457 24.5888 23.5 23.2496 23.5 21.6641C23.5 19.7311 21.933 18.1641 20 18.1641C18.067 18.1641 16.5 19.7311 16.5 21.6641C16.5 23.2496 17.5543 24.5888 19 25.0191V25.8307C19 26.383 19.4477 26.8307 20 26.8307C20.5523 26.8307 21 26.383 21 25.8307V25.0191ZM11.6654 35.6641C10.6528 35.6641 9.83203 36.4849 9.83203 37.4974C9.83203 38.5099 10.6528 39.3307 11.6654 39.3307C12.6779 39.3307 13.4987 38.5099 13.4987 37.4974C13.4987 36.4849 12.6779 35.6641 11.6654 35.6641ZM18.168 37.4974C18.168 36.4849 18.9888 35.6641 20.0013 35.6641C21.0138 35.6641 21.8346 36.4849 21.8346 37.4974C21.8346 38.5099 21.0138 39.3307 20.0013 39.3307C18.9888 39.3307 18.168 38.5099 18.168 37.4974ZM28.3333 35.6641C27.3208 35.6641 26.5 36.4849 26.5 37.4974C26.5 38.5099 27.3208 39.3307 28.3333 39.3307C29.3459 39.3307 30.1667 38.5099 30.1667 37.4974C30.1667 36.4849 29.3459 35.6641 28.3333 35.6641ZM1.50391 37.4974C1.50391 36.4849 2.32472 35.6641 3.33724 35.6641C4.34976 35.6641 5.17057 36.4849 5.17057 37.4974C5.17057 38.5099 4.34976 39.3307 3.33724 39.3307C2.32472 39.3307 1.50391 38.5099 1.50391 37.4974ZM36.6654 35.6641C35.6528 35.6641 34.832 36.4849 34.832 37.4974C34.832 38.5099 35.6528 39.3307 36.6654 39.3307C37.6779 39.3307 38.4987 38.5099 38.4987 37.4974C38.4987 36.4849 37.6779 35.6641 36.6654 35.6641Z"
    fill="url(#paint0_linear_1950_13977)" />
  <defs>
    <linearGradient id="paint0_linear_1950_13977" x1="20.3669" y1="0.664063" x2="20.3669" y2="39.3313"
      gradientUnits="userSpaceOnUse">
      <stop stop-color="#C7C7D1" />
      <stop offset="1" stop-color="#66666B" />
    </linearGradient>
  </defs>
</svg>