<svg width="40" height="40" viewBox="0 0 40 40" fill="none" xmlns="http://www.w3.org/2000/svg">
  <path fill-rule="evenodd" clip-rule="evenodd" d="M2.35156 4.35156C2.35156 3.24699 3.24699 2.35156 4.35156 2.35156H24.4629C25.5675 2.35156 26.4629 3.24699 26.4629 4.35156V10.363C26.4629 10.9153 26.0152 11.363 25.4629 11.363C24.9106 11.363 24.4629 10.9153 24.4629 10.363V4.35156L4.35156 4.35156V24.4629H10.1662C10.7185 24.4629 11.1662 24.9106 11.1662 25.4629C11.1662 26.0152 10.7185 26.4629 10.1662 26.4629H4.35156C3.24699 26.4629 2.35156 25.5675 2.35156 24.4629V4.35156ZM13.4072 15.4062C13.4072 14.3017 14.3027 13.4062 15.4072 13.4062H24.4629C25.5675 13.4062 26.4629 14.3017 26.4629 15.4062V24.4619C26.4629 25.5665 25.5675 26.4619 24.4629 26.4619H15.4072C14.3027 26.4619 13.4072 25.5665 13.4072 24.4619V15.4062ZM24.4629 15.4062H15.4072V24.4619H24.4629V15.4062ZM35.5186 37.5156C36.6231 37.5156 37.5186 36.6202 37.5186 35.5156V15.4043C37.5186 14.2997 36.6231 13.4043 35.5186 13.4043H29.7039C29.1516 13.4043 28.7039 13.852 28.7039 14.4043C28.7039 14.9566 29.1516 15.4043 29.7039 15.4043H35.5186V35.5156H15.4072V29.5041C15.4072 28.9519 14.9595 28.5041 14.4072 28.5041C13.8549 28.5041 13.4072 28.9519 13.4072 29.5041V35.5156C13.4072 36.6202 14.3027 37.5156 15.4072 37.5156H35.5186Z" fill="#212121"/>
  <path fill-rule="evenodd" clip-rule="evenodd" d="M2.35156 4.35156C2.35156 3.24699 3.24699 2.35156 4.35156 2.35156H24.4629C25.5675 2.35156 26.4629 3.24699 26.4629 4.35156V10.363C26.4629 10.9153 26.0152 11.363 25.4629 11.363C24.9106 11.363 24.4629 10.9153 24.4629 10.363V4.35156L4.35156 4.35156V24.4629H10.1662C10.7185 24.4629 11.1662 24.9106 11.1662 25.4629C11.1662 26.0152 10.7185 26.4629 10.1662 26.4629H4.35156C3.24699 26.4629 2.35156 25.5675 2.35156 24.4629V4.35156ZM13.4072 15.4062C13.4072 14.3017 14.3027 13.4062 15.4072 13.4062H24.4629C25.5675 13.4062 26.4629 14.3017 26.4629 15.4062V24.4619C26.4629 25.5665 25.5675 26.4619 24.4629 26.4619H15.4072C14.3027 26.4619 13.4072 25.5665 13.4072 24.4619V15.4062ZM24.4629 15.4062H15.4072V24.4619H24.4629V15.4062ZM35.5186 37.5156C36.6231 37.5156 37.5186 36.6202 37.5186 35.5156V15.4043C37.5186 14.2997 36.6231 13.4043 35.5186 13.4043H29.7039C29.1516 13.4043 28.7039 13.852 28.7039 14.4043C28.7039 14.9566 29.1516 15.4043 29.7039 15.4043H35.5186V35.5156H15.4072V29.5041C15.4072 28.9519 14.9595 28.5041 14.4072 28.5041C13.8549 28.5041 13.4072 28.9519 13.4072 29.5041V35.5156C13.4072 36.6202 14.3027 37.5156 15.4072 37.5156H35.5186Z" fill="url(#paint0_linear_411_8432)"/>
  <defs>
    <linearGradient id="paint0_linear_411_8432" x1="20.2826" y1="2.35156" x2="20.2826" y2="37.5162" gradientUnits="userSpaceOnUse">
      <stop stop-color="#C7C7D1"/>
      <stop offset="1" stop-color="#66666B"/>
    </linearGradient>
  </defs>
</svg>
