<svg width="40" height="40" viewBox="0 0 40 40" fill="none" xmlns="http://www.w3.org/2000/svg">
  <path fill-rule="evenodd" clip-rule="evenodd"
    d="M8.85404 5.66406C8.20141 5.66406 7.58983 5.98249 7.21557 6.51714L2.08224 13.8505C1.60019 14.5391 1.60019 15.4557 2.08224 16.1443L7.21557 23.4777C7.58983 24.0123 8.20141 24.3307 8.85404 24.3307H27.3334C28.438 24.3307 29.3334 23.4353 29.3334 22.3307V7.66406C29.3334 6.55949 28.438 5.66406 27.3334 5.66406H8.85404ZM8.85404 7.66406L27.3334 7.66406V22.3307L8.85404 22.3307L3.7207 14.9974L8.85404 7.66406ZM34.1539 18.4734C33.8372 18.021 33.2137 17.9109 32.7612 18.2276C32.3088 18.5443 32.1987 19.1679 32.5154 19.6203L36.2807 24.9994L31.1474 32.3327H12.668V28.3327C12.668 27.7804 12.2203 27.3327 11.668 27.3327C11.1157 27.3327 10.668 27.7804 10.668 28.3327V32.3327C10.668 33.4373 11.5634 34.3327 12.668 34.3327H31.1474C31.8 34.3327 32.4116 34.0143 32.7858 33.4796L37.9192 26.1463C38.4012 25.4577 38.4012 24.5411 37.9192 23.8525L34.1539 18.4734Z"
    fill="#212121" />
  <path fill-rule="evenodd" clip-rule="evenodd"
    d="M8.85404 5.66406C8.20141 5.66406 7.58983 5.98249 7.21557 6.51714L2.08224 13.8505C1.60019 14.5391 1.60019 15.4557 2.08224 16.1443L7.21557 23.4777C7.58983 24.0123 8.20141 24.3307 8.85404 24.3307H27.3334C28.438 24.3307 29.3334 23.4353 29.3334 22.3307V7.66406C29.3334 6.55949 28.438 5.66406 27.3334 5.66406H8.85404ZM8.85404 7.66406L27.3334 7.66406V22.3307L8.85404 22.3307L3.7207 14.9974L8.85404 7.66406ZM34.1539 18.4734C33.8372 18.021 33.2137 17.9109 32.7612 18.2276C32.3088 18.5443 32.1987 19.1679 32.5154 19.6203L36.2807 24.9994L31.1474 32.3327H12.668V28.3327C12.668 27.7804 12.2203 27.3327 11.668 27.3327C11.1157 27.3327 10.668 27.7804 10.668 28.3327V32.3327C10.668 33.4373 11.5634 34.3327 12.668 34.3327H31.1474C31.8 34.3327 32.4116 34.0143 32.7858 33.4796L37.9192 26.1463C38.4012 25.4577 38.4012 24.5411 37.9192 23.8525L34.1539 18.4734Z"
    fill="url(#paint0_linear_1950_13907)" />
  <defs>
    <linearGradient id="paint0_linear_1950_13907" x1="20.362" y1="5.66406" x2="20.362" y2="34.3332"
      gradientUnits="userSpaceOnUse">
      <stop stop-color="#C7C7D1" />
      <stop offset="1" stop-color="#66666B" />
    </linearGradient>
  </defs>
</svg>