<svg width="40" height="40" viewBox="0 0 40 40" fill="none" xmlns="http://www.w3.org/2000/svg">
<path d="M16.817 8.86309C16.817 6.2269 14.6799 4.08984 12.0437 4.08984C9.40756 4.08984 7.27051 6.2269 7.27051 8.86309C7.27051 11.4993 9.40756 13.6363 12.0437 13.6363C14.6799 13.6363 16.817 11.4993 16.817 8.86309ZM16.817 8.86309H27.159C30.2346 8.86309 32.7278 11.3563 32.7278 14.4319C32.7278 17.5074 30.2346 20.0007 27.159 20.0007H12.8393C9.76374 20.0007 7.27051 22.4939 7.27051 25.5694C7.27051 28.645 9.76374 31.1382 12.8393 31.1382H21.988M32.7278 31.1382C32.7278 28.502 30.5907 26.365 27.9546 26.365C25.3184 26.365 23.1813 28.502 23.1813 31.1382C23.1813 33.7744 25.3184 35.9115 27.9546 35.9115C30.5907 35.9115 32.7278 33.7744 32.7278 31.1382Z" stroke="#212121" stroke-width="2" stroke-miterlimit="10" stroke-linecap="square"/>
<path d="M16.817 8.86309C16.817 6.2269 14.6799 4.08984 12.0437 4.08984C9.40756 4.08984 7.27051 6.2269 7.27051 8.86309C7.27051 11.4993 9.40756 13.6363 12.0437 13.6363C14.6799 13.6363 16.817 11.4993 16.817 8.86309ZM16.817 8.86309H27.159C30.2346 8.86309 32.7278 11.3563 32.7278 14.4319C32.7278 17.5074 30.2346 20.0007 27.159 20.0007H12.8393C9.76374 20.0007 7.27051 22.4939 7.27051 25.5694C7.27051 28.645 9.76374 31.1382 12.8393 31.1382H21.988M32.7278 31.1382C32.7278 28.502 30.5907 26.365 27.9546 26.365C25.3184 26.365 23.1813 28.502 23.1813 31.1382C23.1813 33.7744 25.3184 35.9115 27.9546 35.9115C30.5907 35.9115 32.7278 33.7744 32.7278 31.1382Z" stroke="url(#paint0_linear_5034_2342)" stroke-width="2" stroke-miterlimit="10" stroke-linecap="square"/>
<defs>
<linearGradient id="paint0_linear_5034_2342" x1="20.2507" y1="4.08984" x2="20.2507" y2="35.912" gradientUnits="userSpaceOnUse">
<stop stop-color="#C7C7D1"/>
<stop offset="1" stop-color="#66666B"/>
</linearGradient>
</defs>
</svg>
