<svg width="40" height="40" viewBox="0 0 40 40" fill="none" xmlns="http://www.w3.org/2000/svg">
  <path fill-rule="evenodd" clip-rule="evenodd"
    d="M2.25 2.75C1.14543 2.75 0.25 3.64543 0.25 4.75V15.25C0.25 16.3546 1.14543 17.25 2.25 17.25H5.25V22.75H2.25C1.14543 22.75 0.25 23.6454 0.25 24.75V35.25C0.25 36.3546 1.14543 37.25 2.25 37.25H37.75C38.8546 37.25 39.75 36.3546 39.75 35.25V24.75C39.75 23.6454 38.8546 22.75 37.75 22.75H34.75V17.25H37.75C38.8546 17.25 39.75 16.3546 39.75 15.25V4.75C39.75 3.64543 38.8546 2.75 37.75 2.75H2.25ZM33.75 15.25H37.75V4.75L2.25 4.75V15.25H6.25H33.75ZM32.75 17.25V22.75H7.25V17.25H32.75ZM7.5 9C6.94772 9 6.5 9.44772 6.5 10C6.5 10.5523 6.94772 11 7.5 11H13.75C14.3023 11 14.75 10.5523 14.75 10C14.75 9.44772 14.3023 9 13.75 9H7.5ZM32.5 11.25C33.1904 11.25 33.75 10.6904 33.75 10C33.75 9.30964 33.1904 8.75 32.5 8.75C31.8096 8.75 31.25 9.30964 31.25 10C31.25 10.6904 31.8096 11.25 32.5 11.25ZM2.25 24.75H37.75V35.25H2.25V24.75ZM6.5 30C6.5 29.4477 6.94772 29 7.5 29H13.75C14.3023 29 14.75 29.4477 14.75 30C14.75 30.5523 14.3023 31 13.75 31H7.5C6.94772 31 6.5 30.5523 6.5 30ZM33.75 30C33.75 30.6904 33.1904 31.25 32.5 31.25C31.8096 31.25 31.25 30.6904 31.25 30C31.25 29.3096 31.8096 28.75 32.5 28.75C33.1904 28.75 33.75 29.3096 33.75 30Z"
    fill="#212121" />
  <path fill-rule="evenodd" clip-rule="evenodd"
    d="M2.25 2.75C1.14543 2.75 0.25 3.64543 0.25 4.75V15.25C0.25 16.3546 1.14543 17.25 2.25 17.25H5.25V22.75H2.25C1.14543 22.75 0.25 23.6454 0.25 24.75V35.25C0.25 36.3546 1.14543 37.25 2.25 37.25H37.75C38.8546 37.25 39.75 36.3546 39.75 35.25V24.75C39.75 23.6454 38.8546 22.75 37.75 22.75H34.75V17.25H37.75C38.8546 17.25 39.75 16.3546 39.75 15.25V4.75C39.75 3.64543 38.8546 2.75 37.75 2.75H2.25ZM33.75 15.25H37.75V4.75L2.25 4.75V15.25H6.25H33.75ZM32.75 17.25V22.75H7.25V17.25H32.75ZM7.5 9C6.94772 9 6.5 9.44772 6.5 10C6.5 10.5523 6.94772 11 7.5 11H13.75C14.3023 11 14.75 10.5523 14.75 10C14.75 9.44772 14.3023 9 13.75 9H7.5ZM32.5 11.25C33.1904 11.25 33.75 10.6904 33.75 10C33.75 9.30964 33.1904 8.75 32.5 8.75C31.8096 8.75 31.25 9.30964 31.25 10C31.25 10.6904 31.8096 11.25 32.5 11.25ZM2.25 24.75H37.75V35.25H2.25V24.75ZM6.5 30C6.5 29.4477 6.94772 29 7.5 29H13.75C14.3023 29 14.75 29.4477 14.75 30C14.75 30.5523 14.3023 31 13.75 31H7.5C6.94772 31 6.5 30.5523 6.5 30ZM33.75 30C33.75 30.6904 33.1904 31.25 32.5 31.25C31.8096 31.25 31.25 30.6904 31.25 30C31.25 29.3096 31.8096 28.75 32.5 28.75C33.1904 28.75 33.75 29.3096 33.75 30Z"
    fill="url(#paint0_linear_1950_13949)" />
  <defs>
    <linearGradient id="paint0_linear_1950_13949" x1="20.3903" y1="2.75" x2="20.3903" y2="37.2505"
      gradientUnits="userSpaceOnUse">
      <stop stop-color="#C7C7D1" />
      <stop offset="1" stop-color="#66666B" />
    </linearGradient>
  </defs>
</svg>