<svg width="40" height="40" viewBox="0 0 40 40" fill="none" xmlns="http://www.w3.org/2000/svg">
  <g clip-path="url(#clip0_1950_13939)">
    <path fill-rule="evenodd" clip-rule="evenodd"
      d="M2.875 20C2.875 10.5421 10.5421 2.875 20 2.875C29.4579 2.875 37.125 10.5421 37.125 20C37.125 29.4579 29.4579 37.125 20 37.125C10.5421 37.125 2.875 29.4579 2.875 20ZM20 0.875C9.43755 0.875 0.875 9.43755 0.875 20C0.875 30.5624 9.43755 39.125 20 39.125C30.5624 39.125 39.125 30.5624 39.125 20C39.125 9.43755 30.5624 0.875 20 0.875ZM14.6242 13.2644C14.356 12.7816 13.7471 12.6076 13.2644 12.8758C12.7816 13.144 12.6076 13.7529 12.8758 14.2356L16.8707 21.4264C16.1171 22.0869 15.5742 22.9819 15.356 23.9975H7.89418C7.31559 22.2471 7.12264 20.3893 7.33202 18.5522C7.56697 16.4908 8.30142 14.5179 9.47163 12.8047C10.6418 11.0915 12.2125 9.68973 14.0472 8.72106C15.8819 7.7524 17.9253 7.24609 20 7.24609C22.0747 7.24609 24.1181 7.7524 25.9528 8.72106C27.7876 9.68973 29.3582 11.0915 30.5284 12.8047C31.6986 14.5179 32.433 16.4908 32.668 18.5522C32.8774 20.3893 32.6844 22.2471 32.1058 23.9975H24.644C24.1839 21.8556 22.2794 20.25 20 20.25C19.5195 20.25 19.0556 20.3214 18.6184 20.4541L14.6242 13.2644ZM18.6429 22.6077C18.6501 22.6039 18.6572 22.6 18.6644 22.596C18.672 22.5918 18.6796 22.5875 18.6871 22.583C19.0772 22.3707 19.5245 22.25 20 22.25C21.5188 22.25 22.75 23.4812 22.75 25C22.75 26.5188 21.5188 27.75 20 27.75C18.4828 27.75 17.2525 26.5213 17.25 25.0046V24.9954C17.2517 23.9721 17.8123 23.0798 18.6429 22.6077ZM15.3549 25.9975H7.87493C7.06242 25.9975 6.28699 25.4983 6.01091 24.6724C5.32937 22.6336 5.10078 20.4674 5.34489 18.3257C5.6167 15.941 6.46635 13.6586 7.82012 11.6767C9.17389 9.6947 10.9909 8.07305 13.1134 6.95243C15.2359 5.83182 17.5998 5.24609 20 5.24609C22.4002 5.24609 24.7641 5.83182 26.8866 6.95243C29.0091 8.07305 30.8261 9.6947 32.1799 11.6767C33.5337 13.6586 34.3833 15.941 34.6551 18.3257C34.8992 20.4675 34.6706 22.6336 33.9891 24.6724C33.713 25.4983 32.9376 25.9975 32.1251 25.9975H24.6451C24.1868 28.1419 22.2812 29.75 20 29.75C17.7188 29.75 15.8132 28.1419 15.3549 25.9975Z"
      fill="#212121" />
    <path fill-rule="evenodd" clip-rule="evenodd"
      d="M2.875 20C2.875 10.5421 10.5421 2.875 20 2.875C29.4579 2.875 37.125 10.5421 37.125 20C37.125 29.4579 29.4579 37.125 20 37.125C10.5421 37.125 2.875 29.4579 2.875 20ZM20 0.875C9.43755 0.875 0.875 9.43755 0.875 20C0.875 30.5624 9.43755 39.125 20 39.125C30.5624 39.125 39.125 30.5624 39.125 20C39.125 9.43755 30.5624 0.875 20 0.875ZM14.6242 13.2644C14.356 12.7816 13.7471 12.6076 13.2644 12.8758C12.7816 13.144 12.6076 13.7529 12.8758 14.2356L16.8707 21.4264C16.1171 22.0869 15.5742 22.9819 15.356 23.9975H7.89418C7.31559 22.2471 7.12264 20.3893 7.33202 18.5522C7.56697 16.4908 8.30142 14.5179 9.47163 12.8047C10.6418 11.0915 12.2125 9.68973 14.0472 8.72106C15.8819 7.7524 17.9253 7.24609 20 7.24609C22.0747 7.24609 24.1181 7.7524 25.9528 8.72106C27.7876 9.68973 29.3582 11.0915 30.5284 12.8047C31.6986 14.5179 32.433 16.4908 32.668 18.5522C32.8774 20.3893 32.6844 22.2471 32.1058 23.9975H24.644C24.1839 21.8556 22.2794 20.25 20 20.25C19.5195 20.25 19.0556 20.3214 18.6184 20.4541L14.6242 13.2644ZM18.6429 22.6077C18.6501 22.6039 18.6572 22.6 18.6644 22.596C18.672 22.5918 18.6796 22.5875 18.6871 22.583C19.0772 22.3707 19.5245 22.25 20 22.25C21.5188 22.25 22.75 23.4812 22.75 25C22.75 26.5188 21.5188 27.75 20 27.75C18.4828 27.75 17.2525 26.5213 17.25 25.0046V24.9954C17.2517 23.9721 17.8123 23.0798 18.6429 22.6077ZM15.3549 25.9975H7.87493C7.06242 25.9975 6.28699 25.4983 6.01091 24.6724C5.32937 22.6336 5.10078 20.4674 5.34489 18.3257C5.6167 15.941 6.46635 13.6586 7.82012 11.6767C9.17389 9.6947 10.9909 8.07305 13.1134 6.95243C15.2359 5.83182 17.5998 5.24609 20 5.24609C22.4002 5.24609 24.7641 5.83182 26.8866 6.95243C29.0091 8.07305 30.8261 9.6947 32.1799 11.6767C33.5337 13.6586 34.3833 15.941 34.6551 18.3257C34.8992 20.4675 34.6706 22.6336 33.9891 24.6724C33.713 25.4983 32.9376 25.9975 32.1251 25.9975H24.6451C24.1868 28.1419 22.2812 29.75 20 29.75C17.7188 29.75 15.8132 28.1419 15.3549 25.9975Z"
      fill="url(#paint0_linear_1950_13939)" />
  </g>
  <defs>
    <linearGradient id="paint0_linear_1950_13939" x1="20.378" y1="0.875" x2="20.378" y2="39.1256"
      gradientUnits="userSpaceOnUse">
      <stop stop-color="#C7C7D1" />
      <stop offset="1" stop-color="#66666B" />
    </linearGradient>
    <clipPath id="clip0_1950_13939">
      <rect width="40" height="40" fill="white" />
    </clipPath>
  </defs>
</svg>