<svg width="40" height="40" viewBox="0 0 40 40" fill="none" xmlns="http://www.w3.org/2000/svg">
  <g clip-path="url(#clip0_1950_14060)">
    <path fill-rule="evenodd" clip-rule="evenodd"
      d="M7.74472 7.7435C7.18621 8.302 6.67378 8.88914 6.20744 9.50019L11.9611 15.2532C12.3522 14.5919 12.8318 13.9686 13.4001 13.4003C13.97 12.8304 14.5953 12.3496 15.2586 11.9579L9.5045 6.20386C8.89234 6.67084 8.30416 7.18405 7.74472 7.7435ZM17.2179 11.0889C19.027 10.5258 20.9737 10.5259 22.7827 11.0892L28.8063 5.06495C23.3909 1.86708 16.6099 1.86732 11.1947 5.06566L17.2179 11.0889ZM24.7418 11.9585C25.4048 12.3501 26.0297 12.8307 26.5993 13.4003C27.1686 13.9696 27.649 14.5941 28.0404 15.2565L33.7956 9.5013C33.3291 8.88985 32.8164 8.30234 32.2575 7.7435C31.6977 7.18371 31.1092 6.67022 30.4966 6.20302L24.7418 11.9585ZM28.9099 17.2154C29.4734 19.0239 29.474 20.9699 28.9117 22.7787L34.9371 28.8034C38.1344 23.3876 38.1334 16.6063 34.9341 11.1913L28.9099 17.2154ZM28.0432 24.7385C27.6512 25.4028 27.17 26.0289 26.5993 26.5995C26.0302 27.1686 25.4059 27.6489 24.7436 28.0403L30.4986 33.7953C31.1104 33.3285 31.6983 32.8155 32.2575 32.2563C32.8178 31.696 33.3317 31.107 33.7992 30.4939L28.0432 24.7385ZM22.7848 28.9099C20.9743 29.4741 19.0258 29.4742 17.2153 28.9101L11.193 34.9331C16.6091 38.1329 23.3921 38.133 28.8084 34.9336L22.7848 28.9099ZM15.2565 28.0406C14.5939 27.6491 13.9694 27.1688 13.4001 26.5995C12.8304 26.0297 12.3497 25.4046 11.9581 24.7415L6.20421 30.4954C6.67142 31.1079 7.18492 31.6965 7.74472 32.2563C8.30369 32.8153 8.89135 33.3281 9.50295 33.7948L15.2565 28.0406ZM11.0889 22.7823C10.5251 20.9711 10.5257 19.0221 11.0908 17.2113L5.06891 11.1901C1.86856 16.6058 1.86763 23.3885 5.06613 28.805L11.0889 22.7823ZM6.33052 33.6705C-1.21955 26.1204 -1.21955 13.8794 6.33052 6.3293C13.8806 -1.22077 26.1217 -1.22077 33.6717 6.3293C41.2218 13.8794 41.2218 26.1204 33.6717 33.6705C26.1217 41.2206 13.8806 41.2206 6.33052 33.6705ZM14.8143 25.1853C11.9505 22.3215 11.9505 17.6783 14.8143 14.8145C17.6782 11.9507 22.3213 11.9507 25.1851 14.8145C28.049 17.6783 28.049 22.3215 25.1851 25.1853C22.3213 28.0491 17.6782 28.0491 14.8143 25.1853Z"
      fill="#212121" />
    <path fill-rule="evenodd" clip-rule="evenodd"
      d="M7.74472 7.7435C7.18621 8.302 6.67378 8.88914 6.20744 9.50019L11.9611 15.2532C12.3522 14.5919 12.8318 13.9686 13.4001 13.4003C13.97 12.8304 14.5953 12.3496 15.2586 11.9579L9.5045 6.20386C8.89234 6.67084 8.30416 7.18405 7.74472 7.7435ZM17.2179 11.0889C19.027 10.5258 20.9737 10.5259 22.7827 11.0892L28.8063 5.06495C23.3909 1.86708 16.6099 1.86732 11.1947 5.06566L17.2179 11.0889ZM24.7418 11.9585C25.4048 12.3501 26.0297 12.8307 26.5993 13.4003C27.1686 13.9696 27.649 14.5941 28.0404 15.2565L33.7956 9.5013C33.3291 8.88985 32.8164 8.30234 32.2575 7.7435C31.6977 7.18371 31.1092 6.67022 30.4966 6.20302L24.7418 11.9585ZM28.9099 17.2154C29.4734 19.0239 29.474 20.9699 28.9117 22.7787L34.9371 28.8034C38.1344 23.3876 38.1334 16.6063 34.9341 11.1913L28.9099 17.2154ZM28.0432 24.7385C27.6512 25.4028 27.17 26.0289 26.5993 26.5995C26.0302 27.1686 25.4059 27.6489 24.7436 28.0403L30.4986 33.7953C31.1104 33.3285 31.6983 32.8155 32.2575 32.2563C32.8178 31.696 33.3317 31.107 33.7992 30.4939L28.0432 24.7385ZM22.7848 28.9099C20.9743 29.4741 19.0258 29.4742 17.2153 28.9101L11.193 34.9331C16.6091 38.1329 23.3921 38.133 28.8084 34.9336L22.7848 28.9099ZM15.2565 28.0406C14.5939 27.6491 13.9694 27.1688 13.4001 26.5995C12.8304 26.0297 12.3497 25.4046 11.9581 24.7415L6.20421 30.4954C6.67142 31.1079 7.18492 31.6965 7.74472 32.2563C8.30369 32.8153 8.89135 33.3281 9.50295 33.7948L15.2565 28.0406ZM11.0889 22.7823C10.5251 20.9711 10.5257 19.0221 11.0908 17.2113L5.06891 11.1901C1.86856 16.6058 1.86763 23.3885 5.06613 28.805L11.0889 22.7823ZM6.33052 33.6705C-1.21955 26.1204 -1.21955 13.8794 6.33052 6.3293C13.8806 -1.22077 26.1217 -1.22077 33.6717 6.3293C41.2218 13.8794 41.2218 26.1204 33.6717 33.6705C26.1217 41.2206 13.8806 41.2206 6.33052 33.6705ZM14.8143 25.1853C11.9505 22.3215 11.9505 17.6783 14.8143 14.8145C17.6782 11.9507 22.3213 11.9507 25.1851 14.8145C28.049 17.6783 28.049 22.3215 25.1851 25.1853C22.3213 28.0491 17.6782 28.0491 14.8143 25.1853Z"
      fill="url(#paint0_linear_1950_14060)" />
  </g>
  <defs>
    <linearGradient id="paint0_linear_1950_14060" x1="20.3832" y1="0.666748" x2="20.3832" y2="39.3337"
      gradientUnits="userSpaceOnUse">
      <stop stop-color="#C7C7D1" />
      <stop offset="1" stop-color="#66666B" />
    </linearGradient>
    <clipPath id="clip0_1950_14060">
      <rect width="40" height="40" fill="white" />
    </clipPath>
  </defs>
</svg>