<svg width="40" height="40" viewBox="0 0 40 40" fill="none" xmlns="http://www.w3.org/2000/svg">
  <path fill-rule="evenodd" clip-rule="evenodd"
    d="M2.33594 3.5C2.33594 2.39543 3.23137 1.5 4.33594 1.5H10.6693C11.7738 1.5 12.6693 2.39543 12.6693 3.5V9.83333C12.6693 10.9379 11.7738 11.8333 10.6693 11.8333H4.33594C3.23137 11.8333 2.33594 10.9379 2.33594 9.83333V3.5ZM10.6693 3.5L4.33594 3.5V9.83333L10.6693 9.83333L10.6693 3.5ZM16.5 6.66797C16.5 6.11568 16.9477 5.66797 17.5 5.66797H36.6667C37.2189 5.66797 37.6667 6.11568 37.6667 6.66797C37.6667 7.22025 37.2189 7.66797 36.6667 7.66797H17.5C16.9477 7.66797 16.5 7.22025 16.5 6.66797ZM16.5 20C16.5 19.4477 16.9477 19 17.5 19H36.6667C37.2189 19 37.6667 19.4477 37.6667 20C37.6667 20.5523 37.2189 21 36.6667 21H17.5C16.9477 21 16.5 20.5523 16.5 20ZM17.5 32.332C16.9477 32.332 16.5 32.7797 16.5 33.332C16.5 33.8843 16.9477 34.332 17.5 34.332H36.6667C37.2189 34.332 37.6667 33.8843 37.6667 33.332C37.6667 32.7797 37.2189 32.332 36.6667 32.332H17.5ZM4.33594 28.168C3.23137 28.168 2.33594 29.0634 2.33594 30.168V36.5013C2.33594 37.6059 3.23137 38.5013 4.33594 38.5013H10.6693C11.7738 38.5013 12.6693 37.6059 12.6693 36.5013V30.168C12.6693 29.0634 11.7738 28.168 10.6693 28.168H4.33594ZM4.33594 30.168H10.6693L10.6693 36.5013H4.33594V30.168ZM2.62883 15.1249C3.01935 14.7344 3.65252 14.7344 4.04304 15.1249L7.5026 18.5845L10.9622 15.1249C11.3527 14.7344 11.9859 14.7344 12.3764 15.1249C12.7669 15.5154 12.7669 16.1486 12.3764 16.5391L8.91682 19.9987L12.3764 23.4583C12.7669 23.8488 12.7669 24.4819 12.3764 24.8725C11.9859 25.263 11.3527 25.263 10.9622 24.8725L7.5026 21.4129L4.04304 24.8725C3.65252 25.263 3.01935 25.263 2.62883 24.8725C2.23831 24.4819 2.23831 23.8488 2.62883 23.4583L6.08839 19.9987L2.62883 16.5391C2.23831 16.1486 2.23831 15.5154 2.62883 15.1249Z"
    fill="#212121" />
  <path fill-rule="evenodd" clip-rule="evenodd"
    d="M2.33594 3.5C2.33594 2.39543 3.23137 1.5 4.33594 1.5H10.6693C11.7738 1.5 12.6693 2.39543 12.6693 3.5V9.83333C12.6693 10.9379 11.7738 11.8333 10.6693 11.8333H4.33594C3.23137 11.8333 2.33594 10.9379 2.33594 9.83333V3.5ZM10.6693 3.5L4.33594 3.5V9.83333L10.6693 9.83333L10.6693 3.5ZM16.5 6.66797C16.5 6.11568 16.9477 5.66797 17.5 5.66797H36.6667C37.2189 5.66797 37.6667 6.11568 37.6667 6.66797C37.6667 7.22025 37.2189 7.66797 36.6667 7.66797H17.5C16.9477 7.66797 16.5 7.22025 16.5 6.66797ZM16.5 20C16.5 19.4477 16.9477 19 17.5 19H36.6667C37.2189 19 37.6667 19.4477 37.6667 20C37.6667 20.5523 37.2189 21 36.6667 21H17.5C16.9477 21 16.5 20.5523 16.5 20ZM17.5 32.332C16.9477 32.332 16.5 32.7797 16.5 33.332C16.5 33.8843 16.9477 34.332 17.5 34.332H36.6667C37.2189 34.332 37.6667 33.8843 37.6667 33.332C37.6667 32.7797 37.2189 32.332 36.6667 32.332H17.5ZM4.33594 28.168C3.23137 28.168 2.33594 29.0634 2.33594 30.168V36.5013C2.33594 37.6059 3.23137 38.5013 4.33594 38.5013H10.6693C11.7738 38.5013 12.6693 37.6059 12.6693 36.5013V30.168C12.6693 29.0634 11.7738 28.168 10.6693 28.168H4.33594ZM4.33594 30.168H10.6693L10.6693 36.5013H4.33594V30.168ZM2.62883 15.1249C3.01935 14.7344 3.65252 14.7344 4.04304 15.1249L7.5026 18.5845L10.9622 15.1249C11.3527 14.7344 11.9859 14.7344 12.3764 15.1249C12.7669 15.5154 12.7669 16.1486 12.3764 16.5391L8.91682 19.9987L12.3764 23.4583C12.7669 23.8488 12.7669 24.4819 12.3764 24.8725C11.9859 25.263 11.3527 25.263 10.9622 24.8725L7.5026 21.4129L4.04304 24.8725C3.65252 25.263 3.01935 25.263 2.62883 24.8725C2.23831 24.4819 2.23831 23.8488 2.62883 23.4583L6.08839 19.9987L2.62883 16.5391C2.23831 16.1486 2.23831 15.5154 2.62883 15.1249Z"
    fill="url(#paint0_linear_1950_13922)" />
  <defs>
    <linearGradient id="paint0_linear_1950_13922" x1="20.3504" y1="1.5" x2="20.3504" y2="38.5019"
      gradientUnits="userSpaceOnUse">
      <stop stop-color="#C7C7D1" />
      <stop offset="1" stop-color="#66666B" />
    </linearGradient>
  </defs>
</svg>