<svg width="24" height="24" viewBox="0 0 24 24" fill="none" xmlns="http://www.w3.org/2000/svg">
<path d="M12.0006 8.33333C12.5951 8.33229 13.1804 8.18673 13.7061 7.90918C14.2318 7.63164 14.6821 7.23045 15.0183 6.74016C15.9439 7.19627 16.7559 7.85337 17.395 8.66347C18.0341 9.47356 18.4842 10.4162 18.7124 11.4225C18.7807 11.7276 18.9508 12.0004 19.1947 12.196C19.4386 12.3915 19.7418 12.4983 20.0544 12.4987C20.1549 12.4991 20.2551 12.4886 20.3533 12.4675C20.7093 12.3882 21.0192 12.1709 21.2152 11.8632C21.4111 11.5556 21.4769 11.1828 21.3983 10.8267C21.0525 9.30736 20.3448 7.89405 19.3356 6.70697C18.3263 5.51988 17.0452 4.59414 15.6013 4.00849C15.4761 3.32251 15.1579 2.68643 14.684 2.17488C14.2102 1.66333 13.6002 1.29751 12.9258 1.12033C12.2514 0.943155 11.5404 0.961968 10.8763 1.17456C10.2122 1.38716 9.62243 1.78472 9.17627 2.32062C8.73011 2.85651 8.446 3.50853 8.35729 4.20017C8.26857 4.89182 8.37892 5.59443 8.67539 6.22558C8.97186 6.85674 9.44216 7.39026 10.0311 7.76359C10.6201 8.13691 11.3033 8.33455 12.0006 8.33333Z" fill="white"/>
<path d="M5.23927 13.892C5.17849 13.57 5.14051 13.244 5.1256 12.9167C5.1215 11.1249 5.82137 9.40322 7.07444 8.12249C7.20047 7.99309 7.29979 7.84012 7.36671 7.67234C7.43363 7.50455 7.46685 7.32522 7.46446 7.1446C7.46208 6.96397 7.42414 6.78558 7.35282 6.61962C7.28149 6.45365 7.17818 6.30336 7.04877 6.17733C6.91936 6.05129 6.7664 5.95198 6.59861 5.88506C6.43082 5.81814 6.2515 5.78492 6.07087 5.7873C5.70608 5.79212 5.35815 5.94165 5.1036 6.20299C3.34936 7.99676 2.36972 10.4077 2.3756 12.9167C2.38121 13.4596 2.43211 14.0011 2.52777 14.5355C1.83802 15.0309 1.3416 15.7503 1.12326 16.571C0.904927 17.3916 0.978219 18.2626 1.33062 19.0353C1.68303 19.8079 2.29269 20.4343 3.05553 20.8074C3.81837 21.1806 4.68708 21.2773 5.51334 21.0813C6.3396 20.8852 7.07217 20.4084 7.586 19.7322C8.09982 19.0561 8.36302 18.2226 8.33067 17.374C8.29833 16.5254 7.97243 15.7144 7.40862 15.0793C6.84481 14.4443 6.07806 14.0246 5.23927 13.892Z" fill="white"/>
<path d="M19.3339 13.8333C18.3615 13.8333 17.4288 14.2196 16.7412 14.9073C16.0536 15.5949 15.6673 16.5275 15.6673 17.5C15.6743 17.8611 15.7361 18.219 15.8506 18.5615C15.0631 19.098 14.1738 19.4672 13.2379 19.6463C12.302 19.8254 11.3393 19.8106 10.4093 19.6028C10.0546 19.5173 9.68039 19.5761 9.36907 19.7664C9.05774 19.9567 8.83476 20.2629 8.74919 20.6176C8.66361 20.9723 8.72245 21.3465 8.91275 21.6578C9.10305 21.9691 9.40923 22.1921 9.76394 22.2777C11.106 22.6008 12.5024 22.6276 13.8559 22.3563C15.2095 22.085 16.4876 21.522 17.6014 20.7065C18.1312 21.0029 18.727 21.1611 19.3339 21.1667C20.3064 21.1667 21.239 20.7804 21.9267 20.0927C22.6143 19.4051 23.0006 18.4725 23.0006 17.5C23.0006 16.5275 22.6143 15.5949 21.9267 14.9073C21.239 14.2196 20.3064 13.8333 19.3339 13.8333Z" fill="white"/>
</svg>
