<svg width="24" height="24" viewBox="0 0 24 24" fill="none" xmlns="http://www.w3.org/2000/svg">
<path d="M11.8687 1.00018C10.9615 1.00435 10.0952 1.08087 9.33301 1.21428C7.08755 1.60664 6.67986 2.42791 6.67986 3.94246V5.94272H11.9862V6.60947H6.67986H4.68845C3.14629 6.60947 1.79593 7.52628 1.37355 9.27037C0.886347 11.2695 0.864736 12.517 1.37355 14.6044C1.75074 16.1582 2.65153 17.2653 4.19369 17.2653H6.01811V14.8674C6.01811 13.1351 7.53349 11.6071 9.33301 11.6071H14.6331C16.1085 11.6071 17.2863 10.4056 17.2863 8.94005V3.94246C17.2863 2.52012 16.0731 1.45166 14.6331 1.21428C13.7216 1.06419 12.7758 0.996011 11.8687 1.00018ZM8.99905 2.60895C9.54715 2.60895 9.99475 3.0589 9.99475 3.61214C9.99475 4.16342 9.54715 4.60921 8.99905 4.60921C8.44898 4.60921 8.00334 4.16342 8.00334 3.61214C8.00334 3.0589 8.44898 2.60895 8.99905 2.60895Z" fill="white"/>
<path d="M17.9479 6.60938V8.93995C17.9479 10.7468 16.3991 12.2676 14.633 12.2676H9.33284C7.88105 12.2676 6.67969 13.4966 6.67969 14.9346V19.9322C6.67969 21.3546 7.93016 22.1912 9.33284 22.5992C11.0125 23.0877 12.6232 23.176 14.633 22.5992C15.9688 22.2167 17.2861 21.4468 17.2861 19.9322V17.9319H11.986V17.2652H17.2861H19.9393C21.4814 17.2652 22.0561 16.2012 22.5924 14.6043C23.1464 12.9603 23.1228 11.3793 22.5924 9.27027C22.2113 7.7518 21.4834 6.60938 19.9393 6.60938H17.9479ZM14.9669 19.2655C15.517 19.2655 15.9626 19.7112 15.9626 20.2625C15.9626 20.8158 15.517 21.2657 14.9669 21.2657C14.4188 21.2657 13.9712 20.8158 13.9712 20.2625C13.9712 19.7112 14.4188 19.2655 14.9669 19.2655Z" fill="white"/>
</svg>
