<svg width="944" height="577" viewBox="0 0 944 577" fill="none" xmlns="http://www.w3.org/2000/svg">
<mask id="mask0_766_158773" style="mask-type:alpha" maskUnits="userSpaceOnUse" x="0" y="0" width="944" height="577">
<rect width="944" height="577" fill="url(#paint0_linear_766_158773)"/>
</mask>
<g mask="url(#mask0_766_158773)">
<g filter="url(#filter0_f_766_158773)">
<path d="M101.336 139.742C100.42 134.11 104.767 129 110.472 129H833.534C839.239 129 843.586 134.11 842.671 139.742L772.871 569.228C772.143 573.709 768.274 577 763.735 577H180.271C175.732 577 171.863 573.709 171.135 569.228L101.336 139.742Z" fill="url(#paint1_linear_766_158773)"/>
</g>
</g>
<g filter="url(#filter1_b_766_158773)">
<rect x="92" y="95" width="760" height="482" rx="18" fill="white" fill-opacity="0.1"/>
<rect x="92.5" y="95.5" width="759" height="481" rx="17.5" stroke="white" stroke-opacity="0.1"/>
<rect x="92.5" y="95.5" width="759" height="481" rx="17.5" stroke="url(#paint2_radial_766_158773)"/>
</g>
<rect x="106" y="109" width="732" height="454" rx="10" fill="#0B0B0E"/>
<defs>
<filter id="filter0_f_766_158773" x="-19.1228" y="8.66373" width="982.252" height="688.673" filterUnits="userSpaceOnUse" color-interpolation-filters="sRGB">
<feFlood flood-opacity="0" result="BackgroundImageFix"/>
<feBlend mode="normal" in="SourceGraphic" in2="BackgroundImageFix" result="shape"/>
<feGaussianBlur stdDeviation="60.1681" result="effect1_foregroundBlur_766_158773"/>
</filter>
<filter id="filter1_b_766_158773" x="76" y="79" width="792" height="514" filterUnits="userSpaceOnUse" color-interpolation-filters="sRGB">
<feFlood flood-opacity="0" result="BackgroundImageFix"/>
<feGaussianBlur in="BackgroundImageFix" stdDeviation="8"/>
<feComposite in2="SourceAlpha" operator="in" result="effect1_backgroundBlur_766_158773"/>
<feBlend mode="normal" in="SourceGraphic" in2="effect1_backgroundBlur_766_158773" result="shape"/>
</filter>
<linearGradient id="paint0_linear_766_158773" x1="-3.75292e-07" y1="319.961" x2="944" y2="319.961" gradientUnits="userSpaceOnUse">
<stop offset="0.0439183" stop-color="#D9D9D9" stop-opacity="0.2"/>
<stop offset="0.362025" stop-color="#D9D9D9"/>
<stop offset="0.641513" stop-color="#D9D9D9"/>
<stop offset="0.954541" stop-color="#D9D9D9" stop-opacity="0.2"/>
</linearGradient>
<linearGradient id="paint1_linear_766_158773" x1="469.597" y1="149.774" x2="469.597" y2="658.51" gradientUnits="userSpaceOnUse">
<stop stop-color="#F44E36"/>
<stop offset="1" stop-color="#F44E36" stop-opacity="0.6"/>
</linearGradient>
<radialGradient id="paint2_radial_766_158773" cx="0" cy="0" r="1" gradientUnits="userSpaceOnUse" gradientTransform="translate(472 -38) rotate(90) scale(246.5 388.672)">
<stop stop-color="#FFA699"/>
<stop offset="1" stop-color="#FFA699" stop-opacity="0"/>
</radialGradient>
</defs>
</svg>
