<svg width="24" height="40" viewBox="0 0 24 40" fill="none" xmlns="http://www.w3.org/2000/svg">
<path d="M11.8299 4C6.01474 4 0 8.44342 0 15.8788C0 23.6685 10.9982 34.7562 11.4663 35.2243C11.5625 35.321 11.6936 35.375 11.8299 35.375C11.9662 35.375 12.0974 35.321 12.1936 35.2243C12.6616 34.7562 23.6598 23.6685 23.6598 15.8788C23.6598 8.44342 17.6451 4 11.8299 4ZM11.8299 19.9447C9.55755 19.9447 7.71516 18.1023 7.71516 15.8299C7.71516 13.5575 9.55755 11.7152 11.8299 11.7152C14.1023 11.7152 15.9447 13.5575 15.9447 15.8299C15.9447 18.1023 14.1023 19.9447 11.8299 19.9447Z" fill="white"/>
<path d="M11.8299 4C6.01474 4 0 8.44342 0 15.8788C0 23.6685 10.9982 34.7562 11.4663 35.2243C11.5625 35.321 11.6936 35.375 11.8299 35.375C11.9662 35.375 12.0974 35.321 12.1936 35.2243C12.6616 34.7562 23.6598 23.6685 23.6598 15.8788C23.6598 8.44342 17.6451 4 11.8299 4ZM11.8299 19.9447C9.55755 19.9447 7.71516 18.1023 7.71516 15.8299C7.71516 13.5575 9.55755 11.7152 11.8299 11.7152C14.1023 11.7152 15.9447 13.5575 15.9447 15.8299C15.9447 18.1023 14.1023 19.9447 11.8299 19.9447Z" fill="url(#paint0_linear_3579_24434)"/>
<defs>
<linearGradient id="paint0_linear_3579_24434" x1="11.8299" y1="4" x2="11.8299" y2="35.375" gradientUnits="userSpaceOnUse">
<stop stop-color="#D6D6EC"/>
<stop offset="1" stop-color="#C4C4D6"/>
</linearGradient>
</defs>
</svg>
