<svg width="24" height="25" viewBox="0 0 24 25" fill="none" xmlns="http://www.w3.org/2000/svg">
<path d="M10.6016 13.8307H12.8989L13.3989 11.1641H11.1016L10.6016 13.8307Z" fill="#FF371A"/>
<path d="M12.0026 1.83203C6.12127 1.83203 1.33594 6.61737 1.33594 12.4987C1.33594 18.38 6.12127 23.1654 12.0026 23.1654C17.8839 23.1654 22.6693 18.38 22.6693 12.4987C22.6693 6.61737 17.8839 1.83203 12.0026 1.83203ZM17.3359 11.1654H15.4373L14.9373 13.832H16.3359C16.8879 13.832 17.3359 14.28 17.3359 14.832C17.3359 15.384 16.8879 15.832 16.3359 15.832H14.5613L14.1519 18.016C14.0626 18.496 13.6413 18.832 13.1706 18.832C13.1093 18.832 13.0466 18.8267 12.9839 18.8147C12.4426 18.712 12.0839 18.1907 12.1853 17.648L12.5253 15.832H10.2266L9.81727 18.016C9.72794 18.496 9.3066 18.832 8.83594 18.832C8.77461 18.832 8.71194 18.8267 8.64927 18.8147C8.10794 18.712 7.74927 18.1907 7.85061 17.648L8.1906 15.832H6.6666C6.1146 15.832 5.6666 15.384 5.6666 14.832C5.6666 14.28 6.1146 13.832 6.6666 13.832H8.56527L9.06527 11.1654H7.6666C7.1146 11.1654 6.6666 10.7174 6.6666 10.1654C6.6666 9.61337 7.1146 9.16537 7.6666 9.16537H9.44127L9.85061 6.98137C9.95194 6.4387 10.4706 6.07603 11.0186 6.1827C11.5599 6.28537 11.9186 6.8067 11.8173 7.34937L11.4773 9.16537H13.7759L14.1853 6.98137C14.2853 6.4387 14.8066 6.07603 15.3533 6.1827C15.8946 6.28537 16.2533 6.8067 16.1519 7.34937L15.8119 9.16537H17.3359C17.8879 9.16537 18.3359 9.61337 18.3359 10.1654C18.3359 10.7174 17.8879 11.1654 17.3359 11.1654Z" fill="#FF371A"/>
</svg>
