<svg width="17" height="17" viewBox="0 0 17 17" fill="none" xmlns="http://www.w3.org/2000/svg">
<rect x="5.80469" y="5.80469" width="10.199" height="10.2029" rx="1" stroke="white" stroke-width="1.4"/>
<path fill-rule="evenodd" clip-rule="evenodd" d="M1.70317 0.00292969C0.764288 0.00292969 0.00317383 0.764048 0.00317383 1.70293V9.90585C0.00317383 10.8447 0.764289 11.6059 1.70317 11.6059H3.40161C3.78821 11.6059 4.10161 11.2925 4.10161 10.9059C4.10161 10.5193 3.78821 10.2059 3.40161 10.2059H1.70317C1.53749 10.2059 1.40317 10.0715 1.40317 9.90585V1.70293C1.40317 1.53724 1.53749 1.40293 1.70317 1.40293H9.90217C10.0679 1.40293 10.2022 1.53724 10.2022 1.70293V3.40137C10.2022 3.78797 10.5156 4.10137 10.9022 4.10137C11.2888 4.10137 11.6022 3.78797 11.6022 3.40137V1.70293C11.6022 0.764046 10.8411 0.00292969 9.90217 0.00292969H1.70317Z" fill="white"/>
</svg>
