<svg width="20" height="20" viewBox="0 0 20 20" fill="none" xmlns="http://www.w3.org/2000/svg">
<path fill-rule="evenodd" clip-rule="evenodd" d="M2.4764 2.5355C4.44726 0.488166 7.65573 0.488166 9.62659 2.5355L12.1885 5.19681C14.1413 7.22541 14.1413 10.4998 12.1885 12.5284L12.1778 12.5396C11.7647 12.9702 11.2937 13.3118 10.7889 13.5621C10.356 13.7767 9.83097 13.5997 9.61632 13.1668C9.40166 12.7338 9.57863 12.2088 10.0116 11.9942C10.336 11.8333 10.6425 11.6121 10.9149 11.3281L10.9277 11.3148C12.2282 9.96381 12.2282 7.76144 10.9277 6.41048L8.36583 3.74917C7.08337 2.41694 5.01962 2.41694 3.73716 3.74917L3.72538 3.7614C2.42488 5.11237 2.42487 7.31473 3.72538 8.66569L4.82199 9.80486C5.15713 10.153 5.14659 10.7069 4.79844 11.0421C4.45029 11.3772 3.89638 11.3667 3.56123 11.0185L2.46462 9.87936C0.511794 7.85077 0.511794 4.57633 2.46462 2.54774M2.46462 2.54774L2.4764 2.5355L2.46462 2.54774ZM9.88293 6.33246C10.0976 6.76542 9.92062 7.29042 9.48767 7.50507C9.16325 7.66591 8.85677 7.88718 8.58433 8.17116L8.5833 8.17224L8.57152 8.18447C7.27102 9.53544 7.27101 11.7378 8.57151 13.0888L11.1334 15.7501C12.4159 17.0823 14.4796 17.0823 15.7621 15.7501C15.7621 15.7501 15.7621 15.7501 15.7621 15.7501L15.7739 15.7379C17.0744 14.3869 17.0744 12.1845 15.7739 10.8336L14.6773 9.69439C14.3421 9.34624 14.3527 8.79232 14.7008 8.45718C15.049 8.12204 15.6029 8.13258 15.938 8.48073L17.0346 9.61989C18.9875 11.6485 18.9875 14.9229 17.0346 16.9515L17.0229 16.9637C15.052 19.0111 11.8435 19.0111 9.87266 16.9637L7.31075 14.3024C5.35793 12.2738 5.35793 8.99942 7.31075 6.97082C7.31074 6.97082 7.31075 6.97082 7.31075 6.97082L7.32149 6.95966C7.73458 6.52907 8.2055 6.18748 8.71033 5.9372C9.14328 5.72254 9.66828 5.89951 9.88293 6.33246Z"/>
</svg>
