<svg width="28" height="28" viewBox="0 0 28 28" fill="none" xmlns="http://www.w3.org/2000/svg">
<g clip-path="url(#clip0_1276_6132)">
<path opacity="0.6" d="M14 6.125C15.4497 6.125 16.625 4.94975 16.625 3.5C16.625 2.05025 15.4497 0.875 14 0.875C12.5503 0.875 11.375 2.05025 11.375 3.5C11.375 4.94975 12.5503 6.125 14 6.125Z" fill="white"/>
<path opacity="0.8" d="M21.4248 9.20019C22.8746 9.20019 24.0498 8.02494 24.0498 6.5752C24.0498 5.12545 22.8746 3.9502 21.4248 3.9502C19.9751 3.9502 18.7998 5.12545 18.7998 6.5752C18.7998 8.02494 19.9751 9.20019 21.4248 9.20019Z" fill="white"/>
<path d="M24.5 16.625C25.9497 16.625 27.125 15.4497 27.125 14C27.125 12.5503 25.9497 11.375 24.5 11.375C23.0503 11.375 21.875 12.5503 21.875 14C21.875 15.4497 23.0503 16.625 24.5 16.625Z" fill="white"/>
<path opacity="0.4" d="M21.4248 24.0498C22.8746 24.0498 24.0498 22.8746 24.0498 21.4248C24.0498 19.9751 22.8746 18.7998 21.4248 18.7998C19.9751 18.7998 18.7998 19.9751 18.7998 21.4248C18.7998 22.8746 19.9751 24.0498 21.4248 24.0498Z" fill="white"/>
<path opacity="0.4" d="M14 27.125C15.4497 27.125 16.625 25.9497 16.625 24.5C16.625 23.0503 15.4497 21.875 14 21.875C12.5503 21.875 11.375 23.0503 11.375 24.5C11.375 25.9497 12.5503 27.125 14 27.125Z" fill="white"/>
<path opacity="0.4" d="M6.5752 24.0498C8.02494 24.0498 9.20019 22.8746 9.20019 21.4248C9.20019 19.9751 8.02494 18.7998 6.5752 18.7998C5.12545 18.7998 3.9502 19.9751 3.9502 21.4248C3.9502 22.8746 5.12545 24.0498 6.5752 24.0498Z" fill="white"/>
<path opacity="0.4" d="M3.5 16.625C4.94975 16.625 6.125 15.4497 6.125 14C6.125 12.5503 4.94975 11.375 3.5 11.375C2.05025 11.375 0.875 12.5503 0.875 14C0.875 15.4497 2.05025 16.625 3.5 16.625Z" fill="white"/>
<path opacity="0.4" d="M6.5752 9.20019C8.02494 9.20019 9.20019 8.02494 9.20019 6.5752C9.20019 5.12545 8.02494 3.9502 6.5752 3.9502C5.12545 3.9502 3.9502 5.12545 3.9502 6.5752C3.9502 8.02494 5.12545 9.20019 6.5752 9.20019Z" fill="white"/>
</g>
<defs>
<clipPath id="clip0_1276_6132">
<rect width="28" height="28" fill="white"/>
</clipPath>
</defs>
</svg>
