<svg width="20" height="21" viewBox="0 0 20 21" fill="none" xmlns="http://www.w3.org/2000/svg">
<path d="M19.75 6.57422C19.5 4.94922 18.75 3.82422 17 3.57422C14.25 3.07422 10 3.07422 10 3.07422C10 3.07422 5.75 3.07422 3 3.57422C1.25 3.82422 0.375 4.94922 0.25 6.57422C0 8.19922 0 10.5742 0 10.5742C0 10.5742 0 12.9492 0.25 14.5742C0.5 16.1992 1.25 17.3242 3 17.5742C5.75 18.0742 10 18.0742 10 18.0742C10 18.0742 14.25 18.0742 17 17.5742C18.75 17.1992 19.5 16.1992 19.75 14.5742C20 12.9492 20 10.5742 20 10.5742C20 10.5742 20 8.19922 19.75 6.57422ZM7.5 14.3242V6.82422L13.75 10.5742L7.5 14.3242Z"/>
</svg>
