<svg width="40" height="40" viewBox="0 0 40 40" fill="none" xmlns="http://www.w3.org/2000/svg">
<path d="M22.5231 25.7719C22.615 27.4577 23.2105 29.0771 24.2326 30.4209C25.2547 31.7646 26.6565 32.7708 28.2565 33.3093C29.8566 33.8479 31.5815 33.8941 33.2081 33.4419C34.8347 32.9897 36.2882 32.0599 37.3807 30.7728C38.4733 29.4857 39.1546 27.9004 39.3365 26.2219C39.5184 24.5435 39.1926 22.849 38.4013 21.3577C37.6099 19.8664 36.3894 18.6468 34.8974 17.8565C33.4055 17.0663 31.7108 16.7418 30.0325 16.925C30.4554 12.9976 31.8417 9.23538 34.0681 5.97251C34.1311 5.87838 34.1673 5.7689 34.1729 5.65579C34.1785 5.54268 34.1532 5.43017 34.0998 5.3303C34.0464 5.23043 33.9669 5.14695 33.8697 5.08877C33.7725 5.0306 33.6614 4.99992 33.5481 5.00001L31.875 5.00001C31.7917 4.99985 31.7092 5.01636 31.6323 5.04856C31.5555 5.08076 31.4858 5.128 31.4275 5.18751C27.4825 9.23563 22.8169 15.8788 22.5275 24.7625C22.5163 24.945 22.5 25.1263 22.5 25.3113C22.5 25.3525 22.5056 25.3919 22.5063 25.4363C22.5063 25.4988 22.5 25.5613 22.5 25.6238C22.5015 25.6739 22.5093 25.7237 22.5231 25.7719Z" fill="#FF371A"/>
<path d="M22.5231 25.7719C22.615 27.4577 23.2105 29.0771 24.2326 30.4209C25.2547 31.7646 26.6565 32.7708 28.2565 33.3093C29.8566 33.8479 31.5815 33.8941 33.2081 33.4419C34.8347 32.9897 36.2882 32.0599 37.3807 30.7728C38.4733 29.4857 39.1546 27.9004 39.3365 26.2219C39.5184 24.5435 39.1926 22.849 38.4013 21.3577C37.6099 19.8664 36.3894 18.6468 34.8974 17.8565C33.4055 17.0663 31.7108 16.7418 30.0325 16.925C30.4554 12.9976 31.8417 9.23538 34.0681 5.97251C34.1311 5.87838 34.1673 5.7689 34.1729 5.65579C34.1785 5.54268 34.1532 5.43017 34.0998 5.3303C34.0464 5.23043 33.9669 5.14695 33.8697 5.08877C33.7725 5.0306 33.6614 4.99992 33.5481 5.00001L31.875 5.00001C31.7917 4.99985 31.7092 5.01636 31.6323 5.04856C31.5555 5.08076 31.4858 5.128 31.4275 5.18751C27.4825 9.23563 22.8169 15.8788 22.5275 24.7625C22.5163 24.945 22.5 25.1263 22.5 25.3113C22.5 25.3525 22.5056 25.3919 22.5063 25.4363C22.5063 25.4988 22.5 25.5613 22.5 25.6238C22.5015 25.6739 22.5093 25.7237 22.5231 25.7719Z" fill="url(#paint0_linear_2195_10489)"/>
<path d="M0.631249 25.4344C0.631249 25.4969 0.625 25.5594 0.625 25.6219C0.626646 25.6716 0.634413 25.7209 0.648124 25.7688C0.739393 27.4547 1.33438 29.0745 2.35615 30.4187C3.37792 31.7628 4.77946 32.7695 6.37953 33.3086C7.97959 33.8476 9.70458 33.8942 11.3314 33.4424C12.9583 32.9905 14.4121 32.0609 15.505 30.7739C16.5978 29.4869 17.2794 27.9015 17.4615 26.223C17.6437 24.5444 17.3181 22.8498 16.5268 21.3583C15.7354 19.8667 14.5148 18.6469 13.0228 17.8566C11.5308 17.0663 9.83595 16.7417 8.1575 16.925C8.58042 12.9976 9.96666 9.23538 12.1931 5.9725C12.2561 5.87837 12.2923 5.7689 12.2979 5.65578C12.3035 5.54267 12.2782 5.43016 12.2248 5.33029C12.1714 5.23042 12.0919 5.14694 11.9947 5.08876C11.8975 5.03059 11.7864 4.99991 11.6731 5L10 5C9.91668 4.99985 9.83417 5.01636 9.75732 5.04856C9.68046 5.08075 9.61083 5.128 9.5525 5.1875C5.6075 9.23563 0.941875 15.8788 0.652499 24.7625C0.641249 24.945 0.625 25.1263 0.625 25.3113C0.625 25.3538 0.630624 25.3931 0.631249 25.4344Z" fill="#FF371A"/>
<path d="M0.631249 25.4344C0.631249 25.4969 0.625 25.5594 0.625 25.6219C0.626646 25.6716 0.634413 25.7209 0.648124 25.7688C0.739393 27.4547 1.33438 29.0745 2.35615 30.4187C3.37792 31.7628 4.77946 32.7695 6.37953 33.3086C7.97959 33.8476 9.70458 33.8942 11.3314 33.4424C12.9583 32.9905 14.4121 32.0609 15.505 30.7739C16.5978 29.4869 17.2794 27.9015 17.4615 26.223C17.6437 24.5444 17.3181 22.8498 16.5268 21.3583C15.7354 19.8667 14.5148 18.6469 13.0228 17.8566C11.5308 17.0663 9.83595 16.7417 8.1575 16.925C8.58042 12.9976 9.96666 9.23538 12.1931 5.9725C12.2561 5.87837 12.2923 5.7689 12.2979 5.65578C12.3035 5.54267 12.2782 5.43016 12.2248 5.33029C12.1714 5.23042 12.0919 5.14694 11.9947 5.08876C11.8975 5.03059 11.7864 4.99991 11.6731 5L10 5C9.91668 4.99985 9.83417 5.01636 9.75732 5.04856C9.68046 5.08075 9.61083 5.128 9.5525 5.1875C5.6075 9.23563 0.941875 15.8788 0.652499 24.7625C0.641249 24.945 0.625 25.1263 0.625 25.3113C0.625 25.3538 0.630624 25.3931 0.631249 25.4344Z" fill="url(#paint1_linear_2195_10489)"/>
<defs>
<linearGradient id="paint0_linear_2195_10489" x1="2.95397" y1="28.4978" x2="108.683" y2="24.1554" gradientUnits="userSpaceOnUse">
<stop offset="0.183444" stop-color="#FF462B"/>
<stop offset="1" stop-opacity="0"/>
</linearGradient>
<linearGradient id="paint1_linear_2195_10489" x1="2.95397" y1="28.4978" x2="108.683" y2="24.1554" gradientUnits="userSpaceOnUse">
<stop offset="0.183444" stop-color="#FF462B"/>
<stop offset="1" stop-opacity="0"/>
</linearGradient>
</defs>
</svg>
