<svg width="24" height="24" viewBox="0 0 24 24" fill="none" xmlns="http://www.w3.org/2000/svg">
<path fill-rule="evenodd" clip-rule="evenodd" d="M5 2C3.34315 2 2 3.34315 2 5V19C2 20.6569 3.34315 22 5 22H19C20.6569 22 22 20.6569 22 19V5C22 3.34315 20.6569 2 19 2H5ZM15 5.5C15.2761 5.5 15.5 5.72386 15.5 6L15.5 18C15.5 18.2761 15.2761 18.5 15 18.5C14.7239 18.5 14.5 18.2761 14.5 18L14.5 6C14.5 5.72386 14.7239 5.5 15 5.5ZM9.5 9C9.5 8.72386 9.27614 8.5 9 8.5C8.72386 8.5 8.5 8.72386 8.5 9V18C8.5 18.2761 8.72386 18.5 9 18.5C9.27614 18.5 9.5 18.2761 9.5 18L9.5 9ZM6.5 15C6.5 14.7239 6.27614 14.5 6 14.5C5.72386 14.5 5.5 14.7239 5.5 15V18C5.5 18.2761 5.72386 18.5 6 18.5C6.27614 18.5 6.5 18.2761 6.5 18V15ZM18 8.5C18.2761 8.5 18.5 8.72386 18.5 9V18C18.5 18.2761 18.2761 18.5 18 18.5C17.7239 18.5 17.5 18.2761 17.5 18V9C17.5 8.72386 17.7239 8.5 18 8.5ZM12.5 12C12.5 11.7239 12.2761 11.5 12 11.5C11.7239 11.5 11.5 11.7239 11.5 12V18C11.5 18.2761 11.7239 18.5 12 18.5C12.2761 18.5 12.5 18.2761 12.5 18V12Z" fill="white"/>
</svg>
