<svg width="24" height="24" viewBox="0 0 24 24" fill="none" xmlns="http://www.w3.org/2000/svg">
<path fill-rule="evenodd" clip-rule="evenodd" d="M12 23C18.0751 23 23 18.0751 23 12C23 5.92487 18.0751 1 12 1C5.92487 1 1 5.92487 1 12C1 18.0751 5.92487 23 12 23ZM14.2967 9.09486L17.8035 9.60461L17.8051 9.60542C17.955 9.6273 18.0958 9.69062 18.2115 9.78822C18.3273 9.88582 18.4134 10.0138 18.4602 10.1577C18.507 10.3017 18.5126 10.4558 18.4764 10.6028C18.4402 10.7497 18.3635 10.8836 18.2552 10.9894L15.7166 13.4593L16.3153 16.9496C16.3409 17.0989 16.3242 17.2523 16.2671 17.3926C16.21 17.5329 16.1147 17.6544 15.9921 17.7434C15.8695 17.8324 15.7244 17.8854 15.5732 17.8963C15.422 17.9072 15.2708 17.8756 15.1366 17.8051L12.0003 16.1582L8.86224 17.8068C8.72809 17.8772 8.57688 17.9088 8.42571 17.8979C8.27454 17.887 8.12943 17.834 8.00681 17.745C7.88418 17.656 7.78892 17.5345 7.73179 17.3942C7.67467 17.254 7.65796 17.1005 7.68356 16.9512L8.28224 13.461L5.74535 10.9894C5.63671 10.8835 5.55989 10.7495 5.52359 10.6023C5.4873 10.4551 5.49297 10.3007 5.53998 10.1566C5.58699 10.0124 5.67345 9.88434 5.78957 9.78679C5.90569 9.68924 6.04683 9.62613 6.197 9.60461L9.70381 9.09568L11.2692 5.92034C11.3435 5.79247 11.4502 5.68635 11.5785 5.61259C11.7068 5.53882 11.8522 5.5 12.0003 5.5C12.1483 5.5 12.2937 5.53882 12.422 5.61259C12.5503 5.68635 12.657 5.79247 12.7314 5.92034L14.2967 9.09486Z" fill="white"/>
</svg>
