<svg width="24" height="24" viewBox="0 0 24 24" fill="none" xmlns="http://www.w3.org/2000/svg">
<path d="M23.5 13.0043C23.5 11.7717 22.7759 10.7217 21.7963 10.2652C22.1796 9.85435 22.4352 9.26087 22.4352 8.62174C22.4352 7.34348 21.4556 6.29348 20.263 6.29348C20.1778 6.29348 20.0926 6.29348 20.05 6.29348C20.1778 5.97391 20.263 5.6087 20.263 5.24348C20.263 3.96522 19.2833 2.91522 18.0907 2.91522C17.7074 2.91522 17.3667 3.00652 17.0685 3.18913C16.7704 2.27609 15.9611 1.5 15.0241 1.5C13.8315 1.5 12.8944 2.68696 12.8519 3.6V19.5783H12.8944C12.8944 21.2217 14.1296 22.5 15.663 22.5C17.0259 22.5 18.1333 21.45 18.3889 20.0804C18.6444 20.1717 18.9426 20.2174 19.2407 20.2174C20.7741 20.2174 22.0093 18.8935 22.0093 17.25C22.0093 16.7478 21.8815 16.2457 21.6685 15.7891C22.6907 15.4239 23.5 14.3283 23.5 13.0043ZM0.5 13.0043C0.5 11.7717 1.22407 10.7217 2.2037 10.2652C1.82037 9.85435 1.56481 9.26087 1.56481 8.62174C1.56481 7.34348 2.54444 6.29348 3.73704 6.29348C3.82222 6.29348 3.90741 6.29348 3.95 6.29348C3.82222 5.97391 3.73704 5.6087 3.73704 5.24348C3.73704 3.96522 4.71667 2.91522 5.90926 2.91522C6.29259 2.91522 6.63333 3.00652 6.93148 3.18913C7.22963 2.27609 8.03889 1.5 8.97593 1.5C10.1685 1.5 11.1056 2.68696 11.1481 3.6V19.5783H11.1056C11.1056 21.2217 9.87037 22.5 8.33704 22.5C6.97407 22.5 5.86667 21.45 5.61111 20.0804C5.35556 20.1717 5.05741 20.2174 4.75926 20.2174C3.22593 20.2174 1.99074 18.8935 1.99074 17.25C1.99074 16.7478 2.11852 16.2457 2.33148 15.7891C1.30926 15.4239 0.5 14.3283 0.5 13.0043Z" fill="white"/>
<path d="M5.00598 14.6819C5.00598 14.6819 7.79083 14.4404 8.29899 16.4843C8.81088 18.5432 7.83841 19.7666 5.53213 20.6597M9.07112 7.08743C9.07112 7.08743 7.98416 8.82656 6.02764 8.39177C3.78696 7.79146 3.50183 6.51771 3.50183 6.51771M9.07112 11.0005C9.02764 10.957 8.5059 9.13091 6.24503 8.47873M16.9329 12.4251C16.9329 12.4251 16.5129 14.3554 18.165 15.8337C19.0784 16.5167 20.4921 16.801 22.828 15.957M16.4678 8.02919C16.4678 8.02919 17.4684 8.73137 18.7302 8.40686C19.992 8.08236 20.5546 6.36328 20.5546 6.36328M15.4546 18.4251C15.4546 18.4251 16.1228 15.9773 18.6864 16.2002" stroke="#0B0B0E" stroke-miterlimit="10" stroke-linecap="round" stroke-linejoin="round"/>
</svg>
