<svg width="94" height="42" viewBox="0 0 94 42" fill="none" xmlns="http://www.w3.org/2000/svg">
  <mask id="mask0_111_5023" style="mask-type:luminance" maskUnits="userSpaceOnUse" x="0" y="0" width="94" height="42">
    <path d="M93.4704 0H0.238281V42H93.4704V0Z" fill="white"/>
  </mask>
  <g mask="url(#mask0_111_5023)">
    <mask id="mask1_111_5023" style="mask-type:luminance" maskUnits="userSpaceOnUse" x="0" y="0" width="94" height="42">
      <path d="M93.4743 0H0.242188V42H93.4743V0Z" fill="white"/>
    </mask>
    <g mask="url(#mask1_111_5023)">
      <path d="M58.271 16.5802H58.2239C57.8157 17.8834 56.5596 18.7312 55.2093 18.6213C51.9749 18.6213 50.7031 15.9364 50.7031 11.2105C50.7031 5.0871 52.8542 4.14505 54.9581 4.14505C56.3084 4.08224 57.5487 4.86729 58.0669 6.12336H58.114V0H60.9087V18.2759H58.2867V16.5802H58.271ZM55.7588 6.34318C54.2044 6.34318 53.6078 7.63065 53.6078 11.3361C53.6078 14.4449 54.016 16.4232 55.9472 16.4232C57.8785 16.4232 58.2867 14.4763 58.2867 11.5402C58.271 8.24299 57.8942 6.34318 55.7588 6.34318Z" fill="white"/>
      <path d="M72.8275 15.418C72.8275 15.9204 73.1415 16.3914 73.5497 16.3914C73.7067 16.3914 73.8638 16.3757 74.0208 16.3129V18.0871C73.5968 18.2912 73.1258 18.4011 72.6548 18.4168C71.4301 18.4168 70.4096 17.9301 70.3153 16.5955H70.2682C69.6402 17.8987 68.2899 18.6994 66.8454 18.6209C64.6473 18.6209 63.2656 17.3963 63.2656 14.7271C63.2656 11.6497 64.6002 11.0217 66.4686 10.4094L68.6196 9.81272C69.6088 9.5301 70.2368 9.24749 70.2368 8.05422C70.2368 6.84524 69.8129 6.0131 68.3527 6.0131C66.5157 6.0131 66.2488 7.31627 66.2488 8.65085H63.6425C63.6425 5.73048 64.8514 4.11328 68.4783 4.11328C70.912 4.11328 72.8589 5.05534 72.8589 7.48898V15.418H72.8275ZM70.2211 11.006C69.4989 11.5712 67.9759 11.9009 67.1124 12.2935C66.3273 12.7488 65.8877 13.6123 65.9976 14.523C65.9976 15.6692 66.5628 16.5955 67.709 16.5955C69.3733 16.5955 70.1897 15.3394 70.1897 13.3297L70.2211 11.006Z" fill="white"/>
      <path d="M74.6641 4.50614H76.5639V0.612305H79.3272V4.50614H81.5882V6.56296H79.3272V14.7745C79.3272 15.8579 79.6256 16.2347 80.5833 16.2347C80.913 16.2347 81.2585 16.219 81.5882 16.1562V18.1974C80.8502 18.3701 80.1123 18.4486 79.3586 18.4329C77.4902 18.4329 76.5796 17.9147 76.5796 15.1043V6.54726H74.6798V4.50614H74.6641Z" fill="white"/>
      <path d="M92.2962 15.418C92.2962 15.9204 92.5946 16.3914 93.0185 16.3914C93.1755 16.3914 93.3325 16.3757 93.4738 16.3129V18.0871C93.0499 18.2912 92.5946 18.4011 92.1235 18.4168C90.8989 18.4168 89.8626 17.9301 89.7841 16.5955H89.737C89.109 17.8987 87.7587 18.6994 86.3142 18.6209C84.1161 18.6209 82.7344 17.3963 82.7344 14.7271C82.7344 11.6497 84.069 11.0217 85.9374 10.4094L88.0884 9.81272C89.0776 9.5301 89.7056 9.24749 89.7056 8.05422C89.7056 6.84524 89.266 6.0131 87.8058 6.0131C85.9688 6.0131 85.7019 7.31627 85.7019 8.65085H83.0955C83.0955 5.73048 84.2888 4.11328 87.9314 4.11328C90.365 4.11328 92.3119 5.05534 92.3119 7.48898V15.418H92.2962ZM89.6742 11.006C88.9519 11.5712 87.4133 11.9009 86.5654 12.2935C85.7804 12.7488 85.3407 13.6123 85.4349 14.523C85.4349 15.6692 86.0002 16.5955 87.1463 16.5955C88.8106 16.5955 89.6271 15.3394 89.6271 13.3297L89.6742 11.006Z" fill="white"/>
      <path d="M51.3634 23.1587H54.111V25.9378H51.3477V23.1587H51.3634ZM51.3634 27.869H54.111V41.6387H51.3477V27.869H51.3634Z" fill="white"/>
      <path d="M57.1562 23.3789H59.9196V33.6316H59.9824L64.1589 27.8694L67.3462 27.8537L63.2011 33.1763L67.88 41.6391H64.8654L61.4897 35.3744L59.9196 37.2742V41.6391H57.1562V23.3789Z" fill="white"/>
      <path d="M76.3114 40.0217H76.2329C75.5106 41.2777 74.1446 42.0314 72.7002 42C70.6433 42 69.2773 41.0579 69.2773 37.4938V27.8691H72.0407V37.745C72.0407 39.2994 72.7315 39.8019 73.9091 39.8019C75.1024 39.8647 76.1073 38.9383 76.1701 37.745C76.1701 37.6508 76.1701 37.5566 76.1701 37.4781V27.8691H78.9177V41.6389H76.3114V40.0217Z" fill="white"/>
      <path d="M21.2343 0C9.64705 0 0.242188 9.40486 0.242188 20.9921C0.242188 32.5794 9.64705 41.9843 21.2343 41.9843C32.8216 41.9843 42.2265 32.5794 42.2265 20.9921C42.2265 9.40486 32.8373 0 21.2343 0ZM32.6646 26.88H22.1136V25.2471H32.6646V26.88ZM31.3457 11.5716C31.3457 11.5716 30.6235 12.5136 31.016 15.0572C31.7383 19.8303 29.2261 24.0695 24.7984 24.0695H21.5327C21.5327 24.0695 18.3297 23.9125 16.3984 25.828C10.6833 31.5432 9.31733 33.0191 8.9248 33.2389C8.65789 33.3802 8.59509 33.0819 8.59509 33.0819L25.4736 12.2781C25.2852 10.5667 26.5256 9.04374 28.237 8.85533C29.4302 8.72972 30.5921 9.29495 31.2201 10.3155L32.7745 9.87589L31.3457 11.5716Z" fill="white"/>
      <path d="M28.5831 10.504C28.1278 10.4569 27.7195 10.7866 27.6724 11.2576C27.6253 11.7287 27.9551 12.1212 28.4261 12.1683C28.4732 12.1683 28.536 12.1683 28.5831 12.1683C29.0384 12.1212 29.3681 11.713 29.3367 11.2576C29.2896 10.8494 28.9756 10.5354 28.5831 10.504Z" fill="white"/>
    </g>
  </g>
</svg>
