<svg width="133" height="42" viewBox="0 0 133 42" fill="none" xmlns="http://www.w3.org/2000/svg">
  <path fill-rule="evenodd" clip-rule="evenodd" d="M0.0273438 1.60026C0.0273438 0.716461 0.741214 0 1.62182 0H40.4331C41.3137 0 42.0276 0.716463 42.0276 1.60027V40.3997C42.0276 41.2835 41.3137 42 40.4331 42H1.62181C0.741211 42 0.0273438 41.2835 0.0273438 40.3997V1.60026ZM15.7829 6.39808C16.3556 6.02584 17.0904 6.01674 17.672 6.37468L20.8694 8.3423L24.0668 6.37468C24.6485 6.01674 25.3833 6.02584 25.956 6.39808L31.4467 9.96707C31.9509 10.2948 32.2553 10.8566 32.2553 11.4595V14.6902L35.1031 17.0202C35.5158 17.3578 35.7553 17.8639 35.7553 18.3983V23.2811C35.7553 23.8155 35.5158 24.3216 35.1031 24.6592L32.2553 26.9892V30.2199C32.2553 30.8228 31.9509 31.3846 31.4467 31.7123L25.956 35.2813C25.3833 35.6536 24.6485 35.6627 24.0668 35.3047L20.8694 33.3371L17.672 35.3047C17.0904 35.6627 16.3556 35.6536 15.7829 35.2813L10.2921 31.7123C9.78795 31.3846 9.48357 30.8228 9.48357 30.2199V27.8257C9.4804 27.7824 9.48043 27.7392 9.48357 27.6963V26.9892L6.63576 24.6592C6.22304 24.3216 5.98355 23.8155 5.98355 23.2811V18.3983C5.98355 17.8639 6.22304 17.3578 6.63576 17.0202L9.48357 14.6902V11.4595C9.48357 10.8566 9.78795 10.2948 10.2921 9.96707L15.7829 6.39808ZM21.7748 31.8087L21.7576 31.7986V29.3655H24.1648C24.4509 29.7873 24.9343 30.0645 25.4824 30.0645C26.3611 30.0645 27.0734 29.3522 27.0734 28.4736C27.0734 27.5949 26.3611 26.8827 25.4824 26.8827C24.9319 26.8827 24.4466 27.1623 24.161 27.5874H21.7576V21.3433L19.008 19.3269C18.613 19.0373 18.0588 19.1238 17.7701 19.5203C17.4815 19.9167 17.5678 20.4729 17.9628 20.7626L19.9859 22.2463V25.0785L18.0927 26.1716L18.0927 22.8808L14.9118 20.9724V18.1694L18.4119 16.1011V11.6952C18.4119 11.2042 18.0153 10.8061 17.526 10.8061C17.0368 10.8061 16.6402 11.2042 16.6402 11.6952V15.0847L14.1472 16.5578L11.2552 14.5913V11.4595L13.1392 10.2349V14.3202C13.1392 14.8112 13.5358 15.2092 14.025 15.2092C14.5142 15.2092 14.9108 14.8112 14.9108 14.3202V9.08334L16.746 7.8905L19.9434 9.85812C19.9564 9.86614 19.9695 9.87398 19.9827 9.88164V17.7558L23.2513 19.7273C23.2522 20.6051 23.9641 21.3164 24.8422 21.3164C25.7208 21.3164 26.4331 20.6042 26.4331 19.7255C26.4331 18.8469 25.7208 18.1346 24.8422 18.1346C24.6303 18.1346 24.4282 18.176 24.2433 18.2512L21.7544 16.7499V9.88269C21.7682 9.8747 21.7819 9.86651 21.7955 9.85812L24.9929 7.8905L30.4837 11.4595V12.1538H26.7986C26.5123 11.7331 26.0296 11.4569 25.4824 11.4569C24.6038 11.4569 23.8915 12.1692 23.8915 13.0478C23.8915 13.9264 24.6038 14.6387 25.4824 14.6387C26.0339 14.6387 26.5199 14.3581 26.8053 13.9319H30.4837V14.6902C30.4837 15.2246 30.7232 15.7306 31.1359 16.0683L33.9837 18.3983V23.2811L33.8807 23.3653L32.0003 22.2311C32.0032 22.1919 32.0047 22.1522 32.0047 22.1122C32.0047 21.2336 31.2924 20.5213 30.4137 20.5213C29.5351 20.5213 28.8228 21.2336 28.8228 22.1122C28.8228 22.9909 29.5351 23.7032 30.4137 23.7032C30.5775 23.7032 30.7355 23.6784 30.8842 23.6324L32.4212 24.5595L31.1359 25.6111C30.7232 25.9488 30.4837 26.4548 30.4837 26.9892V30.2199L24.9929 33.7889L21.7955 31.8213L21.7748 31.8087ZM11.2552 28.2752V30.2199L14.0607 32.0435L17.4387 30.0932C17.8627 29.8484 18.4053 29.9943 18.6506 30.4191C18.8959 30.844 18.751 31.3868 18.3269 31.6317L15.732 33.1298L16.746 33.7889L19.9434 31.8213C19.9575 31.8126 19.9717 31.8041 19.9859 31.7959V27.1298L13.8347 30.6812C13.4107 30.926 12.868 30.7801 12.6228 30.3553C12.3775 29.9304 12.5224 29.3876 12.9465 29.1427L16.321 27.1945V23.8895L14.1589 22.5922L10.9764 24.4781C10.5551 24.7277 10.012 24.5873 9.76323 24.1645C9.51449 23.7417 9.65436 23.1966 10.0756 22.947L13.1402 21.1309V18.0208L10.4513 16.1924L7.75518 18.3983L7.75518 20.1675L10.6746 18.482C11.0986 18.2372 11.6412 18.3831 11.8865 18.808C12.1318 19.2328 11.9868 19.7757 11.5628 20.0205L7.75518 22.2188V23.2811L10.603 25.6111C10.8315 25.7981 11.0069 26.0367 11.118 26.3031L14.3331 24.4469C14.7572 24.2021 15.2998 24.348 15.5451 24.7728C15.7904 25.1976 15.6454 25.7405 15.2214 25.9853L11.2552 28.2752ZM49.6608 17.9933H47.5036L51.4313 6.83656H53.9263L57.8595 17.9933H55.7022L54.7779 15.2422H50.5835L49.6608 17.9933ZM52.7224 9.12456L54.2324 13.6189H51.1279L52.6352 9.12456H52.7224ZM59.8554 17.9933V9.62574H61.7403V11.0476H61.8384C62.0127 10.5682 62.3014 10.1941 62.7046 9.92536C63.1077 9.65298 63.5889 9.51679 64.1482 9.51679C64.7147 9.51679 65.1923 9.6548 65.5809 9.93081C65.9731 10.2032 66.2491 10.5754 66.4089 11.0476H66.4961C66.6813 10.5827 66.9937 10.2123 67.4331 9.93626C67.8762 9.65661 68.401 9.51679 69.0075 9.51679C69.7774 9.51679 70.4057 9.76012 70.8923 10.2468C71.379 10.7334 71.6223 11.4434 71.6223 12.3768V17.9933H69.6448V12.6819C69.6448 12.1625 69.5068 11.783 69.2308 11.5433C68.9548 11.3 68.6171 11.1783 68.2176 11.1783C67.7418 11.1783 67.3695 11.3272 67.1008 11.625C66.8357 11.9192 66.7031 12.3023 66.7031 12.7745V17.9933H64.7692V12.6001C64.7692 12.168 64.6385 11.823 64.377 11.5651C64.1191 11.3072 63.7814 11.1783 63.3637 11.1783C63.0804 11.1783 62.8226 11.2509 62.5902 11.3962C62.3577 11.5379 62.1725 11.7394 62.0345 12.0009C61.8965 12.2588 61.8275 12.5602 61.8275 12.9052V17.9933H59.8554ZM76.6444 18.1622C76.1142 18.1622 75.6366 18.0677 75.2117 17.8789C74.7904 17.6864 74.4563 17.4031 74.2094 17.0291C73.966 16.655 73.8444 16.1938 73.8444 15.6454C73.8444 15.1732 73.9315 14.7828 74.1058 14.4741C74.2802 14.1654 74.518 13.9185 74.8195 13.7333C75.1209 13.548 75.4605 13.4082 75.8382 13.3138C76.2195 13.2157 76.6136 13.1449 77.0203 13.1013C77.5106 13.0505 77.9083 13.0051 78.2134 12.9651C78.5184 12.9216 78.74 12.8562 78.878 12.769C79.0196 12.6782 79.0904 12.5384 79.0904 12.3496V12.3169C79.0904 11.9065 78.9688 11.5887 78.7254 11.3635C78.4821 11.1384 78.1316 11.0258 77.674 11.0258C77.191 11.0258 76.8079 11.1311 76.5246 11.3417C76.2449 11.5524 76.0561 11.8012 75.958 12.0881L74.1167 11.8266C74.262 11.3181 74.5017 10.8932 74.8358 10.5518C75.1699 10.2068 75.5785 9.94897 76.0615 9.77828C76.5446 9.60395 77.0784 9.51679 77.6631 9.51679C78.0663 9.51679 78.4676 9.564 78.8671 9.65843C79.2666 9.75285 79.6316 9.90902 79.962 10.1269C80.2925 10.3412 80.5576 10.6336 80.7574 11.004C80.9608 11.3744 81.0625 11.8375 81.0625 12.3931V17.9933H79.1667V16.8438H79.1013C78.9815 17.0763 78.8126 17.2942 78.5947 17.4976C78.3804 17.6973 78.1098 17.8589 77.783 17.9824C77.4598 18.1023 77.0802 18.1622 76.6444 18.1622ZM77.1565 16.7131C77.5524 16.7131 77.8956 16.635 78.1861 16.4789C78.4767 16.3191 78.7 16.1084 78.8562 15.8469C79.016 15.5854 79.0959 15.3004 79.0959 14.9917V14.0056C79.0341 14.0565 78.9288 14.1037 78.7799 14.1473C78.6346 14.1909 78.4712 14.229 78.2896 14.2617C78.108 14.2944 77.9283 14.3234 77.7503 14.3488C77.5723 14.3743 77.418 14.396 77.2873 14.4142C76.9931 14.4542 76.7298 14.5195 76.4974 14.6103C76.2649 14.7011 76.0815 14.8282 75.9471 14.9917C75.8128 15.1515 75.7456 15.3585 75.7456 15.6127C75.7456 15.9759 75.8781 16.2501 76.1433 16.4353C76.4084 16.6205 76.7461 16.7131 77.1565 16.7131ZM83.5501 17.9933V16.7403L87.8646 11.3308V11.26H83.6917V9.62574H90.2779V10.9713L86.1704 16.2882V16.359H90.4195V17.9933H83.5501ZM96.2969 18.1567C95.4798 18.1567 94.7716 17.977 94.1723 17.6174C93.5731 17.2579 93.1082 16.7549 92.7777 16.1084C92.4509 15.462 92.2875 14.7066 92.2875 13.8422C92.2875 12.9778 92.4509 12.2206 92.7777 11.5705C93.1082 10.9205 93.5731 10.4156 94.1723 10.0561C94.7716 9.69656 95.4798 9.51679 96.2969 9.51679C97.1141 9.51679 97.8223 9.69656 98.4215 10.0561C99.0207 10.4156 99.4838 10.9205 99.8106 11.5705C100.141 12.2206 100.306 12.9778 100.306 13.8422C100.306 14.7066 100.141 15.462 99.8106 16.1084C99.4838 16.7549 99.0207 17.2579 98.4215 17.6174C97.8223 17.977 97.1141 18.1567 96.2969 18.1567ZM96.3078 16.5769C96.7509 16.5769 97.1213 16.4552 97.4191 16.2119C97.7169 15.965 97.9385 15.6345 98.0837 15.2205C98.2326 14.8064 98.3071 14.3452 98.3071 13.8368C98.3071 13.3247 98.2326 12.8616 98.0837 12.4476C97.9385 12.03 97.7169 11.6977 97.4191 11.4507C97.1213 11.2037 96.7509 11.0803 96.3078 11.0803C95.8538 11.0803 95.4761 11.2037 95.1747 11.4507C94.8769 11.6977 94.6535 12.03 94.5046 12.4476C94.3594 12.8616 94.2867 13.3247 94.2867 13.8368C94.2867 14.3452 94.3594 14.8064 94.5046 15.2205C94.6535 15.6345 94.8769 15.965 95.1747 16.2119C95.4761 16.4552 95.8538 16.5769 96.3078 16.5769ZM104.566 13.0904V17.9933H102.594V9.62574H104.479V11.0476H104.577C104.769 10.5791 105.076 10.2068 105.497 9.93081C105.922 9.6548 106.447 9.51679 107.072 9.51679C107.649 9.51679 108.152 9.64027 108.581 9.88723C109.013 10.1342 109.347 10.4919 109.583 10.9604C109.823 11.4289 109.941 11.9973 109.937 12.6655V17.9933H107.965V12.9706C107.965 12.4113 107.82 11.9737 107.529 11.6577C107.242 11.3417 106.845 11.1838 106.336 11.1838C105.991 11.1838 105.684 11.26 105.416 11.4126C105.151 11.5615 104.942 11.7776 104.789 12.0608C104.64 12.3441 104.566 12.6873 104.566 13.0904ZM53.536 27.2525C53.4852 26.7767 53.2709 26.4063 52.8932 26.1412C52.5191 25.876 52.0325 25.7435 51.4333 25.7435C51.012 25.7435 50.6506 25.807 50.3492 25.9341C50.0477 26.0613 49.8171 26.2338 49.6573 26.4517C49.4975 26.6696 49.4158 26.9184 49.4122 27.198C49.4122 27.4304 49.4648 27.632 49.5702 27.8027C49.6791 27.9734 49.8262 28.1186 50.0114 28.2385C50.1966 28.3547 50.4018 28.4528 50.627 28.5327C50.8522 28.6126 51.0792 28.6798 51.308 28.7342L52.3539 28.9957C52.7752 29.0938 53.1801 29.2263 53.5687 29.3934C53.961 29.5605 54.3114 29.7711 54.6201 30.0253C54.9324 30.2795 55.1794 30.5864 55.361 30.946C55.5426 31.3055 55.6334 31.7268 55.6334 32.2098C55.6334 32.8635 55.4663 33.4392 55.1322 33.9367C54.7981 34.4306 54.3151 34.8174 53.6831 35.0971C53.0548 35.3731 52.294 35.5111 51.4006 35.5111C50.5326 35.5111 49.779 35.3767 49.1398 35.108C48.5042 34.8392 48.0067 34.447 47.6472 33.9313C47.2912 33.4156 47.0988 32.7873 47.0697 32.0464H49.0581C49.0871 32.435 49.207 32.7582 49.4176 33.0161C49.6283 33.2739 49.9025 33.4664 50.2402 33.5935C50.5816 33.7206 50.9629 33.7842 51.3842 33.7842C51.8237 33.7842 52.2086 33.7188 52.5391 33.5881C52.8732 33.4537 53.1347 33.2685 53.3236 33.0324C53.5124 32.7927 53.6087 32.5131 53.6123 32.1935C53.6087 31.9029 53.5233 31.6632 53.3563 31.4744C53.1892 31.2819 52.955 31.1221 52.6535 30.995C52.3557 30.8643 52.0071 30.748 51.6076 30.6463L50.3383 30.3195C49.4194 30.0834 48.6931 29.7257 48.1592 29.2463C47.629 28.7633 47.3639 28.1223 47.3639 27.3233C47.3639 26.6659 47.5418 26.0903 47.8977 25.5964C48.2573 25.1025 48.7458 24.7193 49.3632 24.4469C49.9806 24.1709 50.6797 24.0329 51.4605 24.0329C52.2522 24.0329 52.9459 24.1709 53.5415 24.4469C54.1407 24.7193 54.611 25.0988 54.9524 25.5855C55.2938 26.0685 55.4699 26.6242 55.4808 27.2525H53.536ZM60.0627 35.5111C59.5324 35.5111 59.0549 35.4167 58.63 35.2278C58.2087 35.0353 57.8745 34.752 57.6276 34.378C57.3843 34.0039 57.2626 33.5427 57.2626 32.9943C57.2626 32.5221 57.3498 32.1317 57.5241 31.823C57.6984 31.5143 57.9363 31.2674 58.2377 31.0822C58.5392 30.8969 58.8787 30.7571 59.2564 30.6627C59.6378 30.5646 60.0318 30.4938 60.4386 30.4502C60.9289 30.3994 61.3265 30.354 61.6316 30.314C61.9367 30.2705 62.1582 30.2051 62.2962 30.1179C62.4378 30.0271 62.5087 29.8873 62.5087 29.6985V29.6658C62.5087 29.2554 62.387 28.9376 62.1437 28.7124C61.9003 28.4873 61.5499 28.3747 61.0923 28.3747C60.6093 28.3747 60.2261 28.48 59.9428 28.6906C59.6632 28.9013 59.4743 29.1501 59.3763 29.437L57.535 29.1755C57.6802 28.667 57.9199 28.2421 58.2541 27.9007C58.5882 27.5557 58.9968 27.2979 59.4798 27.1272C59.9628 26.9529 60.4967 26.8657 61.0814 26.8657C61.4845 26.8657 61.8858 26.9129 62.2853 27.0073C62.6848 27.1018 63.0498 27.2579 63.3803 27.4758C63.7108 27.6901 63.9759 27.9825 64.1756 28.3529C64.379 28.7233 64.4807 29.1864 64.4807 29.742V35.3422H62.5849V34.1928H62.5196C62.3997 34.4252 62.2308 34.6431 62.0129 34.8465C61.7987 35.0462 61.5281 35.2078 61.2012 35.3313C60.878 35.4512 60.4985 35.5111 60.0627 35.5111ZM60.5748 34.062C60.9706 34.062 61.3138 33.9839 61.6044 33.8278C61.8949 33.668 62.1183 33.4573 62.2744 33.1958C62.4342 32.9343 62.5141 32.6493 62.5141 32.3406V31.3545C62.4524 31.4054 62.347 31.4526 62.1982 31.4962C62.0529 31.5398 61.8895 31.5779 61.7079 31.6106C61.5263 31.6433 61.3465 31.6723 61.1685 31.6977C60.9906 31.7232 60.8362 31.745 60.7055 31.7631C60.4113 31.8031 60.148 31.8684 59.9156 31.9592C59.6832 32.05 59.4998 32.1771 59.3654 32.3406C59.231 32.5004 59.1638 32.7074 59.1638 32.9616C59.1638 33.3248 59.2964 33.599 59.5615 33.7842C59.8266 33.9694 60.1644 34.062 60.5748 34.062ZM70.4095 38.6544C69.7013 38.6544 69.093 38.5581 68.5845 38.3656C68.0761 38.1768 67.6675 37.9226 67.3588 37.603C67.0501 37.2834 66.8358 36.9293 66.716 36.5407L68.4919 36.1103C68.5718 36.2737 68.688 36.4354 68.8406 36.5952C68.9931 36.7586 69.1983 36.893 69.4561 36.9983C69.7176 37.1072 70.0463 37.1617 70.4422 37.1617C71.0014 37.1617 71.4645 37.0255 71.8313 36.7531C72.1981 36.4844 72.3815 36.0413 72.3815 35.4239V33.8387H72.2835C72.1818 34.042 72.0329 34.2509 71.8367 34.4651C71.6443 34.6794 71.3882 34.8592 71.0686 35.0044C70.7527 35.1497 70.355 35.2224 69.8756 35.2224C69.2328 35.2224 68.6499 35.0716 68.1269 34.7702C67.6076 34.4651 67.1936 34.0112 66.8849 33.4083C66.5798 32.8018 66.4273 32.0428 66.4273 31.1312C66.4273 30.2124 66.5798 29.437 66.8849 28.805C67.1936 28.1695 67.6094 27.6883 68.1324 27.3614C68.6553 27.0309 69.2382 26.8657 69.8811 26.8657C70.3713 26.8657 70.7745 26.9492 71.0904 27.1163C71.41 27.2797 71.6642 27.4776 71.8531 27.7101C72.0419 27.9389 72.1854 28.155 72.2835 28.3583H72.3924V26.9746H74.3372V35.4784C74.3372 36.1938 74.1665 36.7858 73.8251 37.2543C73.4837 37.7228 73.0171 38.0733 72.4251 38.3057C71.8331 38.5381 71.1612 38.6544 70.4095 38.6544ZM70.4258 33.6752C70.8435 33.6752 71.1994 33.5735 71.4935 33.3702C71.7877 33.1668 72.0111 32.8744 72.1636 32.4931C72.3161 32.1118 72.3924 31.6542 72.3924 31.1203C72.3924 30.5937 72.3161 30.1325 72.1636 29.7366C72.0147 29.3407 71.7932 29.0338 71.499 28.8159C71.2085 28.5944 70.8507 28.4836 70.4258 28.4836C69.9864 28.4836 69.6196 28.598 69.3254 28.8268C69.0312 29.0556 68.8097 29.3698 68.6608 29.7693C68.5119 30.1651 68.4374 30.6155 68.4374 31.1203C68.4374 31.6324 68.5119 32.0809 68.6608 32.4659C68.8133 32.8472 69.0367 33.145 69.3308 33.3593C69.6286 33.5699 69.9936 33.6752 70.4258 33.6752ZM80.3695 35.5056C79.5305 35.5056 78.806 35.3313 78.1959 34.9827C77.5894 34.6304 77.1227 34.1328 76.7958 33.49C76.469 32.8436 76.3055 32.0827 76.3055 31.2075C76.3055 30.3467 76.469 29.5913 76.7958 28.9412C77.1263 28.2875 77.5876 27.7791 78.1795 27.4159C78.7715 27.0491 79.467 26.8657 80.266 26.8657C80.7817 26.8657 81.2683 26.9492 81.7259 27.1163C82.1872 27.2797 82.5939 27.5339 82.9462 27.879C83.3021 28.224 83.5818 28.6634 83.7851 29.1973C83.9885 29.7275 84.0902 30.3594 84.0902 31.0931V31.6977H78.2616C78.2673 32.1635 78.3562 32.5648 78.5282 32.9017C78.7061 33.2467 78.9549 33.5118 79.2745 33.697C79.5941 33.8786 79.9682 33.9694 80.3967 33.9694C80.6836 33.9694 80.9433 33.9295 81.1757 33.8496C81.4082 33.766 81.6097 33.6444 81.7804 33.4846C81.9511 33.3248 82.08 33.1268 82.1672 32.8908L84.0085 33.0978C83.8923 33.5844 83.6707 34.0093 83.3439 34.3725C83.0207 34.7321 82.6066 35.0117 82.1018 35.2115C81.597 35.4076 81.0196 35.5056 80.3695 35.5056ZM78.5173 29.4588C78.3682 29.7374 78.2842 30.0407 78.2653 30.3685H82.1999C82.1962 29.9908 82.1145 29.6549 81.9547 29.3607C81.7949 29.0629 81.5716 28.8287 81.2847 28.658C81.0014 28.4873 80.6709 28.4019 80.2932 28.4019C79.8901 28.4019 79.536 28.5 79.2309 28.6961C78.9258 28.8886 78.688 29.1428 78.5173 29.4588ZM86.1525 24.1855H88.6257L91.9379 32.2697H92.0686L95.3808 24.1855H97.854V35.3422H95.9147V27.6774H95.8112L92.7278 35.3095H91.2787L88.1954 27.661H88.0919V35.3422H86.1525V24.1855ZM102.682 35.5111C102.152 35.5111 101.675 35.4167 101.25 35.2278C100.828 35.0353 100.494 34.752 100.247 34.378C100.004 34.0039 99.8823 33.5427 99.8823 32.9943C99.8823 32.5221 99.9694 32.1317 100.144 31.823C100.318 31.5143 100.556 31.2674 100.857 31.0822C101.159 30.8969 101.498 30.7571 101.876 30.6627C102.257 30.5646 102.651 30.4938 103.058 30.4502C103.549 30.3994 103.946 30.354 104.251 30.314C104.556 30.2705 104.778 30.2051 104.916 30.1179C105.058 30.0271 105.128 29.8873 105.128 29.6985V29.6658C105.128 29.2554 105.007 28.9376 104.763 28.7124C104.52 28.4873 104.17 28.3747 103.712 28.3747C103.229 28.3747 102.846 28.48 102.563 28.6906C102.283 28.9013 102.094 29.1501 101.996 29.437L100.155 29.1755C100.3 28.667 100.54 28.2421 100.874 27.9007C101.208 27.5557 101.616 27.2979 102.099 27.1272C102.582 26.9529 103.116 26.8657 103.701 26.8657C104.104 26.8657 104.505 26.9129 104.905 27.0073C105.304 27.1018 105.669 27.2579 106 27.4758C106.33 27.6901 106.596 27.9825 106.795 28.3529C106.999 28.7233 107.1 29.1864 107.1 29.742V35.3422H105.205V34.1928H105.139C105.019 34.4252 104.851 34.6431 104.633 34.8465C104.418 35.0462 104.148 35.2078 103.821 35.3313C103.498 35.4512 103.118 35.5111 102.682 35.5111ZM103.194 34.062C103.59 34.062 103.933 33.9839 104.224 33.8278C104.515 33.668 104.738 33.4573 104.894 33.1958C105.054 32.9343 105.134 32.6493 105.134 32.3406V31.3545C105.072 31.4054 104.967 31.4526 104.818 31.4962C104.673 31.5398 104.509 31.5779 104.328 31.6106C104.146 31.6433 103.966 31.6723 103.788 31.6977C103.61 31.7232 103.456 31.745 103.325 31.7631C103.031 31.8031 102.768 31.8684 102.535 31.9592C102.303 32.05 102.119 32.1771 101.985 32.3406C101.851 32.5004 101.784 32.7074 101.784 32.9616C101.784 33.3248 101.916 33.599 102.181 33.7842C102.446 33.9694 102.784 34.062 103.194 34.062ZM111.362 35.3422V32.5296L112.08 31.7605L114.642 35.3422H117L113.566 30.5865L116.81 26.9746H114.505L111.498 30.3358H111.362V24.1855H109.39V35.3422H111.362ZM121.791 35.5056C120.952 35.5056 120.227 35.3313 119.617 34.9827C119.011 34.6304 118.544 34.1328 118.217 33.49C117.89 32.8436 117.727 32.0827 117.727 31.2075C117.727 30.3467 117.89 29.5913 118.217 28.9412C118.548 28.2875 119.009 27.7791 119.601 27.4159C120.193 27.0491 120.888 26.8657 121.687 26.8657C122.203 26.8657 122.69 26.9492 123.147 27.1163C123.608 27.2797 124.015 27.5339 124.367 27.879C124.723 28.224 125.003 28.6634 125.206 29.1973C125.41 29.7275 125.511 30.3594 125.511 31.0931V31.6977H119.683C119.689 32.1635 119.777 32.5648 119.949 32.9017C120.127 33.2467 120.376 33.5118 120.696 33.697C121.015 33.8786 121.389 33.9694 121.818 33.9694C122.105 33.9694 122.364 33.9295 122.597 33.8496C122.829 33.766 123.031 33.6444 123.202 33.4846C123.372 33.3248 123.501 33.1268 123.588 32.8908L125.43 33.0978C125.313 33.5844 125.092 34.0093 124.765 34.3725C124.442 34.7321 124.028 35.0117 123.523 35.2115C123.018 35.4076 122.441 35.5056 121.791 35.5056ZM119.938 29.4588C119.789 29.7374 119.705 30.0407 119.686 30.3685H123.621C123.617 29.9908 123.536 29.6549 123.376 29.3607C123.216 29.0629 122.993 28.8287 122.706 28.658C122.423 28.4873 122.092 28.4019 121.714 28.4019C121.311 28.4019 120.957 28.5 120.652 28.6961C120.347 28.8886 120.109 29.1428 119.938 29.4588ZM127.487 35.3422V26.9746H129.399V28.3692H129.486C129.638 27.8862 129.9 27.514 130.27 27.2525C130.644 26.9874 131.071 26.8548 131.55 26.8548C131.659 26.8548 131.781 26.8602 131.915 26.8711C132.053 26.8784 132.168 26.8911 132.259 26.9093V28.7233C132.175 28.6943 132.043 28.6689 131.861 28.6471C131.683 28.6216 131.511 28.6089 131.343 28.6089C130.984 28.6089 130.661 28.687 130.374 28.8432C130.091 28.9957 129.867 29.2082 129.704 29.4806C129.54 29.7529 129.459 30.0671 129.459 30.423V35.3422H127.487Z" fill="white"/>
</svg>
