<svg width="43" height="42" viewBox="0 0 43 42" fill="none" xmlns="http://www.w3.org/2000/svg">
  <path d="M11.4661 28.2752V30.2199L14.2715 32.0435L17.6495 30.0932C18.0736 29.8484 18.6162 29.9943 18.8615 30.4191C19.1067 30.844 18.9618 31.3868 18.5377 31.6317L15.9429 33.1298L16.9568 33.7889L20.1542 31.8213C20.1683 31.8126 20.1825 31.8041 20.1968 31.7959V27.1298L14.0456 30.6812C13.6215 30.926 13.0789 30.7801 12.8336 30.3553C12.5884 29.9304 12.7333 29.3876 13.1574 29.1427L16.5319 27.1945V23.8895L14.3697 22.5922L11.1873 24.4781C10.766 24.7277 10.2229 24.5873 9.97412 24.1645C9.72538 23.7417 9.86524 23.1966 10.2865 22.947L13.3511 21.1309V18.0208L10.6622 16.1924L7.96608 18.3983L7.96608 20.1675L10.8854 18.482C11.3095 18.2372 11.8521 18.3831 12.0974 18.808C12.3427 19.2328 12.1977 19.7757 11.7737 20.0205L7.96608 22.2188V23.2811L10.8139 25.6111C11.0424 25.7981 11.2178 26.0367 11.3289 26.3031L14.544 24.4469C14.9681 24.2021 15.5107 24.348 15.7559 24.7728C16.0012 25.1976 15.8563 25.7405 15.4322 25.9853L11.4661 28.2752Z" fill="white"/>
  <path d="M21.9857 31.8087L21.9684 31.7986V29.3655H24.3757C24.6618 29.7873 25.1451 30.0645 25.6932 30.0645C26.5719 30.0645 27.2842 29.3522 27.2842 28.4736C27.2842 27.5949 26.5719 26.8827 25.6932 26.8827C25.1427 26.8827 24.6574 27.1623 24.3718 27.5874H21.9684V21.3433L19.2188 19.3269C18.8238 19.0373 18.2696 19.1238 17.981 19.5203C17.6924 19.9167 17.7786 20.4729 18.1736 20.7626L20.1968 22.2463V25.0785L18.3035 26.1716L18.3035 22.8808L15.1227 20.9724V18.1694L18.6227 16.1011V11.6952C18.6227 11.2042 18.2261 10.8061 17.7369 10.8061C17.2477 10.8061 16.8511 11.2042 16.8511 11.6952V15.0847L14.3581 16.5578L11.4661 14.5913V11.4595L13.3501 10.2349V14.3202C13.3501 14.8112 13.7467 15.2092 14.2359 15.2092C14.7251 15.2092 15.1217 14.8112 15.1217 14.3202V9.08334L16.9568 7.8905L20.1542 9.85812C20.1672 9.86614 20.1804 9.87398 20.1935 9.88164V17.7558L23.4621 19.7273C23.4631 20.6051 24.175 21.3164 25.053 21.3164C25.9316 21.3164 26.6439 20.6042 26.6439 19.7255C26.6439 18.8469 25.9316 18.1346 25.053 18.1346C24.8411 18.1346 24.639 18.176 24.4541 18.2512L21.9652 16.7499V9.88269C21.979 9.8747 21.9927 9.86651 22.0063 9.85812L25.2037 7.8905L30.6945 11.4595V12.1538H27.0094C26.7231 11.7331 26.2404 11.4569 25.6932 11.4569C24.8146 11.4569 24.1023 12.1692 24.1023 13.0478C24.1023 13.9264 24.8146 14.6387 25.6932 14.6387C26.2447 14.6387 26.7307 14.3581 27.0161 13.9319H30.6945V14.6902C30.6945 15.2246 30.934 15.7306 31.3467 16.0683L34.1945 18.3983V23.2811L34.0915 23.3653L32.2111 22.2311C32.214 22.1919 32.2154 22.1522 32.2154 22.1122C32.2154 21.2336 31.5032 20.5213 30.6245 20.5213C29.7459 20.5213 29.0336 21.2336 29.0336 22.1122C29.0336 22.9909 29.7459 23.7032 30.6245 23.7032C30.7883 23.7032 30.9463 23.6784 31.095 23.6324L32.632 24.5595L31.3467 25.6111C30.934 25.9488 30.6945 26.4548 30.6945 26.9892V30.2199L25.2037 33.7889L22.0063 31.8213L21.9857 31.8087Z" fill="white"/>
  <path fill-rule="evenodd" clip-rule="evenodd" d="M1.83275 0C0.952148 0 0.238281 0.716461 0.238281 1.60026V40.3997C0.238281 41.2835 0.952145 42 1.83274 42H40.6438C41.5244 42 42.2383 41.2835 42.2383 40.3997V1.60027C42.2383 0.716463 41.5244 0 40.6438 0H1.83275ZM17.8829 6.37468C17.3012 6.01674 16.5665 6.02584 15.9938 6.39808L10.503 9.96707C9.99884 10.2948 9.69445 10.8566 9.69445 11.4595V14.6902L6.84666 17.0202C6.43395 17.3578 6.19445 17.8639 6.19445 18.3983V23.2811C6.19445 23.8155 6.43395 24.3216 6.84666 24.6592L9.69445 26.9892V27.6963C9.69132 27.7392 9.69129 27.7824 9.69445 27.8257V30.2199C9.69445 30.8228 9.99884 31.3846 10.503 31.7123L15.9938 35.2813C16.5665 35.6536 17.3012 35.6627 17.8829 35.3047L21.0803 33.3371L24.2777 35.3047C24.8593 35.6627 25.5941 35.6536 26.1668 35.2813L31.6575 31.7123C32.1617 31.3846 32.4661 30.8228 32.4661 30.2199V26.9892L35.3139 24.6592C35.7266 24.3216 35.9661 23.8155 35.9661 23.2811V18.3983C35.9661 17.8639 35.7266 17.3578 35.3139 17.0202L32.4661 14.6902V11.4595C32.4661 10.8566 32.1617 10.2948 31.6575 9.96707L26.1668 6.39808C25.5941 6.02584 24.8593 6.01674 24.2777 6.37468L21.0803 8.3423L17.8829 6.37468Z" fill="white"/>
</svg>
