<svg width="67" height="48" viewBox="0 0 67 48" fill="none" xmlns="http://www.w3.org/2000/svg">
<path d="M34.1625 12.6949C31.0957 15.6929 29.3733 19.7553 29.3733 23.9906C29.3733 28.226 31.0957 32.2883 34.1625 35.2864L39.7452 29.8404C38.1516 28.2859 37.2564 26.1775 37.2564 23.9791C37.2564 21.7807 38.1516 19.6723 39.7452 18.1177C41.3388 16.5632 43.5001 15.6899 45.7537 15.6899C48.0074 15.6899 50.1687 16.5632 51.7623 18.1177C53.3559 19.6723 54.2979 21.8025 54.2979 24.0009C54.2979 26.1993 53.4027 28.3077 51.8091 29.8622C50.2155 31.4168 48.0542 32.2901 45.8006 32.2901C43.5469 32.2901 41.3388 31.3949 39.7452 29.8404L34.1625 35.2864C37.2367 38.2883 41.4069 39.9978 45.7567 40C47.9105 40.0011 50.0434 39.5883 52.0337 38.7853C54.024 37.9822 55.8326 36.8046 57.3564 35.3197C58.8801 33.8348 60.0891 32.0717 60.9144 30.131C61.7396 28.1903 62.1649 26.1101 62.166 24.009C62.1671 21.908 61.744 19.8273 60.9208 17.8858C60.0976 15.9443 58.8904 14.18 57.3682 12.6936C55.8457 11.2057 54.037 10.0257 52.0464 9.22027C50.0554 8.41467 47.9211 8 45.7656 8C43.6101 8 41.4758 8.41467 39.4847 9.22027C37.4937 10.0259 35.6851 11.2066 34.1625 12.6949Z" fill="#AFAFB6"/>
<path d="M16.5137 18.1416L16.5129 18.1408C14.9293 19.6967 14.0425 21.8015 14.047 23.9941C14.0514 26.1873 14.9472 28.2893 16.5379 29.8392C17.6586 30.9312 18.9878 31.5465 19.2701 31.6607C20.3011 32.0776 21.4062 32.2922 22.5223 32.2922C23.6384 32.2922 24.7435 32.0776 25.7745 31.6607C26.8055 31.2438 27.7421 30.6327 28.5308 29.8624L32.5996 36.6006H32.505L32.2448 36.8083C29.0971 39.0795 25.2201 40.1768 21.3152 39.9016C17.4102 39.6265 13.7356 37.974 10.9551 35.2851C7.88836 32.2871 6.16602 28.2247 6.16602 23.9894C6.16602 19.754 7.88836 15.6916 10.9551 12.6936L10.9559 12.6944C13.7418 9.98208 17.435 8.33805 21.3608 8.06269C25.2873 7.78728 29.1842 8.89936 32.3394 11.1957L32.576 11.3803L28.5308 18.1416C27.7421 17.3713 26.8055 16.7602 25.7745 16.3433C24.7435 15.9263 23.6384 15.7117 22.5223 15.7117C21.4062 15.7117 20.3011 15.9263 19.2701 16.3433C18.2391 16.7602 17.3025 17.3713 16.5137 18.1416Z" fill="#AFAFB6"/>
</svg>
