<svg width="56" height="32" viewBox="0 0 56 32" fill="none" xmlns="http://www.w3.org/2000/svg">
  <path d="M27.7348 4.69485C24.7228 7.6929 23.0312 11.7553 23.0312 15.9906C23.0312 20.226 24.7228 24.2883 27.7348 27.2864L33.2178 21.8404C31.6527 20.2859 30.7735 18.1775 30.7735 15.9791C30.7735 13.7807 31.6527 11.6723 33.2178 10.1177C34.7829 8.56322 36.9057 7.6899 39.1191 7.6899C41.3325 7.6899 43.4552 8.56322 45.0203 10.1177L50.3879 4.83142L45.0663 10.1396C46.6314 11.6941 47.5107 13.8025 47.5107 16.0009C47.5107 18.1993 46.6314 20.3077 45.0663 21.8622C43.5012 23.4168 41.3785 24.2901 39.1651 24.2901C36.9517 24.2901 34.8289 23.4168 33.2638 21.8622L27.7343 27.3082C30.7536 30.3101 34.8499 31.9978 39.122 32C41.2373 32.0011 43.3322 31.5883 45.2869 30.7853C47.2416 29.9822 49.018 28.8046 50.5145 27.3197C52.0111 25.8348 53.1985 24.0717 54.009 22.131C54.8195 20.1903 55.2372 18.1101 55.2383 16.009C55.2394 13.908 54.8238 11.8273 54.0153 9.88584C53.2068 7.94432 52.0211 6.17999 50.5261 4.69358C49.0308 3.20573 47.2544 2.02571 45.2994 1.22027C43.3439 0.414668 41.2477 0 39.1307 0C37.0137 0 34.9175 0.414668 32.962 1.22027C31.0066 2.02587 29.2303 3.20659 27.7348 4.69485Z" fill="white"/>
  <path d="M10.4012 10.1416L10.4004 10.1408C8.8451 11.6967 7.97415 13.8015 7.97851 15.9941C7.98286 18.1873 8.86263 20.2893 10.4249 21.8392L10.4014 21.8625C11.176 22.6328 12.0958 23.2438 13.1083 23.6607C14.1209 24.0776 15.2063 24.2922 16.3025 24.2922C17.3986 24.2922 18.484 24.0776 19.4966 23.6607C20.5092 23.2438 21.4291 22.6327 22.2037 21.8624L26.1998 28.6006H26.1069L25.8513 28.8083C22.7599 31.0795 18.9522 32.1768 15.1169 31.9016C11.2817 31.6265 7.67217 29.9972 4.94139 27.3083L10.3205 21.9428L4.94187 27.2851C1.92987 24.2871 0.238281 20.2247 0.238281 15.9894C0.238281 11.754 1.92987 7.69163 4.94187 4.69358L4.94266 4.69437C7.67875 1.98208 11.306 0.338048 15.1617 0.0626857C19.0181 -0.212719 22.8454 0.899355 25.9443 3.19567L26.1766 3.38028L22.2037 10.1416C21.4291 9.37129 20.5092 8.7602 19.4966 8.34327C18.484 7.92633 17.3986 7.71173 16.3025 7.71173C15.2063 7.71173 14.1209 7.92633 13.1083 8.34327C12.0958 8.7602 11.1759 9.37129 10.4012 10.1416Z" fill="white"/>
</svg>
