<svg width="93" height="48" viewBox="0 0 93 48" fill="none" xmlns="http://www.w3.org/2000/svg">
  <path fill-rule="evenodd" clip-rule="evenodd" d="M39.9151 16.7146C39.9151 12.3201 41.6703 8.10505 44.7955 4.99433C46.3472 3.45014 48.1902 2.22505 50.2192 1.38917C52.2481 0.553298 54.4231 0.123047 56.6197 0.123047C58.8162 0.123047 60.9912 0.553298 63.0201 1.38917C65.0487 2.22489 66.8918 3.44925 68.4433 4.99302C69.9945 6.53529 71.2247 8.36592 72.0636 10.3804C72.9025 12.3949 73.3337 14.5537 73.3326 16.7337C73.3314 18.9137 72.898 21.0721 72.0571 23.0858C71.2161 25.0994 69.9841 26.9288 68.4313 28.4695C66.8785 30.0102 65.0354 31.232 63.0072 32.0652C60.979 32.8985 58.8055 33.3267 56.6106 33.3256C52.178 33.3234 47.9277 31.5723 44.795 28.4575L50.5323 22.8069C52.1562 24.4198 54.3587 25.326 56.6553 25.326C58.9519 25.326 61.1544 24.4198 62.7783 22.8069C64.4023 21.1939 65.3146 19.0063 65.3146 16.7253C65.3146 14.4442 64.4023 12.2566 62.7783 10.6436L68.2999 5.13604L62.7306 10.621C61.1067 9.00808 58.9042 8.10193 56.6076 8.10193C54.311 8.10193 52.1085 9.00808 50.4846 10.621C48.8606 12.234 47.9483 14.4216 47.9483 16.7026C47.9483 18.9837 48.8606 21.1713 50.4846 22.7842L44.7955 28.4349C41.6703 25.3242 39.9151 21.1091 39.9151 16.7146ZM26.8097 10.645L26.8105 10.6458C27.6142 9.84651 28.5687 9.21246 29.6194 8.77986C30.67 8.34725 31.7962 8.12459 32.9335 8.12459C34.0709 8.12459 35.197 8.34725 36.2477 8.77986C37.2983 9.21246 38.2528 9.84651 39.0565 10.6458L43.1787 3.63036L42.9377 3.43881C39.7223 1.0562 35.7512 -0.0976662 31.7499 0.188088C27.7493 0.473799 23.9857 2.17961 21.1468 4.99383L21.146 4.99302C18.0208 8.10373 16.2656 12.3188 16.2656 16.7133C16.2656 21.1078 18.0208 25.3228 21.146 28.4336L26.7268 22.8905L21.1455 28.4576C23.9789 31.2475 27.724 32.9381 31.7034 33.2236C35.6828 33.509 39.6336 32.3705 42.8412 30.014L43.1064 29.7985H43.2028L39.0565 22.807C38.2528 23.6063 37.2983 24.2403 36.2477 24.6729C35.197 25.1055 34.0709 25.3282 32.9335 25.3282C31.7962 25.3282 30.67 25.1055 29.6194 24.6729C28.5688 24.2403 27.6144 23.6063 26.8107 22.8072L26.8351 22.7829C25.2141 21.1748 24.3013 18.9938 24.2967 16.7182C24.2922 14.4433 25.1959 12.2593 26.8097 10.645ZM6.77449 44.5623C7.38522 43.9515 7.69058 43.1315 7.69058 42.1022C7.69058 41.9238 7.67343 41.7385 7.63912 41.5463H4.06736V42.4316H6.74361C6.66812 43.1521 6.38677 43.7182 5.89956 44.1299C5.41235 44.5417 4.80162 44.7475 4.06736 44.7475C3.26449 44.7475 2.58514 44.4696 2.0293 43.9138C1.48033 43.3511 1.20585 42.6477 1.20585 41.8037C1.20585 40.9596 1.48033 40.2562 2.0293 39.6936C2.58514 39.1377 3.26449 38.8598 4.06736 38.8598C4.47909 38.8598 4.86337 38.9387 5.22021 39.0965C5.5839 39.2475 5.87897 39.4602 6.10542 39.7347L6.78478 39.0554C6.47598 38.7054 6.08141 38.4343 5.60106 38.2422C5.12071 38.0501 4.60947 37.954 4.06736 37.954C2.99687 37.954 2.09106 38.3246 1.34995 39.0657C0.608838 39.8068 0.238281 40.7194 0.238281 41.8037C0.238281 42.8879 0.608838 43.8006 1.34995 44.5417C2.09106 45.2828 2.99687 45.6533 4.06736 45.6533C5.1859 45.6533 6.08827 45.2896 6.77449 44.5623ZM8.9659 41.042C8.47869 41.5498 8.23508 42.1914 8.23508 42.9668C8.23508 43.7422 8.47869 44.3838 8.9659 44.8916C9.45997 45.3994 10.081 45.6533 10.829 45.6533C11.5769 45.6533 12.1945 45.3994 12.6818 44.8916C13.1758 44.3907 13.4229 43.7491 13.4229 42.9668C13.4229 42.1914 13.1758 41.5498 12.6818 41.042C12.1945 40.5342 11.5769 40.2803 10.829 40.2803C10.081 40.2803 9.45997 40.5342 8.9659 41.042ZM9.65555 44.2843C9.33989 43.9481 9.18206 43.5089 9.18206 42.9668C9.18206 42.4316 9.33989 41.9958 9.65555 41.6596C9.97807 41.3165 10.3692 41.1449 10.829 41.1449C11.2887 41.1449 11.6799 41.3165 12.0024 41.6596C12.3181 41.9958 12.4759 42.4316 12.4759 42.9668C12.4759 43.5089 12.3181 43.9481 12.0024 44.2843C11.6867 44.6206 11.2956 44.7887 10.829 44.7887C10.3623 44.7887 9.9712 44.6206 9.65555 44.2843ZM14.6228 41.042C14.1355 41.5498 13.8919 42.1914 13.8919 42.9668C13.8919 43.7422 14.1355 44.3838 14.6228 44.8916C15.1168 45.3994 15.7379 45.6533 16.4858 45.6533C17.2338 45.6533 17.8514 45.3994 18.3386 44.8916C18.8327 44.3907 19.0797 43.7491 19.0797 42.9668C19.0797 42.1914 18.8327 41.5498 18.3386 41.042C17.8514 40.5342 17.2338 40.2803 16.4858 40.2803C15.7379 40.2803 15.1168 40.5342 14.6228 41.042ZM15.3124 44.2843C14.9967 43.9481 14.8389 43.5089 14.8389 42.9668C14.8389 42.4316 14.9967 41.9958 15.3124 41.6596C15.6349 41.3165 16.0261 41.1449 16.4858 41.1449C16.9456 41.1449 17.3367 41.3165 17.6593 41.6596C17.9749 41.9958 18.1327 42.4316 18.1327 42.9668C18.1327 43.5089 17.9749 43.9481 17.6593 44.2843C17.3436 44.6206 16.9525 44.7887 16.4858 44.7887C16.0192 44.7887 15.6281 44.6206 15.3124 44.2843ZM23.2441 44.2843C22.949 44.6206 22.5681 44.7887 22.1015 44.7887C21.6486 44.7887 21.2678 44.6171 20.959 44.274C20.6502 43.9378 20.4958 43.5021 20.4958 42.9668C20.4958 42.4384 20.6502 42.0027 20.959 41.6596C21.2678 41.3165 21.6486 41.1449 22.1015 41.1449C22.5613 41.1449 22.9421 41.3165 23.2441 41.6596C23.5529 42.0027 23.7073 42.4384 23.7073 42.9668C23.7073 43.5089 23.5529 43.9481 23.2441 44.2843ZM21.2781 47.7635C21.5251 47.8389 21.7893 47.8767 22.0706 47.8767C22.8392 47.8767 23.4568 47.6434 23.9234 47.1767C24.3832 46.717 24.6131 46.0822 24.6131 45.2725V40.445H23.7073V41.1449H23.6661C23.4877 40.8773 23.2441 40.668 22.9353 40.517C22.6333 40.3592 22.3039 40.2803 21.9471 40.2803C21.2883 40.2803 20.7222 40.541 20.2487 41.0626C19.7821 41.5841 19.5488 42.2188 19.5488 42.9668C19.5488 43.7148 19.7821 44.353 20.2487 44.8813C20.7222 45.396 21.2883 45.6533 21.9471 45.6533C22.3039 45.6533 22.6333 45.5779 22.9353 45.4269C23.2441 45.2691 23.4877 45.0563 23.6661 44.7887H23.7073V45.2725C23.7073 45.8146 23.5632 46.2401 23.2749 46.5489C22.9867 46.8576 22.5853 47.012 22.0706 47.012C21.7344 47.012 21.4393 46.9228 21.1854 46.7444C20.9315 46.566 20.7531 46.3293 20.6502 46.0342L19.7547 46.4047C19.8301 46.6243 19.9399 46.8233 20.084 47.0017C20.2281 47.1802 20.3997 47.3346 20.5987 47.4649C20.8046 47.5953 21.031 47.6948 21.2781 47.7635ZM25.6647 45.4886H26.6117V38.1187H25.6647V45.4886ZM28.0447 44.8916C28.5251 45.3994 29.1358 45.6533 29.8769 45.6533C30.3847 45.6533 30.8376 45.5332 31.2356 45.2931C31.6405 45.0529 31.9562 44.7201 32.1826 44.2946L31.3386 43.8829C30.9955 44.4868 30.522 44.7887 29.9181 44.7887C29.4789 44.7887 29.1015 44.6377 28.7858 44.3358C28.4702 44.0339 28.3055 43.6359 28.2918 43.1418H32.2547L32.265 43.0389C32.265 42.1674 32.0419 41.4914 31.5959 41.0111C31.1567 40.5239 30.5631 40.2803 29.8152 40.2803C29.0878 40.2803 28.4908 40.5376 28.0241 41.0523C27.5575 41.5601 27.3242 42.1982 27.3242 42.9668C27.3242 43.7422 27.5644 44.3838 28.0447 44.8916ZM31.2562 42.3595H28.3638C28.4462 41.9889 28.6143 41.6939 28.8682 41.4743C29.129 41.2547 29.4377 41.1449 29.7946 41.1449C30.2269 41.1449 30.57 41.2616 30.8239 41.4949C31.0847 41.7213 31.2288 42.0095 31.2562 42.3595ZM35.8813 44.552C36.6155 45.2862 37.5282 45.6533 38.6193 45.6533C39.2025 45.6533 39.7481 45.5401 40.2559 45.3137C40.7637 45.0803 41.1926 44.7544 41.5425 44.3358L40.8529 43.6667C40.2216 44.3873 39.477 44.7475 38.6193 44.7475C37.8027 44.7475 37.1199 44.473 36.5709 43.9241C36.0288 43.382 35.7577 42.6752 35.7577 41.8037C35.7577 40.9322 36.0288 40.2254 36.5709 39.6833C37.1199 39.1343 37.8027 38.8598 38.6193 38.8598C39.4427 38.8598 40.1186 39.1789 40.647 39.8171L41.3264 39.1583C40.6333 38.3554 39.7309 37.954 38.6193 37.954C37.5213 37.954 36.6086 38.3246 35.8813 39.0657C35.1539 39.7931 34.7902 40.7057 34.7902 41.8037C34.7902 42.9016 35.1539 43.8177 35.8813 44.552ZM42.6232 41.042C42.136 41.5498 41.8923 42.1914 41.8923 42.9668C41.8923 43.7422 42.136 44.3838 42.6232 44.8916C43.1172 45.3994 43.7383 45.6533 44.4862 45.6533C45.2342 45.6533 45.8518 45.3994 46.339 44.8916C46.8331 44.3907 47.0801 43.7491 47.0801 42.9668C47.0801 42.1914 46.8331 41.5498 46.339 41.042C45.8518 40.5342 45.2342 40.2803 44.4862 40.2803C43.7383 40.2803 43.1172 40.5342 42.6232 41.042ZM43.3128 44.2843C42.9972 43.9481 42.8393 43.5089 42.8393 42.9668C42.8393 42.4316 42.9972 41.9958 43.3128 41.6596C43.6353 41.3165 44.0265 41.1449 44.4862 41.1449C44.946 41.1449 45.3372 41.3165 45.6597 41.6596C45.9753 41.9958 46.1332 42.4316 46.1332 42.9668C46.1332 43.5089 45.9753 43.9481 45.6597 44.2843C45.344 44.6206 44.9529 44.7887 44.4862 44.7887C44.0196 44.7887 43.6285 44.6206 43.3128 44.2843ZM47.7872 45.4886H48.7341V38.1187H47.7872V45.4886ZM51.4744 44.8093C51.193 44.8093 50.946 44.7269 50.7333 44.5623C50.5274 44.3976 50.4245 44.1917 50.4245 43.9447C50.4245 43.6702 50.5514 43.4403 50.8053 43.255C51.0661 43.0697 51.3886 42.9771 51.7729 42.9771C52.3013 42.9771 52.713 43.0938 53.0081 43.3271C53.0081 43.7251 52.8502 44.0716 52.5346 44.3667C52.2258 44.6618 51.8724 44.8093 51.4744 44.8093ZM53.3066 40.8464C52.9017 40.469 52.3493 40.2803 51.6494 40.2803C50.7504 40.2803 50.0711 40.6096 49.6113 41.2684L50.4451 41.7934C50.7539 41.3473 51.1724 41.1243 51.7008 41.1243C52.0508 41.1243 52.3562 41.241 52.6169 41.4743C52.8777 41.7007 53.0081 41.9787 53.0081 42.308V42.5242C52.6444 42.3183 52.1812 42.2154 51.6185 42.2154C50.9597 42.2154 50.4313 42.3698 50.0333 42.6786C49.6422 42.9874 49.4466 43.4025 49.4466 43.9241C49.4466 44.4182 49.6319 44.8299 50.0024 45.1593C50.3799 45.4886 50.8465 45.6533 51.4023 45.6533C52.0542 45.6533 52.5758 45.3651 52.9669 44.7887H53.0081V45.4886H53.9139V42.3801C53.9139 41.7282 53.7114 41.2169 53.3066 40.8464ZM56.5259 45.4166C56.8347 45.5744 57.1744 45.6533 57.545 45.6533C58.2106 45.6533 58.7733 45.3926 59.2331 44.871C59.7066 44.3495 59.9433 43.7148 59.9433 42.9668C59.9433 42.2257 59.7066 41.5909 59.2331 41.0626C58.7733 40.541 58.2106 40.2803 57.545 40.2803C57.1744 40.2803 56.8347 40.3592 56.5259 40.517C56.224 40.6748 55.9907 40.8841 55.826 41.1449H55.7848L55.826 40.445V38.1187H54.879V45.4886H55.7848V44.7887H55.826C55.9907 45.0495 56.224 45.2588 56.5259 45.4166ZM58.5331 44.274C58.2243 44.6171 57.8435 44.7887 57.3906 44.7887C56.9308 44.7887 56.5465 44.6206 56.2377 44.2843C55.9358 43.9412 55.7848 43.5021 55.7848 42.9668C55.7848 42.4384 55.9358 42.0027 56.2377 41.6596C56.5465 41.3165 56.9308 41.1449 57.3906 41.1449C57.8435 41.1449 58.2243 41.3165 58.5331 41.6596C58.8419 42.0027 58.9963 42.4384 58.9963 42.9668C58.9963 43.5021 58.8419 43.9378 58.5331 44.274ZM61.1494 41.042C60.6622 41.5498 60.4186 42.1914 60.4186 42.9668C60.4186 43.7422 60.6622 44.3838 61.1494 44.8916C61.6435 45.3994 62.2645 45.6533 63.0125 45.6533C63.7604 45.6533 64.378 45.3994 64.8652 44.8916C65.3593 44.3907 65.6063 43.7491 65.6063 42.9668C65.6063 42.1914 65.3593 41.5498 64.8652 41.042C64.378 40.5342 63.7604 40.2803 63.0125 40.2803C62.2645 40.2803 61.6435 40.5342 61.1494 41.042ZM61.839 44.2843C61.5234 43.9481 61.3655 43.5089 61.3655 42.9668C61.3655 42.4316 61.5234 41.9958 61.839 41.6596C62.1615 41.3165 62.5527 41.1449 63.0125 41.1449C63.4722 41.1449 63.8634 41.3165 64.1859 41.6596C64.5015 41.9958 64.6594 42.4316 64.6594 42.9668C64.6594 43.5089 64.5015 43.9481 64.1859 44.2843C63.8702 44.6206 63.4791 44.7887 63.0125 44.7887C62.5458 44.7887 62.1547 44.6206 61.839 44.2843ZM66.2631 45.4886H67.2101V42.7095C67.2101 42.3252 67.3405 41.9889 67.6012 41.7007C67.8689 41.4125 68.1811 41.2684 68.5379 41.2684C68.7918 41.2684 68.9771 41.2924 69.0937 41.3405L69.382 40.4244C69.1898 40.342 68.9565 40.3009 68.682 40.3009C68.3938 40.3009 68.0987 40.3969 67.7968 40.5891C67.5017 40.7743 67.3062 41.0008 67.2101 41.2684H67.1689V40.445H66.2631V45.4886ZM71.438 44.8093C71.1567 44.8093 70.9096 44.7269 70.6969 44.5623C70.4911 44.3976 70.3881 44.1917 70.3881 43.9447C70.3881 43.6702 70.5151 43.4403 70.769 43.255C71.0297 43.0697 71.3522 42.9771 71.7365 42.9771C72.2649 42.9771 72.6766 43.0938 72.9717 43.3271C72.9717 43.7251 72.8139 44.0716 72.4982 44.3667C72.1894 44.6618 71.836 44.8093 71.438 44.8093ZM73.2702 40.8464C72.8654 40.469 72.313 40.2803 71.613 40.2803C70.7141 40.2803 70.0347 40.6096 69.575 41.2684L70.4087 41.7934C70.7175 41.3473 71.1361 41.1243 71.6645 41.1243C72.0144 41.1243 72.3198 41.241 72.5806 41.4743C72.8413 41.7007 72.9717 41.9787 72.9717 42.308V42.5242C72.608 42.3183 72.1448 42.2154 71.5821 42.2154C70.9234 42.2154 70.395 42.3698 69.997 42.6786C69.6058 42.9874 69.4103 43.4025 69.4103 43.9241C69.4103 44.4182 69.5955 44.8299 69.9661 45.1593C70.3435 45.4886 70.8101 45.6533 71.366 45.6533C72.0179 45.6533 72.5394 45.3651 72.9305 44.7887H72.9717V45.4886H73.8775V42.3801C73.8775 41.7282 73.6751 41.2169 73.2702 40.8464ZM75.7097 45.1901C75.9842 45.444 76.3273 45.571 76.739 45.571C77.0684 45.571 77.3566 45.5264 77.6037 45.4372L77.3052 44.5931C77.2434 44.6206 77.1748 44.6446 77.0993 44.6652C77.0307 44.6789 76.9586 44.6858 76.8831 44.6858C76.7185 44.6858 76.5709 44.6274 76.4405 44.5108C76.3102 44.3873 76.245 44.1574 76.245 43.8211V41.3096H77.4802V40.445H76.245V38.901H75.298V40.445H74.4128V41.3096H75.298V44.1299C75.3048 44.5828 75.4421 44.9362 75.7097 45.1901ZM78.6704 41.042C78.1832 41.5498 77.9396 42.1914 77.9396 42.9668C77.9396 43.7422 78.1832 44.3838 78.6704 44.8916C79.1645 45.3994 79.7855 45.6533 80.5335 45.6533C81.2814 45.6533 81.899 45.3994 82.3862 44.8916C82.8803 44.3907 83.1274 43.7491 83.1274 42.9668C83.1274 42.1914 82.8803 41.5498 82.3862 41.042C81.899 40.5342 81.2814 40.2803 80.5335 40.2803C79.7855 40.2803 79.1645 40.5342 78.6704 41.042ZM79.36 44.2843C79.0444 43.9481 78.8866 43.5089 78.8866 42.9668C78.8866 42.4316 79.0444 41.9958 79.36 41.6596C79.6826 41.3165 80.0737 41.1449 80.5335 41.1449C80.9932 41.1449 81.3844 41.3165 81.7069 41.6596C82.0226 41.9958 82.1804 42.4316 82.1804 42.9668C82.1804 43.5089 82.0226 43.9481 81.7069 44.2843C81.3912 44.6206 81.0001 44.7887 80.5335 44.7887C80.0668 44.7887 79.6757 44.6206 79.36 44.2843ZM83.7841 45.4886H84.7311V42.7095C84.7311 42.3252 84.8615 41.9889 85.1222 41.7007C85.3899 41.4125 85.7021 41.2684 86.0589 41.2684C86.3128 41.2684 86.4981 41.2924 86.6148 41.3405L86.903 40.4244C86.7108 40.342 86.4775 40.3009 86.203 40.3009C85.9148 40.3009 85.6197 40.3969 85.3178 40.5891C85.0227 40.7743 84.8272 41.0008 84.7311 41.2684H84.6899V40.445H83.7841V45.4886ZM88.8695 47.712L92.0295 40.445H91.0002L89.5385 44.0682H89.5179L88.0151 40.445H86.9858L89.065 45.1696L87.8916 47.712H88.8695Z" fill="white"/>
</svg>
