<svg width="112" height="48" viewBox="0 0 112 48" fill="none" xmlns="http://www.w3.org/2000/svg">
  <path fill-rule="evenodd" clip-rule="evenodd"
        d="M5.99164 36.2647C3.85172 32.5581 2.83821 28.5096 2.84474 24.5162C2.83799 20.3874 3.922 16.3147 5.97926 12.7369C5.94584 12.8202 5.91288 12.9036 5.88034 12.9871C5.91306 12.9291 5.94603 12.8712 5.97926 12.8134C4.75661 15.8601 4.11813 19.1266 4.11322 22.4274C4.11971 26.7951 5.23588 31.2202 7.57617 35.2734C11.6985 42.4142 18.717 46.841 26.2915 47.9238C26.1103 47.9234 25.9293 47.921 25.7483 47.9165C25.9291 47.9462 26.1101 47.9741 26.2915 48C18.1976 47.9858 10.3301 43.7799 5.99164 36.2647ZM1.57626 24.5743C1.58062 21.6548 2.084 18.686 3.14012 15.7831C5.96002 8.03518 12.1044 2.45724 19.3761 0.076786C19.2044 0.107372 19.033 0.139862 18.8622 0.174232C19.0329 0.114376 19.2042 0.0562935 19.3761 0C11.4069 1.4192 4.38847 6.92706 1.42123 15.0803C0.452599 17.7428 -0.00437876 20.4664 3.03857e-05 23.1435C-0.00911389 28.6955 1.96698 34.0519 5.48039 38.2541C5.41951 38.1562 5.3593 38.0579 5.29976 37.9592C5.35951 38.0324 5.41972 38.1053 5.48039 38.1779C2.96698 34.1342 1.5835 29.4236 1.57626 24.5743ZM19.4564 34.8183V20.3022H13.8734V34.8183H19.4564ZM33.7299 18.0671L42.9042 18.0676C43.52 18.0676 44.0199 18.5669 44.0199 19.1846C44.0199 19.8013 43.52 20.3005 42.9042 20.3005L29.5072 20.3022V34.8183H35.0903V25.8851L42.9042 25.8844C46.6035 25.8844 49.6039 22.885 49.6039 19.1846C49.6039 15.4848 46.6035 12.4851 42.9042 12.4851L33.7299 12.488V18.0671ZM27.2728 12.4883L32.8865 12.488V18.0671L27.2702 18.0665V34.8183H21.6882V18.0671H20.3337V12.4883H21.6882H21.6901C21.6901 8.17193 25.19 4.67263 29.507 4.67263V4.66943H35.0902V10.2532H29.507V10.2549C28.2729 10.2549 27.2728 11.2557 27.2728 12.4883ZM19.4567 12.4885H13.8734V18.0673H19.4567V12.4885ZM7.15755 31.2205C10.7659 37.9677 17.3253 43.0504 25.4465 44.4818C33.5661 45.9144 41.4677 43.3825 47.1666 38.2761C47.078 38.3813 46.9886 38.4857 46.8982 38.5892C46.9882 38.5108 47.0777 38.4317 47.1666 38.352C41.953 44.5443 33.6736 47.8671 25.1282 46.3593C16.5832 44.8546 9.93986 38.8972 7.15755 31.2974C7.18812 31.3545 7.2189 31.4115 7.24989 31.4685C7.21865 31.386 7.18787 31.3034 7.15755 31.2205ZM110.79 17.0491H107.255C107.251 17.0491 107.243 17.0499 107.23 17.0511C107.187 17.0552 107.093 17.0642 106.967 17.0642C106.579 17.0642 106.485 17.0787 106.325 17.1683C106.161 17.2721 106.016 17.4654 105.952 17.6893C105.895 17.883 105.916 18.0167 105.996 18.1505C106.13 18.3589 106.271 18.3895 107.046 18.3895H108.224C109.82 18.3895 110.51 19.1482 110.131 20.4589C109.955 21.0694 109.527 21.7242 109.015 22.1557C108.698 22.4241 108.334 22.6029 107.988 22.6625C107.717 22.7223 107.172 22.752 106.665 22.752H102.549L102.996 21.2034H106.546H106.919L107.192 21.188C107.778 21.1735 108.034 21.0097 108.154 20.5926C108.215 20.3845 108.196 20.1905 108.11 20.0716C107.979 19.9078 107.824 19.8779 107.138 19.8779H105.929C105.259 19.8779 104.958 19.8331 104.665 19.7144C103.916 19.4168 103.631 18.5976 103.915 17.6146C104.069 17.0787 104.391 16.5873 104.816 16.2006C105.403 15.6642 105.883 15.5005 106.972 15.5005H111.237L110.79 17.0491ZM66.9824 15.5153C66.8524 15.5005 66.6887 15.5005 66.4645 15.5005H62.6169L60.5199 22.752H62.5189L64.1678 17.0491H65.8984C66.6433 17.0491 66.8411 17.3468 66.6343 18.0618L65.2782 22.752H67.2766L68.5635 18.2993C68.861 17.2721 68.8287 16.5574 68.4402 16.0956C68.1454 15.7238 67.6485 15.5301 66.9824 15.5153ZM75.6824 19.8927H71.4766C71.2722 20.8604 71.635 21.2034 72.8583 21.2034H75.3041L74.8561 22.752H72.1866C71.0381 22.752 70.4641 22.5731 69.9536 22.0666C69.2636 21.4118 69.1171 20.3695 69.5003 19.0443C69.8713 17.7637 70.7575 16.6024 71.8054 16.0215C72.446 15.6642 73.1496 15.5005 74.1492 15.5005H76.9522L76.5053 17.0491H73.8355C72.7469 17.0491 72.2977 17.3616 71.9246 18.3441H76.1305L75.6824 19.8927ZM83.399 16.0663C83.0463 15.6342 82.5483 15.5005 81.3256 15.5005H78.4959L76.3999 22.752H78.3983L80.0474 17.0491H80.5057C81.4893 17.0491 81.6972 17.3616 81.4001 18.3895L81.2881 18.7765H83.2118L83.4144 18.0763C83.7375 16.9595 83.7238 16.4382 83.399 16.0663ZM87.9915 17.049C86.8284 17.049 86.0634 17.7338 85.6546 19.1482C85.2673 20.4886 85.7017 21.2034 86.8947 21.2034H88.4462L89.6473 17.049H87.9915ZM90.0143 22.6918C89.9797 22.8116 89.9218 22.9599 89.8314 23.1685C89.5502 23.8832 89.3409 24.1958 88.9114 24.5979C88.3049 25.1491 87.6865 25.328 86.4478 25.328H82.4807L82.9288 23.7793H86.6275C87.4774 23.7793 87.7568 23.5857 87.9598 22.8858L87.9982 22.752H86.164C84.9862 22.752 84.3642 22.5283 83.906 21.9479C83.3835 21.2774 83.2951 20.2953 83.6353 19.1189C84.0226 17.7789 84.7669 16.7516 85.8279 16.1256C86.583 15.6793 87.2759 15.5005 88.3645 15.5005H92.0926L90.0143 22.6918ZM96.3673 12.8202H94.3689L93.8095 14.7558H95.8079L96.3673 12.8202ZM93.4966 22.752L95.5933 15.5005H93.5946L91.4982 22.752H93.4966ZM102.131 19.8927H97.9247C97.7197 20.8604 98.0825 21.2034 99.3058 21.2034H101.751L101.304 22.752H98.6344C97.4862 22.752 96.9111 22.5731 96.4017 22.0666C95.7111 21.4118 95.5651 20.3695 95.9478 19.0443C96.3182 17.7637 97.2056 16.6024 98.2535 16.0215C98.894 15.6642 99.5971 15.5005 100.596 15.5005H103.4L102.952 17.0491H100.282C99.1938 17.0491 98.7458 17.3616 98.3727 18.3441H102.579L102.131 19.8927ZM58.7581 14.5482H61.5162L62.0303 12.774H58.4525C57.3639 12.774 56.6646 12.9232 56.0334 13.2514C55.5036 13.5346 54.9735 13.9222 54.5077 14.399C53.5834 15.3234 53.0103 16.3227 52.6213 17.6643C51.9386 20.0196 52.3654 21.8385 53.7151 22.3758C54.317 22.6137 55.1515 22.7188 56.3884 22.7188H59.1465L59.66 20.9441H56.992C54.9642 20.9441 54.3882 20.3628 54.7369 18.6488H60.3261L60.837 16.8891H55.2471L55.3541 16.6207C55.5937 15.9497 55.7737 15.6365 56.1604 15.2789C56.4326 15.0108 56.7414 14.8172 57.0362 14.727C57.4133 14.6078 57.9977 14.5482 58.7581 14.5482ZM58.9621 31.1909C58.5521 32.6056 58.9638 33.3505 60.1716 33.3505C61.3498 33.3505 62.1616 32.6056 62.5876 31.1314C63.01 29.6724 62.614 28.9278 61.4204 28.9278C60.2126 28.9278 59.4247 29.6426 58.9749 31.1468L58.9621 31.1909ZM61.8447 27.4089C64.276 27.4089 65.2989 28.8238 64.6014 31.2355C63.9556 33.4691 62.0592 34.8694 59.6733 34.8694C57.255 34.8694 56.2542 33.4842 56.9517 31.0718C57.5888 28.8682 59.5328 27.4089 61.8447 27.4089ZM73.5922 27.5139H71.5935L69.9446 33.216H68.0654C67.4536 33.216 67.2082 32.8292 67.3975 32.1742L68.7452 27.5139H66.7468L65.4552 31.9802C65.1622 32.993 65.209 33.7076 65.5934 34.1842C65.8931 34.5415 66.3842 34.7503 67.0364 34.7646H67.5583H71.4955L73.5922 27.5139ZM80.1854 27.5139H82.3038L77.0754 34.7646H74.9278L74.1306 27.5139H76.3078L76.7151 32.5016L80.1854 27.5139ZM83.1621 31.9058H87.3673L87.8157 30.3572H83.6101C83.9832 29.3751 84.4312 29.0616 85.5198 29.0616H88.1896L88.6376 27.5139H85.8333C84.8342 27.5139 84.1314 27.6774 83.4906 28.0343C82.443 28.6153 81.5553 29.7769 81.1858 31.0574C80.8022 32.3821 80.9479 33.4247 81.6388 34.0798C82.149 34.5857 82.7233 34.7646 83.8715 34.7646H86.5413L86.9885 33.216H84.5429C83.3196 33.216 82.9568 32.8738 83.1621 31.9058ZM88.0023 34.7646L90.873 24.8331H92.8714L90.0007 34.7646H88.0023ZM94.2901 24.8331L91.4186 34.7646H93.417L96.2885 24.8331H94.2901ZM101.968 31.9058H97.7626C97.5576 32.8738 97.9205 33.216 99.1437 33.216H101.589L101.142 34.7646H98.4726C97.3244 34.7646 96.7502 34.5857 96.2396 34.0798C95.549 33.4247 95.4031 32.3821 95.7866 31.0574C96.1561 29.7769 97.0438 28.6153 98.0914 28.0343C98.732 27.6774 99.435 27.5139 100.434 27.5139H103.238L102.79 29.0616H100.121C99.032 29.0616 98.584 29.3751 98.2106 30.3572H102.416L101.968 31.9058ZM107.011 29.0616H110.546L110.993 27.5139H106.728C105.639 27.5139 105.16 27.6774 104.572 28.2132C104.147 28.6003 103.826 29.0922 103.671 29.628C103.387 30.6105 103.672 31.4298 104.421 31.7269C104.714 31.8462 105.015 31.8915 105.686 31.8915H106.894C107.58 31.8915 107.736 31.9206 107.867 32.085C107.952 32.2041 107.971 32.3975 107.91 32.6057C107.79 33.0227 107.534 33.1866 106.948 33.2014L106.675 33.216H106.302H102.753L102.305 34.7646H106.421C106.928 34.7646 107.474 34.7349 107.744 34.6755C108.09 34.6157 108.455 34.4371 108.771 34.1693C109.283 33.7373 109.711 33.0823 109.888 32.4723C110.266 31.1614 109.576 30.4026 107.98 30.4026H106.802C106.027 30.4026 105.886 30.3726 105.753 30.1639C105.673 30.0301 105.651 29.8955 105.708 29.7022C105.772 29.4791 105.918 29.2853 106.081 29.1811C106.242 29.0922 106.335 29.077 106.724 29.077C106.85 29.077 106.943 29.0679 106.986 29.0637C106.999 29.0624 107.007 29.0616 107.011 29.0616ZM54.1554 27.4994H54.1555C54.3784 27.4994 54.5427 27.4994 54.6726 27.5147C55.3391 27.5293 55.8345 27.7235 56.1293 28.096C56.5161 28.5583 56.5472 29.273 56.2497 30.302L54.9567 34.7591H52.9592L54.3211 30.0636C54.5284 29.3481 54.3313 29.0501 53.5864 29.0501H51.8572L50.201 34.7591H48.2041L50.3095 27.4994H54.1554Z"
        fill="white"/>
</svg>
