<svg width="48" height="48" viewBox="0 0 48 48" fill="none" xmlns="http://www.w3.org/2000/svg">
  <path fill-rule="evenodd" clip-rule="evenodd" d="M10.8886 3.85711C14.6261 1.41729 19.0857 0 23.8733 0H48V24.6139C48 37.527 37.5876 48 24.7373 48H23.8733C10.6857 48 0 37.2521 0 24C0 19.708 1.12113 15.6777 3.08549 12.1904C2.0735 11.1601 1.44835 9.74633 1.44835 8.18719C1.44835 5.03191 4.00621 2.47405 7.16149 2.47405C8.58545 2.47405 9.88843 2.99558 10.8886 3.85711ZM10.9876 5.01447C10.805 5.07449 10.596 5.0321 10.4506 4.88713C9.60729 4.04662 8.44547 3.52795 7.16149 3.52795C4.58826 3.52795 2.50225 5.61396 2.50225 8.18719C2.50225 9.55329 3.0895 10.7815 4.02696 11.6344C4.10762 11.7078 4.16027 11.8005 4.18426 11.8991C4.26645 12.0547 4.26887 12.2479 4.1737 12.4111C2.19088 15.8117 1.05389 19.7715 1.05389 24C1.05389 36.6755 11.2732 46.9461 23.8733 46.9461H24.7373C37.0002 46.9461 46.9461 36.9503 46.9461 24.6139V1.05389H23.8733C19.1694 1.05389 14.7993 2.48446 11.1678 4.9367C11.1114 4.97481 11.0502 5.00053 10.9876 5.01447ZM11.544 7.80155C11.5438 10.5209 9.33927 12.7253 6.6199 12.7252C5.85975 12.7251 4.8627 12.609 4.30079 12.0471C4.21532 11.9616 4.19238 11.8309 4.24439 11.7218C6.08999 7.85013 8.96335 5.75667 10.4334 5.05746C10.5559 4.9992 10.7004 5.04117 10.7734 5.1555C11.2613 5.91974 11.544 6.82763 11.544 7.80155ZM24.8218 21.5245V16.4871C24.5804 16.0309 23.3993 15.1137 20.6066 15.0949C17.1156 15.0713 10.9835 17.548 10.9835 24.2233V24.441C10.9835 31.1163 17.1156 33.593 20.6066 33.5694C23.3993 33.5506 24.5804 32.6334 24.8218 32.1772V27.1398C24.8218 27.0373 24.6475 26.9861 24.5815 27.0645C24.1339 27.5957 23.1554 28.3335 21.6951 28.3335C19.645 28.3335 17.4989 26.4617 17.4989 24.3321C17.4989 22.2026 19.645 20.3308 21.6951 20.3308C23.1554 20.3308 24.1339 21.0686 24.5815 21.5998C24.6475 21.6782 24.8218 21.627 24.8218 21.5245ZM3.82972 16.1815C3.82972 15.9699 4.0013 15.7983 4.21295 15.7983H9.83308C10.0447 15.7983 10.2163 15.9699 10.2163 16.1815V32.7017C10.2163 32.9134 10.0447 33.085 9.83309 33.085H4.21295C4.0013 33.085 3.82972 32.9134 3.82972 32.7017V16.1815ZM25.7852 6.25674C25.7852 6.12762 25.8488 6.01347 25.9461 5.94424C26.0097 5.89933 26.0865 5.87313 26.1688 5.87313H31.7882C31.9996 5.87313 32.1718 6.04528 32.1718 6.25674V17.1999C33.6744 15.8844 35.5962 15.0947 37.6901 15.0947C42.5011 15.0947 46.4008 19.2601 46.4008 24.3967C46.4008 29.5352 42.5011 33.7006 37.6901 33.7006C35.5962 33.7006 33.6744 32.9109 32.1718 31.5954V32.7013C32.1718 32.9128 31.9996 33.085 31.7882 33.085H26.1688C25.9573 33.085 25.7852 32.9128 25.7852 32.7013V6.25674ZM32.1718 23.8147V25.046C32.4656 26.8125 34 28.1598 35.8488 28.1598C37.9091 28.1598 39.5782 26.4906 39.5782 24.4304C39.5782 22.372 37.9091 20.7028 35.8488 20.7028C34 20.7028 32.4656 22.0483 32.1718 23.8147Z" fill="white"/>
</svg>
