<svg width="112" height="48" viewBox="0 0 112 48" fill="none" xmlns="http://www.w3.org/2000/svg">
  <path d="M25.2841 0C2.9021 0 -5.77531 23.5823 6.17521 38.0772C-3.51439 19.6908 7.14167 1.32821 25.2841 0Z" fill="#AFAFB6"/>
  <path d="M20.336 34.4717C20.336 34.7248 20.336 34.8514 20.2867 34.9481C20.2434 35.0331 20.1743 35.1023 20.0892 35.1456C19.9925 35.1949 19.8659 35.1949 19.6128 35.1949H15.4953C15.2421 35.1949 15.1155 35.1949 15.0189 35.1456C14.9338 35.1023 14.8647 35.0331 14.8213 34.9481C14.7721 34.8514 14.7721 34.7248 14.7721 34.4717V21.4502C14.7721 21.1971 14.7721 21.0705 14.8213 20.9738C14.8647 20.8888 14.9338 20.8196 15.0189 20.7763C15.1155 20.727 15.2421 20.727 15.4953 20.727H19.6128C19.8659 20.727 19.9925 20.727 20.0892 20.7763C20.1743 20.8196 20.2434 20.8888 20.2867 20.9738C20.336 21.0705 20.336 21.1971 20.336 21.4502V34.4717Z" fill="#AFAFB6"/>
  <path d="M20.336 17.7799C20.336 18.033 20.336 18.1596 20.2867 18.2563C20.2434 18.3413 20.1743 18.4105 20.0892 18.4538C19.9925 18.5031 19.8659 18.5031 19.6128 18.5031H15.4953C15.2421 18.5031 15.1155 18.5031 15.0189 18.4538C14.9338 18.4105 14.8647 18.3413 14.8213 18.2563C14.7721 18.1596 14.7721 18.033 14.7721 17.7799V13.6702C14.7721 13.4171 14.7721 13.2905 14.8213 13.1938C14.8647 13.1088 14.9338 13.0396 15.0189 12.9963C15.1155 12.947 15.2421 12.947 15.4953 12.947H19.6128C19.8659 12.947 19.9925 12.947 20.0892 12.9963C20.1743 13.0396 20.2434 13.1088 20.2867 13.1938C20.336 13.2905 20.336 13.4171 20.336 13.6702V17.7799Z" fill="#AFAFB6"/>
  <path d="M43.7315 12.9391C47.4118 12.9391 50.4035 15.9229 50.4035 19.6111C50.4035 23.2993 47.4197 26.291 43.7315 26.291H35.9435V34.4717C35.9435 34.7248 35.9435 34.8514 35.8943 34.9481C35.8509 35.0331 35.7818 35.1023 35.6967 35.1456C35.6001 35.1949 35.4735 35.1949 35.2203 35.1949H31.1028C30.8496 35.1949 30.7231 35.1949 30.6264 35.1456C30.5413 35.1023 30.4722 35.0331 30.4289 34.9481C30.3796 34.8514 30.3796 34.7248 30.3796 34.4717V21.4502C30.3796 21.1971 30.3796 21.0705 30.4289 20.9738C30.4722 20.8888 30.5413 20.8196 30.6264 20.7763C30.7231 20.727 30.8496 20.727 31.1028 20.727H43.7315C44.3172 20.7033 44.7841 20.2363 44.8079 19.6507C44.8237 19.0412 44.3488 18.5268 43.7315 18.5031H35.3133C35.0602 18.5031 34.9336 18.5031 34.8369 18.4538C34.7519 18.4105 34.6827 18.3413 34.6394 18.2563C34.5901 18.1596 34.5901 18.033 34.5901 17.7799V13.6623C34.5901 13.4092 34.5901 13.2826 34.6394 13.1859C34.6827 13.1009 34.7519 13.0317 34.8369 12.9884C34.9336 12.9391 35.0602 12.9391 35.3133 12.9391H43.7315Z" fill="#AFAFB6"/>
  <path d="M28.1239 12.9391H32.9963C33.2495 12.9391 33.3761 12.9391 33.4727 12.9884C33.5578 13.0317 33.6269 13.1009 33.6703 13.1859C33.7195 13.2826 33.7195 13.4092 33.7195 13.6623V17.7799C33.7195 18.033 33.7195 18.1596 33.6703 18.2563C33.6269 18.3413 33.5578 18.4105 33.4727 18.4538C33.3761 18.5031 33.2495 18.5031 32.9963 18.5031H28.116V34.4717C28.116 34.7248 28.116 34.8514 28.0668 34.9481C28.0234 35.0331 27.9543 35.1023 27.8692 35.1456C27.7725 35.1949 27.646 35.1949 27.3928 35.1949H23.2753C23.0221 35.1949 22.8956 35.1949 22.7989 35.1456C22.7138 35.1023 22.6447 35.0331 22.6013 34.9481C22.5521 34.8514 22.5521 34.7248 22.5521 34.4717V18.5031H21.9298C21.6767 18.5031 21.5501 18.5031 21.4534 18.4538C21.3684 18.4105 21.2992 18.3413 21.2559 18.2563C21.2066 18.1596 21.2066 18.033 21.2066 17.7799V13.6702C21.2066 13.4171 21.2066 13.2905 21.2559 13.1938C21.2992 13.1088 21.3684 13.0396 21.4534 12.9963C21.5501 12.947 21.6767 12.947 21.9298 12.947H22.56V12.9391C22.56 8.63358 26.0503 5.15117 30.3479 5.15117H35.1887C35.4418 5.15117 35.5684 5.15117 35.6651 5.20043C35.7501 5.24377 35.8193 5.31291 35.8626 5.39796C35.9119 5.49465 35.9119 5.62122 35.9119 5.87436V9.99192C35.9119 10.2451 35.9119 10.3716 35.8626 10.4683C35.8193 10.5534 35.7501 10.6225 35.6651 10.6658C35.5684 10.7151 35.4418 10.7151 35.1887 10.7151H30.3479C29.1212 10.7151 28.1239 11.7123 28.1239 12.9391Z" fill="#AFAFB6"/>
  <path d="M7.14856 12.1942C-3.63 29.3785 10.311 49.121 29.0606 47.9503C9.23058 46.0812 0.905885 28.9516 7.14856 12.1942Z" fill="#AFAFB6"/>
  <path d="M8.13317 31.8201C14.9302 49.1969 35.8649 51.3783 47.1259 39.2272C35.22 48.3058 17.7579 47.3633 8.13317 31.8201Z" fill="#AFAFB6"/>
  <path d="M62.3518 13.0661C62.5091 13.0657 62.5877 13.0655 62.6418 13.0981C62.6891 13.1266 62.7245 13.1717 62.7409 13.2245C62.7597 13.2848 62.7407 13.3612 62.7028 13.5142L62.4512 14.5288C62.4268 14.6269 62.4147 14.676 62.3874 14.7126C62.3633 14.7448 62.331 14.77 62.2939 14.7856C62.2519 14.8033 62.2013 14.8033 62.1002 14.8033H58.9352C57.406 14.8033 56.4235 15.5819 55.9879 17.139H61.337C61.4945 17.139 61.5733 17.139 61.6273 17.1716C61.6746 17.2002 61.7097 17.2452 61.7261 17.2979C61.7448 17.3582 61.7258 17.4346 61.6879 17.5876L61.4363 18.6022C61.4119 18.7004 61.3998 18.7495 61.3725 18.786C61.3484 18.8183 61.3162 18.8435 61.2791 18.8591C61.237 18.8768 61.1865 18.8768 61.0853 18.8768H55.5569L55.4596 19.28L55.404 19.8083V19.8917C55.404 20.1975 55.4596 20.4478 55.5708 20.6424L55.8628 21.0039L56.0574 21.1568L56.3077 21.2541L56.7386 21.3097L60.2959 21.322C60.453 21.3226 60.5315 21.3229 60.5853 21.3556C60.6324 21.3842 60.6674 21.4292 60.6837 21.4818C60.7023 21.542 60.6834 21.6182 60.6456 21.7707L60.3936 22.7869C60.3693 22.8851 60.3571 22.9341 60.3298 22.9707C60.3057 23.0029 60.2735 23.0282 60.2364 23.0438C60.1943 23.0615 60.1438 23.0615 60.0426 23.0615H56.7943L55.9184 23.0198L55.5569 23.0058L55.1259 22.8946C54.1898 22.6444 53.5781 22.0558 53.2908 21.129C53.1518 20.6934 53.0823 20.2531 53.0823 19.8083C53.0823 19.419 53.1379 19.0019 53.2491 18.557C53.4808 17.6209 53.7357 16.8748 54.0137 16.3187C54.3567 15.6143 54.7598 15.0258 55.2233 14.5531C55.7608 13.997 56.3633 13.617 57.0306 13.4131C57.355 13.3111 57.7211 13.2277 58.1289 13.1628C58.3791 13.1258 58.875 13.1026 59.6165 13.0933C60.5078 13.0774 61.4195 13.0683 62.3518 13.0661Z" fill="#AFAFB6"/>
  <path d="M69.4008 17.1807C69.4008 17.7182 69.3128 18.469 69.1367 19.4329C68.9552 20.4182 68.7092 21.5366 68.3987 22.7879C68.3745 22.8854 68.3624 22.9342 68.3351 22.9707C68.3111 23.0029 68.2787 23.0282 68.2417 23.0438C68.1997 23.0615 68.1493 23.0615 68.0485 23.0615H66.8332C66.6753 23.0615 66.5964 23.0615 66.5424 23.0288C66.4951 23.0001 66.46 22.9551 66.4436 22.9022C66.425 22.8419 66.4441 22.7653 66.4824 22.6122L67.4684 18.6682L67.5518 18.279L67.5796 17.9731C67.5796 17.8248 67.5518 17.7043 67.4962 17.6117C67.3997 17.478 66.839 17.3979 65.8143 17.3713C65.5205 17.3637 65.3736 17.3599 65.244 17.4116C65.1319 17.4564 65.0286 17.535 64.9556 17.6311C64.8712 17.7422 64.8345 17.8896 64.7612 18.1843L63.6161 22.7872C63.5917 22.8852 63.5795 22.9343 63.5522 22.9708C63.5281 23.003 63.4959 23.0282 63.4588 23.0438C63.4168 23.0615 63.3663 23.0615 63.2652 23.0615H62.0918C61.9341 23.0615 61.8553 23.0615 61.8013 23.0288C61.754 23.0002 61.7189 22.9552 61.7025 22.9024C61.6838 22.8422 61.7028 22.7656 61.7409 22.6126L63.2459 16.5579C63.3191 16.2636 63.3557 16.1165 63.4375 16.0069C63.5098 15.9103 63.6065 15.8346 63.7178 15.7878C63.8439 15.7348 63.9955 15.7348 64.2987 15.7348H67.0791C68.1172 15.7348 68.8216 15.9202 69.1923 16.2909C69.3313 16.4114 69.4008 16.708 69.4008 17.1807Z" fill="#AFAFB6"/>
  <path d="M76.972 17.2502C77.074 17.2502 77.125 17.2502 77.1673 17.2323C77.2046 17.2164 77.2369 17.1909 77.261 17.1583C77.2882 17.1213 77.3 17.0717 77.3237 16.9725L77.5127 16.1803C77.5489 16.0284 77.567 15.9524 77.5477 15.8923C77.5309 15.84 77.4949 15.7948 77.4476 15.7668C77.3932 15.7347 77.3158 15.7356 77.1608 15.7373C75.8361 15.7516 74.7283 15.8296 73.8374 15.9712C72.8828 16.1194 72.2062 16.3512 71.8077 16.6663C71.0384 17.2687 70.5008 18.1724 70.195 19.3773C70.093 19.8685 70.0491 20.279 70.0491 20.6127C70.0491 21.2151 70.1857 21.7175 70.473 22.1161C70.9642 22.7463 71.7984 23.0615 72.9755 23.0615H75.5147C75.6159 23.0615 75.6665 23.0615 75.7085 23.0438C75.7456 23.0281 75.7779 23.0029 75.802 22.9706C75.8293 22.9341 75.8414 22.885 75.8657 22.7868L76.062 21.9946C76.0999 21.8417 76.1188 21.7652 76.1002 21.7051C76.0839 21.6523 76.049 21.6076 76.0019 21.5788C75.9481 21.5461 75.8689 21.5458 75.7105 21.5452C73.6871 21.5369 72.5762 21.4723 72.3777 21.3514C72.1923 21.1939 72.0996 20.9761 72.0996 20.698V20.4895C72.1089 20.4709 72.1274 20.3829 72.1552 20.2253V20.1836H76.2365C76.338 20.1836 76.3888 20.1836 76.431 20.1658C76.4682 20.1501 76.5005 20.1247 76.5245 20.0923C76.5518 20.0555 76.5638 20.0062 76.5878 19.9075L76.7873 19.0875C76.8244 18.935 76.8429 18.8587 76.8241 18.7987C76.8076 18.7462 76.7724 18.7014 76.7252 18.6729C76.6713 18.6404 76.5929 18.6404 76.4359 18.6404H72.5306C72.6882 18.0658 72.9569 17.6812 73.337 17.4865C73.6428 17.329 74.097 17.2502 74.6994 17.2502H76.972Z" fill="#AFAFB6"/>
  <path d="M83.9497 16.7358C83.9497 17.127 83.86 17.72 83.6806 18.5149C83.6584 18.6132 83.6473 18.6624 83.6201 18.6999C83.5964 18.7327 83.5633 18.7592 83.5261 18.7751C83.4834 18.7934 83.4324 18.7934 83.3303 18.7934H82.2648C82.1007 18.7934 82.0187 18.7934 81.9638 18.7592C81.9157 18.7292 81.8807 18.6823 81.8655 18.6277C81.8483 18.5654 81.8715 18.4867 81.918 18.3293L81.9616 18.1817C82.0173 17.9407 82.0451 17.7507 82.0451 17.6117C82.0451 17.3892 81.9755 17.2502 81.8365 17.1946L81.5307 17.1529L80.6548 17.139L79.2494 22.7872C79.225 22.8852 79.2128 22.9343 79.1855 22.9708C79.1614 23.003 79.1292 23.0282 79.0921 23.0438C79.0501 23.0615 78.9995 23.0615 78.8985 23.0615H77.7251C77.5674 23.0615 77.4886 23.0615 77.4346 23.0288C77.3873 23.0002 77.3521 22.9552 77.3358 22.9024C77.3171 22.8422 77.3361 22.7656 77.3741 22.6126L79.0156 16.0092C79.04 15.9111 79.0522 15.862 79.0795 15.8255C79.1036 15.7933 79.1358 15.7681 79.1729 15.7525C79.2149 15.7348 79.2655 15.7348 79.3665 15.7348H82.337C83.1434 15.7348 83.6485 15.8924 83.8524 16.2075C83.9173 16.3002 83.9497 16.4763 83.9497 16.7358Z" fill="#AFAFB6"/>
  <path fill-rule="evenodd" clip-rule="evenodd" d="M90.8484 22.7834L92.3652 16.6311C92.4406 16.3255 92.4782 16.1727 92.4408 16.0524C92.4079 15.9469 92.3376 15.8571 92.2431 15.8C92.1352 15.7348 91.9778 15.7348 91.663 15.7348H89.0549C88.3227 15.7348 87.7203 15.8182 87.2476 15.9851C86.7656 16.1519 86.2374 16.4716 85.6627 16.9443C85.3012 17.2131 85.0047 17.5978 84.773 18.0982C84.6154 18.4041 84.4439 18.9324 84.2586 19.6831C84.2122 19.8685 84.1798 20.0168 84.1612 20.128C84.152 20.1929 84.1473 20.3273 84.1473 20.5312C84.1473 20.939 84.2308 21.3468 84.3976 21.7546C84.7127 22.5146 85.2827 22.9363 86.1076 23.0198C86.1447 23.029 86.2049 23.0383 86.2883 23.0476L86.5108 23.0754H87.4005L88.8186 23.0615C88.624 23.8215 88.142 24.2015 87.3727 24.2015H84.2066C84.1059 24.2015 84.0555 24.2015 84.0135 24.2191C83.9765 24.2346 83.9444 24.2597 83.9203 24.2917C83.8929 24.3281 83.8806 24.3769 83.856 24.4746L83.6631 25.239C83.6244 25.3923 83.6051 25.4689 83.6238 25.5295C83.6402 25.5824 83.6759 25.6279 83.7234 25.6564C83.7778 25.6891 83.8568 25.6886 84.0147 25.6875C87.198 25.6661 89.0727 25.421 89.6388 24.9522C90.2228 24.4703 90.6259 23.7473 90.8484 22.7834ZM90.1254 17.2919L90.2506 17.3058L89.1801 21.5461H87.9427L87.5118 21.5322L87.1364 21.4905C86.71 21.4071 86.432 21.1568 86.3022 20.7397C86.2652 20.6192 86.2466 20.4524 86.2466 20.2392L86.2744 19.7526L86.3996 19.2104C86.5664 18.5431 86.8722 18.0565 87.3171 17.7507C87.7527 17.4448 88.3876 17.2919 89.2218 17.2919H90.1254Z" fill="#AFAFB6"/>
  <path d="M96.3925 13.0655C96.5496 13.0655 96.6281 13.0655 96.682 13.098C96.7292 13.1265 96.7644 13.1713 96.7808 13.224C96.7997 13.284 96.781 13.3603 96.7437 13.5129L96.4755 14.611C96.4514 14.7095 96.4394 14.7588 96.4121 14.7955C96.3881 14.8279 96.3558 14.8533 96.3186 14.869C96.2764 14.8868 96.2257 14.8868 96.1242 14.8868H94.8772C94.7212 14.8868 94.6431 14.8868 94.5894 14.8545C94.5423 14.8262 94.5072 14.7817 94.4905 14.7294C94.4715 14.6697 94.4894 14.5938 94.5254 14.4419L94.7852 13.3438C94.8087 13.2444 94.8205 13.1947 94.8477 13.1577C94.8718 13.125 94.9042 13.0993 94.9415 13.0835C94.9838 13.0655 95.0349 13.0655 95.1371 13.0655H96.3925Z" fill="#AFAFB6"/>
  <path d="M95.7232 15.7348C95.8809 15.7348 95.9597 15.7348 96.0137 15.7675C96.061 15.7961 96.0961 15.8411 96.1125 15.8939C96.1312 15.9541 96.1122 16.0306 96.0741 16.1836L94.4327 22.7871C94.4083 22.8852 94.3961 22.9342 94.3688 22.9708C94.3447 23.003 94.3125 23.0282 94.2754 23.0438C94.2334 23.0615 94.1828 23.0615 94.0818 23.0615H92.838C92.6806 23.0615 92.6019 23.0615 92.548 23.0289C92.5007 23.0003 92.4656 22.9554 92.4492 22.9027C92.4304 22.8425 92.4493 22.7661 92.487 22.6133L94.1159 16.0098C94.1402 15.9115 94.1523 15.8624 94.1796 15.8257C94.2036 15.7934 94.2359 15.7682 94.273 15.7525C94.3151 15.7348 94.3657 15.7348 94.467 15.7348H95.7232Z" fill="#AFAFB6"/>
  <path d="M103.396 17.2502C103.498 17.2502 103.549 17.2502 103.591 17.2323C103.628 17.2164 103.661 17.1909 103.685 17.1583C103.712 17.1213 103.724 17.0717 103.747 16.9725L103.936 16.1803C103.973 16.0284 103.991 15.9524 103.971 15.8923C103.955 15.84 103.919 15.7948 103.871 15.7668C103.817 15.7347 103.739 15.7356 103.584 15.7373C102.26 15.7516 101.152 15.8296 100.261 15.9712C99.3064 16.1194 98.6298 16.3512 98.2313 16.6663C97.462 17.2687 96.9244 18.1724 96.6186 19.3773C96.5166 19.8685 96.4657 20.2809 96.4657 20.6146C96.4657 21.2171 96.6093 21.7175 96.8966 22.1161C97.3879 22.7463 98.222 23.0615 99.3991 23.0615H101.938C102.04 23.0615 102.09 23.0615 102.132 23.0438C102.169 23.0281 102.201 23.0029 102.226 22.9706C102.253 22.9341 102.265 22.885 102.289 22.7868L102.486 21.9946C102.523 21.8417 102.542 21.7652 102.524 21.7051C102.507 21.6523 102.473 21.6076 102.425 21.5788C102.372 21.5461 102.293 21.5458 102.134 21.5452C100.111 21.5369 98.9998 21.4723 98.8013 21.3514C98.6159 21.1939 98.5232 20.9761 98.5232 20.698V20.4895C98.5325 20.4709 98.551 20.3829 98.5788 20.2253V20.1836H102.66C102.762 20.1836 102.812 20.1836 102.855 20.1658C102.892 20.1501 102.924 20.1247 102.948 20.0923C102.975 20.0555 102.987 20.0062 103.011 19.9075L103.211 19.0875C103.248 18.935 103.267 18.8587 103.248 18.7987C103.231 18.7462 103.196 18.7014 103.149 18.6729C103.095 18.6404 103.016 18.6404 102.86 18.6404H98.9542C99.1118 18.0658 99.3806 17.6812 99.7606 17.4865C100.066 17.329 100.521 17.2502 101.123 17.2502H103.396Z" fill="#AFAFB6"/>
  <path d="M111.523 15.7359C111.68 15.7351 111.759 15.7348 111.813 15.7673C111.861 15.7957 111.896 15.8409 111.913 15.8937C111.932 15.954 111.913 16.0305 111.875 16.1833L111.679 16.9755C111.654 17.0737 111.642 17.1228 111.615 17.1594C111.591 17.1916 111.559 17.2169 111.521 17.2325C111.479 17.2502 111.429 17.2502 111.328 17.2502H108.191C107.699 17.2502 107.403 17.2687 107.301 17.3058C106.986 17.3985 106.782 17.6302 106.689 18.0009L106.675 18.1261C106.675 18.4319 106.981 18.5848 107.593 18.5848L109.734 18.6265C110.568 18.7378 111.055 19.1085 111.194 19.7387L111.221 20.0446C111.221 20.267 111.18 20.5544 111.096 20.9066C110.985 21.3793 110.698 21.8473 110.234 22.3107C109.752 22.8112 109.187 23.0615 108.538 23.0615H104.037C103.88 23.0615 103.801 23.0615 103.747 23.0288C103.7 23.0002 103.664 22.9553 103.648 22.9025C103.629 22.8423 103.648 22.7659 103.686 22.6129L103.882 21.8207C103.907 21.7225 103.919 21.6735 103.946 21.6369C103.97 21.6046 104.002 21.5794 104.04 21.5638C104.082 21.5461 104.132 21.5461 104.233 21.5461H108.024C108.32 21.5461 108.585 21.4951 108.816 21.3932C109.029 21.2912 109.168 21.0966 109.233 20.8092L109.261 20.6285C109.261 20.4617 109.187 20.3319 109.039 20.2392C108.89 20.1466 108.654 20.1002 108.33 20.1002L107.176 20.1141H106.3L105.925 20.0585C105.443 20.0029 105.109 19.8963 104.924 19.7387C104.822 19.6553 104.743 19.5487 104.687 19.419C104.622 19.2985 104.59 19.1548 104.59 18.988V18.8768C104.59 18.7285 104.604 18.557 104.632 18.3624C104.65 18.2141 104.701 17.9778 104.785 17.6534C104.914 17.1251 105.248 16.6755 105.785 16.3048C106.308 15.9415 108.221 15.7518 111.523 15.7359Z" fill="#AFAFB6"/>
  <path d="M92.7326 25.1988C92.8904 25.1988 92.9692 25.1988 93.0232 25.2315C93.0705 25.2601 93.1056 25.3051 93.122 25.3579C93.1407 25.4182 93.1216 25.4947 93.0835 25.6477L90.775 34.9205C90.7506 35.0185 90.7384 35.0676 90.7111 35.1041C90.687 35.1363 90.6548 35.1615 90.6177 35.1771C90.5757 35.1947 90.5252 35.1947 90.4241 35.1947H89.1807C89.0232 35.1947 88.9444 35.1947 88.8905 35.1621C88.8432 35.1335 88.808 35.0886 88.7916 35.0358C88.7729 34.9756 88.7918 34.8992 88.8297 34.7462L91.1253 25.4735C91.1496 25.3753 91.1618 25.3262 91.1891 25.2896C91.2132 25.2574 91.2454 25.2321 91.2825 25.2165C91.3246 25.1988 91.3751 25.1988 91.4763 25.1988H92.7326Z" fill="#AFAFB6"/>
  <path fill-rule="evenodd" clip-rule="evenodd" d="M65.5896 30.454C65.5896 30.8247 65.5432 31.1815 65.4505 31.5245C65.1632 32.6552 64.57 33.5774 63.671 34.2911C62.7905 34.9955 61.771 35.3477 60.6125 35.3477C59.4724 35.3477 58.6244 35.0001 58.0683 34.305C57.7068 33.8415 57.5261 33.2854 57.5261 32.6367L57.5678 32.1223L57.679 31.5245C57.9571 30.3937 58.5549 29.4761 59.4724 28.7717C60.3715 28.0674 61.3864 27.7152 62.5171 27.7152C63.6479 27.7152 64.4913 28.0674 65.0474 28.7717C65.4088 29.2259 65.5896 29.7866 65.5896 30.454ZM63.532 30.7876C63.532 30.5003 63.4764 30.2408 63.3652 30.0091C63.1705 29.5549 62.7581 29.3279 62.1278 29.3279C61.5347 29.3279 61.0017 29.5503 60.529 29.9952C60.1305 30.3937 59.8478 30.9127 59.681 31.5523L59.6671 31.6357C59.6393 31.7654 59.6207 31.8628 59.6115 31.9276C59.5929 32.0759 59.5837 32.1918 59.5837 32.2752C59.5837 32.5811 59.6439 32.8498 59.7644 33.0815C59.9961 33.5357 60.4085 33.7628 61.0017 33.7628C61.5764 33.7628 62.1 33.5403 62.5727 33.0954C62.9805 32.6969 63.2678 32.1779 63.4347 31.5384C63.4717 31.3808 63.4949 31.251 63.5042 31.1491V31.1074C63.5227 30.9684 63.532 30.8618 63.532 30.7876Z" fill="#AFAFB6"/>
  <path d="M56.9059 29.3139C56.9059 29.8515 56.8179 30.6023 56.6417 31.5662C56.4602 32.5515 56.2142 33.6699 55.9038 34.9212C55.8796 35.0187 55.8675 35.0674 55.8402 35.104C55.8162 35.1361 55.7838 35.1615 55.7468 35.177C55.7047 35.1947 55.6543 35.1947 55.5535 35.1947H54.3383C54.1804 35.1947 54.1015 35.1947 54.0475 35.162C54.0002 35.1334 53.965 35.0883 53.9487 35.0355C53.93 34.9752 53.9492 34.8986 53.9875 34.7454L54.9734 30.8015L55.0569 30.4123L55.0847 30.1064C55.0847 29.9581 55.0569 29.8376 55.0012 29.7449C54.8808 29.5781 54.0373 29.4947 52.471 29.4947L51.1212 34.9204C51.0968 35.0185 51.0846 35.0675 51.0573 35.104C51.0332 35.1363 51.0009 35.1615 50.9639 35.1771C50.9218 35.1947 50.8713 35.1947 50.7703 35.1947H49.5968C49.4392 35.1947 49.3603 35.1947 49.3064 35.1621C49.2591 35.1334 49.2239 35.0885 49.2076 35.0357C49.1889 34.9754 49.2079 34.8989 49.2459 34.7459L50.751 28.6912C50.8241 28.3969 50.8607 28.2498 50.9426 28.1402C51.0148 28.0435 51.1116 27.9679 51.2228 27.9211C51.3489 27.8681 51.5005 27.8681 51.8037 27.8681H54.5842C55.6222 27.8681 56.3266 28.0534 56.6974 28.4242C56.8364 28.5447 56.9059 28.8413 56.9059 29.3139Z" fill="#AFAFB6"/>
  <path d="M71.2947 35.1947C71.598 35.1947 71.7496 35.1947 71.8757 35.1417C71.9869 35.0949 72.0836 35.0193 72.1559 34.9226C72.2378 34.813 72.2744 34.6659 72.3475 34.3716L73.8526 28.3169C73.8906 28.1639 73.9096 28.0874 73.8909 28.0271C73.8746 27.9743 73.8394 27.9294 73.7921 27.9007C73.7382 27.8681 73.6593 27.8681 73.5016 27.8681H72.3147C72.2135 27.8681 72.1629 27.8681 72.1209 27.8858C72.0838 27.9014 72.0515 27.9266 72.0274 27.9589C72.0001 27.9955 71.988 28.0446 71.9637 28.1428L70.6136 33.5959C69.1029 33.5959 68.2733 33.5079 68.1251 33.3318C68.0509 33.2298 68.0138 33.0954 68.0138 32.9286C68.0138 32.7618 68.0416 32.5764 68.0972 32.3725L69.0988 28.3164C69.1365 28.1635 69.1554 28.0871 69.1367 28.0269C69.1202 27.9742 69.0851 27.9293 69.0378 27.9007C68.9839 27.8681 68.9052 27.8681 68.7477 27.8681H67.5728C67.472 27.8681 67.4216 27.8681 67.3795 27.8858C67.3425 27.9013 67.3101 27.9267 67.2861 27.9588C67.2588 27.9954 67.2467 28.0441 67.2225 28.1416C66.9121 29.3929 66.6661 30.5113 66.4846 31.4967C66.3084 32.4606 66.2204 33.2159 66.2204 33.7628C66.2204 34.1984 66.2853 34.4811 66.415 34.6108C66.8043 35.0001 67.4994 35.1947 68.5004 35.1947H71.2947Z" fill="#AFAFB6"/>
  <path d="M82.4017 27.8681C82.6253 27.8681 82.7371 27.8681 82.7979 27.9146C82.8508 27.9551 82.8832 28.0168 82.8863 28.0834C82.89 28.1598 82.8263 28.2518 82.699 28.4356L78.1254 35.039C78.086 35.096 78.0662 35.1245 78.0405 35.1451C78.0178 35.1633 77.9917 35.177 77.9637 35.1853C77.9322 35.1947 77.8975 35.1947 77.8282 35.1947H76.264C76.1559 35.1947 76.1019 35.1947 76.058 35.1752C76.0192 35.1579 75.9861 35.1301 75.9625 35.0949C75.9356 35.055 75.9263 35.0018 75.9078 34.8953L74.755 28.2919C74.7295 28.1462 74.7168 28.0734 74.7376 28.0165C74.7558 27.9667 74.791 27.9248 74.837 27.8983C74.8894 27.8681 74.9633 27.8681 75.1112 27.8681H76.5087C76.6198 27.8681 76.6753 27.8681 76.7201 27.8885C76.7595 27.9065 76.7929 27.9354 76.8163 27.9719C76.8429 28.0132 76.8508 28.0682 76.8666 28.1781L77.5727 33.0815L80.8995 28.0308C80.9387 27.9713 80.9582 27.9416 80.9842 27.92C81.0072 27.901 81.0338 27.8867 81.0624 27.8779C81.0947 27.8681 81.1303 27.8681 81.2015 27.8681H82.4017Z" fill="#AFAFB6"/>
  <path d="M88.741 29.3835C88.843 29.3835 88.894 29.3835 88.9363 29.3655C88.9736 29.3497 89.006 29.3242 89.03 29.2915C89.0573 29.2546 89.0691 29.205 89.0928 29.1058L89.2817 28.3136C89.318 28.1617 89.3361 28.0857 89.3168 28.0256C89.3 27.9732 89.2639 27.9281 89.2166 27.9001C89.1623 27.868 89.0848 27.8688 88.9298 27.8705C87.6096 27.8849 86.5433 27.9629 86.0585 28.1044C85.1039 28.2527 83.9753 28.4844 83.5767 28.7996C82.8074 29.402 82.2699 30.3057 81.964 31.5106C81.8621 32.0018 81.8111 32.4142 81.8111 32.7479C81.8111 33.3503 81.9548 33.8508 82.2421 34.2494C82.7333 34.8796 83.5675 35.1947 84.7445 35.1947H87.2838C87.385 35.1947 87.4355 35.1947 87.4776 35.177C87.5147 35.1614 87.5469 35.1362 87.571 35.1039C87.5983 35.0674 87.6105 35.0183 87.6348 34.9201L87.831 34.1279C87.8689 33.9749 87.8879 33.8984 87.8693 33.8384C87.8529 33.7856 87.8181 33.7409 87.7709 33.7121C87.7172 33.6794 87.638 33.6791 87.4795 33.6784C85.4562 33.6701 84.3453 33.6056 84.1467 33.4847C83.9614 33.3272 83.8687 33.1093 83.8687 32.8313V32.6228C83.8779 32.6042 83.8965 32.5162 83.9243 32.3586V32.3169H88.0055C88.1071 32.3169 88.1578 32.3169 88.2 32.2991C88.2372 32.2834 88.2695 32.258 88.2936 32.2256C88.3209 32.1888 88.3329 32.1395 88.3569 32.0408L88.5563 31.2208C88.5934 31.0683 88.612 30.992 88.5931 30.932C88.5766 30.8794 88.5414 30.8347 88.4942 30.8062C88.4404 30.7737 88.3619 30.7737 88.205 30.7737H84.2997C84.4572 30.1991 84.726 29.8144 85.106 29.6198C85.4119 29.4622 85.866 29.3835 86.4685 29.3835H88.741Z" fill="#AFAFB6"/>
  <path d="M93.8541 35.1947C93.9552 35.1947 94.0057 35.1947 94.0477 35.1771C94.0848 35.1615 94.117 35.1363 94.1411 35.1041C94.1684 35.0676 94.1806 35.0185 94.205 34.9205L96.5135 25.6477C96.5517 25.4947 96.5707 25.4182 96.552 25.3579C96.5357 25.3051 96.5005 25.2601 96.4532 25.2315C96.3992 25.1988 96.3204 25.1988 96.1627 25.1988H94.9063C94.8052 25.1988 94.7546 25.1988 94.7125 25.2165C94.6754 25.2321 94.6432 25.2574 94.6191 25.2896C94.5918 25.3262 94.5796 25.3753 94.5553 25.4735L92.2597 34.7462C92.2219 34.8992 92.2029 34.9756 92.2216 35.0358C92.238 35.0886 92.2732 35.1335 92.3205 35.1621C92.3744 35.1947 92.4532 35.1947 92.6107 35.1947H93.8541Z" fill="#AFAFB6"/>
  <path d="M103.365 27.8705C103.52 27.8688 103.597 27.868 103.652 27.9001C103.699 27.9281 103.735 27.9732 103.752 28.0256C103.771 28.0857 103.753 28.1617 103.717 28.3136L103.528 29.1058C103.504 29.205 103.492 29.2546 103.465 29.2915C103.441 29.3242 103.409 29.3497 103.371 29.3655C103.329 29.3835 103.278 29.3835 103.176 29.3835H100.903C100.301 29.3835 99.8468 29.4622 99.5409 29.6198C99.1609 29.8144 98.8922 30.1991 98.7346 30.7737H102.64C102.797 30.7737 102.875 30.7737 102.929 30.8062C102.976 30.8347 103.012 30.8794 103.028 30.932C103.047 30.992 103.028 31.0683 102.991 31.2208L102.792 32.0408C102.768 32.1395 102.756 32.1888 102.729 32.2256C102.704 32.258 102.672 32.2834 102.635 32.2991C102.593 32.3169 102.542 32.3169 102.44 32.3169H98.3592V32.3586C98.3314 32.5162 98.3129 32.6042 98.3036 32.6228V32.8313C98.3036 33.1093 98.3963 33.3272 98.5817 33.4847C98.7802 33.6056 99.8911 33.6701 101.914 33.6784C102.073 33.6791 102.152 33.6794 102.206 33.7121C102.253 33.7409 102.288 33.7856 102.304 33.8384C102.323 33.8984 102.304 33.9749 102.266 34.1279L102.07 34.9201C102.045 35.0183 102.033 35.0674 102.006 35.1039C101.982 35.1362 101.95 35.1614 101.913 35.177C101.87 35.1947 101.82 35.1947 101.719 35.1947H99.1795C98.0024 35.1947 97.1682 34.8796 96.677 34.2494C96.3897 33.8508 96.246 33.3503 96.246 32.7479C96.246 32.4142 96.297 32.0018 96.399 31.5106C96.7048 30.3057 97.2424 29.402 98.0117 28.7996C98.4102 28.4844 99.0868 28.2527 100.041 28.1044C100.932 27.9629 102.04 27.8849 103.365 27.8705Z" fill="#AFAFB6"/>
  <path d="M110.691 29.3835C110.792 29.3835 110.842 29.3835 110.884 29.3658C110.922 29.3501 110.954 29.3249 110.978 29.2926C111.005 29.2561 111.017 29.207 111.042 29.1088L111.238 28.3166C111.276 28.1637 111.295 28.0873 111.276 28.027C111.259 27.9742 111.224 27.929 111.176 27.9006C111.122 27.868 111.043 27.8684 110.886 27.8692C107.584 27.8851 105.671 28.0748 105.148 28.4381C104.611 28.8088 104.277 29.2583 104.147 29.7866C104.064 30.111 104.013 30.3474 103.995 30.4957C103.967 30.6903 103.953 30.8618 103.953 31.0101V31.1213C103.953 31.2881 103.985 31.4318 104.05 31.5523C104.106 31.682 104.185 31.7886 104.286 31.872C104.472 32.0296 104.806 32.1362 105.287 32.1918L105.663 32.2474H106.539L107.693 32.2335C108.017 32.2335 108.253 32.2798 108.402 32.3725C108.55 32.4652 108.624 32.595 108.624 32.7618L108.596 32.9425C108.531 33.2298 108.392 33.4245 108.179 33.5264C107.948 33.6284 107.683 33.6794 107.387 33.6794H103.596C103.495 33.6794 103.445 33.6794 103.402 33.6971C103.365 33.7127 103.333 33.7379 103.309 33.7702C103.282 33.8067 103.27 33.8558 103.245 33.954L103.049 34.7462C103.011 34.8991 102.992 34.9756 103.011 35.0358C103.027 35.0886 103.062 35.1335 103.11 35.1621C103.164 35.1947 103.242 35.1947 103.4 35.1947H107.901C108.55 35.1947 109.115 34.9445 109.597 34.444C110.061 33.9806 110.348 33.5125 110.459 33.0398C110.543 32.6876 110.584 32.4003 110.584 32.1779L110.557 31.872C110.418 31.2418 109.931 30.871 109.097 30.7598L106.956 30.7181C106.344 30.7181 106.038 30.5652 106.038 30.2593L106.052 30.1342C106.145 29.7635 106.349 29.5318 106.664 29.4391C106.766 29.402 107.062 29.3835 107.554 29.3835H110.691Z" fill="#AFAFB6"/>
</svg>
