<svg width="45" height="48" viewBox="0 0 45 48" fill="none" xmlns="http://www.w3.org/2000/svg">
<path d="M22.9098 30.9787L42.531 19.7872V15.1915L22.9098 26.3829L0.888672 13.8723V12.5106L22.9098 0L39.5836 9.48934V10.5532L38.2362 11.3191L22.9098 2.59574L4.25711 13.1915L22.9098 23.7446L43.7941 11.8723L44.8887 12.5106V21.0638L22.9098 33.5744L3.24656 22.4255V27.0213L22.9098 38.1702L43.8782 26.2553L44.8887 26.8085V35.4893L22.9098 48L0.888672 35.4893V34L1.89922 33.4468L22.9098 45.4043L42.531 34.2128V29.617L22.9098 40.7659L0.888672 28.2554V19.5744L1.89922 19.0213L22.9098 30.9787Z" fill="#AFAFB6"/>
</svg>
