<svg width="175" height="28" viewBox="0 0 175 28" fill="none" xmlns="http://www.w3.org/2000/svg">
  <g clip-path="url(#clip0_82_9775)">
    <path d="M25.4802 20.3594V15.7009L24.9766 15.3862L12.8897 21.9962L1.43242 15.7009V12.994L12.8897 19.2263L25.5431 12.3645V7.76895L25.0395 7.45419L12.8897 14.1271L1.87309 8.08371L12.8897 2.04029L21.766 6.88762L22.4585 6.5099V6.00629L12.8897 0.78125L0.236328 7.64304V8.33552L12.8897 15.2603L24.347 8.96504V11.7349L12.8897 18.0302L0.739946 11.3572L0.236328 11.672V16.3305L12.8897 23.1922L24.347 16.96V19.6669L12.8897 25.9621L0.739946 19.3522L0.236328 19.6669V20.3594L12.8897 27.2212L25.4802 20.3594Z" fill="white"/>
    <path fill-rule="evenodd" clip-rule="evenodd" d="M49.5278 2.16406V23.379H46.1284V21.8052C46.1284 21.6793 46.0654 21.5534 45.9395 21.5534C45.8136 21.4904 45.6877 21.5534 45.6248 21.6163C44.4287 22.9383 42.666 23.7567 40.7145 23.7567C38.7 23.7567 36.8115 22.9383 35.4265 21.5534C34.0416 20.1055 33.2861 18.1539 33.2861 16.0136C33.2861 11.6699 36.5597 8.27043 40.7145 8.27043C42.666 8.27043 44.4916 9.02586 45.6248 10.2849C45.6877 10.3479 45.8136 10.4108 45.9395 10.3479C46.0654 10.2849 46.1284 10.2219 46.1284 10.096V2.16406H49.5278ZM36.6856 16.0136C36.6856 18.7205 38.763 20.7979 41.4699 20.7979C44.1769 20.7979 46.2543 18.7205 46.2543 16.0136C46.2543 13.3066 44.1769 11.2292 41.4699 11.2292C38.8259 11.2292 36.6856 13.3066 36.6856 16.0136Z" fill="white"/>
    <path fill-rule="evenodd" clip-rule="evenodd" d="M67.5322 8.5882V23.382H64.1958V21.8082C64.1958 21.6823 64.1328 21.5564 64.0069 21.5564C63.881 21.4934 63.7551 21.5564 63.6922 21.6193C62.4961 23.0043 60.7334 23.7597 58.7819 23.7597C54.627 23.7597 51.3535 20.3603 51.3535 16.0166C51.3535 11.6729 54.627 8.27344 58.7819 8.27344C60.7964 8.27344 62.559 8.96591 63.6922 10.2879C63.7551 10.3509 63.881 10.4138 64.0069 10.3509C64.1328 10.2879 64.1958 10.225 64.1958 10.0991V8.5882H67.5322ZM54.7529 16.0166C54.7529 18.7235 56.8304 20.8009 59.5373 20.8009C62.2443 20.8009 64.3217 18.7235 64.3217 16.0166C64.3217 13.3096 62.2443 11.2322 59.5373 11.2322C56.8933 11.2322 54.7529 13.3096 54.7529 16.0166Z" fill="white"/>
    <path fill-rule="evenodd" clip-rule="evenodd" d="M96.1748 8.5882V23.382H92.8384V21.8082C92.8384 21.6823 92.7754 21.5564 92.6495 21.5564C92.5236 21.4934 92.3977 21.5564 92.3347 21.6193C91.1386 23.0043 89.376 23.7597 87.4245 23.7597C83.2696 23.7597 79.9961 20.3603 79.9961 16.0166C79.9961 11.6729 83.2696 8.27344 87.4245 8.27344C89.4389 8.27344 91.2016 8.96591 92.3347 10.2879C92.3977 10.3509 92.5236 10.4138 92.6495 10.3509C92.7754 10.2879 92.8384 10.225 92.8384 10.0991V8.5882H96.1748ZM83.3955 16.0166C83.3955 18.7235 85.4729 20.8009 88.1799 20.8009C90.8868 20.8009 92.9643 18.7235 92.9643 16.0166C92.9643 13.3096 90.8868 11.2322 88.1799 11.2322C85.4729 11.2322 83.3955 13.3096 83.3955 16.0166Z" fill="white"/>
    <path fill-rule="evenodd" clip-rule="evenodd" d="M102.471 21.6163C102.408 21.6163 102.408 21.6163 102.345 21.6163C102.219 21.6793 102.156 21.7422 102.156 21.8681V23.379H98.7568V2.16406H102.156V10.159C102.156 10.2849 102.219 10.4108 102.345 10.4108C102.471 10.4738 102.597 10.4108 102.66 10.3479C103.856 9.02586 105.619 8.20748 107.57 8.20748C109.585 8.20748 111.473 9.02586 112.858 10.4108C114.243 11.8587 114.999 13.8102 114.999 15.9506C114.999 20.2943 111.725 23.6937 107.57 23.6937C105.619 23.6937 103.793 22.9383 102.66 21.6793C102.597 21.6793 102.534 21.6163 102.471 21.6163ZM106.815 11.2292C104.108 11.2292 102.03 13.3066 102.03 16.0136C102.03 18.7205 104.108 20.7979 106.815 20.7979C109.522 20.7979 111.599 18.7205 111.599 16.0136C111.599 13.3066 109.459 11.2292 106.815 11.2292Z" fill="white"/>
    <path d="M124.756 11.6099C125.071 11.6099 125.386 11.6099 125.575 11.6729V8.33639C125.449 8.33639 125.26 8.27344 125.008 8.27344C123.245 8.27344 121.609 9.15477 120.79 10.5397C120.727 10.6656 120.601 10.7286 120.476 10.6656C120.35 10.6027 120.287 10.5397 120.287 10.4138V8.5882H116.95V23.382H120.35V16.8979C120.224 13.6244 121.986 11.6099 124.756 11.6099Z" fill="white"/>
    <path d="M131.052 8.58594H127.652V23.3797H131.052V8.58594Z" fill="white"/>
    <path d="M129.352 2.16406C128.219 2.16406 127.274 3.04539 127.274 4.17853C127.274 5.31167 128.219 6.19301 129.352 6.19301C130.485 6.19301 131.429 5.31167 131.429 4.17853C131.429 3.10835 130.485 2.16406 129.352 2.16406Z" fill="white"/>
    <path d="M141.123 8.27344C136.465 8.27344 133.065 11.547 133.065 16.0166C133.065 18.2199 133.884 20.1714 135.332 21.5564C136.78 22.9413 138.857 23.7597 141.123 23.7597C143.012 23.7597 144.523 23.382 147.293 21.4305L145.404 19.4789C144.019 20.3603 142.76 20.8009 141.501 20.8009C138.668 20.8009 136.528 18.7235 136.528 16.0166C136.528 13.3096 138.668 11.2322 141.501 11.2322C142.823 11.2322 144.082 11.6729 145.341 12.5542L147.481 10.6027C144.9 8.46229 142.634 8.27344 141.123 8.27344Z" fill="white"/>
    <path d="M153.148 16.8949C153.211 16.8319 153.274 16.8319 153.337 16.8319C153.4 16.8319 153.463 16.8949 153.526 16.9578L158.94 23.4419H163.094L156.107 15.2581C155.981 15.1322 156.044 15.0063 156.107 14.8804L162.528 8.64814H158.436L152.896 13.9991C152.833 14.062 152.707 14.125 152.581 14.062C152.456 13.9991 152.393 13.9361 152.393 13.8102V2.16406H148.993V23.379H152.393V17.6503C152.393 17.5874 152.456 17.5244 152.456 17.4615L153.148 16.8949Z" fill="white"/>
    <path d="M168.697 23.7597C171.467 23.7597 174.3 22.1229 174.3 19.0383C174.3 17.0238 172.978 15.6389 170.271 14.7575L168.446 14.1909C167.186 13.8132 166.62 13.2467 166.62 12.4283C166.62 11.547 167.438 10.9174 168.634 10.9174C169.768 10.9174 170.775 11.6099 171.404 12.869L174.111 11.484C173.104 9.46953 171.027 8.27344 168.634 8.27344C165.613 8.27344 163.409 10.162 163.409 12.743C163.409 14.8205 164.668 16.2054 167.249 16.9608L169.138 17.5274C170.46 17.9051 171.027 18.4087 171.027 19.2901C171.027 20.5491 169.83 20.9898 168.823 20.9898C167.438 20.9898 166.242 20.1085 165.613 18.7235L162.843 20.1085C163.724 22.3747 165.99 23.7597 168.697 23.7597Z" fill="white"/>
    <path d="M76.9122 23.6328C77.9824 23.6328 78.9267 23.5699 79.4933 23.444V20.6111C79.0526 20.6741 78.2972 20.737 77.7935 20.737C76.4086 20.737 75.4014 20.4852 75.4014 17.6524V11.609C75.4014 11.4831 75.5273 11.3571 75.7161 11.3571H78.9896V8.71315H75.7161C75.5273 8.71315 75.4014 8.58725 75.4014 8.46134V4.05469H72.0649V8.33544C72.0649 8.46134 71.939 8.58725 71.7501 8.58725H69.4209V11.2312H71.7501C71.939 11.2312 72.0649 11.3571 72.0649 11.4831V18.3448C72.0019 23.6328 75.5902 23.6328 76.9122 23.6328Z" fill="white"/>
  </g>
  <defs>
    <clipPath id="clip0_82_9775">
      <rect width="174" height="26.4399" fill="white" transform="translate(0.236328 0.78125)"/>
    </clipPath>
  </defs>
</svg>
