<svg width="76" height="48" viewBox="0 0 76 48" fill="none" xmlns="http://www.w3.org/2000/svg">
  <path d="M32.8137 42.5401V46.7887H33.6198L33.6373 43.2774H34.3909C34.6399 43.2774 34.7945 43.4358 34.7939 43.7164V46.7887H35.6176V43.2774H36.3887C36.6372 43.2774 36.7746 43.4535 36.7742 43.7339V46.7887L37.5804 46.8063L37.5979 43.7339C37.6175 42.8295 37.1612 42.5411 36.5113 42.54L32.8137 42.5401ZM65.5147 42.5927V43.4354H66.3384V42.5927H65.5147ZM22.7019 42.698L22.6844 45.6651C22.6839 45.9751 22.6999 46.0862 22.7545 46.2445C22.7969 46.3598 22.8623 46.4637 22.9473 46.5429C23.1045 46.7009 23.326 46.7705 23.6658 46.7711H24.3843V46.104H23.9287C23.7584 46.104 23.6448 46.0617 23.5782 45.9636C23.5232 45.8843 23.5077 45.7932 23.5081 45.4895V42.698H22.7019ZM59.679 42.7683V43.7339H59.1533V44.401H59.679V45.6827C59.679 46.0075 59.695 46.1306 59.7491 46.2971C59.8506 46.5889 60.0524 46.84 60.6429 46.8414H61.2387V46.1742H60.9233C60.753 46.1742 60.6213 46.1366 60.5552 46.0338C60.5002 45.9511 60.4844 45.8433 60.4851 45.5246V44.401H61.2387V43.7339H60.4851V42.7683H59.679ZM39.7534 43.6461C38.8125 43.6444 38.1959 44.2825 38.1937 45.2262C38.1921 46.2597 38.7526 46.8393 39.7359 46.8414C40.7068 46.8437 41.311 46.2529 41.3131 45.2964C41.3154 44.2633 40.7432 43.6482 39.7534 43.6461ZM26.1543 43.6636C25.7471 43.6636 25.48 43.7395 25.2605 43.8919C24.9025 44.1402 24.6829 44.6429 24.6822 45.191C24.6812 45.759 24.8674 46.2084 25.2255 46.4902C25.4923 46.7081 25.7393 46.7697 26.2069 46.7711H27.4336V46.1215H26.1543C25.7109 46.1215 25.5734 45.9314 25.5059 45.5422L27.3635 45.5597V44.8926H25.5059C25.5752 44.5044 25.7285 44.33 26.1718 44.3307H27.4336V43.6811L26.1543 43.6636ZM29.0809 43.6811C28.5044 43.6799 28.0308 43.9997 28.0294 44.5765C28.0284 45.331 28.5466 45.5415 29.0634 45.5421C29.1595 45.5421 29.6171 45.5595 29.7118 45.5597C29.926 45.5597 30.0978 45.6212 30.0973 45.8406C30.0968 46.0555 29.9188 46.122 29.7118 46.1215C29.6099 46.1215 28.1171 46.1215 28.1171 46.1215V46.7711C28.1171 46.7711 29.5981 46.7882 29.8345 46.7886C30.4459 46.7899 30.8846 46.5108 30.886 45.8054C30.887 45.1771 30.4188 44.9115 29.852 44.91C29.7599 44.91 29.316 44.91 29.2386 44.91C29.1617 44.91 28.8176 44.9117 28.818 44.6116C28.8187 44.3112 29.1694 44.3481 29.2386 44.3482C29.3075 44.3482 30.6932 44.3482 30.6932 44.3482V43.6811L29.0809 43.6811ZM41.8739 43.6987V45.6123C41.8729 46.4002 42.1695 46.7895 42.8378 46.8062C42.8918 46.8062 44.6604 46.8062 44.6604 46.8062V43.6987H43.8542V46.139H43.0831C42.8346 46.139 42.6969 45.9805 42.6976 45.7001V43.6987H41.8739ZM46.185 43.7162C45.7099 43.7861 45.3444 44.1068 45.3438 44.6116C45.3421 45.366 45.8787 45.5765 46.3953 45.5772C46.4914 45.5772 46.9313 45.5772 47.0262 45.5772C47.2398 45.5772 47.4122 45.6563 47.4117 45.8757C47.4112 46.0908 47.2331 46.1569 47.0262 46.1566C46.9243 46.1566 45.4314 46.1566 45.4314 46.1566V46.8062C45.4314 46.8062 46.9299 46.8235 47.1664 46.8237C47.7774 46.825 48.2165 46.5456 48.2179 45.8405C48.2189 45.2122 47.7331 44.9465 47.1664 44.9451C47.0738 44.9451 46.6299 44.9451 46.553 44.9451C46.4762 44.9451 46.1317 44.9468 46.1324 44.6467C46.1329 44.346 46.4837 44.3656 46.553 44.3658C46.6223 44.3658 48.0076 44.3833 48.0076 44.3833V43.7161H46.3953C46.3233 43.7161 46.2529 43.7063 46.185 43.7162ZM50.2507 43.7162C49.6982 43.7162 49.4837 43.769 49.2343 43.9796C48.8883 44.2589 48.6917 44.7403 48.691 45.3139C48.6888 46.2383 49.2363 46.8216 50.1105 46.8237H50.8991L50.8816 48H51.7053V43.7162H50.2507ZM52.4939 43.7162V45.6299C52.4922 46.4179 52.7895 46.8069 53.4577 46.8237C53.5128 46.8237 55.2628 46.8237 55.2628 46.8237L55.2803 43.7338H54.4566V46.1741H53.6855C53.4361 46.1741 53.2994 45.9984 53.3 45.7177V43.7162H52.4939ZM57.3658 43.7337C56.959 43.7325 56.6906 43.7915 56.472 43.9444C56.1127 44.1923 55.8769 44.6952 55.8762 45.2436C55.8751 45.8114 56.0623 46.2612 56.4194 46.5428C56.6862 46.7608 56.9332 46.8405 57.4008 46.8412H58.6275V46.1741H57.3658C56.9227 46.1728 56.7673 46.0019 56.6998 45.6123H58.5574V44.9451H56.6998C56.7686 44.5566 56.9223 44.4002 57.3658 44.4009H58.6451V43.7337H57.3658ZM62.0098 43.7337V44.4009H63.2891C63.7567 44.4009 63.903 44.5275 63.9025 44.91V44.9627H63.0087C62.5407 44.9614 62.3082 45.0169 62.15 45.1382C61.9314 45.3036 61.7999 45.6033 61.7995 45.9283C61.7985 46.3495 62.0264 46.6987 62.3603 46.7885C62.5239 46.834 62.6412 46.8405 63.0963 46.8412L64.7086 46.8587V45.1031C64.7331 44.3245 64.4611 43.7664 63.6221 43.7512C63.5372 43.7512 63.4281 43.7512 63.2891 43.7512L62.0098 43.7337ZM65.5147 43.7513V46.8588H66.3209V43.7513H65.5147ZM68.2311 43.7513C67.8363 43.7569 67.5848 43.8732 67.3899 44.1024C67.3054 44.2108 67.2395 44.3241 67.1971 44.4711C67.1416 44.6558 67.1274 44.765 67.127 45.1031V46.8588H67.9331L67.9506 44.9276C67.9516 44.5452 68.0964 44.417 68.564 44.4184H69.0897V43.7513H68.564C68.4241 43.7513 68.3164 43.7513 68.2311 43.7513ZM70.7371 43.7513C70.3304 43.7513 70.0619 43.8268 69.8433 43.9795C69.4843 44.2276 69.2489 44.7303 69.2475 45.2787C69.247 45.8465 69.4335 46.2788 69.7907 46.5603C70.0575 46.7781 70.3046 46.8581 70.7721 46.8588H71.9989V46.2092L70.7371 46.1916C70.2942 46.1904 70.1391 46.0192 70.0711 45.6298L71.9288 45.6474V44.9802H70.0711C70.1401 44.5919 70.2937 44.4177 70.7371 44.4184H72.0164V43.7513H70.7371ZM73.6462 43.7688C73.0695 43.7675 72.5954 44.0876 72.5947 44.6642C72.5937 45.4189 73.1119 45.6284 73.6287 45.6298C73.7243 45.6298 74.1824 45.6472 74.2771 45.6473C74.4911 45.6473 74.663 45.7088 74.6626 45.9282C74.6616 46.1435 74.4845 46.2095 74.2771 46.2091C74.1752 46.2091 72.6823 46.2091 72.6823 46.2091V46.8587C72.6823 46.8587 74.1812 46.8756 74.4173 46.8762C75.0287 46.8775 75.4673 46.5984 75.4688 45.8931C75.4698 45.2645 74.9836 44.9991 74.4173 44.9977C74.3252 44.9977 73.8813 44.9977 73.8039 44.9977C73.7266 44.9977 73.3826 45 73.3833 44.6992C73.3838 44.3989 73.7343 44.4183 73.8039 44.4183C73.8728 44.4183 75.2584 44.4359 75.2584 44.4359V43.7687L73.6462 43.7688ZM39.7534 44.2955C40.2397 44.2968 40.4909 44.618 40.4895 45.2435C40.4885 45.8746 40.2506 46.1923 39.771 46.1916C39.2792 46.1916 39.0103 45.8669 39.0174 45.2611C39.0255 44.6172 39.2626 44.2948 39.7534 44.2955ZM50.3033 44.3833H50.8991V46.1565H50.3384C49.8105 46.1552 49.5315 45.8413 49.5322 45.2611C49.5332 44.6874 49.7996 44.3819 50.3033 44.3833ZM62.9211 45.6298H63.9025V46.1916H63.0613C62.7399 46.1916 62.6232 46.1146 62.6232 45.9107C62.6237 45.7322 62.7333 45.6294 62.9211 45.6298Z" fill="white"/>
  <path d="M57.1837 0.305718C59.8392 1.14899 60.1811 3.06041 56.9762 5.47535C59.0511 3.81548 54.7275 1.12434 46.4751 1.02638C49.2174 0.422717 54.7189 -0.478148 57.1837 0.305718Z" fill="white"/>
  <path d="M57.9079 8.26545C51.0533 10.1807 40.2598 9.13077 35.5129 6.89161C33.1428 5.77487 32.007 4.09928 33.3798 0.445333C32.7745 4.69859 51.6532 7.56817 57.9079 8.26545Z" fill="white"/>
  <path d="M15.4907 11.6008C15.5886 13.3 15.8076 14.3217 16.0579 15.0344C22.8137 16.5873 34.271 18.2164 44.5088 17.82C54.7458 17.4236 63.8189 16.5149 75.3177 12.9939C52.1314 16.1869 25.3455 13.2987 15.7995 8.13866C15.5962 8.84661 15.4035 10.0912 15.4907 11.6008Z" fill="white"/>
  <path d="M42.9793 21.6572C49.5941 21.6702 51.1706 25.5902 51.1274 29.4284C51.1231 32.2849 50.1654 35.1207 49.7443 36.2301C49.6256 36.5485 49.5496 36.7273 49.5496 36.7273C49.5496 36.7273 49.5526 36.7192 49.5582 36.7034C49.5615 36.6944 49.5656 36.6829 49.5704 36.6689C49.5568 36.7015 49.5495 36.7184 49.5495 36.7184L41.0675 36.7009C41.0675 36.7009 49.0423 23.4591 41.5758 23.4457C39.5323 23.4417 37.2762 24.3942 34.9156 25.9914L34.8606 26.0314C28.6076 30.2853 21.7056 39.0689 16.5778 46.758L0.46875 46.7266C0.46875 46.7266 23.6537 21.6193 42.9793 21.6572Z" fill="white"/>
</svg>
