<svg width="164" height="48" viewBox="0 0 164 48" fill="none" xmlns="http://www.w3.org/2000/svg">
  <path d="M84.0778 1.38662C84.0778 0.580298 84.7272 0 85.6381 0C86.5493 0 87.1994 0.580298 87.1994 1.38662C87.1994 2.19295 86.5493 2.77325 85.6381 2.77325C84.7272 2.77325 84.0778 2.19295 84.0778 1.38662Z" fill="white"/>
  <path d="M84.2406 3.77355H87.0365V11.8352H84.2406V3.77355Z" fill="white"/>
  <path fill-rule="evenodd" clip-rule="evenodd" d="M78.1768 3.57897C76.5189 3.57897 74.8611 5.15926 74.8608 7.8022C74.8611 10.4131 76.1616 12.0254 78.1768 12.0254C78.8917 12.0254 79.672 11.639 80.2242 11.0908H80.2896L80.4843 11.833H82.7598V0.611752H79.9641V3.2247L80.0614 4.38529C79.5747 3.90118 79.0545 3.57897 78.1768 3.57897ZM79.9641 6.22237V9.18955C79.6704 9.64005 79.3465 9.7699 78.9236 9.7699C78.1752 9.7699 77.7204 9.18955 77.7204 7.7709C77.7204 6.35222 78.2726 5.83604 78.8582 5.83604C79.2173 5.83604 79.6385 5.93222 79.9641 6.22237Z" fill="white"/>
  <path d="M46.6091 46.1806V3.04455H46.6108C46.6108 2.04106 45.8001 1.2235 44.7995 1.2235H1.81439C0.813841 1.2235 0 2.03945 0 3.04455V5.08201C0 5.73925 0.352665 6.3452 0.92235 6.66741C3.36895 8.04534 6.09009 9.70666 8.97971 11.6961H33.686C33.686 11.6961 35.8052 12.0664 36.2185 13.5749C36.6318 15.0833 36.2185 39.0118 36.2185 39.0118L36.1962 38.98C38.1694 41.8605 39.8294 44.5895 41.2187 47.0703C41.5394 47.6458 42.1426 48 42.7969 48H44.7979C45.7985 48 46.6091 47.1857 46.6091 46.1806Z" fill="white"/>
  <path d="M34.9257 46.6328V14.3093C34.9257 13.5575 34.3193 12.9483 33.5677 12.9483H1.35879C0.610373 12.9483 0.000789651 13.5575 0.000789651 14.3093V15.8386C0.000789651 16.3307 0.265687 16.7844 0.693353 17.0264C3.73698 18.742 7.34955 21.0436 11.1654 24.0847C10.9604 23.9167 10.7523 23.7469 10.5409 23.575H23.0167C23.0167 23.575 24.0858 23.7626 24.2949 24.524C24.5039 25.2854 24.2949 37.3675 24.2949 37.3675C23.9503 36.9097 23.6098 36.4663 23.2712 36.035V25.5541C23.2712 25.0524 22.8658 24.6452 22.3664 24.6452H0.906536C0.407062 24.6452 0.00173723 25.0524 0.00173723 25.5541V26.572C0.00173723 26.9006 0.177271 27.2036 0.461318 27.364C3.82998 29.262 8.24228 32.2355 12.586 36.7545C16.3009 40.6194 18.8557 44.4603 20.5791 47.5349C20.7403 47.8202 21.0403 47.9982 21.3674 47.9982H22.3664C22.8658 47.9982 23.2712 47.591 23.2712 47.0893V36.0819C26.5634 40.1368 29.0423 44.0112 30.8853 47.3014C31.1246 47.731 31.5778 47.9971 32.0693 47.9971H33.5677C34.3193 47.9971 34.9257 47.3879 34.9257 46.6328Z" fill="white"/>
  <path fill-rule="evenodd" clip-rule="evenodd" d="M51.6008 1.3555H55.4689C57.7765 1.3555 59.7599 2.19389 59.7599 4.83729C59.7599 7.48069 57.7446 8.51304 55.5344 8.51304H54.3966V11.8346H51.6008V1.3555ZM55.4036 6.3217C56.5094 6.3217 57.028 5.77346 57.028 4.8389C57.028 3.90432 56.4105 3.54845 55.3381 3.54845H54.395V6.3217H55.4036Z" fill="white"/>
  <path d="M63.1267 3.77056H60.8511V11.8322H63.6469V7.35014C64.0362 6.34984 64.7511 5.99557 65.3368 5.99557C65.6686 5.99557 65.9159 6.05033 66.182 6.10924L66.248 6.12381L66.7028 3.7369C66.4745 3.64071 66.1985 3.57659 65.6943 3.57659C64.898 3.57659 63.9883 4.06071 63.3867 5.15718H63.3214L63.1267 3.77056Z" fill="white"/>
  <path fill-rule="evenodd" clip-rule="evenodd" d="M66.6519 7.80312C66.6519 5.19178 68.5701 3.57913 70.552 3.57913C72.9568 3.57913 74.0962 5.32003 74.0962 7.48092C74.0962 7.96503 74.0308 8.44915 73.9829 8.64149H69.3503C69.6105 9.60977 70.3254 9.93032 71.2349 9.93032C71.7872 9.93032 72.3074 9.77005 72.893 9.44623L73.8026 11.0909C72.9249 11.7033 71.7552 12.0255 70.844 12.0255C68.4711 12.0255 66.6503 10.477 66.6503 7.80152L66.6519 7.80312ZM71.7232 6.83489C71.7232 6.22254 71.4632 5.6743 70.6174 5.6743C69.9998 5.6743 69.4796 6.02856 69.3169 6.83489H71.7232Z" fill="white"/>
  <path d="M92.4487 3.57913C90.1399 3.57913 88.0922 5.12605 88.0922 7.80312L88.0905 7.79991C88.0905 10.4754 89.8779 12.0239 92.1868 12.0239C93.0323 12.0239 94.0732 11.7995 94.8855 11.0893L93.813 9.28432C93.4222 9.57445 92.9675 9.80047 92.5127 9.80047C91.6347 9.80047 90.9513 9.02625 90.9513 7.80152C90.9513 6.5768 91.569 5.80254 92.61 5.80254C92.9035 5.80254 93.1637 5.90032 93.5212 6.19047L94.8215 4.41752C94.2038 3.90134 93.4239 3.57913 92.4487 3.57913Z" fill="white"/>
  <path d="M95.9754 8.73924V5.93393H94.9029V3.87083L96.1384 3.77464L96.4635 1.67788H98.7714V3.77464H100.624V5.93553H98.7714V8.69279C98.7714 9.57921 99.2262 9.86934 99.7467 9.86934C100.006 9.86934 100.266 9.80523 100.462 9.73949L100.884 11.7385C100.462 11.8684 99.8593 12.0287 98.966 12.0287C96.8534 12.0287 95.9754 10.7061 95.9754 8.73924Z" fill="white"/>
  <path d="M103.112 0C102.201 0 101.552 0.580298 101.552 1.38662C101.552 2.19295 102.201 2.77325 103.112 2.77325C104.024 2.77325 104.673 2.19295 104.673 1.38662C104.673 0.580298 104.024 0 103.112 0Z" fill="white"/>
  <path d="M104.51 3.77355H101.715V11.8352H104.51V3.77355Z" fill="white"/>
  <path d="M105.241 3.77205H108.037L108.914 7.2875C109.11 8.09383 109.304 8.9322 109.501 9.80267H109.566C109.761 8.9322 109.955 8.09383 110.15 7.2875L111.028 3.77205H113.693L111.125 11.8337H107.908L105.241 3.77205Z" fill="white"/>
  <path fill-rule="evenodd" clip-rule="evenodd" d="M117.742 3.57913C115.758 3.57913 113.841 5.19146 113.84 7.80234C113.841 10.4773 115.661 12.0255 118.034 12.0255C118.943 12.0255 120.115 11.7033 120.993 11.0909L120.081 9.44623C119.495 9.77005 118.976 9.93032 118.423 9.93032C117.513 9.93032 116.799 9.60977 116.539 8.64149H121.171C121.219 8.44915 121.285 7.96503 121.285 7.48092C121.285 5.32003 120.146 3.57913 117.742 3.57913ZM117.806 5.6743C118.652 5.6743 118.912 6.22254 118.912 6.83489H116.505C116.668 6.02856 117.188 5.6743 117.806 5.6743Z" fill="white"/>
  <path d="M125.478 1.3555H128.274V9.51335H132.273V11.8346H125.478V1.3555Z" fill="white"/>
  <path fill-rule="evenodd" clip-rule="evenodd" d="M137.554 6.61046C134.434 6.93268 133.133 7.86724 133.133 9.54403H133.131C133.131 10.8665 134.042 12.0272 135.569 12.0272C136.446 12.0272 137.163 11.6391 137.812 11.0589H137.878L138.072 11.8332H140.348V7.35106C140.348 4.70767 139.081 3.57913 136.968 3.57913C135.7 3.57913 134.53 3.96546 133.392 4.64355L134.367 6.44856C135.212 5.99811 135.83 5.77208 136.416 5.77208C137.131 5.77208 137.489 6.03017 137.554 6.61046ZM137.554 8.25357V9.35006C137.262 9.67225 137.002 9.89827 136.547 9.89827C136.059 9.89827 135.799 9.68828 135.799 9.31801C135.799 8.86597 136.221 8.44754 137.554 8.25357Z" fill="white"/>
  <path d="M141.733 14.7031L142.221 12.608C142.256 12.6156 142.294 12.6251 142.335 12.635C142.465 12.6669 142.617 12.7042 142.741 12.7042C143.488 12.7042 143.847 12.382 144.008 11.8978L144.106 11.5435L141.018 3.77205H143.813L144.788 6.8675C144.966 7.44347 145.102 8.01847 145.247 8.62399C145.288 8.79865 145.33 8.97618 145.374 9.15667H145.439C145.602 8.38237 145.765 7.64177 145.96 6.8675L146.772 3.77205H149.438L146.708 11.7038C145.864 13.8808 144.984 14.8635 142.969 14.8635C142.417 14.8635 142.091 14.7994 141.734 14.7016L141.733 14.7031Z" fill="white"/>
  <path fill-rule="evenodd" clip-rule="evenodd" d="M153.485 3.57913C151.501 3.57913 149.584 5.19146 149.583 7.80234C149.584 10.4773 151.404 12.0255 153.777 12.0255C154.687 12.0255 155.858 11.7033 156.736 11.0909L155.825 9.44623C155.239 9.77005 154.719 9.93032 154.167 9.93032C153.257 9.93032 152.542 9.60977 152.282 8.64149H156.914C156.963 8.44915 157.028 7.96503 157.028 7.48092C157.028 5.32003 155.89 3.57913 153.485 3.57913ZM153.549 5.6743C154.395 5.6743 154.655 6.22254 154.655 6.83489H152.249C152.412 6.02856 152.931 5.6743 153.549 5.6743Z" fill="white"/>
  <path d="M158.149 3.77056H160.424L160.619 5.15718H160.684C161.286 4.06071 162.195 3.57659 162.991 3.57659C163.496 3.57659 163.772 3.64071 164 3.7369L163.545 6.12381L163.476 6.10862C163.21 6.04995 162.963 5.99557 162.635 5.99557C162.049 5.99557 161.334 6.34984 160.945 7.35014V11.8322H158.149V3.77056Z" fill="white"/>
  <path d="M52.7019 20.2313L51.7906 20.9397H51.7891C52.3811 21.7445 53.163 22.0667 53.9513 22.0667C55.3428 22.0667 56.2428 21.2075 56.2428 20.1158C56.2428 19.4217 55.9828 19.0353 55.3987 18.6891L54.7987 18.3268L54.7007 18.2668C54.286 18.0131 54.0423 17.864 54.0423 17.5766C54.0423 17.2335 54.3136 16.9306 54.8131 16.9306C55.2519 16.9306 55.5934 17.171 55.9014 17.4932L56.7025 16.7511C56.2413 16.1948 55.5822 15.8421 54.8689 15.8421C53.6785 15.8421 52.7386 16.6741 52.7386 17.7048C52.7386 18.4342 53.096 18.8655 53.6433 19.2053L54.2381 19.568C54.6549 19.8217 54.9231 19.9849 54.9231 20.2969C54.9231 20.7297 54.5737 20.9926 54.0503 20.9926C53.5269 20.9926 53.0306 20.6913 52.7019 20.2313Z" fill="white"/>
  <path d="M59.2305 15.5019L58.8778 17.182L58.6752 17.9241H58.7119C59.1236 17.5635 59.6087 17.2733 60.164 17.2733C60.9252 17.2733 61.254 17.6853 61.254 18.4483C61.254 18.6535 61.2348 18.8715 61.179 19.0991L60.6029 21.9558H59.3327L59.8784 19.2579L59.8971 19.1721C59.9282 19.0306 59.9518 18.9237 59.9518 18.8202C59.9518 18.5077 59.7874 18.3489 59.4827 18.3489C59.197 18.3489 58.9146 18.5381 58.514 18.9453L57.922 21.9558H56.6518L57.9587 15.5019H59.2305Z" fill="white"/>
  <path fill-rule="evenodd" clip-rule="evenodd" d="M64.2033 17.2763C62.9314 17.2763 61.7426 18.6517 61.7426 20.3926C61.7426 21.4699 62.2326 22.0678 63.0432 22.0678C63.522 22.0678 64.0677 21.7937 64.4858 21.3608H64.5081L64.4889 21.9571H65.523L66.4454 17.3869H65.4257L65.2278 17.8775H65.2055C65.0252 17.5104 64.6198 17.2763 64.2033 17.2763ZM64.9118 18.743L64.5815 20.3638V20.3621C64.2847 20.8831 63.9033 21.0386 63.597 21.0386C63.2682 21.0386 63.0592 20.7902 63.0592 20.2306C63.0592 19.1406 63.6528 18.3054 64.2927 18.3054C64.5081 18.3054 64.7586 18.4385 64.9118 18.743Z" fill="white"/>
  <path fill-rule="evenodd" clip-rule="evenodd" d="M67.7367 22.4204L67.4973 23.6532H66.2271L67.4973 17.3869H68.5314L68.5425 17.9095H68.5648C68.9861 17.5376 69.4984 17.2763 69.9771 17.2763C70.7878 17.2763 71.2776 17.8758 71.2776 18.9515C71.2776 20.6924 70.0888 22.0678 68.8169 22.0678C68.4308 22.0678 68.0829 21.861 67.8851 21.5275H67.8659L67.7382 22.4188L67.7367 22.4204ZM68.4707 18.8825L68.1228 20.6074C68.2617 20.9088 68.4947 21.0386 68.7276 21.0386C69.3675 21.0386 69.9611 20.2034 69.9611 19.1134C69.9611 18.5555 69.7505 18.3054 69.4218 18.3054C69.1314 18.3054 68.75 18.4609 68.4707 18.8825Z" fill="white"/>
  <path fill-rule="evenodd" clip-rule="evenodd" d="M75.7723 18.9915C75.7723 18.0425 75.3702 17.2763 74.2691 17.2763V17.2779C73.0436 17.2779 71.7079 18.4209 71.7079 20.112C71.7079 21.3367 72.4802 22.0694 73.5941 22.0694C74.3074 22.0694 74.8787 21.8482 75.2473 21.59L74.7957 20.795C74.5675 20.9584 74.2356 21.1155 73.95 21.1155C73.342 21.1155 72.8792 20.7917 72.9111 20.0319H75.5377C75.6096 19.8941 75.7723 19.4227 75.7723 18.9915ZM74.7302 18.921C74.7302 19.0477 74.7128 19.1678 74.6904 19.2608H73.0132C73.2239 18.5907 73.6755 18.2446 74.1127 18.2446C74.5739 18.2446 74.7302 18.5523 74.7302 18.921Z" fill="white"/>
  <path d="M77.2843 23.559C77.4679 23.6631 77.7691 23.743 77.938 23.743C78.8891 23.743 79.4828 23.1547 80.1194 22.055L82.6073 17.3854H81.3801L80.413 19.4469C80.2967 19.6958 80.1697 19.9848 80.0457 20.267L80.045 20.2687C79.9602 20.4616 79.8763 20.6524 79.7987 20.8239H79.762C79.7524 20.3879 79.7253 19.8476 79.6806 19.4469L79.4604 17.3854H78.1982L79.0024 21.8578L78.8891 22.0807C78.6832 22.4863 78.345 22.7443 78.0178 22.7443C77.8918 22.7443 77.7673 22.7106 77.6716 22.6561L77.2843 23.559Z" fill="white"/>
  <path fill-rule="evenodd" clip-rule="evenodd" d="M84.8816 17.2763C83.6129 17.2763 82.2997 18.4225 82.2997 20.1842H82.298C82.298 21.3207 83.0113 22.0678 84.0869 22.0678C85.3568 22.0678 86.6708 20.9216 86.6708 19.1599C86.6708 18.0249 85.9575 17.2763 84.8816 17.2763ZM84.7412 18.291C85.1688 18.291 85.3859 18.6277 85.3859 19.1855C85.3859 20.2516 84.8513 21.0547 84.2305 21.0547C83.8029 21.0547 83.5858 20.718 83.5858 20.1601C83.5858 19.0941 84.1204 18.291 84.7412 18.291Z" fill="white"/>
  <path d="M90.8431 21.9556H89.809L89.8287 21.34H89.792C89.3722 21.7281 88.8406 22.0663 88.2852 22.0663C87.5241 22.0663 87.1956 21.6543 87.1956 20.8913C87.1956 20.6861 87.2212 20.468 87.269 20.2404L87.8449 17.3854H89.1154L88.5693 20.0833L88.5512 20.1658C88.5197 20.3089 88.4959 20.4166 88.4959 20.5209C88.4959 20.8335 88.6623 20.9922 88.9652 20.9922C89.2365 20.9922 89.5189 20.8031 89.8875 20.3959L90.4797 17.3854H91.7501L90.8431 21.9556Z" fill="white"/>
  <path d="M93.8336 17.3869H92.7995V17.3885L91.8917 21.9587H93.1621L93.6792 19.3105C94.0426 18.6677 94.4223 18.3855 94.8293 18.3855C94.9812 18.3855 95.1646 18.392 95.2858 18.4593L95.7039 17.366C95.6023 17.31 95.4547 17.2763 95.2218 17.2763C94.692 17.2763 94.1689 17.6995 93.8131 18.2766H93.7764L93.8336 17.3869Z" fill="white"/>
  <path d="M97.5544 17.4408L98.1636 17.3896L98.2182 17.0882C98.4051 16.1472 98.9426 15.3953 99.9972 15.3953C100.356 15.3953 100.695 15.4868 100.984 15.6438L100.578 16.5303C100.475 16.4678 100.296 16.394 100.131 16.394C99.7898 16.394 99.5842 16.5399 99.4887 17.0433L99.4179 17.3896H100.222L100.03 18.3722H99.2088L98.4955 21.9598H97.2259L97.9546 18.3722H97.3624L97.5527 17.4408H97.5544Z" fill="white"/>
  <path d="M102.758 21.9556H103.792L104.698 17.3854H103.428L102.836 20.3959C102.467 20.8031 102.185 20.9922 101.913 20.9922C101.611 20.9922 101.445 20.8335 101.445 20.5209C101.445 20.4166 101.469 20.3089 101.5 20.1658L101.518 20.0833L102.064 17.3854H100.793L100.217 20.2404C100.169 20.468 100.144 20.6861 100.144 20.8913C100.144 21.6543 100.473 22.0663 101.234 22.0663C101.79 22.0663 102.32 21.7281 102.74 21.34H102.777L102.758 21.9556Z" fill="white"/>
  <path d="M105.288 20.8579C105.288 20.6624 105.321 20.4749 105.355 20.2825L105.757 18.3684H105.143L105.332 17.437L106.012 17.3857L106.402 16.1899H107.466L107.237 17.3857H108.279L108.086 18.3684H107.013L106.611 20.3305C106.592 20.4411 106.588 20.5373 106.588 20.6351C106.588 20.9381 106.737 21.0823 107.07 21.0823C107.202 21.0823 107.326 21.0359 107.444 20.9781L107.675 21.8646C107.431 21.956 107.067 22.0665 106.593 22.0665C105.664 22.0665 105.288 21.5584 105.288 20.8579Z" fill="white"/>
  <path d="M110.858 21.9556H111.892L112.799 17.3854H111.528L110.936 20.3959C110.568 20.8031 110.285 20.9922 110.014 20.9922C109.711 20.9922 109.545 20.8335 109.545 20.5209C109.545 20.4166 109.568 20.3089 109.6 20.1658L109.618 20.0833L110.164 17.3854H108.894L108.318 20.2404C108.27 20.468 108.244 20.6861 108.244 20.8913C108.244 21.6543 108.573 22.0663 109.334 22.0663C109.889 22.0663 110.421 21.7281 110.841 21.34H110.877L110.858 21.9556Z" fill="white"/>
  <path d="M113.848 17.3869H114.882L114.825 18.2766H114.862C115.218 17.6995 115.741 17.2763 116.27 17.2763C116.505 17.2763 116.651 17.31 116.752 17.366L116.334 18.4593C116.215 18.392 116.03 18.3855 115.878 18.3855C115.471 18.3855 115.091 18.6677 114.729 19.3105L114.211 21.9587H112.94L113.846 17.3885L113.848 17.3869Z" fill="white"/>
  <path fill-rule="evenodd" clip-rule="evenodd" d="M120.478 18.9915C120.478 18.0425 120.075 17.2763 118.974 17.2763V17.2779C117.748 17.2779 116.413 18.4209 116.413 20.112C116.413 21.3367 117.185 22.0694 118.299 22.0694C119.013 22.0694 119.584 21.8482 119.952 21.59L119.501 20.795C119.272 20.9584 118.94 21.1155 118.655 21.1155C118.047 21.1155 117.584 20.7917 117.616 20.0319H120.243C120.315 19.8941 120.478 19.4227 120.478 18.9915ZM119.435 18.921C119.435 19.0477 119.418 19.1678 119.395 19.2608H117.718C117.929 18.5907 118.381 18.2446 118.817 18.2446C119.279 18.2446 119.435 18.5523 119.435 18.921Z" fill="white"/>
</svg>
