<svg width="215" height="46" viewBox="0 0 215 46" fill="none" xmlns="http://www.w3.org/2000/svg">
  <path d="M63.8165 18.1768C63.7398 18.3072 63.6593 18.403 63.575 18.4643C63.4906 18.5257 63.3833 18.5563 63.253 18.5563C63.115 18.5563 62.9578 18.495 62.7814 18.3723C62.6051 18.242 62.3828 18.1002 62.1144 17.9468C61.8538 17.7858 61.5394 17.644 61.1714 17.5213C60.8034 17.391 60.3626 17.3258 59.8489 17.3258C59.3659 17.3258 58.9404 17.391 58.5724 17.5213C58.2121 17.644 57.9092 17.8165 57.6639 18.0388C57.4185 18.2535 57.2307 18.5103 57.1004 18.8093C56.9777 19.1007 56.9164 19.4188 56.9164 19.7638C56.9164 20.2085 57.0275 20.5765 57.2499 20.8679C57.4799 21.1592 57.7789 21.4084 58.1469 21.6154C58.5149 21.8224 58.9327 22.0025 59.4004 22.1559C59.8681 22.3092 60.3472 22.4702 60.8379 22.6389C61.3286 22.7999 61.8078 22.9877 62.2754 23.2024C62.7431 23.4171 63.161 23.6892 63.529 24.0189C63.897 24.3409 64.1921 24.7396 64.4145 25.2149C64.6445 25.6826 64.7595 26.2576 64.7595 26.9399C64.7595 27.6683 64.633 28.3506 64.38 28.987C64.1346 29.6233 63.7743 30.1791 63.299 30.6545C62.8236 31.1298 62.2371 31.5055 61.5394 31.7815C60.8494 32.0498 60.0636 32.184 59.1819 32.184C58.6529 32.184 58.1392 32.1303 57.6409 32.023C57.1425 31.9233 56.671 31.7815 56.2264 31.5975C55.7817 31.4058 55.3639 31.1797 54.9728 30.919C54.5895 30.6506 54.2445 30.3516 53.9378 30.022L54.6393 28.849C54.7083 28.757 54.7888 28.6803 54.8808 28.619C54.9805 28.5576 55.0917 28.527 55.2144 28.527C55.3754 28.527 55.5594 28.6113 55.7664 28.78C55.981 28.9486 56.2417 29.1365 56.5484 29.3435C56.8627 29.5428 57.2345 29.7268 57.6639 29.8955C58.1009 30.0641 58.6299 30.1485 59.2509 30.1485C59.7569 30.1485 60.2092 30.0833 60.6079 29.953C61.0066 29.815 61.3401 29.6233 61.6084 29.378C61.8844 29.125 62.0953 28.8221 62.2409 28.4695C62.3866 28.1168 62.4594 27.7258 62.4594 27.2964C62.4594 26.8134 62.3483 26.4186 62.1259 26.1119C61.9036 25.8053 61.6084 25.5484 61.2404 25.3414C60.8724 25.1344 60.4546 24.9581 59.9869 24.8124C59.5192 24.6667 59.0401 24.5172 58.5494 24.3639C58.0587 24.2029 57.5795 24.0189 57.1119 23.8119C56.6442 23.6049 56.2264 23.3366 55.8584 23.0069C55.4904 22.6696 55.1952 22.2517 54.9728 21.7534C54.7505 21.2474 54.6393 20.6264 54.6393 19.8903C54.6393 19.3 54.7543 18.7288 54.9843 18.1768C55.2144 17.6248 55.5479 17.138 55.9849 16.7163C56.4295 16.287 56.9739 15.9458 57.6179 15.6928C58.2619 15.4321 58.9979 15.3018 59.8259 15.3018C60.7536 15.3018 61.6046 15.4513 62.3789 15.7503C63.161 16.0416 63.8395 16.4633 64.4145 17.0153L63.8165 18.1768ZM74.6828 30.0335C75.3422 30.0335 75.9325 29.9223 76.4539 29.7C76.9752 29.4776 77.416 29.1671 77.7764 28.7685C78.1367 28.3621 78.4127 27.8829 78.6044 27.3309C78.7961 26.7713 78.8919 26.1541 78.8919 25.4794V15.4858H81.3299V25.4794C81.3299 26.4454 81.1766 27.3386 80.8699 28.159C80.5632 28.9793 80.1224 29.6885 79.5474 30.2865C78.9724 30.8845 78.2747 31.3522 77.4544 31.6895C76.634 32.0268 75.7102 32.1955 74.6828 32.1955C73.6555 32.1955 72.7316 32.0268 71.9113 31.6895C71.091 31.3522 70.3933 30.8845 69.8183 30.2865C69.2433 29.6885 68.8024 28.9793 68.4958 28.159C68.1891 27.3386 68.0358 26.4454 68.0358 25.4794V15.4858H70.4853V25.4679C70.4853 26.1426 70.5773 26.7598 70.7613 27.3194C70.953 27.8791 71.229 28.3621 71.5893 28.7685C71.9496 29.1671 72.3905 29.4776 72.9118 29.7C73.4332 29.9223 74.0235 30.0335 74.6828 30.0335ZM94.0537 25.8474L91.6042 19.4418C91.4279 19.0048 91.2515 18.4528 91.0752 17.7858C90.9909 18.1155 90.9027 18.4222 90.8107 18.7058C90.7264 18.9895 90.642 19.2425 90.5577 19.4648L88.1197 25.8474H94.0537ZM98.8953 32H97.0093C96.7946 32 96.6183 31.9463 96.4803 31.839C96.3423 31.7317 96.2426 31.5937 96.1813 31.425L94.7208 27.5954H87.4412L85.9806 31.425C85.927 31.5707 85.8273 31.7048 85.6816 31.8275C85.536 31.9425 85.3596 32 85.1526 32H83.2666L89.8447 15.4858H92.3172L98.8953 32ZM111.664 30.0105L111.652 32H101.417V15.4858H111.652V17.4753H103.878V22.7079H110.134V24.6284H103.878V30.0105H111.664ZM125.398 30.0105L125.387 32H115.152V15.4858H125.387V17.4753H117.613V22.7079H123.869V24.6284H117.613V30.0105H125.398ZM148.527 24.6169V30.4015C147.714 30.9765 146.848 31.4173 145.928 31.724C145.008 32.0307 143.973 32.184 142.823 32.184C141.535 32.184 140.377 31.9885 139.35 31.5975C138.322 31.1988 137.445 30.6391 136.716 29.9185C135.996 29.1901 135.44 28.3123 135.049 27.2849C134.665 26.2576 134.474 25.1152 134.474 23.8579C134.474 22.6006 134.662 21.462 135.037 20.4424C135.421 19.415 135.965 18.541 136.67 17.8203C137.383 17.092 138.242 16.5323 139.246 16.1413C140.251 15.7426 141.381 15.5433 142.639 15.5433C143.26 15.5433 143.831 15.5855 144.352 15.6698C144.881 15.7541 145.372 15.8806 145.824 16.0493C146.277 16.2103 146.698 16.4135 147.089 16.6588C147.48 16.8965 147.856 17.1725 148.216 17.4868L147.894 17.9928C147.787 18.1768 147.626 18.219 147.411 18.1193C147.296 18.0733 147.132 17.966 146.917 17.7973C146.702 17.6287 146.407 17.4523 146.031 17.2683C145.656 17.0843 145.188 16.9195 144.628 16.7738C144.076 16.6281 143.402 16.5553 142.604 16.5553C141.546 16.5553 140.588 16.724 139.729 17.0613C138.878 17.3987 138.15 17.8817 137.544 18.5103C136.946 19.139 136.482 19.9057 136.153 20.8104C135.831 21.715 135.67 22.7309 135.67 23.8579C135.67 25.0002 135.831 26.0276 136.153 26.9399C136.482 27.8523 136.954 28.6266 137.567 29.263C138.188 29.8993 138.94 30.3861 139.821 30.7235C140.703 31.0608 141.696 31.2295 142.8 31.2295C143.283 31.2295 143.727 31.1988 144.134 31.1375C144.548 31.0762 144.939 30.9918 145.307 30.8845C145.682 30.7695 146.043 30.6315 146.388 30.4705C146.741 30.3018 147.097 30.114 147.457 29.907V25.5254H144.341C144.256 25.5254 144.184 25.4986 144.122 25.4449C144.069 25.3913 144.042 25.3299 144.042 25.2609V24.6169H148.527ZM156.907 23.7659C157.628 23.7659 158.272 23.6816 158.839 23.5129C159.414 23.3366 159.897 23.0874 160.288 22.7654C160.687 22.4434 160.99 22.0562 161.197 21.6039C161.404 21.1515 161.507 20.6417 161.507 20.0744C161.507 18.9167 161.128 18.058 160.369 17.4983C159.617 16.9386 158.517 16.6588 157.068 16.6588H154.09V23.7659H156.907ZM164.129 32H163.117C162.987 32 162.876 31.9808 162.784 31.9425C162.699 31.8965 162.619 31.816 162.542 31.701L157.321 25.0999C157.26 25.0156 157.195 24.9427 157.126 24.8814C157.064 24.8201 156.991 24.7741 156.907 24.7434C156.83 24.7051 156.735 24.6782 156.62 24.6629C156.512 24.6476 156.378 24.6399 156.217 24.6399H154.09V32H152.905V15.7273H157.068C158.939 15.7273 160.338 16.0915 161.266 16.8198C162.201 17.5405 162.669 18.6023 162.669 20.0054C162.669 20.6264 162.561 21.1937 162.347 21.7074C162.132 22.221 161.821 22.6734 161.415 23.0644C161.016 23.4477 160.53 23.7621 159.955 24.0074C159.387 24.2527 158.747 24.4176 158.034 24.5019C158.218 24.6169 158.383 24.7702 158.529 24.9619L164.129 32ZM181.702 23.8579C181.702 25.1152 181.514 26.2576 181.138 27.2849C180.763 28.3046 180.234 29.1786 179.551 29.907C178.869 30.6276 178.049 31.1873 177.09 31.586C176.139 31.977 175.089 32.1725 173.939 32.1725C172.789 32.1725 171.739 31.977 170.788 31.586C169.837 31.1873 169.021 30.6276 168.339 29.907C167.656 29.1786 167.127 28.3046 166.752 27.2849C166.376 26.2576 166.188 25.1152 166.188 23.8579C166.188 22.6082 166.376 21.4735 166.752 20.4539C167.127 19.4265 167.656 18.5525 168.339 17.8318C169.021 17.1035 169.837 16.54 170.788 16.1413C171.739 15.7426 172.789 15.5433 173.939 15.5433C175.089 15.5433 176.139 15.7426 177.09 16.1413C178.049 16.5323 178.869 17.092 179.551 17.8203C180.234 18.5487 180.763 19.4265 181.138 20.4539C181.514 21.4735 181.702 22.6082 181.702 23.8579ZM180.483 23.8579C180.483 22.7232 180.326 21.7035 180.011 20.7989C179.697 19.8942 179.252 19.1275 178.677 18.4988C178.102 17.8702 177.412 17.391 176.607 17.0613C175.802 16.724 174.913 16.5553 173.939 16.5553C172.973 16.5553 172.088 16.724 171.283 17.0613C170.478 17.391 169.784 17.8702 169.201 18.4988C168.626 19.1275 168.178 19.8942 167.856 20.7989C167.541 21.7035 167.384 22.7232 167.384 23.8579C167.384 25.0002 167.541 26.0238 167.856 26.9284C168.178 27.8254 168.626 28.5883 169.201 29.217C169.784 29.8456 170.478 30.3248 171.283 30.6545C172.088 30.9842 172.973 31.149 173.939 31.149C174.913 31.149 175.802 30.9842 176.607 30.6545C177.412 30.3248 178.102 29.8456 178.677 29.217C179.252 28.5883 179.697 27.8254 180.011 26.9284C180.326 26.0238 180.483 25.0002 180.483 23.8579ZM191.857 31.1605C192.639 31.1605 193.336 31.0263 193.95 30.758C194.571 30.482 195.096 30.1025 195.525 29.6195C195.955 29.1365 196.28 28.5691 196.503 27.9174C196.733 27.2581 196.848 26.5489 196.848 25.7899V15.7273H198.021V25.7899C198.021 26.6869 197.879 27.5264 197.595 28.3085C197.312 29.0828 196.901 29.7613 196.365 30.344C195.836 30.919 195.188 31.3713 194.421 31.701C193.662 32.0307 192.807 32.1955 191.857 32.1955C190.906 32.1955 190.047 32.0307 189.281 31.701C188.522 31.3713 187.874 30.919 187.337 30.344C186.808 29.7613 186.402 29.0828 186.118 28.3085C185.834 27.5264 185.693 26.6869 185.693 25.7899V15.7273H186.877V25.7784C186.877 26.5374 186.988 27.2466 187.211 27.9059C187.441 28.5576 187.766 29.125 188.188 29.608C188.618 30.091 189.139 30.4705 189.752 30.7465C190.373 31.0225 191.075 31.1605 191.857 31.1605ZM207.28 24.5019C207.993 24.5019 208.633 24.4022 209.2 24.2029C209.768 24.0036 210.247 23.7276 210.638 23.3749C211.037 23.0222 211.339 22.6082 211.546 22.1329C211.761 21.6499 211.868 21.1247 211.868 20.5574C211.868 19.3077 211.485 18.3455 210.718 17.6708C209.952 16.9961 208.806 16.6588 207.28 16.6588H204.255V24.5019H207.28ZM207.28 15.7273C209.189 15.7273 210.626 16.1451 211.592 16.9808C212.566 17.8165 213.053 19.0087 213.053 20.5574C213.053 21.2704 212.919 21.9259 212.65 22.5239C212.382 23.1219 211.999 23.6394 211.5 24.0764C211.002 24.5057 210.396 24.8431 209.683 25.0884C208.97 25.3261 208.169 25.4449 207.28 25.4449H204.255V32H203.071V15.7273H207.28Z" fill="white"/>
  <path fill-rule="evenodd" clip-rule="evenodd" d="M16.0574 18.3564C16.0574 15.8817 21.5343 12.1899 29.6481 9.18775C33.8673 7.60554 34.8815 7.60554 37.8025 9.39059C39.3446 10.3071 40.2972 10.7698 40.8904 11.5176C41.9513 12.855 41.8625 15.1045 41.9405 22.4945C42.0622 30.6895 41.9405 32.8397 41.4537 34.0162C40.9669 35.2333 39.9526 36.0041 34.6381 39.1685C31.2303 41.197 26.93 43.5906 25.0638 44.5237C21.7777 46.187 21.656 46.2276 19.7898 45.7002C17.4368 45.0916 13.9884 42.9415 14.8404 42.6575C15.1649 42.5358 17.1934 42.1706 19.303 41.8055C30.2161 39.9799 37.4374 36.7749 39.4658 32.9208C40.3989 31.1358 40.2366 28.7016 39.1007 27.5251C37.1534 25.4155 34.6381 24.6447 26.4837 23.5493C18.8567 22.5351 16.0574 21.1557 16.0574 18.3564ZM10.6207 5.41418C15.5296 2.61489 19.7894 0.221302 20.1139 0.0995941C20.9253 -0.184391 21.9801 0.0995941 24.2925 1.35725C26.9701 2.77717 27.3758 3.38572 25.9153 3.6697C18.126 5.37362 9.84992 9.51169 6.23926 13.5281C0.88414 19.4512 2.22292 25.6989 9.16024 27.4028C10.1745 27.6462 16.057 28.0925 22.2235 28.3764C31.3516 28.8227 33.664 29.0661 34.5159 29.5935C35.8547 30.4861 35.8547 32.0277 34.5159 33.2448C30.9459 36.5715 14.6371 42.17 11.351 41.2369C9.28195 40.6284 2.75032 36.3686 1.57382 34.827L0.43788 33.3665L0.316172 23.6704C0.234472 16.9913 -0.0220459 14.0452 1.18783 11.9429C2.38104 9.86957 5.00056 8.6171 10.6207 5.41418Z" fill="white"/>
</svg>
