<svg width="88" height="48" viewBox="0 0 88 48" fill="none" xmlns="http://www.w3.org/2000/svg">
<path d="M23.8474 28.3299C21.0257 29.5702 14.362 29.3447 12.0471 21.7337C8.88344 11.3319 19.6576 3.5518 28.1226 0C26.6177 2.30022 27.2105 4.51023 27.695 5.32771C28.0655 5.77873 28.8579 6.95139 29.0631 8.03384C29.2683 9.1163 29.1486 9.89431 29.0631 10.148C28.2314 10.5283 27.4127 10.8908 26.6151 11.244C22.4531 13.0869 18.868 14.6743 17.0355 17.1967C16.0226 18.3809 15.4144 19.8976 15.4144 21.5511C15.4144 25.3381 18.6052 28.4081 22.5413 28.4081C22.9111 28.4081 23.2743 28.381 23.6289 28.3288C23.7014 28.3295 23.7742 28.3299 23.8474 28.3299Z" fill="#AFAFB6"/>
<path d="M23.3602 14.741C26.6043 14.4065 31.2645 15.78 33.1269 21.9103C36.3098 32.3875 22.6029 44.4224 14.0862 48C10.9892 47.8296 8.89592 46.268 8.40843 45.4446L8.34204 45.3634C7.82137 44.7259 5.72201 42.1554 4.62325 41.6114C3.30506 40.9588 2.64333 40.9562 1.67085 40.9524C1.37402 40.9512 1.04825 40.9499 0.666016 40.93C4.97146 38.8127 8.68129 37.0389 11.8663 35.5159C23.9111 29.7566 28.4502 27.5862 29.3129 24.0066C29.5413 23.3109 29.6649 22.5679 29.6649 21.7962C29.6649 18.151 26.9089 15.1472 23.3602 14.741Z" fill="#AFAFB6"/>
<path d="M22.7825 27.9182C26.0399 27.9182 28.6806 25.2868 28.6806 22.0408C28.6806 18.7947 26.0399 16.1633 22.7825 16.1633C19.5251 16.1633 16.8844 18.7947 16.8844 22.0408C16.8844 25.2868 19.5251 27.9182 22.7825 27.9182Z" fill="#AFAFB6"/>
<path d="M82.8133 23.0958C82.9772 23.3064 83.1557 23.4552 83.3488 23.5424C83.5456 23.6259 83.7623 23.6676 83.9992 23.6676C84.4582 23.6676 84.8152 23.5006 85.0703 23.1666C85.3289 22.8326 85.4583 22.3352 85.4583 21.6745C85.4583 21.3332 85.4291 21.0428 85.3708 20.8032C85.3126 20.5599 85.2288 20.3621 85.1195 20.2096C85.0102 20.0571 84.8772 19.9464 84.7205 19.8774C84.5639 19.8084 84.3872 19.7739 84.1904 19.7739C83.8917 19.7739 83.633 19.8393 83.4144 19.97C83.1995 20.097 82.9991 20.2804 82.8133 20.52V23.0958ZM82.7532 19.7412C82.9863 19.469 83.2505 19.2493 83.5456 19.0823C83.8443 18.9153 84.1904 18.8318 84.5839 18.8318C84.8972 18.8318 85.1814 18.8953 85.4364 19.0224C85.6914 19.1458 85.91 19.3274 86.0922 19.567C86.2744 19.8066 86.4146 20.1043 86.513 20.4601C86.615 20.8122 86.666 21.217 86.666 21.6745C86.666 22.0847 86.6096 22.4677 86.4966 22.8235C86.3873 23.1757 86.2288 23.4825 86.0212 23.7439C85.8135 24.0016 85.5621 24.2049 85.267 24.3538C84.9719 24.499 84.6385 24.5716 84.2669 24.5716C83.939 24.5716 83.6603 24.519 83.4308 24.4137C83.2049 24.3084 82.9991 24.1632 82.8133 23.978V26.336H81.6383V18.9353H82.3488C82.5091 18.9353 82.6111 19.0097 82.6548 19.1586L82.7532 19.7412Z" fill="#AFAFB6"/>
<path d="M80.2141 18.9356V24.4902H79.5036C79.347 24.4902 79.2468 24.4158 79.2031 24.267L79.1156 23.7496C78.999 23.8731 78.8752 23.9856 78.744 24.0873C78.6165 24.1889 78.4799 24.276 78.3341 24.3487C78.1884 24.4213 78.0318 24.4775 77.8642 24.5175C77.7002 24.5574 77.5235 24.5774 77.3341 24.5774C77.028 24.5774 76.7584 24.5265 76.5253 24.4249C76.2921 24.3232 76.0954 24.1798 75.9351 23.9947C75.7784 23.8095 75.66 23.5881 75.5798 23.3303C75.4997 23.0689 75.4596 22.7821 75.4596 22.4699V18.9356H76.6346V22.4699C76.6346 22.8438 76.7202 23.1343 76.8914 23.3412C77.0663 23.5481 77.3304 23.6516 77.6838 23.6516C77.9425 23.6516 78.183 23.5935 78.4052 23.4773C78.6311 23.3575 78.8424 23.1942 79.0391 22.9872V18.9356H80.2141Z" fill="#AFAFB6"/>
<path d="M71.6799 18.8474C72.0915 18.8474 72.4632 18.9146 72.7947 19.0489C73.1299 19.1833 73.414 19.3739 73.6472 19.6207C73.884 19.8676 74.0662 20.1671 74.1937 20.5193C74.3212 20.8714 74.385 21.2672 74.385 21.7064C74.385 22.1457 74.3212 22.5415 74.1937 22.8936C74.0662 23.2458 73.884 23.5471 73.6472 23.7976C73.414 24.0445 73.1299 24.2351 72.7947 24.3694C72.4632 24.5037 72.0915 24.5709 71.6799 24.5709C71.2645 24.5709 70.8893 24.5037 70.5541 24.3694C70.2226 24.2351 69.9384 24.0445 69.7016 23.7976C69.4648 23.5471 69.2826 23.2458 69.1551 22.8936C69.0276 22.5415 68.9638 22.1457 68.9638 21.7064C68.9638 21.2672 69.0276 20.8714 69.1551 20.5193C69.2826 20.1671 69.4648 19.8676 69.7016 19.6207C69.9384 19.3739 70.2226 19.1833 70.5541 19.0489C70.8893 18.9146 71.2645 18.8474 71.6799 18.8474ZM71.6799 23.656C72.1826 23.656 72.5561 23.489 72.8002 23.155C73.0479 22.8174 73.1718 22.3363 73.1718 21.7119C73.1718 21.0874 73.0479 20.6064 72.8002 20.2688C72.5561 19.9275 72.1826 19.7569 71.6799 19.7569C71.1698 19.7569 70.7909 19.9275 70.5432 20.2688C70.2954 20.6064 70.1716 21.0874 70.1716 21.7119C70.1716 22.3363 70.2954 22.8174 70.5432 23.155C70.7909 23.489 71.1698 23.656 71.6799 23.656Z" fill="#AFAFB6"/>
<path d="M66.5339 19.9645C66.7088 19.6124 66.9201 19.3364 67.1678 19.1368C67.4156 18.9335 67.7125 18.8318 68.0586 18.8318C68.1788 18.8318 68.2917 18.8463 68.3974 18.8754C68.5031 18.9008 68.5978 18.9407 68.6816 18.9952L68.5996 19.8774C68.585 19.9391 68.5613 19.9827 68.5286 20.0081C68.4994 20.0299 68.4593 20.0408 68.4083 20.0408C68.3537 20.0408 68.2754 20.0317 68.1733 20.0135C68.0713 19.9917 67.9639 19.9809 67.8509 19.9809C67.687 19.9809 67.5412 20.0045 67.4137 20.0517C67.2899 20.0989 67.1769 20.1678 67.0749 20.2586C66.9765 20.3494 66.8891 20.4601 66.8126 20.5908C66.7361 20.7215 66.665 20.8703 66.5995 21.0373V24.4899H65.4245V18.9353H66.1076C66.2315 18.9353 66.3171 18.9589 66.3645 19.0061C66.4118 19.0496 66.4446 19.1277 66.4628 19.2402L66.5339 19.9645Z" fill="#AFAFB6"/>
<path d="M64.2238 20.6286V23.7326C63.4405 24.2954 62.5297 24.5767 61.4914 24.5767C60.8538 24.5767 60.2764 24.4787 59.7591 24.2827C59.2454 24.083 58.8063 23.8071 58.442 23.4549C58.0777 23.0991 57.7972 22.6762 57.6004 22.1861C57.4037 21.6959 57.3053 21.1568 57.3053 20.5687C57.3053 19.9769 57.4001 19.436 57.5895 18.9459C57.779 18.4521 58.0504 18.0292 58.4038 17.677C58.7572 17.3212 59.1834 17.0471 59.6825 16.8547C60.1817 16.6587 60.7427 16.5606 61.3657 16.5606C61.6827 16.5606 61.976 16.586 62.2456 16.6369C62.5188 16.6841 62.772 16.7512 63.0052 16.8384C63.2383 16.9255 63.4533 17.0308 63.65 17.1542C63.8468 17.2777 64.0271 17.4156 64.1911 17.5681L63.8249 18.1508C63.7666 18.2415 63.6919 18.2978 63.6009 18.3196C63.5098 18.3414 63.4114 18.3196 63.3057 18.2543C63.2001 18.1925 63.0872 18.1272 62.9669 18.0582C62.8503 17.9892 62.7155 17.9257 62.5625 17.8676C62.4095 17.8059 62.2328 17.7569 62.0324 17.7206C61.8321 17.6806 61.5952 17.6607 61.322 17.6607C60.9067 17.6607 60.5314 17.7296 60.1962 17.8676C59.8647 18.0019 59.5805 18.1962 59.3437 18.4503C59.1069 18.7008 58.9248 19.0058 58.7972 19.3652C58.6697 19.7246 58.606 20.1258 58.606 20.5687C58.606 21.037 58.6734 21.4563 58.8082 21.8266C58.943 22.1933 59.1342 22.5055 59.382 22.7633C59.6297 23.0174 59.9285 23.2117 60.2782 23.346C60.6316 23.4803 61.0251 23.5475 61.4586 23.5475C61.7829 23.5475 62.0707 23.513 62.3221 23.444C62.5771 23.375 62.8267 23.2788 63.0708 23.1554V21.5979H61.9723C61.8885 21.5979 61.8229 21.5761 61.7756 21.5326C61.7282 21.4854 61.7045 21.4255 61.7045 21.3529V20.6286H64.2238Z" fill="#AFAFB6"/>
<path d="M54.2889 23.4222V24.4895H49.7422V16.6477H51.0209V23.4222H54.2889Z" fill="#AFAFB6"/>
<path d="M46.4031 21.5488L45.3211 18.6844C45.2337 18.4629 45.1444 18.1816 45.0533 17.8403C45.0132 18.0109 44.9695 18.1689 44.9222 18.3141C44.8748 18.4557 44.8311 18.5809 44.791 18.6898L43.709 21.5488H46.4031ZM48.8241 24.4895H47.8349C47.722 24.4895 47.6309 24.4623 47.5617 24.4078C47.4925 24.3497 47.4396 24.279 47.4032 24.1955L46.7474 22.4637H43.3592L42.7034 24.1955C42.6743 24.2681 42.6233 24.3352 42.5504 24.3969C42.4775 24.4587 42.3865 24.4895 42.2772 24.4895H41.288L44.4085 16.6477H45.7036L48.8241 24.4895Z" fill="#AFAFB6"/>
<path d="M41.9118 17.7096H39.4581V24.4895H38.1848V17.7096H35.7256V16.6477H41.9118V17.7096Z" fill="#AFAFB6"/>
</svg>
