<svg width="86" height="48" viewBox="0 0 86 48" fill="none" xmlns="http://www.w3.org/2000/svg">
  <path d="M23.1813 28.3299C20.3597 29.5702 13.696 29.3447 11.3811 21.7337C8.21743 11.3319 18.9916 3.5518 27.4566 0C25.9517 2.30022 26.5445 4.51023 27.029 5.32771C27.3995 5.77873 28.1919 6.95139 28.3971 8.03384C28.6023 9.1163 28.4826 9.89431 28.3971 10.148C27.5654 10.5283 26.7467 10.8908 25.9491 11.244C21.7871 13.0869 18.202 14.6743 16.3695 17.1967C15.3566 18.3809 14.7484 19.8976 14.7484 21.5511C14.7484 25.3381 17.9392 28.4081 21.8753 28.4081C22.245 28.4081 22.6082 28.381 22.9629 28.3288C23.0354 28.3295 23.1082 28.3299 23.1813 28.3299Z" fill="white"/>
  <path d="M22.6942 14.741C25.9383 14.4065 30.5984 15.78 32.4608 21.9103C35.6438 32.3875 21.9368 44.4224 13.4202 48C10.3232 47.8296 8.2299 46.268 7.74242 45.4446L7.67602 45.3634C7.15536 44.7259 5.056 42.1554 3.95724 41.6114C2.63905 40.9588 1.97731 40.9562 1.00483 40.9524C0.708007 40.9512 0.38223 40.9499 0 40.93C4.30545 38.8127 8.01527 37.0389 11.2003 35.5159C23.2451 29.7566 27.7842 27.5862 28.6469 24.0066C28.8753 23.3109 28.9988 22.5679 28.9988 21.7962C28.9988 18.151 26.2429 15.1472 22.6942 14.741Z" fill="white"/>
  <path d="M22.1165 27.9182C25.3739 27.9182 28.0146 25.2868 28.0146 22.0408C28.0146 18.7947 25.3739 16.1633 22.1165 16.1633C18.859 16.1633 16.2184 18.7947 16.2184 22.0408C16.2184 25.2868 18.859 27.9182 22.1165 27.9182Z" fill="white"/>
  <path d="M82.1473 23.0958C82.3112 23.3064 82.4897 23.4552 82.6828 23.5424C82.8796 23.6259 83.0963 23.6676 83.3331 23.6676C83.7922 23.6676 84.1492 23.5006 84.4043 23.1666C84.6629 22.8326 84.7923 22.3352 84.7923 21.6745C84.7923 21.3332 84.7631 21.0428 84.7048 20.8032C84.6465 20.5599 84.5627 20.3621 84.4534 20.2096C84.3441 20.0571 84.2112 19.9464 84.0545 19.8774C83.8979 19.8084 83.7212 19.7739 83.5244 19.7739C83.2257 19.7739 82.967 19.8393 82.7484 19.97C82.5334 20.097 82.3331 20.2804 82.1473 20.52V23.0958ZM82.0872 19.7412C82.3203 19.469 82.5845 19.2493 82.8796 19.0823C83.1783 18.9153 83.5244 18.8318 83.9179 18.8318C84.2312 18.8318 84.5154 18.8953 84.7704 19.0224C85.0254 19.1458 85.244 19.3274 85.4262 19.567C85.6083 19.8066 85.7486 20.1043 85.847 20.4601C85.949 20.8122 86 21.217 86 21.6745C86 22.0847 85.9435 22.4677 85.8306 22.8235C85.7213 23.1757 85.5628 23.4825 85.3551 23.7439C85.1475 24.0016 84.8961 24.2049 84.601 24.3538C84.3059 24.499 83.9725 24.5716 83.6009 24.5716C83.273 24.5716 82.9943 24.519 82.7648 24.4137C82.5389 24.3084 82.3331 24.1632 82.1473 23.978V26.336H80.9723V18.9353H81.6828C81.8431 18.9353 81.9451 19.0097 81.9888 19.1586L82.0872 19.7412Z" fill="white"/>
  <path d="M79.548 18.9356V24.4902H78.8376C78.6809 24.4902 78.5808 24.4158 78.537 24.267L78.4496 23.7496C78.333 23.8731 78.2092 23.9856 78.078 24.0873C77.9505 24.1889 77.8139 24.276 77.6681 24.3487C77.5224 24.4213 77.3657 24.4775 77.1982 24.5175C77.0342 24.5574 76.8575 24.5774 76.6681 24.5774C76.362 24.5774 76.0924 24.5265 75.8593 24.4249C75.6261 24.3232 75.4294 24.1798 75.2691 23.9947C75.1124 23.8095 74.994 23.5881 74.9138 23.3303C74.8337 23.0689 74.7936 22.7821 74.7936 22.4699V18.9356H75.9686V22.4699C75.9686 22.8438 76.0542 23.1343 76.2254 23.3412C76.4003 23.5481 76.6644 23.6516 77.0178 23.6516C77.2765 23.6516 77.5169 23.5935 77.7392 23.4773C77.965 23.3575 78.1764 23.1942 78.3731 22.9872V18.9356H79.548Z" fill="white"/>
  <path d="M71.0138 18.8474C71.4255 18.8474 71.7971 18.9146 72.1287 19.0489C72.4639 19.1833 72.748 19.3739 72.9812 19.6207C73.218 19.8676 73.4002 20.1671 73.5277 20.5193C73.6552 20.8714 73.7189 21.2672 73.7189 21.7064C73.7189 22.1457 73.6552 22.5415 73.5277 22.8936C73.4002 23.2458 73.218 23.5471 72.9812 23.7976C72.748 24.0445 72.4639 24.2351 72.1287 24.3694C71.7971 24.5037 71.4255 24.5709 71.0138 24.5709C70.5985 24.5709 70.2233 24.5037 69.8881 24.3694C69.5565 24.2351 69.2724 24.0445 69.0356 23.7976C68.7988 23.5471 68.6166 23.2458 68.4891 22.8936C68.3616 22.5415 68.2978 22.1457 68.2978 21.7064C68.2978 21.2672 68.3616 20.8714 68.4891 20.5193C68.6166 20.1671 68.7988 19.8676 69.0356 19.6207C69.2724 19.3739 69.5565 19.1833 69.8881 19.0489C70.2233 18.9146 70.5985 18.8474 71.0138 18.8474ZM71.0138 23.656C71.5166 23.656 71.89 23.489 72.1341 23.155C72.3819 22.8174 72.5058 22.3363 72.5058 21.7119C72.5058 21.0874 72.3819 20.6064 72.1341 20.2688C71.89 19.9275 71.5166 19.7569 71.0138 19.7569C70.5038 19.7569 70.1249 19.9275 69.8772 20.2688C69.6294 20.6064 69.5055 21.0874 69.5055 21.7119C69.5055 22.3363 69.6294 22.8174 69.8772 23.155C70.1249 23.489 70.5038 23.656 71.0138 23.656Z" fill="white"/>
  <path d="M65.8679 19.9645C66.0427 19.6124 66.2541 19.3364 66.5018 19.1368C66.7495 18.9335 67.0465 18.8318 67.3926 18.8318C67.5128 18.8318 67.6257 18.8463 67.7314 18.8754C67.837 18.9008 67.9318 18.9407 68.0156 18.9952L67.9336 19.8774C67.919 19.9391 67.8953 19.9827 67.8625 20.0081C67.8334 20.0299 67.7933 20.0408 67.7423 20.0408C67.6877 20.0408 67.6093 20.0317 67.5073 20.0135C67.4053 19.9917 67.2978 19.9809 67.1849 19.9809C67.021 19.9809 66.8752 20.0045 66.7477 20.0517C66.6238 20.0989 66.5109 20.1678 66.4089 20.2586C66.3105 20.3494 66.2231 20.4601 66.1466 20.5908C66.0701 20.7215 65.999 20.8703 65.9334 21.0373V24.4899H64.7585V18.9353H65.4416C65.5655 18.9353 65.6511 18.9589 65.6985 19.0061C65.7458 19.0496 65.7786 19.1277 65.7968 19.2402L65.8679 19.9645Z" fill="white"/>
  <path d="M63.5578 20.6286V23.7326C62.7745 24.2954 61.8637 24.5767 60.8254 24.5767C60.1878 24.5767 59.6104 24.4787 59.093 24.2827C58.5793 24.083 58.1403 23.8071 57.776 23.4549C57.4117 23.0991 57.1312 22.6762 56.9344 22.1861C56.7377 21.6959 56.6393 21.1568 56.6393 20.5687C56.6393 19.9769 56.734 19.436 56.9235 18.9459C57.1129 18.4521 57.3844 18.0292 57.7378 17.677C58.0911 17.3212 58.5174 17.0471 59.0165 16.8547C59.5157 16.6587 60.0767 16.5606 60.6997 16.5606C61.0167 16.5606 61.31 16.586 61.5796 16.6369C61.8528 16.6841 62.106 16.7512 62.3392 16.8384C62.5723 16.9255 62.7873 17.0308 62.984 17.1542C63.1808 17.2777 63.3611 17.4156 63.525 17.5681L63.1589 18.1508C63.1006 18.2415 63.0259 18.2978 62.9348 18.3196C62.8438 18.3414 62.7454 18.3196 62.6397 18.2543C62.5341 18.1925 62.4211 18.1272 62.3009 18.0582C62.1843 17.9892 62.0495 17.9257 61.8965 17.8676C61.7435 17.8059 61.5668 17.7569 61.3664 17.7206C61.166 17.6806 60.9292 17.6607 60.656 17.6607C60.2407 17.6607 59.8654 17.7296 59.5302 17.8676C59.1987 18.0019 58.9145 18.1962 58.6777 18.4503C58.4409 18.7008 58.2587 19.0058 58.1312 19.3652C58.0037 19.7246 57.94 20.1258 57.94 20.5687C57.94 21.037 58.0074 21.4563 58.1422 21.8266C58.277 22.1933 58.4682 22.5055 58.716 22.7633C58.9637 23.0174 59.2625 23.2117 59.6122 23.346C59.9656 23.4803 60.3591 23.5475 60.7926 23.5475C61.1169 23.5475 61.4047 23.513 61.6561 23.444C61.9111 23.375 62.1606 23.2788 62.4047 23.1554V21.5979H61.3063C61.2225 21.5979 61.1569 21.5761 61.1096 21.5326C61.0622 21.4854 61.0385 21.4255 61.0385 21.3529V20.6286H63.5578Z" fill="white"/>
  <path d="M53.6229 23.4222V24.4895H49.0761V16.6477H50.3549V23.4222H53.6229Z" fill="white"/>
  <path d="M45.7371 21.5488L44.6551 18.6844C44.5676 18.4629 44.4784 18.1816 44.3873 17.8403C44.3472 18.0109 44.3035 18.1689 44.2561 18.3141C44.2088 18.4557 44.1651 18.5809 44.125 18.6898L43.0429 21.5488H45.7371ZM48.1581 24.4895H47.1689C47.056 24.4895 46.9649 24.4623 46.8957 24.4078C46.8264 24.3497 46.7736 24.279 46.7372 24.1955L46.0814 22.4637H42.6932L42.0374 24.1955C42.0083 24.2681 41.9573 24.3352 41.8844 24.3969C41.8115 24.4587 41.7204 24.4895 41.6111 24.4895H40.622L43.7424 16.6477H45.0376L48.1581 24.4895Z" fill="white"/>
  <path d="M41.2458 17.7096H38.7921V24.4895H37.5188V17.7096H35.0596V16.6477H41.2458V17.7096Z" fill="white"/>
</svg>
