<svg width="73" height="44" viewBox="0 0 73 44" fill="none" xmlns="http://www.w3.org/2000/svg">
  <path d="M44.6547 16.7537V28.8653H54.7592V26.2159H47.9428V24.1342H54.3334V21.4848H47.9428V19.4031H54.7829V16.7537H44.6547Z" fill="#AFAFB6"/>
  <path fill-rule="evenodd" clip-rule="evenodd" d="M29.1276 28.8653H32.8912L33.7332 26.5471H38.519L39.361 28.8653H42.9093L38.3734 16.7537H33.8788L29.1276 28.8653ZM37.6254 24.0869L36.1734 20.0891H36.0788L34.6267 24.0869H37.6254Z" fill="#AFAFB6"/>
  <path d="M63.9894 27.2732C63.8889 28.0396 63.5842 28.4228 63.0754 28.4228H59.9479V25.1576H61.2542C61.4426 25.1576 61.5777 25.1921 61.6594 25.2612C61.7473 25.3304 61.8415 25.6225 61.9421 26.1376H62.3378V23.5745H61.9421L61.8478 23.9891C61.7913 24.2278 61.7379 24.3849 61.6876 24.4603C61.6437 24.5357 61.5023 24.5734 61.2636 24.5734H59.9479V21.7143H62.5288C63.0314 21.7269 63.3361 22.1101 63.4429 22.864H63.8198V21.1301H56.7578V21.5259L57.3138 21.639C57.609 21.7018 57.8038 21.8211 57.898 21.997C57.9922 22.1667 58.0394 22.5373 58.0394 23.109V27.0282C58.0394 27.5245 58.0017 27.8763 57.9263 28.0836C57.8509 28.2909 57.6436 28.4291 57.3044 28.4982L56.7578 28.6113V29.0071H64.3663V27.2732H63.9894Z" fill="#AFAFB6"/>
  <path d="M14.3489 9.35671C14.7141 9.35671 15.0101 9.0607 15.0101 8.69555C15.0101 8.3304 14.7141 8.03439 14.3489 8.03439C13.9838 8.03439 13.6878 8.3304 13.6878 8.69555C13.6878 9.0607 13.9838 9.35671 14.3489 9.35671Z" fill="#AFAFB6"/>
  <path d="M16.7565 9.35671C17.1217 9.35671 17.4177 9.0607 17.4177 8.69555C17.4177 8.3304 17.1217 8.03439 16.7565 8.03439C16.3914 8.03439 16.0954 8.3304 16.0954 8.69555C16.0954 9.0607 16.3914 9.35671 16.7565 9.35671Z" fill="#AFAFB6"/>
  <path d="M19.8254 8.69555C19.8254 9.0607 19.5294 9.35671 19.1642 9.35671C18.7991 9.35671 18.5031 9.0607 18.5031 8.69555C18.5031 8.3304 18.7991 8.03439 19.1642 8.03439C19.5294 8.03439 19.8254 8.3304 19.8254 8.69555Z" fill="#AFAFB6"/>
  <path d="M19.8254 11.0244C19.8254 11.3896 19.5294 11.6856 19.1642 11.6856C18.7991 11.6856 18.5031 11.3896 18.5031 11.0244C18.5031 10.6593 18.7991 10.3633 19.1642 10.3633C19.5294 10.3633 19.8254 10.6593 19.8254 11.0244Z" fill="#AFAFB6"/>
  <path d="M17.4177 11.0244C17.4177 11.3896 17.1217 11.6856 16.7565 11.6856C16.3914 11.6856 16.0954 11.3896 16.0954 11.0244C16.0954 10.6593 16.3914 10.3633 16.7565 10.3633C17.1217 10.3633 17.4177 10.6593 17.4177 11.0244Z" fill="#AFAFB6"/>
  <path d="M14.3489 11.6856C14.7141 11.6856 15.0101 11.3896 15.0101 11.0244C15.0101 10.6593 14.7141 10.3633 14.3489 10.3633C13.9838 10.3633 13.6878 10.6593 13.6878 11.0244C13.6878 11.3896 13.9838 11.6856 14.3489 11.6856Z" fill="#AFAFB6"/>
  <path d="M11.9413 11.6856C12.3065 11.6856 12.6025 11.3896 12.6025 11.0244C12.6025 10.6593 12.3065 10.3633 11.9413 10.3633C11.5762 10.3633 11.2802 10.6593 11.2802 11.0244C11.2802 11.3896 11.5762 11.6856 11.9413 11.6856Z" fill="#AFAFB6"/>
  <path d="M12.6025 13.3533C12.6025 13.7184 12.3065 14.0144 11.9413 14.0144C11.5762 14.0144 11.2802 13.7184 11.2802 13.3533C11.2802 12.9881 11.5762 12.6921 11.9413 12.6921C12.3065 12.6921 12.6025 12.9881 12.6025 13.3533Z" fill="#AFAFB6"/>
  <path d="M15.0101 13.3533C15.0101 13.7184 14.7141 14.0144 14.3489 14.0144C13.9838 14.0144 13.6878 13.7184 13.6878 13.3533C13.6878 12.9881 13.9838 12.6921 14.3489 12.6921C14.7141 12.6921 15.0101 12.9881 15.0101 13.3533Z" fill="#AFAFB6"/>
  <path d="M15.0101 15.6822C15.0101 16.0473 14.7141 16.3433 14.3489 16.3433C13.9838 16.3433 13.6878 16.0473 13.6878 15.6822C13.6878 15.317 13.9838 15.021 14.3489 15.021C14.7141 15.021 15.0101 15.317 15.0101 15.6822Z" fill="#AFAFB6"/>
  <path d="M12.6025 15.6822C12.6025 16.0473 12.3065 16.3433 11.9413 16.3433C11.5762 16.3433 11.2802 16.0473 11.2802 15.6822C11.2802 15.317 11.5762 15.021 11.9413 15.021C12.3065 15.021 12.6025 15.317 12.6025 15.6822Z" fill="#AFAFB6"/>
  <path d="M12.6025 18.011C12.6025 18.3762 12.3065 18.6722 11.9413 18.6722C11.5762 18.6722 11.2802 18.3762 11.2802 18.011C11.2802 17.6459 11.5762 17.3499 11.9413 17.3499C12.3065 17.3499 12.6025 17.6459 12.6025 18.011Z" fill="#AFAFB6"/>
  <path d="M15.0101 18.011C15.0101 18.3762 14.7141 18.6722 14.3489 18.6722C13.9838 18.6722 13.6878 18.3762 13.6878 18.011C13.6878 17.6459 13.9838 17.3499 14.3489 17.3499C14.7141 17.3499 15.0101 17.6459 15.0101 18.011Z" fill="#AFAFB6"/>
  <path d="M11.9413 21.001C12.3065 21.001 12.6025 20.705 12.6025 20.3399C12.6025 19.9747 12.3065 19.6787 11.9413 19.6787C11.5762 19.6787 11.2802 19.9747 11.2802 20.3399C11.2802 20.705 11.5762 21.001 11.9413 21.001Z" fill="#AFAFB6"/>
  <path d="M14.3489 21.001C14.7141 21.001 15.0101 20.705 15.0101 20.3399C15.0101 19.9747 14.7141 19.6787 14.3489 19.6787C13.9838 19.6787 13.6878 19.9747 13.6878 20.3399C13.6878 20.705 13.9838 21.001 14.3489 21.001Z" fill="#AFAFB6"/>
  <path d="M12.6024 26.563C12.6024 26.9281 12.3064 27.2241 11.9412 27.2241C11.5761 27.2241 11.2801 26.9281 11.2801 26.563C11.2801 26.1978 11.5761 25.9018 11.9412 25.9018C12.3064 25.9018 12.6024 26.1978 12.6024 26.563Z" fill="#AFAFB6"/>
  <path d="M14.3489 27.2241C14.7141 27.2241 15.0101 26.9281 15.0101 26.563C15.0101 26.1978 14.7141 25.9018 14.3489 25.9018C13.9838 25.9018 13.6878 26.1978 13.6878 26.563C13.6878 26.9281 13.9838 27.2241 14.3489 27.2241Z" fill="#AFAFB6"/>
  <path d="M12.6024 28.8918C12.6024 29.257 12.3064 29.553 11.9412 29.553C11.5761 29.553 11.2801 29.257 11.2801 28.8918C11.2801 28.5267 11.5761 28.2307 11.9412 28.2307C12.3064 28.2307 12.6024 28.5267 12.6024 28.8918Z" fill="#AFAFB6"/>
  <path d="M15.0101 28.8918C15.0101 29.257 14.7141 29.553 14.3489 29.553C13.9838 29.553 13.6878 29.257 13.6878 28.8918C13.6878 28.5267 13.9838 28.2307 14.3489 28.2307C14.7141 28.2307 15.0101 28.5267 15.0101 28.8918Z" fill="#AFAFB6"/>
  <path d="M16.7566 29.553C17.1218 29.553 17.4178 29.257 17.4178 28.8918C17.4178 28.5267 17.1218 28.2307 16.7566 28.2307C16.3915 28.2307 16.0955 28.5267 16.0955 28.8918C16.0955 29.257 16.3915 29.553 16.7566 29.553Z" fill="#AFAFB6"/>
  <path d="M24.7458 16.7537H28.0339V24.5127C28.0339 25.4353 27.8131 26.2336 27.3716 26.9078C26.9339 27.5781 26.3228 28.0965 25.5383 28.4632C24.7537 28.8259 24.2735 29.0072 22.3755 29.0072C21.6251 29.0072 20.6086 28.9137 19.8047 28.7266L18.7738 28.3583C18.1342 28.023 17.6199 27.5782 17.2308 27.0237L16.6933 25.9048C16.5656 25.4773 16.5018 25.0133 16.5018 24.5127V16.7537H19.7899V24.2288C19.7899 24.6034 19.8727 24.9385 20.0383 25.2342C20.2039 25.5259 20.4326 25.7546 20.7243 25.9202C21.02 26.0858 22.0009 26.1686 22.3755 26.1686C22.754 26.1686 23.5196 26.0858 23.8114 25.9202C24.1032 25.7546 24.3318 25.5259 24.4974 25.2342C24.663 24.9385 24.7458 24.6034 24.7458 24.2288V16.7537Z" fill="#AFAFB6"/>
  <path d="M11.9413 9.35671C12.3065 9.35671 12.6025 9.0607 12.6025 8.69555C12.6025 8.3304 12.3065 8.03439 11.9413 8.03439C11.5762 8.03439 11.2802 8.3304 11.2802 8.69555C11.2802 9.0607 11.5762 9.35671 11.9413 9.35671Z" fill="#AFAFB6"/>
  <path fill-rule="evenodd" clip-rule="evenodd" d="M18.7593 0.0145873C18.7841 0.00498067 18.8106 0 18.8371 0H26.1038C26.3675 0 26.41 0.440375 26.153 0.499826C23.9342 1.01324 21.8209 1.68861 19.842 2.5059C24.7755 3.82115 30.9 4.54664 36.4055 4.54664C41.9164 4.54664 48.0164 3.81974 52.9771 2.50192C51.0009 1.68642 48.8909 1.01241 46.6756 0.499826C46.4187 0.440375 46.4611 0 46.7248 0H53.5069C53.5335 0 53.56 0.00498026 53.5848 0.0145869C64.6829 4.31994 72.1976 12.6132 72.1976 22.1375C72.1976 31.4618 64.9946 39.6064 54.2779 43.984C54.2522 43.9945 54.2244 44 54.1966 44H47.7589C47.4996 44 47.4548 43.5875 47.7059 43.5228C49.6577 43.0195 51.5217 42.3896 53.2775 41.6472C48.2867 40.2791 42.0266 39.5229 36.4055 39.5229C30.7892 39.5229 24.5014 40.2778 19.5426 41.6435C21.3008 42.3875 23.1678 43.0187 25.1228 43.5228C25.3739 43.5875 25.329 44 25.0697 44H18.1475C18.1197 44 18.0919 43.9945 18.0661 43.984C7.34944 39.6064 0.146484 31.4618 0.146484 22.1375C0.146484 12.6132 7.66119 4.31994 18.7593 0.0145873ZM18.9149 41.3711L18.7656 40.8548C23.9012 39.3689 30.5223 38.5528 36.4055 38.5528C42.3984 38.5528 49.119 39.3996 54.3315 40.9384L54.2483 41.2202C59.1361 38.9857 63.1131 35.8593 65.7058 32.1719H7.16713L6.03678 30.4422H66.7963C68.2383 27.8689 69.0299 25.0678 69.0299 22.1375C69.0299 14.1907 63.2082 7.19405 54.3821 3.11589C49.134 4.66426 42.4181 5.51679 36.4055 5.51679C30.434 5.51679 23.7326 4.67585 18.535 3.1473L18.5595 3.06393C9.67019 7.13445 3.79877 14.1569 3.79877 22.1375C3.79877 30.2237 9.82702 37.3263 18.9149 41.3711Z" fill="#AFAFB6"/>
</svg>
