<svg width="32" height="32" viewBox="0 0 32 32" fill="none" xmlns="http://www.w3.org/2000/svg">
<path fill-rule="evenodd" clip-rule="evenodd" d="M8 4.5C8 3.67157 8.67157 3 9.5 3C10.3284 3 11 3.67157 11 4.5V7H21V4.5C21 3.67157 21.6716 3 22.5 3C23.3284 3 24 3.67157 24 4.5V7H26C27.1046 7 28 7.89543 28 9V11H4V9C4 7.89543 4.89543 7 6 7H8V4.5ZM28 13H4V26C4 27.1046 4.89543 28 6 28H26C27.1046 28 28 27.1046 28 26V13ZM11 17C11 18.1046 10.1046 19 9 19C7.89543 19 7 18.1046 7 17C7 15.8954 7.89543 15 9 15C10.1046 15 11 15.8954 11 17ZM11 23C11 24.1046 10.1046 25 9 25C7.89543 25 7 24.1046 7 23C7 21.8954 7.89543 21 9 21C10.1046 21 11 21.8954 11 23ZM16 19C17.1046 19 18 18.1046 18 17C18 15.8954 17.1046 15 16 15C14.8954 15 14 15.8954 14 17C14 18.1046 14.8954 19 16 19ZM18 23C18 24.1046 17.1046 25 16 25C14.8954 25 14 24.1046 14 23C14 21.8954 14.8954 21 16 21C17.1046 21 18 21.8954 18 23ZM23 19C24.1046 19 25 18.1046 25 17C25 15.8954 24.1046 15 23 15C21.8954 15 21 15.8954 21 17C21 18.1046 21.8954 19 23 19Z" fill="url(#paint0_linear_3168_11383)"/>
<defs>
<linearGradient id="paint0_linear_3168_11383" x1="16" y1="3" x2="16" y2="28" gradientUnits="userSpaceOnUse">
<stop stop-color="#D6D6EC"/>
<stop offset="1" stop-color="#C4C4D6"/>
</linearGradient>
</defs>
</svg>
