<svg width="32" height="32" viewBox="0 0 32 32" fill="none" xmlns="http://www.w3.org/2000/svg">
<path fill-rule="evenodd" clip-rule="evenodd" d="M11.258 24.6673V21.2373C7.63248 19.471 5.33203 15.8613 5.33203 11.834C5.33203 6.04382 10.1178 1.33398 15.9987 1.33398C21.8796 1.33398 26.6654 6.04382 26.6654 11.834C26.6654 15.8625 24.3649 19.471 20.7394 21.2373V24.6673H11.258ZM13.6283 12.5177L11.258 10.1843L9.58211 11.834L13.6283 15.817L15.9987 13.4837L18.3691 15.817L22.4153 11.834L20.7394 10.1843L18.3691 12.5177L15.9987 10.1843L13.6283 12.5177Z" fill="url(#paint0_linear_3168_11381)"/>
<path d="M11.258 28.1673V27.0007H20.7394V28.1673C20.7394 28.8125 20.2085 29.334 19.5543 29.334H12.4431C11.7889 29.334 11.258 28.8125 11.258 28.1673Z" fill="url(#paint1_linear_3168_11381)"/>
<defs>
<linearGradient id="paint0_linear_3168_11381" x1="15.9987" y1="1.33398" x2="15.9987" y2="29.334" gradientUnits="userSpaceOnUse">
<stop stop-color="#D6D6EC"/>
<stop offset="1" stop-color="#C4C4D6"/>
</linearGradient>
<linearGradient id="paint1_linear_3168_11381" x1="15.9987" y1="1.33398" x2="15.9987" y2="29.334" gradientUnits="userSpaceOnUse">
<stop stop-color="#D6D6EC"/>
<stop offset="1" stop-color="#C4C4D6"/>
</linearGradient>
</defs>
</svg>
