<svg width="32" height="32" viewBox="0 0 32 32" fill="none" xmlns="http://www.w3.org/2000/svg">
<path fill-rule="evenodd" clip-rule="evenodd" d="M26.1686 17.6647L31.1579 19.6647C31.4053 19.7635 31.6175 19.9342 31.7669 20.1548C31.9164 20.3753 31.9964 20.6356 31.9966 20.902V26.666C31.9966 27.0196 31.8561 27.3588 31.6061 27.6088C31.356 27.8589 31.0169 27.9993 30.6632 27.9993H21.0846C21.2425 27.5723 21.3255 27.1213 21.3299 26.666V23.5687C21.3322 22.7686 21.0936 21.9864 20.6451 21.3238C20.1965 20.6612 19.5589 20.1491 18.8152 19.854L16.2539 18.83L19.1579 17.6673C19.4053 17.5685 19.6175 17.3978 19.7669 17.1773C19.9164 16.9567 19.9964 16.6964 19.9966 16.43V15.2593C19.1879 14.7953 18.5157 14.1264 18.0476 13.3201C17.5795 12.5138 17.3319 11.5984 17.3299 10.666V8.22868C17.2995 6.78379 17.8444 5.38601 18.8445 4.34282C19.8447 3.29962 21.2184 2.69646 22.6632 2.66602C24.1081 2.69646 25.4817 3.29962 26.4819 4.34282C27.4821 5.38601 28.027 6.78379 27.9966 8.22868V10.666C27.9945 11.5984 27.747 12.5138 27.2789 13.3201C26.8108 14.1264 26.1386 14.7953 25.3299 15.2593V16.43C25.3306 16.696 25.4108 16.9557 25.5603 17.1757C25.7097 17.3957 25.9216 17.566 26.1686 17.6647ZM12.8387 20.3307L17.828 22.3307C18.0754 22.4295 18.2875 22.6002 18.437 22.8208C18.5865 23.0413 18.6665 23.3016 18.6667 23.568V26.6654C18.6667 27.019 18.5262 27.3581 18.2761 27.6082C18.0261 27.8582 17.687 27.9987 17.3333 27.9987H1.33333C0.979711 27.9987 0.640573 27.8582 0.390524 27.6082C0.140476 27.3581 0 27.019 0 26.6654V23.568C0.000700648 23.3021 0.080933 23.0424 0.230384 22.8224C0.379834 22.6023 0.591672 22.432 0.838667 22.3334L5.828 20.3334C6.07542 20.2345 6.28754 20.0638 6.43703 19.8433C6.58651 19.6227 6.6665 19.3625 6.66667 19.096V17.9254C5.858 17.4613 5.1858 16.7924 4.71768 15.9861C4.24956 15.1798 4.00204 14.2644 4 13.332V10.8947C3.96962 9.44981 4.51445 8.05203 5.51464 7.00883C6.51482 5.96564 7.88844 5.36248 9.33333 5.33203C10.7782 5.36248 12.1518 5.96564 13.152 7.00883C14.1522 8.05203 14.697 9.44981 14.6667 10.8947V13.332C14.6646 14.2644 14.4171 15.1798 13.949 15.9861C13.4809 16.7924 12.8087 17.4613 12 17.9254V19.096C12.0007 19.362 12.0809 19.6217 12.2304 19.8417C12.3798 20.0617 12.5917 20.232 12.8387 20.3307Z" fill="url(#paint0_linear_3168_11377)"/>
<defs>
<linearGradient id="paint0_linear_3168_11377" x1="16.5142" y1="2.66602" x2="16.5142" y2="27.2317" gradientUnits="userSpaceOnUse">
<stop stop-color="#D6D6EC"/>
<stop offset="1" stop-color="#C4C4D6"/>
</linearGradient>
</defs>
</svg>
