<svg width="40" height="40" viewBox="0 0 40 40" fill="none" xmlns="http://www.w3.org/2000/svg">
<path fill-rule="evenodd" clip-rule="evenodd" d="M6.8225 33.6026C7.078 33.8681 7.414 34 7.75 34C8.086 34 8.422 33.8663 8.6775 33.6026L33.1793 8.31365C33.692 7.78435 33.692 6.92627 33.1793 6.39697C32.6665 5.86768 31.8353 5.86768 31.3225 6.39697L25.25 12.665V11.8706C25.25 8.88269 22.8945 6.45117 20 6.45117C17.1055 6.45117 14.75 8.88269 14.75 11.8706V12.9852C13.49 13.3573 12.4523 14.2353 11.8415 15.4041C10.256 15.0609 9.0625 13.6066 9.0625 11.8706C9.0625 11.1227 8.4745 10.5158 7.75 10.5158C7.0255 10.5158 6.4375 11.1227 6.4375 11.8706C6.4375 14.891 8.5025 17.4165 11.25 18.0397V19.9998H7.3125C6.588 19.9998 6 20.6068 6 21.3546C6 22.1025 6.588 22.7095 7.3125 22.7095H11.25V23.6127C11.25 24.6606 11.4334 25.6597 11.76 26.5894L6.8225 31.6859C6.30975 32.2152 6.30975 33.0733 6.8225 33.6026ZM22.625 11.8706C22.625 10.3767 21.4473 9.16089 20 9.16089C18.5528 9.16089 17.375 10.3767 17.375 11.8706V12.7739H22.625V11.8706Z" fill="url(#paint0_linear_2870_12607)"/>
<path d="M18.6875 27.101V32.5078C17.3155 32.2911 16.0643 31.7238 14.9758 30.9326L18.6875 27.101Z" fill="url(#paint1_linear_2870_12607)"/>
<path d="M28.75 22.7095H32.6875C33.412 22.7095 34 22.1025 34 21.3546C34 20.6068 33.412 19.9998 32.6875 19.9998H28.75V17.7417C28.75 17.4219 28.715 17.1112 28.659 16.8095L21.3125 24.3931V32.5097C24.291 32.0418 26.7585 30.0203 27.9573 27.2817C29.639 27.5436 30.9375 29.0322 30.9375 30.8405C30.9375 31.5883 31.5255 32.1953 32.25 32.1953C32.9745 32.1953 33.5625 31.5883 33.5625 30.8405C33.5625 27.7857 31.452 25.2313 28.659 24.646C28.6671 24.5739 28.6759 24.502 28.6847 24.4301C28.7173 24.1618 28.75 23.8938 28.75 23.6145V22.7095Z" fill="url(#paint2_linear_2870_12607)"/>
<defs>
<linearGradient id="paint0_linear_2870_12607" x1="20" y1="6" x2="20" y2="34" gradientUnits="userSpaceOnUse">
<stop stop-color="#D6D6EC"/>
<stop offset="1" stop-color="#C4C4D6"/>
</linearGradient>
<linearGradient id="paint1_linear_2870_12607" x1="20" y1="6" x2="20" y2="34" gradientUnits="userSpaceOnUse">
<stop stop-color="#D6D6EC"/>
<stop offset="1" stop-color="#C4C4D6"/>
</linearGradient>
<linearGradient id="paint2_linear_2870_12607" x1="20" y1="6" x2="20" y2="34" gradientUnits="userSpaceOnUse">
<stop stop-color="#D6D6EC"/>
<stop offset="1" stop-color="#C4C4D6"/>
</linearGradient>
</defs>
</svg>
