<svg width="40" height="40" viewBox="0 0 40 40" fill="none" xmlns="http://www.w3.org/2000/svg">
<path fill-rule="evenodd" clip-rule="evenodd" d="M14 4.97082C14 4.43465 14.4362 4 14.9743 4H30.1338C30.3903 4 30.6364 4.10077 30.8188 4.28043L34.7101 8.11401C34.8952 8.29638 34.9994 8.54499 34.9994 8.80439L35.0002 31.0234C35.0002 31.5596 34.5641 31.9943 34.026 31.9943H14.9751C14.437 31.9943 14.0008 31.5596 14.0008 31.0234L14 4.97082ZM18 12C18 11.4477 18.4477 11 19 11H30C30.5523 11 31 11.4477 31 12C31 12.5523 30.5523 13 30 13H19C18.4477 13 18 12.5523 18 12ZM18 16C18 15.4477 18.4477 15 19 15H30C30.5523 15 31 15.4477 31 16C31 16.5523 30.5523 17 30 17H19C18.4477 17 18 16.5523 18 16ZM18 20C18 19.4477 18.4477 19 19 19H30C30.5523 19 31 19.4477 31 20C31 20.5523 30.5523 21 30 21H19C18.4477 21 18 20.5523 18 20ZM18 24C18 23.4477 18.4477 23 19 23H30C30.5523 23 31 23.4477 31 24C31 24.5523 30.5523 25 30 25H19C18.4477 25 18 24.5523 18 24ZM11 37.0003L4.0334 10.9408C3.89856 10.4393 4.18352 9.9209 4.6802 9.76408L12 7.42773V32C12 33.1046 12.8954 34 14 34H26L12.1932 37.6868C11.6735 37.8256 11.1393 37.5182 11 37.0003Z" fill="url(#paint0_linear_2870_12628)"/>
<defs>
<linearGradient id="paint0_linear_2870_12628" x1="20" y1="4" x2="20" y2="36" gradientUnits="userSpaceOnUse">
<stop stop-color="#D6D6EC"/>
<stop offset="1" stop-color="#C4C4D6"/>
</linearGradient>
</defs>
</svg>
