<svg width="40" height="40" viewBox="0 0 40 40" fill="none" xmlns="http://www.w3.org/2000/svg">
<path d="M13 8.5C13 4.91015 15.9101 2 19.5 2C23.0899 2 26 4.91015 26 8.5V20.5C26 24.0899 23.0899 27 19.5 27C15.9101 27 13 24.0899 13 20.5V8.5Z" fill="url(#paint0_linear_2870_12605)"/>
<path d="M8.5 20C8.5 25.7419 13.3666 30.5 19.5 30.5C25.6334 30.5 30.5 25.7419 30.5 20H33.5C33.5 27.513 27.1737 33.5 19.5 33.5C11.8263 33.5 5.5 27.513 5.5 20H8.5Z" fill="url(#paint1_linear_2870_12605)"/>
<path d="M16 35.5V38.5H23V35.5H16Z" fill="url(#paint2_linear_2870_12605)"/>
<defs>
<linearGradient id="paint0_linear_2870_12605" x1="19.5" y1="2" x2="19.5" y2="38.5" gradientUnits="userSpaceOnUse">
<stop stop-color="#D6D6EC"/>
<stop offset="1" stop-color="#C4C4D6"/>
</linearGradient>
<linearGradient id="paint1_linear_2870_12605" x1="19.5" y1="2" x2="19.5" y2="38.5" gradientUnits="userSpaceOnUse">
<stop stop-color="#D6D6EC"/>
<stop offset="1" stop-color="#C4C4D6"/>
</linearGradient>
<linearGradient id="paint2_linear_2870_12605" x1="19.5" y1="2" x2="19.5" y2="38.5" gradientUnits="userSpaceOnUse">
<stop stop-color="#D6D6EC"/>
<stop offset="1" stop-color="#C4C4D6"/>
</linearGradient>
</defs>
</svg>
