<svg width="36" height="36" viewBox="0 0 36 36" fill="none" xmlns="http://www.w3.org/2000/svg">
<path d="M29.8137 9.62081C22.6102 6.22383 16.6072 13.2176 13.8058 9.62081C12.8053 8.22205 15.2065 5.62436 13.8058 3.82596C12.8053 2.62703 10.4041 2.82685 9.00345 3.82596C4.80138 6.8233 2 11.619 2 17.0142C2 25.8064 9.20355 33 18.0079 33C25.4115 33 31.6146 28.0044 33.4155 21.2105C34.2159 19.0124 35.0163 12.2185 29.8137 9.62081ZM8.00296 18.0133C6.80237 18.0133 6.00197 17.214 6.00197 16.0151C6.00197 14.8162 6.80237 14.0169 8.00296 14.0169C9.20355 14.0169 10.0039 14.8162 10.0039 16.0151C10.0039 17.214 9.20355 18.0133 8.00296 18.0133ZM12.0049 26.0062C10.8043 26.0062 10.0039 25.2069 10.0039 24.008C10.0039 22.8091 10.8043 22.0098 12.0049 22.0098C13.2055 22.0098 14.0059 22.8091 14.0059 24.008C14.0059 25.2069 13.2055 26.0062 12.0049 26.0062ZM20.0089 30.0027C18.8083 30.0027 18.0079 29.2034 18.0079 28.0044C18.0079 26.8055 18.8083 26.0062 20.0089 26.0062C21.2095 26.0062 22.0099 26.8055 22.0099 28.0044C22.0099 29.2034 21.2095 30.0027 20.0089 30.0027ZM26.0118 22.0098C23.8107 22.0098 22.0099 20.2114 22.0099 18.0133C22.0099 15.8153 23.8107 14.0169 26.0118 14.0169C28.2129 14.0169 30.0138 15.8153 30.0138 18.0133C30.0138 20.2114 28.2129 22.0098 26.0118 22.0098Z" fill="url(#paint0_linear_2870_12599)"/>
<defs>
<linearGradient id="paint0_linear_2870_12599" x1="18" y1="3" x2="18" y2="33" gradientUnits="userSpaceOnUse">
<stop stop-color="#D6D6EC"/>
<stop offset="1" stop-color="#C4C4D6"/>
</linearGradient>
</defs>
</svg>
