<svg width="40" height="40" viewBox="0 0 40 40" fill="none" xmlns="http://www.w3.org/2000/svg">
  <g clip-path="url(#clip0_1950_13963)">
    <path fill-rule="evenodd" clip-rule="evenodd"
      d="M0.664062 2.66406C0.664062 1.55949 1.55949 0.664062 2.66406 0.664062H8.33073C8.88301 0.664062 9.33073 1.11178 9.33073 1.66406C9.33073 2.21635 8.88301 2.66406 8.33073 2.66406L2.66406 2.66406V8.33073C2.66406 8.88301 2.21635 9.33073 1.66406 9.33073C1.11178 9.33073 0.664062 8.88301 0.664062 8.33073V2.66406ZM14.332 11.6667C14.332 8.53728 16.8693 6 19.9987 6C23.1281 6 25.6654 8.53728 25.6654 11.6667C25.6654 13.2492 25.0177 14.8984 23.9517 16.1484C22.8873 17.3967 21.48 18.1667 19.9987 18.1667C18.5173 18.1667 17.1101 17.3967 16.0456 16.1484C14.9797 14.8984 14.332 13.2492 14.332 11.6667ZM19.9987 4C15.7647 4 12.332 7.43272 12.332 11.6667C12.332 13.7658 13.1769 15.8666 14.5238 17.4462C15.8723 19.0275 17.7984 20.1667 19.9987 20.1667C22.199 20.1667 24.1251 19.0275 25.4736 17.4462C26.8205 15.8666 27.6654 13.7658 27.6654 11.6667C27.6654 7.43272 24.2327 4 19.9987 4ZM11.7916 25.7816C13.5616 25.0479 16.2473 24.332 19.9987 24.332C23.7501 24.332 26.4358 25.0479 28.2058 25.7816L28.2059 25.7817C29.6975 26.3998 30.6654 27.8564 30.6654 29.4779V30.6654H9.33203V29.4779C9.33203 27.8564 10.2999 26.3998 11.7915 25.7817L11.7916 25.7816ZM19.9987 22.332C15.9852 22.332 13.0393 23.0994 11.0259 23.934L11.0258 23.9341C8.78076 24.8644 7.33203 27.0544 7.33203 29.4779V30.6654C7.33203 31.7699 8.22746 32.6654 9.33203 32.6654H30.6654C31.7699 32.6654 32.6654 31.7699 32.6654 30.6654V29.4779C32.6654 27.0543 31.2166 24.8643 28.9715 23.934C26.9581 23.0994 24.0122 22.332 19.9987 22.332ZM31.6641 0.664062C31.1118 0.664062 30.6641 1.11178 30.6641 1.66406C30.6641 2.21635 31.1118 2.66406 31.6641 2.66406H37.3307V8.33073C37.3307 8.88301 37.7784 9.33073 38.3307 9.33073C38.883 9.33073 39.3307 8.88301 39.3307 8.33073V2.66406C39.3307 1.55949 38.4353 0.664062 37.3307 0.664062H31.6641ZM1.66406 30.6641C2.21635 30.6641 2.66406 31.1118 2.66406 31.6641V37.3307H8.33073C8.88301 37.3307 9.33073 37.7784 9.33073 38.3307C9.33073 38.883 8.88301 39.3307 8.33073 39.3307H2.66406C1.55949 39.3307 0.664062 38.4353 0.664062 37.3307V31.6641C0.664062 31.1118 1.11178 30.6641 1.66406 30.6641ZM39.3307 31.6641C39.3307 31.1118 38.883 30.6641 38.3307 30.6641C37.7784 30.6641 37.3307 31.1118 37.3307 31.6641V37.3307H31.6641C31.1118 37.3307 30.6641 37.7784 30.6641 38.3307C30.6641 38.883 31.1118 39.3307 31.6641 39.3307H37.3307C38.4353 39.3307 39.3307 38.4353 39.3307 37.3307V31.6641Z"
      fill="#212121" />
    <path fill-rule="evenodd" clip-rule="evenodd"
      d="M0.664062 2.66406C0.664062 1.55949 1.55949 0.664062 2.66406 0.664062H8.33073C8.88301 0.664062 9.33073 1.11178 9.33073 1.66406C9.33073 2.21635 8.88301 2.66406 8.33073 2.66406L2.66406 2.66406V8.33073C2.66406 8.88301 2.21635 9.33073 1.66406 9.33073C1.11178 9.33073 0.664062 8.88301 0.664062 8.33073V2.66406ZM14.332 11.6667C14.332 8.53728 16.8693 6 19.9987 6C23.1281 6 25.6654 8.53728 25.6654 11.6667C25.6654 13.2492 25.0177 14.8984 23.9517 16.1484C22.8873 17.3967 21.48 18.1667 19.9987 18.1667C18.5173 18.1667 17.1101 17.3967 16.0456 16.1484C14.9797 14.8984 14.332 13.2492 14.332 11.6667ZM19.9987 4C15.7647 4 12.332 7.43272 12.332 11.6667C12.332 13.7658 13.1769 15.8666 14.5238 17.4462C15.8723 19.0275 17.7984 20.1667 19.9987 20.1667C22.199 20.1667 24.1251 19.0275 25.4736 17.4462C26.8205 15.8666 27.6654 13.7658 27.6654 11.6667C27.6654 7.43272 24.2327 4 19.9987 4ZM11.7916 25.7816C13.5616 25.0479 16.2473 24.332 19.9987 24.332C23.7501 24.332 26.4358 25.0479 28.2058 25.7816L28.2059 25.7817C29.6975 26.3998 30.6654 27.8564 30.6654 29.4779V30.6654H9.33203V29.4779C9.33203 27.8564 10.2999 26.3998 11.7915 25.7817L11.7916 25.7816ZM19.9987 22.332C15.9852 22.332 13.0393 23.0994 11.0259 23.934L11.0258 23.9341C8.78076 24.8644 7.33203 27.0544 7.33203 29.4779V30.6654C7.33203 31.7699 8.22746 32.6654 9.33203 32.6654H30.6654C31.7699 32.6654 32.6654 31.7699 32.6654 30.6654V29.4779C32.6654 27.0543 31.2166 24.8643 28.9715 23.934C26.9581 23.0994 24.0122 22.332 19.9987 22.332ZM31.6641 0.664062C31.1118 0.664062 30.6641 1.11178 30.6641 1.66406C30.6641 2.21635 31.1118 2.66406 31.6641 2.66406H37.3307V8.33073C37.3307 8.88301 37.7784 9.33073 38.3307 9.33073C38.883 9.33073 39.3307 8.88301 39.3307 8.33073V2.66406C39.3307 1.55949 38.4353 0.664062 37.3307 0.664062H31.6641ZM1.66406 30.6641C2.21635 30.6641 2.66406 31.1118 2.66406 31.6641V37.3307H8.33073C8.88301 37.3307 9.33073 37.7784 9.33073 38.3307C9.33073 38.883 8.88301 39.3307 8.33073 39.3307H2.66406C1.55949 39.3307 0.664062 38.4353 0.664062 37.3307V31.6641C0.664062 31.1118 1.11178 30.6641 1.66406 30.6641ZM39.3307 31.6641C39.3307 31.1118 38.883 30.6641 38.3307 30.6641C37.7784 30.6641 37.3307 31.1118 37.3307 31.6641V37.3307H31.6641C31.1118 37.3307 30.6641 37.7784 30.6641 38.3307C30.6641 38.883 31.1118 39.3307 31.6641 39.3307H37.3307C38.4353 39.3307 39.3307 38.4353 39.3307 37.3307V31.6641Z"
      fill="url(#paint0_linear_1950_13963)" />
  </g>
  <defs>
    <linearGradient id="paint0_linear_1950_13963" x1="20.3795" y1="0.664063" x2="20.3795" y2="39.3313"
      gradientUnits="userSpaceOnUse">
      <stop stop-color="#C7C7D1" />
      <stop offset="1" stop-color="#66666B" />
    </linearGradient>
    <clipPath id="clip0_1950_13963">
      <rect width="40" height="40" fill="white" />
    </clipPath>
  </defs>
</svg>