<svg width="862" height="338" viewBox="0 0 862 338" fill="none" xmlns="http://www.w3.org/2000/svg">
<rect x="0.5" y="0.5" width="861" height="337" rx="8.5" fill="#18181B"/>
<rect x="0.5" y="0.5" width="861" height="337" rx="8.5" stroke="url(#paint0_linear_21_451)"/>
<rect x="0.5" y="0.5" width="861" height="337" rx="8.5" stroke="url(#paint1_linear_21_451)" stroke-opacity="0.4"/>
<mask id="mask0_21_451" style="mask-type:alpha" maskUnits="userSpaceOnUse" x="1" y="1" width="860" height="336">
<rect x="1.5" y="1.5" width="859" height="335" rx="7.5" fill="#1B1B1D"/>
<rect x="1.5" y="1.5" width="859" height="335" rx="7.5" fill="url(#paint2_radial_21_451)" fill-opacity="0.09"/>
<rect x="1.5" y="1.5" width="859" height="335" rx="7.5" stroke="url(#paint3_linear_21_451)"/>
<rect x="1.5" y="1.5" width="859" height="335" rx="7.5" stroke="url(#paint4_linear_21_451)" stroke-opacity="0.5"/>
</mask>
<g mask="url(#mask0_21_451)">
<path d="M456.95 23.8182V34H456.045L450.029 25.4737H449.95V34H449.02V23.8182H449.92L455.956 32.3544H456.035V23.8182H456.95ZM464.325 31.0817V26.3636H465.21V34H464.325V32.7322H464.256C464.077 33.1233 463.793 33.4498 463.406 33.7116C463.018 33.9702 462.544 34.0994 461.984 34.0994C461.496 34.0994 461.064 33.9934 460.686 33.7812C460.308 33.5658 460.012 33.2509 459.796 32.8366C459.581 32.4223 459.473 31.9136 459.473 31.3104V26.3636H460.358V31.2557C460.358 31.8523 460.534 32.3329 460.885 32.6974C461.236 33.0587 461.687 33.2393 462.237 33.2393C462.582 33.2393 462.913 33.1565 463.232 32.9908C463.55 32.825 463.812 32.5831 464.017 32.2649C464.223 31.9434 464.325 31.549 464.325 31.0817ZM467.553 34V26.3636H468.413V27.5369H468.493C468.645 27.1425 468.899 26.8326 469.253 26.6072C469.611 26.3786 470.041 26.2642 470.541 26.2642C471.068 26.2642 471.501 26.3885 471.839 26.6371C472.18 26.8823 472.435 27.2204 472.604 27.6513H472.669C472.841 27.227 473.121 26.8906 473.509 26.642C473.9 26.3902 474.374 26.2642 474.931 26.2642C475.64 26.2642 476.2 26.4879 476.611 26.9354C477.022 27.3795 477.228 28.0291 477.228 28.8842V34H476.343V28.8842C476.343 28.281 476.189 27.8286 475.881 27.527C475.572 27.2254 475.166 27.0746 474.662 27.0746C474.079 27.0746 473.63 27.2536 473.315 27.6115C473 27.9695 472.843 28.4235 472.843 28.9737V34H471.938V28.8047C471.938 28.2876 471.794 27.87 471.506 27.5518C471.217 27.2337 470.811 27.0746 470.287 27.0746C469.936 27.0746 469.62 27.1607 469.338 27.3331C469.059 27.5054 468.839 27.7457 468.677 28.054C468.518 28.3589 468.438 28.7102 468.438 29.108V34H467.553ZM479.755 34V23.8182H480.645V27.8203H480.724C480.824 27.5916 480.966 27.3563 481.152 27.1143C481.341 26.8724 481.587 26.6702 481.892 26.5078C482.201 26.3421 482.588 26.2592 483.056 26.2592C483.682 26.2592 484.232 26.425 484.706 26.7564C485.18 27.0845 485.55 27.5452 485.815 28.1385C486.08 28.7285 486.213 29.4162 486.213 30.2017C486.213 30.9905 486.08 31.6816 485.815 32.2749C485.553 32.8681 485.185 33.3305 484.711 33.6619C484.241 33.9934 483.694 34.1591 483.071 34.1591C482.607 34.1591 482.219 34.0762 481.907 33.9105C481.599 33.7448 481.35 33.541 481.162 33.299C480.973 33.0537 480.827 32.8151 480.724 32.5831H480.615V34H479.755ZM480.63 30.1868C480.63 30.8033 480.721 31.3501 480.903 31.8274C481.089 32.3014 481.354 32.6742 481.699 32.946C482.047 33.2145 482.467 33.3487 482.961 33.3487C483.468 33.3487 483.898 33.2095 484.249 32.9311C484.6 32.6494 484.867 32.2699 485.049 31.7926C485.232 31.3153 485.323 30.7801 485.323 30.1868C485.323 29.6001 485.232 29.0715 485.049 28.6009C484.87 28.1302 484.605 27.7573 484.254 27.4822C483.903 27.2038 483.472 27.0646 482.961 27.0646C482.464 27.0646 482.042 27.1989 481.694 27.4673C481.349 27.7325 481.085 28.1004 480.903 28.571C480.721 29.0384 480.63 29.5769 480.63 30.1868ZM491.244 34.1591C490.531 34.1591 489.915 33.9934 489.395 33.6619C488.874 33.3272 488.471 32.8648 488.186 32.2749C487.905 31.6816 487.764 30.9988 487.764 30.2266C487.764 29.4576 487.905 28.7749 488.186 28.1783C488.471 27.5784 488.864 27.1094 489.365 26.7713C489.868 26.4299 490.45 26.2592 491.11 26.2592C491.524 26.2592 491.923 26.3355 492.308 26.4879C492.692 26.6371 493.037 26.8674 493.342 27.179C493.65 27.4872 493.894 27.8767 494.073 28.3473C494.252 28.8146 494.341 29.3681 494.341 30.0078V30.4453H488.375V29.6648H493.436C493.436 29.1742 493.337 28.7334 493.138 28.3423C492.943 27.9479 492.669 27.6364 492.318 27.4077C491.97 27.179 491.567 27.0646 491.11 27.0646C490.626 27.0646 490.2 27.1939 489.832 27.4524C489.464 27.7109 489.176 28.0523 488.967 28.4766C488.761 28.9008 488.657 29.3648 488.654 29.8686V30.3359C488.654 30.9425 488.758 31.4728 488.967 31.9268C489.179 32.3776 489.479 32.7273 489.867 32.9759C490.255 33.2244 490.714 33.3487 491.244 33.3487C491.605 33.3487 491.922 33.2924 492.194 33.1797C492.469 33.067 492.699 32.9162 492.885 32.7273C493.074 32.535 493.216 32.3246 493.312 32.0959L494.152 32.3693C494.036 32.6908 493.846 32.9875 493.581 33.2592C493.319 33.531 492.991 33.7498 492.596 33.9155C492.205 34.0779 491.754 34.1591 491.244 34.1591ZM496.291 34V26.3636H497.151V27.5369H497.216C497.369 27.1525 497.634 26.8426 498.012 26.6072C498.393 26.3686 498.824 26.2493 499.304 26.2493C499.377 26.2493 499.458 26.2509 499.548 26.2543C499.637 26.2576 499.712 26.2609 499.771 26.2642V27.1641C499.732 27.1574 499.662 27.1475 499.563 27.1342C499.463 27.121 499.356 27.1143 499.24 27.1143C498.842 27.1143 498.487 27.1989 498.176 27.3679C497.867 27.5336 497.624 27.764 497.445 28.0589C497.266 28.3539 497.176 28.6903 497.176 29.0682V34H496.291ZM508.187 34.1591C507.528 34.1591 506.944 33.9917 506.437 33.657C505.933 33.3222 505.539 32.8598 505.254 32.2699C504.969 31.6766 504.826 30.9922 504.826 30.2166C504.826 29.4344 504.969 28.7467 505.254 28.1534C505.539 27.5568 505.933 27.0928 506.437 26.7614C506.944 26.4266 507.528 26.2592 508.187 26.2592C508.847 26.2592 509.428 26.4266 509.932 26.7614C510.436 27.0961 510.83 27.5601 511.115 28.1534C511.404 28.7467 511.548 29.4344 511.548 30.2166C511.548 30.9922 511.405 31.6766 511.12 32.2699C510.835 32.8598 510.439 33.3222 509.932 33.657C509.428 33.9917 508.847 34.1591 508.187 34.1591ZM508.187 33.3487C508.717 33.3487 509.167 33.2062 509.534 32.9212C509.902 32.6361 510.181 32.2566 510.37 31.7827C510.562 31.3087 510.658 30.7867 510.658 30.2166C510.658 29.6465 510.562 29.1229 510.37 28.6456C510.181 28.1683 509.902 27.7855 509.534 27.4972C509.167 27.2088 508.717 27.0646 508.187 27.0646C507.66 27.0646 507.211 27.2088 506.84 27.4972C506.472 27.7855 506.192 28.1683 506 28.6456C505.811 29.1229 505.716 29.6465 505.716 30.2166C505.716 30.7867 505.811 31.3087 506 31.7827C506.192 32.2566 506.472 32.6361 506.84 32.9212C507.208 33.2062 507.657 33.3487 508.187 33.3487ZM516.633 26.3636V27.1342H512.879V26.3636H516.633ZM514.052 34V25.245C514.052 24.834 514.147 24.4877 514.336 24.206C514.528 23.9242 514.778 23.7105 515.086 23.5646C515.395 23.4188 515.721 23.3459 516.066 23.3459C516.298 23.3459 516.49 23.3658 516.643 23.4055C516.798 23.442 516.921 23.4785 517.01 23.5149L516.752 24.2905C516.686 24.2706 516.604 24.2474 516.508 24.2209C516.412 24.1944 516.291 24.1811 516.145 24.1811C515.761 24.1811 515.464 24.2888 515.256 24.5043C515.047 24.7197 514.942 25.0279 514.942 25.429L514.937 34H514.052ZM522.336 36.8636V26.3636H523.196V27.8203H523.301C523.407 27.5916 523.553 27.358 523.738 27.1193C523.924 26.8774 524.169 26.6735 524.474 26.5078C524.782 26.3421 525.17 26.2592 525.637 26.2592C526.267 26.2592 526.817 26.425 527.288 26.7564C527.762 27.0845 528.13 27.5452 528.392 28.1385C528.657 28.7285 528.789 29.4162 528.789 30.2017C528.789 30.9905 528.657 31.6816 528.392 32.2749C528.13 32.8681 527.762 33.3305 527.288 33.6619C526.817 33.9934 526.27 34.1591 525.647 34.1591C525.187 34.1591 524.801 34.0762 524.489 33.9105C524.181 33.7448 523.931 33.541 523.738 33.299C523.549 33.0537 523.404 32.8151 523.301 32.5831H523.221V36.8636H522.336ZM523.211 30.1868C523.211 30.8033 523.302 31.3501 523.485 31.8274C523.67 32.3014 523.935 32.6742 524.28 32.946C524.628 33.2145 525.049 33.3487 525.543 33.3487C526.05 33.3487 526.478 33.2095 526.826 32.9311C527.177 32.6494 527.444 32.2699 527.626 31.7926C527.812 31.3153 527.904 30.7801 527.904 30.1868C527.904 29.6001 527.813 29.0715 527.631 28.6009C527.452 28.1302 527.187 27.7573 526.836 27.4822C526.484 27.2038 526.053 27.0646 525.543 27.0646C525.046 27.0646 524.623 27.1989 524.275 27.4673C523.927 27.7325 523.662 28.1004 523.48 28.571C523.301 29.0384 523.211 29.5769 523.211 30.1868ZM533.699 34.1591C533.039 34.1591 532.456 33.9917 531.949 33.657C531.445 33.3222 531.051 32.8598 530.766 32.2699C530.481 31.6766 530.338 30.9922 530.338 30.2166C530.338 29.4344 530.481 28.7467 530.766 28.1534C531.051 27.5568 531.445 27.0928 531.949 26.7614C532.456 26.4266 533.039 26.2592 533.699 26.2592C534.358 26.2592 534.94 26.4266 535.444 26.7614C535.948 27.0961 536.342 27.5601 536.627 28.1534C536.915 28.7467 537.06 29.4344 537.06 30.2166C537.06 30.9922 536.917 31.6766 536.632 32.2699C536.347 32.8598 535.951 33.3222 535.444 33.657C534.94 33.9917 534.358 34.1591 533.699 34.1591ZM533.699 33.3487C534.229 33.3487 534.678 33.2062 535.046 32.9212C535.414 32.6361 535.692 32.2566 535.881 31.7827C536.074 31.3087 536.17 30.7867 536.17 30.2166C536.17 29.6465 536.074 29.1229 535.881 28.6456C535.692 28.1683 535.414 27.7855 535.046 27.4972C534.678 27.2088 534.229 27.0646 533.699 27.0646C533.172 27.0646 532.723 27.2088 532.352 27.4972C531.984 27.7855 531.704 28.1683 531.511 28.6456C531.322 29.1229 531.228 29.6465 531.228 30.2166C531.228 30.7867 531.322 31.3087 531.511 31.7827C531.704 32.2566 531.984 32.6361 532.352 32.9212C532.719 33.2062 533.169 33.3487 533.699 33.3487ZM539.012 34V26.3636H539.902V34H539.012ZM539.465 25.0511C539.282 25.0511 539.127 24.9898 538.997 24.8672C538.868 24.7412 538.803 24.5904 538.803 24.4148C538.803 24.2391 538.868 24.09 538.997 23.9673C539.127 23.8414 539.282 23.7784 539.465 23.7784C539.647 23.7784 539.803 23.8414 539.932 23.9673C540.061 24.09 540.126 24.2391 540.126 24.4148C540.126 24.5904 540.061 24.7412 539.932 24.8672C539.803 24.9898 539.647 25.0511 539.465 25.0511ZM543.127 29.2273V34H542.243V26.3636H543.103V27.5618H543.182C543.361 27.1707 543.64 26.8575 544.017 26.6222C544.399 26.3835 544.869 26.2642 545.429 26.2642C545.943 26.2642 546.394 26.3719 546.782 26.5874C547.173 26.7995 547.476 27.1127 547.691 27.527C547.91 27.9413 548.02 28.45 548.02 29.0533V34H547.135V29.108C547.135 28.4815 546.959 27.986 546.608 27.6214C546.26 27.2569 545.792 27.0746 545.206 27.0746C544.805 27.0746 544.448 27.1607 544.137 27.3331C543.825 27.5054 543.578 27.754 543.396 28.0788C543.217 28.4003 543.127 28.7831 543.127 29.2273ZM553.358 26.3636V27.1342H549.714V26.3636H553.358ZM550.852 24.5341H551.742V32.0064C551.742 32.3246 551.797 32.5748 551.906 32.7571C552.015 32.9361 552.158 33.0637 552.334 33.1399C552.509 33.2128 552.697 33.2493 552.895 33.2493C553.011 33.2493 553.111 33.2427 553.194 33.2294C553.277 33.2128 553.349 33.1963 553.412 33.1797L553.601 33.9801C553.515 34.0133 553.409 34.0431 553.283 34.0696C553.157 34.0994 553.001 34.1143 552.816 34.1143C552.491 34.1143 552.178 34.0431 551.876 33.9006C551.578 33.758 551.333 33.5459 551.14 33.2642C550.948 32.9825 550.852 32.6328 550.852 32.2152V24.5341ZM560.362 28.0391L559.551 28.2678C559.472 28.0391 559.359 27.8319 559.213 27.6463C559.067 27.4607 558.877 27.3132 558.641 27.2038C558.409 27.0945 558.121 27.0398 557.776 27.0398C557.259 27.0398 556.835 27.1624 556.504 27.4077C556.172 27.6529 556.006 27.9695 556.006 28.3572C556.006 28.6854 556.119 28.9522 556.344 29.1577C556.573 29.3598 556.924 29.5206 557.398 29.6399L558.552 29.9233C559.192 30.0791 559.67 30.326 559.989 30.6641C560.31 31.0021 560.471 31.4264 560.471 31.9368C560.471 32.3677 560.352 32.7505 560.113 33.0852C559.874 33.42 559.541 33.6835 559.114 33.8757C558.689 34.0646 558.197 34.1591 557.637 34.1591C556.891 34.1591 556.277 33.9917 555.793 33.657C555.309 33.3189 554.999 32.8317 554.863 32.1953L555.713 31.9865C555.822 32.4406 556.036 32.7836 556.354 33.0156C556.676 33.2476 557.098 33.3636 557.622 33.3636C558.209 33.3636 558.678 33.2327 559.029 32.9709C559.38 32.7057 559.556 32.3743 559.556 31.9766C559.556 31.6683 559.453 31.4098 559.248 31.201C559.042 30.9889 558.731 30.8331 558.313 30.7337L557.065 30.4354C556.402 30.2763 555.912 30.0244 555.594 29.6797C555.276 29.335 555.116 28.9074 555.116 28.397C555.116 27.9761 555.231 27.6065 555.46 27.2884C555.688 26.9669 556.003 26.715 556.404 26.5327C556.805 26.3504 557.263 26.2592 557.776 26.2592C558.476 26.2592 559.034 26.4183 559.452 26.7365C559.873 27.0514 560.176 27.4856 560.362 28.0391ZM563.115 33.8061C562.919 33.8061 562.75 33.7365 562.607 33.5973C562.468 33.4581 562.399 33.2891 562.399 33.0902C562.399 32.8946 562.468 32.7273 562.607 32.5881C562.75 32.4455 562.919 32.3743 563.115 32.3743C563.313 32.3743 563.482 32.4455 563.622 32.5881C563.761 32.7273 563.83 32.8946 563.83 33.0902C563.83 33.2228 563.797 33.3438 563.731 33.4531C563.668 33.5592 563.582 33.6454 563.472 33.7116C563.366 33.7746 563.247 33.8061 563.115 33.8061ZM563.115 28.2976C562.919 28.2976 562.75 28.228 562.607 28.0888C562.468 27.9496 562.399 27.7805 562.399 27.5817C562.399 27.3861 562.468 27.2187 562.607 27.0795C562.75 26.937 562.919 26.8658 563.115 26.8658C563.313 26.8658 563.482 26.937 563.622 27.0795C563.761 27.2187 563.83 27.3861 563.83 27.5817C563.83 27.7143 563.797 27.8352 563.731 27.9446C563.668 28.0507 563.582 28.1368 563.472 28.2031C563.366 28.2661 563.247 28.2976 563.115 28.2976Z" fill="#AFAFB6"/>
<path d="M575.276 23.8182V34H574.346V24.7926H574.286L571.9 26.3786V25.4141L574.306 23.8182H575.276ZM581.346 34.1392C580.779 34.1392 580.272 34.0249 579.825 33.7962C579.38 33.5642 579.026 33.246 578.761 32.8416C578.499 32.4373 578.36 31.9749 578.343 31.4545H579.243C579.273 31.9948 579.485 32.4389 579.879 32.7869C580.274 33.1316 580.763 33.304 581.346 33.304C581.8 33.304 582.204 33.1963 582.559 32.9808C582.914 32.7621 583.19 32.4638 583.389 32.0859C583.591 31.7048 583.692 31.2756 583.692 30.7983C583.689 30.3011 583.581 29.8636 583.369 29.4858C583.157 29.1046 582.869 28.8063 582.504 28.5909C582.143 28.3755 581.737 28.2678 581.286 28.2678C580.945 28.2644 580.61 28.3208 580.282 28.4368C579.954 28.5528 579.68 28.7019 579.462 28.8842L578.532 28.7649L579.143 23.8182H584.175V24.6534H579.924L579.516 28.0589H579.566C579.791 27.87 580.065 27.7159 580.386 27.5966C580.711 27.4773 581.054 27.4176 581.415 27.4176C582.015 27.4176 582.554 27.5618 583.031 27.8501C583.512 28.1385 583.891 28.5362 584.17 29.0433C584.451 29.5471 584.592 30.1271 584.592 30.7834C584.592 31.4264 584.451 32.0014 584.17 32.5085C583.891 33.0123 583.507 33.41 583.016 33.7017C582.529 33.9934 581.972 34.1392 581.346 34.1392ZM589.87 34.1392C589.154 34.1392 588.542 33.9337 588.035 33.5227C587.531 33.1084 587.144 32.5102 586.872 31.728C586.603 30.9458 586.469 30.0062 586.469 28.9091C586.469 27.8153 586.603 26.879 586.872 26.1001C587.144 25.3179 587.533 24.7197 588.04 24.3054C588.551 23.8878 589.16 23.679 589.87 23.679C590.579 23.679 591.187 23.8878 591.694 24.3054C592.205 24.7197 592.594 25.3179 592.863 26.1001C593.134 26.879 593.27 27.8153 593.27 28.9091C593.27 30.0062 593.134 30.9458 592.863 31.728C592.594 32.5102 592.206 33.1084 591.699 33.5227C591.195 33.9337 590.586 34.1392 589.87 34.1392ZM589.87 33.304C590.655 33.304 591.268 32.9212 591.709 32.1555C592.15 31.3866 592.37 30.3045 592.37 28.9091C592.37 27.9811 592.269 27.1889 592.067 26.5327C591.868 25.8731 591.582 25.3693 591.207 25.0213C590.836 24.6733 590.39 24.4993 589.87 24.4993C589.091 24.4993 588.479 24.8871 588.035 25.6626C587.591 26.4349 587.369 27.517 587.369 28.9091C587.369 29.8371 587.468 30.6293 587.667 31.2855C587.869 31.9418 588.156 32.4422 588.527 32.7869C588.902 33.1316 589.349 33.304 589.87 33.304ZM596.376 32.608L596.287 33.1399C596.23 33.4979 596.151 33.8923 596.048 34.3232C595.945 34.754 595.839 35.1634 595.73 35.5511C595.621 35.9389 595.526 36.2505 595.447 36.4858H594.765C594.809 36.2604 594.863 35.9737 594.93 35.6257C594.999 35.2777 595.07 34.8916 595.143 34.4673C595.216 34.0464 595.282 33.6122 595.342 33.1648L595.412 32.608H596.376ZM601.422 34.1392C600.706 34.1392 600.095 33.9337 599.588 33.5227C599.084 33.1084 598.696 32.5102 598.425 31.728C598.156 30.9458 598.022 30.0062 598.022 28.9091C598.022 27.8153 598.156 26.879 598.425 26.1001C598.696 25.3179 599.086 24.7197 599.593 24.3054C600.103 23.8878 600.713 23.679 601.422 23.679C602.132 23.679 602.74 23.8878 603.247 24.3054C603.757 24.7197 604.147 25.3179 604.415 26.1001C604.687 26.879 604.823 27.8153 604.823 28.9091C604.823 30.0062 604.687 30.9458 604.415 31.728C604.147 32.5102 603.759 33.1084 603.252 33.5227C602.748 33.9337 602.138 34.1392 601.422 34.1392ZM601.422 33.304C602.208 33.304 602.821 32.9212 603.262 32.1555C603.703 31.3866 603.923 30.3045 603.923 28.9091C603.923 27.9811 603.822 27.1889 603.62 26.5327C603.421 25.8731 603.134 25.3693 602.76 25.0213C602.389 24.6733 601.943 24.4993 601.422 24.4993C600.644 24.4993 600.032 24.8871 599.588 25.6626C599.144 26.4349 598.922 27.517 598.922 28.9091C598.922 29.8371 599.021 30.6293 599.22 31.2855C599.422 31.9418 599.709 32.4422 600.08 32.7869C600.455 33.1316 600.902 33.304 601.422 33.304ZM610.008 34.1392C609.292 34.1392 608.681 33.9337 608.174 33.5227C607.67 33.1084 607.282 32.5102 607.01 31.728C606.742 30.9458 606.608 30.0062 606.608 28.9091C606.608 27.8153 606.742 26.879 607.01 26.1001C607.282 25.3179 607.672 24.7197 608.179 24.3054C608.689 23.8878 609.299 23.679 610.008 23.679C610.718 23.679 611.326 23.8878 611.833 24.3054C612.343 24.7197 612.733 25.3179 613.001 26.1001C613.273 26.879 613.409 27.8153 613.409 28.9091C613.409 30.0062 613.273 30.9458 613.001 31.728C612.733 32.5102 612.345 33.1084 611.838 33.5227C611.334 33.9337 610.724 34.1392 610.008 34.1392ZM610.008 33.304C610.794 33.304 611.407 32.9212 611.848 32.1555C612.289 31.3866 612.509 30.3045 612.509 28.9091C612.509 27.9811 612.408 27.1889 612.206 26.5327C612.007 25.8731 611.72 25.3693 611.346 25.0213C610.974 24.6733 610.529 24.4993 610.008 24.4993C609.229 24.4993 608.618 24.8871 608.174 25.6626C607.73 26.4349 607.508 27.517 607.508 28.9091C607.508 29.8371 607.607 30.6293 607.806 31.2855C608.008 31.9418 608.295 32.4422 608.666 32.7869C609.041 33.1316 609.488 33.304 610.008 33.304ZM618.594 34.1392C617.878 34.1392 617.267 33.9337 616.76 33.5227C616.256 33.1084 615.868 32.5102 615.596 31.728C615.328 30.9458 615.194 30.0062 615.194 28.9091C615.194 27.8153 615.328 26.879 615.596 26.1001C615.868 25.3179 616.258 24.7197 616.765 24.3054C617.275 23.8878 617.885 23.679 618.594 23.679C619.304 23.679 619.912 23.8878 620.419 24.3054C620.929 24.7197 621.319 25.3179 621.587 26.1001C621.859 26.879 621.995 27.8153 621.995 28.9091C621.995 30.0062 621.859 30.9458 621.587 31.728C621.319 32.5102 620.931 33.1084 620.424 33.5227C619.92 33.9337 619.31 34.1392 618.594 34.1392ZM618.594 33.304C619.38 33.304 619.993 32.9212 620.434 32.1555C620.875 31.3866 621.095 30.3045 621.095 28.9091C621.095 27.9811 620.994 27.1889 620.792 26.5327C620.593 25.8731 620.306 25.3693 619.932 25.0213C619.56 24.6733 619.115 24.4993 618.594 24.4993C617.815 24.4993 617.204 24.8871 616.76 25.6626C616.316 26.4349 616.094 27.517 616.094 28.9091C616.094 29.8371 616.193 30.6293 616.392 31.2855C616.594 31.9418 616.881 32.4422 617.252 32.7869C617.626 33.1316 618.074 33.304 618.594 33.304Z" fill="white"/>
<rect x="633" y="26.5" width="75" height="3" rx="1.5" fill="#FF371A"/>
<g style="mix-blend-mode:overlay" opacity="0.8">
<rect x="711" y="26.5" width="130" height="3" rx="1.5" fill="white"/>
</g>
<g filter="url(#filter0_d_21_451)">
<circle cx="708" cy="28" r="7" fill="white"/>
</g>
<g style="mix-blend-mode:exclusion" opacity="0.18">
<path d="M49 53H841" stroke="#22222A" stroke-linecap="square" stroke-linejoin="round"/>
<path d="M49 77H841" stroke="#22222A" stroke-linecap="square" stroke-linejoin="round"/>
<path d="M49 101H841" stroke="#22222A" stroke-linecap="square" stroke-linejoin="round"/>
<path d="M49 125H841" stroke="#22222A" stroke-linecap="square" stroke-linejoin="round"/>
<path d="M49 149H841" stroke="#22222A" stroke-linecap="square" stroke-linejoin="round"/>
<path d="M49 197H841" stroke="#22222A" stroke-linecap="square" stroke-linejoin="round"/>
<path d="M49 221H841" stroke="#22222A" stroke-linecap="square" stroke-linejoin="round"/>
<path d="M49 245H841" stroke="#22222A" stroke-linecap="square" stroke-linejoin="round"/>
<path d="M49 269H841" stroke="#22222A" stroke-linecap="square" stroke-linejoin="round"/>
<path d="M49 293H841" stroke="#22222A" stroke-linecap="square" stroke-linejoin="round"/>
<path d="M49 53L49 293" stroke="#22222A" stroke-linecap="square" stroke-linejoin="round"/>
<path d="M73 53L73 293" stroke="#22222A" stroke-linecap="square" stroke-linejoin="round"/>
<path d="M97 53L97 293" stroke="#22222A" stroke-linecap="square" stroke-linejoin="round"/>
<path d="M121 53L121 293" stroke="#22222A" stroke-linecap="square" stroke-linejoin="round"/>
<path d="M145 53L145 293" stroke="#22222A" stroke-linecap="square" stroke-linejoin="round"/>
<path d="M169 53L169 293" stroke="#22222A" stroke-linecap="square" stroke-linejoin="round"/>
<path d="M193 53L193 293" stroke="#22222A" stroke-linecap="square" stroke-linejoin="round"/>
<path d="M217 53L217 293" stroke="#22222A" stroke-linecap="square" stroke-linejoin="round"/>
<path d="M241 53L241 293" stroke="#22222A" stroke-linecap="square" stroke-linejoin="round"/>
<path d="M265 53L265 293" stroke="#22222A" stroke-linecap="square" stroke-linejoin="round"/>
<path d="M289 53L289 293" stroke="#22222A" stroke-linecap="square" stroke-linejoin="round"/>
<path d="M313 53L313 293" stroke="#22222A" stroke-linecap="square" stroke-linejoin="round"/>
<path d="M337 53L337 293" stroke="#22222A" stroke-linecap="square" stroke-linejoin="round"/>
<path d="M361 53L361 293" stroke="#22222A" stroke-linecap="square" stroke-linejoin="round"/>
<path d="M385 53L385 293" stroke="#22222A" stroke-linecap="square" stroke-linejoin="round"/>
<path d="M409 53L409 293" stroke="#22222A" stroke-linecap="square" stroke-linejoin="round"/>
<path d="M433 53L433 293" stroke="#22222A" stroke-linecap="square" stroke-linejoin="round"/>
<path d="M457 53L457 293" stroke="#22222A" stroke-linecap="square" stroke-linejoin="round"/>
<path d="M481 53L481 293" stroke="#22222A" stroke-linecap="square" stroke-linejoin="round"/>
<path d="M505 53L505 293" stroke="#22222A" stroke-linecap="square" stroke-linejoin="round"/>
<path d="M529 53L529 293" stroke="#22222A" stroke-linecap="square" stroke-linejoin="round"/>
<path d="M553 53L553 293" stroke="#22222A" stroke-linecap="square" stroke-linejoin="round"/>
<path d="M577 53L577 293" stroke="#22222A" stroke-linecap="square" stroke-linejoin="round"/>
<path d="M601 53L601 293" stroke="#22222A" stroke-linecap="square" stroke-linejoin="round"/>
<path d="M625 53L625 293" stroke="#22222A" stroke-linecap="square" stroke-linejoin="round"/>
<path d="M649 53L649 293" stroke="#22222A" stroke-linecap="square" stroke-linejoin="round"/>
<path d="M673 53L673 293" stroke="#22222A" stroke-linecap="square" stroke-linejoin="round"/>
<path d="M697 53L697 293" stroke="#22222A" stroke-linecap="square" stroke-linejoin="round"/>
<path d="M721 53L721 293" stroke="#22222A" stroke-linecap="square" stroke-linejoin="round"/>
<path d="M745 53L745 293" stroke="#22222A" stroke-linecap="square" stroke-linejoin="round"/>
<path d="M769 53L769 293" stroke="#22222A" stroke-linecap="square" stroke-linejoin="round"/>
<path d="M793 53L793 293" stroke="#22222A" stroke-linecap="square" stroke-linejoin="round"/>
<path d="M817 53L817 293" stroke="#22222A" stroke-linecap="square" stroke-linejoin="round"/>
<path d="M841 53L841 293" stroke="#22222A" stroke-linecap="square" stroke-linejoin="round"/>
<path d="M49 173H841" stroke="#61616B" stroke-linecap="square" stroke-linejoin="round"/>
</g>
<mask id="mask1_21_451" style="mask-type:alpha" maskUnits="userSpaceOnUse" x="49" y="53" width="792" height="240">
<rect x="49" y="53" width="792" height="240" fill="url(#paint5_linear_21_451)"/>
</mask>
<g mask="url(#mask1_21_451)">
<path d="M47.4883 66.4805C50.1641 66.4805 51.2178 70.1484 58.8254 172.752C65.3583 255.73 66.2606 260.664 69.4823 260.664C72.7987 260.664 73.745 253.12 80.8666 172.752C87.1469 106.779 88.2279 98.9927 91.558 98.9927C94.888 98.9927 96.372 105.847 103.022 172.752C108.666 229.531 110.639 235.458 113.896 235.458C117.153 235.458 118.358 229.599 125.087 172.752C130.864 123.952 132.761 120.062 135.703 120.062C138.644 120.062 140.725 123.92 147.305 173.581C153.365 213.437 155.429 216.654 158.167 216.654C160.905 216.654 162.343 214.129 169.318 173.581C175.052 138.53 177.562 135.715 180.06 135.715C182.557 135.715 185.008 137.967 191.504 172.833C196.72 200.832 199.648 203.689 202.087 203.689C204.526 203.689 206.993 201.227 213.458 173.364C218.278 150.212 221.961 146.62 224.444 146.62C226.927 146.62 229.65 148.584 235.788 173.072C240.427 191.579 244.465 194.701 246.891 194.701C249.317 194.701 251.936 192.527 257.752 173.018C262.731 156.319 266.099 154.368 268.566 154.368C270.901 154.368 273.67 156.744 280.012 173.141C284.761 185.422 288.04 188.21 290.446 188.21C292.852 188.21 297.202 186.404 302.017 173.133C305.94 162.323 310.323 159.642 312.621 159.642C314.919 159.642 319.242 162.068 324.476 172.991C329.278 183.012 332.771 183.966 334.99 183.966C337.21 183.966 339.636 182.578 345.962 173.097C351.195 165.255 354.033 163.511 356.296 163.511C358.559 163.511 363.156 164.818 368.542 172.992C373.348 180.287 376.742 180.932 379.091 180.932C381.336 180.932 385.204 179.943 390.415 172.958C394.641 167.295 399.506 166.029 401.423 166.029C403.341 166.029 408.576 168.031 412.871 172.999C417.166 177.968 421.581 178.409 423.806 178.409C426.03 178.409 429.565 177.537 434.115 173.229C438.665 168.92 443.653 168.047 446.022 168.047C448.39 168.047 453.149 168.667 457.42 172.675C461.363 176.375 465.029 176.553 467.207 176.553C469.384 176.553 474.901 175.803 478.696 173.132C482.491 170.461 486.668 169.455 488.886 169.455C491.104 169.455 497.884 170.936 502.064 173.04C506.244 175.144 510.215 175.43 512.325 175.43C514.434 175.43 519.144 174.846 522.171 173.02C525.548 170.984 532.062 170.504 534.397 170.504C536.981 170.504 540.885 171.416 546.104 172.882C551.084 174.281 554.132 174.69 556.17 174.69C558.208 174.69 562.402 174.188 567.202 172.974C572.001 171.76 575.297 171.589 577.491 171.589C579.686 171.589 585.953 171.735 591.577 172.882C596.89 173.966 599.391 174.098 601.545 174.098C603.7 174.098 606.551 173.83 609.983 173.073C613.477 172.302 619.068 172.317 622.671 172.317C626.274 172.317 631.208 172.996 636.456 172.996C640.821 172.996 814.084 172.996 911.416 172.996" stroke="#FF371A" stroke-width="1.2"/>
</g>
</g>
<path opacity="0.6" d="M133.989 312.129C133.324 312.129 132.756 311.938 132.285 311.557C131.817 311.172 131.457 310.617 131.205 309.89C130.956 309.164 130.831 308.291 130.831 307.273C130.831 306.257 130.956 305.388 131.205 304.664C131.457 303.938 131.819 303.383 132.29 302.998C132.764 302.61 133.33 302.416 133.989 302.416C134.647 302.416 135.212 302.61 135.683 302.998C136.157 303.383 136.518 303.938 136.768 304.664C137.02 305.388 137.146 306.257 137.146 307.273C137.146 308.291 137.02 309.164 136.768 309.89C136.518 310.617 136.158 311.172 135.688 311.557C135.22 311.938 134.653 312.129 133.989 312.129ZM133.989 311.354C134.718 311.354 135.287 310.998 135.697 310.287C136.106 309.573 136.311 308.568 136.311 307.273C136.311 306.411 136.217 305.675 136.029 305.066C135.844 304.454 135.578 303.986 135.23 303.663C134.886 303.339 134.472 303.178 133.989 303.178C133.265 303.178 132.698 303.538 132.285 304.258C131.873 304.975 131.667 305.98 131.667 307.273C131.667 308.134 131.759 308.87 131.944 309.479C132.131 310.089 132.397 310.554 132.742 310.874C133.09 311.194 133.505 311.354 133.989 311.354ZM139.32 312.069C139.138 312.069 138.981 312.005 138.849 311.875C138.719 311.743 138.655 311.586 138.655 311.404C138.655 311.22 138.719 311.063 138.849 310.934C138.981 310.804 139.138 310.74 139.32 310.74C139.504 310.74 139.661 310.804 139.79 310.934C139.92 311.063 139.984 311.22 139.984 311.404C139.984 311.525 139.954 311.635 139.892 311.737C139.833 311.838 139.753 311.92 139.652 311.982C139.553 312.04 139.443 312.069 139.32 312.069ZM142.123 312V311.368L145.211 307.896C145.614 307.44 145.939 307.051 146.185 306.728C146.432 306.405 146.61 306.106 146.721 305.832C146.835 305.558 146.892 305.274 146.892 304.978C146.892 304.618 146.807 304.304 146.638 304.037C146.472 303.766 146.242 303.555 145.95 303.404C145.658 303.253 145.328 303.178 144.962 303.178C144.574 303.178 144.234 303.261 143.942 303.427C143.652 303.593 143.428 303.821 143.268 304.11C143.108 304.4 143.028 304.732 143.028 305.108H142.201C142.201 304.584 142.321 304.121 142.561 303.718C142.805 303.312 143.135 302.993 143.554 302.762C143.976 302.532 144.453 302.416 144.985 302.416C145.511 302.416 145.979 302.53 146.388 302.758C146.798 302.982 147.119 303.289 147.353 303.676C147.587 304.064 147.704 304.498 147.704 304.978C147.704 305.326 147.643 305.663 147.52 305.989C147.4 306.316 147.192 306.679 146.896 307.079C146.601 307.479 146.192 307.968 145.668 308.547L143.323 311.164V311.224H148V312H142.123ZM150.261 302.545H151.258L154.688 310.781H154.771L158.201 302.545H159.198V312H158.386V304.369H158.312L155.122 312H154.337L151.147 304.369H151.073V312H150.261V302.545Z" fill="#94949E"/>
<path d="M25.2756 23.8182V34H24.3459V24.7926H24.2862L21.8999 26.3786V25.4141L24.3061 23.8182H25.2756ZM28.5866 23.8182H29.6605L33.3544 32.6875H33.4439L37.1378 23.8182H38.2116V34H37.3366V25.782H37.2571L33.8217 34H32.9766L29.5412 25.782H29.4616V34H28.5866V23.8182ZM44.8562 34V23.8182H48.1424C48.8649 23.8182 49.4682 23.9574 49.9521 24.2358C50.4393 24.5109 50.8055 24.8854 51.0508 25.3594C51.2994 25.8333 51.4237 26.367 51.4237 26.9602C51.4237 27.5535 51.301 28.0888 51.0558 28.5661C50.8105 29.04 50.4459 29.4162 49.962 29.6946C49.4781 29.9697 48.8765 30.1072 48.1573 30.1072H45.5721V29.272H48.1325C48.6661 29.272 49.1085 29.1726 49.4599 28.9737C49.8112 28.7715 50.073 28.4964 50.2454 28.1484C50.421 27.8004 50.5089 27.4044 50.5089 26.9602C50.5089 26.5161 50.421 26.12 50.2454 25.772C50.073 25.424 49.8095 25.1506 49.4549 24.9517C49.1036 24.7528 48.6578 24.6534 48.1175 24.6534H45.7859V34H44.8562ZM56.3082 34.1591C55.6487 34.1591 55.0653 33.9917 54.5582 33.657C54.0545 33.3222 53.66 32.8598 53.375 32.2699C53.09 31.6766 52.9474 30.9922 52.9474 30.2166C52.9474 29.4344 53.09 28.7467 53.375 28.1534C53.66 27.5568 54.0545 27.0928 54.5582 26.7614C55.0653 26.4266 55.6487 26.2592 56.3082 26.2592C56.9678 26.2592 57.5495 26.4266 58.0533 26.7614C58.5571 27.0961 58.9515 27.5601 59.2365 28.1534C59.5249 28.7467 59.669 29.4344 59.669 30.2166C59.669 30.9922 59.5265 31.6766 59.2415 32.2699C58.9564 32.8598 58.5604 33.3222 58.0533 33.657C57.5495 33.9917 56.9678 34.1591 56.3082 34.1591ZM56.3082 33.3487C56.8385 33.3487 57.2876 33.2062 57.6555 32.9212C58.0234 32.6361 58.3018 32.2566 58.4908 31.7827C58.683 31.3087 58.7791 30.7867 58.7791 30.2166C58.7791 29.6465 58.683 29.1229 58.4908 28.6456C58.3018 28.1683 58.0234 27.7855 57.6555 27.4972C57.2876 27.2088 56.8385 27.0646 56.3082 27.0646C55.7813 27.0646 55.3321 27.2088 54.9609 27.4972C54.593 27.7855 54.313 28.1683 54.1207 28.6456C53.9318 29.1229 53.8374 29.6465 53.8374 30.2166C53.8374 30.7867 53.9318 31.3087 54.1207 31.7827C54.313 32.2566 54.593 32.6361 54.9609 32.9212C55.3288 33.2062 55.7779 33.3487 56.3082 33.3487ZM61.6216 34V26.3636H62.5115V34H61.6216ZM62.074 25.0511C61.8917 25.0511 61.736 24.9898 61.6067 24.8672C61.4775 24.7412 61.4128 24.5904 61.4128 24.4148C61.4128 24.2391 61.4775 24.09 61.6067 23.9673C61.736 23.8414 61.8917 23.7784 62.074 23.7784C62.2563 23.7784 62.4121 23.8414 62.5414 23.9673C62.6706 24.09 62.7353 24.2391 62.7353 24.4148C62.7353 24.5904 62.6706 24.7412 62.5414 24.8672C62.4121 24.9898 62.2563 25.0511 62.074 25.0511ZM65.7369 29.2273V34H64.8519V26.3636H65.712V27.5618H65.7915C65.9705 27.1707 66.2489 26.8575 66.6268 26.6222C67.0079 26.3835 67.4786 26.2642 68.0387 26.2642C68.5524 26.2642 69.0032 26.3719 69.391 26.5874C69.7821 26.7995 70.0853 27.1127 70.3008 27.527C70.5195 27.9413 70.6289 28.45 70.6289 29.0533V34H69.744V29.108C69.744 28.4815 69.5683 27.986 69.217 27.6214C68.869 27.2569 68.4016 27.0746 67.815 27.0746C67.4139 27.0746 67.0576 27.1607 66.7461 27.3331C66.4345 27.5054 66.1876 27.754 66.0053 28.0788C65.8263 28.4003 65.7369 28.7831 65.7369 29.2273ZM75.9672 26.3636V27.1342H72.323V26.3636H75.9672ZM73.4615 24.5341H74.3514V32.0064C74.3514 32.3246 74.4061 32.5748 74.5154 32.7571C74.6248 32.9361 74.7673 33.0637 74.943 33.1399C75.1187 33.2128 75.3059 33.2493 75.5048 33.2493C75.6208 33.2493 75.7202 33.2427 75.8031 33.2294C75.8859 33.2128 75.9589 33.1963 76.0218 33.1797L76.2108 33.9801C76.1246 34.0133 76.0185 34.0431 75.8926 34.0696C75.7666 34.0994 75.6109 34.1143 75.4252 34.1143C75.1004 34.1143 74.7872 34.0431 74.4856 33.9006C74.1873 33.758 73.9421 33.5459 73.7498 33.2642C73.5576 32.9825 73.4615 32.6328 73.4615 32.2152V24.5341ZM82.9709 28.0391L82.1605 28.2678C82.081 28.0391 81.9683 27.8319 81.8224 27.6463C81.6766 27.4607 81.486 27.3132 81.2507 27.2038C81.0187 27.0945 80.7304 27.0398 80.3857 27.0398C79.8686 27.0398 79.4444 27.1624 79.1129 27.4077C78.7815 27.6529 78.6158 27.9695 78.6158 28.3572C78.6158 28.6854 78.7285 28.9522 78.9538 29.1577C79.1825 29.3598 79.5339 29.5206 80.0078 29.6399L81.1612 29.9233C81.8009 30.0791 82.2798 30.326 82.598 30.6641C82.9195 31.0021 83.0803 31.4264 83.0803 31.9368C83.0803 32.3677 82.9609 32.7505 82.7223 33.0852C82.4837 33.42 82.1506 33.6835 81.723 33.8757C81.2988 34.0646 80.8066 34.1591 80.2464 34.1591C79.5007 34.1591 78.8859 33.9917 78.402 33.657C77.9181 33.3189 77.6082 32.8317 77.4723 32.1953L78.3224 31.9865C78.4318 32.4406 78.6456 32.7836 78.9638 33.0156C79.2853 33.2476 79.7079 33.3636 80.2315 33.3636C80.8182 33.3636 81.2872 33.2327 81.6385 32.9709C81.9898 32.7057 82.1655 32.3743 82.1655 31.9766C82.1655 31.6683 82.0627 31.4098 81.8572 31.201C81.6518 30.9889 81.3402 30.8331 80.9226 30.7337L79.6747 30.4354C79.0118 30.2763 78.5213 30.0244 78.2031 29.6797C77.8849 29.335 77.7259 28.9074 77.7259 28.397C77.7259 27.9761 77.8402 27.6065 78.0689 27.2884C78.2976 26.9669 78.6125 26.715 79.0135 26.5327C79.4145 26.3504 79.8719 26.2592 80.3857 26.2592C81.085 26.2592 81.6435 26.4183 82.0611 26.7365C82.482 27.0514 82.7853 27.4856 82.9709 28.0391ZM91.9235 34.1591C91.2639 34.1591 90.6806 33.9917 90.1735 33.657C89.6697 33.3222 89.2753 32.8598 88.9902 32.2699C88.7052 31.6766 88.5627 30.9922 88.5627 30.2166C88.5627 29.4344 88.7052 28.7467 88.9902 28.1534C89.2753 27.5568 89.6697 27.0928 90.1735 26.7614C90.6806 26.4266 91.2639 26.2592 91.9235 26.2592C92.583 26.2592 93.1647 26.4266 93.6685 26.7614C94.1723 27.0961 94.5667 27.5601 94.8517 28.1534C95.1401 28.7467 95.2843 29.4344 95.2843 30.2166C95.2843 30.9922 95.1417 31.6766 94.8567 32.2699C94.5717 32.8598 94.1756 33.3222 93.6685 33.657C93.1647 33.9917 92.583 34.1591 91.9235 34.1591ZM91.9235 33.3487C92.4538 33.3487 92.9029 33.2062 93.2708 32.9212C93.6387 32.6361 93.9171 32.2566 94.106 31.7827C94.2982 31.3087 94.3944 30.7867 94.3944 30.2166C94.3944 29.6465 94.2982 29.1229 94.106 28.6456C93.9171 28.1683 93.6387 27.7855 93.2708 27.4972C92.9029 27.2088 92.4538 27.0646 91.9235 27.0646C91.3965 27.0646 90.9474 27.2088 90.5762 27.4972C90.2083 27.7855 89.9282 28.1683 89.736 28.6456C89.5471 29.1229 89.4526 29.6465 89.4526 30.2166C89.4526 30.7867 89.5471 31.3087 89.736 31.7827C89.9282 32.2566 90.2083 32.6361 90.5762 32.9212C90.9441 33.2062 91.3932 33.3487 91.9235 33.3487ZM100.369 26.3636V27.1342H96.6154V26.3636H100.369ZM97.7887 34V25.245C97.7887 24.834 97.8832 24.4877 98.0721 24.206C98.2643 23.9242 98.5146 23.7105 98.8228 23.5646C99.131 23.4188 99.4575 23.3459 99.8022 23.3459C100.034 23.3459 100.226 23.3658 100.379 23.4055C100.535 23.442 100.657 23.4785 100.747 23.5149L100.488 24.2905C100.422 24.2706 100.341 24.2474 100.245 24.2209C100.149 24.1944 100.028 24.1811 99.8817 24.1811C99.4973 24.1811 99.2006 24.2888 98.9918 24.5043C98.783 24.7197 98.6786 25.0279 98.6786 25.429L98.6737 34H97.7887ZM109.24 34H106.257V23.8182H109.419C110.39 23.8182 111.22 24.0204 111.909 24.4247C112.602 24.8291 113.132 25.4091 113.5 26.1648C113.868 26.9205 114.052 27.8269 114.052 28.8842C114.052 29.9515 113.863 30.8679 113.485 31.6335C113.111 32.3958 112.564 32.9808 111.845 33.3885C111.129 33.7962 110.26 34 109.24 34ZM107.186 33.1648H109.185C110.06 33.1648 110.792 32.9924 111.382 32.6477C111.972 32.303 112.415 31.8108 112.71 31.1712C113.005 30.5315 113.152 29.7692 113.152 28.8842C113.149 28.0059 113.003 27.2502 112.715 26.6172C112.43 25.9841 112.005 25.4986 111.442 25.1605C110.882 24.8224 110.189 24.6534 109.364 24.6534H107.186V33.1648ZM118.254 34.174C117.794 34.174 117.373 34.0845 116.991 33.9055C116.61 33.7232 116.307 33.4614 116.082 33.12C115.856 32.7753 115.744 32.3577 115.744 31.8672C115.744 31.4893 115.815 31.1712 115.957 30.9126C116.1 30.6541 116.302 30.442 116.564 30.2763C116.826 30.1106 117.136 29.9796 117.494 29.8835C117.852 29.7874 118.246 29.7128 118.677 29.6598C119.104 29.6068 119.466 29.5604 119.761 29.5206C120.059 29.4808 120.286 29.4179 120.442 29.3317C120.598 29.2455 120.675 29.1063 120.675 28.9141V28.7351C120.675 28.2147 120.52 27.8054 120.208 27.5071C119.9 27.2055 119.456 27.0547 118.876 27.0547C118.326 27.0547 117.876 27.1757 117.528 27.4176C117.184 27.6596 116.942 27.9446 116.803 28.2727L115.962 27.9695C116.135 27.5518 116.373 27.2187 116.678 26.9702C116.983 26.7183 117.325 26.5376 117.702 26.4283C118.08 26.3156 118.463 26.2592 118.851 26.2592C119.143 26.2592 119.446 26.2973 119.761 26.3736C120.079 26.4498 120.374 26.5824 120.646 26.7713C120.917 26.9569 121.138 27.2171 121.307 27.5518C121.476 27.8833 121.56 28.3042 121.56 28.8146V34H120.675V32.7919H120.621C120.515 33.0173 120.357 33.236 120.148 33.4482C119.94 33.6603 119.678 33.8343 119.363 33.9702C119.048 34.1061 118.679 34.174 118.254 34.174ZM118.374 33.3636C118.844 33.3636 119.252 33.2592 119.597 33.0504C119.941 32.8416 120.206 32.5649 120.392 32.2202C120.581 31.8722 120.675 31.4893 120.675 31.0717V29.968C120.609 30.031 120.498 30.0874 120.342 30.1371C120.19 30.1868 120.013 30.2315 119.81 30.2713C119.612 30.3078 119.413 30.3393 119.214 30.3658C119.015 30.3923 118.836 30.4155 118.677 30.4354C118.246 30.4884 117.878 30.5713 117.573 30.6839C117.268 30.7966 117.035 30.9524 116.872 31.1513C116.71 31.3468 116.629 31.5987 116.629 31.907C116.629 32.371 116.794 32.7306 117.126 32.9858C117.457 33.2377 117.873 33.3636 118.374 33.3636ZM126.922 26.3636V27.1342H123.278V26.3636H126.922ZM124.417 24.5341H125.306V32.0064C125.306 32.3246 125.361 32.5748 125.471 32.7571C125.58 32.9361 125.722 33.0637 125.898 33.1399C126.074 33.2128 126.261 33.2493 126.46 33.2493C126.576 33.2493 126.675 33.2427 126.758 33.2294C126.841 33.2128 126.914 33.1963 126.977 33.1797L127.166 33.9801C127.08 34.0133 126.974 34.0431 126.848 34.0696C126.722 34.0994 126.566 34.1143 126.38 34.1143C126.056 34.1143 125.742 34.0431 125.441 33.9006C125.142 33.758 124.897 33.5459 124.705 33.2642C124.513 32.9825 124.417 32.6328 124.417 32.2152V24.5341ZM131.065 34.174C130.604 34.174 130.183 34.0845 129.802 33.9055C129.421 33.7232 129.118 33.4614 128.892 33.12C128.667 32.7753 128.554 32.3577 128.554 31.8672C128.554 31.4893 128.625 31.1712 128.768 30.9126C128.91 30.6541 129.113 30.442 129.374 30.2763C129.636 30.1106 129.946 29.9796 130.304 29.8835C130.662 29.7874 131.057 29.7128 131.487 29.6598C131.915 29.6068 132.276 29.5604 132.571 29.5206C132.869 29.4808 133.097 29.4179 133.252 29.3317C133.408 29.2455 133.486 29.1063 133.486 28.9141V28.7351C133.486 28.2147 133.33 27.8054 133.019 27.5071C132.71 27.2055 132.266 27.0547 131.686 27.0547C131.136 27.0547 130.687 27.1757 130.339 27.4176C129.994 27.6596 129.752 27.9446 129.613 28.2727L128.773 27.9695C128.945 27.5518 129.184 27.2187 129.489 26.9702C129.794 26.7183 130.135 26.5376 130.513 26.4283C130.891 26.3156 131.274 26.2592 131.661 26.2592C131.953 26.2592 132.256 26.2973 132.571 26.3736C132.889 26.4498 133.184 26.5824 133.456 26.7713C133.728 26.9569 133.948 27.2171 134.117 27.5518C134.286 27.8833 134.371 28.3042 134.371 28.8146V34H133.486V32.7919H133.431C133.325 33.0173 133.168 33.236 132.959 33.4482C132.75 33.6603 132.488 33.8343 132.173 33.9702C131.859 34.1061 131.489 34.174 131.065 34.174ZM131.184 33.3636C131.655 33.3636 132.062 33.2592 132.407 33.0504C132.752 32.8416 133.017 32.5649 133.203 32.2202C133.392 31.8722 133.486 31.4893 133.486 31.0717V29.968C133.42 30.031 133.309 30.0874 133.153 30.1371C133 30.1868 132.823 30.2315 132.621 30.2713C132.422 30.3078 132.223 30.3393 132.024 30.3658C131.825 30.3923 131.646 30.4155 131.487 30.4354C131.057 30.4884 130.689 30.5713 130.384 30.6839C130.079 30.7966 129.845 30.9524 129.683 31.1513C129.52 31.3468 129.439 31.5987 129.439 31.907C129.439 32.371 129.605 32.7306 129.936 32.9858C130.268 33.2377 130.684 33.3636 131.184 33.3636Z" fill="white"/>
<path opacity="0.6" d="M48.6818 311.119C48.0682 311.119 47.544 310.943 47.1094 310.591C46.6776 310.236 46.3452 309.723 46.1122 309.053C45.8821 308.382 45.767 307.577 45.767 306.636C45.767 305.699 45.8821 304.896 46.1122 304.229C46.3452 303.558 46.679 303.045 47.1136 302.69C47.5511 302.332 48.0739 302.153 48.6818 302.153C49.2898 302.153 49.8111 302.332 50.2457 302.69C50.6832 303.045 51.017 303.558 51.2472 304.229C51.4801 304.896 51.5966 305.699 51.5966 306.636C51.5966 307.577 51.4801 308.382 51.2472 309.053C51.017 309.723 50.6847 310.236 50.25 310.591C49.8182 310.943 49.2955 311.119 48.6818 311.119ZM48.6818 310.403C49.3551 310.403 49.8807 310.075 50.2585 309.419C50.6364 308.76 50.8253 307.832 50.8253 306.636C50.8253 305.841 50.7386 305.162 50.5653 304.599C50.3949 304.034 50.1491 303.602 49.8281 303.304C49.5099 303.006 49.1278 302.857 48.6818 302.857C48.0142 302.857 47.4901 303.189 47.1094 303.854C46.7287 304.516 46.5384 305.443 46.5384 306.636C46.5384 307.432 46.6236 308.111 46.794 308.673C46.9673 309.236 47.2131 309.665 47.5312 309.96C47.8523 310.256 48.2358 310.403 48.6818 310.403Z" fill="#94949E"/>
<path opacity="0.6" d="M38.3224 178.119C37.7088 178.119 37.1847 177.943 36.75 177.591C36.3182 177.236 35.9858 176.723 35.7528 176.053C35.5227 175.382 35.4077 174.577 35.4077 173.636C35.4077 172.699 35.5227 171.896 35.7528 171.229C35.9858 170.558 36.3196 170.045 36.7543 169.69C37.1918 169.332 37.7145 169.153 38.3224 169.153C38.9304 169.153 39.4517 169.332 39.8864 169.69C40.3239 170.045 40.6577 170.558 40.8878 171.229C41.1207 171.896 41.2372 172.699 41.2372 173.636C41.2372 174.577 41.1207 175.382 40.8878 176.053C40.6577 176.723 40.3253 177.236 39.8906 177.591C39.4588 177.943 38.9361 178.119 38.3224 178.119ZM38.3224 177.403C38.9957 177.403 39.5213 177.075 39.8991 176.419C40.277 175.76 40.4659 174.832 40.4659 173.636C40.4659 172.841 40.3793 172.162 40.206 171.599C40.0355 171.034 39.7898 170.602 39.4688 170.304C39.1506 170.006 38.7685 169.857 38.3224 169.857C37.6548 169.857 37.1307 170.189 36.75 170.854C36.3693 171.516 36.179 172.443 36.179 173.636C36.179 174.432 36.2642 175.111 36.4347 175.673C36.608 176.236 36.8537 176.665 37.1719 176.96C37.4929 177.256 37.8764 177.403 38.3224 177.403Z" fill="#94949E"/>
<path opacity="0.6" d="M27.9513 130.119C27.3377 130.119 26.8136 129.943 26.3789 129.591C25.9471 129.236 25.6147 128.723 25.3817 128.053C25.1516 127.382 25.0366 126.577 25.0366 125.636C25.0366 124.699 25.1516 123.896 25.3817 123.229C25.6147 122.558 25.9485 122.045 26.3832 121.69C26.8207 121.332 27.3434 121.153 27.9513 121.153C28.5593 121.153 29.0806 121.332 29.5153 121.69C29.9528 122.045 30.2866 122.558 30.5167 123.229C30.7496 123.896 30.8661 124.699 30.8661 125.636C30.8661 126.577 30.7496 127.382 30.5167 128.053C30.2866 128.723 29.9542 129.236 29.5195 129.591C29.0877 129.943 28.565 130.119 27.9513 130.119ZM27.9513 129.403C28.6246 129.403 29.1502 129.075 29.5281 128.419C29.9059 127.76 30.0948 126.832 30.0948 125.636C30.0948 124.841 30.0082 124.162 29.8349 123.599C29.6644 123.034 29.4187 122.602 29.0977 122.304C28.7795 122.006 28.3974 121.857 27.9513 121.857C27.2837 121.857 26.7596 122.189 26.3789 122.854C25.9982 123.516 25.8079 124.443 25.8079 125.636C25.8079 126.432 25.8931 127.111 26.0636 127.673C26.2369 128.236 26.4826 128.665 26.8008 128.96C27.1218 129.256 27.5053 129.403 27.9513 129.403ZM32.8722 130.064C32.7045 130.064 32.5597 130.004 32.4375 129.885C32.3182 129.763 32.2585 129.618 32.2585 129.45C32.2585 129.28 32.3182 129.135 32.4375 129.016C32.5597 128.896 32.7045 128.837 32.8722 128.837C33.0426 128.837 33.1875 128.896 33.3068 129.016C33.4261 129.135 33.4858 129.28 33.4858 129.45C33.4858 129.561 33.4574 129.663 33.4006 129.757C33.3466 129.851 33.2727 129.926 33.179 129.983C33.0881 130.037 32.9858 130.064 32.8722 130.064ZM35.2511 128.125V127.477L39.1417 121.273H39.619V122.359H39.2653L36.1417 127.354V127.409H41.2425V128.125H35.2511ZM39.3249 130V127.92V127.622V121.273H40.0835V130H39.3249Z" fill="#94949E"/>
<path opacity="0.6" d="M28.4318 82.1193C27.8182 82.1193 27.294 81.9432 26.8594 81.5909C26.4276 81.2358 26.0952 80.723 25.8622 80.0526C25.6321 79.3821 25.517 78.5767 25.517 77.6364C25.517 76.6989 25.6321 75.8963 25.8622 75.2287C26.0952 74.5582 26.429 74.0455 26.8636 73.6903C27.3011 73.3324 27.8239 73.1534 28.4318 73.1534C29.0398 73.1534 29.5611 73.3324 29.9957 73.6903C30.4332 74.0455 30.767 74.5582 30.9972 75.2287C31.2301 75.8963 31.3466 76.6989 31.3466 77.6364C31.3466 78.5767 31.2301 79.3821 30.9972 80.0526C30.767 80.723 30.4347 81.2358 30 81.5909C29.5682 81.9432 29.0455 82.1193 28.4318 82.1193ZM28.4318 81.4034C29.1051 81.4034 29.6307 81.0753 30.0085 80.419C30.3864 79.7599 30.5753 78.8324 30.5753 77.6364C30.5753 76.8409 30.4886 76.1619 30.3153 75.5994C30.1449 75.0341 29.8991 74.6023 29.5781 74.304C29.2599 74.0057 28.8778 73.8565 28.4318 73.8565C27.7642 73.8565 27.2401 74.1889 26.8594 74.8537C26.4787 75.5156 26.2884 76.4432 26.2884 77.6364C26.2884 78.4318 26.3736 79.1108 26.544 79.6733C26.7173 80.2358 26.9631 80.6648 27.2812 80.9602C27.6023 81.2557 27.9858 81.4034 28.4318 81.4034ZM33.3526 82.0639C33.185 82.0639 33.0401 82.0043 32.918 81.8849C32.7987 81.7628 32.739 81.6179 32.739 81.4503C32.739 81.2798 32.7987 81.1349 32.918 81.0156C33.0401 80.8963 33.185 80.8366 33.3526 80.8366C33.5231 80.8366 33.668 80.8963 33.7873 81.0156C33.9066 81.1349 33.9663 81.2798 33.9663 81.4503C33.9663 81.5611 33.9379 81.6634 33.881 81.7571C33.8271 81.8509 33.7532 81.9261 33.6594 81.983C33.5685 82.0369 33.4663 82.0639 33.3526 82.0639ZM38.3214 82.1193C37.7646 82.1193 37.2688 82.0142 36.8342 81.804C36.3995 81.5937 36.0586 81.3068 35.8114 80.9432C35.5643 80.5767 35.4407 80.1634 35.4407 79.7031C35.4407 79.3423 35.516 79.0057 35.6665 78.6932C35.8171 78.3778 36.0245 78.1136 36.2887 77.9006C36.5529 77.6847 36.8498 77.544 37.1793 77.4787V77.4318C36.7504 77.3068 36.4052 77.0611 36.1438 76.6946C35.8825 76.3253 35.7532 75.9062 35.756 75.4375C35.7532 75.0028 35.864 74.6136 36.0884 74.2699C36.3129 73.9261 36.6183 73.6548 37.0046 73.456C37.3938 73.2543 37.8327 73.1534 38.3214 73.1534C38.8072 73.1534 39.2433 73.2543 39.6296 73.456C40.016 73.6548 40.3214 73.9261 40.5458 74.2699C40.7731 74.6136 40.8881 75.0028 40.891 75.4375C40.8881 75.9034 40.756 76.3224 40.4947 76.6946C40.2333 77.0639 39.8896 77.3097 39.4634 77.4318V77.4787C39.793 77.5412 40.0884 77.6804 40.3498 77.8963C40.6112 78.1122 40.8185 78.3778 40.9719 78.6932C41.1254 79.0057 41.2021 79.3423 41.2021 79.7031C41.2021 80.1634 41.0771 80.5767 40.8271 80.9432C40.5799 81.3068 40.239 81.5937 39.8043 81.804C39.3725 82.0142 38.8782 82.1193 38.3214 82.1193ZM38.3214 81.4034C38.7362 81.4034 39.0998 81.3295 39.4123 81.1818C39.7276 81.0312 39.9734 80.8253 40.1495 80.5639C40.3285 80.3026 40.418 80.0028 40.418 79.6648C40.418 79.3153 40.3256 79.0043 40.141 78.7315C39.9563 78.456 39.7063 78.2386 39.391 78.0795C39.0756 77.9176 38.7191 77.8366 38.3214 77.8366C37.9237 77.8366 37.5657 77.9176 37.2475 78.0795C36.9322 78.2386 36.6822 78.456 36.4975 78.7315C36.3157 79.0043 36.2248 79.3153 36.2248 79.6648C36.2248 80.0028 36.3114 80.3026 36.4847 80.5639C36.6609 80.8253 36.9066 81.0312 37.2219 81.1818C37.5401 81.3295 37.9066 81.4034 38.3214 81.4034ZM38.3214 77.1548C38.6623 77.1548 38.9677 77.0824 39.2376 76.9375C39.5075 76.7926 39.7205 76.5952 39.8768 76.3452C40.0359 76.0923 40.1168 75.8054 40.1197 75.4844C40.1168 75.1662 40.0373 74.8849 39.881 74.6406C39.7248 74.3935 39.5117 74.2017 39.2418 74.0653C38.9748 73.9261 38.668 73.8565 38.3214 73.8565C37.9748 73.8565 37.6651 73.9261 37.3924 74.0653C37.1225 74.2017 36.9094 74.3935 36.7532 74.6406C36.5998 74.8849 36.5245 75.1662 36.5273 75.4844C36.5245 75.8054 36.6012 76.0923 36.7575 76.3452C36.9165 76.5952 37.131 76.7926 37.4009 76.9375C37.6737 77.0824 37.9805 77.1548 38.3214 77.1548Z" fill="#94949E"/>
<path opacity="0.6" d="M23.3661 221.278V221.994H19.7354V221.278H23.3661ZM27.9513 226.119C27.3377 226.119 26.8136 225.943 26.3789 225.591C25.9471 225.236 25.6147 224.723 25.3817 224.053C25.1516 223.382 25.0366 222.577 25.0366 221.636C25.0366 220.699 25.1516 219.896 25.3817 219.229C25.6147 218.558 25.9485 218.045 26.3832 217.69C26.8207 217.332 27.3434 217.153 27.9513 217.153C28.5593 217.153 29.0806 217.332 29.5153 217.69C29.9528 218.045 30.2866 218.558 30.5167 219.229C30.7496 219.896 30.8661 220.699 30.8661 221.636C30.8661 222.577 30.7496 223.382 30.5167 224.053C30.2866 224.723 29.9542 225.236 29.5195 225.591C29.0877 225.943 28.565 226.119 27.9513 226.119ZM27.9513 225.403C28.6246 225.403 29.1502 225.075 29.5281 224.419C29.9059 223.76 30.0948 222.832 30.0948 221.636C30.0948 220.841 30.0082 220.162 29.8349 219.599C29.6644 219.034 29.4187 218.602 29.0977 218.304C28.7795 218.006 28.3974 217.857 27.9513 217.857C27.2837 217.857 26.7596 218.189 26.3789 218.854C25.9982 219.516 25.8079 220.443 25.8079 221.636C25.8079 222.432 25.8931 223.111 26.0636 223.673C26.2369 224.236 26.4826 224.665 26.8008 224.96C27.1218 225.256 27.5053 225.403 27.9513 225.403ZM32.8722 226.064C32.7045 226.064 32.5597 226.004 32.4375 225.885C32.3182 225.763 32.2585 225.618 32.2585 225.45C32.2585 225.28 32.3182 225.135 32.4375 225.016C32.5597 224.896 32.7045 224.837 32.8722 224.837C33.0426 224.837 33.1875 224.896 33.3068 225.016C33.4261 225.135 33.4858 225.28 33.4858 225.45C33.4858 225.561 33.4574 225.663 33.4006 225.757C33.3466 225.851 33.2727 225.926 33.179 225.983C33.0881 226.037 32.9858 226.064 32.8722 226.064ZM35.2511 224.125V223.477L39.1417 217.273H39.619V218.359H39.2653L36.1417 223.354V223.409H41.2425V224.125H35.2511ZM39.3249 226V223.92V223.622V217.273H40.0835V226H39.3249Z" fill="#94949E"/>
<path opacity="0.6" d="M23.8466 269.278V269.994H20.2159V269.278H23.8466ZM28.4318 274.119C27.8182 274.119 27.294 273.943 26.8594 273.591C26.4276 273.236 26.0952 272.723 25.8622 272.053C25.6321 271.382 25.517 270.577 25.517 269.636C25.517 268.699 25.6321 267.896 25.8622 267.229C26.0952 266.558 26.429 266.045 26.8636 265.69C27.3011 265.332 27.8239 265.153 28.4318 265.153C29.0398 265.153 29.5611 265.332 29.9957 265.69C30.4332 266.045 30.767 266.558 30.9972 267.229C31.2301 267.896 31.3466 268.699 31.3466 269.636C31.3466 270.577 31.2301 271.382 30.9972 272.053C30.767 272.723 30.4347 273.236 30 273.591C29.5682 273.943 29.0455 274.119 28.4318 274.119ZM28.4318 273.403C29.1051 273.403 29.6307 273.075 30.0085 272.419C30.3864 271.76 30.5753 270.832 30.5753 269.636C30.5753 268.841 30.4886 268.162 30.3153 267.599C30.1449 267.034 29.8991 266.602 29.5781 266.304C29.2599 266.006 28.8778 265.857 28.4318 265.857C27.7642 265.857 27.2401 266.189 26.8594 266.854C26.4787 267.516 26.2884 268.443 26.2884 269.636C26.2884 270.432 26.3736 271.111 26.544 271.673C26.7173 272.236 26.9631 272.665 27.2812 272.96C27.6023 273.256 27.9858 273.403 28.4318 273.403ZM33.3526 274.064C33.185 274.064 33.0401 274.004 32.918 273.885C32.7987 273.763 32.739 273.618 32.739 273.45C32.739 273.28 32.7987 273.135 32.918 273.016C33.0401 272.896 33.185 272.837 33.3526 272.837C33.5231 272.837 33.668 272.896 33.7873 273.016C33.9066 273.135 33.9663 273.28 33.9663 273.45C33.9663 273.561 33.9379 273.663 33.881 273.757C33.8271 273.851 33.7532 273.926 33.6594 273.983C33.5685 274.037 33.4663 274.064 33.3526 274.064ZM38.3214 274.119C37.7646 274.119 37.2688 274.014 36.8342 273.804C36.3995 273.594 36.0586 273.307 35.8114 272.943C35.5643 272.577 35.4407 272.163 35.4407 271.703C35.4407 271.342 35.516 271.006 35.6665 270.693C35.8171 270.378 36.0245 270.114 36.2887 269.901C36.5529 269.685 36.8498 269.544 37.1793 269.479V269.432C36.7504 269.307 36.4052 269.061 36.1438 268.695C35.8825 268.325 35.7532 267.906 35.756 267.438C35.7532 267.003 35.864 266.614 36.0884 266.27C36.3129 265.926 36.6183 265.655 37.0046 265.456C37.3938 265.254 37.8327 265.153 38.3214 265.153C38.8072 265.153 39.2433 265.254 39.6296 265.456C40.016 265.655 40.3214 265.926 40.5458 266.27C40.7731 266.614 40.8881 267.003 40.891 267.438C40.8881 267.903 40.756 268.322 40.4947 268.695C40.2333 269.064 39.8896 269.31 39.4634 269.432V269.479C39.793 269.541 40.0884 269.68 40.3498 269.896C40.6112 270.112 40.8185 270.378 40.9719 270.693C41.1254 271.006 41.2021 271.342 41.2021 271.703C41.2021 272.163 41.0771 272.577 40.8271 272.943C40.5799 273.307 40.239 273.594 39.8043 273.804C39.3725 274.014 38.8782 274.119 38.3214 274.119ZM38.3214 273.403C38.7362 273.403 39.0998 273.33 39.4123 273.182C39.7276 273.031 39.9734 272.825 40.1495 272.564C40.3285 272.303 40.418 272.003 40.418 271.665C40.418 271.315 40.3256 271.004 40.141 270.732C39.9563 270.456 39.7063 270.239 39.391 270.08C39.0756 269.918 38.7191 269.837 38.3214 269.837C37.9237 269.837 37.5657 269.918 37.2475 270.08C36.9322 270.239 36.6822 270.456 36.4975 270.732C36.3157 271.004 36.2248 271.315 36.2248 271.665C36.2248 272.003 36.3114 272.303 36.4847 272.564C36.6609 272.825 36.9066 273.031 37.2219 273.182C37.5401 273.33 37.9066 273.403 38.3214 273.403ZM38.3214 269.155C38.6623 269.155 38.9677 269.082 39.2376 268.938C39.5075 268.793 39.7205 268.595 39.8768 268.345C40.0359 268.092 40.1168 267.805 40.1197 267.484C40.1168 267.166 40.0373 266.885 39.881 266.641C39.7248 266.393 39.5117 266.202 39.2418 266.065C38.9748 265.926 38.668 265.857 38.3214 265.857C37.9748 265.857 37.6651 265.926 37.3924 266.065C37.1225 266.202 36.9094 266.393 36.7532 266.641C36.5998 266.885 36.5245 267.166 36.5273 267.484C36.5245 267.805 36.6012 268.092 36.7575 268.345C36.9165 268.595 37.131 268.793 37.4009 268.938C37.6737 269.082 37.9805 269.155 38.3214 269.155Z" fill="#94949E"/>
<path opacity="0.6" d="M228.682 311.119C228.068 311.119 227.544 310.943 227.109 310.591C226.678 310.236 226.345 309.723 226.112 309.053C225.882 308.382 225.767 307.577 225.767 306.636C225.767 305.699 225.882 304.896 226.112 304.229C226.345 303.558 226.679 303.045 227.114 302.69C227.551 302.332 228.074 302.153 228.682 302.153C229.29 302.153 229.811 302.332 230.246 302.69C230.683 303.045 231.017 303.558 231.247 304.229C231.48 304.896 231.597 305.699 231.597 306.636C231.597 307.577 231.48 308.382 231.247 309.053C231.017 309.723 230.685 310.236 230.25 310.591C229.818 310.943 229.295 311.119 228.682 311.119ZM228.682 310.403C229.355 310.403 229.881 310.075 230.259 309.419C230.636 308.76 230.825 307.832 230.825 306.636C230.825 305.841 230.739 305.162 230.565 304.599C230.395 304.034 230.149 303.602 229.828 303.304C229.51 303.006 229.128 302.857 228.682 302.857C228.014 302.857 227.49 303.189 227.109 303.854C226.729 304.516 226.538 305.443 226.538 306.636C226.538 307.432 226.624 308.111 226.794 308.673C226.967 309.236 227.213 309.665 227.531 309.96C227.852 310.256 228.236 310.403 228.682 310.403ZM233.603 311.064C233.435 311.064 233.29 311.004 233.168 310.885C233.049 310.763 232.989 310.618 232.989 310.45C232.989 310.28 233.049 310.135 233.168 310.016C233.29 309.896 233.435 309.837 233.603 309.837C233.773 309.837 233.918 309.896 234.037 310.016C234.157 310.135 234.216 310.28 234.216 310.45C234.216 310.561 234.188 310.663 234.131 310.757C234.077 310.851 234.003 310.926 233.909 310.983C233.819 311.037 233.716 311.064 233.603 311.064ZM235.982 309.125V308.477L239.872 302.273H240.349V303.359H239.996L236.872 308.354V308.409H241.973V309.125H235.982ZM240.055 311V308.92V308.622V302.273H240.814V311H240.055ZM243.89 302.273H244.81L247.976 309.875H248.053L251.219 302.273H252.14V311H251.39V303.956H251.321L248.377 311H247.652L244.708 303.956H244.64V311H243.89V302.273Z" fill="#94949E"/>
<path opacity="0.6" d="M324.682 311.119C324.068 311.119 323.544 310.943 323.109 310.591C322.678 310.236 322.345 309.723 322.112 309.053C321.882 308.382 321.767 307.577 321.767 306.636C321.767 305.699 321.882 304.896 322.112 304.229C322.345 303.558 322.679 303.045 323.114 302.69C323.551 302.332 324.074 302.153 324.682 302.153C325.29 302.153 325.811 302.332 326.246 302.69C326.683 303.045 327.017 303.558 327.247 304.229C327.48 304.896 327.597 305.699 327.597 306.636C327.597 307.577 327.48 308.382 327.247 309.053C327.017 309.723 326.685 310.236 326.25 310.591C325.818 310.943 325.295 311.119 324.682 311.119ZM324.682 310.403C325.355 310.403 325.881 310.075 326.259 309.419C326.636 308.76 326.825 307.832 326.825 306.636C326.825 305.841 326.739 305.162 326.565 304.599C326.395 304.034 326.149 303.602 325.828 303.304C325.51 303.006 325.128 302.857 324.682 302.857C324.014 302.857 323.49 303.189 323.109 303.854C322.729 304.516 322.538 305.443 322.538 306.636C322.538 307.432 322.624 308.111 322.794 308.673C322.967 309.236 323.213 309.665 323.531 309.96C323.852 310.256 324.236 310.403 324.682 310.403ZM329.603 311.064C329.435 311.064 329.29 311.004 329.168 310.885C329.049 310.763 328.989 310.618 328.989 310.45C328.989 310.28 329.049 310.135 329.168 310.016C329.29 309.896 329.435 309.837 329.603 309.837C329.773 309.837 329.918 309.896 330.037 310.016C330.157 310.135 330.216 310.28 330.216 310.45C330.216 310.561 330.188 310.663 330.131 310.757C330.077 310.851 330.003 310.926 329.909 310.983C329.819 311.037 329.716 311.064 329.603 311.064ZM334.576 311.119C334.215 311.116 333.863 311.044 333.519 310.902C333.175 310.757 332.865 310.526 332.59 310.207C332.314 309.886 332.096 309.463 331.934 308.938C331.772 308.412 331.691 307.766 331.691 306.999C331.691 306.288 331.753 305.638 331.878 305.047C332.003 304.456 332.191 303.945 332.441 303.513C332.691 303.081 333.003 302.747 333.378 302.511C333.753 302.273 334.192 302.153 334.695 302.153C335.167 302.153 335.583 302.251 335.944 302.447C336.304 302.641 336.597 302.911 336.821 303.257C337.046 303.604 337.186 304.003 337.243 304.455H336.459C336.38 303.994 336.191 303.615 335.892 303.317C335.594 303.018 335.195 302.869 334.695 302.869C333.979 302.869 333.425 303.202 333.033 303.866C332.641 304.528 332.444 305.469 332.441 306.688H332.496C332.635 306.429 332.814 306.206 333.033 306.018C333.255 305.828 333.506 305.68 333.787 305.575C334.069 305.467 334.364 305.413 334.674 305.413C335.159 305.413 335.604 305.537 336.007 305.784C336.411 306.028 336.733 306.365 336.975 306.794C337.216 307.22 337.337 307.707 337.337 308.256C337.337 308.776 337.222 309.254 336.992 309.692C336.765 310.129 336.444 310.477 336.029 310.736C335.617 310.994 335.132 311.122 334.576 311.119ZM334.576 310.403C334.956 310.403 335.296 310.307 335.594 310.114C335.895 309.92 336.132 309.662 336.306 309.338C336.479 309.011 336.566 308.651 336.566 308.256C336.566 307.861 336.479 307.503 336.306 307.182C336.132 306.861 335.895 306.605 335.594 306.415C335.296 306.224 334.956 306.129 334.576 306.129C334.286 306.129 334.016 306.189 333.766 306.308C333.516 306.425 333.299 306.585 333.114 306.79C332.932 306.991 332.793 307.223 332.696 307.484C332.603 307.746 332.567 308.02 332.59 308.307C332.621 308.707 332.725 309.067 332.901 309.385C333.08 309.7 333.313 309.949 333.6 310.131C333.89 310.312 334.215 310.403 334.576 310.403ZM339.327 302.273H340.248L343.414 309.875H343.49L346.657 302.273H347.577V311H346.827V303.956H346.759L343.814 311H343.09L340.145 303.956H340.077V311H339.327V302.273Z" fill="#94949E"/>
<path opacity="0.6" d="M420.682 311.119C420.068 311.119 419.544 310.943 419.109 310.591C418.678 310.236 418.345 309.723 418.112 309.053C417.882 308.382 417.767 307.577 417.767 306.636C417.767 305.699 417.882 304.896 418.112 304.229C418.345 303.558 418.679 303.045 419.114 302.69C419.551 302.332 420.074 302.153 420.682 302.153C421.29 302.153 421.811 302.332 422.246 302.69C422.683 303.045 423.017 303.558 423.247 304.229C423.48 304.896 423.597 305.699 423.597 306.636C423.597 307.577 423.48 308.382 423.247 309.053C423.017 309.723 422.685 310.236 422.25 310.591C421.818 310.943 421.295 311.119 420.682 311.119ZM420.682 310.403C421.355 310.403 421.881 310.075 422.259 309.419C422.636 308.76 422.825 307.832 422.825 306.636C422.825 305.841 422.739 305.162 422.565 304.599C422.395 304.034 422.149 303.602 421.828 303.304C421.51 303.006 421.128 302.857 420.682 302.857C420.014 302.857 419.49 303.189 419.109 303.854C418.729 304.516 418.538 305.443 418.538 306.636C418.538 307.432 418.624 308.111 418.794 308.673C418.967 309.236 419.213 309.665 419.531 309.96C419.852 310.256 420.236 310.403 420.682 310.403ZM425.603 311.064C425.435 311.064 425.29 311.004 425.168 310.885C425.049 310.763 424.989 310.618 424.989 310.45C424.989 310.28 425.049 310.135 425.168 310.016C425.29 309.896 425.435 309.837 425.603 309.837C425.773 309.837 425.918 309.896 426.037 310.016C426.157 310.135 426.216 310.28 426.216 310.45C426.216 310.561 426.188 310.663 426.131 310.757C426.077 310.851 426.003 310.926 425.909 310.983C425.819 311.037 425.716 311.064 425.603 311.064ZM430.571 311.119C430.015 311.119 429.519 311.014 429.084 310.804C428.65 310.594 428.309 310.307 428.061 309.943C427.814 309.577 427.691 309.163 427.691 308.703C427.691 308.342 427.766 308.006 427.917 307.693C428.067 307.378 428.275 307.114 428.539 306.901C428.803 306.685 429.1 306.544 429.429 306.479V306.432C429 306.307 428.655 306.061 428.394 305.695C428.132 305.325 428.003 304.906 428.006 304.438C428.003 304.003 428.114 303.614 428.338 303.27C428.563 302.926 428.868 302.655 429.255 302.456C429.644 302.254 430.083 302.153 430.571 302.153C431.057 302.153 431.493 302.254 431.88 302.456C432.266 302.655 432.571 302.926 432.796 303.27C433.023 303.614 433.138 304.003 433.141 304.438C433.138 304.903 433.006 305.322 432.745 305.695C432.483 306.064 432.14 306.31 431.713 306.432V306.479C432.043 306.541 432.338 306.68 432.6 306.896C432.861 307.112 433.069 307.378 433.222 307.693C433.375 308.006 433.452 308.342 433.452 308.703C433.452 309.163 433.327 309.577 433.077 309.943C432.83 310.307 432.489 310.594 432.054 310.804C431.623 311.014 431.128 311.119 430.571 311.119ZM430.571 310.403C430.986 310.403 431.35 310.33 431.662 310.182C431.978 310.031 432.223 309.825 432.4 309.564C432.578 309.303 432.668 309.003 432.668 308.665C432.668 308.315 432.576 308.004 432.391 307.732C432.206 307.456 431.956 307.239 431.641 307.08C431.326 306.918 430.969 306.837 430.571 306.837C430.174 306.837 429.816 306.918 429.498 307.08C429.182 307.239 428.932 307.456 428.748 307.732C428.566 308.004 428.475 308.315 428.475 308.665C428.475 309.003 428.561 309.303 428.735 309.564C428.911 309.825 429.157 310.031 429.472 310.182C429.79 310.33 430.157 310.403 430.571 310.403ZM430.571 306.155C430.912 306.155 431.218 306.082 431.488 305.938C431.757 305.793 431.971 305.595 432.127 305.345C432.286 305.092 432.367 304.805 432.37 304.484C432.367 304.166 432.287 303.885 432.131 303.641C431.975 303.393 431.762 303.202 431.492 303.065C431.225 302.926 430.918 302.857 430.571 302.857C430.225 302.857 429.915 302.926 429.642 303.065C429.373 303.202 429.159 303.393 429.003 303.641C428.85 303.885 428.775 304.166 428.777 304.484C428.775 304.805 428.851 305.092 429.007 305.345C429.167 305.595 429.381 305.793 429.651 305.938C429.924 306.082 430.23 306.155 430.571 306.155ZM435.409 302.273H436.33L439.496 309.875H439.572L442.739 302.273H443.659V311H442.909V303.956H442.841L439.896 311H439.172L436.227 303.956H436.159V311H435.409V302.273Z" fill="#94949E"/>
<path opacity="0.6" d="M520.665 302.273V311H519.868V303.108H519.817L517.771 304.467V303.641L519.834 302.273H520.665ZM523.435 311.064C523.267 311.064 523.122 311.004 523 310.885C522.881 310.763 522.821 310.618 522.821 310.45C522.821 310.28 522.881 310.135 523 310.016C523.122 309.896 523.267 309.837 523.435 309.837C523.605 309.837 523.75 309.896 523.869 310.016C523.989 310.135 524.048 310.28 524.048 310.45C524.048 310.561 524.02 310.663 523.963 310.757C523.909 310.851 523.835 310.926 523.741 310.983C523.651 311.037 523.548 311.064 523.435 311.064ZM528.369 311.119C527.756 311.119 527.232 310.943 526.797 310.591C526.365 310.236 526.033 309.723 525.8 309.053C525.57 308.382 525.455 307.577 525.455 306.636C525.455 305.699 525.57 304.896 525.8 304.229C526.033 303.558 526.366 303.045 526.801 302.69C527.239 302.332 527.761 302.153 528.369 302.153C528.977 302.153 529.499 302.332 529.933 302.69C530.371 303.045 530.705 303.558 530.935 304.229C531.168 304.896 531.284 305.699 531.284 306.636C531.284 307.577 531.168 308.382 530.935 309.053C530.705 309.723 530.372 310.236 529.938 310.591C529.506 310.943 528.983 311.119 528.369 311.119ZM528.369 310.403C529.043 310.403 529.568 310.075 529.946 309.419C530.324 308.76 530.513 307.832 530.513 306.636C530.513 305.841 530.426 305.162 530.253 304.599C530.082 304.034 529.837 303.602 529.516 303.304C529.197 303.006 528.815 302.857 528.369 302.857C527.702 302.857 527.178 303.189 526.797 303.854C526.416 304.516 526.226 305.443 526.226 306.636C526.226 307.432 526.311 308.111 526.482 308.673C526.655 309.236 526.901 309.665 527.219 309.96C527.54 310.256 527.923 310.403 528.369 310.403ZM533.206 302.273H534.126L537.293 309.875H537.369L540.536 302.273H541.456V311H540.706V303.956H540.638L537.693 311H536.969L534.024 303.956H533.956V311H533.206V302.273Z" fill="#94949E"/>
<path opacity="0.6" d="M614.665 302.273V311H613.868V303.108H613.817L611.771 304.467V303.641L613.834 302.273H614.665ZM617.435 311.064C617.267 311.064 617.122 311.004 617 310.885C616.881 310.763 616.821 310.618 616.821 310.45C616.821 310.28 616.881 310.135 617 310.016C617.122 309.896 617.267 309.837 617.435 309.837C617.605 309.837 617.75 309.896 617.869 310.016C617.989 310.135 618.048 310.28 618.048 310.45C618.048 310.561 618.02 310.663 617.963 310.757C617.909 310.851 617.835 310.926 617.741 310.983C617.651 311.037 617.548 311.064 617.435 311.064ZM620.022 311V310.416L622.873 307.212C623.245 306.791 623.545 306.432 623.772 306.134C624 305.835 624.164 305.56 624.267 305.307C624.372 305.054 624.424 304.791 624.424 304.518C624.424 304.186 624.346 303.896 624.19 303.649C624.037 303.399 623.825 303.205 623.555 303.065C623.285 302.926 622.981 302.857 622.643 302.857C622.285 302.857 621.971 302.933 621.701 303.087C621.434 303.24 621.227 303.45 621.079 303.717C620.931 303.984 620.858 304.291 620.858 304.638H620.095C620.095 304.155 620.206 303.727 620.427 303.355C620.652 302.98 620.957 302.686 621.343 302.473C621.733 302.26 622.173 302.153 622.664 302.153C623.15 302.153 623.582 302.259 623.96 302.469C624.338 302.676 624.635 302.959 624.85 303.317C625.066 303.675 625.174 304.075 625.174 304.518C625.174 304.839 625.118 305.151 625.004 305.452C624.893 305.753 624.701 306.088 624.429 306.457C624.156 306.827 623.778 307.278 623.295 307.812L621.13 310.229V310.284H625.447V311H620.022ZM627.534 302.273H628.455L631.621 309.875H631.697L634.864 302.273H635.784V311H635.034V303.956H634.966L632.021 311H631.297L628.352 303.956H628.284V311H627.534V302.273Z" fill="#94949E"/>
<path opacity="0.6" d="M708.665 302.273V311H707.868V303.108H707.817L705.771 304.467V303.641L707.834 302.273H708.665ZM711.435 311.064C711.267 311.064 711.122 311.004 711 310.885C710.881 310.763 710.821 310.618 710.821 310.45C710.821 310.28 710.881 310.135 711 310.016C711.122 309.896 711.267 309.837 711.435 309.837C711.605 309.837 711.75 309.896 711.869 310.016C711.989 310.135 712.048 310.28 712.048 310.45C712.048 310.561 712.02 310.663 711.963 310.757C711.909 310.851 711.835 310.926 711.741 310.983C711.651 311.037 711.548 311.064 711.435 311.064ZM713.814 309.125V308.477L717.704 302.273H718.181V303.359H717.828L714.704 308.354V308.409H719.805V309.125H713.814ZM717.887 311V308.92V308.622V302.273H718.646V311H717.887ZM721.722 302.273H722.642L725.808 309.875H725.885L729.051 302.273H729.972V311H729.222V303.956H729.153L726.209 311H725.484L722.54 303.956H722.472V311H721.722V302.273Z" fill="#94949E"/>
<path opacity="0.6" d="M807.665 302.273V311H806.868V303.108H806.817L804.771 304.467V303.641L806.834 302.273H807.665ZM810.435 311.064C810.267 311.064 810.122 311.004 810 310.885C809.881 310.763 809.821 310.618 809.821 310.45C809.821 310.28 809.881 310.135 810 310.016C810.122 309.896 810.267 309.837 810.435 309.837C810.605 309.837 810.75 309.896 810.869 310.016C810.989 310.135 811.048 310.28 811.048 310.45C811.048 310.561 811.02 310.663 810.963 310.757C810.909 310.851 810.835 310.926 810.741 310.983C810.651 311.037 810.548 311.064 810.435 311.064ZM815.408 311.119C815.047 311.116 814.695 311.044 814.351 310.902C814.007 310.757 813.697 310.526 813.422 310.207C813.146 309.886 812.928 309.463 812.766 308.938C812.604 308.412 812.523 307.766 812.523 306.999C812.523 306.288 812.585 305.638 812.71 305.047C812.835 304.456 813.023 303.945 813.273 303.513C813.523 303.081 813.835 302.747 814.21 302.511C814.585 302.273 815.024 302.153 815.527 302.153C815.999 302.153 816.415 302.251 816.776 302.447C817.136 302.641 817.429 302.911 817.653 303.257C817.878 303.604 818.018 304.003 818.075 304.455H817.291C817.212 303.994 817.023 303.615 816.724 303.317C816.426 303.018 816.027 302.869 815.527 302.869C814.811 302.869 814.257 303.202 813.865 303.866C813.473 304.528 813.276 305.469 813.273 306.688H813.328C813.467 306.429 813.646 306.206 813.865 306.018C814.087 305.828 814.338 305.68 814.619 305.575C814.901 305.467 815.196 305.413 815.506 305.413C815.991 305.413 816.436 305.537 816.839 305.784C817.243 306.028 817.565 306.365 817.807 306.794C818.048 307.22 818.169 307.707 818.169 308.256C818.169 308.776 818.054 309.254 817.824 309.692C817.597 310.129 817.276 310.477 816.861 310.736C816.449 310.994 815.964 311.122 815.408 311.119ZM815.408 310.403C815.788 310.403 816.128 310.307 816.426 310.114C816.727 309.92 816.964 309.662 817.138 309.338C817.311 309.011 817.398 308.651 817.398 308.256C817.398 307.861 817.311 307.503 817.138 307.182C816.964 306.861 816.727 306.605 816.426 306.415C816.128 306.224 815.788 306.129 815.408 306.129C815.118 306.129 814.848 306.189 814.598 306.308C814.348 306.425 814.131 306.585 813.946 306.79C813.764 306.991 813.625 307.223 813.528 307.484C813.435 307.746 813.399 308.02 813.422 308.307C813.453 308.707 813.557 309.067 813.733 309.385C813.912 309.7 814.145 309.949 814.432 310.131C814.722 310.312 815.047 310.403 815.408 310.403ZM820.159 302.273H821.08L824.246 309.875H824.322L827.489 302.273H828.409V311H827.659V303.956H827.591L824.646 311H823.922L820.977 303.956H820.909V311H820.159V302.273Z" fill="#94949E"/>
<defs>
<filter id="filter0_d_21_451" x="697" y="18" width="22" height="22" filterUnits="userSpaceOnUse" color-interpolation-filters="sRGB">
<feFlood flood-opacity="0" result="BackgroundImageFix"/>
<feColorMatrix in="SourceAlpha" type="matrix" values="0 0 0 0 0 0 0 0 0 0 0 0 0 0 0 0 0 0 127 0" result="hardAlpha"/>
<feOffset dy="1"/>
<feGaussianBlur stdDeviation="2"/>
<feComposite in2="hardAlpha" operator="out"/>
<feColorMatrix type="matrix" values="0 0 0 0 0 0 0 0 0 0 0 0 0 0 0 0 0 0 1 0"/>
<feBlend mode="normal" in2="BackgroundImageFix" result="effect1_dropShadow_21_451"/>
<feBlend mode="normal" in="SourceGraphic" in2="effect1_dropShadow_21_451" result="shape"/>
</filter>
<linearGradient id="paint0_linear_21_451" x1="431" y1="1" x2="431" y2="56.6" gradientUnits="userSpaceOnUse">
<stop stop-color="#2A2A2D"/>
<stop offset="0.293761" stop-color="#2A2A2D" stop-opacity="0.5"/>
<stop offset="1" stop-color="#2A2A2D" stop-opacity="0.4"/>
</linearGradient>
<linearGradient id="paint1_linear_21_451" x1="622.111" y1="-47.3" x2="618.789" y2="52.4388" gradientUnits="userSpaceOnUse">
<stop offset="0.1692" stop-color="white"/>
<stop offset="0.486337" stop-color="white" stop-opacity="0.0996564"/>
<stop offset="0.63272" stop-color="white" stop-opacity="0"/>
</linearGradient>
<radialGradient id="paint2_radial_21_451" cx="0" cy="0" r="1" gradientUnits="userSpaceOnUse" gradientTransform="translate(861 0.999993) rotate(171.836) scale(808.915 227.713)">
<stop stop-color="#CCCCCC"/>
<stop offset="1" stop-color="#CCCCCC" stop-opacity="0"/>
</radialGradient>
<linearGradient id="paint3_linear_21_451" x1="431" y1="1" x2="431" y2="56.6" gradientUnits="userSpaceOnUse">
<stop stop-color="#2A2A2D"/>
<stop offset="0.293761" stop-color="#2A2A2D" stop-opacity="0.5"/>
<stop offset="1" stop-color="#2A2A2D" stop-opacity="0.4"/>
</linearGradient>
<linearGradient id="paint4_linear_21_451" x1="625.448" y1="-42.7949" x2="623.995" y2="42.6459" gradientUnits="userSpaceOnUse">
<stop offset="0.1692" stop-color="white"/>
<stop offset="0.573305" stop-color="white" stop-opacity="0.0996564"/>
<stop offset="0.63272" stop-color="white" stop-opacity="0"/>
</linearGradient>
<linearGradient id="paint5_linear_21_451" x1="875.5" y1="118" x2="41.5" y2="208" gradientUnits="userSpaceOnUse">
<stop stop-color="#D9D9D9"/>
<stop offset="1" stop-color="#D9D9D9" stop-opacity="0.8"/>
</linearGradient>
</defs>
</svg>
