<svg width="43" height="48" viewBox="0 0 43 48" fill="none" xmlns="http://www.w3.org/2000/svg">
<path d="M28.4612 16.4905C28.2962 16.4889 28.1346 16.5364 27.9967 16.6269C27.859 16.7174 27.7511 16.8469 27.6867 16.9988C27.6226 17.1507 27.605 17.3183 27.6363 17.4802C27.6675 17.6422 27.7462 17.7912 27.8622 17.9084C27.9782 18.0255 28.1264 18.1056 28.2883 18.1383C28.4498 18.171 28.6174 18.155 28.77 18.0923C28.9226 18.0295 29.0531 17.9229 29.1447 17.7858C29.2365 17.6488 29.2855 17.4876 29.2855 17.3227C29.2855 17.1033 29.199 16.8928 29.0446 16.737C28.8902 16.5811 28.6806 16.4925 28.4612 16.4905Z" fill="#AFAFB6"/>
<path fill-rule="evenodd" clip-rule="evenodd" d="M21.1113 6C16.9579 6 12.8978 7.23162 9.44439 9.53913C5.99091 11.8466 3.29934 15.1264 1.7099 18.9636C0.120465 22.8009 -0.295459 27.0232 0.514839 31.0969C1.32514 35.1705 3.32521 38.9123 6.26207 41.8491C9.19902 44.786 12.9408 46.7861 17.0144 47.5965C21.088 48.4068 25.3105 47.9908 29.1477 46.4015C32.985 44.812 36.2646 42.1203 38.5721 38.6669C40.8797 35.2135 42.1113 31.1533 42.1113 26.9999C42.1113 21.4304 39.8988 16.089 35.9605 12.1508C32.0224 8.21248 26.6808 6 21.1113 6ZM32.5524 32.88H21.9979V31.2466H32.5524V32.88ZM31.2613 17.5733C31.2613 17.5733 30.538 18.5222 30.927 21.0655C31.6424 25.8333 29.1379 30.0799 24.7046 30.0799H21.4146C21.4146 30.0799 18.2024 29.9166 16.2736 31.8456C14.3069 33.8147 12.8564 35.281 11.7827 36.3663L11.7524 36.3969C9.73286 38.4385 9.06019 39.1184 8.79134 39.2655C8.53467 39.3977 8.46466 39.0944 8.46466 39.0944L25.3502 18.2733C25.2771 17.5726 25.4438 16.8679 25.8233 16.2743C26.2027 15.6808 26.7724 15.2336 27.4391 15.0059C28.1059 14.7783 28.83 14.7837 29.4933 15.0212C30.1566 15.2586 30.7196 15.7142 31.0901 16.3133L32.6457 15.8778L31.2613 17.5733Z" fill="#AFAFB6"/>
</svg>
