<svg width="20" height="21" viewBox="0 0 20 21" fill="none" xmlns="http://www.w3.org/2000/svg">
<g clip-path="url(#clip0_993_148)">
<path d="M19.125 0.574219H0.875C0.375 0.574219 0 0.949219 0 1.44922V19.8242C0 20.1992 0.375 20.5742 0.875 20.5742H19.25C19.75 20.5742 20.125 20.1992 20.125 19.6992V1.44922C20 0.949219 19.625 0.574219 19.125 0.574219ZM5.875 17.5742H3V8.07422H6V17.5742H5.875ZM4.5 6.82422C3.5 6.82422 2.75 5.94922 2.75 5.07422C2.75 4.07422 3.5 3.32422 4.5 3.32422C5.5 3.32422 6.25 4.07422 6.25 5.07422C6.125 5.94922 5.375 6.82422 4.5 6.82422ZM17 17.5742H14V12.9492C14 11.8242 14 10.4492 12.5 10.4492C11 10.4492 10.75 11.6992 10.75 12.9492V17.6992H7.75V8.07422H10.625V9.32422C11 8.57422 12 7.82422 13.375 7.82422C16.375 7.82422 16.875 9.82422 16.875 12.3242V17.5742H17Z" fill="white"/>
</g>
<defs>
<clipPath id="clip0_993_148">
<rect width="20" height="20" fill="white" transform="translate(0 0.574219)"/>
</clipPath>
</defs>
</svg>
