<svg width="20" height="21" viewBox="0 0 20 21" fill="none" xmlns="http://www.w3.org/2000/svg">
<g clip-path="url(#clip0_993_152)">
<path fill-rule="evenodd" clip-rule="evenodd" d="M10 0.828125C4.5 0.828125 0 5.32812 0 10.8281C0 15.2031 2.875 18.9531 6.875 20.3281C7.375 20.4531 7.5 20.0781 7.5 19.8281C7.5 19.5781 7.5 18.9531 7.5 18.0781C4.75 18.7031 4.125 16.8281 4.125 16.8281C3.625 15.7031 3 15.3281 3 15.3281C2.125 14.7031 3.125 14.7031 3.125 14.7031C4.125 14.8281 4.625 15.7031 4.625 15.7031C5.5 17.3281 7 16.8281 7.5 16.5781C7.625 15.9531 7.875 15.4531 8.125 15.2031C5.875 14.9531 3.625 14.0781 3.625 10.2031C3.625 9.07812 4 8.20312 4.625 7.57812C4.5 7.32812 4.125 6.32812 4.75 4.95312C4.75 4.95312 5.625 4.70313 7.5 5.95313C8.25 5.70313 9.125 5.57812 10 5.57812C10.875 5.57812 11.75 5.70313 12.5 5.95313C14.375 4.70313 15.25 4.95312 15.25 4.95312C15.75 6.32812 15.5 7.32812 15.375 7.57812C16 8.32812 16.375 9.20312 16.375 10.2031C16.375 14.0781 14 14.8281 11.75 15.0781C12.125 15.5781 12.5 16.2031 12.5 17.0781C12.5 18.4531 12.5 19.4531 12.5 19.8281C12.5 20.0781 12.625 20.4531 13.25 20.3281C17.25 18.9531 20.125 15.2031 20.125 10.8281C20 5.32812 15.5 0.828125 10 0.828125Z" fill="white"/>
</g>
<defs>
<clipPath id="clip0_993_152">
<rect width="20" height="20" fill="white" transform="translate(0 0.574219)"/>
</clipPath>
</defs>
</svg>
