<svg width="109" height="29" viewBox="0 0 109 29" fill="none" xmlns="http://www.w3.org/2000/svg">
<path d="M49.8523 9.58807V6.54546H64.1875V9.58807H58.8437V24H55.196V9.58807H49.8523ZM67.4718 24.2472C66.6366 24.2472 65.8923 24.1023 65.2389 23.8125C64.5855 23.517 64.0684 23.0824 63.6877 22.5085C63.3127 21.929 63.1252 21.2074 63.1252 20.3438C63.1252 19.6165 63.2587 19.0057 63.5258 18.5114C63.7928 18.017 64.1565 17.6193 64.6167 17.3182C65.0769 17.017 65.5997 16.7898 66.1849 16.6364C66.7758 16.483 67.3951 16.375 68.0428 16.3125C68.8042 16.233 69.4178 16.1591 69.8837 16.0909C70.3497 16.017 70.6877 15.9091 70.898 15.767C71.1082 15.625 71.2133 15.4148 71.2133 15.1364V15.0852C71.2133 14.5455 71.0428 14.1278 70.7019 13.8324C70.3667 13.5369 69.8894 13.3892 69.2701 13.3892C68.6167 13.3892 68.0968 13.5341 67.7105 13.8239C67.3241 14.108 67.0684 14.4659 66.9434 14.8977L63.5855 14.625C63.7559 13.8295 64.0911 13.142 64.5911 12.5625C65.0911 11.9773 65.736 11.5284 66.5258 11.2159C67.3212 10.8977 68.2417 10.7386 69.2872 10.7386C70.0144 10.7386 70.7105 10.8239 71.3752 10.9943C72.0457 11.1648 72.6394 11.429 73.1565 11.7869C73.6792 12.1449 74.0911 12.6051 74.3923 13.1676C74.6934 13.7244 74.844 14.392 74.844 15.1705V24H71.4008V22.1847H71.2985C71.0883 22.5938 70.807 22.9545 70.4548 23.267C70.1025 23.5739 69.6792 23.8153 69.1849 23.9915C68.6906 24.1619 68.1195 24.2472 67.4718 24.2472ZM68.5116 21.7415C69.0457 21.7415 69.5173 21.6364 69.9264 21.4261C70.3355 21.2102 70.6565 20.9205 70.8894 20.5568C71.1224 20.1932 71.2389 19.7813 71.2389 19.321V17.9318C71.1252 18.0057 70.969 18.0739 70.7701 18.1364C70.5769 18.1932 70.3582 18.2472 70.1139 18.2983C69.8695 18.3438 69.6252 18.3864 69.3809 18.4261C69.1366 18.4602 68.915 18.4915 68.7161 18.5199C68.29 18.5824 67.9178 18.6818 67.5997 18.8182C67.2815 18.9545 67.0343 19.1392 66.8582 19.3722C66.682 19.5994 66.594 19.8835 66.594 20.2244C66.594 20.7188 66.773 21.0966 67.1309 21.358C67.4945 21.6136 67.9548 21.7415 68.5116 21.7415ZM76.7007 24V10.9091H80.3314V24H76.7007ZM78.5246 9.22159C77.9848 9.22159 77.5218 9.04261 77.1354 8.68466C76.7547 8.32102 76.5644 7.88636 76.5644 7.38068C76.5644 6.88068 76.7547 6.45171 77.1354 6.09375C77.5218 5.73011 77.9848 5.5483 78.5246 5.5483C79.0644 5.5483 79.5246 5.73011 79.9053 6.09375C80.2916 6.45171 80.4848 6.88068 80.4848 7.38068C80.4848 7.88636 80.2916 8.32102 79.9053 8.68466C79.5246 9.04261 79.0644 9.22159 78.5246 9.22159ZM82.2798 28.9091V10.9091H85.8593V13.108H86.0213C86.1804 12.7557 86.4105 12.3977 86.7116 12.0341C87.0184 11.6648 87.4162 11.358 87.9048 11.1136C88.3991 10.8636 89.0128 10.7386 89.7457 10.7386C90.7003 10.7386 91.5809 10.9886 92.3878 11.4886C93.1946 11.983 93.8395 12.7301 94.3224 13.7301C94.8054 14.7244 95.0468 15.9716 95.0468 17.4716C95.0468 18.9318 94.811 20.1648 94.3395 21.1705C93.8735 22.1705 93.2372 22.929 92.4304 23.446C91.6292 23.9574 90.7315 24.2131 89.7372 24.2131C89.0326 24.2131 88.4332 24.0966 87.9389 23.8636C87.4503 23.6307 87.0497 23.3381 86.7372 22.9858C86.4247 22.6278 86.186 22.267 86.0213 21.9034H85.9105V28.9091H82.2798ZM85.8338 17.4545C85.8338 18.233 85.9417 18.9119 86.1576 19.4915C86.3735 20.071 86.686 20.5227 87.0951 20.8466C87.5042 21.1648 88.0014 21.3239 88.5866 21.3239C89.1775 21.3239 89.6775 21.1619 90.0866 20.8381C90.4957 20.5085 90.8054 20.054 91.0156 19.4744C91.2315 18.8892 91.3395 18.2159 91.3395 17.4545C91.3395 16.6989 91.2343 16.0341 91.0241 15.4602C90.8139 14.8864 90.5042 14.4375 90.0951 14.1136C89.686 13.7898 89.1832 13.6278 88.5866 13.6278C87.9957 13.6278 87.4957 13.7841 87.0866 14.0966C86.6832 14.4091 86.3735 14.8523 86.1576 15.4261C85.9417 16 85.8338 16.6761 85.8338 17.4545ZM98.3269 28.9091C97.8667 28.9091 97.4349 28.8722 97.0314 28.7983C96.6337 28.7301 96.3042 28.642 96.0428 28.5341L96.861 25.8239C97.2871 25.9545 97.6706 26.0256 98.0116 26.0369C98.3581 26.0483 98.6564 25.9687 98.9064 25.7983C99.1621 25.6278 99.3695 25.3381 99.5286 24.929L99.7417 24.375L95.0456 10.9091H98.8638L101.574 20.5227H101.71L104.446 10.9091H108.29L103.202 25.4148C102.958 26.1193 102.625 26.733 102.205 27.2557C101.79 27.7841 101.264 28.1903 100.628 28.4744C99.9917 28.7642 99.2246 28.9091 98.3269 28.9091Z" fill="white"/>
<path d="M2.425 1.07144C2.6496 0.4297 3.25526 0 3.93517 0H39.0724C39.6235 0 40.0095 0.54414 39.8275 1.06428L37.775 6.92856C37.5504 7.5703 36.9447 8 36.2648 8H1.12759C0.576507 8 0.190449 7.45586 0.372498 6.93572L2.425 1.07144Z" fill="#FF371A"/>
<path d="M10.425 11.0714C10.6496 10.4297 11.2553 10 11.9352 10H25.6724C26.2235 10 26.6096 10.5441 26.4275 11.0643L24.375 16.9286C24.1504 17.5703 23.5447 18 22.8648 18H9.12758C8.57651 18 8.19045 17.4559 8.3725 16.9357L10.425 11.0714Z" fill="#FF371A"/>
<path d="M14.8703 21.0714C15.0949 20.4297 15.7006 20 16.3805 20H22.1177C22.6688 20 23.0549 20.5441 22.8728 21.0643L20.8203 26.9286C20.5957 27.5703 19.9901 28 19.3101 28H13.5729C13.0218 28 12.6358 27.4559 12.8178 26.9357L14.8703 21.0714Z" fill="#FF371A"/>
</svg>
